<svg xmlns="http://www.w3.org/2000/svg" viewBox="0 0 500 500"><title>aerospace</title><g id="Base"><path d="M497,60.72H335.77V53.14a1.84,1.84,0,0,0-3.54-.73l-3.56,8.3H54.89L153.5,237.88,28.37,214.42,0,233.34l118.23,94.58-2.65,66.18c-.76,19,21.92,29.24,35.68,16.17l56.82-54h11.33l51.43,92.41,53.87-92.41h86.73l23.65-37.83L360,295.71ZM464.08,79.64,341.41,290.08,279,271.17l47.29-123h61.48L397.25,134l-61.48-18.92V79.64Zm-377,0H320.57l-13.17,30.74-70.94,4.73v14.19l33.1,9.46-89.85,104-2-.38ZM271.22,410.49l-30.16-54.2h61.76Z"/></g></svg>