<svg xmlns="http://www.w3.org/2000/svg" viewBox="0 0 500 500"><title>armor</title><g id="Base"><path d="M497.13,360.49c-1.66-9-11.11-14.52-20.13-15.88s-18.26.21-27.35-.68a33.5,33.5,0,0,1-10.51-2.59A41.42,41.42,0,0,1,430.8,336V228l38.27-8.76c4.47-1,9.14-2.15,12.54-5.23s4.9-8.76,2-12.28c-2.58-3.09-7.19-3.25-11.22-3.14q-20.78.55-41.54,1.66V65.5H42.85V316.85c-7.33.47-14.61,1.16-21.46,3.7-10.31,3.82-19.61,13.37-18.73,24.33.9,11.15,11.35,18.78,21,24.41,39.42,23,82.37,39,125.09,55,12.57,4.7,25.38,9.46,38.79,10.11a66.44,66.44,0,0,0,58.06-30c1.66-2.61,3.34-5.51,6.2-6.69,3.18-1.31,6.75-.08,10.15.41,11.84,1.7,23.37-5.92,35.3-5,6.43.48,12.39,3.39,18.65,4.94,13.71,3.4,28.06.16,42.16-.57,31.07-1.61,61.44,9,92.46,11.42,6.18.47,12.57.59,18.38-1.55,12.25-4.51,18.81-17.51,24.21-29.39C495.66,372.43,498.23,366.46,497.13,360.49Zm-84.59-39-18.33-14.62c-13.85-11-28.46-22.44-45.88-25.66-10.3-1.9-20.91-.79-31.36-1.59-5.16-.4-10.54-1.38-14.53-4.67s-6-9.51-3.08-13.8c2.28-3.4,6.66-4.57,10.66-5.48l102.53-23.47Zm0-237.71V201.33Q360.62,204.69,309,211.47c-20.86,2.74-42.54,5.84-62.56-.63-6.25-2-12.28-5-18.8-5.77-13.45-1.66-27.32-.36-41.69,2.43-8.46,6.34-22.24,9.21-33.76,12.08s-24.33,11.81-22,23.47c10.83,7.3,20,3.71,20,13.17-.07,11.11-12.31,17.93-23.2,20.13S103.79,279,95.84,286.75c-5,4.92-7.42,12-12.06,17.31-5.67,6.49-14,9.58-22.67,11.1V83.76Z"/></g></svg>