<svg xmlns="http://www.w3.org/2000/svg" viewBox="0 0 500 500"><defs><style>.cls-1{fill:#fff;}.cls-2{fill:#d89a00;}</style></defs><title>battletech-hbs_COLOR</title><g id="n1"><polygon points="369.48 371.5 454.73 272 427.36 83.36 300.86 38.36 202.04 38.36 72.64 83.36 45.27 272 130.52 371.5 0 371.5 0 462.5 500 462.5 500 371.5 369.48 371.5"/></g><g id="Base"><g id="g4356"><path id="rect3349-9-2-9" class="cls-1" d="M218.08,212.21l-19.5,19.28,21.72,28.35-12.74,19.3,9.61,60.28,11.05,1.65v-19H240l1.31,18.55h19.78l1.31-18.55h11.75v19l11.05-1.65,9.61-60.28L282,259.84l21.72-28.35-19.5-19.28L267,214.44l-4.79,42.76-6.88,1.13v37.91H247V258.34l-6.88-1.13-4.79-42.76Zm-88.23,6.61-13.31,2.46v15.37l15.19,24,12.75-26.92Zm242.65,0-14.64,14.9,12.75,26.92,15.19-24V221.28ZM196.19,232.17l-8.77.37,2.24,25.79,17,18,10.83-16.4Zm110,0-21.28,27.77,10.83,16.4,17-18,2.24-25.79Zm-121,.47-38.32,1.61-12.72,26.84,53.14-4.31Zm132.13,0-2.1,24.14,53.14,4.31-12.72-26.84Z"/><ellipse id="path3388-8-3-2-0" class="cls-1" cx="182.07" cy="278.09" rx="8.73" ry="11.83" transform="translate(-149.2 250.83) rotate(-52.08)"/><path id="path3388-0-2-3-2" class="cls-1" d="M122.64,207.21c-1.41.34-3-1.33-4.2-6.28-.58-2.41-.6-7.56.81-7.9s3.33,2.65,4.29,6.68C124.29,202.84,123.68,207,122.64,207.21Z"/><path id="rect3421-9-4-0" class="cls-1" d="M161.36,198.27l30.07,2.23,3,4.43-8.12,4.91-25.34,1-4-4.07v-4.45Z"/><path id="rect3424-2-6-1" class="cls-1" d="M222.28,355.4l11.38.92v5.18H223Z"/><rect id="rect3427-8-1-9" class="cls-1" x="246.91" y="357.28" width="8.32" height="5.92"/><path id="path4400-98-1" class="cls-1" d="M139.55,87.17,94.1,98.09,68.48,265l52.33,65.57,30.41.78.26-10.29-25.62-.66-46.53-58.3,22.53-146.74,16.44-2C124.6,103.54,131.26,94.65,139.55,87.17Z"/><ellipse id="path3388-8-3-2-2-8" class="cls-1" cx="320.27" cy="278.09" rx="11.83" ry="8.73" transform="translate(-103.29 255.52) rotate(-37.92)"/><path id="path3388-0-2-3-5-2" class="cls-1" d="M379.71,207.21c1.41.34,3-1.33,4.2-6.28.58-2.41.6-7.56-.81-7.9s-3.33,2.65-4.29,6.68C378.06,202.84,378.66,207,379.71,207.21Z"/><path id="rect3421-9-4-7-3" class="cls-1" d="M341,198.27l-30.07,2.23-3,4.43,8.12,4.91,25.34,1,4-4.07v-4.45Z"/><path id="rect3424-2-6-4-7" class="cls-1" d="M280.06,355.4l-11.38.92v5.18h10.67Z"/><path id="path4400-98-8-9" class="cls-1" d="M362.79,87.17l45.45,10.92L433.87,265l-52.33,65.57-30.41.78-.26-10.29,25.62-.66L423,262.09,400.47,115.36l-16.44-2C377.75,103.54,371.08,94.65,362.79,87.17Z"/><path id="rect3467-7-4-6" class="cls-1" d="M251.17,51.6c-52.83,0-95.43,21.67-116.2,51.26,3.1,25.85,7.31,51.72,12.09,77.59l60.67,2.17-5-77.46c37.88-5.57,60.94-5.33,96.95,0l-5,77.46,60.67-2.17c4.78-25.87,9-51.73,12.09-77.58C344.85,72.06,304,51.6,251.17,51.6Zm-.35,51.8a305.94,305.94,0,0,0-45.68,3.76L210.47,189l10.92,19.85H235l6.85-32.28h18.72l6.85,32.28H281L291.87,189l5.32-81.83A287.5,287.5,0,0,0,250.82,103.41ZM133,105.69a117.86,117.86,0,0,0-18,43.69l2.82,17.44a289.16,289.16,0,0,1,19.58-29.53Q134.94,121.49,133,105.69Zm236.38,0q-1.94,15.8-4.38,31.6a289.16,289.16,0,0,1,19.58,29.53l2.82-17.44A117.86,117.86,0,0,0,369.36,105.69Zm-231.5,34.79A294.59,294.59,0,0,0,118.65,170l10.57,22.9,15.63-11.68C142.34,167.62,140,154.05,137.86,140.48Zm226.62,0c-2.12,13.57-4.48,27.13-7,40.7l15.63,11.68L383.7,170A294.59,294.59,0,0,0,364.48,140.48ZM113.75,156.34a166.68,166.68,0,0,0-1.61,30.87l6.84-5.42,7.16,9.92-10.26-22.23Zm274.84,0-2.13,13.14-10.26,22.23,7.16-9.92,6.84,5.42A166.68,166.68,0,0,0,388.59,156.34Z"/><path id="path4186-7" class="cls-1" d="M103.22,407.57V393.31h45.45v14.26H134.18v39.84H117.74V407.57Z"/><path id="path4188-3" class="cls-1" d="M151.48,407.57V393.31h45.45v14.26H182.44v39.84H166V407.57Z"/><path id="path4190-0" class="cls-1" d="M201.18,447.41V393.31h16.39v39.84h20.56v14.26h-37Z"/><path id="path4192-6" class="cls-1" d="M242.51,393.31v54.09h41.12V433.15H258.9v-5.94h24.17V413H258.9v-5.39h41.45v39.84h16.43V407.57h14.49V393.31Z"/><path id="path4196-0" class="cls-1" d="M335,447.41V393.31h41.12v14.26H351.42V413h24.17v14.26H351.42v5.94h24.73v14.26H335Z"/><path id="path4198-9" class="cls-1" d="M378.34,420.4a27.62,27.62,0,0,1,3.89-14.61,26.59,26.59,0,0,1,10.68-9.9,32.88,32.88,0,0,1,15.24-3.48,29.7,29.7,0,0,1,7.66,1,23,23,0,0,1,11,6.1,24.32,24.32,0,0,1,3.57,4.24,27.15,27.15,0,0,1,2.46,4.47l-14.13,6.57a11.46,11.46,0,0,0-4-5.58,10.26,10.26,0,0,0-6.47-2.3,12.37,12.37,0,0,0-9.49,3.92A13.5,13.5,0,0,0,395,420.4a13.64,13.64,0,0,0,3.65,9.66,12.43,12.43,0,0,0,9.49,3.88,10.26,10.26,0,0,0,6.47-2.3,11.46,11.46,0,0,0,4-5.58l14.13,6.49a29.93,29.93,0,0,1-2.42,4.44,26.42,26.42,0,0,1-3.57,4.24,23.14,23.14,0,0,1-11,6.18,29,29,0,0,1-7.7,1,32.88,32.88,0,0,1-15.24-3.48A26.52,26.52,0,0,1,382.23,435a27.55,27.55,0,0,1-3.89-14.57Z"/><path id="path4200-4" class="cls-1" d="M436.29,447.41V393.31h16.39v19.13h19.45V393.31h16.39v54.09H472.13V426.73H452.68v20.67Z"/><g id="text3363-1-8"><path id="path4220-1" class="cls-1" d="M3.5,447.41V393.31H36.4a19.36,19.36,0,0,1,7.22,1.27,12.93,12.93,0,0,1,5.08,3.29,14.3,14.3,0,0,1,2.82,4.4,12.43,12.43,0,0,1,1,4.83,12.74,12.74,0,0,1-2.62,8.2,11.38,11.38,0,0,1-6.67,4.2,11.52,11.52,0,0,1,7.38,4.4,13.73,13.73,0,0,1,2.94,8.83,15.38,15.38,0,0,1-1,5.5,14.86,14.86,0,0,1-2.9,4.67,13.37,13.37,0,0,1-5,3.29,19.25,19.25,0,0,1-7.06,1.23H3.5Zm16.39-13.62H33.07a4,4,0,0,0,2.78-.91,3.48,3.48,0,0,0,0-5,3.79,3.79,0,0,0-2.74-1H19.89Zm0-20.51h12.7a3.16,3.16,0,0,0,2.26-.91,3,3,0,0,0,1-2.34,2.82,2.82,0,0,0-1-2.22,3.24,3.24,0,0,0-2.26-.87H19.89Z"/></g><g id="text4210-3"><path id="path4215-9" class="cls-1" d="M492,393h-.68V389.8h-1.2v-.57h3.09v.57H492V393Z"/><path id="path4217-6" class="cls-1" d="M495.6,392q.12-.44.3-.94l.64-1.78h1V393h-.68v-1.89q0-.41,0-1h0l-.11.36-.13.39-.77,2.11h-.44l-.77-2.11-.13-.39-.11-.36h0q0,.52,0,1V393h-.68v-3.73h1l.64,1.77q.16.44.3,1h0Z"/></g><path id="path4227-1" class="cls-1" d="M83.68,383.57,57.8,429.91H75l8.63-15.45,8.63,15.45h17.25Z"/><path id="path4227-3-7-8" class="cls-1" d="M66.5,433.83l-7.72,13.82h49.79l-7.72-13.82Z"/></g></g><g id="p1"><path id="rect3421-9-4-0-2" data-name="rect3421-9-4-0" class="cls-2" d="M161.36,198.27l30.07,2.23,3,4.43-8.12,4.91-25.34,1-4-4.07v-4.45Z"/><path id="rect3421-9-4-7-3-2" data-name="rect3421-9-4-7-3" class="cls-2" d="M341,198.27l-30.07,2.23-3,4.43,8.12,4.91,25.34,1,4-4.07v-4.45Z"/><path id="path4227-1-2" data-name="path4227-1" class="cls-2" d="M83.68,383.57,57.8,429.91H75l8.63-15.45,8.63,15.45h17.25Z"/><path id="path4227-3-7-8-2" data-name="path4227-3-7-8" class="cls-2" d="M66.5,433.83l-7.72,13.82h49.79l-7.72-13.82Z"/></g></svg>