<svg xmlns="http://www.w3.org/2000/svg" viewBox="0 0 500 500"><title>burrs-black-cobras</title><g id="Icons"><path d="M389.67,433.4c-6.47-14.39-28.9-19.7-42.58-22.75-15.81-3.52-32.09-3.93-48-4.6-19.1-.8-37.29,1.17-56.13,4.07-14.85,2.28-29.14,7.36-44.07,9.38-9.81,1.32-32.82-3.85-32.16,10.47.93,20.13,24.87,14.75,38,11.66,17.14-4,34.51-10.58,50.89-17,12.94-5.07,33.22-9.2,46.22-2,5.19,2.88,12,9,14,14.58,2.88,8,2.33,7.63,10.74,5.69a160.46,160.46,0,0,0,19.25-5.79c3.45-1.28,12-9.73,16-8.57-20.81,18.94-47.19,20.43-74.06,22.37-13.76,1-25.63,12.3-37.34,18.6-6.92,3.72-11,7.14-16.9,12.08-.31.26-7.36,4.47-6.9,5.56.59,1.38,2.38,2.72,3.92,1.31,1.95-1.79,14.6.4,18,.51,9.47.31,18.4.39,27.66,1.55,17.66,2.22,35.69-2.22,53.29-2a78.38,78.38,0,0,0,46.78-14C388.77,466,396.56,448.72,389.67,433.4Z"/><path d="M412.2,399.95c-3.46-20.69-31.49-14.48-45.51-15-8.92-.32-18,.32-26.79.17-6.9-.12-13.73-2.22-20-5.05-3.52-1.59-7.85-4.93-11.93-3.91a4.89,4.89,0,0,0,0-1.64c8-.85,15.66,4.73,23.46,6.79,13.86,3.66,32.48-.53,46.33-3.38,4.42-.91,12.84-1.1,16.86-3.28,10.88-5.9-6.82-3.88-9.89-3.35a243,243,0,0,1-35.08,3.63c-7.46.22-64.19-13.7-54.84,10.26,5.13,13.15,35.09,8,46,8.05,17,0,32.57-3.3,49.25-3.15,0,.36-20,4-22.3,4.31-12.55,1.61-25.27,0-37.85.06-29.65,0-59.35-2.65-88.93-5.07-12.85-1.05-25.67-3-37.91,2-8.67,3.56-20.35,10.93-18.63,21.93,1.16,7.38,4.69,6,11.72,4.86s14.2-2.66,21.23-4c15.3-2.89-5.77-3-5.17-12.27,5.94.82,10.11,5.87,16.68,6.33,8.39.59,16.3-.51,24.53-1.76,21.09-3.21,45.08-4.21,66.23-1.86,9.51,1.06,18.72.92,28.13,2.46,9.75,1.6,18.53,8,27.45,11.91C389.92,425.43,415.7,420.84,412.2,399.95Z"/><path d="M210.17,55.79c-.39-3.43-7.39,2.56-6.55,4.3C205.4,63.74,210.5,58.67,210.17,55.79Z"/><path d="M243.38,30.45a.3.3,0,0,0,.27.23A.41.41,0,0,1,243.38,30.45Z"/><path d="M192.65,332.68a110.75,110.75,0,0,0,113-180.23c6.48-7.56,12.82-15.22,18.14-23.68,8.65-13.74,22-36.79,13.37-53.22-9.37-17.93-31.39-26.09-47.51-35.38-9.06-5.22-16.48-9.42-23.72-17.54-4.82-5.41-8.69-20.2-18.32-19.07-5.81.68-10.69,8.65-16.56,10.78-4.82,1.75-8.75,3.09-13.86,2.65-3.94-.34-8.51-2.68-12.3-.6-4.55,2.5-4.25,9.25-5.82,13.72-1.85,5.27-4.61,10.11-6.1,15.54-1.65,6-4.64,18.7,3.38,21.59-3.84,2.77-7.71,10.31-10.8,14.33A33.87,33.87,0,0,0,178.34,98a142.89,142.89,0,0,0-1.89,27.37l-.08,0a8.77,8.77,0,0,0-1.34.9,110.74,110.74,0,0,0-12.12,192.89c-5.28,12.3-9.62,24.82-14.93,37.28-5.56,13.06-8.25,26.77-13.65,40-3.16,7.74-3.75,18.23-7.5,25.29-4,7.45-11.71,4.36-18,9.21l.55-.59c-8.79,0-17.08,10.64-20.12,18-4.38,10.51-.17,21.66,6.33,30.28,14.78,19.62,54.9,18.59,77,17.44,21.88-1.14,40.62-10.76,59.79-20,11.16-5.4,22.74-11.19,33.43-17.37,8.6-5,18.52-9.74,26.59-15.51a1.6,1.6,0,0,0,1.22,1.05c-5.56,3.78,8.78,3,10.35,2.81,9.14-1.24,10-8.17,4.63-15.3-14.49-19-44-8.52-61.93-1.42a260.39,260.39,0,0,1-60.54,15.53c-20,2.81-51.26,8.57-67.27-7.87,6-1.43,10.85,3.91,16.4,5.66,7,2.21,14.88,1.94,22.14,2.12,5.85.15,14,3.06,12.71-3-1.08-5.17-4.29-6.38-4.41-12.72-.27-13.5,4.58-28.6,7.9-41.8C178.39,369,185.76,351.05,192.65,332.68ZM295.4,54.52c.28.11,3.28,1.84,3.57,1.86-.37,0,3.34-.15,2.2-.7a40.2,40.2,0,0,1,6.32,3.88,20.56,20.56,0,0,0,7.92,2.25c-.06,2.69,1.45,4.56,4.52,3.52.64,3.07,3.32.46,4.63,2.06.59.72-.79,2.9.14,3.68a22.48,22.48,0,0,0,4.06,1.4c1.36,1.5-1.59,2.45.54,3.91,1.3.89,3.77-.17,4.54,1.39-3,.54.71,7.81.81,9.86-1.34,1.28-2.37,9.79-3.25,12.19-2.47,6.73-5.18,13.16-8.14,19.69-5.17,11.42-13.3,18.81-20.3,29.1-3.5-2.08,13.34-22.13,15.11-25.12A94.12,94.12,0,0,0,329,92c3.48-24.93-25.37-27.84-40.21-39.43A33.82,33.82,0,0,1,295.4,54.52ZM290.14,171c3.78-4.87,7.78-9.55,11.8-14.23A105.08,105.08,0,0,1,194.67,327.32c10.23-27.07,21.3-53.64,36.79-77.23,8.15-12.4,15-25.67,23.85-37.75C266,197.77,279.11,185.25,290.14,171ZM234.58,22.89c4.14-5.23,7.3-7.14,13.94-7a1.51,1.51,0,0,0-.68,1.18c-9.15.39-10.72,13.46-16.58,13.14C231.6,29.48,235.17,24.13,234.58,22.89Zm-4.21-4.45c-1.79,1.24-2.31,1.1-1.65,2.9a.55.55,0,0,0,.29.33,5.78,5.78,0,0,0-1.49.6c0-1-.88-1.81-1.57-2.72A24.39,24.39,0,0,1,230.37,18.44ZM214.67,24q3.37.05,6.73.33L220.87,27C221,27,211,24,214.67,24ZM210,21.32a1.11,1.11,0,0,0,1.07-1.4l2.14.7a1,1,0,0,0,.3,1.16c-3.21.68-.8.79-3.6-.47Zm-1.7-3.52h.3a1.61,1.61,0,0,0,.69,1.49,1.22,1.22,0,0,0,0,1.78,8.36,8.36,0,0,0-2.87-.33,1.58,1.58,0,0,0-.81-2.15A5.07,5.07,0,0,1,208.35,17.81ZM194.26,62.42c-6.57-8.95,7.31-30.48,8.87-38.75,2.5,1.75,5.53-.26,7.67,2.76-4.12-1.12-8.58,2.61-4.93,6.54q-2.74-.3-2.84,1.91a3.8,3.8,0,0,0,4,1.45c-1.73,2.08-6.74,0-7.34,2q.64,3,4.5,2.41a3.05,3.05,0,0,0-.31,1.44c-3.42-.41-6.79-.05-2,2.15-2.27,1.13-4.73,3.9-1,4.16-.88.58-4.05,2.51-2.62,4.17-8.29,4.42,8.19,6.37.17,2.5,4.57-1.27,6.29-1.47,2.25-3.65,1.25-1.16,6.57-2,6.6-3.12a1.55,1.55,0,0,0-1.85-1.22c.82-.59,6.52-5.11,1.47-4.89,0-1,4.78-2.92,2.51-4a3.53,3.53,0,0,0,1.4-2.07c1.54.34,6.12-.12,2.57-2,3.44-2.53,7.87-4.36,11.26-6.94.82-.62,5.27-5,4.65-5.62,1.65-.23,5.54-4.78,5.93-5.06,4-3,6.71-4.93,12.56-3-2.32,0-6.36-.19-8.3.62-3.3,1.38-13.28,12.6-12.5,16,1.9,8.16,18.6-3.8,9.25-.56,3.2-5.7,5.94-10.61,13.3-10.29a19.57,19.57,0,0,1-6.27,5.89c.27-.78.83-1.93-.4-2.34-.68-.22-4.34,5.37,1.69,4.2,2.67-.52,6.4-7.68,8.1-7.39,0,0-7.46,11.15-9.09,11,1.54.61,9.07-1.69,10.24-2.47C255.2,32.86,244,32.3,241.67,33c-3.66,1.16-7.13,3.9-10.42,5.84.74-3.91-13.8,10.68-14.78,11.56-1.33-1.79-9.9-1.88-9.49,1.88.48,4.38,7.87,1.26,9.33.58,6.4-3,11.3-8,17.44-11.67C239,38.1,247.42,32.41,254,35.06c7.08,2.85,9.37,16.83,7,24.06-2.67,8.21-.59,23.69-10.21,27.25-3.7,1.37-11.33-1.86-13.93-4.88,1,.28,2.84-.48,2.82-1.74,2.49.09-1.24-5.52-1.34-6.72-.17-2.09.3-7.6,2.87-4.62,3.1,3.6-1.7,11.13,5,14.22-2.31-.22-2.53.81-1.3,2.23,3.24,3.74,8.5-2.89,9.53-5,1.66-3.32,3.43-14.32,2.08-17.61,1.52-.62,2.82-10.67,2.52-13.36-.61-5.45-3.12-12-9.28-12.08-10.22-.06-24.9,11.69-32.32,17.92C212.11,59.27,200.9,71.47,194.26,62.42Zm29.11-9.52q1.28-1,2.63-1.9c.92,1.86,7.7,12.56,5.76,14.76C226,61.83,227.59,57.76,223.37,52.91ZM225,75.62c-2.66-2.14-5.55-5.93-7.88-8.66-3.57-4.18-4.81-4.58-.39-8.51,2.44,5.34,6,10.36,8.65,15.63C225.67,74.72,225.4,74.93,225,75.62Zm9.48-14.24c3.06-5.7.8-10.33,5.72-16.08,1.8-2.11,4.17-4.36,7.06-4.56-3.13,2.6-12.6,11.64-9.92,15.65-1.86-2.77,11.43-13.35,12.63-15.73.81.65,1.73,1.32,2.69.33,1.2,1.76,1.89,6.31,2.3,7.76C238.24,43,237.76,84.41,225.71,84.27,230.46,80.37,235.33,67.78,234.46,61.38Zm20.41-2.32a3.85,3.85,0,0,0-.07,2.83c-4,2.85,2,15.59-3.5,18.56a4,4,0,0,1-6.06-3.93c9.44,3.13,8.37-9.51,6.14-10,2.26-4.39,1.37-4.24,1.63-8.8,0-.71-2.3-5.09,2.15-4.41C255,54.35,254.13,58,254.87,59.06Zm-49,16.05c-3.56-1.78-4.51-6.67-7.55-8.27C205.58,65.39,203.57,70.33,205.86,75.11ZM181,109.41c.29-4.69,6.25-34.15,13.32-30.9-4.85,4.52-7.3,16.77-9,23.07-3,11.08-2.12,24.64-.34,35.94,4.51,28.59,8.08,56.66,9,85.61.1,3-1.67,14.54,3.6,8.66,1.61-1.79,2.87-11.47,3.88-14.2,4.87-13.23,10.6-26.87,14.5-40.52s6.8-28.07,11.66-41.87c2.29-6.49,5.41-11.94,6.9-18.62.33-1.49.28-8.32,3.05-7.64,1.18.29,1.29,6.06,1,6.75-1.1,2.35-4,5.85-1.12,8.1-2,.77-3.37,7.33.33,6.34a9.16,9.16,0,0,0-4.83,3.44c-.56.94-1.13,6.4.34,4.35a1.57,1.57,0,0,0,.12,1.24c-5.66,2.64-8,5.47-2.68,8.27-1.8,1.2-4.48,3-5.18,5s2.26,2.65,1.92,4.54c-.3,1.64-7.64,8.31-2.43,9.35-3.19,2.32-4.6,4.3-5.58,7.7a4.3,4.3,0,0,1,1.87,1.82q1.59,1.66-2,2.32c-.88,2.3-6.86,7.81,0,6.81-1.56.89-10.26,12-4.58,10.77-.51,1.62-3.57,3-4.36,4.68-1.6,3.33.5,4-.33,7.24-1,3.81-7.61,10.23-1.52,12-1.92,2-6.93,5.94-7.57,8.67-.58,2.45,1.35,5,1.28,5.48-.43,2.81-2.93,3.61-4.31,6.84-2.34,5.48-1.3,2.73,1.12,6.49-9.4,4.27-3.73,16.58-11.63,21.53.44-10.67,3.68-19.8,3.1-30.53-.55-10.25-.09-20.34-1.16-30.59-1.74-16.7-3.46-33.06-6.14-50A226,226,0,0,1,181,109.41ZM165.25,313.87a105,105,0,0,1,11.4-182.07c.29,6.63.83,13.21,1.43,19.55,1.66,17.53,6.38,34.77,6.79,52.17s4.37,35.19.26,52.16c-2.22,9.19-2.48,17.08-5.62,26.06a170.2,170.2,0,0,1-10.09,23.52C168,308.11,166.57,311,165.25,313.87Z"/></g></svg>