<svg xmlns="http://www.w3.org/2000/svg" viewBox="0 0 500 500"><title>circinus-federation</title><g id="Base"><g id="Icons"><path d="M247.87,272.76a105.84,105.84,0,0,1-1.39-11.3c-4.84.33-5.52,11.2-10.58,14.14.57,4.89.39,8.81,5.14,9.89.09-2.55,4.35-6,6.48-7.09A14,14,0,0,1,247.87,272.76Z"/><path d="M262.84,271.49a30.57,30.57,0,0,1-5.29-8.59c-1.42,6.65-1.68,12.15-.3,18.34a8.38,8.38,0,0,1,.88,2.31C264.9,282.33,269.24,279.84,262.84,271.49Z"/><path d="M302.69,286.35c-4.66-10.49-10,4-12.38,5.66-.21-1.66-4.64-4.67-6.59-5.14-6.12-1.47-7.36,2.07-10.59,6.86-6-14.81-12.34-2.16-17.34,3.25-6.7-12.57-15.48-12.5-17.76,1.61l-.48-.89a4.46,4.46,0,0,1-1.05.44c-3.84-8-11.07-13.07-15.85-2.33-12.13-26.82-20.43,11.07-6.75,20.42q-.33,1.78,1.67,3c-2.69,9.24,6,30.19,15.73,16.74,3.67,7.28,13.52,3.93,15.71-2.56h.14a.5.5,0,0,1,0-.4c.49,1,3,9.13,5.21,8.91q2.66-2.1,1.51-5.78c5.31,5.47,11.35,3.36,13-3.71,2.74,3.27,9.81,7.69,11.54.59,14.44,8.14,9.51-8.12,14.17-17.28C296.46,308,307.22,296.54,302.69,286.35ZM276.57,294c10.08-15,11.11,9,9.59,15.47-4.88,20.73-8.49-6.75-12.09-11.76Zm-14.85-1.58c10.72-16.74,9.09,32.22,3.74,26.45l-.25-3.49c-1.81-1.29-2.76-8.29-3.34-10.51-1.75-6.7-4.64-5.45-.15-12.47Zm-20.42,4.83c1.27-8.17,6.8-8.65,10.7-.74,4.21,8.55-.49,27.65-1,37.62-.47-1-2.76-7.78-4.76-7.77-1.63-9.88-6.46-19.41-4.94-29.13Zm-15.91-3.76c3.34-4.08,13.5,7.68,6.12,11.84.11,4.07.22,19.89-6.28,13.73-4.24-4-3.46-21.18.15-25.59ZM210,294.73c0,2.4.43-7.08,1.16-7.23,8.27-1.77,6.93,23.48,5.62,26.87C210.35,311.68,210,300.51,210,294.73Zm15.57,42.66c-7.77,3.88-5.81-19.33-5.63-20.37,6.4,2.35,6,13,8.55,17.77a9,9,0,0,1-2.94,2.61Zm14.37-.46c-10.34,2.92-9.18-22.76-4.38-25.26,5.39-2.8,2.8,19.17,8.5,21.23a6.24,6.24,0,0,1-4.14,4Zm23-2.32c-2,5-7-.75-8.79-2.54,1.39-2.27,1.07-18.69,4.41-18.79,5.85-.18,5.44,18.72,4.39,21.33Zm12.47-2.2c-1.27,4.18-6-1.45-7.57-3.45.89-1.3,4.45-13.94,7.14-12.59a6.35,6.35,0,0,1,0,7.24c2,1.28.6,8.25.44,8.81Zm10.5-1.84a2.64,2.64,0,0,1-.64,2.25c-1.81,0-5.13-2.31-6.39-2.94.91-1.93,5.42-11,8.5-10.31,1.56.35-.39,6-.6,6.68.09.08-1.13,5.75-.86,4.32Zm12.25-31.91c-1.09,4.37-1.91,8.79-5,12.23,0-4.86-1.61-10.6-2.3-15.6,3.18-1.2,2.67-7,5.2-7.82,6.9-2.33,3.2,7,2.16,11.19Z"/><path d="M409.22,323.22,464.29,332l-47.65-26.75A172,172,0,0,0,425.76,262h1.84l4-5.57h1.58l62.11-13.84-64.14-11.4h-.53l-3-4.19h-2.67a173.25,173.25,0,0,0-8.42-35.52l56.89-36.62-66.3,14.74A178,178,0,0,0,386,137.49q-1.4-1.7-2.85-3.37l3.59-3.22,40-58.6-59.25,42.2-2,1.86a175.52,175.52,0,0,0-40.77-26.53L336.6,25.74,303.32,81.53a168.61,168.61,0,0,0-18.55-4.68,173.24,173.24,0,0,0-19.22-2.59V70.63l-5.57-4V65.06L246.13,3l-11.4,64.14v.53l-4.19,3v4.45a175.6,175.6,0,0,0-37.85,9.14l-33.79-52,13.73,60.66a175.42,175.42,0,0,0-44.72,32.19L85,98.33,116,138.24a172.34,172.34,0,0,0-24,39l-45.89-9.17L86,192.59a173.52,173.52,0,0,0-8.57,44.33h-5l-4,5.57H66.83L4.72,256.34l64.14,11.4h.53l3,4.19h6.33a177,177,0,0,0,6.94,30.76l-50.22,35,58-15.16a171.62,171.62,0,0,0,22.28,35.73q1.27,1.57,2.58,3.1l-1,.91L78.8,421.87l56.93-42.69a173.27,173.27,0,0,0,43.4,28l-9.6,55.9,28.16-48.75q3.43,1.11,6.93,2.09a178.92,178.92,0,0,0,32.62,6v7l5.57,4V435l13.88,62,11.4-64.14v-.53l4.19-3v-7.49a171.87,171.87,0,0,0,38.35-9l30.21,44.33L328,405.53a172.15,172.15,0,0,0,40.26-27.29l42.19,26.93-29.84-39.33a180.16,180.16,0,0,0,28.67-42.69ZM376.45,179.79l-33.2,11.7a20.19,20.19,0,0,0,2.58-8.2c.21-2.67-1.2-8.26-2.9-13.13l16.49-14.77A147.77,147.77,0,0,1,376.45,179.79ZM324.73,285.91c0,5.94,4.16,2.29,6.33-.43,3.51,13.44-14.2,7.79-21,12.4-7.45,5.07-13.24,25.45-13,34.31.22,7.93,10.22,19.92-1.37,23.77-5.69,1.89-18.21-3.08-6.54,5.07-8.62,4.43-16.13-4.78-22.88-3.12-9.39,2.31,5.57,8.63,8.61,10.35-2.07,5.54-9.55,5.43-14.06,3.71.18-3.54-11.85-6.26-11.68-2.12-5.9,2.06-10.87,3.71-16.74.48,3.27-3.8,29.23-10,21.54-13.88-7-3.48-22,6.77-25.82,11.64-5.53-2.33-11.72-2.32-16.92-5.55,2.43.53,18.58,3.87,16.65-2.15-1-3.39-17.75-1.39-21.37-4.39-5.81-4.79-1.62-7.44-1-14.24.7-7.57-1.55-16.56-3.7-24S197.2,303.62,190,299.73c-6.73-3.65-18.61-.89-24.21-5.7s-3.39-13.86-2.33-20.31c.52-3.15.15-7,2-9.86,1.37-2.06,6.86-2.75,7.4-5.29,1.51.33,8.24,3.76,6.14,7.26-5.51,9.34,9.72,18.51,17.38,17.57,6.75-.82,10.34-7.6,15.25-11.69,5.42-4.5,13.36-6.52,17.83-12.09a25,25,0,0,0,4.51,1.06c-1,2.92-6.63,11.16-4.82,13.08,4.3,4.54,8.94-10.09,9.49-12.15a6.16,6.16,0,0,0,2.79-1.51c5.95,5.6,10.91.28,17,2.43-.43,6.29,21.64,19.63,6.39,1.35,10.12.88,15.9,2.7,24.38,8.45-2,5.49,13.32,13.62,17.65,13.66,16.59.13-3.72-5.82-6.71-7.68,14.65,4.33,21.66-15.72,19.63-26.82,7.51,3.1,11.17,8.61,12.65,16.91C334,276.87,324.74,279.64,324.73,285.91ZM149.32,177v-.07a1.66,1.66,0,0,0,.9.09,19.13,19.13,0,0,1,1.33,4,15.6,15.6,0,0,0,.28,6.35,8.77,8.77,0,0,0,1.62,3c.18,1.08.3,1.93.35,2.37,1.55,14.91-5.21,3.44-7.17-6.17a2,2,0,0,0,.35-1.12,24.11,24.11,0,0,1,.77-5.24,12.31,12.31,0,0,1,.95-2.87,2.12,2.12,0,0,1,.16-.24Zm7.56,55.31c3.36,1.33,21.81-10.48,25.6-11.92,8.78-3.34,16.71-6.45,26-3.74,7.93,2.3,14.85,8.33,22.26,11.86,12.67,6,15.84,4,15.89,18.69-4.5,2.15-5.15,7.76-9,9.74-8.61-6-21.55-11.73-31.79-15.58-13.58-5.11-28.26-4.88-28.33,13.78-5.4-2.57-8.84-.36-13.11-4.91-4.65-4.93-11.51-10.54-7.51-17.9ZM208.06,149c6.22-2.68.74-4.74-3.27-5.28,7.11-4.47,8.6-9.19,16.6-9.33,2.63,0,8.47,5.28,10.2,3.55,3-3-1.37-5.44-3.86-6.56,13.43-4.78,25.29-1.47,39.54-1.83,15.13-.38,22.67,7.08,35,14.68,5.91,3.65,12.59,7.26,16.32,13.41,4.25,7,0,18,3.38,23.49.19.31.37.57.55.81h-5.09s-2.82-18.18-5.65-18.53S309.31,183,309.31,183l-20.12.35s-4.41-22.24-6.71-22.59S278.77,183,278.77,183l-57.18,2.12s-4.41-23.47-6-23.12S211,184.88,211,184.88l-22.59.18s-3.35-21.71-6-22.24c-4.85-1-5.29,23.3-5.29,23.3l-11.4-.12c1.2-2.35,2.52-9,3.88-12.31,2.55-6.14,12.76-20.94,19.24-24.45C195.12,145.86,202.65,151.31,208.06,149Zm136.22,35.22c-.19,1.16-1.23,7-2.93,7.06-.5,1-1.51,3.37-3,3.14-2.07-.33.8-18.17,1.55-19.53-.94-.92-1.38-4.77.49-5.06,2.5-.39,3.77,13.8,3.76,13.39a1.54,1.54,0,0,1,.07,1Zm-16.81,2.45a5.12,5.12,0,1,1-5.12,5.12h0a5.12,5.12,0,0,1,5.09-5.15h0Zm10.28-15.31a1.85,1.85,0,0,1,0-.83v.83Zm0,3.41c.09,4,.26,7.31.26,7.31l-8.35-.07Zm-25.69,21.71c-1.76,1.29-2.92-25.47.21-25.53,4-.07,4,16.63,3.44,18.76,1.35,2.19.43,10.41-3.6,6.75Zm-9.17-4a3.12,3.12,0,1,1,0-.05v0ZM281,187.19c0-1-.31-17.43,2.35-17.84,1.79-.28,3.09,10.38,3.28,11.86h0A21,21,0,0,0,287,186c1.36.73.35,3.82.49,5,1.87.58.49,12.84-5.24,7.36-3.25-3.1-1.09-7.59-1.17-11.19ZM260.7,201a10.94,10.94,0,1,1-10.93-11h0a10.94,10.94,0,0,1,10.94,10.94h-.05Zm-44.84-29.06c3.58.49,4.53,18,3.93,20.48,2.89,3.92-.76,9.81-4.25,8.84-3.12-.87-7-11.62-2.51-13.8.05,0-.09-15.93,2.88-15.53Zm-12.17,22.7a4.76,4.76,0,1,1-4.76-4.76h0a4.76,4.76,0,0,1,4.82,4.7v.06Zm-18.12-.92c-1,8.85-6.81,3.37-8-2.2-.43-2.08,2.68-22.17,4.29-22.46,2.47-.44,3.14,13.39,3.18,14.38,1.55.71,2,9.61.59,10.28ZM164.24,186h-.08v-.15Zm2.45,4.86a5.29,5.29,0,1,1-5.29,5.29h0a5.29,5.29,0,0,1,5.3-5.27Zm-4.51,18.28A38.43,38.43,0,0,1,179,205c16.41-.18,30.53,2.29,42.71,7.41s25.41,13.77,28.41,14.12,16.77-10.94,27-15.71,24.18-8.65,35.83-8.29c2.85.09,5.77.32,8.55.63-.08,3.29,7.14,13,7.82,13.88-5.93-5.18-11.52-12.27-20.43-11.28-7.56.84-14.48,7.93-22.18,10-8.44,2.25-10.06,4.38-16.24,10.06-5.68,5.22-13.43,6.3-19.19,11.36-1.39-8.48-9.35-8.81-15.91-11.67-8.55-3.73-16.18-10.25-25-13.18-16.11-5.33-37.27,5.24-50.77,13.57.4-2.19,4.84-15.29,2.59-16.74ZM251,257.82c-2.83,1.37-4.65.33-6.75-1.69a11.25,11.25,0,0,1,3.35-3.86A15.44,15.44,0,0,0,251,257.82Zm-35.93-1.29c0,10.76-14.82,10.76-14.82,0,0-10.53,14.8-11.26,14.8,0Zm66.71-.35c0-10.76,14.82-10.76,14.82,0,0,10.55-14.84,11.26-14.84,0Zm36.52-10.08c-8.67-21.86-33.07-10.19-43.52,3.7-5.08,6.75-7.1,13.68-17.21,7.14-5.84-3.78-7.72-9.61-3.87-15.3,3.7-5.46,13.19-6.65,18.25-10.77,3.31-2.69,4.81-6.86,8.56-9.07s9.4-.81,13.32-2.12c7.47-2.5,11.17-10.43,19.8-8.75s11.72,13.15,20.68,13.74c2.66,6.36-2,14-5.48,19.08-4.6,6.74-3,1.25-10.55,2.35ZM341.69,138l-19.06,17.38a25.55,25.55,0,0,0-3.54-4.78,104.42,104.42,0,0,0-14.86-12.46l8.52-18.77A143.42,143.42,0,0,1,341.69,138ZM230.57,107.32v7.47l17.49-.16,17.49.16v-8.63q6.62.61,13.21,1.88c3.61.69,7.17,1.54,10.67,2.51l-6.87,15.51h-.13c-10.77-3.76-23.42-.15-34.59-1.8-9.52-1.41-24.67.55-33.75,5.46a22.24,22.24,0,0,0-2.73,1.77l-6.16-17.75A146.43,146.43,0,0,1,230.57,107.32Zm-48.19,16.55,7.47,20.92a16.24,16.24,0,0,0-7.41,4.16A88.2,88.2,0,0,0,170.66,162l-17-17.47A146,146,0,0,1,182.38,123.87ZM159.48,186h-6.73l-.27-9a5.21,5.21,0,0,1,.54,2.55Zm-31.34-9.71a136.87,136.87,0,0,1,8.75-13.12l11.3,11.43h.53a34.55,34.55,0,0,0-2.86,12.78,22.82,22.82,0,0,0,1.61,9.58L123.19,185.5q2.29-4.68,4.95-9.23ZM114.61,289a144.16,144.16,0,0,1-3.93-17.15h5.88l-.16-17.49.16-17.49h-7.38a143.09,143.09,0,0,1,5-28l39.91,18.33c-3.1,11.72-2.36,24.06,11.41,30.61-5,2.75-7.73,8.47-8.47,14.85Zm25.81,49.24a141.25,141.25,0,0,1-16.71-26l39.92-15.76a13.31,13.31,0,0,0,5.1,3.52c4.06,1.49,8.39,1.55,12.51,2.2l-39.75,37.38Zm48.46,38.18A143.59,143.59,0,0,1,159,357.18l39-37.38a78.45,78.45,0,0,1,2.56,14.2c.55,6.93-2.57,13.24-1.72,19.67Zm83.38,13.31v-4.56l-17.49.16-17.49-.16v5.09a147.37,147.37,0,0,1-25.06-4.91l6.39-15c2.85.85,5.66,1.57,8.14,2.36,5.53,1.75,9.12,4.37,15.2,4,4.13-.23,7.86-3,11.78-2.9,4.63.07,29.25,10.26,26.09-6.76a27.76,27.76,0,0,0,9.08-.78l6.71,18.07a138.23,138.23,0,0,1-23.35,5.43Zm46.36-15.15L305,338.9c-.57-6.72-.93-13,.23-19.57l37.2,39.12a141.55,141.55,0,0,1-23.82,16.18Zm41.5-33.86-38.88-40.14c1.14-.24,2.38-.53,3.75-.93a21.16,21.16,0,0,0,8.53-4.57L378.12,314a148.26,148.26,0,0,1-18,26.77ZM387.78,291l-50.34-20.76c-.26-7-3.86-14.13-8.15-19.12,4.31-5.12,8.2-11.29,10-17.79.89-3.28-.12-8.53-2.14-13.79l49.58-17A140.62,140.62,0,0,1,392.85,227h-9.41l.16,17.49L383.44,262h10.4A140.39,140.39,0,0,1,387.78,291Z"/></g></g></svg>