<svg xmlns="http://www.w3.org/2000/svg" viewBox="0 0 500 500"><defs><style>.cls-1{fill:#fff;}</style></defs><title>civil-war_COLOR</title><g id="n1"><circle class="cls-1" cx="220" cy="250" r="216"/></g><g id="Base"><polygon points="498.5 215.12 444 271.8 204.22 413.49 204.22 391.69 182.43 389.51 182.43 376.43 321.93 293.6 319.75 308.86 326.29 300.14 328.47 289.24 422.21 236.92 498.5 215.12"/><path d="M208,240.62l-4.34,8.14c3.37-1.22,7.11-1.65,10.8-2.2Z"/><path d="M185.84,276c1-2.19,2.14-4.34,3.28-6.49.84-2.07,1.64-4.15,2.37-6.29a31.89,31.89,0,0,1,1.8-4.57l-3.43-2.47c-2.85-2.06-1.24-7.11,2.52-6,1.31.39,2,.62,2.69.89l.2-.38a37,37,0,0,1,1.9-7.3,3.72,3.72,0,0,1,3.16-2.2l2.72-5.11L125.75,165l26.16-30.52,10.9,6.54-8.72-15.26L117,151.91l-6.54-4.36L104,151.91,36.38,88.69V75.61L23.3,77.79l-4.36-2.18L1.5,90.87l2.18,4.36v13.08h10.9l69.75,63.21-6.54,8.72,4.36,6.54L62.54,223.84l13.08,8.72-4.36-10.9,26.16-28.34Z"/><path d="M260.9,289.24l-40.24-37a56.16,56.16,0,0,1-7.3,1.67c-3.32.52-7.1-.11-9.89,2.13a3.89,3.89,0,0,1-1.58.73,3.37,3.37,0,0,1-1.35,3.35,23.53,23.53,0,0,1-.83,2.95,75.72,75.72,0,0,1-5.2,10.6c-.36.84-.76,1.66-1.14,2.49a3.65,3.65,0,0,1,.5,1.64,25.08,25.08,0,0,1-.37,5.31l36.89,34.47,21.8-2.18L250,293.6Z"/><path d="M425,295.2a109.82,109.82,0,0,1-19.25,9.08C382.17,384.91,307.62,444,219.48,444c-107,0-194-87-194-194a192.79,192.79,0,0,1,24.85-94.91,18.14,18.14,0,0,1-7.87-4.22,18.12,18.12,0,0,1-5.55-5.7,26.12,26.12,0,0,1-4-3.49A214.43,214.43,0,0,0,3.68,250c0,119,96.81,215.8,215.8,215.8,105.37,0,193.28-75.93,212-175.93A27.58,27.58,0,0,1,425,295.2Z"/><path d="M416.76,224.79a30.52,30.52,0,0,0,3.09.12,46.47,46.47,0,0,0,5.86-2c.25-.1.51-.17.76-.26l1.71-1.16a21.37,21.37,0,0,1,4.83-2.39C418,114.72,328,34.2,219.48,34.2A215.14,215.14,0,0,0,65.77,98.7c.2.1.41.17.62.27a18,18,0,0,1,7.07,4.33c.3.17.59.36.9.52a24.24,24.24,0,0,1,8.57,8.53A193.37,193.37,0,0,1,219.48,56C318,56,399.56,129.84,411.84,225.08A18,18,0,0,1,416.76,224.79Z"/></g></svg>