<svg xmlns="http://www.w3.org/2000/svg" viewBox="0 0 500 500"><defs><style>.cls-1{fill:#8f979a;}.cls-2{fill:#fff;}.cls-3{fill:red;}.cls-4{fill:#7c8cc1;}.cls-5{fill:#475561;}</style></defs><title>clan-diamond-shark_COLOR</title><g id="n4"><path class="cls-1" d="M328.56,235.58l-1.55-.29a69.26,69.26,0,0,0-24.66-.29l-1.7.31-1.13.21c-3.7.76-4.7,2.67-5,3.74-.47,1.86.46,4,2.44,5.69l.24.18c.41.33.82.65,1.26,1,5.48,3.87,12.84,5.61,19.33,6.36l1.61.17c1.14.11,2.25.18,3.3.24a5,5,0,0,1,.73.08,5.66,5.66,0,0,1-.78.63,19.71,19.71,0,0,1-4.83,2c-.6.18-1.26.35-2,.51-4.57,1-11.49,1.67-20.9.08l-1.5-.27a92.44,92.44,0,0,1-11.53-3c-1.82-.6-3.63-1.24-5.55-1.92-1.28-.45-2.57-.91-3.88-1.36l-1.44-.49c-10.35-3.46-22.16-6.13-38.44-1.75l-1.45.4a92.3,92.3,0,0,0-12.12,4.51,55.43,55.43,0,0,0-7.81,4.27q-.65.43-1.28.88a47.59,47.59,0,0,0-13.23,14.08q-.46.74-.9,1.5a61.39,61.39,0,0,0-5.78,14.16c-1.5,5.41-1.28,9.41.68,12.59,2.07,3.35,6.15,5.65,12.14,6.83a90.32,90.32,0,0,0,11.83,1.51l1.76.1a109.25,109.25,0,0,0,11.18-.09l1.55-.1c3.86-.27,7.62-.7,11.29-1.21l1.49-.21,2.64-.39a14.06,14.06,0,0,1,1.56-.18,9.5,9.5,0,0,1-.45,1.14,15,15,0,0,1-3,4.19c-.41.42-.85.84-1.32,1.26a39.05,39.05,0,0,1-8.62,5.68l-1.36.64a42,42,0,0,1-6.37,2.29l-1.39.36-1.51.37c-1.76.42-3.78.87-6,1.34l-3.26.68c-8.57,1.77-19.06,3.74-27.56,5.33-7.28,1.36-12.54,2.35-13.82,2.69-8.27,2.23-11.62,5.88-16.26,10.93-1.88,2-4,4.37-6.78,6.93-9.86,9.1-41.4,32-71.38,32-.84,0-1.68,0-2.51-.05-15.93-.7-18.14-8.75-18.34-12.27,1.29,1,4,.91,5.27.64,20.1-4.42,36.26-19.87,49.59-35.55,23.21-27.3,26.17-48.72,35.49-73.33a75.68,75.68,0,0,1,24.77-33.78l1.22-.9a68,68,0,0,1,22.88-10.7l1.46-.36a76.85,76.85,0,0,1,14.28-2q7.21-.32,14.51-.15l1.53,0a271.51,271.51,0,0,1,48.34,6.1l1.47.32q13,2.82,26.58,6.76l1.44.42q11,3.23,22.47,7.14l1.44.49q4.06,1.39,8.18,2.87C334.24,236.82,331.39,236.14,328.56,235.58Z"/></g><g id="n3"><path class="cls-2" d="M128.84,329.8c0,.8-.08,1.29-.66,1.49a55.81,55.81,0,0,0-8.43,3.73c-.57.29-1.13,0-.95-.39a104.29,104.29,0,0,1,8.62-14.82h0c.69-1,1.37-.76,1.39-.15C128.93,323,128.76,324.62,128.84,329.8Z"/><path class="cls-2" d="M142.35,332c.77-.09.58,1.62,1.41,2.83-2.12,0-4.71.26-4.62-.65C139.2,333.52,141.66,332.06,142.35,332Z"/><path class="cls-2" d="M136.19,337.33c1.76.2,3,.12,5,1.9-1.59.58-6.72,1.88-7.86.72h0C132.92,339.58,135,337.2,136.19,337.33Z"/><path class="cls-2" d="M126.53,347.25a6.54,6.54,0,0,1,3-3.57c1.87-.13,4.49,0,6.05,1.92C131,344.9,126.35,348.42,126.53,347.25Z"/><path class="cls-2" d="M124.4,350.42h0c1.3-.56,4.17.72,6.76,2.51-2.52.58-13,4.42-13.22,3.47S121.68,351.58,124.4,350.42Z"/><path class="cls-2" d="M102.23,376.84a23.64,23.64,0,0,1,5.1-5.66,3.73,3.73,0,0,1,2.11-1.32,45.55,45.55,0,0,1,7.55-.41C115.13,372.31,105.5,375.78,102.23,376.84Z"/><path class="cls-2" d="M110.22,366.58c-1.45.11,2-4.68,3.15-5a38.31,38.31,0,0,1,9.93-1.25C120.79,364.32,115.1,366.2,110.22,366.58Z"/><path class="cls-2" d="M136.42,358.71c-3.67,2.12-11.77,6.27-15.27,7.95h0c3.35-3.84,9.9-7.71,15.33-9.53C137.06,356.93,137.16,358.29,136.42,358.71Z"/><path class="cls-2" d="M137.87,355.09c-3.74,1.35-11.23,4.07-14.21,3,3.9-1.33,13.56-5.08,14.08-4.56h0C138,353.81,138.46,354.88,137.87,355.09Z"/><path class="cls-2" d="M139.82,351.78c-1.37.58-6.17-.27-9.72-3,4.92-.86,8.72-1.79,9.95-.73C140.47,348.46,140.66,351.43,139.82,351.78Z"/><path class="cls-2" d="M141.7,345.55c-1.29,0-3.55-1.12-5.1-2.39,1.83-.53,4.81-.75,5.94.38C142.85,343.85,142.23,345.55,141.7,345.55Z"/><path class="cls-2" d="M145.26,340.16c-1.58.42-3-1.94-3.4-3.25,1.84-.35,4,.15,4.5,1.27C146.58,338.71,145.81,340,145.26,340.16Z"/><path class="cls-2" d="M150.15,332.3A4.68,4.68,0,0,1,149,334c-.51.53-.89,1-1.5.39a6.35,6.35,0,0,1-1.51-3.77h0a8,8,0,0,1,3.63.3C150.29,331.11,150.4,331.52,150.15,332.3Z"/><path class="cls-2" d="M147.48,328.23c-.32-.34.68-1.6,1-1.56,1,.13,2.17,1.53,2.17,1.53S148.06,328.85,147.48,328.23Z"/><path class="cls-2" d="M153,327.87c-.63,0-1-.25-2-1.49,1.68-.94,2.86-.92,3.21-.31C154.45,326.44,153.45,327.9,153,327.87Z"/></g><g id="n2"><polygon class="cls-3" points="61.75 165.25 60.75 4.75 222.25 5.25 168.75 58.75 177.75 68.25 124.75 121.75 115.25 112.75 61.75 165.25"/><polygon class="cls-3" points="281.25 4.75 441.75 4.75 442.25 166.25 388.25 112.25 379.25 121.25 325.75 68.25 334.75 58.75 281.25 4.75"/><polygon class="cls-3" points="213.75 380.25 136.75 380.25 252.25 495.75 366.25 381.25 289.25 380.25 290.25 324.25 289.25 321.75 251.75 390.75 214.75 324.25 213.75 380.25"/></g><g id="n1"><polygon class="cls-4" points="315.2 65 336.23 132 290.31 132 270.1 65 315.2 65"/><path class="cls-4" d="M288.88,133.5l-6,39c-17.32-6.53-32.57-9.9-51.51-12.15-9.07-1.08-13.5-12.71-15.17-26.82Z"/><path class="cls-4" d="M189.3,65h44.77l-18.58,59.64c-.65-14.95,1.12-30.74,3.32-39,.3-1.14-.71-1.19-1.66-.48a281.88,281.88,0,0,0-48.83,46.68Z"/><path class="cls-4" d="M122.51,133.5h44.21l.08.24C154.3,149.56,147.35,163,147.18,170c0,1.17-2,2.21-2.93,2.89l-.39.29Z"/><path class="cls-4" d="M224.41,322.92l1-.27a42.79,42.79,0,0,0,6.47-2.35l16.49,47.23Z"/><path class="cls-4" d="M252.24,371.39,243,313.14a17.42,17.42,0,0,0,4.09-5.39c.55-1.24.87-2.1.38-2.74s-1.61-.54-3.09-.31l-2.65.39-8.89-56.23c16.1-4.35,27.75-1.67,38,1.76Z"/><path class="cls-4" d="M256.11,367.47l38.36-109.9a57.18,57.18,0,0,0,20.49.18Z"/><path class="cls-4" d="M318.57,251c-8.34-.88-15-3.07-19.57-6.41l2.79-8a67.78,67.78,0,0,1,24.48.06Z"/><path class="cls-4" d="M197.57,273a46.31,46.31,0,0,1,12.92-14.14l16.66,47.72a106.49,106.49,0,0,1-11.5,0Z"/><path class="cls-4" d="M318.55,188.59l19.23-55.09h43.83l-37,68.91C335.06,197.18,326.44,192.6,318.55,188.59Z"/></g><g id="Base"><path d="M225.87,3.82H59.6l.26,165.51,55.25-55.25,9.44,9.44,10-9.48.07.06,34-35.47,0,0L179.35,68.3l-9-9ZM168.15,58l-13.86.4,41.55-41.55,21.78-8.32ZM114,111.65,64.57,161.09l7.79-20.25,42-42ZM70.11,139.81h0l-7.74,20.12L62.11,8.38l8,8ZM71.84,14.57,63.59,6.32H216.43l-21.61,8.25ZM124.6,120,116.51,112l.41-13.55,14.86,14.86Zm9-8.47L115.86,93.81,72.61,137.06v-120H192.09l-42.5,42.5,17.31,17.31Zm42.17-43.3-7.06,6.9L154.46,60.91,168,60.52Z"/><path d="M443.5,169.72V3.45L278,3.7l55.25,55.25-9.44,9.44,9.48,10-.06.07,35.47,34,0,0L379,123.19l9-9ZM389.3,112l-.4-13.86,41.55,41.55,8.32,21.78ZM335.68,57.86,286.23,8.42l20.25,7.79,42,42ZM307.51,13.95v0L287.4,6.19,438.94,6l-8,8Zm125.24,1.74L441,7.43V160.27l-8.25-21.61ZM327.27,68.44l8.09-8.09,13.55.41L334.06,75.62Zm8.47,9L353.51,59.7,310.26,16.45h120V135.93l-42.5-42.5-17.31,17.31ZM379,119.63l-6.9-7.06L386.41,98.3l.39,13.58Z"/><path d="M82.23,371.87a4.59,4.59,0,0,0-3.7-.42c-1.25.36-1.87,1.29-2.73,2.21-1.5,1.57-3.24,1.84-3.92.77-1.14-1.82,1.32-3.67,2.54-4.47C77,368.26,82.76,369.56,82.23,371.87Z"/><path d="M131,313.83c0-1-1.15-1.39-2.28.24-2.56,3.71-4.94,7.21-7.26,11.08a128.46,128.46,0,0,0-6.92,13.31c-.29.63.63,1.11,1.56.64A91.41,91.41,0,0,1,130,333c1-.32,1.1-1.14,1.08-2.45C130.94,322,131.22,319.32,131,313.83Zm-2.18,16c0,.8-.07,1.3-.66,1.49a57,57,0,0,0-8.43,3.73c-.57.29-1.13,0-1-.38a104.47,104.47,0,0,1,8.62-14.83c.33-.48.66-.67.92-.67a.49.49,0,0,1,.47.53C128.93,323,128.76,324.62,128.84,329.8Z"/><path d="M154.62,314.58c.52-8.31-.32-23-12.56-26.52C156.66,287.48,157.58,312,154.62,314.58Z"/><path d="M162.71,305.54c-.41-7.85-3.59-24.62-15-29.09C161.4,277.58,165.67,302.93,162.71,305.54Z"/><path d="M167.61,295.87c.53-7.69-5.54-24.15-13.89-32C164.27,268,170.88,292.56,167.61,295.87Z"/><path d="M290.73,380.17V322.74l-1.34-2.82L252,389.86l-35.09-65.21-4,.84v54.32H134.44L252,497.38,368.86,380.17Zm-1,2.5h69.92l-19.83,8.81H280.41Zm-11.41-36.46,9.87-18.73v53.2L278.36,390Zm-62.93-19.15,9.87,18.1v44.79l-9.87-9.33Zm-1.85,55.26,10.08,9.52H164.9l-21.28-9.52ZM251,492.8,142.88,384.72,164,394.17l87,87ZM167.7,394.33h60.1V349.78L252,395.14l23.86-44.25V394H337l-84.84,84.84Zm85.76,86.75,87.28-87.28v0l19.7-8.75-107,107.32Z"/><path d="M409.55,228.35c13.58-14.21,31.21-32.87,34.91-53,.27-1.43-1-4.24-2.75-2.36-15.08,15.87-24,27.87-43.63,38.9-6.74,3.8-20.35,8.86-29.89,3.53-8-4.46-15.35-8.55-22.22-12.31l38-70.76L316.28,63.72l-.22-.22H188.44l-68.11,69.12,22.31,41.46c-22.94,17.08-52.4,46.09-64.14,87.72-3.2,11.32-4.36,21.84-5.31,32.17s-1.68,20.45-4,31c-3.11,14.12-4.72,21.51-12.25,39.39a5.52,5.52,0,0,0-2.19,4.29v.09c-.08,3.22,1.13,13.78,19.78,14.6q1.25.06,2.49.06a70,70,0,0,0,13.91-1.49,1.8,1.8,0,0,0,.57,0,112.87,112.87,0,0,0,26.56-9.46c3.18-1.59,6.23-3.33,9.58-5.28s6.84-4.29,10.1-6.6a8.86,8.86,0,0,0,1.18-1,117.23,117.23,0,0,0,10.59-8.58c2.82-2.61,5-4.95,6.87-7,4.63-5,7.69-8.38,15.54-10.49,1.23-.33,6.74-1.36,13.71-2.67,8.4-1.57,18.75-3.51,27.28-5.27l4-.84c2.22-.48,4.24-.93,6-1.35l28.68,53.31.66,1.22,64.64-120.5a23.31,23.31,0,0,0,6.65-2.53c.86-.61,1.82-1.42,1.55-2.34s-1.69-1.07-2.29-1.1c-.89,0-1.76-.11-2.61-.18L327.81,237c6.29,1.2,12.7,3.06,19.93,5.17,6.38,3.93,11.06,10,15.56,18.9,7.87,15.59,15.37,35.73,22.45,47.67,7.89,13.32,15,25.45,37,32.24,3.32,1,7.18-.45,6.28-1.46-31.07-35-33.72-61.62-27.3-93.56C403,239.64,404.41,233.72,409.55,228.35ZM315.2,65l21,67H290.31L270.1,65Zm-26.32,68.5-6,39c-17.31-6.53-32.57-9.9-51.51-12.15-9.07-1.08-13.49-12.72-15.17-26.82ZM189.3,65h44.77l-18.58,59.64c-.65-15,1.12-30.74,3.32-39,.31-1.14-.71-1.19-1.66-.48a282.4,282.4,0,0,0-48.83,46.68Zm-66.79,68.5h44.21l.08.24C154.3,149.56,147.35,163,147.18,170c0,1.17-2,2.21-2.94,2.9l-.39.28ZM102.23,376.84a23.52,23.52,0,0,1,5.1-5.66,3.68,3.68,0,0,1,2.11-1.32,44.43,44.43,0,0,1,7.54-.41C115.13,372.31,105.5,375.78,102.23,376.84Zm8-10.26c-1.45.11,2-4.68,3.15-5a38.71,38.71,0,0,1,9.93-1.24C120.79,364.32,115.1,366.2,110.22,366.58ZM149.63,331c.66.14.77.55.52,1.33a4.61,4.61,0,0,1-1.14,1.75c-.51.53-.88,1-1.5.39a6.38,6.38,0,0,1-1.51-3.77,4,4,0,0,1,1-.11A13,13,0,0,1,149.63,331Zm-1.17-4.3c1,.14,2.17,1.54,2.17,1.54s-2.57.64-3.15,0C147.17,327.89,148.16,326.64,148.46,326.67Zm-2.1,11.51c.22.53-.55,1.83-1.1,2-1.58.42-3-1.94-3.4-3.25C143.7,336.56,145.9,337.06,146.36,338.18Zm-4.66,7.37c-1.29,0-3.55-1.11-5.1-2.38,1.83-.53,4.81-.76,5.95.38C142.85,343.85,142.23,345.55,141.7,345.55Zm-2.56-11.39c.06-.64,2.52-2.1,3.21-2.17s.58,1.61,1.41,2.82C141.64,334.84,139.06,335.08,139.14,334.16Zm2,5.07c-1.59.58-6.72,1.88-7.85.72a.16.16,0,0,1,0-.12c0-.61,1.89-2.62,2.94-2.5C138,337.53,139.2,337.46,141.14,339.23Zm-5.54,6.37c-4.56-.7-9.25,2.82-9.07,1.65a6.55,6.55,0,0,1,3-3.57C131.41,343.55,134,343.63,135.6,345.6Zm-4.45,7.33c-2.52.58-13,4.41-13.21,3.47s3.74-4.82,6.46-6C125.7,349.86,128.56,351.14,131.15,352.93Zm5.27,5.78c-3.67,2.12-11.76,6.27-15.27,7.95a30.35,30.35,0,0,1,6.89-5.52,42.2,42.2,0,0,1,8.44-4C137.06,356.93,137.16,358.29,136.42,358.71Zm1.45-3.62c-3.74,1.35-11.24,4.07-14.21,3,3.9-1.33,13.56-5.08,14.08-4.56a1.84,1.84,0,0,1,.42,1.07A.47.47,0,0,1,137.87,355.09Zm1.95-3.31c-1.38.58-6.18-.27-9.73-3,4.92-.87,8.72-1.79,10-.73C140.47,348.46,140.66,351.43,139.82,351.78Zm84.59-28.86,1-.27a44.16,44.16,0,0,0,6.47-2.34l16.48,47.23Zm27.83,48.47L243,313.14a17.59,17.59,0,0,0,4.09-5.4c.54-1.23.87-2.09.37-2.74s-1.61-.54-3.09-.31c-.87.13-1.76.27-2.64.39l-8.89-56.23c16.1-4.35,27.75-1.66,38,1.76Zm3.87-3.92,38.36-109.9a57.35,57.35,0,0,0,20.49.18ZM318.57,251c-8.34-.88-15-3.06-19.58-6.41l2.79-8a67.9,67.9,0,0,1,24.48.06Zm10-15.45-1.55-.29a69.37,69.37,0,0,0-24.66-.29l-1.7.32-1.13.21c-3.7.76-4.7,2.67-5,3.74-.47,1.85.46,4,2.43,5.68l.24.19q.62.49,1.26,1c5.48,3.86,12.84,5.61,19.32,6.36l1.62.16c1.14.11,2.25.19,3.3.24a5.89,5.89,0,0,1,.73.08,5.73,5.73,0,0,1-.78.64,19.72,19.72,0,0,1-4.83,2c-.6.17-1.26.34-2,.51-4.57,1-11.49,1.66-20.9.07l-1.5-.26a92.87,92.87,0,0,1-11.53-3c-1.82-.6-3.63-1.24-5.54-1.92l-3.89-1.37-1.44-.48c-10.35-3.46-22.16-6.14-38.44-1.76-.48.13-1,.26-1.46.41a93.12,93.12,0,0,0-12.11,4.5,56.61,56.61,0,0,0-7.81,4.27c-.43.29-.86.58-1.28.88a47.63,47.63,0,0,0-13.23,14.07c-.31.5-.61,1-.9,1.51a61.55,61.55,0,0,0-5.77,14.15c-1.5,5.41-1.28,9.41.68,12.59,2.07,3.35,6.15,5.65,12.14,6.83a90.6,90.6,0,0,0,11.83,1.52c.59,0,1.17.07,1.76.09a106.49,106.49,0,0,0,11.18-.09l1.55-.1c3.86-.27,7.62-.7,11.3-1.2l1.48-.21,2.64-.4c.37,0,1.14-.17,1.56-.18a7.15,7.15,0,0,1-.45,1.15,14.62,14.62,0,0,1-3,4.18q-.62.64-1.32,1.26a38.73,38.73,0,0,1-8.62,5.69l-1.36.64a42.11,42.11,0,0,1-6.37,2.29l-1.39.36-1.51.37c-1.31.31-2.78.65-4.37,1l-1.33.29-.29.06-3.26.69c-8.57,1.77-19.06,3.73-27.56,5.33-7.28,1.36-12.54,2.35-13.82,2.69-8.27,2.23-11.62,5.88-16.26,10.93-1.87,2-4,4.36-6.78,6.92-1.87,1.72-4.51,3.94-7.78,6.41a8.8,8.8,0,0,1,.31-2.18,108.25,108.25,0,0,1,6.4-13.31c1.95-3.45,4.14-7.31,6.39-10.95a103,103,0,0,1,7.47-10.66,5.19,5.19,0,0,0,.86-1,.6.6,0,0,0,0-.55c-.22-.29-.68-.17-1-.05-4.55,1.95-8.53,5.12-13.09,7.91-2.73,1.68-5.09,4-7.81,5.91-2.54,1.83-4.78,4-7.42,6.2-2.19,1.85-4.44,4.11-6.62,6.32-4.19,4.24-8.26,8.94-12.59,14.26a51.34,51.34,0,0,0-5.25,7.11,38,38,0,0,1-3.13,4.7,28.4,28.4,0,0,1-4.19,4.64,20.86,20.86,0,0,1-5.24,3.37,31,31,0,0,1-6,2.33c-.24.06-.63.24-.67.46a67.22,67.22,0,0,1-12,1.14c-.83,0-1.68,0-2.51-.06-15.93-.69-18.14-8.75-18.34-12.26,1.3,1,4,.9,5.27.63,20.1-4.41,36.26-19.86,49.59-35.54,23.2-27.3,26.17-48.72,35.49-73.33a75.63,75.63,0,0,1,24.77-33.78c.4-.31.81-.61,1.22-.9a67.84,67.84,0,0,1,22.88-10.7c.49-.13,1-.25,1.46-.36a76,76,0,0,1,14.29-2c4.81-.22,9.64-.26,14.51-.15l1.53.05a271,271,0,0,1,48.34,6.09l1.46.32q13,2.84,26.58,6.77l1.45.42q11,3.23,22.46,7.14l1.44.49q4.06,1.39,8.18,2.86C334.24,236.82,331.39,236.14,328.56,235.58ZM197.57,273a46.16,46.16,0,0,1,12.92-14.14l16.66,47.72a105.16,105.16,0,0,1-11.51,0Zm16.31,33.49a88.84,88.84,0,0,1-10.7-1.43c-5.56-1.1-9.32-3.16-11.15-6.14-1.73-2.81-1.9-6.43-.52-11.41a60.54,60.54,0,0,1,5.18-13ZM151,326.38c1.67-.94,2.86-.92,3.21-.31.21.37-.79,1.83-1.2,1.8C152.41,327.82,152.08,327.62,151,326.38ZM318.55,188.59l19.23-55.09h43.83l-37,68.91C335.06,197.18,326.44,192.6,318.55,188.59Z"/></g><g id="p1"><path class="cls-5" d="M56.27,369.55c1.29,1,4,.91,5.27.64,20.1-4.42,36.26-19.87,49.59-35.55,23.21-27.3,26.17-48.72,35.49-73.33a75.68,75.68,0,0,1,24.77-33.78l1.22-.9a68,68,0,0,1,22.88-10.7l1.46-.36a76.85,76.85,0,0,1,14.28-2q7.21-.32,14.51-.15l1.53,0a271.51,271.51,0,0,1,48.34,6.1l1.47.32q13,2.82,26.58,6.76l1.44.42q11,3.23,22.47,7.14l1.44.49q4.06,1.39,8.18,2.87c4.31,1.9,4.81,1.9,10.55,4.54,6.38,3.92,11.06,10,15.56,18.9,7.87,15.58,15.36,35.72,22.44,47.67,7.89,13.32,15,25.45,37,32.24,3.32,1,7.18-.46,6.28-1.47-31.07-35-33.72-61.61-27.31-93.55,1.26-6.29,2.71-12.21,7.85-17.58,13.58-14.2,31.21-32.86,34.92-53,.26-1.44-1-4.24-2.75-2.36-15.08,15.87-24,27.87-43.63,38.9-6.74,3.8-20.35,8.86-29.89,3.52-8-4.46-15.35-8.55-22.22-12.31l-1.32-.72c-9.59-5.23-18.21-9.81-26.1-13.81l-35.68-16.13c-17.32-6.53-32.57-9.9-51.51-12.15-9.07-1.08-13.5-12.71-15.17-26.82l-.7-8.86c-.65-14.95,1.12-30.74,3.32-39,.3-1.14-.71-1.19-1.66-.48a281.88,281.88,0,0,0-48.83,46.68l-1.52,1.9C154.3,149.56,147.35,163,147.18,170c0,1.17-2,2.21-2.93,2.89l-.39.29-1.22.9C119.7,191.16,90.24,220.17,78.5,261.8h0c-6.39,22.64-4.68,42.09-9.3,63.14-3.1,14.12-4.72,21.51-12.24,39.39a5.51,5.51,0,0,0-2.19,4.29L57,370"/></g></svg>