<svg xmlns="http://www.w3.org/2000/svg" viewBox="0 0 500 500"><title>clan-smoke-jaguar</title><g id="Base"><path d="M158.26,113.32c-3,0-9.51-6.12-12.67-10.33h0a.62.62,0,0,1,.08-.85c.57-.49,4.28-.2,11,.86,2.37.37,10.15,1.66,11,2.49a1,1,0,0,1,.14,1.19C167,108.74,160.73,113.32,158.26,113.32Zm-11.37-10.39c3.36,4.26,9.15,9.32,11.37,9.32,1.56,0,5.43-2.53,7.5-4.6a4.2,4.2,0,0,0,1.11-1.45C165.29,105.31,150.32,102.9,146.89,102.93Z"/><path d="M198.82,101.51c-3.27,0-6.29-.29-6.7-.88a.64.64,0,0,1,.18-.9c2.3-1.69,10.71-9,15.09-13.09.67-.62,1.28-.83,1.81-.62s1,1,1.15,2.28c.36,3.36-1.05,11-2.9,12.18C206.4,101.16,202.45,101.51,198.82,101.51Zm-5.28-1.38c2.63.5,11.69.52,13.34-.54,1.16-.74,2.8-7.55,2.41-11.17-.11-1-.35-1.36-.46-1.4s-.3,0-.72.41h0C204,91.19,196.48,97.82,193.54,100.12Z"/><ellipse cx="262.13" cy="186.36" rx="11.76" ry="5.02" transform="translate(-33.02 58.57) rotate(-12)"/><ellipse cx="270.22" cy="206.83" rx="12.73" ry="5.06" transform="translate(-57.52 115.26) rotate(-21.82)"/><path d="M290.15,215.77c1.3,2.25-2.12,5.59-7.64,8.77s-12.1,2.88-13.4.63,3.19-4.52,8.7-7.71S288.85,213.53,290.15,215.77Z"/><ellipse cx="288.44" cy="231.96" rx="9.96" ry="4.48" transform="translate(-74.96 161.64) rotate(-27.85)"/><path d="M310.2,338.89c-.33-.89-.61-1.64-.78-2.15-1.13-3.4-21.4-17.4-23.92-17.4-.8,0-2.66,0-2.66,19.7,0,1.24,4.54,4,13.48,8.2,6.32,3,14,6.18,15.8,6.18a1.34,1.34,0,0,0,1.15-.59C314.52,351,312.45,345,310.2,338.89Z"/><path d="M213,121.36c-1.39-2.77-19.22,9.3-21.88,10.3-9.72,3.64-18.77.7-28.51,2-8.31,1.12-3.64,8.62-.91,14.56,4.21,9.18,8.85,18.36,13.43,27.36,5.61,11,12.25,2.66,22,1.38,7-.93,10.64,2.8,13.69-4,4.12-9.16,3.43-21,3.35-30.75C214.07,136.52,215.66,126.72,213,121.36Zm-28.47,14.31c7.59-1.17,14.75-5.38,20-8.76,1.72,5.31,2,11.79,1.64,17.32-.26,4.54.59,7.28-3.62,5.35-3.08-1.41-3.61-8.17-6.49-9.28s-9.24,2.48-12.63,2.73c-4.48.33-4.46-1.47-5.68,3.14-.58,2.21,2.32,11.71-1,11.2-4.08-.62-9.34-17.8-10.07-21.35C172,136.31,179,136.52,184.51,135.67Zm10.27,39.43a51.25,51.25,0,0,0-8.64,3.09c-1.39-1.84-5.8-7.83-2.86-9.36,1.14-.59,7.37,1.8,9.71,1.44a20.51,20.51,0,0,0,5.67-1.57c1.07-.52,2.36-3.37,3.16-3.51,6.25-1.12,2.45,6.06,2.14,9.59A32.86,32.86,0,0,0,194.78,175.1Z"/><path d="M416.33,286,316.27,223.2c3.9-5.92,6.65-11.41,7-18.6l70.11,14.86c7.53-42.67,7.78-94.23-23-128.29l-80.91,52.16c-8.63-9.54-18.89-18.54-32-20.79L279.92,1.74c-21.1,4.57-42.19,8-62.1,16.68l4.27,47c-5.59.75-6.72,5.59-12.24,5.07-4.89-.46-9.09-2.64-14.38-2.44-5.05.19-11,.64-15.67,2.9-1.47.72-3.31,2.87-4.66,3.34-7.38,2.51-15.17-1.32-22.6,3.45-4.62,3-5.18,7.44-8.76,10.77s-8.19.37-13.05,1.7c-10.14,2.76-7.86,16-2,22.25,2.83,3,9.19,4.47,10.39,8.49.66,2.21-1.27,7.4-1.54,9.83-1.09,9.56-2.09,14.73,4.2,22.13,7.58,8.91,1.67,15.07.61,25.87H83.67l2.26,39.57,26.86-4.29c6.74,23.15,17.91,45,30,65.12,2.3,3.81,6.22,8.66,7,13.18.17,1-1.21,3.34-1.12,4.61.27,3.74,1.19,2.89,2.36,5.43.85,1.85,2.15,6.42,3.44,7.8,3.76,4,3.21,1.57,7.35,1,3.23-.45,13.23-1.57,5.12-4.75q1.58-1.63,3.12-3.3c7,3.21,12.9.47,4.41-4.82a96,96,0,0,0,7.11-8.17c6.39,1.37,10.22-1.93,3.64-6.37,2.11-5.21-.24-7.37-1.85-12-.85-2.46-.75-5.51-.84-8.38,9.7-.62,9.87-7.73.1-8.41a9.65,9.65,0,0,1,.46-2.72c8.65.09,7.65,7.49,9.56,14.08,2.28,7.85,6.55,14.45,11.2,21.1,4.1,5.86,9.32,9.48,8.95,16.17-.78,13.76-6.85,29-10,42.41l-20.18,85.58,98.33,66.65L267,366.27c9.65,2.46,19.7,5.24,28.83,9.23,8.67,3.79,9.14,14.95,13.17,23,5.48,11,12.16,18.7,24.55,20.61,4.21.65,14.49,1.44,16.89-3.81,1.86-4.09-3-7.42-2.57-12.54,5.52,3.75,3.15-5.53,3-7.5-.16-3,1-5.45.52-8.87a81.24,81.24,0,0,0-2.5-11c-2.53-8.61-8.91-14.07-12.33-22-2.44-5.63.19-8.59-3-14.26-2.59-4.65-7.06-8.43-8.22-13.68-.83-3.77,0-8.66,0-12.51,0-9.39.44-19.07-1.6-28.29l30.37,33,21.69-25.11-21.77-20.22,50.44,32.43ZM254.83,124.31c.05,0,.1,0,.14,0v.05c24.64,2.5,48.28,32.57,48.52,56.41-3.77-6-13.2-1.9-16.42-6.89-1.61-2.49-1.53-6.68-3.37-9.56a80.54,80.54,0,0,0-6.18-7.68,190.34,190.34,0,0,0-15.12-16.78c-6-5.64-13.2-10-18.74-16.11C247.39,123.89,251.09,123.69,254.83,124.31Zm72.27,209.08c1.71,2.28,5.07,10.32,7.14,11.36-5.27,8.77,10.1,22.55,12.67,31.34s2.85,16.79,2.85,25.24c-3.47.35-2.86-2.72-4.1,2.59-1.19,5.11,4.14,7.17,2.45,10.66-4,8.24-23.63.76-27.91-3.51-8.37-8.36-11.47-19.33-15.93-29.88-2.81-6.67-7.82-7.87-14.64-10.27-15.21-5.35-29.9-8.65-43.95-17.11-6.64-4-15.21-8.77-16.37-16.77-.86-6-.54-12.08-.78-18.07-.27-6.7-3.39-9-8-13.85-9.63-10.26-20.38-23.19-25-36.61-1.84-5.3-1.54-14.32-6.72-17.3-3.75-2.16-8.78-1.48-8.34,3.73-10.54.34-10.71,8.14-.09,8.49.09,3.08-.11,6.36.87,9.18,1.34,3.84,4,5,2.1,10.07-2-1.12-12.73-6.24-13.8-1.76-.89,3.72,7.58,7.86,9.82,8.64a80.06,80.06,0,0,1-6.75,7.62c-1.45-.94-8.62-6.54-10.37-4.71-2.61,2.74,4,8.3,5.89,9.61q-1.63,1.76-3.31,3.47c-2.4-1.18-7.22-7.42-9.22-4.11-1.65,2.73,2.42,7.23,4.44,8.42-4.07,2.93-5.59-5.27-6.89-8-1.89-4-1.25-3.83-1.44-8.67-.33-8.52-9-18.35-13.43-25.24-2.92-4.55-4.1-5.44-2.89-10.53,1.25-5.25,3.7-10.42,5.78-15.38,1.4-3.34,5.56-9.12,5.39-12.74-.15-3.16-2.54-3-3.51-5.42-.74-1.82-.45-4.23-.48-6.12a347.39,347.39,0,0,1,1.86-37.8c.54-5.7,2.53-11,3.43-16.56,1.34-8.31-5.27-9.53-8.39-16.35-3.43-7.48,2.18-17.25,1.55-25-.58-7.1-24.85-17.9-13.18-28.4,4.52-4.06,11.39.94,16-1.66,4.06-2.31,5.33-9.55,9.82-12.46,5.44-3.52,11.12-2.6,17.26-3.06,4.52-.34,4.76-1.05,8.33-2.9,4.9-2.54,10.89-3.22,16.33-3.4s13,4.1,17.87,3.16c6.26-1.2,6.31-8.37,14.52-5.14,9,3.54,4.31,12.1,2.15,18.33-3.6,10.37,9.27,16.07,11.77,25.73,1.1,4.27-2.46,7.45-.81,11.63,2.22,5.63,12.24,10.88,16.62,14.65,8.81,7.59,21.34,19.1,26,30,2.73,6.38-.25,8.43,7.41,10.11,8.79,1.92,10.53,1.49,13.72,10.69,2.15,6.18,3.87,11.8,3.08,18.44-1,8.12-7.81,14.1-9.06,21.79-1,6.46,3.47,14.46,5.38,20.43,2.46,7.67,4.58,15,8.93,21.9,2.74,4.33,6.7,7.43,8.32,12.24,2,6.06,1.74,13.27,1.8,19.59C323.39,313.57,320.9,325.13,327.11,333.39Z"/></g></svg>