<svg xmlns="http://www.w3.org/2000/svg" viewBox="0 0 500 500"><title>clan-blood-spirit</title><g id="Base"><polygon points="227.22 57.5 234.36 53.48 226.35 51.87 228.46 45.9 223.6 49.66 218.74 38.46 217.57 50.63 211.74 48.54 215.59 53.59 208.52 57.57 216.51 59.18 214.39 65.26 219.31 61.46 224.14 72.59 225.3 60.53 231.11 62.61 227.22 57.5"/><polygon points="168.75 74.17 174.3 68.15 166.19 69.09 166.34 62.76 162.88 67.84 154.8 58.69 157.45 70.62 151.26 70.44 156.49 74.05 150.99 80.02 159.08 79.08 158.94 85.52 162.45 80.39 170.49 89.48 167.86 77.65 174.03 77.84 168.75 74.17"/><polygon points="118.3 108.1 121.71 100.66 114.28 104.06 112.47 97.98 110.76 103.89 100.24 97.69 106.45 108.21 100.51 109.95 106.59 111.77 103.21 119.15 110.61 115.76 112.47 121.92 114.23 115.96 124.68 122.12 118.52 111.68 124.44 109.95 118.3 108.1"/><polygon points="80.79 155.96 81.74 147.82 75.73 153.35 72.13 148.14 72.32 154.28 60.4 151.63 69.56 159.73 64.45 163.22 70.8 163.07 69.86 171.13 75.86 165.62 79.53 170.9 79.35 164.69 91.19 167.32 82.11 159.3 87.21 155.82 80.79 155.96"/><polygon points="59.91 213.06 58.3 205.03 54.29 212.15 49.26 208.3 51.34 214.09 39.19 215.25 50.4 220.12 46.61 225.02 52.6 222.91 54.21 230.87 58.2 223.77 63.33 227.66 61.24 221.81 73.32 220.66 62.2 215.83 65.98 210.95 59.91 213.06"/><polygon points="57.71 273.82 53.69 266.69 52.08 274.69 46.1 272.59 49.87 277.45 38.66 282.31 50.83 283.47 48.75 289.3 53.8 285.45 57.78 292.53 59.39 284.54 65.47 286.66 61.67 281.74 72.8 276.9 60.73 275.75 62.82 269.94 57.71 273.82"/><polygon points="74.38 332.3 68.35 326.75 69.29 334.86 62.96 334.7 68.04 338.16 58.89 346.25 70.83 343.6 70.64 349.79 74.25 344.56 80.23 350.06 79.29 341.96 85.72 342.1 80.59 338.59 89.69 330.56 77.86 333.19 78.04 327.02 74.38 332.3"/><polygon points="108.31 382.75 100.86 379.34 104.26 386.76 98.19 388.57 104.09 390.29 97.89 400.81 108.42 394.6 110.16 400.54 111.98 394.45 119.36 397.84 115.97 390.43 122.13 388.57 116.16 386.82 122.33 376.37 111.89 382.53 110.16 376.6 108.31 382.75"/><polygon points="156.16 420.25 148.03 419.31 153.56 425.32 148.34 428.91 154.49 428.72 151.84 440.64 159.93 431.48 163.42 436.6 163.27 430.25 171.34 431.19 165.82 425.19 171.11 421.52 164.89 421.69 167.53 409.85 159.5 418.93 156.03 413.83 156.16 420.25"/><polygon points="213.27 441.13 205.24 442.75 212.35 446.75 208.51 451.79 214.29 449.7 215.46 461.86 220.32 450.65 225.22 454.43 223.12 448.44 231.08 446.84 223.98 442.84 227.87 437.72 222.02 439.8 220.86 427.73 216.03 438.84 211.15 435.07 213.27 441.13"/><polygon points="273.52 443.42 266.38 447.44 274.39 449.05 272.29 455.02 277.15 451.26 282.01 462.46 283.17 450.29 289 452.38 285.15 447.33 292.22 443.35 284.24 441.74 286.36 435.66 281.43 439.46 276.6 428.32 275.45 440.39 269.64 438.31 273.52 443.42"/><polygon points="332.04 426.9 326.5 432.93 334.61 431.99 334.45 438.32 337.91 433.23 346 442.38 343.34 430.45 349.53 430.63 344.31 427.02 349.81 421.05 341.71 421.99 341.85 415.55 338.34 420.68 330.31 411.59 332.94 423.42 326.77 423.24 332.04 426.9"/><polygon points="382.59 393.1 379.18 400.55 386.6 397.15 388.41 403.22 390.13 397.31 400.65 403.52 394.44 392.99 400.38 391.25 394.3 389.43 397.68 382.05 390.27 385.44 388.41 379.28 386.66 385.25 376.21 379.08 382.37 389.52 376.44 391.25 382.59 393.1"/><polygon points="420.22 345.34 419.28 353.48 425.29 347.95 428.89 353.16 428.7 347.01 440.62 349.67 431.45 341.57 436.57 338.08 430.22 338.23 431.16 330.17 425.16 335.68 421.49 330.4 421.67 336.61 409.82 333.98 418.9 342 413.81 345.48 420.22 345.34"/><polygon points="441.62 288.23 443.24 296.26 447.24 289.14 452.27 292.99 450.19 287.2 462.35 286.04 451.14 281.17 454.92 276.27 448.93 278.38 447.33 270.42 443.33 277.52 438.2 273.62 440.29 279.48 428.21 280.63 439.33 285.46 435.56 290.34 441.62 288.23"/><polygon points="443.95 227.35 447.97 234.49 449.58 226.49 455.56 228.59 451.79 223.73 462.99 218.87 450.83 217.71 452.91 211.88 447.87 215.73 443.88 208.65 442.27 216.64 436.19 214.52 439.99 219.44 428.86 224.28 440.93 225.43 438.84 231.24 443.95 227.35"/><polygon points="427.36 168.74 433.39 174.29 432.45 166.18 438.78 166.33 433.7 162.87 442.85 154.79 430.92 157.44 431.1 151.25 427.49 156.48 421.51 150.98 422.45 159.07 416.02 158.94 421.15 162.44 412.06 170.48 423.89 167.85 423.7 174.02 427.36 168.74"/><polygon points="393.47 118.12 400.92 121.54 397.52 114.11 403.59 112.3 397.69 110.59 403.89 100.07 393.36 106.28 391.62 100.34 389.81 106.42 382.42 103.04 385.82 110.44 379.65 112.3 385.62 114.06 379.45 124.51 389.89 118.35 391.62 124.27 393.47 118.12"/><polygon points="345.6 80.46 353.74 81.4 348.21 75.39 353.42 71.8 347.28 71.98 349.93 60.06 341.83 69.23 338.34 64.11 338.5 70.46 330.43 69.52 335.94 75.52 330.66 79.19 336.87 79.01 334.24 90.86 342.26 81.78 345.74 86.88 345.6 80.46"/><polygon points="288.43 59.43 296.46 57.81 289.35 53.8 293.19 48.77 287.41 50.85 286.25 38.7 281.38 49.91 276.48 46.12 278.58 52.11 270.62 53.72 277.72 57.71 273.83 62.84 279.68 60.75 280.84 72.83 285.67 61.71 290.55 65.49 288.43 59.43"/><path d="M250.63,496.28a245.93,245.93,0,0,1-95.7-472.4A245.92,245.92,0,0,1,346.33,477,244.32,244.32,0,0,1,250.63,496.28Zm0-480.45C121.28,15.84,16,121.07,16,250.42S121.28,485,250.63,485,485.21,379.77,485.21,250.42,380,15.84,250.63,15.84Z"/><path d="M369.61,272.36c-11.7-37-115-217.11-115-217.11s-95.3,158.46-120.68,214.29,13,153.8,119.55,155.65C351,426.88,386.53,325.94,369.61,272.36Zm-75.3,21.23,8.76,29.9-28-8.21-24.41,94.61L227.3,319.46l-49.52,24.05c.24.24.47.49.71.72C195.85,361,217.77,372.52,234.76,390l-.23.51c-57.37-3.07-116.31-48.11-81.37-110.82l.56.06c6.41,20.48,7.81,45.69,22.49,62.12L202.52,292l-57.28-21.28,61.49-22.85-8.56-29.22L226,226.76l24.59-95.31,23.53,91.22,48.46-23.25-24.28,49.82L356,270.67Z"/></g></svg>