<svg xmlns="http://www.w3.org/2000/svg" viewBox="0 0 500 500"><defs><style>.cls-1{fill:none;}</style></defs><title>clan-nova-cat</title><g id="Base"><polygon class="cls-1" points="213.77 303.41 213.77 303.41 213.77 303.41 213.77 303.41"/><polygon points="213.77 303.41 213.77 303.41 213.77 303.41 213.77 303.41"/><path d="M250,5.5C114.41,5.5,4.5,115.41,4.5,251S114.41,496.5,250,496.5,495.5,386.58,495.5,251,385.59,5.5,250,5.5ZM482.83,281l-54.34,5.85-19-14.84L433,262Zm-.17-61.28-51,19.71L409.52,230l20.07-15.7ZM435.84,107.57l-34.29,42.56-13.64,1.67-4.7-12.54,4-9.83Zm30.79,53-44.14,32.24-23.84-3.37L414,169.07Zm-92.15-44.61,17.71-7.14L381.63,135Zm-2.25-6L363.87,87.6l28.52-23.24Zm-33-76.06-8.42,54-19.24,14.48L308,77.11ZM280,18.17l5.85,54.34L271,91.48,261,68Zm-61.28.17,19.71,51L229,91.48,213.3,71.41Zm11.08,79.11L250,49.91l20.21,47.54L302,56.76l7.22,51.15L348.4,78.47l-6.21,52.86c-.35,3-.77,5.05-4.13,3.67-24.3-10-53.23-14.06-85.41-14.06h-4.13c-32.18,0-61.11,4.08-85.41,14.06-3.37,1.38-3.78-.66-4.13-3.67l-6.1-51.91,37.87,28.5L198,56.76Zm77.59,139.92c-3.51-7.18-4.67-15.05-5.08-23a83.38,83.38,0,0,0-10.74,18.23,57.49,57.49,0,0,0-3.06,8.8,24.94,24.94,0,0,0-.65,3.57,2.17,2.17,0,0,0-.05.73c.12.31.74.31,1.13.38,1,.18,1.94.37,2.91.52,4,.63,7.75.59,11.2-1.72,2.91-1.95,5.29-4.73,7.62-7.32a142.57,142.57,0,0,0,12.06-15.09c.78-1.14,1.47-2.14,2.9-2.45a13.11,13.11,0,0,1,2.16-.17,4.75,4.75,0,0,1,1.78.05c1.32.47.85,2.82.82,3.89a40.87,40.87,0,0,1-.48,5.1,35,35,0,0,1-6.4,15.43c-4.74,6.37-11.93,11.57-20,12a70.83,70.83,0,0,1-12.09-.32c-1.37-.16-2.26-1.31-3.65-1.39-1.09-.06-2.2,0-3.29.07a28.66,28.66,0,0,1-8-.51,8.84,8.84,0,0,1-3.32-2.16q-2.44-2.06-4.75-4.25c-2.86-2.71-5.56-5.57-8.18-8.51l-1.92-2.18a8,8,0,0,1-1.52-1.84c-.51-1.23.65-2.7,1.81-3,2.86-.71,5.15,1.42,7.6,2.45.69.29,2.29,1.17,3.09.89s.94-1.34,1.23-1.92l1.43-2.92c3.6-7.43,7.08-14.91,10.82-22.28q2.61-5.13,5.36-10.19,1.5-2.76,3-5.49a38.65,38.65,0,0,1,2.58-4.4,18.65,18.65,0,0,1,3.91-3.33q2.59-1.95,5.23-3.84c3.31-2.38,6.65-4.72,10-7.08q2.57-1.83,5.11-3.71l2.48-1.85a6.84,6.84,0,0,1,2.58-1.53,3.48,3.48,0,0,1,4,1.68l3,5c2,3.42,4,6.85,6,10.34q1.55,2.82,3,5.69c.64,1.25,1.36,2.41,1,3.87a20.24,20.24,0,0,1-2.78,5.42c-1.09,1.75-2.28,3.44-3.46,5.13-.89,1.27-1.66,2.64-3.46,2-.72-.24-1-.84-1.44-1.43-.55-.77-1.11-1.53-1.72-2.26-1.89-2.25-4.18-3.68-7.2-3.28a14.71,14.71,0,0,0-7.12,3.54c-.58.47-1.52,1-1.62,1.77a21.86,21.86,0,0,0,0,3.12c0,2,0,3.93,0,5.89a89.16,89.16,0,0,1-.67,11.87A48.92,48.92,0,0,1,307.38,237.37ZM324,312.74a3,3,0,0,1-.34,1.05,8.06,8.06,0,0,1-.83,1.25,16.13,16.13,0,0,1-1.08,1.24,26.76,26.76,0,0,1-4.55,3.62c-1.61,1.08-3.16,1.67-4.06.47a3.37,3.37,0,0,1-.52-1.14c-.48-1.77-1-3.45-1.44-5-4.63-15.46-9.09-23.63-15.34-36.58a1.54,1.54,0,0,1-.15-.71,2.3,2.3,0,0,1,4.24-1.19c4.29,5.25,8.44,10.87,12.37,16.72q1.48,2.19,2.91,4.43c2.87,4.47,5.6,9.06,8.17,13.71A3.69,3.69,0,0,1,324,312.74ZM195.59,256.26c-5.39-.55-10.61-4.14-14.38-7.81a35.27,35.27,0,0,1-10.35-22.8,39.73,39.73,0,0,1-.11-4c0-1,.28-1.72,1.39-1.81,2.18-.17,4.52,0,5.83,2,2.61,3.81,5.43,7.45,8.39,11,1.75,2.09,3.54,4.15,5.39,6.16a40,40,0,0,0,6,5.66,12.71,12.71,0,0,0,8.25,2.38,36.2,36.2,0,0,0,4.76-.61l2-.37c.34-.06.53,0,.64-.29a2.23,2.23,0,0,0-.05-.73c-.43-4.41-2.14-8.76-3.89-12.79a82.33,82.33,0,0,0-8-14.44c-.81-1.15-1.66-2.26-2.52-3.36-.41,7.9-1.57,15.77-5.08,23-4.05-9.94-3.75-20.48-3.76-31a11.45,11.45,0,0,0,0-1.74c-.08-.52-.25-.58-.68-1a27,27,0,0,0-2.46-2,14.38,14.38,0,0,0-4.18-2.09,7.89,7.89,0,0,0-4.72,0,10,10,0,0,0-4.28,3.47c-1.13,1.41-2.12,3.95-4.36,3.25-.92-.29-1.37-1.31-1.89-2.06-.77-1.1-1.54-2.19-2.28-3.3a29,29,0,0,1-3.88-7c-.62-2,.75-3.83,1.64-5.53,2.43-4.67,5-9.24,7.73-13.76,1.24-2.1,2.43-4.26,3.76-6.3,1.2-1.84,3.82-1.6,5.4-.42,8.63,6.46,17.76,12.32,26.17,19.06,1.81,1.45,2.76,3.58,3.88,5.56q1.95,3.47,3.84,7,3.25,6,6.31,12.17c3.41,6.84,6.62,13.77,10,20.63l1.16,2.35c.63,1.26,1.18,1.09,2.38.65,1.91-.69,3.55-1.75,5.39-2.56,1.44-.64,3.71-1,4.9.3a2.39,2.39,0,0,1,.65,2.12,5.22,5.22,0,0,1-1.27,1.61c-2.56,2.91-5.12,5.8-7.85,8.55q-2.62,2.64-5.41,5.11c-1.46,1.29-3,3.13-4.94,3.72-3.17,1-6.84.63-10.11.53a10,10,0,0,0-1.9,0c-.91.15-1.51.82-2.34,1.15a10.79,10.79,0,0,1-3.3.34c-1.41.08-2.82.17-4.23.22A54.23,54.23,0,0,1,195.59,256.26Zm9.86,20.64a1.54,1.54,0,0,1-.15.71c-6.25,12.95-10.71,21.12-15.34,36.58-.48,1.6-1,3.28-1.44,5a3.37,3.37,0,0,1-.52,1.14c-.9,1.2-2.45.61-4.06-.47a26.79,26.79,0,0,1-4.55-3.62,16.08,16.08,0,0,1-1.08-1.24,8,8,0,0,1-.83-1.25,3,3,0,0,1-.34-1.05,3.69,3.69,0,0,1,.63-2.17c2.57-4.65,5.3-9.24,8.17-13.71q1.43-2.24,2.91-4.43c3.94-5.85,8.09-11.46,12.37-16.72a2.31,2.31,0,0,1,4.24,1.19ZM224.58,331c-.08-1.67-.16-3.38-.19-5.37L226,327c2,1.66,4.4,3.72,6.2,5a5.17,5.17,0,0,0,2.9,1.31h31A5.16,5.16,0,0,0,269,332c1.8-1.31,4.24-3.37,6.2-5l1.58-1.33c0,2-.11,3.71-.19,5.38a70.3,70.3,0,0,0,.08,10.9c.13,1.43.95,5.5,2.88,5.5a3.58,3.58,0,0,0,2.21-1.27q-2.17,19.38-3.12,38.42l-.17-1.16a2.62,2.62,0,0,0-2.54-2.49l-.85.06c-1.7.11-2.13.78-2.31,1.9a24.77,24.77,0,0,1-1.57,5.48l-.52,1.42c-.13.36-.33.69-1.33.69h0l-18.74-.11-18.73.11c-1,0-1.22-.32-1.35-.69l-.53-1.43a24.68,24.68,0,0,1-1.57-5.47c-.18-1.12-.61-1.79-2.31-1.9l-.84-.06a2.61,2.61,0,0,0-2.54,2.49l-.17,1.15q-1-19-3.12-38.42a3.58,3.58,0,0,0,2.21,1.27c1.93,0,2.75-4.07,2.88-5.5A70.49,70.49,0,0,0,224.58,331Zm56.6,13a5.89,5.89,0,0,1-1.54,1.55,8.5,8.5,0,0,1-1.16-3.79,68.92,68.92,0,0,1-.08-10.64c.09-1.91.18-3.88.21-6.26a1.44,1.44,0,0,0-.74-1.45,1.22,1.22,0,0,0-.53-.12,2,2,0,0,0-1.24.53c-.53.43-1.27,1.05-2.1,1.76-1.94,1.64-4.35,3.68-6.09,4.94a3.92,3.92,0,0,1-1.82,1h-31a3.92,3.92,0,0,1-1.82-1c-1.74-1.27-4.15-3.31-6.09-4.94-.83-.7-1.56-1.32-2.1-1.76a1.6,1.6,0,0,0-1.78-.41,1.43,1.43,0,0,0-.74,1.45c0,2.37.12,4.34.21,6.25a69,69,0,0,1-.08,10.65,8.59,8.59,0,0,1-1.15,3.77A5.54,5.54,0,0,1,220,344a5.73,5.73,0,0,1-.81-1.55,61.11,61.11,0,0,1-2.76-17.6c-.09-1.94-.18-3.94-.37-6.12-.31-3.47-.83-9.45-1.12-12.84,3.7,3.77,12.22,12.33,17.44,16.71l.16.13a2.4,2.4,0,0,0,1.88.69h32.38a2.4,2.4,0,0,0,1.88-.7l.15-.13c5.18-4.34,13.74-12.95,17.44-16.71-.3,3.4-.81,9.37-1.12,12.84-.19,2.18-.28,4.18-.37,6.12A61.1,61.1,0,0,1,282,342.46,5.71,5.71,0,0,1,281.18,344Zm-.95-71.6c-.37,2.62-3.47,2.2-5.42,2.16s-5.08-.19-6.59-1.85c-1.29-1.42-2-3.91-4.18-4.14-2.81-.29-2.67,3-2.43,4.86.17,1.35.43,3.46,1.73,4.27s3.29.3,4.53,1.55c1.61,1.62,1.54,4.68,1.42,6.78a40,40,0,0,1-1.19,7.56,3.28,3.28,0,0,1-1.61,2.14c-1,.54-2.07.35-3.14.58-2.14.47-3.53,2.6-4.16,4.55-.78,2.4-.48,5.1-.5,7.59s-.05,4.88-.06,7.32c0,1.29.62,4.29-1.23,4.46-.68.06-1.4,0-2.08,0H244.36c-.84,0-1.63-.06-1.82-1.1a20.39,20.39,0,0,1,0-3.36q0-1.92,0-3.85,0-3.87-.06-7.73a9.35,9.35,0,0,0-2.17-6.34,4.76,4.76,0,0,0-2.62-1.57c-1.13-.2-2.19,0-3.21-.68a3.51,3.51,0,0,1-1.49-2.51c-.26-1.37-.53-2.74-.75-4.12a19.88,19.88,0,0,1-.07-7.37,4.49,4.49,0,0,1,1.33-2.53,5.51,5.51,0,0,1,2.8-.88,3.07,3.07,0,0,0,2.75-2.33,13.77,13.77,0,0,0,.58-3,6.81,6.81,0,0,0-.24-3.19c-1-2-3.52-.9-4.54.35-.67.82-1.12,1.82-1.81,2.62a5.4,5.4,0,0,1-2.83,1.49,15.92,15.92,0,0,1-3.85.47,12,12,0,0,1-3.79-.18c-2.13-.7-1.84-3.41-1.24-5.09a16.16,16.16,0,0,1,4.21-5.94c3.46-3.34,7.85-5.48,12.27-7.25,2.56-1,5.17-1.92,7.76-2.87,2.12-.78,4.17-1.78,6.48-1.26a62,62,0,0,1,7.4,2.64c2.42.88,4.83,1.79,7.17,2.86,4.36,2,8.51,4.66,11.42,8.54C279.36,267.83,280.56,270.08,280.23,272.41Zm-56.1,133.23a51.54,51.54,0,0,1-.45-15.68c.19-1.83.45-3.76.83-6.23.12-.8.5-.93.61-.94l.85.05a2.42,2.42,0,0,1,.57.09c0,.07,0,.18,0,.26a26.42,26.42,0,0,0,1.66,5.82l.52,1.42a2.9,2.9,0,0,0,3.05,1.9h0l18.72-.11,18.73.11a2.9,2.9,0,0,0,3.09-1.9l.52-1.41a26.49,26.49,0,0,0,1.66-5.84c0-.08,0-.19,0-.26a2.41,2.41,0,0,1,.57-.09l.85-.05c.1,0,.48.14.6.94.38,2.44.64,4.42.83,6.24a51.52,51.52,0,0,1-.45,15.68l-26.43.24ZM119,136.49,107.8,108.8l18.71,7.54Zm72.82-58-3.37,23.84L168.07,87l-8.51-52.66ZM136.62,89.37l-8.72,23.29-21.33-47.5Zm-23.28,41.35,4,10-4.2,11.2-16.13-2-33.7-41.35ZM86.87,170.19l14.48,19.24L76.12,193,32.86,161.77Zm-15.36,45,19,14.84L67,240,17.17,221ZM17.34,282.29l51-19.71L90.47,272,70.4,287.7ZM64.16,394.43l34.29-42.56,23.9-2.92-9.53,23.63Zm-30.79-53,44.14-32.23,23.84,3.37L86,332.93Zm74.24,96.2,22.11-50,22.33-9L149,403.94Zm53.16,30.49,8.42-54,19.24-14.48L192,424.88Zm30-74.05-41.28,31.07,6.26-51.28L107.8,393.2l19.32-47.91-51.28,6.26,31.07-41.28L55.76,303l40.69-31.83L48.9,251l47.54-20.21L55.76,199l51.16-7.22L75.85,150.45l36.23,4.43-8,21.3c-.63,1.69.37,2.83,2.23,4.12l20.88,14.48c2.29,1.59,2.58,2.59,2.26,4l-10,44.73a6.32,6.32,0,0,0,.91,5.41c9,11.55,16.8,22.81,27.72,34,1.6,1.64,5.25,4.18,4.17,8.2l-5.62,21c-.73,2.71,1.78,4.37,3.66,6.13l34.43,32.28c1.47,1.38,2.92,2.54,3.46,4.63l20.36,78.55L198,445.24Zm24.69,47.12h20.79L220,483.83ZM250,452.09l-5.31-10.89h10.62Zm14.88-10.89h20.74l-4.33,42.45Zm43.33-17.72,3.36-23.84L331.93,415l8.51,52.66Zm1.06-29.41L302,445.24l-9.68-10.51L313,355.21c.54-2.09,2-3.25,3.46-4.63l34.43-32.28c1.88-1.76,4.38-3.42,3.66-6.13l-5.62-21c-1.08-4,2.57-6.57,4.17-8.2,10.92-11.19,18.76-22.44,27.72-34a6.32,6.32,0,0,0,.91-5.41l-10-44.73c-.33-1.45,0-2.46,2.26-4l20.88-14.48c1.87-1.3,2.87-2.43,2.23-4.12l-8-21.44,35.13-4.29-31.06,41.28L444.24,199l-40.69,31.83L451.09,251l-47.54,20.22L444.24,303l-51.16,7.22,31.06,41.28-51.28-6.26,19.32,47.91-47.91-19.32,6.26,51.28Zm41.6,8.46L348,378.65l23.63,9.53,21.85,48.66Zm35.79-31.27-9-22.33L402.95,352l33.7,41.35Zm26.47-39.47-14.48-19.24L423.88,309l43.25,31.22Z"/></g></svg>