<svg xmlns="http://www.w3.org/2000/svg" viewBox="0 0 500 500"><defs><style>.cls-1{fill:#618e9c;}.cls-2{fill:#fcf1c8;}.cls-3{fill:none;}.cls-4{fill:#ff0;}</style></defs><title>clan-mongoose_COLOR</title><g id="n2"><path class="cls-1" d="M120.45,318.59c-1.47,10.12-8.55,14.47-6.48,26,1.1,6.17,4,11.23,5.42,17L40.77,318l78.15-71.61c-2.28,11.49-2,23.91-1.87,35.29C117.18,293.28,122.08,307.35,120.45,318.59Z"/><path class="cls-1" d="M374.93,11.83,372.08,36.9A95.88,95.88,0,0,0,354,31Z"/><path class="cls-1" d="M302.13,78.55c19.76-1.13,44.28-.82,64.42,6.94l-10.86,95.34-1.1.15c-15.59,1.89-24.3-8.22-38.09-14.18-17.73-7.67-36.68-11.13-55.81-12.74a152.3,152.3,0,0,0-43.75,2.56Z"/><path class="cls-1" d="M322.27,474.07l-85.74-47.52a48.65,48.65,0,0,0-2.48-6.55c-2.37-5-8.79-8.31-10.42-12.81-1.7-4.67-.4-9.74-2.46-14.6-2.84-6.72-4.63-3.69-5.77-11.81-1-7.19-.62-8.25,3.61-15.46,2.74-4.68,22.17-45.72,9.24-42.48-2.47-4.72,5-13,8.69-15,11.08-6,11.4,1,21.17,6.44,15.4,8.57,37.83.06,50.34-11.3v8.68l4.93-7.74.6,7.76,4.92-5.63,1.31,6.55c6.87-7.53,15.22-16.39,19.44-25.73,6.33-14,1-13.25-7-23.42-7.4-9.38-4-20.43,7.82-23.65,1.26-.34,4.55.07,8.46.66Z"/></g><g id="n1"><path class="cls-2" d="M239.31,494a7.75,7.75,0,0,1-3.23.75q-.73-3.28-4.51-4.17c1.87-12,2.77-4.27,10.15-3C242,490.13,241.62,493,239.31,494Z"/><path class="cls-2" d="M452.94,145.14c-2,10.55-6.42,18.94-12.26,27.45-3.61,5.25-16.52,15.77-17.87,20.48q-1.63-.19-1.95,1.63a3.9,3.9,0,0,0,4.63.85c-4.22,3.32-37.35,18.11-37.81,21.16,2.9-.59-8,2.41-6.66,4.8-.17-.29,12.89-.41,13.18-.38a8.52,8.52,0,0,0-1.67.94c-3.39-1.85-22.67,4.91-27.11,5.88-9.79,2.14-13,.16-6.15,10-1.45-.28-3.81-.7-6.66-1.09-1-.14-2.13-.27-3.28-.39-11.78-1.23-28.22-.9-27.13,11-9.93,1.12,12.5,23.29,13.2,24.5,6.12,10.54-3.27,16.66-10.25,25.84a1.64,1.64,0,0,0-1-.72c.68-2,.28-5.63-2.75-3.47a1.51,1.51,0,0,0-.46-.43,3.06,3.06,0,0,0-.52-3.67c.63.34-35.53,18.46-37.52,19.34-1.33-1.22-12.86,2.28-14.06,2.64-1.89-2.22-7.17-3.58-9.58-5.47-4.71-3.71-8.47-9.65-11.63-14.32-9.24-13.66-9.89-21.16-2.4-35.05,7.65-14.19,17.1-25.65,30.7-33.83a6.89,6.89,0,0,0,5.75,4.54c2.23-1.3-3.56-8.57-5.2-9.16-4.58-1.64-4.34,1.67-8.62,3.62-15.91,7.22-30.38,19-37,35.74-8,20.34,1,39.81-22.87,47.38-2.38.76-23.76,8.27-18.47,13.55,1,1,11.55-7.49,15.17-7.36,4.08.14,10.68,7.13,12.86,9.52,8.85,9.68,9.14,41.3-6.14,47.11-.28-3.49-13.21-16.41-16.38-15.62,3.72-.78,12.78,26.81,13.37,33.15-12.71-13.73-15.79,3.37-15.09,12.8a1.81,1.81,0,0,0-.81,1.09,3.42,3.42,0,0,0-3.8-1.45c-.47.47.31,1.82,1.63,3.23,2,2.13,5.21,4.4,7.21,4a1.84,1.84,0,0,0,.89-.44c.91-.83,0-16.6,0-16.91,16.35,4.57,18.55,17.34,25.94,30.34.5.88,1,1.77,1.43,2.66q1.28,2.5,2.36,5.08c7,16.69,8.12,35.56,10.79,54-5.8-2.47-10.06,3.49-11.9,7.91-12.73-9-28.07-13.62-40.59-22.86-1.67-1.23-18.11-21.08-18.42-21-1.69-5.89-10.43-10.23-12.91-16.69-3.49-9.07.77-13.7-.52-22.08.7.77,12.85,11.28,14.33,8.74,1.82-3.12-15.48-13.77-15.62-13.49-2.13-.11-3.58,2.62-4.18,4.51a65.49,65.49,0,0,0-3.36-7.64c-.25-.49-.54-1-.86-1.64,2.65-3.69-.72-12.47-4.21-18.23-2.8-4.63-5.69-7.31-5.6-3.84-1.32-.87-2.59-2.91-3.75-5.11-1.93-3.66-3.55-7.78-4.55-7.7-5.6-12.88-6.53-23-1.78-35.54-.13.34,8-17,7.65-17.19-1.85-1.08-4.52,3.25-6.18,4.37-4.36-31.44-4.41-54,7-79.17q1.85-4.07,4.12-8.25c1.47-2.71,3.07-5.46,4.82-8.27h0c9.37-21.5,38.53-46.79,61.37-52.38.87-.21,1.73-.41,2.58-.56l3.6-.63a208.52,208.52,0,0,1,30-3c11.85-.24,24.41,0,36,2.69,7,1.62,16.86,8.1,23.71,7.26,3.2,5.61,32.12,14.51,37.15,16.48a36.88,36.88,0,0,0,17.78,2.79c1.12-.11,2.24-.28,3.38-.49a68.07,68.07,0,0,0,11.13-3.24c33.54-12.43,52.39-49.3,30-81.28A71.54,71.54,0,0,0,370.46,80.2q-1.56-.73-3.16-1.41C350,71.52,330.06,69.62,311,70.46q-2.62.12-5.21.3c-4.59.32-9.11.78-13.5,1.36-44.56,5.84-73,37.54-103.54,66.38,1.38-4.47,18.43-50.23,20.47-48.19-2-2-9.38,3.23-11.86,4.42,2.37-3.45,23.37-20.83,26.15-21.83-1.46-.15-7.19-1.24-7.88-1.27,6.63-5.18,16.55-2.17,23.74-5.75,1.32.9,7.73-.11,8.32-1.8s-5.25-4.48-6.26-5.67c-.06,0,31.9-5.43,31.83-6.65-.08-1.42-9.77-5.21-10.22-5.31,15.47-9.38,33.31-3.1,49.29-8.56,1.06,1.06,7.08-1,7-2-.13-2.13-5.16-2-6.25-3.33a114,114,0,0,1,32.7,1.49q2,.37,4,.81l1.15.25c2.44.56,11.69,4.83,20.41,8.37l3.18,1.26c6.76,2.62,12.61,4.44,13.83,3.19,2.12-2.17-4.47-9.34-5.23-10.33a37.21,37.21,0,0,1,11.8,6.78c-.28,1.34,34.38,36.32,35.41,36.1,2.3-.49.84-8.23.73-9.79C447.67,92.92,458.29,117,452.94,145.14Z"/></g><g id="Base"><path class="cls-3" d="M429.26,68.37l-.2-.26c0,.11,0,.23,0,.34Z"/><path class="cls-4" d="M195,352.13a.77.77,0,0,0-.23.09A.9.9,0,0,1,195,352.13Z"/><path class="cls-4" d="M223.73,72.85a.47.47,0,0,0-.27,0C223.77,72.93,223.89,72.92,223.73,72.85Z"/><path d="M158.88,410.86c-1.72-4.22-7.69,6.86-3.26,6.85a3.5,3.5,0,0,0,2.05-3.59c1.82,2.57,8.07,20.31,5.11,20.31C172.69,434.43,159.59,412.6,158.88,410.86Z"/><path d="M199.89,401c2.3,4.21,3.9,5,9.7,6.51,2.54.67,4.42,3.51,7.19,3.42,2-.06,1.64-6.15-.22-6.64-2.17-.57-1.33,3.61-5.09,1.34-2-1.23-8.08-5.08-9.23-5.3-.25-1.13,1.05-9-1.08-9C199.52,391.31,199.4,400.07,199.89,401Z"/><path d="M185.75,450.83c1.6,6.2,15.3,24.95,22.81,15.67,3,.85-17.69-16-19.22-15.35C188,450.08,182.27,447.31,185.75,450.83Z"/><path d="M221.8,436.35c.23,1.94-.17,13.77,2.43,15.68q-1.54,2.65.36,4.32c6.68,2,6.43-31.88-1.7-32.09C221.44,424.22,221.59,434.67,221.8,436.35Z"/><path d="M452.86,102.57c-2.13-5.25-20.25-42.37-26-39.95a11.17,11.17,0,0,0-.3,7.84C416,56.6,406.6,44.74,390.74,36.25c-8.53-4.56-19.83-8.94-10,5-1.82-1-3.65-2-5.49-2.87l4-34.93L350,30.21q-2.53-.46-5.12-.8c-4.08-.54-44-3.29-40.83,3.73,1.14,2.56,6.51-1.66,7.49,2.22-5,2.36-53.87-.22-52.22,11.7a16.54,16.54,0,0,0,6.74,3.29c-.35.12-37,7.39-30.28,12.91h0c-7.76,1.57-29,6.21-25.62,11.35.52.78,6.47-.23,7.27.16-3.4,2.32-29.41,18.86-24,23.82,2.06,1.9,5.5-3.15,7.54-2.23a2.17,2.17,0,0,1,.18.63c-4.7,6.19-32.36,50.4-21.27,58.83,2.45,1.86,33.25-37.14,41.53-43.55,23.14-17.9,46.7-30.46,75.4-33.29l-86.41,79.18c-39.26,10.13-72.48,36.65-88.49,77.83-.6,1.53-1.11,3.11-1.57,4.7L36.85,317.16l-1.69,1.55,84.91,47.07c0,.31.06.61.07.93.17,3.73-4.65,25.61.49,26,2.22.19,3.62-5,4.29-6.43.57,2.19,1.67,14.77,5.75,13.39,2.35-.79,2.24-7.72,2.78-9.17,2.55,4.47,6.91,16.94,7.39,3.18,8.37,13.18,4.53,32.57,14.34,44,4.54,5.3,9.62,7.94,13.92,13.92,4.81,6.69,8.16,11.38,15.15,16.37,13.12,9.37,28.52,19,43.22,25.6,16.82,7.55,16.94-3.9,14.95-17.6s-1.42-30.66-4.71-45L325,479.35,352.15,241c11.23,1.74,24.19,3.61,10.59-6.11,3.89-1.15,45.29-7.3,42.71-16.3-.53-1.83-7.38-1.44-8.73-1.93,4.18-2.4,48.56-20.72,44.43-28.9a7.87,7.87,0,0,0-5.15-.48c4.83-9.69,15-15.66,19.47-26.06C463.8,141.79,460.57,121.6,452.86,102.57Zm-332.42,216c-1.47,10.12-8.55,14.47-6.48,26,1.1,6.17,4,11.23,5.42,17L40.77,318l78.15-71.61c-2.28,11.49-2,23.91-1.87,35.29C117.18,293.28,122.08,307.35,120.45,318.59ZM429.26,68.37l-.18.08c0-.11,0-.23,0-.34ZM374.93,11.83,372.08,36.9A95.88,95.88,0,0,0,354,31ZM302.13,78.55c19.76-1.13,44.28-.82,64.42,6.94l-10.86,95.34-1.1.15c-15.59,1.89-24.3-8.22-38.09-14.18-17.73-7.67-36.68-11.13-55.81-12.74a152.3,152.3,0,0,0-43.75,2.56Zm67.59,8.24c11.32,4.94,21,12.45,27.34,23.71,18.4,32.73-5.29,63.46-38,69.77ZM239.31,494a7.75,7.75,0,0,1-3.23.75q-.73-3.28-4.51-4.17c1.87-12,2.77-4.27,10.15-3C242,490.13,241.62,493,239.31,494Zm83-19.91-85.74-47.52a48.65,48.65,0,0,0-2.48-6.55c-2.37-5-8.79-8.31-10.42-12.81-1.7-4.67-.4-9.74-2.46-14.6-2.84-6.72-4.63-3.69-5.77-11.81-1-7.19-.62-8.25,3.61-15.46,2.74-4.68,22.17-45.72,9.24-42.48-2.47-4.72,5-13,8.69-15,11.08-6,11.4,1,21.17,6.44,15.4,8.57,37.83.06,50.34-11.3v8.68l4.93-7.74.6,7.76,4.92-5.63,1.31,6.55c6.87-7.53,15.22-16.39,19.44-25.73,6.33-14,1-13.25-7-23.42-7.4-9.38-4-20.43,7.82-23.65,1.26-.34,4.55.07,8.46.66ZM452.94,145.14c-2,10.55-6.42,18.94-12.26,27.45-3.61,5.25-16.52,15.77-17.87,20.48q-1.63-.19-1.95,1.63a3.9,3.9,0,0,0,4.63.85c-4.22,3.32-37.35,18.11-37.81,21.16,2.9-.59-8,2.41-6.66,4.8-.17-.29,12.89-.41,13.18-.38a8.52,8.52,0,0,0-1.67.94c-3.39-1.85-22.67,4.91-27.11,5.88-9.79,2.14-13,.16-6.15,10-1.45-.28-3.81-.7-6.66-1.09-1-.14-2.13-.27-3.28-.39-11.78-1.23-28.22-.9-27.13,11-9.93,1.12,12.5,23.29,13.2,24.5,6.12,10.54-3.27,16.66-10.25,25.84a1.64,1.64,0,0,0-1-.72c.68-2,.28-5.63-2.75-3.47a1.51,1.51,0,0,0-.46-.43,3.06,3.06,0,0,0-.52-3.67c.63.34-35.53,18.46-37.52,19.34-1.33-1.22-12.86,2.28-14.06,2.64-1.89-2.22-7.17-3.58-9.58-5.47-4.71-3.71-8.47-9.65-11.63-14.32-9.24-13.66-9.89-21.16-2.4-35.05,7.65-14.19,17.1-25.65,30.7-33.83a6.89,6.89,0,0,0,5.75,4.54c2.23-1.3-3.56-8.57-5.2-9.16-4.58-1.64-4.34,1.67-8.62,3.62-15.91,7.22-30.38,19-37,35.74-8,20.34,1,39.81-22.87,47.38-2.38.76-23.76,8.27-18.47,13.55,1,1,11.55-7.49,15.17-7.36,4.08.14,10.68,7.13,12.86,9.52,8.85,9.68,9.14,41.3-6.14,47.11-.28-3.49-13.21-16.41-16.38-15.62,3.72-.78,12.78,26.81,13.37,33.15-12.71-13.73-15.79,3.37-15.09,12.8a1.81,1.81,0,0,0-.81,1.09,3.42,3.42,0,0,0-3.8-1.45c-.47.47.31,1.82,1.63,3.23,2,2.13,5.21,4.4,7.21,4a1.84,1.84,0,0,0,.89-.44c.91-.83,0-16.6,0-16.91,16.35,4.57,18.55,17.34,25.94,30.34.5.88,1,1.77,1.43,2.66q1.28,2.5,2.36,5.08c7,16.69,8.12,35.56,10.79,54-5.8-2.47-10.06,3.49-11.9,7.91-12.73-9-28.07-13.62-40.59-22.86-1.67-1.23-18.11-21.08-18.42-21-1.69-5.89-10.43-10.23-12.91-16.69-3.49-9.07.77-13.7-.52-22.08.7.77,12.85,11.28,14.33,8.74,1.82-3.12-15.48-13.77-15.62-13.49-2.13-.11-3.58,2.62-4.18,4.51a65.49,65.49,0,0,0-3.36-7.64c-.25-.49-.54-1-.86-1.64,2.65-3.69-.72-12.47-4.21-18.23-2.8-4.63-5.69-7.31-5.6-3.84-1.32-.87-2.59-2.91-3.75-5.11-1.93-3.66-3.55-7.78-4.55-7.7-5.6-12.88-6.53-23-1.78-35.54-.13.34,8-17,7.65-17.19-1.85-1.08-4.52,3.25-6.18,4.37-4.36-31.44-4.41-54,7-79.17q1.85-4.07,4.12-8.25c1.47-2.71,3.07-5.46,4.82-8.27h0c9.37-21.5,38.53-46.79,61.37-52.38.87-.21,1.73-.41,2.58-.56l3.6-.63a208.52,208.52,0,0,1,30-3c11.85-.24,24.41,0,36,2.69,7,1.62,16.86,8.1,23.71,7.26,3.2,5.61,32.12,14.51,37.15,16.48a36.88,36.88,0,0,0,17.78,2.79c1.12-.11,2.24-.28,3.38-.49a68.07,68.07,0,0,0,11.13-3.24c33.54-12.43,52.39-49.3,30-81.28A71.54,71.54,0,0,0,370.46,80.2q-1.56-.73-3.16-1.41C350,71.52,330.06,69.62,311,70.46q-2.62.12-5.21.3c-4.59.32-9.11.78-13.5,1.36-44.56,5.84-73,37.54-103.54,66.38,1.38-4.47,18.43-50.23,20.47-48.19-2-2-9.38,3.23-11.86,4.42,2.37-3.45,23.37-20.83,26.15-21.83-1.46-.15-7.19-1.24-7.88-1.27,6.63-5.18,16.55-2.17,23.74-5.75,1.32.9,7.73-.11,8.32-1.8s-5.25-4.48-6.26-5.67c-.06,0,31.9-5.43,31.83-6.65-.08-1.42-9.77-5.21-10.22-5.31,15.47-9.38,33.31-3.1,49.29-8.56,1.06,1.06,7.08-1,7-2-.13-2.13-5.16-2-6.25-3.33a114,114,0,0,1,32.7,1.49q2,.37,4,.81l1.15.25c2.44.56,11.69,4.83,20.41,8.37l3.18,1.26c6.76,2.62,12.61,4.44,13.83,3.19,2.12-2.17-4.47-9.34-5.23-10.33a37.21,37.21,0,0,1,11.8,6.78c-.28,1.34,34.38,36.32,35.41,36.1,2.3-.49.84-8.23.73-9.79C447.67,92.92,458.29,117,452.94,145.14Z"/></g></svg>