<svg xmlns="http://www.w3.org/2000/svg" viewBox="0 0 500 500"><defs><style>.cls-1{fill:#801800;}.cls-2{fill:#ebb368;}.cls-3{fill:#5c6167;}.cls-4{fill:#fff;}</style></defs><title>clan-stone-lion_COLOR</title><g id="n4"><path class="cls-1" d="M14.64,229c0-110,89.45-199.41,199.41-199.41a198.94,198.94,0,0,1,148,65.93q-8-3.08-16.29-5.64A191.59,191.59,0,0,0,78.57,364.46,190.15,190.15,0,0,0,186.47,418.6c1.05,1.25,2.1,2.52,3.12,3.84q1.88,2.42,3.52,4.84C93,416.78,14.64,331.86,14.64,229Z"/></g><g id="n3"><path class="cls-2" d="M60.68,175.31c2.11,6.41,7.85,10.54,9.26,17.05.56,2.57,2.12,36.26,12.28,25.23,3.4-3.69-2.44-15.07,6.72-14.12,5.31.55,5.39,9.07,8.21,12.36,12,14.07,8.17-8,14.48-14.71,17-18.11,69.51,6.2,56,30.51-6.08,11-19,18.28-31.22,14.29-9.37-3-7.8-7.25-12.13-13.73-1.74-2.6,1.34-3.79-2.84-4.86-3.63-.93-7.72,5.94-9.25,8-3.54,4.76-1.54,8.32-8.69,4.6-5.68-3-2.87-13.81-5.92-15.36C86.7,219,85.42,246.15,85.36,251c-.29,23.21,16.18,47.26,34.22,62.54,4.23,3.58,10.7,6.28,14,10.74,4.43,6,3.82,13.27,4.81,20.37,2.4,17.36,10.73,28.91,20.65,42.86,7.38,10.38,16.29,18.46,24.63,27.84C93.94,400.75,25.23,322.75,25.23,229c0-104.12,84.71-188.82,188.82-188.82A188,188,0,0,1,339.55,88,198.24,198.24,0,0,0,293,80.46c-16.85-.57-33.56,2-50.34,2.91-15,.77-25,7.53-38.69,13.91-13.35,6.21-28,7.47-41.54,13.7-16.11,7.43-29.18,4.52-46.31,3.71-15.19-.71-31.64,1.34-44,11-9.13,7.16-12,18.83-13.6,29.44C57.65,160.7,58.93,170,60.68,175.31Z"/><path class="cls-2" d="M174,123.56c5.5-3.31,16.57-2.76,23.2-3.29-9.64,5.11-19.24,14.33-29.13,6.86Z"/></g><g id="n2"><path class="cls-3" d="M320.7,385.23c-28.26-21-42.43-61.91-36.82-96.76,1.36-8.46,2.9-8.84,7.07-2.5,5,7.53,6.86,19.27,10.14,27.74,6.61,17.06,14.83,32.1,27.31,45.61,12.1,13.1,24.94,22.44,42.54,26.44,18.38,4.17,38,4.17,55.08,13-9.7-19.25-21.75-26.26-40.22-35.7-5.15,1.53-27-17.88-30.77-22-7.31-8.15-11.51-18.52-14.46-28.93a142.41,142.41,0,0,1-5.24-37.18c-.13-11.24.88-19.75-4.57-30.08-5.14-9.74-10.82-16.91-12.6-28.26-1.91-12.21-3.56-21.11-9.1-32.44-5.67-11.59-5-14.14,5.16-21.23,8.36-5.86,24.07-10.77,27.52-21.49,7.09-22-44.73-17.72-57.25-17.31-14.25.46-21.43-2.43-33.66-8.69a93.49,93.49,0,0,0-36.8-9.94c-11.08-.67-23.79.06-34.52,3.14-11.22,3.21-22.88,13.06-34.08,14.51-8.85,1.15-20.21-3.5-29.72-4-12.68-.6-25.9.71-37,7.44,8.07,4.74,19.82,16.59,4.19,18.93-9.32,1.39-16.41-.64-19.24,10.5-1.49,5.86-.45,14.8,2,20.3,3.6,8.09,7.89,7.31,15.93,7.32a246.72,246.72,0,0,1,42.07,3.53c19.76,3.38,66.17,22.71,45.84,49.45-18.92,24.9-52.33,23.76-80.08,22.07a104.4,104.4,0,0,0,15.06,31.77c2.4,3.42,15.25,21.92,20.18,21.53,4.56-.35,9.22-15.64,12.47-20a35.23,35.23,0,0,1,21.65-14c18-4.08,34.76,3.66,51.75,8,6.42,1.63,15,3.46,5.34,6.68-5.93,2-21.62-5.87-27.8-7-19-3.48-36.46-3.49-43.85,17.12-6,16.87-4.63,38.89,1.62,55.68C160.42,397.51,203,416,212,458.64c-.18-14.63-1-30.73-7.43-44.12-5.24-10.92-12.69-20.45-17.41-31.72-2.6-6.22-13.58-33.5-7.93-39.45,5.34-5.63,6.57,7,8.13,11,9.77,24.89,26.48,44.44,47.22,60.77,20.21,15.91,40.83,30.7,55.53,52.37,1.54-34.43-38.31-55.4-55.73-81.73-8.39-12.67-14.17-28-12.85-43.37.31-3.67,1.64-17.76,6.81-17.18,4.33.48,6.43,12.8,8,16.44,12.3,29.06,35.27,61.45,65,74.53,32,14.12,66.94,19.56,98,36.57C389.83,419.09,346.5,404.41,320.7,385.23ZM168.07,127.13l5.93-3.57c5.5-3.31,16.57-2.76,23.2-3.29C187.56,125.38,178,134.6,168.07,127.13Z"/><path class="cls-3" d="M481.06,316.3c-2.66-3.45-16.76-6.73-21.11-10-7-5.21-12.56-12-17.44-19.1-10.57-15.46-18.37-33-26.93-49.6-9.71-18.81-18.59-41.09-35.39-54.87-14.54-11.93-37.67-19.69-56.22-20.86,10.06-5.9,30.12-16.65,21.72-31.8-6-10.79-28.48-9.69-38.79-10.3-16.71-1-32.7,3.19-47.82-4.91-16.59-8.88-33.58-14.34-52.61-14,10.84-5.65,19.84-11.34,31.64-12.72,14.25-1.66,29-2.72,43.3-3.15,30.19-.91,60.64,7,88.38,18.46-14.21.07-33.84-2-47.63,1.41-8.48,2.11-6,3.79.55,6.24,7.56,2.81,15.48,5,23.16,7.49,14.68,4.76,28.93,9.35,42.26,17.29,11.66,7,20.41,15.89,28.68,27.26,16,21.94,16.44,48.61,24.92,73.42,9.85,28.83,22,59.2,45.08,80.07Z"/><path class="cls-3" d="M421,314.35c7,9.58,14.82,18.89,24.72,25.59,7.83,5.3,18.13,7.35,25.31,13.39-11.65,9.12-45-.46-56.34-5.71-16.11-7.43-29.22-26.7-37.66-41.6-10.37-18.28-15.8-38.5-28-55.93-6.43-9.22-14.33-16.46-21.63-24.84-4.17-4.78,1.07,8.52-4.52-5.61-1.9-4.82-1-11.18-1.85-16.2-2.32-13.47-23-36.69,1.9-37.14,18.34-.33,34.61,16.93,43.91,30.84C390.14,232,386.41,287.25,421,314.35Z"/></g><g id="n1"><path class="cls-4" d="M109.9,196.47A23.35,23.35,0,0,0,102,215.26c-5.43-4.73-4.06-15.84-13.16-16.85-8.17-.91-10,8.34-10.67,14.48-6.85-8.13-1.42-16.1-4.55-24.8,15.8,0,30.39,1.48,46,3.12A26.63,26.63,0,0,0,109.9,196.47Z"/><path class="cls-4" d="M90.46,239.62c.52-3,1.34-6.59,3.32-9.07.61,6,5.26,14.21,11.83,15.31,9.7,1.62,7.62-8.41,14.22-13,.89,10.73,10.69,17.28,20.65,18.32-10.81,3.93-22.23,4.44-33.61,4.1-3.26-.1-15.33.88-17-1C88.1,252.16,90.08,241.84,90.46,239.62Z"/></g><g id="Base"><path d="M495.24,318c-25.34-19.51-38.17-50.78-48.36-80.08-10-28.65-10.72-58.33-30.72-82.85-3.69-4.52-12.13-10.23-13.62-16.2-2-7.79,1.74-6.1,7.55-8.78,16.89-7.82-11.85-18-19.92-22.11q-2.91-1.47-5.87-2.9A211.43,211.43,0,0,0,296,35,210.58,210.58,0,0,0,132.1,423,208.6,208.6,0,0,0,199.84,439a138.06,138.06,0,0,1,8.59,24.53c4.79,18,13.08-12.85,19.16-18.32,10.87-9.78,28.22-7.91,38.43,1.15,5.66,5,11,11.38,15.72,17.28,2.2,2.75,10.69,19.06,13.62,18.77,5.75-.58,7.33-15.25,7.57-18.94.44-6.52-4.19-19-1.7-25s-2-3.24,6.82-2.25c2.69.3,6,1.86,8.69,2.68L342,446.65c11.92,3.64,24,7,35.69,11.21,7.69,2.79,15.32,6,22.18,10.53,3.59,2.37,9.93,10.07,11.33,3.27.46-2.23-6.89-17.78-8-21.13-2.55-8-5.93-15-11.63-21.32-12.16-13.45-29.87-20-43.75-31.26,15.85,1.34,31.48,2.73,47.41,3.94,8.49.65,22.22,4.81,30.45,3.36,6.4-1.12,6.8-1.73,4-8.92-5.77-14.77-18.09-26.24-32.06-32.85-3.61-1.71-12.19-3.46-13.17-7.78-1.54-6.76,6.69-7.31,11.34-7.17,16.39.49,33.41,8.25,49.58,11.11,5.67,1,25.93,3.71,29.71-4.24,3.64-7.65-20.57-15-25.53-18.18-12.05-7.71-20.86-19.4-29-31,13.29,3,26.58,11,41.26,14.47,8.31,2,19.7,4,28.08,1.47C491.24,321.81,500.34,322,495.24,318ZM14.64,229c0-110,89.45-199.41,199.41-199.41a198.94,198.94,0,0,1,148,65.93q-8-3.08-16.29-5.64A191.59,191.59,0,0,0,78.57,364.46,190.15,190.15,0,0,0,186.47,418.6c1.05,1.25,2.1,2.52,3.12,3.84q1.88,2.42,3.52,4.84C93,416.78,14.64,331.86,14.64,229Zm46-53.67c2.11,6.41,7.85,10.54,9.26,17.05.56,2.57,2.12,36.26,12.28,25.23,3.4-3.69-2.44-15.07,6.72-14.12,5.31.55,5.39,9.07,8.21,12.36,12,14.07,8.17-8,14.48-14.71,17-18.11,69.51,6.2,56,30.51-6.08,11-19,18.28-31.22,14.29-9.37-3-7.8-7.25-12.13-13.73-1.74-2.6,1.34-3.79-2.84-4.86-3.63-.93-7.72,5.94-9.25,8-3.54,4.76-1.54,8.32-8.69,4.6-5.68-3-2.87-13.81-5.92-15.36C86.7,219,85.42,246.15,85.36,251c-.29,23.21,16.18,47.26,34.22,62.54,4.23,3.58,10.7,6.28,14,10.74,4.43,6,3.82,13.27,4.81,20.37,2.4,17.36,10.73,28.91,20.65,42.86,7.38,10.38,16.29,18.46,24.63,27.84C93.94,400.75,25.23,322.75,25.23,229c0-104.12,84.71-188.82,188.82-188.82A188,188,0,0,1,339.55,88,198.24,198.24,0,0,0,293,80.46c-16.85-.57-33.56,2-50.34,2.91-15,.77-25,7.53-38.69,13.91-13.35,6.21-28,7.47-41.54,13.7-16.11,7.43-29.18,4.52-46.31,3.71-15.19-.71-31.64,1.34-44,11-9.13,7.16-12,18.83-13.6,29.44C57.65,160.7,58.93,170,60.68,175.31ZM102,215.26c-5.43-4.73-4.06-15.84-13.16-16.85-8.17-.91-10,8.34-10.67,14.48-6.85-8.13-1.42-16.1-4.55-24.8,15.8,0,30.39,1.48,46,3.12a26.63,26.63,0,0,0-9.75,5.26A23.35,23.35,0,0,0,102,215.26Zm38.42,35.92c-10.81,3.93-22.23,4.44-33.61,4.1-3.26-.1-15.33.88-17-1-1.8-2.1.17-12.42.55-14.64.52-3,1.34-6.59,3.32-9.07.61,6,5.26,14.21,11.83,15.31,9.7,1.62,7.62-8.41,14.22-13C120.71,243.59,130.51,250.14,140.46,251.17ZM385.8,363c18.47,9.44,30.52,16.44,40.22,35.7-17.09-8.8-36.69-8.79-55.08-13-17.6-4-30.44-13.34-42.54-26.44-12.47-13.51-20.7-28.55-27.31-45.61-3.28-8.47-5.19-20.21-10.14-27.74-4.17-6.34-5.71-6-7.07,2.5-5.61,34.85,8.56,75.75,36.82,96.76,25.8,19.18,69.12,33.86,78.54,67.52-31.06-17-66-22.45-98-36.57-29.69-13.08-52.66-45.47-65-74.53-1.54-3.64-3.64-16-8-16.44-5.17-.58-6.5,13.52-6.81,17.18-1.32,15.39,4.47,30.7,12.85,43.37,17.43,26.33,57.27,47.3,55.73,81.73-14.7-21.67-35.32-36.46-55.53-52.37-20.74-16.33-37.45-35.88-47.22-60.77-1.55-4-2.78-16.63-8.13-11-5.64,5.94,5.34,33.23,7.93,39.45,4.71,11.27,12.17,20.8,17.41,31.72C211,427.91,211.81,444,212,458.64c-9-42.65-51.57-61.13-66.11-100.2-6.25-16.79-7.67-38.81-1.62-55.68,7.39-20.61,24.82-20.6,43.85-17.12,6.18,1.13,21.87,9,27.8,7,9.7-3.22,1.08-5.05-5.34-6.68-17-4.31-33.77-12-51.75-8a35.23,35.23,0,0,0-21.65,14c-3.25,4.34-7.91,19.63-12.47,20-4.93.38-17.79-18.12-20.18-21.53a104.4,104.4,0,0,1-15.06-31.77c27.75,1.69,61.15,2.83,80.08-22.07,20.32-26.74-26.09-46.07-45.84-49.45a246.72,246.72,0,0,0-42.07-3.53c-8,0-12.33.77-15.93-7.32-2.45-5.5-3.49-14.44-2-20.3,2.83-11.15,9.92-9.11,19.24-10.5,15.63-2.34,3.88-14.18-4.19-18.93,11.08-6.73,24.29-8,37-7.44,9.5.45,20.87,5.1,29.72,4,11.2-1.46,22.85-11.3,34.08-14.51,10.73-3.07,23.44-3.81,34.52-3.14a93.49,93.49,0,0,1,36.8,9.94c12.24,6.26,19.41,9.15,33.66,8.69,12.52-.41,64.34-4.72,57.25,17.31-3.45,10.72-19.16,15.63-27.52,21.49-10.12,7.09-10.84,9.64-5.16,21.23,5.54,11.33,7.19,20.23,9.1,32.44,1.78,11.35,7.46,18.52,12.6,28.26,5.45,10.33,4.44,18.84,4.57,30.08a142.41,142.41,0,0,0,5.24,37.18c3,10.4,7.14,20.78,14.46,28.93C358.75,345.14,380.64,364.55,385.8,363ZM421,314.35c7,9.58,14.82,18.89,24.72,25.59,7.83,5.3,18.13,7.35,25.31,13.39-11.65,9.12-45-.46-56.34-5.71-16.11-7.43-29.22-26.7-37.66-41.6-10.37-18.28-15.8-38.5-28-55.93-6.43-9.22-14.33-16.46-21.63-24.84-4.17-4.78,1.07,8.52-4.52-5.61-1.9-4.82-1-11.18-1.85-16.2-2.32-13.47-23-36.69,1.9-37.14,18.34-.33,34.61,16.93,43.91,30.84C390.14,232,386.41,287.25,421,314.35Zm60.09,2c-2.66-3.45-16.76-6.73-21.11-10-7-5.21-12.56-12-17.44-19.1-10.57-15.46-18.37-33-26.93-49.6-9.71-18.81-18.59-41.09-35.39-54.87-14.54-11.93-37.67-19.69-56.22-20.86,10.06-5.9,30.12-16.65,21.72-31.8-6-10.79-28.48-9.69-38.79-10.3-16.71-1-32.7,3.19-47.82-4.91-16.59-8.88-33.58-14.34-52.61-14,10.84-5.65,19.84-11.34,31.64-12.72,14.25-1.66,29-2.72,43.3-3.15,30.19-.91,60.64,7,88.38,18.46-14.21.07-33.84-2-47.63,1.41-8.48,2.11-6,3.79.55,6.24,7.56,2.81,15.48,5,23.16,7.49,14.68,4.76,28.93,9.35,42.26,17.29,11.66,7,20.41,15.89,28.68,27.26,16,21.94,16.44,48.61,24.92,73.42,9.85,28.83,22,59.2,45.08,80.07Z"/><path d="M313.37,102.38c4.64-2.33,10.86-1.48,15.89-1.53,2,0,14.26,1.27,14.54-1.19.62-5.4-9-4.06-12.32-4.12-23.17-.45-42.5,9.32-66.23,5.32C258.84,99.78,239,92.32,232.7,96c-5.54,3.2,13.21,8.12,16.92,10.09a80.4,80.4,0,0,0,34,9.78c5.56.34,15.68,2.32,20.9.61,1-.32,10.43-3.11,4.38-5.41C303.15,108.88,311.77,103.18,313.37,102.38Z"/><path d="M438.47,241.28c-12.35-34.29-15.68-76.11-47.67-98.95-6.89-4.91-14.74-9.89-23.15-11.57-12.43-2.49-7.36.93-5.33,8.45,2.65,9.85.65,11.07-8.6,14.89-2,.83-9,1.31-9.93,4-1.57,4.52,1,1.39,2.66,3.45,11.25,13.7,37.09,9.86,51,19.09s20.57,30,27,44.66c6.72,15.3,10.39,38.81,21.25,51.67,5.08,6,6.3,4,4.22-3.66C447,262.49,442.27,251.83,438.47,241.28Z"/><path d="M155.41,144.88c.6.43,22.65.19,23.45-.42,5.87-4.57-4.51-5.91-6.84-9.3,8.78,1.45,17.65-6,24.9-9.7,7-3.57,7.59-4.81,14.22-1.62,4.17,2,7.72,6.59,11.67,9.12,13.61,8.71,21.25.34,35.17-3.09-2.55.63-11.6,8.26-8.43,11,3,2.55,13-8.87,12.64-12.38-.52-5.22-11.49-11.85-15.85-13.77-9.07-4-20.87-5.31-30.7-4.46-6.53.57-11.49,2.47-18.14,2.86a99.47,99.47,0,0,0-26.3,5.61c-8.6,3-12.89,5.54-16.15,14C154.65,133.65,150.71,149.36,155.41,144.88ZM174,123.56c5.5-3.31,16.57-2.76,23.2-3.29-9.64,5.11-19.24,14.33-29.13,6.86Z"/><path d="M183.47,203.7c-1.18-8.93-15.18-18.75-21.58-24.77-9.08-8.54-18.36-14.65-30.78-16.65-11.37-1.84-23.43-1.08-34.8.38-6.23.8-21.36-.93-25,4.22-1.56,2.22-1.71,7.72-.55,10.29,2.57,5.72,1.21,4,8.88,3.89,13.63-.21,26.43-.93,40,1.81a156.77,156.77,0,0,1,37.3,13C159.83,197.28,184.24,209.47,183.47,203.7Z"/><path d="M341.33,319.57c-5.73-18.92-6.85-37.55-10.72-56.69-2.16-10.7-6.71-19.46-11.91-28.92-4.91-8.94-5.42-16.7-7.61-26.49-4.28-19.18-19.36-34.63.25-49.56,6.11-4.65,17.48-8.64,21.89-15.07,6.19-9,.33-6.72-5.27-5-16.74,5.14-36.89,6.64-51.65,16.7-8.12,5.54-14.37,11-13.13,21.25,1.15,9.51,6.87,17.87,10.37,26.6,3.71,9.26,5.45,19.32,10,28.26s11.64,14.56,18.2,21.86c-10.87-6.71-40.5-17.77-46,1.92-1.92,6.83,5.06,21.34,4.86,29.7-.24,10.23-5.33,20.5-5.45,30.5-.19,16.06,9,37.84,18.06,51.34,6,8.9,10,18.28,15.42,27.4,6.36,10.8,15.27,15.49,26.28,20.78,9,4.32,18.46,10,28.13,12.65,2.1.57,11.63,3.68,10.68-1.6-.42-2.33-10.75-5.38-12-6-9.44-4.3-19-9.74-27.83-14.67-4.89-2.75-10.6-5.47-13.69-10.47-3.71-6-1.53-6.79-1.55-13,0-11.15-10.25-22.58-13.67-33.25A167.42,167.42,0,0,1,277.63,313c-1.1-11.88.52-23.14,7.35-33.22,5.87-8.66,15.17-13.11,21.75-20.7,11.28,17.62,10.85,42.95,17.34,63,5.5,17,14.67,36.08,28,48.42,5.82,5.38,10,4.51,16.7,6.45a167.34,167.34,0,0,0,22.58,5.08c10.56,1.56,9.89-1.17-.47-4.88-9.38-3.36-20.77-5.82-29.27-11.1-6.84-4.24-4.35-16.2-8.86-22.87A82,82,0,0,1,341.33,319.57Z"/><path d="M253.08,265.38c-8.24-10.11-29.48-13.63-41.63-14.74-19.37-1.77-33.62,8.05-51.56,12.92-18.14,4.92-35.46,8.06-53.16,1.31-6.26-2.39-7-4.57-6.67,2.72.24,5.85,7.54,16.19,11,20.92,3.57,4.89,8.35,12.19,14.86,9.87,5.86-2.09,11.81-13.44,17.36-17.42,12.3-8.8,28.06-10.21,42.65-7.79,15.33,2.54,28.77,9.25,43.63,12.57C241.63,288.42,267.56,283.12,253.08,265.38Z"/><path d="M241.64,313c-1.4,0-8.13-3.63-10-4-6.52-1.35-13.24-.41-19.58,1.31-3.7,1-11.57,6.46-15,6.32-1.51-.06-7-3.66-9.52-4.17-28.82-5.72-28,31.31-23.44,50.37,1.87,7.76,7.51,26.18,15.28,30.2,8.34,4.31-3.27-14-4.33-17.07-3.5-10.14-5.22-26.15,2.37-35,3.9-4.55,10.17-6.11,14.25-10.51,3.73-4,4.28-8.11,9.28-11,3.13,12.62,1,25.8,4.71,38.48,3,10.34,8.24,17.79,14.11,26.35s11.87,20.32,20.69,26.4c11.71,8.06,3.69-2.34-1.59-8.24-16.71-18.67-23.16-35.14-21.1-60.14.89-10.8,2.17-17.4,13.09-22C231.81,319.84,249.73,313,241.64,313Z"/><path d="M365.35,206.52c-5.64-9.37-25.12-40.06-39.64-34.17-8.09,3.28,17.88,29.51,21.42,34.86,9.45,14.27,20,26.5,25.88,42.75a399.08,399.08,0,0,0,22.89,50.75c3,5.64,23.39,47.6,34.89,39.6,5.74-4-3.17-7.94-6.56-10.16-7.47-4.88-12-10.28-15.91-18.4C391.68,277.44,385,239.09,365.35,206.52Z"/></g></svg>