<svg xmlns="http://www.w3.org/2000/svg" viewBox="0 0 500 500"><title>clan-hells-horse</title><g id="Base"><path d="M384.2,53.59H116.35L3.56,249l112.8,195.37H384.2L497,249ZM370.45,420.51H130.11L31.07,249l99-171.54H370.45l99,171.54Z"/><path id="path4140-4-7-6-6-9" d="M193.69,215.31a26.4,26.4,0,0,0-3.33,2.92,2.88,2.88,0,0,0-.67,2.27,3.16,3.16,0,0,0,2,2.08c2.63,1.19,6.53,4.24,7.44,10.67.84,6-.92,15-9,28.1a20.2,20.2,0,0,0-2.69,5.71,20.57,20.57,0,0,0,4-4.88c8.21-13.33,10.15-22.67,9.23-29.15-1-7-5.32-10.52-8.35-11.88-.65-.3-1-.51-1.14-1-.45-1.47,1.82-3.8,2.46-4.88Z"/><path id="path4140-4-7-6-3-5-1-5" d="M149.23,335.59c-2.86.3-4.89,1.69-5.74,3.48a3.74,3.74,0,0,0,.2,3.71,4.15,4.15,0,0,0,3.54,1.86,5.79,5.79,0,0,0,3-.64,12.07,12.07,0,0,0-3-.85,2.87,2.87,0,0,1-2.11-1.43,2,2,0,0,1,.15-1.78c.63-1.33,2.88-2.86,6.76-2.27,5.22.79,8.15,3.66,9.12,5.4.42.76.26,1.15-.18,1.52s-1.13.68-3.62.11a23.9,23.9,0,0,0-3-.47,6.69,6.69,0,0,0,2.2,1.64c2.7.85,3.82,1.09,5.22.38a2.78,2.78,0,0,0,1.43-1.7,3.49,3.49,0,0,0-.17-2.18c-1.09-2.87-4.9-5.8-10.69-6.67a12.31,12.31,0,0,0-3.12-.09Z"/><path id="path4140-4-7-6-3-1-3-5" d="M173.18,280.15c-2.91.07-5.06,2.24-7,4.42s-3.57,4.79-5.45,7.1a4.14,4.14,0,0,1-2.29,1.42,5.43,5.43,0,0,0-2.83,1.62c-2.44,2.94-3.15,7.93-2.89,11.7a23.7,23.7,0,0,0,1.19,4.66,22.87,22.87,0,0,0,.51-4.78c-.24-3.41.6-8.2,2.5-10.49a3.77,3.77,0,0,1,2-1.08,6.08,6.08,0,0,0,3.09-2c2-2.41,3.64-5,5.42-7.06s3.21-3.66,5.84-4c.57-.08,2.32-.67,4.44-1.27C175.42,280.2,173.89,280.14,173.18,280.15Z"/><path id="path4140-4-7-6-3-7-8-6" d="M171.48,292.53a16,16,0,0,0-2.48,2.35,3.55,3.55,0,0,1-2.92,1.87,12.48,12.48,0,0,1-3.48-.5,5.07,5.07,0,0,0-3.71.12c-1.19.67-1.87,2.13-2.1,4.56a12.56,12.56,0,0,0,.46,3.56,19.87,19.87,0,0,0,1.24-3.4c.22-2.19.74-3,1.23-3.23a4,4,0,0,1,2.5.06,13.06,13.06,0,0,0,4,.53,5.51,5.51,0,0,0,4.2-2.61,10.14,10.14,0,0,0,1.06-3.31Z"/><path d="M367.64,82.28H132.91L36.67,249l96.24,166.69H367.64L463.88,249ZM364.27,409.8h-228L43.43,249,136.29,88.13h228L457.13,249Z"/><path d="M402.38,211.66a14.29,14.29,0,0,0-11.47-5.59l-2.42.05,2,1.32c4.47,2.93,5.92,7,5,9.56-.79,2.27-3.3,3.39-6.88,3.07-4.15-.37-8.55-3.86-13.21-7.55-4-3.19-8.59-6.82-13.7-9-18.05-7.64-21.72-6-32.61-1.26-1.49.65-3.17,1.39-5,2.16-3.2,1.33-5.43.35-6.22-1.21-.71-1.39-.38-3.44,2-4.88,3.57-2.19,8.68-3.36,14.61-4.71,9.29-2.12,19.81-4.51,27.9-11.79,8.94-8,13.61-16,13.87-23.74.19-5.6-2-10.8-6.51-15.43l-4.27-4.39,3.08,5.29c2.35,4,2,8.88-.9,13.63-5.62,9.13-21.74,18.36-43.83,17a85.63,85.63,0,0,1-30.6-6.37c-10-3.79-18-6.79-40.87-1.36-2.5.59-3.93.24-4.19-.34-.19-.41.15-1.2,1.14-1.9,9.3-6.63,20.12-8.35,35.09-10.73,6.31-1,13.47-2.14,21.41-3.82,9.27-2,28.41-8.9,34.47-21.1a16.5,16.5,0,0,0,0-15L339,111l-.22,2.82c-.64,8.26-6.86,11.25-14.92,14.31-7.8,3-17.76,2.94-29.29,2.91-11.24,0-24,0-37.53,2.71-16.64,3.38-29.1,14.14-38.1,23.14a4.56,4.56,0,0,1-3.79,1.35,5.54,5.54,0,0,1-4-2.38c-1.43-2.17-.35-6,1.55-8.16,10.67-12.27,15.43-23,14.14-31.85-.92-6.33-4.91-11.78-11.86-16.19l-2.15-1.37,1.07,2.32c4.31,9.33,2.15,19.19-6.24,28.51-3,3.37-7,6.34-11.3,9.5A123.63,123.63,0,0,0,186,147c-6.36,5.86-11.74,12.56-16.95,19l-2,2.48c-9-6.18-15.38-11.26-22.2-13.12a20.28,20.28,0,0,0-7.05-.67h0a26.07,26.07,0,0,0-7.88,2c-5.65,2.33-12.25,6.73-20.69,13.81a3.24,3.24,0,0,0-1.1,1.42,1.19,1.19,0,0,0,0,.76,1.11,1.11,0,0,0,.5.58,2.61,2.61,0,0,0,1.68.18,9.91,9.91,0,0,0,2.47-.76c1.35-.58,2.73-1.23,4.11-1.91a.78.78,0,0,0,.34.06,204,204,0,0,1,32.42,0h.14a110.31,110.31,0,0,0,9.64,8.59,91.67,91.67,0,0,0-8.26,4.35.74.74,0,0,0-.18-.1c-18-6.89-39.15,6.22-51.15,21.32a6.92,6.92,0,0,1-3.33,2.45c-.29.12-.57.23-.85.37a2.3,2.3,0,0,0-1.06,2.77,1.66,1.66,0,0,0,1.65,1,4.47,4.47,0,0,0,1.55-.33l.37-.14c8.42-3.17,20.89-7.86,31-9-1.24,1.47-2.4,3-3.45,4.47-7.7,11-8.15,19-8.59,26.73a66.14,66.14,0,0,1-.92,8.92,19.17,19.17,0,0,1-.77,2.47,16.68,16.68,0,0,0-1.35,6.1,11.67,11.67,0,0,0,1.05,3.74,11.11,11.11,0,0,1,1.15,5.46c-4.35,41.61-.23,71.88,13,95.26,4.67,8.28,9.67,10.76,17.82,8.83,1.84-.43,5.53,0,6.59,1.3,2.51,3.14,8.23,3.41,14.95.71,9.08-3.66,14.37-7.79,15.73-12.29a10.26,10.26,0,0,0,.32-1.78c.19-1.63.28-2.37,2.52-2.37,3.28,0,5-4.5,6.43-8.12.23-.59.44-1.15.65-1.64,2.51-6,3-8.51,2.08-16.16-.34-2.79-.91-5.8-1.47-8.71-1.73-9.12-3.52-18.55,1.49-22.16l8.43-6.06a35.08,35.08,0,0,1,6.92,15.43c2.19,11.23-.3,23.16-7.38,35.46-1.46,2.54-3.11,5.33-4.86,8.29-10.59,17.94-23.77,40.28-23.1,51.49l.16,2.69,1.25-2.39c7.15-13.62,32.88-22.78,60.13-32.47,31.48-11.2,67.15-23.9,83-46.33,1.76-2.48,2.28-3.7,2.2-6.6a11,11,0,0,0,3.68-1.57c1.54-.87,3.12-1.77,4.5-1.56,11.8,1.83,17.38-1.53,22.55-7.56,4-4.72,5.25-9.52,6.31-13.76.85-3.39,1.58-6.33,3.67-8.19,4.48-4,6.58-3.24,10.06-2l1.3.47,2,.7-1.15-1.81c-1.63-2.57-5-5.63-9.27-5.81s-8.5,2.48-12.58,7.9c-5.6,7.43-9.79,11-12.83,11-1.34,0-2.52-.8-3.61-2.36-2.37-3.41-1.31-6.36,3.91-10.86,2.85-2.46,5.67-3.34,8.66-4.28,3.92-1.23,8-2.5,12.11-7.41,2.65-3.15,2.34-8.1,2.08-12.46-.22-3.58-.43-7,1-8.43A5.83,5.83,0,0,1,370,242.5c1.65.12,3.2,1.14,4.61,3l2.39,3.22-1.06-3.87c-1.11-4-2.36-7.79-5.53-9.57-2.34-1.31-5.42-1.4-9.42-.26-6.12,1.75-7.35,8-8.33,13a26.12,26.12,0,0,1-1.1,4.39c-1.25,3.07-3.12,4.93-5.55,5.54-3.5.87-7.37-1-9.82-3.07-3.35-2.81-4.27-8.48-2.33-14.45A23.85,23.85,0,0,1,355,224.16c7.5-.52,13.78,2.66,19.85,5.74,5.22,2.65,10.16,5.15,15.52,5.15h.07c6.37,0,10.93-3,12.84-8.31C406,219.13,404.31,214.34,402.38,211.66ZM120.23,169.15c4.39-2.12,8.81-4.1,12.91-4.56,7.28-.81,10.76,1,14.67,4.45l.26.23A193.66,193.66,0,0,0,120.23,169.15Zm-10.86,36.31c-4.28,1.44-8.33,3-11.72,4.23l-.37.14c-.89.33-1.27.23-1.3.16a.86.86,0,0,1,.36-.82c.21-.11.45-.2.72-.31a8.42,8.42,0,0,0,4-2.91c11.47-14.43,31.42-27,48.54-21.17-2.37,1.47-4.67,3-6.88,4.7a.74.74,0,0,0-.28-.24c-7.15-3.5-26.73,6.95-31.73,13C109.65,203.51,109.22,204.58,109.37,205.46Zm1.49-.49a4,4,0,0,1,1-1.76c4.56-5.55,22.8-15.45,29.57-12.75a83.35,83.35,0,0,0-10.83,10C124.5,200.94,117.45,202.82,110.86,205ZM319.7,318.1c-4.69,6.63-11.18,12.41-18.81,17.55a35.5,35.5,0,0,0,.7-8.38,122.45,122.45,0,0,0-1.5-16.79,222.5,222.5,0,0,0-11.87-44.76c-11.53-30.28-31-60.33-60.07-68.51a20,20,0,0,0-6.63-1,24,24,0,0,0,6.37,2.53c28.26,8,47.44,37.52,58.86,67.51a221.08,221.08,0,0,1,11.79,44.43A121.1,121.1,0,0,1,300,327.27c0,4.5-.42,7.87-1.16,9.51a.88.88,0,0,0-.07.24c-17.49,11.23-40.39,19.38-61.4,26.86-9.62,3.42-18.79,6.69-27,10.05.57-10.89,6.81-20.49,13.27-32.5,6.24-11.61,12.67-25.46,13.91-44.86a25.88,25.88,0,0,0-.42-5.47,24.64,24.64,0,0,0-1.16,5.61c-1.31,19-7.54,32.48-13.71,44-6.51,12.11-13,22-13.48,33.63a.87.87,0,0,0,0,.26c-14.15,5.89-25.32,12.11-30.85,20,1.39-11.59,13.64-32.35,22.79-47.84,1.75-3,3.4-5.76,4.86-8.3,7.27-12.63,9.81-24.9,7.56-36.5-1.88-9.63-6.4-15.17-7.51-16.4C221,269.9,225.71,255,225.83,243.15a41.81,41.81,0,0,0-2.66-15.6,27.57,27.57,0,0,0-5.46-8.66,83.2,83.2,0,0,1,4,9.22,41.4,41.4,0,0,1,2.56,15c-.13,11.94-5.06,27.3-21.93,43.5a.88.88,0,0,0-.15.19l-6.72,4.83c-5.79,4.16-3.91,14.07-2.09,23.65.55,2.89,1.11,5.87,1.45,8.62.92,7.46.41,9.71-2,15.39-.21.51-.43,1.08-.67,1.68-1.17,3-2.78,7.16-5,7.16a4.53,4.53,0,0,0-2.7.67L182,304.93c-4.91,12.45-2.59,27.71,2.39,44a4,4,0,0,0-1.24,3,9,9,0,0,1-.27,1.53c-1.22,4-6.22,7.85-14.85,11.33-6,2.41-11.17,2.31-13.21-.25-1.53-1.92-5.83-2.36-8.11-1.83-7.46,1.76-11.85-.44-16.17-8.11-13-23.1-17.08-53.08-12.77-94.37a12.48,12.48,0,0,0-1.25-6.18,10.65,10.65,0,0,1-.94-3.25,15.63,15.63,0,0,1,1.27-5.53,20,20,0,0,0,.83-2.7,68.29,68.29,0,0,0,.94-9.11c.43-7.52.87-15.29,8.32-26a62.58,62.58,0,0,1,4.41-5.57.75.75,0,0,0,.41-.47,89.53,89.53,0,0,1,29-20.93c1.13.83,2.34,1.66,3.65,2.51,5.62,3.61,13.5,9.37,25.65,8.65a33,33,0,0,0,3.83-.61,15.19,15.19,0,0,0-3.89-.39c-11.81.7-19.38-4.85-25-8.49a88.23,88.23,0,0,1-14.55-12,.75.75,0,0,0-.7-.73h-.09c-.4-.37-.8-.74-1.19-1.08-4-3.52-8-5.52-15.44-4.68-5,.56-10.35,3.22-15.43,5.71l-.45,0a.75.75,0,0,0-.66.52c-1.39.68-2.76,1.33-4.09,1.9a9,9,0,0,1-2.21.68,2,2,0,0,1-1.05-.06c-.06,0-.05,0-.05,0a.22.22,0,0,1,0-.13,2.58,2.58,0,0,1,.79-1c8.4-7.05,14.93-11.39,20.43-13.66s9.93-2.48,14.28-1.29c8.7,2.37,17.11,10.54,31.91,19.5a20.18,20.18,0,0,0,2.88,1.21A22.32,22.32,0,0,0,177,175c-2.7-1.63-5.18-3.24-7.49-4.8,8.2,1.91,15.81,3.9,21.38,6.27a23,23,0,0,1,7.07,4.29,5.66,5.66,0,0,1,2,5,13.15,13.15,0,0,0,.12,2.35,9.52,9.52,0,0,0,.87-2.2,6.76,6.76,0,0,0-2.26-5.9,23.76,23.76,0,0,0-7.38-4.5c-.88-.38-1.82-.74-2.79-1.1a122.26,122.26,0,0,1,66.57,15.69c28.24,15.94,62.69,50,66.44,121.56l0,.61h.08C321.71,314.95,321.3,315.84,319.7,318.1Zm82.22-91.88c-2.16,6-7.41,7.3-11.44,7.32h-.07c-5,0-9.78-2.42-14.84-5-6.26-3.17-12.73-6.44-20.64-5.9A25.35,25.35,0,0,0,332.43,240c-2.13,6.55-1,12.86,2.79,16.07,2.73,2.29,7.1,4.38,11.14,3.38,2.92-.72,5.13-2.88,6.58-6.43a27,27,0,0,0,1.18-4.67c1-4.87,2-10.38,7.27-11.88,3.59-1,6.3-1,8.27.12s3.07,3.19,3.94,5.74a6.58,6.58,0,0,0-3.5-1.37,7.32,7.32,0,0,0-5.62,2.33c-1.94,1.94-1.71,5.65-1.47,9.58.26,4.29.53,8.72-1.73,11.4-3.85,4.58-7.52,5.73-11.41,6.95-3,.94-6.11,1.91-9.19,4.57-4.25,3.67-7.7,7.76-4.16,12.85,1.36,2,3,3,4.81,3h.1c3.58,0,8-3.68,14-11.56,3.76-5,7.56-7.45,11.32-7.3a9.89,9.89,0,0,1,6.45,3.1c-3.06-1-5.81-1.39-10.36,2.68-2.42,2.17-3.21,5.31-4.12,8.94-1,4.08-2.18,8.7-6,13.15-4.83,5.64-10.06,8.78-21.18,7.05-1.89-.29-3.71.74-5.47,1.74a10.89,10.89,0,0,1-3,1.36c-1.61-35.54-11.9-66.56-29.82-89.77-21.18-27.44-50.4-44-84.48-47.8a133.11,133.11,0,0,0-20.25-.63l-1.66.05c-1.1,0-1.76,0-2.14.42-4.81-1.51-10.34-2.88-16.11-4.21l1.61-2c5.17-6.43,10.52-13.09,16.8-18.87a122.4,122.4,0,0,1,10.27-8.2c4.31-3.2,8.39-6.22,11.52-9.7,8.14-9,10.68-18.6,7.44-27.8,5.31,3.9,8.38,8.51,9.15,13.75,1.22,8.41-3.42,18.73-13.79,30.65-2.31,2.65-3.56,7.11-1.68,10a7.07,7.07,0,0,0,5.09,3,6.07,6.07,0,0,0,5-1.78c8.85-8.85,21.09-19.43,37.34-22.73,13.41-2.73,26.07-2.7,37.23-2.68,11.68,0,21.77,0,29.82-3,6.06-2.3,13.46-5.1,15.44-12.83a14.69,14.69,0,0,1-.92,11.2c-5.38,10.84-22.94,18.08-33.44,20.3-7.9,1.67-15,2.81-21.33,3.81-15.17,2.41-26.13,4.15-35.72,11-1.53,1.09-2.17,2.56-1.63,3.74.32.7,1.53,2.22,5.9,1.18,22.44-5.32,30.19-2.4,40,1.31a86.91,86.91,0,0,0,31.05,6.46c22.82,1.38,39.14-7.91,45.18-17.73a15.58,15.58,0,0,0,2.49-10.93,18.06,18.06,0,0,1,3.33,11c-.24,7.18-4.86,15-13.37,22.67-7.8,7-18.12,9.37-27.23,11.45-5.8,1.32-11.28,2.57-15.06,4.89-3.14,1.93-3.5,4.9-2.51,6.84,1.11,2.17,4.05,3.61,8.13,1.91,1.87-.78,3.56-1.52,5.06-2.17,10.73-4.7,14-6.12,31.42,1.27,4.92,2.08,9.21,5.48,13.35,8.77,4.84,3.84,9.41,7.46,14,7.87,4.33.39,7.4-1.09,8.43-4.07s-.38-6.81-3.57-9.71a12.52,12.52,0,0,1,7.76,4.75C403.63,216,403.89,220.69,401.91,226.22Z"/><path d="M183.86,196.71h0a79.79,79.79,0,0,0-11.28-.16l.53-.62-2.15.44a9.72,9.72,0,0,0-1.5.44c-11.41,1.24-20,5.36-26.43,11.46a26.48,26.48,0,0,1-1.11-5.79l-.17-2.61-1.24,2.3a15.81,15.81,0,0,0-1.35,10.39,44.51,44.51,0,0,0-2.89,4.15,3.11,3.11,0,0,0-.33-.47,7.32,7.32,0,0,0-3.47-1.67l-.86-.17,0,.87c0,.32.07.76,1.26,2,.3.3.41.7.74,2l.06.23c.1.41.23.83.38,1.28-4.11,8.32-6.22,18.12-7.05,28.37-2.41,29.76,5.89,63.51,8,76.45a3.83,3.83,0,0,0,2.21,3.27,5.66,5.66,0,0,0,3.68-.25c3.43-1.11,7.22-2.28,11.39-1.44s8.81,3.67,13.93,10.92a12.9,12.9,0,0,0,2.64,2.36,14.48,14.48,0,0,0-1.36-3.27c-5.27-7.45-10.28-10.62-14.9-11.55s-8.73.37-12.18,1.49a4.59,4.59,0,0,1-2.66.27c-.56-.2-1-.65-1.2-2-2.1-13.16-10.32-46.71-7.94-76.08.76-9.37,2.61-18.28,6-26a27.27,27.27,0,0,1-.26,7.08c-1.34,9.46-.8,15.55,2.16,24.19,2.35,5.74,8.54,15.59,16.94,16.16h.32c4.75,0,8.73-2.43,11.83-7.22,7.76-11,7.47-21.37,6.29-33.77a45.1,45.1,0,0,1-.06-5.65c0-1,.06-2,.06-3a7.5,7.5,0,0,1,1.76-4.51c.17-.23.35-.44.53-.67,1.22-1.47,2.75-3.3,2.17-9.72l-.4-4.46-1.07,4.35c-1.49,6-2.35,7.39-6.14,9.58a2,2,0,0,1-.42.19,1,1,0,0,1-.17-.41c-1.6-6.29-.44-12.65,3.09-17.2a77,77,0,0,1,12.54.06,29,29,0,0,0,5.1-.33A38.38,38.38,0,0,0,183.86,196.71Zm-44.28,18,.05.23a7.32,7.32,0,0,1,.26,3.17c-.16.69-.31,1.1-.61,1.17-.76.16-1.3.08-2.11-.84l0-.06a44,44,0,0,1,2.44-3.72Zm27.06,1.09a1.93,1.93,0,0,0,1,1.42,2,2,0,0,0,1.77-.27c2.75-1.59,4.16-2.85,5.25-5.37a6.81,6.81,0,0,1-1.71,3.37c-.21.25-.4.49-.59.74a8.88,8.88,0,0,0-2,5.4c0,1,0,2-.06,3a46.23,46.23,0,0,0,.06,5.84c1.15,12.09,1.44,22.17-6,32.78-2.88,4.45-6.54,6.68-10.84,6.56-7.64-.52-13.55-10.19-15.6-15.19-2.9-8.45-3.4-14.15-2.08-23.45a29.93,29.93,0,0,0,.13-8.88v-.1l0-.09a21.17,21.17,0,0,1-.79-2.4l-.06-.23a10.71,10.71,0,0,0-.62-2,2,2,0,0,1,.39.29,4.05,4.05,0,0,1,.49.9,5,5,0,0,0,.75,1.29,3.38,3.38,0,0,0,3.55,1.31c1.28-.27,1.59-1.59,1.76-2.29a8.54,8.54,0,0,0-.26-3.84l-.05-.22c-.81-3.62-.9-6.43-.24-8.88a52.31,52.31,0,0,0,2.5,8.22l.28.67c.59,1.34,1.21,2.72,3,3a4.47,4.47,0,0,0,3.52-1.54c2.79-2.87,4.9-5,6.18-9.58a14.78,14.78,0,0,1,.19,7.69,3.2,3.2,0,0,1-.23.57,2.23,2.23,0,0,0-.22,2c.44.94,1.58.8,2.23.72,3-.37,5.26-3.56,5.7-6.44,0-.33.09-.69.13-1.07.43-3.65,1.06-8.9,4.91-11.1A21.8,21.8,0,0,0,166.65,215.78Zm-4-6.18c0,.37-.09.73-.13,1-.35,2.26-2.13,4.88-4.44,5.17a3.79,3.79,0,0,1-.66,0,1.83,1.83,0,0,1,.23-.64,4.39,4.39,0,0,0,.34-.86c.74-3,.8-7.42-1.24-10.73l-1-1.64-.37,1.89c-1.1,5.64-3.17,7.76-6.29,11a3.06,3.06,0,0,1-2.19,1.1c-1-.17-1.34-.86-1.92-2.16l-.15-.35-.08-.23c-.39-1.07-.78-2.15-1.15-3.24,5.59-5.58,13-9.54,22.86-11.16C163.56,201.72,163,206.43,162.62,209.6Z"/><path d="M156.12,239.56c-.51-2.46-.75-3.53-1.64-4.59s-1.33-3.73-1.32-5.38,1.55-2.64,1.48-3.66c-.16-2.57-1.13-2.8-1.73-3.87h0a12.12,12.12,0,0,1-.11,4.27c-.61,1.89-2,2.15-3.08,4.15-2.12,4-.82,13.71-.06,18.5.63,3.94,4.8,8.89,6.5,9.72.45.22.06-1.08-.57-3s.61-3.59.9-5.09C157,247.89,156.35,240.62,156.12,239.56Zm-2.52,14.07c-.49,0-2-4-2.9-8a48,48,0,0,1-.95-8c0-1.8.59-5.77,2-5.77.86,0,.56,1.13.56,2h0c0,.45.8,1.88,1.19,3.33a29.38,29.38,0,0,1,1.21,6.85C154.86,248.5,154.18,253.63,153.61,253.63Z"/></g></svg>