<svg xmlns="http://www.w3.org/2000/svg" viewBox="0 0 500 500"><title>clan-ice-hellion</title><g id="Base"><path d="M250.14,301s2.44,4.53,5.05,6.27,2.79,4.18,4.7,3,5.57-8.53,5.92-6.27a44.08,44.08,0,0,0,1.39,7.49c1,3.66,2.09,7.66,2.09,7.66s-11.15,2.26-15.41-4S248.4,303.94,250.14,301Z"/><path d="M251,276.42l8.33,12.37s13.45-13.41,12.23-10.28-3.13,8.53-2.26,12,.85,7.49,2.34,7.84-.08,3.13-6.52,2.61-13.76-2.79-14.11-7S248,276.77,251,276.42Z"/><path d="M272.16,303.42s3.58,8.58,6.54,6.82,7.31-10.3,8.53-8.38-1.92,6.62-1,10.62,4.7,6.44,2.61,7.84-13.41,1.49-15-.82S269.62,303.77,272.16,303.42Z"/><path d="M271.1,262.66s2.37-4,5-5.57,4.53-4,5.05-2.61-4,4.7-3.31,9.23,3,6.62.17,8.19-10.8,6.62-13.93,5.75-8.88-3.48-5.75-4.35,6.62-.35,7.66-3.83S271.1,262.66,271.1,262.66Z"/><path d="M266.51,242.46c1-1.57,2.57-6.1,4.59-5.4s12.73,9.06,10.08,10.45-13.8,5.57-14.67,2.79S266.51,242.46,266.51,242.46Z"/><path d="M285.15,283.91c3.95-3.17,15-11,13.76-8.36s-4.35,5.22-4.53,10.45,3.66,9.93-.35,11.15-9.53,4.18-12.43,3S270,290.7,273,290s9.06,3.31,10.28.17S282.91,285.71,285.15,283.91Z"/><path d="M289.78,274.12a6.09,6.09,0,0,1-4.05-1.06,1.31,1.31,0,0,1,1.72-2c1.45,1.27,9.82-.56,12.57-1.16,4.28-.94,4.58-2,5.37-4.76l.24-.84a22.41,22.41,0,0,0-3.44.66,24.84,24.84,0,0,1-5.38.9c-4.84,0-8.2-1.37-10.59-4.31a3.8,3.8,0,0,1-.88-3.14c.43-2.4,3.11-4,3.41-4.21a1.31,1.31,0,0,1,1.33,2.25h0c-.5.3-2,1.39-2.17,2.43a1.18,1.18,0,0,0,.33,1c1.88,2.32,4.52,3.35,8.57,3.35a23.18,23.18,0,0,0,4.76-.82c2.92-.7,5-1.21,6.18,0a2.39,2.39,0,0,1,.41,2.49c-.1.32-.18.63-.27.92-.94,3.3-1.79,5.38-7.32,6.59A56.21,56.21,0,0,1,289.78,274.12Z"/><path d="M307,306s8.25-9.58,7.56-6.62-4.18,8.24-3,10.82,5.22,5.2,2.09,6.42-11.32,8.19-16,5.4-7.49-6.1-5.22-7.49,7.84-1.2,8.88-3.13S307,306,307,306Z"/><path d="M324.17,318.5a13.45,13.45,0,0,1-4.1-.62,1.31,1.31,0,1,1,.86-2.47,11,11,0,0,0,6.3,0c2.45-.82,5.08-3.59,7-5.61.67-.71,1.26-1.32,1.76-1.78.8-.73.89-1.78.93-3.42a11.63,11.63,0,0,1,.25-2.55,3.13,3.13,0,0,1,1.45-2,4.68,4.68,0,0,1,3.29-.34,1.31,1.31,0,0,1-.67,2.53,2.72,2.72,0,0,0-.93,0c-.47.07-.55.26-.61.49a9.63,9.63,0,0,0-.17,2c0,1.67-.09,3.75-1.78,5.29-.43.39-1,1-1.62,1.65-2.11,2.22-5,5.26-8.07,6.29A12.31,12.31,0,0,1,324.17,318.5Z"/><path d="M308.82,298A7.42,7.42,0,0,1,303,295.4a1.31,1.31,0,1,1,2-1.72c2.48,2.84,5.9,1.78,10.1.1l1.17-.46C319,292.25,325,287,327.1,285a1.31,1.31,0,1,1,1.78,1.91c-.32.3-7.89,7.33-11.75,8.8l-1.13.44A20.08,20.08,0,0,1,308.82,298Z"/><path d="M485.78,263.82a233.16,233.16,0,0,0-307-221c-.46-12.33,5.39-33.1,5.45-33.32l0-.24c.09-1,.35-4-1.75-4.9-3.94-1.58-11.72,7.4-27.32,26.82l-.95,1.18c-9.49,11.81-11,20.72-11.21,25.85A233,233,0,0,0,57.87,391.68c-4,3.38-8.13,6.3-11.49,8.7-3.77,2.69-6.49,4.63-7.59,6.09a4.51,4.51,0,0,0-.85,3.7c.78,3.79,6,6.93,6.7,7.34.89.56,24.8,15.63,41.21,22l2.27.89c7.11,2.8,7.24,2.83,14.58,2.78H104A232.87,232.87,0,0,0,372.15,464l.2.17a9,9,0,0,0,3.53,2l1.58.6a17,17,0,0,0,7.74,1.4h.56c16.24,0,27.6-2,33.76-6,9.35-6,14.33-9.45,16.4-16.4l.56-1.87c1.83-6,3.73-12.23,2.07-19.19A38.87,38.87,0,0,0,433,411.56a232.19,232.19,0,0,0,52.8-147.73ZM160.65,28.57c4.07-5,8.12-10,11.76-14,6.79-7.48,8.76-7.86,9.13-7.84a4.06,4.06,0,0,1,.17,2.12c-.6,2.13-7,25.42-5.22,37.27,1.77,11.64,4.73,31.13,24.33,53.95C220,122.47,231.54,135,241.05,141.34c9.24,6.16,101.14,60.38,106.77,63.7a12.77,12.77,0,0,0,4.58,3,52.34,52.34,0,0,1-4,5.6c-2.57,3-11.15,12.1-14.1,14.93-6.07-3.2-44.56-23.58-66.23-37.4C242.15,174.62,209,151.25,182.2,117,168,98.75,162.87,75.62,161.1,59.42A159.65,159.65,0,0,1,160.65,28.57Zm253,377.35c-4.29,0-5.64.6-6.2,1.52-1.06,1.77-2.69,5-1.86,7.1a216.49,216.49,0,0,1-18.68,16.87,13.71,13.71,0,0,0-3.27-1.54,17.47,17.47,0,0,1-2.66-1.13c-1.35-.72-1.4-.77-1.67-1.07a18.57,18.57,0,0,0-1.95-1.76c-1.27-1-2.84-2.07-4.36-3.07a28.42,28.42,0,0,1-4.37-3.23c-1.42-1.57-2.48-2.58-4.25-4.24l-.75-.71c-2.08-2-9.26-12.55-9.78-13.57a5.81,5.81,0,0,0-.79-1.19,15.48,15.48,0,0,1-1-1.3A143.88,143.88,0,1,0,241.41,138.41c-9.06-6.4-20.29-18.69-38.61-40-12.15-14.14-17.74-27-20.65-37.37a213.79,213.79,0,0,1,70.6-11.93c118.41,0,214.75,96.33,214.75,214.75A213.85,213.85,0,0,1,413.61,405.92Zm2.07,20.83q-3.65,3.65-7.45,7.12c-4.69.84-10.07,1.11-12.88.65a8.8,8.8,0,0,0-2.77-.11c-.39,0-.52.06-1.56-.46s-1.45-.73-1.81-.94a219.74,219.74,0,0,0,17.24-15.49c.43-.43.85-.87,1.27-1.3a13.29,13.29,0,0,0,3.7-.14c2.12-.27,4.31-.54,5.1.62a17.51,17.51,0,0,1,3,6.09C418.27,424.12,417,425.45,415.68,426.76ZM367.29,460c1.88-2.4,5.79-7.48,8.81-11.62,3.34-4.58,4.8-12.84,5.31-16.5.49.19.92.35,1.33.5a11.83,11.83,0,0,1,2.17.93,77.86,77.86,0,0,1-5.56,14.47A151.56,151.56,0,0,1,371,461,28.57,28.57,0,0,1,367.29,460ZM255.9,421c.13-1.55,1.36-12.61,10.21-30.12a142.52,142.52,0,0,0,29.09,8.61l1.89,4.43a65.46,65.46,0,0,0,4.27,9.6c.47.78.82,1.38,1.11,1.89a34.56,34.56,0,0,0,3.33,4.86c.8,1,1.28,1.69,1.7,2.28a32.82,32.82,0,0,0,3.43,4.08c1.2,1.27,2.22,2.54,3.29,3.88a73.22,73.22,0,0,0,5.79,6.59c1.78,1.78,3.23,3.38,4.52,4.8a25.13,25.13,0,0,0,4.44,4.28,21.19,21.19,0,0,0,2.11,1.08,24.12,24.12,0,0,1,3.92,2.19,83.31,83.31,0,0,0,13.23,6.72,214.36,214.36,0,0,1-211.9-12c3.51.19,7.36.42,11.58.69,6.33.41,12.45.59,18.33.59,53,0,87-14.91,87.32-15.08C257.54,428.55,256.22,422.29,255.9,421Zm151.51-62.5a2,2,0,0,0,1.4,2c.71.17,2.57.63,9-9.89C419.32,349.16,429.25,338,432,295c2.56-40.5-18.5-67-31.08-82.84-1.72-2.16-3.34-4.2-4.71-6C389,196.49,368.35,183,359.8,177.61c-10.86-6.82-28.31-16.84-32-16.45a2,2,0,0,0-1.94,1.4c-.5,1.89,1.89,3.69,9.51,9.12,4.59,3.27,9.8,7,13.07,10.25,7.11,7.11,6.47,14.92,6,21.2l-.06.76c-.08,1-.35,1.59-.57,1.67-.74.28-2.85-1.09-4.26-2.49l-.12-.11-.14-.08c-.89-.53-82.75-48.81-103-61.32a137.8,137.8,0,0,1,75.16-22.2c76.44,0,138.64,62.19,138.64,138.64,0,66.93-47.68,122.92-110.85,135.82-2-3.53-4.6-8.27-5.08-10.21a21.44,21.44,0,0,0-1.5-4,19.38,19.38,0,0,1-1.13-2.83c-.39-1.37-3.68-13.08-4.26-19.26l.6-.38c2.2-1.47,4.89-2.94,7.74-4.48,6.13-3.34,13.08-7.13,17.85-12.45,1.6-1.78,3.36-3.7,5.24-5.74,5.68-6.17,11.54-12.53,13.67-16.16,8,1,14.21,3.8,18.46,8.41,8.46,9.17,7.26,23.14,6.75,29.11A22.67,22.67,0,0,0,407.41,358.48ZM334.4,415c-7.21,4.12-19,8.17-22.13,9.21a27.22,27.22,0,0,1-2.64-3.21l-.53-.72c4.69-1.1,16.5-4.19,24.54-9.13a123.68,123.68,0,0,0,15.9-11.63,19.07,19.07,0,0,0,1.42,2C348.67,403.84,341.3,411,334.4,415Zm28.35,2.46c1.28,1.21,2.19,2.07,3.16,3.09-1.17,1.39-4.27,4.74-11.52,11.14-8.6,7.6-16.33,13.36-18.67,15.07a27,27,0,0,0-3.52-1.89l-.06,0c3.19-2.37,10.27-7.75,16.51-13.47C355.16,425.4,360.66,419.67,362.74,417.46Zm-65.23-19.23-.84-2a105.44,105.44,0,0,0,23.23-7,182.63,182.63,0,0,0,19.67-10.19c.23.56.47,1.09.71,1.61.15.33.3.65.44,1a174.5,174.5,0,0,1-18.38,9.55C315.06,394.3,301.37,397.39,297.51,398.23Zm69.25-65.54c-1.88,2-3.65,4-5.26,5.76-4.47,5-11.21,8.66-17.16,11.9-2.89,1.58-5.63,3.07-7.94,4.61-6.71,4.47-38.78,17.1-48.05,20.5a51.26,51.26,0,0,1-15,2.51c15.29-24.12,36.82-39,37-39.12l.13-.1c.23-.2,23.68-20.58,64.46-20.83q2.28,0,4.4.13C377,321.55,371.61,327.42,366.76,332.69Zm-80,46,6,14.91a137.52,137.52,0,0,1-24.15-7.49c1-1.79,2-3.63,3.17-5.53A59.62,59.62,0,0,0,286.73,378.72Zm66,76.44c-1-.41-2.1-.88-3.43-1.41a89.54,89.54,0,0,1-11.21-5.48c3.05-2.26,10.19-7.68,18-14.62a125.38,125.38,0,0,0,11.65-11.27c1,.83,2.36,1.71,3.76,2.63,1.19.78,2.41,1.59,3.45,2.38-.9,2.79-3.81,11.7-6,17.16s-9,11.08-10.9,12.62A52.18,52.18,0,0,1,352.7,455.16Zm18.74-9.63c2-5,4.53-12.74,5.68-16.3l.25.26a5.24,5.24,0,0,0,1.56,1.14c-.35,2.79-1.69,11.72-4.94,16.19S366.31,457,364.74,459a26.06,26.06,0,0,0-2.66-.74l-.88-.21C364.15,455.51,369.48,450.49,371.44,445.52ZM351.82,252.67c-2.08.56-8.11.91-17.78.19-10-.75-18.78-2.27-21.93-3.79-20.59-9.94-27.66-17.66-30-22.38A109.41,109.41,0,0,1,276.41,213c1.85.08,5.55.79,10.88,4.34,3.2,2.14,12.89,7.14,24.11,12.93C326.1,237.88,347.83,249.1,351.82,252.67ZM145.38,67.28V67.1s0-1.57.26-4.59c0-.48,0-1,0-1.72a31.41,31.41,0,0,1,2-12.15c.26,14.51,2.7,51.66,19.94,75.15,18.26,24.85,64,65.7,81.19,81.08,3.36,3,5.79,5.18,6.75,6.09a56.35,56.35,0,0,0,5.54,4.6c2.81,2.11,4.51,3.39,5.9,6.94a31.25,31.25,0,0,1,2,7.36,6,6,0,0,0-3.07,1,8.57,8.57,0,0,0-3.8,6.24c-7.56-4.06-34.21-24.21-57.06-44.77-22.38-20.14-48.24-60.17-50.09-63-.48-1.8-1.55-4.56-2.91-8-3.64-9.3-9.12-23.36-8.75-33.72.51-14.24,2-20,2-20.08ZM94.49,334.79c-4.53,15.93-8.92,21.63-14,28.23a92.34,92.34,0,0,0-8.62,12.78q-.53,1-1.12,1.9A213.46,213.46,0,0,1,38,263.82C38,186.31,79.3,118.26,141,80.5c-.14,2-.27,4.35-.36,6.93-.39,10.9,5.22,25.26,8.93,34.76,1.37,3.52,2.46,6.29,2.86,7.93.91,3.65-1.85,7.15-3.71,9-1.2-4.9-4.34-16.85-7.73-22.78-.65-1.15-1.88-3.29-3.56-2.7-.71.25-2.34.82-1,10,0,2,.18,25.41,5.59,38,6.69,15.61,13.49,33,14,36.82-1.17-.44-4-2.29-9.27-7.19-4.5-4.22-21.86-12.73-35.73-17.52-14.15-4.89-36.56-5.48-40.56-3a2.27,2.27,0,0,0-1.29,2.34c.33,2.19,4.68,3.77,8.32,4.71,1.79.85,24.29,11.69,31.1,19s37.93,33.31,43.86,38.26l-3,4.17c-2.56-2-9.44-7.5-17.37-15-7.3-6.93-13.14-10.36-20.53-14.7-3.06-1.8-6.52-3.83-10.5-6.35-13.74-8.72-32.43-11.53-37.62-10.08-1.77.49-2.18,1.44-2.22,2.15-.09,1.73,2.37,3.6,7.29,5.54.19.08,19.54,8.3,24.49,16s34.52,37.2,39.49,42.14l-2,4.26c-6-4.46-31.53-23.42-39.76-29.37-9.08-6.56-20.18-9.24-26-8.43a2.61,2.61,0,0,0-2.44,1.81c-.71,2.63,3.94,6.75,6.78,9l.29.22.36,0c.08,0,8.44,1.18,15.81,11.73s31.63,33.5,35.69,37.32L119.59,293C113.8,286,95,264,82.18,258.2c-14.15-6.46-24-3.84-26.56-2.28a1.5,1.5,0,0,0-.74,1.26c0,1.22,1.14,2,5.56,4.86,3.31,2.14,7.86,5.06,10.88,8,5.17,4.94,28.65,34.59,34.4,41.88C102,314,98.15,321.86,94.49,334.79ZM73.13,268.1c-3.2-3.06-7.87-6.07-11.28-8.26-1.21-.78-2.52-1.62-3.42-2.26,3.09-1,11-2.35,22.66,3,14.44,6.59,37.95,35.91,38.19,36.2l1.72,2.15.09-.44c3.53,3.17,12.14,10.16,22.66,13.63l3.16,1c10.59,3.51,15.34,5.08,21.23,5.08l1.14,0c3.62-.12,7-.11,9.38-.07l-.69.6a53.74,53.74,0,0,0-6.06,6.93c-2,2.49-4.14,5.22-6.59,7.92-1.53-.28-5.37-1-9.65-1.65h-.07c-5.58-.87-10-1.56-23.24-5.86-12.47-4-22.56-13.48-23.38-14.26C107.17,309.48,79.07,273.78,73.13,268.1Zm102.24,41.35c-5.48-.14-8.21-1.19-15.49-4-1.64-.63-3.51-1.36-5.68-2.18C142.74,299,124.4,284.7,123.5,284c-1.19-1.11-28.29-26.57-35.83-37.37-7.25-10.39-15.37-12.42-17.25-12.77-2.76-2.2-5.24-4.84-5.56-5.88l.23,0c4.25-.59,14.57,1.05,24.14,8,9.11,6.58,39.46,29.15,40.94,30.25,1.14,1.06,17.17,15.78,32.33,21.64,6.49,2.51,12.16,5.13,16.73,7.23,6.44,3,11.09,5.12,14.16,5.23,2.25.08,4.39.23,6,.38-2.44,1.72-5.83,4.54-8.58,6.82-1,.82-1.87,1.55-2.58,2.12C186.7,309.56,181.18,309.6,175.37,309.45Zm21.28-18.19c-5.88-.49-9.43-.78-26.6-10.29-16.21-9-33.86-22.45-35-23.36-1.56-1.55-34.74-34.56-39.74-42.31-5.38-8.34-24.84-16.6-25.7-17a23.73,23.73,0,0,1-5.28-2.77c4.4-1.14,22.13,1.34,35.45,9.79,4,2.55,7.5,4.6,10.58,6.4,7.53,4.43,13,7.62,20.05,14.34a239.14,239.14,0,0,0,18.62,16c1.37,1.22,23.87,21.12,37,28.35,10.46,5.74,24,12.07,29.23,14.51a53.23,53.23,0,0,0-6.91,6.33A83.87,83.87,0,0,1,196.64,291.26Zm4.69-26.06c-3.78-2.51-7.68-5.12-11.13-7.2-9.6-5.81-34.06-23.43-35.14-24.21-1.23-1-37.43-31.19-44.52-38.78-7.4-7.93-31-19.14-32-19.62l-.24-.08a22.71,22.71,0,0,1-6.24-2.43c3.49-1.64,24.08-1.5,38.14,3.36,14.66,5.06,31,13.42,34.8,17,5,4.67,7.9,6.7,9.67,7.52,2.72,3.11,29.55,33.66,42.43,43.25,6.31,4.71,11.41,9.19,15.51,12.8,4.63,4.08,8.29,7.29,11.57,9,3.89,2,8.16,4.3,10.64,5.63-1.36.92-3.18,2.36-5.67,4.36-.88.71-1.73,1.4-2.51,2-1.26-.45-4.14-1.42-8.07-2.4C215.38,274.56,208.24,269.8,201.33,265.2Zm21.53-13.73c-7.2-4.38-11.81-8.95-18.8-15.86-4.51-4.46-10.13-10-18.1-17.17-19.56-17.55-41.19-57.86-42.29-59.9-4.51-12.87-4.57-34.77-4.57-35l0-.19a43.66,43.66,0,0,1-.51-6l.17.29c4,7.06,7.92,24,8,24.2l.17.74-.08,0,.18.39.18.8.14-.11c2.89,6.07,17.91,36.26,39.27,55.26,22.7,20.2,36.87,30.15,47.72,37.22,8,5.21,18.4,14,21.43,16.64-.33.71-.71,1.72-1.24,3.2a51.72,51.72,0,0,1-2.63,6.4c-1.22,2.29-2.92,2.71-5.07,3.23-.71.17-1.44.36-2.18.61C242.27,264.51,233.19,257.76,222.86,251.47Zm-182.42,102A230.67,230.67,0,0,1,143,61.14c0,.46,0,.86,0,1.15-.22,2.61-.26,4.15-.27,4.64a73.09,73.09,0,0,0-1.46,10.23,217.29,217.29,0,0,0-72.22,303,64.06,64.06,0,0,1-9.2,9.82A229.81,229.81,0,0,1,40.44,353.52ZM89.08,438l-.32-.13c7-6.41,34.76-32.49,45.2-50.36,2.48-4.24,5-8.64,7.45-12.89,9.22-16.07,17.94-31.25,23.18-36.48A126.28,126.28,0,0,0,174,327.29a53.23,53.23,0,0,1,5.69-6.56c1.64-1.38,3.37-3,5-4.54s3.53-3.26,4.86-4.33c.77-.61,1.8-1.47,3-2.43,2.83-2.35,6.36-5.28,8.72-6.91a30.51,30.51,0,0,0,6.55-6.8c1.83-2,6.9-7.42,9.3-8.82,3.52-2,6-3.57,8.66-5.25,1.17-.75,3.05-2.25,5-3.85,2.27-1.82,6.08-4.88,7-5.1a9.07,9.07,0,0,0,3.61-1.75,20.19,20.19,0,0,1,3.5-2,16.51,16.51,0,0,1,2.51-.75c2.34-.57,5-1.22,6.76-4.54a54.19,54.19,0,0,0,2.78-6.75c.42-1.17.93-2.59,1.22-3.16l.07,0c1.69-.42,6.19-1.55,6.78-5.39a17.87,17.87,0,0,0-.18-4.25c-.44-3.94-1-8.84,2.47-11,4.52-2.87,10.69,6.31,10.74,6.4l.13.17c.63.69,15.53,17,28,21,13.21,4.22,35,6,47.53,5.29a98.15,98.15,0,0,1,12.9.27c4,.28,6.68.46,8.22-.21,2.08,1.15,12.05,7.06,11.43,14.19-.66,7.45-4.41,15.23-11.11,14.75-4.86-.36-8.7-1.81-10.56-4a5.54,5.54,0,0,1-1.33-4.27c.36-4.23,2.29-6.12,6.28-6.12,1.64,0,3.18,0,3.76.58a2.47,2.47,0,0,1,.45,1.76c0,2.61-1.16,3.67-3.94,3.67v2.61c4.2,0,6.53-2.22,6.56-6.26a4.82,4.82,0,0,0-1.21-3.62c-1.34-1.35-3.42-1.35-5.61-1.35-5.35,0-8.41,2.94-8.88,8.51a8.15,8.15,0,0,0,1.94,6.19c2.34,2.74,6.73,4.48,12.36,4.89q.38,0,.77,0c6.89,0,12.24-6.91,13.14-17.15.75-8.51-9.64-15-12.51-16.57a4.42,4.42,0,0,0-.74-2.25c-3.35-5.59-11.9-13.52-21.27-19.75-3.57-2.38-7.41-4.5-10.81-6.37-3-1.66-6.7-3.69-7.74-4.74,2.78-2.61,11.85-12.17,14.61-15.44a61.86,61.86,0,0,0,5.67-8.33,5.59,5.59,0,0,0,.9-2.86l.06-.76c.53-6.45,1.25-15.29-6.71-23.26-3.43-3.42-8.73-7.2-13.4-10.53-2.57-1.83-5.58-4-7.25-5.42,4.07,1.43,14.73,6.88,28.9,15.79,17.7,11.13,30.64,21.25,35.5,27.76,1.39,1.87,3,3.92,4.75,6.1,12.35,15.54,33,41.55,30.51,81-2.78,44-13.29,53.87-13.39,54l-.16.14-.1.17a63.1,63.1,0,0,1-5.62,7.94c0-.3.05-.64.08-1,.54-6.31,1.82-21.09-7.44-31.1-5.91-6.41-15.09-9.65-27.29-9.65H375c-40.72.26-64.67,20.2-66.1,21.43-1.38,1-23.75,16.77-39,41.89-15.66,25.85-16.61,41.75-16.65,42.42v.21l.06.2c.32,1.15,1.12,5.65-.86,6.56-.4.18-41.63,18.29-104.39,14.25-22.85-1.47-34.88-1.65-41.91-1.65H102.7C95.79,440.65,95.79,440.65,89.08,438Zm253.36,38.12a230.06,230.06,0,0,1-234.29-32.91c5,0,12.1.16,22.83.68a217.72,217.72,0,0,0,206.37,20.2q7.22-3.05,14.15-6.61l.18.08a51.62,51.62,0,0,0,6.33,2.32c1.5.43,2.58.68,3.44.89a18.83,18.83,0,0,1,3.21,1,33.71,33.71,0,0,0,3.84,1.34A230.2,230.2,0,0,1,342.44,476.13ZM376,463.38a5.62,5.62,0,0,1-1.91-1.14,5.36,5.36,0,0,0-.47-.39,150.76,150.76,0,0,0,8-12.88,77.54,77.54,0,0,0,5.54-14.16,12.38,12.38,0,0,0,1.87,1.08c-.24,2.72-1.16,11.32-3.78,16S377.71,461.69,376,463.38Zm8.53,2.13a13.53,13.53,0,0,1-5.85-1.11,60.24,60.24,0,0,0,8.88-11.22c2.65-4.75,3.68-12.68,4-16.2a3.62,3.62,0,0,0,1.27,0,5.73,5.73,0,0,1,1.2,0c.5,2.35,1.57,9.31-1.49,15.3A112.42,112.42,0,0,1,384.54,465.5ZM434,443.14c-.19.63-.38,1.25-.57,1.88-1.8,6.06-6.48,9.29-15.3,14.95-3.81,2.44-12.16,5.33-30.38,5.53a113.62,113.62,0,0,0,7.17-12c3.14-6.14,2.47-13,1.89-16.17a54.05,54.05,0,0,0,12.16-.9c5.08-.94,10.07-5.31,12.37-9.14a6.55,6.55,0,0,0,.93-3.53l.32-.33-.35-.27c-.28-3.15-2.36-6.18-3.55-7.91-1.7-2.48-5-2.06-7.58-1.73a11.66,11.66,0,0,1-3,.15l-.11,0a.67.67,0,0,1-.07-.33,10.7,10.7,0,0,1,1.67-4.35c1.34-.71,8.9-.4,16.71.67,4,.55,7.95,8.33,9.71,15.73C437.5,431.58,435.71,437.45,434,443.14Zm-2.72-33.61a8.26,8.26,0,0,0-4.6-2.53c-2.49-.34-6.2-.76-9.57-1A217.4,217.4,0,0,0,181.47,58.44c-1.22-4.88-1.87-9.16-2.41-12.7l0-.28A230.39,230.39,0,0,1,431.26,409.53Z"/></g></svg>