<svg xmlns="http://www.w3.org/2000/svg" viewBox="0 0 500 500"><defs><style>.cls-1{fill:none;}</style></defs><title>clan-star-adder</title><g id="Icons"><path class="cls-1" d="M116.11,260.13a32.12,32.12,0,0,1-27.69-4.34C75.84,280.64,115.1,274,116.11,260.13Z"/><path class="cls-1" d="M242.24,96.69a1.7,1.7,0,0,1,0-3.4A1.7,1.7,0,0,1,242.24,96.69Z"/><path class="cls-1" d="M207.83,129.06c5.25,7.93,9.33,15.82,9.68,25.55C223.79,140.72,223.52,134,207.83,129.06Z"/><path class="cls-1" d="M203.8,153.24c.22-1.79,0-5.51.8-7.3C198.44,144,199.94,151.38,203.8,153.24Z"/><path class="cls-1" d="M147,350.94,109.49,466.57l74.24-54c-12-18.6-18.75-39.06-25.44-61.41C156.89,352.38,152.49,352,147,350.94Z"/><path class="cls-1" d="M141.47,349.7,99.72,478.32c12.34-18,16.85-39.06,23.56-59.76l22.06-68C144.09,350.32,142.79,350,141.47,349.7Z"/><path class="cls-1" d="M82.09,199H22.65l33.18,24.14C62.07,213.09,71.27,205,82.09,199Z"/><path class="cls-1" d="M94.35,193.34H8C32.27,201.25,70.73,202.34,94.35,193.34Z"/><path class="cls-1" d="M351.42,402.92c11.09,2.39,20.29,7.67,25,18.6C384.06,406.54,362.88,391.9,351.42,402.92Z"/><path class="cls-1" d="M342.34,225.54l-.72.42c.1.06.15.11.07.14A1.12,1.12,0,0,0,342.34,225.54Z"/><path class="cls-1" d="M259.27,62.19,250,33.65l-9.73,30C246.59,63,252.93,62.5,259.27,62.19Z"/><path class="cls-1" d="M134.79,125.41c-2.84-1.29.76,20.34,3.14,23C137.42,143.46,140.5,128,134.79,125.41Z"/><path class="cls-1" d="M232.19,297.16c-1,8.17-2.11,16.71-.58,24.74C234.22,313,236.15,306.26,232.19,297.16Z"/><path class="cls-1" d="M316.12,367.27a4.21,4.21,0,0,0,4.89-1.61C319,365.26,317.1,365.59,316.12,367.27Z"/><path class="cls-1" d="M332.66,340.48c-.65-3.41,0-6.8.84-10.15C325.91,329.74,326.87,339.61,332.66,340.48Z"/><path class="cls-1" d="M324.56,367.78l-3.11,1.81c1.7,1.62,4.82.74,7.26,2.27C328.12,370.41,326.4,367.26,324.56,367.78Z"/><path class="cls-1" d="M293.38,370.84c-4.24.58-9.1.94-12.56-1.71C279.64,376.46,292.86,378.18,293.38,370.84Z"/><path class="cls-1" d="M376.51,429.61c-3.7,6.53-9.32,11.34-15.54,15.47l29.54,21.49L377.76,427.3C377.36,428.07,376.94,428.84,376.51,429.61Z"/><path class="cls-1" d="M355.79,448.32,399,479.78C392.17,470.31,366.12,442.16,355.79,448.32Z"/><path d="M166.06,98.45c-6.91-5.95.18,4.89,1.39,6.06C170.25,107.23,168.51,100.56,166.06,98.45Z"/><path d="M234.9,80.46a3.41,3.41,0,0,0-4.33-.32C227.72,85.53,239.73,82.71,234.9,80.46Z"/><path d="M245.66,88.58c1.5-1.5-2.43-7.43-4.5-6.22C238.6,83.85,243.51,90.73,245.66,88.58Z"/><path d="M242.24,96.69a1.7,1.7,0,0,0,0-3.4A1.7,1.7,0,0,0,242.24,96.69Z"/><path d="M387.33,382.81c-.27-11.29-2.89-23-8.94-32.69-6.22-9.93-15.46-11.27-22.75-18.42-3.11-3-11.73-23.28-10.15-27.67.93-2.57,9.44-6.86,11.46-8.34l28.6-20.8L500,191.64H403.81c-5.75,0-19.18,2.62-24.44,0-12-6-9.43-16.06-5.83-25.92,7.08-19.37,7.22-40.79-3.05-59C350,70.29,305.28,61,266.91,61.92L250,9.81c-4.71,14.5-9.28,47.83-21.06,55.12-7.8,4.82-25.68,3.38-35,5.45C183.55,72.7,175.07,75.74,167.23,83c-8.19,7.62-8.51,10.61-20.56,11.27-10.1.56-15.24-.05-18.23,11.52-1.6,6.18,1.62,50.65,11.19,45.36,1.74-1,2.11-38.32,14.08-24,3.67,4.4-3.72,34.29,7.63,31.56,2.85-.68,3.86-12.39,4.74-14.6,3.67-9.24,8.91-14.4,19-17-.64,9.09-1.19,48.73-13.48,51.7-9,2.18-7.3-10.78-13.91-10.85-11.44-.12,5.63,22,8.84,24.08-30.58-11.88-64.77-.45-96.84-.45H0l52.34,38.07c-12.13,26.8-.71,57.84,16.64,79.47,18.23,22.75,43.37,33.1,70.84,40.1L95.49,485.86l92.39-67.2c36.88,50.67,96,68.09,152.6,38.51,9.47-4.95,9.84-7.49,17.91-4.85,6.2,2,13.06,9.5,18.26,13.28l27.85,20.26L390.18,441.7c-2.25-6.95-6.19-14.81-7.16-22.06C381.52,408.44,387.62,395,387.33,382.81Zm-4.21,18.43c-2.28,13.77-11.91-4.83-24.41-7.11C362.57,388.1,384.94,390.29,383.12,401.24Zm-31.7,1.68c11.47-11,32.64,3.62,25,18.6C371.7,410.59,362.5,405.31,351.42,402.92Zm19.32,27.85c-7.53,8-16.38-15.54-28.84-20.39C352.53,403.6,381.77,415.45,370.74,430.77Zm13.12-36.5q-8.54-10.39-21.55-7.23C368.19,371.7,384.59,381.3,383.86,394.27Zm0-14.62-19.44-1.15C366.15,363.46,383.51,368.76,383.86,379.66Zm-4.2-20c6.26,13.28-6.14,2.61-15.39,9.84C362.53,358.39,371.94,361.55,379.66,359.66Zm-1.86-4.28q-13.9,10.52-17.85,1.37Q368.23,350.13,377.8,355.38Zm-3.4-3.79c-5.5-.58-19.15,4.86-19.4-.58C354.62,342.45,372.8,350,374.4,351.59Zm-19.47-16.48q20.39,4.32-4,13.59A15.16,15.16,0,0,1,354.93,335.11Zm-8,10.91c-6.11-3.76-1.21-7.79-2.32-13.91Q359.16,332.36,346.92,346ZM492,193.34c-17.6,5.73-35,4-53.56,4-11,0-54.76,6.29-59.45-4ZM362.22,158.28q3,2.17,0,4.35Q359.2,160.45,362.22,158.28Zm-1.6,8.31q3.21,1.61,0,3.21Q357.41,168.2,360.62,166.59Zm17.09,66.64c-7.9,42.57-38.83,62.51-73.38,83.59C337.48,291.37,340.15,249.46,377.7,233.23ZM267,295.81a20.61,20.61,0,0,0-10.72-12.51c31.06-4.06,29.88,34.88,9.36,46.28A213.5,213.5,0,0,0,267,295.81Zm64.34-89.09c-1.71,12-27.81,30.06-36.69,37.89-19.15,16.91-38.77,24.54-64.07,28.28C250.21,251.65,262,227,288.32,212.75,294,209.68,333.93,188.89,331.39,206.72Zm-8.23-13.3,2.08-2.08q4.15,2.08,0,4.16Zm19.21,47.95c-3.56,15.14-10-10.14-8.56-11.72A42.34,42.34,0,0,1,342.36,241.37Zm-3.54-70.43q1.13-2.27,2.26,0Q340,173.21,338.82,170.94Zm4.1-57.72q-3.68-1.84,0-3.68Q346.61,111.38,342.93,113.22Zm2.46,24.84c6.21,0,0,5.49,0,5.45S339.17,138.06,345.38,138.06Zm-7.93,111c-5.36,15-8.3-11.18-11.06-12.33A41.15,41.15,0,0,1,337.45,249Zm-44.51,20.65c14-10.49,25.33,22.42,13.9,31.84C307.78,290.71,304.7,274.31,292.94,269.67ZM294.67,288a18.23,18.23,0,0,0-14-12.51C297,266.25,308,301,295.5,310.14Zm-2.94,24.78L284.18,318c.81-12.26-.78-30.92-13.34-37.79C300.07,269.94,285.54,303.26,291.73,312.83Zm9.08-51.18c12.32-16.09,28.07,14.59,17.95,27.6Q319.32,269.14,300.81,261.65Zm8.4-12.25c15.08-9.71,26.71,11.42,19.56,24.11A33.76,33.76,0,0,0,309.21,249.4ZM262,271.1a145.81,145.81,0,0,0,38.86-15.49c-17.51,25.35-51.06,23.84-77.79,30.47C229.07,272.56,246.14,275.12,262,271.1Zm-31.43,16.7c23-5.17,24.16,50.1-.36,53.89C235.48,325,242.38,303.82,230.59,287.81Zm1.6,9.35c4,9.1,2,15.89-.58,24.74C230.08,313.87,231.2,305.33,232.19,297.16Zm8.39-11.41c30.51-5.78,30.43,48.35,6.57,53C253.07,322.07,255.26,299.19,240.58,285.75Zm97-21.69c-1.48-2.45,11.07-31.88,11-39.11.32,25-1.71,41.44-19.24,61.45-17,19.37-39.41,35.39-62.59,46.5C296.24,316.87,322.82,294.82,337.6,264.06ZM259.27,62.19c-6.33.31-12.68.8-19,1.44l9.73-30ZM249.15,17.93c0,11.11-3.25,45-15,46.36ZM137.93,148.43c-2.38-2.68-6-24.31-3.14-23C140.5,128,137.42,143.46,137.93,148.43Zm28.21-16-6.6,21.69C151.84,144.17,167.74,123.68,166.15,132.46ZM198.24,190c-5.8,7.09-13.7-4.83-13.63-11.3A34.12,34.12,0,0,0,198.24,190Zm23.93-37.72c12.82-32.72-46.56-32-64.68-34.34-7-.89-24.95-1-26.2-10.75C130.1,98,144.17,97.46,149.6,97c7.43-.65,38-6.46,34.94,5.78,15.64,3.32,43.23,9.4,51.44-9.75-1.48,3.49-47.23,5.48-52.13,1.67A51.44,51.44,0,0,0,194.09,84c-3.76-3.85-10.42,6.54-12.76,7.5,3-9.15-6,0-16.22,1.2,25.21-35.49,92.08-33.08,129.61-27.55,13.18,1.94,47.47,6.56,51.77,22.39,2.8,10.33-6.1,20.47-12.87,26.32-13.4,11.57-2.16,14-6.33,28.41-3.88-17.79-19.17-29.83-36-34.43-6.44-1.76-27.51-1.36-31.33-7.45q0-.89.47-.44c-2,8.08-10.55,16.07-15,23-10,15.55-34.24,96.7-65.12,75C204.42,203,215.72,168.7,222.16,152.24Zm-17.57-6.3c-.81,1.79-.58,5.51-.8,7.3C199.94,151.38,198.44,144,204.6,145.94Zm8.24,0,1.31,11.4C205.46,154.87,204.2,149.69,212.84,146Zm-5-16.9c15.69,5,16,11.66,9.68,25.55C217.15,144.88,213.08,137,207.83,129.06Zm-2.45-28c1.26-.7,11.93-5.76,11.74-2.72C216.35,110.36,206.12,100.6,205.38,101Zm39.77,27.11c7.49-9.79,18-16.45,29.55-18.38l15.52,47.83c-30.27.74-54.16,12.51-77.38,31,8.66-11.9,15.59-24.24,22.19-37.32C237.77,145.85,247,134.13,245.14,128.12Zm37.1-19c16.92.21,37,13.28,39.62,31,2.11,14.07-7,27.37-21.8,17.66C290.42,151.44,286.19,121.32,282.25,109.16ZM161.71,183.72l-2.56-9c3.51,1.77,25.87,14.44,23.87,19-1,2.2-22.43-13.31-22.58-12.75A5.33,5.33,0,0,0,161.71,183.72Zm11.19,15.92c1,.31,19.39,8.46,20.41,7.78-8.32,5.52-44.31,7-54.18,6.31C146.31,206.89,162.88,196.6,172.91,199.65Zm10.22,17.25q-1.46,2.93-2.93,0Q181.66,214,183.12,216.9ZM156.41,341.58,142.2,338.1c7-8,19.43-55.47,20.09-55.48C156.84,301.18,155.09,322.32,156.41,341.58Zm2.92-62.48c-11.61,3.83-40.79-8-38.1-22.95,4.47-24.75,36.28-2.41,48.46-1.52C167.91,261.6,165.26,277.14,159.33,279.1Zm-68.87,1.23c1.2,0,23.29-17.24,28-12.39,3.51,3.6-8.05,10.7-10.39,12.15-2,1.26-5.84,4.42-8.48,4.49C95.88,284.69,92.9,280.33,90.46,280.33Zm4.45-31.92c.92,2.08,22.93,5.8,23,5.81-4.45,8.88-22.64,2.2-27.7-1.3Zm-2.56-17.8q1-1.95,1.95,0Q93.32,232.56,92.34,230.61Zm23.76,29.52c-1,13.86-40.27,20.51-27.69-4.34A32.12,32.12,0,0,0,116.11,260.13ZM98.53,246.19a49.35,49.35,0,0,1,25.56-.43C116.39,253.17,109.75,248.15,98.53,246.19Zm1.55-10.28q1.23-2.46,2.45,0Q101.31,238.36,100.08,235.91Zm5.71-10.65q-4.25-2.13,0-4.25Q110,223.13,105.79,225.26Zm2.12,6.55q-1.06,1.45-2.12,0Q106.85,230.36,107.91,231.81Zm-3.11-22.89c-5.17,0,0-4.57,0-4.53S110,208.91,104.8,208.91Zm8.59,5.86q-4-2,0-4Q117.35,212.79,113.39,214.77Zm3.09,18.36q-1.55,3.09-3.09,0Q114.93,230,116.48,233.13Zm-6.82-28.75q-3.49-1.35,0-2.69Q113.15,203,109.66,204.38Zm10.71,19.27,2.36,1.61q-2.36,3.21-4.72,0Zm-1.23-22.53q1.65-3.31,3.3,0Q120.79,204.43,119.14,201.12Zm7.69,2.79c-5.06,0,0-4.48,0-4.44S131.9,203.91,126.83,203.91Zm3.7,32.63-1.85,1.85q-3.7-1.85,0-3.71Zm3.33-37.07q-3.4-1.7,0-3.4Q137.26,197.77,133.86,199.47Zm1,12.68q-1.34,2.69-2.69,0Q133.55,209.46,134.89,212.15Zm-2.69,17.49q3.33,1.66,0,3.33Q128.87,231.3,132.2,229.64ZM169,250.91c-10.59-2.33-19.31-8.06-30-9.84,13.12-5.88,26-12.16,40.78-10.93C178.31,232.89,171.75,251.51,169,250.91Zm-23.43-14.39,21.89-8.19q1.31-2.62,2.61,0Q168.76,230.94,167.46,228.33ZM8,193.34H94.35C70.73,202.34,32.27,201.25,8,193.34ZM22.65,199H82.09c-10.82,6-20,14.08-26.25,24.14Zm33.89,80.75c-25.6-61,48.3-104.82,101.15-87.26-62.19-11-119,33.49-95.84,98.76A103.49,103.49,0,0,1,56.54,279.76Zm24.32-28.15q4,2,0,4Q76.89,253.6,80.86,251.61Zm-.64-15.08,1.85-1.85q3.7,1.85,0,3.71Zm1.31,5.21q1.42-2.84,2.84,0Q82.95,244.58,81.53,241.74Zm-5.23-13q-1.7,3.4-3.4,0Q74.6,225.32,76.3,228.72Zm-.57,75.79q-3.59-1.79,0-3.59Q79.32,302.72,75.74,304.51Zm1.9-17.78-12,5.08c-3.55-9.32-7.39-19.89-.29-28.17,2.08-2.43,20.22-10.22,20.46-9.82,2.36,4-1.39,16.43-2.22,20.6C83.35,275.58,79.9,292.08,77.64,286.73Zm17.94,23c-2.45,5.2-11.19,6-15.81,4.78a144.22,144.22,0,0,1,11.37-19.07C93,300.43,97.48,305.68,95.57,309.73Zm-1.23-19.31c5.3,4.68,25.35-16.28,27.43-20.07,12.12,10.48-17.43,26.86-24.7,29.15ZM106.22,313c-7.13-6.52,12.53-4.72-6.38-10.85,6.24-2.21,29.55-27.14,29.45-27.16C149.25,278.74,109,309.52,106.22,313Zm2.63,2.32c14.12-6,29.24-20.29,28.6-37.45C157.41,284.69,132.09,335.33,108.85,315.32Zm28,20.39c5.4-9.72-12.28-7.5-14.61-9.28,16.24-5.95,29-28.43,26-45.42C169.81,285.92,142.9,338.74,136.81,335.71ZM99.72,478.32,141.47,349.7c1.32.32,2.62.63,3.88.9l-22.06,68C116.57,439.25,112.06,460.36,99.72,478.32Zm9.77-11.75L147,350.94c5.48,1.08,9.88,1.44,11.26.22,6.69,22.36,13.44,42.82,25.44,61.41Zm80.88-50.12C128,329.61,169,159.31,294.24,160.91c-63,8.57-107.68,53.91-124.45,113.93-10.11,36.17-9.6,72,5,106.75,2.76,6.56,14.1,37.65,19.53,39.76C193.08,420.85,190.81,417.06,190.37,416.45Zm83.43-229.79q-1.75,3.5-3.49,0Q272.06,183.17,273.81,186.67ZM179.72,368.18c0,6.23-7.56,0-7.74,0C172.17,368.18,179.72,362,179.72,368.18Zm-1.13-33.72q1.6-3.21,3.21,0Q180.2,337.67,178.59,334.46Zm16.84-37.22q-1.91,2.46-3.82,0Q193.53,294.78,195.44,297.24Zm-1.91-24.45q1-1.91,1.91,0Q194.48,274.7,193.53,272.78Zm.17,108.81q-2.08,2.27-4.15,0Q191.61,379.33,193.69,381.6Zm-3-95.13-2.84-.87a5.06,5.06,0,0,1,5.69,0Zm4.38,101.46q-2.74-1.37,0-2.74Q197.8,386.56,195.06,387.93Zm.38-48.37q-3.49-1.75,0-3.5Q198.93,337.81,195.44,339.56Zm-24.66-53.45c4-20.86,49.62-129.59,86.25-101.2C277.39,200.69,186.85,267.75,170.78,286.11Zm65.45-53q-1.55,3.09-3.09,0Q234.68,230,236.22,233.13Zm-10.29,6.6q-1.59,3.19-3.18,0Q224.35,236.54,225.94,239.73ZM207,258.41q-2.83-1.42,0-2.83Q209.83,257,207,258.41Zm.28,161.16q-.94,1.89-1.89,0Q206.34,417.68,207.28,419.57Zm-.19,11.15q-3.4-1.7,0-3.4Q210.49,429,207.09,430.72Zm1.7-53.66q-3-1.51,0-3Q211.81,375.55,208.79,377.06Zm7.15-88.45C231,219.85,308,213.3,324.71,148c3.6,43-37.07,57.6-65.08,79.8-39.6,31.38-41.53,78.32-44.09,124.9C207.28,333.27,211.59,308.36,215.94,288.61Zm-1.77,144q-3.59-1.79,0-3.59Q217.75,430.81,214.17,432.61Zm3.35-22.2q-3.11-1.56,0-3.12Q220.63,408.85,217.52,410.41Zm5.38,7q-2.55-1.28,0-2.55Q225.44,416.13,222.9,417.4Zm.52-41.49c-3.28-6.3-8.28-20.5-3.44-27,4.53-6.1,14-4.68,20.78-5.58,25.3-3.39,48-13.34,69.88-26C351.19,293.83,398,252.86,381.2,199h96.15l-88.47,64.35c-14.85,10.8-32.44,20.73-45.82,33.33-10,9.44-1.64,18.63,2.74,32.12-24.15-5.51-53.26.85-64.44,25.27-8.66,18.91,0,38.46,20.89,42.22,14.39,2.58,39.2-5.44,29.51-24.88-2.19-4.39-10.83-12.46-16.09-9-8.2,5.4,4.18,8.25,1.95,13.32-3.94,8.94-17.37,5-20.08-2.5-3.65-10.1,9-21.4,16.86-25.57,20.43-10.83,42,3.57,45.54,24.69,1.59,9.49-1.49,17.75-7.84,25.27-4.95,5.86-22,20.12-30.72,18.65-8-1.35-20.8-15.13-27.27-19.84-10.56-7.68-28.25-26.86-41-29.84-8.72-2-18.14,8.72-26.32,14.67A44.07,44.07,0,0,1,223.41,375.91Zm116.47-33.43q-9.69-7.78,1.71-11A13.59,13.59,0,0,0,339.88,342.48Zm-7.22-2c-5.79-.87-6.75-10.74.84-10.15C332.65,333.68,332,337.07,332.66,340.48Zm-6.75-10.29q5.07,11.33-3.9,10.72Q316.61,332,325.91,330.19Zm-27.27,56.59q-2.51,6.69-7.81,1.66C288.77,389.72,303.72,375.33,298.64,386.78Zm5.11-3.3q5.73,14-4.81,8.8A97.18,97.18,0,0,0,303.75,383.48Zm-10.37-12.65c-.52,7.35-13.74,5.62-12.56-1.71C284.27,371.77,289.14,371.42,293.38,370.84Zm-11.13-8.11q1.25-7.6,12.74,1.31Q287,372.71,282.25,362.73ZM294.13,377c2.16,5.4-7.36,16.26-12.93,0ZM287,350.74l11.66,6.71C294.57,363.22,280.48,361.47,287,350.74Zm6.31-7.82a17.46,17.46,0,0,0,8.51,10.58C300.44,355,284.46,351.36,293.28,342.93Zm8.7-6.35A17.68,17.68,0,0,0,306.33,349C301.29,353.32,292.75,341.69,302,336.57Zm6.83-3.1q9.52,10.06,0,13.56Q302,339.86,308.8,333.47Zm8.57-2.32q6.85,10.49-1.88,12C314.93,337.32,307.21,333.05,317.37,331.15Zm7.47,58.29-7.67-8.29C321.87,377.93,331.3,382.44,324.85,389.44ZM322.5,374q5.95-.43,6.9,6.05Q318.49,380.05,322.5,374Zm-1-4.44-2.56,16.71q7.23,6.79-1.93,7.62C317.14,392.57,308,374.58,318.89,386.3ZM307.78,394l-.14-10.17C312,383.9,319.2,395.38,307.78,394Zm11.78,23c-11.28,3.35-29.68-16.69-38.47-23.08-6.72-4.88-32.15-17-30.23-26.89ZM250,373.48l62.38,45.37c-32.84,6.68-59.71-7.81-81-31.84Zm-16.91,20.17a17.68,17.68,0,0,1,7.08,14.8Q225.66,385.18,233.09,393.64Zm7.4,60.31q-3.4-.94,0-1.89Q243.89,453,240.49,454Zm0-30q-3.4-1.7,0-3.4Q243.89,422.22,240.49,423.92Zm8.56-.1c-6.69-9.46-2.55-9.36-5.44-19.29A25.94,25.94,0,0,1,249.06,423.81Zm6.66,6.55c-3.71,1.75-4.9-19.44-5.31-20.22C253.79,412.6,265.46,425.78,255.72,430.37Zm12.47,8.91c-20.75-10.52-.45-6.67-6.92-22.63Q271.22,425.86,268.19,439.28Zm4.39,18.46q-3.77-1.89,0-3.78Q276.35,455.85,272.58,457.74Zm8.47-12.5c-14.57-6.08-5.42-10.13-11.43-25.1C279.37,423.52,283.69,435.94,281.05,445.23Zm4.08,9.67q-4-2,0-4Q289.09,452.92,285.13,454.9Zm.1-14.62-4.89-18.22c13.18,1.09,16.25,16.6,18.1,29C288.21,448.57,286.49,449,285.22,440.28Zm12.83,19.16q-3-2.27,0-4.53Q301.08,457.17,298.06,459.44Zm3.43-7.75c4.67-6.92-5.67-23.32-9-28.62C303.73,424,318.94,455.31,301.49,451.69Zm23.69.35c-12.46,15.59-21.59-28.69-21.51-28.57C311.31,423.08,332.08,443.4,325.17,452Zm3.35-.57a38.15,38.15,0,0,0-16.7-29.08C328.58,419,350.25,446,328.53,451.47Zm12.85-4.26c5.14-2-13.53-27.93-16-28.85,15.72-6,21,16,26.2,24.77Zm-8.15-32.15c13.85-6.36,39.4,18.28,21.45,26.68Q351.77,422,333.23,415.06ZM399,479.78l-43.25-31.46C366.19,442.12,392.15,470.28,399,479.78Zm-8.54-13.21L361,445.08c7-4.64,12.89-10.32,16.79-17.79Z"/><path d="M267.38,77.86c2.17-.69,21.8-9.54,21.36-9.89-6.11-4.89-66.28,1.25-66.27,6.93C222.47,81.27,262.94,80.64,267.38,77.86Z"/><path d="M227.92,108.61c18.31-14.51,51.15-16.31,73.4-18.87,8.12-.94,22.06.63,29.51-2.65,11.61-5.12,3.3-8.29-6.17-9.82C310.59,75,216,104.47,219.86,111.14,220.84,112.83,227.15,109.22,227.92,108.61Zm77.7-19.54"/></g></svg>