<svg xmlns="http://www.w3.org/2000/svg" viewBox="0 0 500 500"><defs><style>.cls-1{fill:red;}</style></defs><title>clans_COLOR</title><g id="n1"><polygon class="cls-1" points="221.03 110.05 214.13 136.47 142.07 63.53 221.03 110.05"/><polygon class="cls-1" points="186.2 148.3 214.48 141.12 245.56 170.37 99.31 170.37 186.2 148.3"/><polygon class="cls-1" points="187.01 198.84 208 204.17 141.32 276.06 187.01 198.84"/><polygon class="cls-1" points="247.88 474.72 217.56 239.62 217.59 239.62 212.48 203.97 247.88 175.09 247.88 474.72"/><polygon class="cls-1" points="400.31 170.37 253.07 170.37 283.31 140.13 311.96 148.32 311.99 148.29 400.31 170.37"/><polygon class="cls-1" points="354.59 64.55 283.18 135.96 276.67 110.03 354.59 64.55"/><polygon class="cls-1" points="247.88 168.37 216.62 138.95 247.88 19.43 247.88 168.37"/></g><g id="Base"><path d="M424,172.4,313.6,145.56l58.83-96.81L275.89,107,249.9,1.38,221.83,107,124.1,47.37l60,98.31L76,172.4l107.94,25.66-57.25,96,88-52.71,33.17,257.32,1-.13,2,.13,33.17-257.33,85.28,49.49-55.74-92.55ZM221,110.05l-6.91,26.42L142.07,63.53ZM186.2,148.3l28.28-7.18,31.08,29.25H99.31Zm.81,50.53,21,5.33-66.69,71.89Zm60.86,275.89-30.31-235.1h0L212.48,204l35.39-28.87Zm0-306.35L216.62,139,247.88,19.43Zm152.44,2H253.07l30.24-30.24L312,148.32l0,0ZM354.59,64.55,283.18,136,276.67,110Z"/></g></svg>