<svg xmlns="http://www.w3.org/2000/svg" viewBox="0 0 500 500"><defs><style>.cls-1{fill:none;}</style></defs><title>clan-sea-fox</title><g id="Icons"><path id="rect4422-8-3-9-8-1-9" class="cls-1" d="M291.42,295.53c38.77-26,89.1-36.79,117.44-7.46,12.51,12.95,68,88.74-71.13,168.49,43.49-25.36,61.09-65.12,20.83-118.07,6.74-49.2-40.72-56.15-67.14-43Z"/><path id="rect4449-6-7-2-6-2-4" class="cls-1" d="M228.35,354c11.3-18.54,65.68-31.27,94.94-6.33,36.73,31.3,23.19,70.95,2.64,86.8C285.17,466,221.15,446,182,433.95c-27.24-16.09-41.87-31.78-54.5-47.4,47.15,33.18,100,40,139.83,21.64,35.93-17.34,31.39-48.11,11-60C265.68,340.78,246.63,341.95,228.35,354Z"/><path d="M480.89,171.83A209.45,209.45,0,0,0,287.65,43.31c-12.23,0-53.89,2.57-83.8,14-16.19,6.18-31.62,14.37-44,21-16,8.49-29.83,15.83-32.3,11.57-7.32-12.61-12.25-23-14.16-52.14a1.37,1.37,0,0,0-2.45-.77c-24.24,30.3-37.84,55.22-45,70.79C58,125,53.84,140,55.12,146.8a4.85,4.85,0,0,0,2.07,3.53c6.26,3.61,5.95,15,5.72,23.34,0,1.51-.08,2.93-.08,4.24-.26.8-2.68,3.18-4.83,5.27A100.93,100.93,0,0,0,47.26,195c-5.52,7.44-6.56,10.6-7.77,19.22-4.25,30.14-8.93,47.22-20,73.1-4.34,10.13-8,17.52-10.71,22.92-3.94,7.91-6.11,12.27-6.11,16.42,0,8.85,4.06,18.27,7.6,25.5,1.24,2.54,3.79,1.71,4.63,1.44l.14,0,9.22-2.94c45.73-14.65,130.86-41.91,177.34-28.79a1.37,1.37,0,0,0,1.75-1.24c3.18-53.59,20-92.11,48.66-111.42s65.89-23.4,100-11.24c33.8,12.06,59.58,38.83,71.24,73.78-18.51-10.9-44.95-13.77-73.29-7.83-28.75,6-53.75,20-66.88,37.31a1.38,1.38,0,0,0,1.92,1.93c19.28-14.48,40.5-16.61,56.77-5.72a37.73,37.73,0,0,1,16.22,39.45c-23.5-14.29-50.6-19.53-76.52-14.76s-48.06,19-62,40.08a1.37,1.37,0,0,0,2.09,1.76l.74-.7c8.41-8,16.36-15.5,30.35-17.16,18.33-2.17,30.13,2.58,36.07,14.54,5.21,10.49,4.81,20.85-1.16,30-11.41,17.47-40.83,27.71-74.95,26.08-43-2.05-70.48-21-89.62-37.32a1.37,1.37,0,0,0-2,1.88,209.49,209.49,0,0,0,166.67,83A210.09,210.09,0,0,0,497.38,253.74,209.71,209.71,0,0,0,480.89,171.83ZM63.79,200.74c41.93-44,84.58-77.35,127.38-99.71q-3.71,2.79-7.09,5.58l-.25.21-1.34,1.12-.37.32-1.2,1-.41.35-1.21,1.06L179,111l-1.51,1.35C138.79,135.08,100,167.07,61.59,208.17Q62.74,204.46,63.79,200.74ZM46.7,211.93a104.55,104.55,0,0,0,8.1-14.2c-2.94,11.93-6.44,22.94-10,34.21C45.5,225.08,46.61,217.48,46.7,211.93Zm147.05-4.18h0c-13.25,19.33-21.17,44.63-23.82,75.31-36.62-8.68-110.81,22-146.42,55.83.72-2.48,1.15-4.72,1.43-6.13.42-2.07.16-4.92,1.06-6.24,21.83-31.73,46.74-73.78,94.48-72.9,6.79.13,15.79.83,15.83-5.45.12-20.73,15.75-46.39,28.84-70.66,2.33-4.32-.71-6.07-5.29-6.06a28.3,28.3,0,0,0-14.59,4.49c-34.61,24.29-69.48,47.88-126.39,143-.33.55-.6.57-1,.49-1.3-.25-2.59-.51-3.81-.84-.54-.14-.46-.47-.26-.87C33.07,278.8,49.19,246,59.88,213.51a4.23,4.23,0,0,0,.74-.63c36.08-39,72.47-70,108.78-92.71h0c-3.42,3.56-6.5,7.1-9.3,10.62l0,0q-2.51,3.16-4.73,6.29v0q-.72,1-1.4,2l-.09.14q-.67,1-1.31,2l-.09.14q-.65,1-1.28,2h0q-.64,1-1.26,2l0,.06q-.58,1-1.14,1.9l-.14.24q-.53.91-1,1.82l-.17.29q-.51.9-1,1.8l-.13.24q-.51.94-1,1.88c15.22-14.68,40.61-38.49,67.62-39,6.71,20.25,14.44,46.07,15.92,59.93C206.83,187.24,197,197.15,193.76,207.75ZM85.65,239c22.82-26.42,45.46-42.27,67.53-56.88-12,18.52-24.53,36.67-33.79,57A94.3,94.3,0,0,0,85.65,239ZM230.22,79.56c-.29-.72-.59-1.44-.89-2.15l-3,1.56-.74.39-2.74,1.48-.16.09-2.9,1.61-.54.3-2.72,1.55-.1.06-2.87,1.68-.28.17-2.76,1.66h0l-2.84,1.76,0,0-2.76,1.75c-47,21.73-93.78,56.64-139.73,104.21q1.73-6.53,3.14-13.12c.46-2.16-.28-5.18-2.3-5.18a3.53,3.53,0,0,0-.42,0c0-1.14,0-2.37.08-3.67.25-9,.58-21.37-7.1-25.8-.11-.07-.51-.38-.75-1.66a13.09,13.09,0,0,1-.17-2.6c7-22,26.43-43.92,42.37-64.35,4.1,5.63,6.62,8.59,11.26,16.62,3.75,6.49-7.88,24.67-16,36.69,16.94-16.08,34.33-29.53,56.33-47,3-1.53,6.15-3.22,9.53-5C173.45,74.13,188.8,66,204.83,59.87c29.52-11.27,70.72-13.81,82.82-13.81A205,205,0,0,1,404.48,82.24C351,61,295.18,59.6,238.53,78.18q-3.89,1.28-7.79,2.68Zm1.41,3.63h0q3.84-1.38,7.67-2.64A248.39,248.39,0,0,1,317,67.7c32.52,0,64.52,6.9,95.7,20.7a7.72,7.72,0,0,1,.93.53q2.72,2.1,5.38,4.3c.21.21.4.41.55.59a42.5,42.5,0,0,1-8.27-2.72c-57.56-25.46-117.69-26.91-178.61-5Q232.17,84.66,231.64,83.2ZM131.27,389.54c18.8,14.21,44.41,28.08,81.18,29.84q3.6.17,7.13.17c32,0,59.13-10.47,70.25-27.49,6.53-10,7-21.3,1.32-32.71-6.52-13.12-19.23-18.38-38.86-16a43.18,43.18,0,0,0-21.18,8.55,86.88,86.88,0,0,1,8.82-8.09c10.15-5.83,24.79-9.79,39.84-10,15.61-.16,31.64,3.75,43.53,13.88,36.73,31.3,23.19,70.95,2.64,86.8-38.37,29.61-97.29,13.65-136.73,1.64A207.53,207.53,0,0,1,131.27,389.54Zm210.51,64.67-.26.07C381.8,429.1,397.3,390.66,359.71,340a1.37,1.37,0,0,0,.46-.71,40.48,40.48,0,0,0-16.92-44.25A43.84,43.84,0,0,0,316,287.89a51.59,51.59,0,0,0-11,1.88c36.41-18.24,80.31-26.06,103.85-1.69C421.25,300.9,475.72,375.33,341.78,454.21Zm103.37-65.87.11-.67c7.19-21.3,9.22-45.14,5.52-66.37-.54-71.09-25.47-132.21-99.92-150.14-46-11.09-83.18-10.48-111.61.58q.17-1.39.33-2.79c.07-.6.13-1.21.19-1.81s.1-1,.15-1.43.12-1.21.17-1.82.08-.94.12-1.42.1-1.21.15-1.82q.11-1.39.2-2.77c0-.6.07-1.21.11-1.81s.05-.94.08-1.41.06-1.21.09-1.81,0-.92.06-1.39,0-1.21.07-1.82,0-1,0-1.51q0-1.53.06-3c0-.45,0-.9,0-1.36q0-.91,0-1.82c0-.45,0-.89,0-1.34,0-.61,0-1.21,0-1.82,0-.22,0-.43,0-.64q0-1.94-.11-3.86c0-.43,0-.86-.05-1.28q0-.91-.09-1.82c0-.42,0-.84-.07-1.26q-.18-3.15-.46-6.26c0-.4-.07-.8-.11-1.2q-.09-.91-.18-1.81c0-.39-.08-.78-.13-1.17q-.34-3.11-.79-6.17c-.05-.37-.11-.73-.16-1.09q-.14-.9-.28-1.79l-.18-1.09q-.51-3-1.12-6l-.21-1q-.19-.87-.38-1.74l-.23-1q-.68-2.92-1.46-5.77l-.27-1q-.24-.83-.48-1.66l-.29-1c-.17-.56-.34-1.11-.51-1.66,60.35-21.76,119.88-20.35,176.81,4.84.68.3,3.19,1.34,5.68,2.11,2.9.89,5.06,1.27,6.06.27q6.17,5.3,12,11.12a208,208,0,0,1,11.14,281.45Z"/></g></svg>