<svg xmlns="http://www.w3.org/2000/svg" viewBox="0 0 500 500"><title>clan-burrock</title><g id="Icons"><path d="M479,154.1A249.09,249.09,0,0,0,363.06,29.57c7.19,1.68,14.25,3.66,21.08,5.7,20.39,6.09,37.35,16.43,54.54,28.78,5.56,4,7.11,6.54,8.7,13.43.1.42,2,10.16,2.49,9.89,8.25-4.49-3.82-25-7.9-28.72-17.31-15.81-40.57-26.4-62.77-33.16-16.73-5.1-32.86-9.62-50.1-10.17A248.23,248.23,0,0,0,21.83,347.24c.94,2.23,1.93,4.44,2.94,6.63-6.3,7.55-10.25,15.83-9.68,27.13.78,15.22,15.24,13.89,26.27,8.91.95-.43,1.87-.9,2.78-1.38A248.14,248.14,0,0,0,479,154.1Zm-9.18,42.36c2.13,15.49,2.92,32,1.26,47.54-.68,6.34-1.51,12.92-4.14,18.8-1.09-9.5.7-19-.18-28.63a174.44,174.44,0,0,0-5.8-30c-1.83-6.71-1.31-12.12-7.8-6-5.37,5-10.49,14.35-12.6,21.22-3.37,11-3,15.92-14.67,20.67-3.18,1.3-21.31,2.07-20.65,6.17.07.43,17.26-2.88,19.09-3.14,5-.7,9.58-2.42,11.81,1,3.4,5.27-.88,16.52-1.93,21.54-.52,2.47-4.59,14.4-3.07,15.42,3.91,2.62,13.72-14.08,15.27-17.44,2.54-5.51,7.13-15.91,11.91-5.25,3,6.66,1.75,18.79,1.37,25.69-1,18.59-4.2,39.22-11.11,56.59,1.8-12.37,3.3-26.73,2.6-39.2-.33-5.82-2-11.46-2.3-17.29-.18-4.08,3.08-13.84,1.88-17.19-1.67-4.66-3.22,4-3.56,5.17-1.86,6.35-3.91,7.13-8.69,11.47s-9.84,16.31-14.85,17.74c-3.88,1.1-4.66-1-7.85-1.36a44.26,44.26,0,0,0-11.42.62c-6.18,1.51-2.65,1.64,2.7,3,3.62.89,8.94,1.42,10.21,5.14,2.85,8.4-11.2,24.83-18,28.3-4.3,2.2-34.6,4.44-34.94,5.59-.4,1.38,13.32,8.61,15,9.68,2.82,1.77,9.32,3.15,11,5.44-8.49,3.93-12.72,12.13-19.59,18.22-7.47,6.63-16.38,11.8-26.32,13.54-12.69,2.22-14-2.54-12.36-14.16,1.09-7.54,2.61-17,6.63-23.55,1.25-2,11.56-14.65,14.81-14.37.59.05,3.1,3.82,3.44,3.59,3.7-2.45-.38,1-.61-4-.92-19.53.87-39.44,16.47-52.94,1.83,2.51,12.7,13.22,7.44,4.36-2-3.4-5.43-5-7.12-8.93-1.27-2.93-1.48-6.57-1.94-9.71-1.36-9.3-2.79-19.49-.71-28.76,1.35-6-.61-6.35,6.78-2.55,3,1.52,6.76,4.93,9.38,2.92.46-.35-12.14-6.72-13-7.36-3.24-2.43-5-4.68-7.56-8.66-5.81-9.14-8.32-17.45-11.94-27.65-.94-2.63-3-4.4-1.28-6.72.84-1.14,9.58,1,8.62-2.45-.5-1.8-15.23-.39-17.67-.39-7,0-9.5-1.16-15.7-4.29-7.31-3.69-22.34-6.34-13.69-15.08,12.37-12.49-8.41,2.35-13.29,4.42-11,4.67-24.68,4.77-36.4,3.67,0-2.35,7.59-7.33,6.09-9.68-1.37-2.15-6.62,5.24-7,5.77-2.56,3.55-14.39,16.79-19.21,15.83-.25-13.75,4-27.12,4.57-40.83.17-4.25-1.64-13.52.4-16.56s10.59-6.08,13.51-8.51c2.25-1.87,18.27-25.22,21.8-16.05.74,1.92-5.93,9.41-1.61,8.51,2.8-.58,9.85-14.06,11.82-16.62,2.92-3.78,6.31-7.29,8-11.81,1.35-3.63.38-8.52,5.41-8.95,4.51-.39,7.29,6.63,9.38,9.83,3.32,5.06,4.5,9.54,6.22,15.34s1.84,12.34,3.08,18.07c2.69,12.35,1.6,23.22,1.72,36.4-2.88-12.44-4.65-26.05-9.33-37.92-2.05-5.21-4.79-10.3-7.21-15.36s-2.19-6.84-7.47-5.2c-8.67,2.68-16.09,17.13-19,24.95-1.84,4.94-.9,9.3-2.35,14.13-.31,1-8.32,8.54-3.44,10,.3.09,3.74-6.12,4-6.91,1.62-4.15,1.49-7.83,2.51-12.34,2.78-12.29,10.05-23.21,23.36-14.67,9.07,5.82,12.18,25.93,14.61,35.68.51,2.05,5.66,30.8,7.67,30.12,3.17-1.07.41-43.38-.16-49.55-.31-3.29-4.67-14-3.43-16.66.39-.84,7.89-5.36,8.91-6.15,3-2.31,7.44-6.55,11.75-3.86s.14,5.05,1.81,6.44c2.27,1.9,9.11-10.1,10.27-11.7,2.34-3.22,5-6.31,6.54-10,1.07-2.59.52-6.18,2.59-8.27,4.19-4.23,7.57-1.39,9.68,1.29,1.68,2.14,1.23,5.62,3.27,7.6.57.55,5,4.59,4.34,1.24,3.94,4.83,4.15,13,6,18.56,3,9.16,3.59,17.3,5.09,26.78,3.21,20.33,10.24,36.72,8.27,57.87-5.67-27.83-11.57-54.37-24.34-79.55-1.45-2.85-5.41-14.12-9-13.51s-11.69,10.28-14.2,12.82c-5.64,5.71-8,11.94-12,18.59-1.14,1.88-10.91,11.2-9.39,12.2,5.3,3.46,13.44-17.58,15.48-19.8,4.22-4.6,8.45-4.14,14.95-2.69,7.19,1.6,17.06,6.23,20.78,12.48,4.16,7,5.06,19.12,7.07,26.95,3.53,13.72,8.12,27.75,9.65,41.83,1.43,13.24,2.65-2.52,3.18-8.34.51-5.64-.4-12.48.74-17.92q-2.35-5.4,3.31-7.13l7.34-5.32c4.81,12.55,7,25,10.16,38,.54,2.21,2.22,5.69,2.06,7.93-.12,1.59-1.39,2.55-2.07,4.39-1.58,4.29-3.93,6.81.61,3.49,3.66-2.67,6.91-10.13,9.78-14C445.24,199,449,194,451.4,188s2.17-27.68,12.48-17.91C463.58,170.17,469.36,193.14,469.82,196.46ZM427.51,336.69c-3.86,13.26-16,21-25.52,29.81a128.75,128.75,0,0,1-36.13,24.11c12.63-11.55,26.89-20.92,37.5-34.56,5.17-6.64,9.75-13.79,15.78-19.71C423.17,332.41,430.42,326.78,427.51,336.69ZM300.33,357.91c1.72,8.56,3.76,17.07,7.5,24.95,4,8.44-.11,7-8.32,7.77s-10.1,2.6-11.22-5.9c-1.36-10.29-2.11-21-.79-31.31.25-1.94,3.22-12.62,2.44-13.26-2.74-2.25-5.19,7.31-6,9.68-3.28,9.41-3.51,18.7-4.66,28.23-.41,3.39-.84,10.2-2.17,13.14-2.2,4.85-2.06,3.74-7,2.62-3.81-.86-10.56-1.38-13.53-2.32-4.44-1.42-3.77.42-3.51-3.57.34-5.37,7.16-9.41,10.56-12.08,3.08-2.42,5.34-1.06,1.82-4.05-6.46-5.49-18.66,6.48-20.35-2.37-3-15.73,17.64,4.18,20.24-.7,2.17-4.07-25.46-29.44-29.21-25.95-.26.24-1.92,6.48-2.12,7.37-2.19-8-7.86-21.45,6-17,4.89,1.58,22.94,17,13,3.4-3.6-4.95-18-14.15-15.46-20.89,3.81-10.1,11.94,4.21,15.09,3.3,2.87-.83-.07-3.19-.88-5.33-1.9-5-2-4.78,0-8.59,1.83-3.43,3.73-5.64,5.16-9.65,1.72-4.82,2.55-5.9,7.34-8,8.48-3.76,12.7-3.36,16.3-12.52,9.44-24-2.4-.25-6.59-3-1.63-1.07,1.64-4.26.9-5.25-2.94-4,.1-2.76-6.4-3.53-6.87-.81-14.54-2.21-21.39-1.6-8.91.79-10.23,2.79-13.13-6.74-2.34-7.71-4.57-15.45-6.59-23.25,2.15,4.66,12-18.77,12.45-20.29,1.19-4.48,2.53-21.11,7.24-18.79,4.22,2.08,5.71,21.1,8.93,12.22.84-2.31-1.18-34.21,10.83-22.52,4,3.93,1.2,14.42,2,19.47,1.19,8,4.9,15.71,7.83,23.19,1.74,4.44,19.83,46.89,24.57,45.15,3.33-1.22-4-11.81-5-14.41-3-7.64-3.16-16.12-5.34-24-2.1-7.62-4.24-14.84-5.28-22.71-.79-6-3.4-16.82-1-22.67,3.31,3.78,21.37,27,27.49,24.44,5.29-2.19,1.4-25.87,1.27-29.6,5.79,2.38,11.57,5.61,17.14,8.43,4.22,2.13,4.22-.16,4.54,4.27.15,2-2.27,7.08-2.86,9-3.9,12.81-7.34,26.08-7.94,39.44-.28,6.16-3.56,15.83-1.65,21.8,2.54,8,3.93-6.67,4.18-9.2,1.18-11.73,5.58-22.86,10.66-33.73,1.55-3.31,4-12.39,7.53-11.75,1,.17,2.06,4.16,2.7,4.89a20.54,20.54,0,0,1,2.32,2.94c0-.22.34-.47,1.83-.1.14,0,2.26-1.84,4-1.13,2.32,1,2.75,4.14,2.84,6.33.27,6.55-5.85,13.49-8.89,18.84-3.87,6.8-8.17,14.53-10.28,22.11-2.9,10.41,2.77,1.65,5.66-2.75,3.6-5.47,14.09-27.71,23.34-24.81-1.29,4.6,1.81,11.82-3.22,14.48-1.27.67-4.12-1.55-6.14-.29-1.48.93-1,3.17-1.88,4.45-8,12.24-12.09,26.37-12.94,40.93-.48,8.21.1,16.43-.13,24.65-.33,12.12,1.65,6.26,3.16-1.23,1.61-8,4.34-15.78,7.05-23.47,2.07-5.87,4.3-16,9.19-20.43,3.58,9.24-3.5,19.83-6.07,28.49a87.16,87.16,0,0,0-3,14.58c-.51,4.32,1.38,13.43-.42,17.18-2.62,5.44-12.9,7-18.17,6.53-5.43-.48-18.74-7.17-9,.32,3.3,2.55,9.58,4,10.21,8.51.3,2.12-4.14,7.76-5,9.5-1.56,3.24-7.92,24-10.57,24.49-5.68,1.1-17.77-23.93-19-27.81-.63-2-.94-11.61-3.36-11.29S299.95,356,300.33,357.91ZM191.12,196.13c-2.21,2.6-1,15.55-1.79,19.37-1.73,8.44-5.51,15.69-10.16,22.88-1.78,2.76-6.23,9.52-10.22,9.52-1.7-7.5-8.62-23.25-3.22-29.86,2.38-2.92,6.73-3.75,9.29-7.34a40.13,40.13,0,0,0,4.9-10,61.1,61.1,0,0,0,3-30c-.79-6.1-.48-19.07,9.67-15.33,6,2.21,4.31,5.46,4.85,9.21,0,0-4,5,.08,3.45,2-.81,5.34-8.43,7.16-10.45,6.67-7.4,12.53-12.09,17.57-21.07,4.48-8,4.45-16.52,13.84-19.91.08-.2,10.2,12.2,10.84,14.15,2.78,8.6-.15,23.22-1.49,31.88-3.09,19.87-2.27,43-12.7,61,1.41-8.13,1.11-17.8,1.83-26.57.81-9.79,4.42-19.34,3.84-29.35-.31-5.38-1.19-23.83-6.18-27.25-3.48-2.39-8.49,6.16-11.76,9.89a116.68,116.68,0,0,0-16.7,24c-.66,1.3-7.59,17.84-8.88,16,5.2,7.59,12.77-16.18,13.37-17.55,5.09-11.66,14.66-19.11,21.46-29.41,5.24,9.46,3.37,13.44.86,23.82-1.32,5.43-3.13,10.68-4.65,16-1.09,3.89-.68,10.28-1.41,13-1.9,7.19-11.31,15.41-16.16,20.88-6.57,7.4-14.07,9.13-22.2,14a60.76,60.76,0,0,0,6.2-20.51C192.54,209.25,194.75,191.87,191.12,196.13Zm-58.28,98.68c-9,.28-20.79,5.12-26.57,12,3.86-11.68,11.36-21.86,22.87-26.14,10.45-3.88,34.88-15.12,32.69,5.47-.93,8.83.52,20.25-2.84,28.62-3,7.39-9.57,12.13-15.57,17.06-5.78,4.76-11.2,11.59-18,15-10.4,5.22-24.6,6.54-36,7.62a3.68,3.68,0,0,0-.15-.88c11.69-2.28,23.08-12.25,31.69-20,7.62-6.82,20-16,20.54-27.13C141.85,299.49,140.35,294.57,132.85,294.81ZM93.18,264.24c-5.19-.44,10.15-31.5,20.12-27,7,3.18.43,13.26-2.26,16.45C105.69,260,102.28,265,93.18,264.24ZM101,323.42a11.19,11.19,0,0,0-1.44,4.08,39.2,39.2,0,0,1-4.08,8.17C94.73,333.32,94.74,320.22,101,323.42ZM87.24,313.13c1.25-.31,4,1.7,3.8,2.87-1.48,6.87-2.74,15.18-4.78,21.8-1.06-4.69-1-10.43-1-15.34C85.32,321.08,84.78,313.75,87.24,313.13ZM90.4,256.6c-2.79,5.44-2.06,10.91-3.07,16.2-.75,3.91-3.79,5.77-.09,10.19-10.88-.1-10.31,13.38-17.83,19.59-8.37,6.91-16.89,2.74-20.49-6.66-7.68-20.05-2-49.06,10.45-65.9,7-9.44,14.83-17.84,24.6-24.35,5.94-3.95,14.31-12.88,21.26-5,5.34,6,2.3,25.71-.52,32.23-1.87,4.33-5.79,7.43-8.44,11.31C95.13,245.85,89.32,254.94,90.4,256.6ZM76.29,319.53c2.17-.48,5.08,11.85,5.21,12.85.08.64-1.4,9.91-2.09,8.33C78.59,338.79,69.21,321.07,76.29,319.53Zm-1.78,22.35c-.22,1.78-.87,3.41-.87,5.25-2.4-2.44-4.41-4.19-5.16-6.25-.34-.94-1.55-10.57-1.56-10.56C69.46,319,74.3,339.53,74.51,341.88Zm-10.25-6.81c2.15,4.08,2.07,4.16.42,8.83s-4.57-16-.72-12.08C62.07,332.26,63.89,334.38,64.26,335.06Zm49.22-125.63c2.17-11.49,10.92-26.33,22-30.78,7.21-2.91,20.47-3.07,21.76,6.84,1.33,10.16-12.18,25.44-19,31.72C129,225.8,110.33,226.07,113.47,209.44Zm42.19-31.63c-2.42-.86-4.9-2-7.35-2.92-3.86-1.38-10-2.18-3.08-8.9,7.2-7,24.53,2.79,15.81,11.7C157.38,181.44,160,179.34,155.67,177.81Zm3-29.07c1.31-7,8.45-15.45,12.31-21.28,11.65-17.61,26-36.36,40.8-51.44,1.14.33,16.41-14.77,18.63-16.62C237,54,243.3,48.2,250.23,43.25c-15.3,12.73-29.06,30.61-40.35,46.8-7,10-14,20-20.61,30.22-6,9.27-10.83,20.67-17.89,29.12C167.12,154.51,156.81,158.69,158.68,148.74Zm68.54,82.36c-2.39-9.32-8-25.08-.89-33.32,6.49-7.57,5.77,5.06,5.28,8.49C230.52,213.86,226.48,223.68,227.23,231.09ZM226,193.66c1-12,6.69-23.86,9-35.76,1.11,6.65.15,13.53.55,20.48-.73,4.31-1.66,8.59-2.51,12.88C230.26,189.14,227.18,191.14,226,193.66Zm-20,50c-1.07-3.95-6.56-25.13,4.41-21.63,4.3,1.37,9.48,20.39,10.92,24.47,2.12,6,7.93,15.87,5.9,21.58-1.77,5-10.09,12-15.51,9.26-7.57-3.87-11.45-20.08-12.75-27.46,1,2.48,9.74,24.3,14.08,21.24C215.42,269.45,206.81,246.78,206,243.68ZM385.41,88c.56.49,1.14,1,1.68,1.5A3.75,3.75,0,0,1,385.41,88Zm47.78,70.11c2.51-3.28,7.42-6,10.44-9C445.47,161.59,441,174,438,186c-1.25-6.12-3.63-11.94-5.76-17.79C430.31,162.71,429.94,162.39,433.2,158.14Zm12.16,6.68c1.83-9.44-.94-18.54,1.36-27.75.82-3.29,3.39-10.47-.79-4.95-2.18,2.88-2.24,9-2.77,10.45-3.6,10.25-24.2,20.24-33.59,27.08-.74-5.27-10.49-29.72-.67-27.84,4.14.79,3.85,7.43,5.59,9.33,1.59,1.74-.28,1.74,2.06,2.39.51.14,7.86-4.69,7.78-4.47,5.47.72,19.6-20,21.8-24.21,2-3.93,1.82-8.92,7.61-5.29,4.43,2.78,2,7.22,2.48,11.69.63,5.6,2.17,7.35.83,13.46-.83,3.79-2,7.57-3.06,11.32-4.13,14.73-9.84,28.13-15.81,42.14C438.89,186.9,443.21,175.88,445.35,164.82Zm2.38-48.68c-.26.11-.52.23-.79.36-2.93,1.47-7.2,11.57-9.41,14.51-3.81,5.08-7.37,11.83-12.75,15.37-3.34-7.42-12.25-11.74-15.94-19.49-4.76-10-11.78-17.18-15.28-28a46,46,0,0,0-5.86-12.1c-1.55-2.39-2.78-6.48-4.87-8.39-8.43-7.74-14.65,1.17-16.59,8.33-7-4.42-17-5.5-24.95-6.84-10.77-1.8-19.22-8.64-29.15-12.67-22.37-9.07-45.37-2.38-68.46-4.51,10.08-7.62,20-17.52,30.88-23.85C284,33.39,297.35,29.44,308.2,27a92.41,92.41,0,0,1,20.66-2A240.08,240.08,0,0,1,447.74,116.14ZM11.52,250.67c0-131.73,107.17-238.9,238.9-238.9a238.81,238.81,0,0,1,52.8,5.88,142.48,142.48,0,0,0-55.35,24.51c-9.59,7.1-19,15-27.89,22.9-2.76,2.45-5.79,7-8.8,8.51-4.61,2.3-11.28.71-15.92,2.47-8,3-13.38,11.57-20.88,15.5-5.35,2.81-12.16,2.41-17.9,3.75-6.33,1.47-11,4.31-16,8.35-10.07,8.18-21.41,17.64-28.69,28.46-3.15,4.68-3.35,11-6.23,15.17-3.77,5.47-11.49,8.52-15.76,14,9.53-25.6,25.86-49.91,42.65-71.76,17.8-23.17,42.26-35.64,71.06-40,4.59-.69,36.54-.72,35.58-6.75-.52-3.24-39.36.92-44.5,1.69-12.6,1.88-29.73,5.48-40.26,13-12.2,8.75-21.79,20.55-30.88,32C88.64,133.55,65.31,184,42,234.18c-2.65,5.7-1.86,10.27-1.21,16.25.91,8.33-1.17,15.15-2,23.35-1.49,14.29,2.28,28.92-.63,43-.75,3.66-2.72,6.59-1.45,10.46.54,1.66,5.53,5.46,5.58,6,.37,3.85-7.84,10.72-10.61,13.34A237.51,237.51,0,0,1,11.52,250.67Zm5.9,129.21c-.22-11.09,5.83-22.29,14-29.89,4.42-4.14,10.26-14.41,15.22-14,2,.15,3.87,3.33,5.4,3.26-4.42,4.08-8.91,9.9-12.17,14.08-2.59,3.32-6.33,8.05-5.17,12.74,1.52,6.12,7.46,6.89,12.14,4.61.81.52,7.75-2.94,8.35-3.25,4.87-2.47,8.71-5.7,13.08-9-1.44,4.29-5.74,9.08-8.23,13.16-3.5,5.74-9.07,10.15-14.76,13.65C35,391.51,17.76,396.44,17.43,379.88Zm233,109.69c-82.64,0-155.6-42.19-198.51-106.15A65.39,65.39,0,0,0,67.44,364.9c2.49-4.31,6.93-11.46-.47-8.35-5.74,2.42-8.56,9-15.51,9.68-14.12,1.35,6.85-16.43,9.83-20.16,2.51,4.17,5.22-1,7.83-.45,2.82.62,5.7,9.45,9,8.21,1.81-.69.32-7.14.91-8.9,1-2.89,3.74-1.95,5.12-6.29,1.8,8.09,7.24,1.44,9-3.67,3.78,8.3,7,.31,11.58-5,2.12,8,6.08-3.5,8.46-4.4,3.5-1.32,4.37,3.38,9.75-1,6.08-5,4.84-18.23,9.77-21.79,5.28-3.81,7.2-.47,6.54,4.62-1.72,13.17-22.44,28-32.67,34.92C100,346.72,92.7,348,86.3,351.49c-4.22,2.3-9,11.08-.18,9.65a6.32,6.32,0,0,0,2.5-3.18q.85-3.11,4.9-1.69c3.9-1.33,8.8-1.18,12.92-2,9-1.74,18.65-3.75,26.39-8.88,5.73-3.8,10.2-9.27,15.4-13.53,6.46-5.29,11.37-10.31,13.52-18.73a138.11,138.11,0,0,0,3.49-21c.27-2.94-.67-5.44-1-7.58a16.86,16.86,0,0,0-.92-7.08q-4.08-3.37.72-5.68c1.29-3.29,4-5.72,5-9.39.81-2.92-.35-8.31.6-10.76,1.25-3.24,6.84-5.93,9.73-9.54,5.89,12.69,11.2,25.08,18.69,36.92,2.46,3.89,4.71,5.35-.11,8.34-5.57,3.45-6.29-1-9.4-5.09-4.28-5.56-5.74-4.71-8,2.67-2,6.47-1.48,14.32-1.18,21,.1,2.31-.5,9.45,1.53,10.9,4.07,2.9,4.87-4.92,5.81-8,.47,6.06-3.69,20.11-11.11,17.88-5.36-1.61-8.68-22.11-12.56-5.57-2.24,9.55-.23,22.08,1,31.68.38,3,1.25,14.25,3.57,7.27,1.64-5-1.7-11.2.08-16.4,2.87,6.14,1.34,13,1.89,19.48.49,5.74,4.11,10.94,4.34,16.49-4.17-1.6-5.69-9.44-9.33-2.31-2.15,4.21.16,13.4,1,17.81.8,4.21,13.59,43.19,16.92,41.71,1.73-.77-4.37-28.35-4.76-31.83,6,5.89,7.83,15.13,13.93,21.39,7.66,7.86,16.55,10.72,26.36,14.76,7.63,3.15,12.43,9.05,19.65,12.69,9.75,4.92,21.35,4.83,31.91,3.33,10.73-1.53,17.68-4.8,28.52-2.13,8.28,2,15.56,2.9,23.13-2.12,6.34-4.2,10.38-11.77,18-14,6.53-1.91,20,5.28,24.5.51,4-4.17-3.23-11.6-2.9-17.13.35-5.8,15.35-12.35,19.41-16.41,6.72-6.73,12.28-15,17-23.24,2-3.44,3-7,4.88-10.41,2.41-4.36,5.79-5.78,9.67-9.2,10.26-9,26.45-27.35,17.3-41.91-3.83-6.1-3.86-1.35-3.51-8A33.4,33.4,0,0,1,429,300.32c3.89-8.48,11-13.41,17.51-20-.26,10.71,2.72,20.71,1.95,31.52-.67,9.35-.55,19-2,28.23-.67,4.29-8.47,23.83-.84,12.94,5-7.1,7.56-17.78,9.63-26.07,5.1-20.5,9.88-44.78,5.73-65.82-1.06-5.38-3.71-12.79-11.13-9.14-3.76,1.85-4.22,8.06-5.85,11.48a43.84,43.84,0,0,1-8.64,12.06c1.45-9.28,3.64-17.67,6-26.79,2-8,.73-14.21,1.24-22,.42-6.46,3.64-10.23,6.74-16,2.48-4.62,3.18-9.53,7.58-12.79,3.4,11.84,6.43,23.66,7.58,36,.34,3.61-1,33.5,1.69,33.71,8.19.62,8.07-40.43,7.94-44.58-.35-11.64-1.28-23.44-2.63-35-.81-6.94-.25-14.72-6.09-19.88-9.63-8.5-11.88,1.48-13.19,8.94-1.87,10.57-7.2,19-13.71,27.27,5.64-22.27,23.85-45.12,21.28-68.87a237.42,237.42,0,0,1,29.61,115.1C489.32,382.4,382.15,489.57,250.42,489.57Z"/><path d="M76,361c-3.12-1.74-7,4.71-3.66,6.47C75.93,369.37,79.31,362.84,76,361Z"/><path d="M69.25,379.65c-7.92,1-7.17,12.93.35,13.57C78.12,393.94,77.9,378.61,69.25,379.65Z"/><path d="M87.76,366.6c-5.57,2.13-10.33,14.24-1.48,14.79C96.38,382,99.51,362.12,87.76,366.6Z"/><path d="M102.67,372.51c2.71,5,7.1-2.26,5.1-6.09C106,363.1,101.23,369.82,102.67,372.51Z"/><path d="M79.08,413.78c2,7.1,14.47,1.9,6.58-8C83.73,403.38,78.59,412,79.08,413.78Z"/><path d="M114.44,387.91c-4-.84-6.89,6.72-4.28,9C115.87,401.84,119.44,389,114.44,387.91Z"/><path d="M193.34,161.74c-4.15-.18-6.92,4.77-7.44,8-.49,3,3.32,8.27,3,6.14-.88-6.71.87-6.08,3-10.87C192.12,164.66,197.9,161.93,193.34,161.74Z"/><path d="M349.87,217.07c0,.2.2.37,0,0Z"/><path d="M399.47,177.18c-2.12.59-12.34-2.53-10,.71,1.21,1.68,9.71,3.24,10.61,1.5C400.37,178.83,401.75,176.55,399.47,177.18Z"/></g></svg>