<svg xmlns="http://www.w3.org/2000/svg" viewBox="0 0 500 500"><title>clan-widowmaker</title><g id="Icons"><path d="M393,254.12l-10-5.88-10,5.88V238.88l10,5.88,10-5.88Zm-7-7.62,4,2.38v-4.75Zm-10-2.38v4.75l4-2.38Z"/><rect x="290" y="357.88" width="3" height="15.23" transform="translate(-120.41 144.38) rotate(-23.2)"/><rect x="308" y="349.88" width="3" height="15.23" transform="translate(-115.8 150.82) rotate(-23.2)"/><path d="M298.74,370.46l-6.24-13.73,9.76-4.18,6.24,13.73Zm-2.24-12.18,3.76,8.27,4.24-1.82-3.76-8.27Z"/><path d="M244.52,384.89l5.41-10.26-6.34-9.72,15.23-.7-5.41,10.26,6.34,9.72Zm7.29-7.39-2.19,4.15,4.75-.22Zm1.91-10.06-4.75.22,2.56,3.93Z"/><path d="M107,239.07l10.38,5.19,9.58-6.55,1,15.21-10.38-5.19-9.58,6.55Zm7.54,7.13-4.19-2.1.32,4.74Zm10.1,1.7-.32-4.74-3.87,2.65Z"/><rect x="363.28" y="296.6" width="3" height="15.23" transform="translate(-60.9 514.94) rotate(-66.16)"/><rect x="360.23" y="184.73" width="15.23" height="3" transform="translate(-42.58 146.92) rotate(-21.38)"/><rect x="200.42" y="113" width="3" height="15.23" transform="translate(-32.61 102.91) rotate(-26.53)"/><rect x="182.92" y="122.03" width="3" height="15.23" transform="translate(-38.49 96.04) rotate(-26.53)"/><path d="M194.41,116.09l7,13.34-9.5,4.74-7-13.34Zm2.95,12-4.23-8L189,122.14l4.23,8Z"/><rect x="131.87" y="176.29" width="3" height="15.23" transform="translate(-86.67 240.4) rotate(-68.45)"/><rect x="129.09" y="303.55" width="15.23" height="3" transform="translate(-117.02 87.41) rotate(-25.24)"/><polygon points="252.5 57.48 252.5 57.48 252.51 57.48 252.5 57.48"/><path d="M366.53,203.2l13.92-5.8-3.87-9.89-13.92,5.8Zm10.06-7.44-8.38,3.49-1.68-4.3,8.38-3.49Z"/><rect x="184.16" y="356.83" width="15.23" height="3" transform="translate(-212.21 402.79) rotate(-68.13)"/><rect x="202.54" y="363.92" width="15.23" height="3" transform="translate(-207.26 424.3) rotate(-68.13)"/><path d="M193.38,367l5.31-14.12,9.85,4-5.31,14.12Zm7-10.19-3.2,8.5L201.5,367l3.2-8.5Z"/><rect x="309.67" y="128.35" width="15.23" height="3" transform="translate(60.95 357.49) rotate(-63.86)"/><rect x="291.87" y="119.91" width="15.23" height="3" transform="translate(58.57 336.79) rotate(-63.86)"/><path d="M306.79,116.45l-6.35,13.68,9.53,4.68,6.35-13.68Zm1.75,14.32-4.14-2,3.82-8.24,4.14,2Z"/><path d="M415.75,328.68c-5.12-7.47-16.14-21.31-25.45-32.65a150.2,150.2,0,0,0,3.9-97.17c3.41-5.74,6.79-11.44,9.81-16.38,11.36-18.56,29.17-59.85,30.68-64s-7.58-29.54-15.53-50.38S390.75,14.3,388.48,10.89s9.47,28,15.91,41.67,17.8,60.6,17.8,65.91c0,3-17.91,36.1-33.69,64.61a150.39,150.39,0,0,0-21.93-36.22C372.8,127,379,106.4,379.77,103.31c1.52-6.06-65.91-81.06-70.24-86S277.88,2.17,273,1.8s10.61,5.68,16.29,8.71,76.13,91.66,77.27,93.18c.51.68-3.82,16-8.94,33.11A149.8,149.8,0,0,0,263.8,92.2c-8-17-9-34.69-11.29-34.72S249.22,75,241.37,91.85a149.67,149.67,0,0,0-95,41.54c-4.66-15.65-8.4-29.07-7.92-29.7,1.14-1.52,71.59-90.15,77.27-93.18S237,1.42,232.05,1.8,199.82,12.4,195.48,17.33s-71.76,79.92-70.24,86c.72,2.89,6.19,21.13,12,39.7A150.63,150.63,0,0,0,114,178.62c-15.12-27.39-31.23-57.31-31.23-60.16,0-5.3,11.36-52.27,17.8-65.91S118.8,7.48,116.53,10.89,93.8,47.25,85.85,68.08s-17,46.21-15.53,50.38,19.32,45.45,30.68,64c2.16,3.53,4.5,7.45,6.91,11.49a150.21,150.21,0,0,0,3.82,105.71c-8.58,10.53-17.89,22.32-22.47,29-9.09,13.26-26.89,37.88-24.62,42S85.85,419.21,93,431.33s34.47,56.44,32.57,51.51-26.14-51.89-32.2-73.1-12.5-38.26-10.61-42c1.24-2.48,19.87-33.72,34.81-55.62a151.19,151.19,0,0,0,36.89,45.26c-1.38,8-2.59,15.5-3.13,19.83-1.52,12.12-4.17,31.82-1.52,37.12S165,443.83,180.54,462s41.29,42,37.5,37.12-29.92-34.47-41.29-58-17-28.79-16.67-31.44c.2-1.4,2.4-23.49,4.87-44.48a149.85,149.85,0,0,0,174.74-2.94c2.62,21.81,5,46,5.22,47.41.38,2.65-5.3,8-16.67,31.44s-37.5,53-41.29,58,22-18.94,37.5-37.12,28-42.42,30.68-47.73,0-25-1.52-37.12c-.62-4.92-2.1-13.9-3.71-23.17a151,151,0,0,0,34.91-45.62c15.28,21.89,36,56.69,37.36,59.32,1.89,3.79-4.55,20.83-10.61,42s-30.3,68.18-32.2,73.1,25.38-39.39,32.57-51.51,26.14-56.44,28.41-60.6S424.84,341.94,415.75,328.68Zm-51-176.09a145.21,145.21,0,0,1,20.64,36.08c-2.56,4.61-5,9-7.3,13.09l-10.47,4.1,1.09,2.79,7.06-2.76c-3.65,6.5-6.66,11.82-8.57,15.17a117.89,117.89,0,0,0-13.18-37C355.95,179.76,360.22,166.87,364.76,152.59ZM203.65,255.2c-9.09-4.17-62.12-28-63.63-30.3-.14-.21-.75-1.27-1.75-3a113,113,0,0,1,13.31-36.64,1.57,1.57,0,0,0,.18.25c2.65,2.65,53.41,51.12,57.57,53.59s10.23,7.39,8.71,11.18S212.74,259.36,203.65,255.2ZM173.72,278.3a167.9,167.9,0,0,1-31.3-.39,113.29,113.29,0,0,1-5.9-36.16c0-2.62.1-5.22.27-7.8,16,6.27,76.74,28.81,77.08,35.26C214.25,276.41,206.68,276,173.72,278.3ZM149.8,144.59l2.32-2.53,1.37,4.48-3.31-.71Zm59.91,87.12C201,223,164.63,187.4,162.36,183.23c-.44-.81-1.66-4.27-3.33-9.32a114.28,114.28,0,0,1,53-39.27c-7.48,13.91-12.21,29.17-11.77,44.43.76,26.14,8.33,34.47,15.15,42s18.18,15.53,13.64,17S218.42,240.42,209.71,231.71Zm20.83,64.39c6.82,5.68-8,3.79-7.2,11.36s.76,11.36,7.2,18.18,15.91,15.91,11.74,10.23-5.68-9.47-5.3-14l.38-4.55s10,1.52,9.75-1.52l-.28-3,5.68-.19,5.68.19-.28,3c-.28,3,9.75,1.52,9.75,1.52l.38,4.55c.38,4.55-1.14,8.33-5.3,14s5.3-3.41,11.74-10.23,6.44-10.61,7.2-18.18-14-5.68-7.2-11.36c5.71-4.76,41.39,18.35,54.65,27.56a113.54,113.54,0,0,1-155.78,1.79C183.72,318,224.41,291,230.54,296.1Zm45.44-58c-4.55-1.52,6.82-9.47,13.64-17s14.39-15.91,15.15-42c.42-14.47-3.81-28.95-10.63-42.26a114.44,114.44,0,0,1,50.41,41.36,52,52,0,0,1-1.9,5.07C340.38,187.4,304,223,295.3,231.71S280.53,239.67,276,238.15Zm19.7.94c3.69-2.18,43.84-40.38,54.88-51A112.88,112.88,0,0,1,363,226.25c-10,5.65-53.46,25.21-61.61,28.95-9.09,4.17-12.88-1.14-14.39-4.92S291.51,241.56,295.68,239.09Zm-4.55,30.12c.31-6,52.26-25.66,72.73-33.57q.16,3,.17,6.11a113.28,113.28,0,0,1-6,36.6,177.15,177.15,0,0,1-26.7-.05C298.33,276,290.76,276.41,291.13,269.21Zm64.78-126.93-.71,2.33-8.41-8-2.65,11.29L333,151l11,10.53,2.65-11.29,7.47-2.12c-2.75,9-5.48,17.62-7.6,24.11A119.32,119.32,0,0,0,290.37,130a142.76,142.76,0,0,0-16.66-22.5,58,58,0,0,1-7.16-10A144.91,144.91,0,0,1,355.91,142.28Zm-4,3.37-4.51,1.28,1.07-4.56Zm-8.6,5.56-1.07,4.56-3.44-3.28ZM268.5,147.5l-14,31,14,31h-35l14-31-14-31ZM238.71,97a58.3,58.3,0,0,1-7.41,10.43,143.69,143.69,0,0,0-15.54,20.65,119.14,119.14,0,0,0-58.61,40c-1.79-5.57-3.87-12.19-6-19l3.31.71,3.39,11.09,10.3-11.24-11.35-2.42-3.39-11.09-4.67,5.09-.75-2.47A144.76,144.76,0,0,1,238.71,97Zm-80.86,53.5,4.59,1-3.21,3.5ZM139,148.63c3.87,12.28,7.7,24,10.19,30.87a118.05,118.05,0,0,0-14.69,35.77c-1.68-3-3.67-6.51-5.88-10.45l4.29,1.7,1.1-2.79-7.71-3L124,196.61l11,4.06,3.9-9.87-14.15-5.23-2.85,7.23-4.83-8.71A145.44,145.44,0,0,1,139,148.63Zm-14.23,45,1.7-4.29,8.52,3.15-1.7,4.29Zm-9.44,101.59a145.22,145.22,0,0,1-4-95.56C119.59,213.62,128,227.57,132,231.5c-.29,3.38-.45,6.8-.45,10.25A118.34,118.34,0,0,0,137,277.27c-3.74-.42-5.71-.43-7.17,1S122.28,286.83,115.33,295.27Zm22.11,1-8.13,4.05-1.25-2.64c1-1.23,1.9-2.32,2.74-3.26l4.66-2.32Zm23,27.11c-.42,2.75-2.74,15.46-5,28.25a146.09,146.09,0,0,1-34.66-44.19c1.82-2.59,3.56-5,5.17-7.1l1.9,4,13.5-6.73-3.53-7.49c1.07-.21,2.31-.44,3.68-.66a119.09,119.09,0,0,0,20.63,31.82C161.15,322.18,160.54,322.88,160.47,323.38Zm-13.79-34.66c13.92-2,35.1-4,44.47-4,12.88,0,36.36-1.89,29.92,3-5.17,4-40.65,21.35-54.8,30.6A114.14,114.14,0,0,1,146.68,288.71Zm103.6,98.21a144.38,144.38,0,0,1-84.64-27.3c1.63-13.34,3.31-25.39,4.57-30.25a118.53,118.53,0,0,0,163-2.75c.32.24.55.42.69.54,1.21,1.06,3.15,14,5.06,29.41A144.44,144.44,0,0,1,250.28,386.92Zm85.61-70.35c-15.56-9.54-47.1-25.09-52-28.8-6.44-4.92,17-3,29.92-3,8.47,0,26.59,1.64,40.27,3.4A114.07,114.07,0,0,1,335.89,316.57Zm13,31.6c-2-11.54-4-22.29-4.37-24.79-.13-.83-1.76-2.26-4.4-4.07a119,119,0,0,0,19.14-30.46q1.94.28,3.66.56l-3.4,7.7,13.93,5.79,2.72-6.17c1.61,2,3.41,4.33,5.35,7A145.92,145.92,0,0,1,348.91,348.17Zm14.61-52.65,1.87-4.22,8.39,3.49L371.9,299Zm11.7-17.21c-2-2-4.86-1.28-11.8-.48A118.31,118.31,0,0,0,369,241.75c0-2.69-.1-5.36-.28-8,1.57-.62,2.63-1.06,3.06-1.27,2.92-1.46,10.67-14,18.86-27.7a145.36,145.36,0,0,1-4,86.82C381.06,284.88,376.59,279.67,375.22,278.3Z"/></g></svg>