<svg xmlns="http://www.w3.org/2000/svg" viewBox="0 0 500 500"><title>clan-snow-raven</title><g id="Icons"><path d="M368.12,182.73l-.25-3.71c-1.35-19.64-5.05-40.51-6.38-42.86-.23-.4-.51-.49-.71-.47-.88,0-1.77,1.76-3.28,4.84a27.83,27.83,0,0,1-3.08,5.38c-2.35,2.61-6.3,5.51-7.55,5.54a.4.4,0,0,1-.15,0c0-1.54,9.79-15.18,11.85-17.71,1.37-1.69,1.14-5.77,1-8.75a25.76,25.76,0,0,1-.08-2.58c0-.34-.07-.55-.28-.61-.54-.18-1.29.87-4,5.07-1.35,2.06-2.74,4.18-3.76,5.42-2.81,3.41-10.2,8-10.88,7.44-.28-.31.9-2.61,7.29-9,2.88-2.88,8.28-12.65,9.71-16.22s1.4-9.27.84-11.88c-.08-.39-.31-.48-.43-.5-.82-.12-2.31,2.49-6,9.88a63.12,63.12,0,0,1-3.67,6.76c-1.91,2.35-9.61,8-10.81,8h0c.36-1.59,8.86-13.58,13.47-20.1,2.55-3.59,4.56-6.42,5-7.16,1.44-2.45,1.81-10.75,1.14-13.71a.54.54,0,0,0-.43-.46c-1.36-.25-6.19,6.56-14.59,19.22-1.79,2.7-3.2,4.83-3.66,5.39-1.59,2-2.26,1.59-3.12,1,.28-1.54,9.24-14.45,14.64-22.21,2.87-4.14,5.14-7.4,5.62-8.23,1.36-2.34.71-9.43-.41-11.38-.24-.41-.5-.61-.79-.61-.9,0-7.1,7.38-22.9,27.23-1.7,2.13-2.92,3.67-3.23,4a4.3,4.3,0,0,1-2.92,1.48,2.66,2.66,0,0,1-1.71-.35c.49-2,16.8-22.27,23-30,1.51-1.87,2.6-3.23,3-3.77,2.52-3.22,1.48-11.82,1-15.49l0-.15a.7.7,0,0,0-.47-.67c-1.41-.42-5.69,4.59-12.56,12.79-2.71,3.24-5.53,6.6-7.72,9-4.47,4.83-12.33,15.38-19.26,24.7-4,5.33-7.4,9.94-9.66,12.76L254,2.34,205.2,120.12a137.19,137.19,0,0,0-10.7-19C185.85,88.38,176,66.4,170.07,53.26c-2.28-5.08-4.09-9.09-5-10.86-.29-.53-.74-1.22-1.33-1.06-1.6.43-2.07,8.47-1.57,26.88l0,1.2c.09,3.63,2.3,7.75,4.44,11.72a64.6,64.6,0,0,1,3.17,6.43c1,2.55,3.86,7.27,6.62,11.84,3.12,5.15,7.38,12.19,6.78,13a.14.14,0,0,1-.13.06c-1.43,0-6.34-7.44-9.59-12.33-.65-1-1.26-1.91-1.83-2.75C169.09,93.64,165,85.57,162,79.68c-1.79-3.54-3.21-6.34-3.92-7.51-.12-.2-.5-.81-1-.69-1,.24-1.32,3.21-1.73,8.08-.12,1.48-.24,2.88-.38,3.73-.33,2,1,4.62,2.61,7.7a50.28,50.28,0,0,1,3.46,7.86c1,3.33,4.12,7.3,6.83,10.8,2.36,3,4.8,6.2,4.11,7,0,0,0,0-.07,0-2.38-.25-16-21.14-18.23-25.34-.26-.5-.63-1-1.09-.93-.83.22-.86,2.67-.73,8.65,0,1.36.06,2.76.06,4,0,3.48,5.63,11.26,10.15,17.52,2.72,3.77,6.12,8.47,5.79,9.06-1,.09-5.88-6.2-14.61-18.67-.82-1.16-1.35-1.93-1.52-2.15a.59.59,0,0,0-.67-.26c-1.33.39-2.35,6.64-2.72,10.75-.34,3.84,6.18,11.66,11.42,17.94,2.66,3.19,5.67,6.81,5.48,7.4-.89.88-3.13-1.31-5.29-3.42-.67-.66-1.36-1.33-2.05-2-1.58-1.43-3.55-4.67-5.3-7.51s-3.39-5.53-4.42-6a1.25,1.25,0,0,0-1.18,0c-1.89,1-3.73,6.31-4.18,9.54-.33,2.39,3.54,8,6.95,12.87,1.86,2.69,4.19,6,4,6.54-.95.15-6.31-6.84-8.61-9.83-1.14-1.49-2-2.66-2.45-3.11a.51.51,0,0,0-.52-.17c-.88.25-1.59,3.51-3.26,12.09-1.15,5.9-2.45,12.57-4,17.7-3.46,11.47-5,47.26-4.56,51.12.24,2.27,6.79,12.33,16.94,23.58,9.24,10.24,24.26,24.62,43.31,35q3.49,1.89,6.58,3.64l24.91,61c-.92,1.12-1.81,2.16-2.62,3.1s-1.47,1.72-2.07,2.45c-5.05,6.21-9.6,15-10.67,19.27-1,3.9-.16,12.44,1.84,14.65a1.49,1.49,0,0,0,1.36.58c1.94-.29,2.53-3.15,3.2-6.46a29.85,29.85,0,0,1,1.42-5.29c1.62-3.87,6.31-9.71,8.23-10.25a.53.53,0,0,1,.45,0c.65.81-3.81,9.87-6.46,15.29a91.68,91.68,0,0,0-4.12,9c-1,3.69,5,13.16,7.15,14.5a.8.8,0,0,0,.8.08c1-.5,1.5-3.43,2.15-8.18a44.75,44.75,0,0,1,1.46-7.75c.34-1,.77-2.21,1.21-3.54,1.3-3.89,3.49-10.4,4.51-10.69a.05.05,0,0,1,.07,0c.9.73-1.11,7.47-2.74,12.88-.56,1.88-1.15,3.82-1.63,5.58-1.56,5.59-1.72,12.11-1.81,16,0,1.31-.06,2.34-.13,2.92-.31,2.66,8.06,11,9.47,12.24a.46.46,0,0,0,.48.09c.89-.36,1.34-5,2.17-15.49.54-6.93,1.36-17.39,2.32-17.77,1.6.6,2,24.14,2.21,33,.06,3.25.11,5.82.17,6.86.18,3,5.17,8.76,9.94,12.39.06,2.66.19,5.33.5,8,.19,1.68.42,3.34.64,5,0,.26-.08.53-.13.8a.84.84,0,0,0,.35.85l.07.53c0,.32,0,.64,0,1a.86.86,0,0,0,.18.49,69,69,0,0,1,.57,8.21.74.74,0,0,0,.33.65c0,4.83,0,9.65.17,14.47q.16,4.29.42,8.56c.12,2-.08,4.38.51,6.31.75,2.44,3.26,2.07,4.38.08a9,9,0,0,0,.66-4.42,53.65,53.65,0,0,1,.94-8.07c.71-4.59-.36-8.7-.65-13.24-.33-5.42,1.16-10.32,2.09-15.57a21.44,21.44,0,0,0,.13-5.91,54.47,54.47,0,0,1,0-7.88c0-.67.06-1.35.08-2h0c2.1-4.78,4.17-12,6.06-19.17.36-1.38.62-2.38.76-2.78.38-1.14-.15-5.19-.77-9.88-.67-5.15-1.59-12.19-.71-12.87a.54.54,0,0,1,.56-.13c1.26.46,2.35,5.36,3.14,8.93a54.54,54.54,0,0,1,.78,7.58c.25,4.13.44,6.68,1.2,7.35a.67.67,0,0,0,.51.18c2.08-.18,6.13-15.82,6.73-21.89.39-3.86-1.48-10.24-3-15.37-1-3.47-2.16-7.4-1.61-7.92.85.2,3.34,5.25,7.77,18.8a23.83,23.83,0,0,1,1.19,7.57c0,1.88.06,3,1.68,3.09h.08c2.83,0,5.23-8.71,6.14-12.48.78-3.25-1.69-9.83-3.87-15.63l-.56-1.49a41.28,41.28,0,0,0-3.71-7.1c-1.38-2.25-2.48-4-2-4.78a.21.21,0,0,1,.21-.1c1.68,0,7.32,6.81,9.52,10.56a25.29,25.29,0,0,1,2.24,6.67c.6,2.54,1,4.22,2,4.22s1.86-1.48,2.6-2.92a9.71,9.71,0,0,1,1.31-2.12c1.4-1.4.89-12.47.77-14.69-.13-2.49-5.23-7.56-9.72-12l-1.25-1.25a39.49,39.49,0,0,1-4.6-6l32.56-73.9c4.54-3.37,9.08-6.76,13.23-10,15.82-12.18,35.59-36,37.43-39C370.5,217.22,369.45,202,368.12,182.73ZM253.19,8.53l.17,18.34L210.11,131.34l-.48-1.15c-1-2.32-2.12-5-3.48-8ZM212.37,293.9c15.51,10.54,18.37,17.31,19.83,27,.75,5-.66,9.91-2.93,14.33ZM239.23,314A4.57,4.57,0,0,0,241,315a7.05,7.05,0,0,0,2.07,2,.78.78,0,0,0,.12,1,2.19,2.19,0,0,1,.53.94,3,3,0,0,1,.06.62,3.06,3.06,0,0,0-2.55-.6,5.78,5.78,0,0,0-4.2,3.22,3.31,3.31,0,0,1-.84-1c-1.53-2.81.8-5.61,2.86-7.27A.74.74,0,0,0,239.23,314Zm0-6.81a4,4,0,0,1,4.87-2.66.75.75,0,0,0,.72.89,14.2,14.2,0,0,1,.83,5.42.92.92,0,0,0-.6.31l-.2-.18a.84.84,0,0,0-.81-.22c-.9.33-1.64,1.38-2.47,1.84a.77.77,0,0,0-1.09.17,1.47,1.47,0,0,1-.42-.19.72.72,0,0,0-.71-.07A21.82,21.82,0,0,1,239.23,307.23Zm4,19.23a4.37,4.37,0,0,0,.87.23c1.35.22,1.79.8,2.31,2a2.35,2.35,0,0,0,.73,1.06l.09.06c-.25.18-.51.35-.78.51l-.22.12-.29.07-3.33.8a.66.66,0,0,0-.18.07c-.33-.18-.65-.36-1-.56-2.49-1.64-1.8-3.89-2.47-6.28.67.12,1.37.22,2.07.3a.46.46,0,0,0,0,.08,5.38,5.38,0,0,1,.52,2.06c0,1.06,1.7,1.07,1.65,0C243.3,326.8,243.28,326.63,243.25,326.45Zm2,6.57-.17-.12,1-.49.63-.34c.58-.14,1.16-.29,1.72-.47a3.14,3.14,0,0,0,2-1.91,1.22,1.22,0,0,0,.09-1.67.84.84,0,0,0-1.43,0c-.12.17-.25.32-.39.47a2.51,2.51,0,0,1-.77-.66c-.11-.18-.14-.41-.24-.6a4.21,4.21,0,0,0-1-1.26,12.11,12.11,0,0,0-2.61-1,7.09,7.09,0,0,0,5.76-2.74c.56-.78,1.24-2.08.15-2.75s-3,.47-4.37,1.25a5.2,5.2,0,0,0-.53-2.83c1.89.57,4.73.79,6.33-.24a1.66,1.66,0,0,0,.15-2.93,14.81,14.81,0,0,0-3-1.12,7.41,7.41,0,0,1-1.44-.77.85.85,0,0,0,0-.13,15.84,15.84,0,0,0-.81-8,5.71,5.71,0,0,0,1.58-2c3.07,4,2.81,9.52,5.21,13.91a4.34,4.34,0,0,0,0,1.52.64.64,0,0,0,.23.39c-1,1.6-2,3.09-1.95,5a11.5,11.5,0,0,1,0,3.61c-.16.65-.17,2.77-.57,3.18a.77.77,0,0,0-.19.82,14.7,14.7,0,0,1-3.39,6.21A5.75,5.75,0,0,0,245.28,333Zm9,19.73a49.91,49.91,0,0,1-.78-8.6l.36-9.18a.72.72,0,0,0-.24-.6,8.74,8.74,0,0,1-.09-.93,18.94,18.94,0,0,1,4.87,5.23c1.61,2.91,1.62,6.3,1.2,9.52-.35,2.65-1,5.24-1.34,7.89a69.23,69.23,0,0,0-.48,8.48,1.29,1.29,0,0,0-.41,0c-1.11.1-2.42,1.42-3.34,2.09a53.27,53.27,0,0,1-.39-7.31C253.73,357.08,254.53,355,254.24,352.75Zm-5.48-51.61a.8.8,0,0,0-.2-.17c.21-.67.4-1.37.59-2.06a53.38,53.38,0,0,1,2.21-6.26A87.49,87.49,0,0,0,254,304.52a1.26,1.26,0,0,0,0,.15c-.68,3.17.27,6.55,0,9.74l-.06.12C252,310.15,252,305,248.76,301.14Zm4.12-10.31c1.32,3.1,3.1,6.06,4.69,9q-.7,3.42-1.35,6.86c-.07-.29-.15-.58-.22-.87C254.84,301,253.09,295.88,252.88,290.83Zm.9-2.17a.83.83,0,0,0-.33-.42c.19-.37.39-.73.59-1.1a32.26,32.26,0,0,1,5.14,8.82.72.72,0,0,0-.92.57c-.06.28-.12.56-.18.83A58.49,58.49,0,0,1,253.78,288.65ZM252.19,188c-1.38-.55-5.1-2.62-4.14-3.72,1.35-1.54,8.13-.83,8.27.83S253.57,188.55,252.19,188Zm-3.85,167.94a.68.68,0,0,0-.09-.41.8.8,0,0,0,0-.29l-.25-15.3a.48.48,0,1,1,0-1,16.45,16.45,0,0,0,3.77-5.94,10.26,10.26,0,0,0,.31,2.56c-.24,4.89-1,10.14,0,14.95a14.29,14.29,0,0,1,.44,4.94c-.14,1-.41,2-.52,3a40.74,40.74,0,0,0,.26,7.51c.09,1.19.17,2.38.26,3.55-1.26,2.53-1.68,5.36-2.69,8C248.65,370.3,247.81,363.26,248.34,355.93ZM253,429.55a.69.69,0,0,0-.7-.79,97.56,97.56,0,0,0-.62-11.12c0-.1,0-.2,0-.3a.68.68,0,0,0,.46-.74,37.91,37.91,0,0,1,0-7,.67.67,0,0,0-.25-.63c.08-.45.16-.9.25-1.35a.81.81,0,0,0-.29-.83,25.65,25.65,0,0,0,.42-4.61.82.82,0,0,0,.18-.45c.35-3.24,1.19-6.69.34-9.89-1-3.81-1.67-7.67-2.36-11.55a.86.86,0,0,0,.14-.19,38.39,38.39,0,0,0,2.42-7,37.34,37.34,0,0,0,1.9,8.32c2.19,6,1.49,11.42.15,17.54a.8.8,0,0,0,.18.73,16.8,16.8,0,0,0,2.1,11.32.93.93,0,0,0,.12.16,41.12,41.12,0,0,1-1,10.29c-1.78,7.34-1.42,14.65-.84,22.07a13.15,13.15,0,0,1-1.78-.88C253.28,438.23,252.54,433.95,253,429.55Zm1.79,46q-.09-5.28,0-10.55a.73.73,0,0,0-.38-.69c-.09-2.69-.38-5.35-.71-8a18.61,18.61,0,0,1,.67-4.89.78.78,0,0,0-.53-1,45.15,45.15,0,0,0,0-7.22,11.84,11.84,0,0,0,1.77.82c0,.52.08,1,.12,1.55a142.23,142.23,0,0,1-.46,24.94C255,472.23,254.88,473.9,254.75,475.57Zm5.15-30.16a.68.68,0,0,0-.8.59,8.86,8.86,0,0,0,.22,4.6,5.94,5.94,0,0,1,.53,2.81,25,25,0,0,1-.73,2.94.78.78,0,0,0,.19.75c-.34,1.66-.72,3.33-1,5.06a37.34,37.34,0,0,0-.2,10.78,46.72,46.72,0,0,1,.74,6.89,47.2,47.2,0,0,1-.92,6.74,32.74,32.74,0,0,0-.4,5c0,.79.24,2.35-.22,3.06a3.36,3.36,0,0,1-.81,1,.86.86,0,0,0,.06-.48c-1.27-8.53-.42-17.11.37-25.64a141.66,141.66,0,0,0,.28-24.94s0-.09,0-.13h.09c.88,0,1.77-.77,2.66-2.1C259.91,443.36,259.89,444.39,259.89,445.41ZM261,425.49a96.61,96.61,0,0,0-.82,11.29c-.07,1.49-.17,3-.24,4.48-.93,1.62-1.84,2.63-2.7,2.63h-.13c-.33-3.9-.65-7.82-.58-11.74a62.34,62.34,0,0,1,1.9-12.65,30.25,30.25,0,0,0,.52-3.22l2.29,4.94c-.11,1.26-.22,2.52-.35,3.78A.73.73,0,0,0,261,425.49Zm2-48.05c-.08,1.22-.13,2.45-.16,3.68a.79.79,0,0,0-1.15.73l.38,13.58a.75.75,0,0,0-.28.44c-.66,2.73,0,5.52-.14,8.31-.12,3.24-.35,6.49-.53,9.73a3.16,3.16,0,0,0-1,.47.84.84,0,0,0-.19.18l-.26-.56a.68.68,0,0,0-.56-.42c.2-6-.94-12.25-1.53-18.19a.88.88,0,0,0-.19-.47,25.73,25.73,0,0,0,0-10.72c-.64-2.59-1.85-5-2.42-7.6a58.53,58.53,0,0,1-1-8.33.71.71,0,0,0,.6-.12c.42-.3,2.29-2,2.71-1.89.58.12,1.62,1.93,1.91,2.36,1.22,1.75,2.24,3.65,3.33,5.49a.74.74,0,0,0,.64.4C263.21,375.48,263.13,376.46,263.06,377.44Zm1.73-30.76c-.27,1.11-.53,2.23-.69,3.38a35.71,35.71,0,0,0,0,8.23c-.37,4-1.24,8.26-.44,12.2l0,.06c-.07.58-.12,1.16-.18,1.74a42.6,42.6,0,0,0-4.15-6.35.43.43,0,0,0,0-.08,70.33,70.33,0,0,1,.77-11.5,57.12,57.12,0,0,0,1.3-9.27c0-6-3.1-9.84-7.62-13.48a.87.87,0,0,0-.31-.17c.18-2.11.74-4.26,1.09-6.25q.84-4.83,1.67-9.66c.87-4.93,1.78-9.86,2.78-14.76a.81.81,0,0,0,.3-1.09l0-.09c.14-.69.28-1.38.42-2.06a30,30,0,0,1,.9,3.44q.07.39.13.73c-.37,1.33-.29,2.57-.76,3.92a11.25,11.25,0,0,0-1.05,3.34,3.1,3.1,0,0,0,.51,1.61l0,0a22.2,22.2,0,0,0-2.4,3c-.44.59.29,1.42.94,1.22l.3-.09a.83.83,0,0,0,.75.5h.55a.8.8,0,0,0,.46-.15s0,.09,0,.14c-.12,1.16.55,2,.4,3.25a4,4,0,0,1-.29,1.19c-1.09,2.08-2.28,1.11-3.28.44-.83-.57-1.56.62-1,1.3a16.63,16.63,0,0,0,5,4.33s0,0,0,0a5,5,0,0,1-.83,2.47q-.26,1-1.42.6a9.27,9.27,0,0,1-1.6-.62.84.84,0,0,0-1.25.71c-.08,4.46,6.1,5.24,9.5,5.81a.82.82,0,0,0,0,.23.8.8,0,0,0,.52.87,47.93,47.93,0,0,0-1.1,10.5A.74.74,0,0,0,264.79,346.68Zm-2.1-36.44a1.66,1.66,0,0,0-1.5-.6l-.11,0a1.49,1.49,0,0,1-.12-1.81c.15-1.09,1.07-2,1.23-3.08a5.4,5.4,0,0,0,0-.83l.17.07c1.13.4,2.26.38,3.31,1.08a4.32,4.32,0,0,1,1.77,5.65,5.85,5.85,0,0,0-.24.86.8.8,0,0,0-.38.2,6.8,6.8,0,0,1-4.27,1.79A2.36,2.36,0,0,0,262.68,310.23ZM266.5,333a8,8,0,0,0-4.56-4.73,10.92,10.92,0,0,0,.52-2,2.67,2.67,0,0,0,.41,0,.63.63,0,0,0,.4.25,4,4,0,0,0,1.83-.1.84.84,0,0,0,.58-1,.68.68,0,0,0-.09-.19,27.1,27.1,0,0,0,3.14-1.41c.16.5.41,1,.66,1.64C270.38,327.9,268.27,330.82,266.5,333Zm2.38-11.45c-.06.14-.1.28-.14.41a1,1,0,0,0-.24.09,25.57,25.57,0,0,1-3.78,1.72,5.79,5.79,0,0,0-.1-.86c-.24-1.21-1-3.83-2.63-3.67l.07-.32a8.42,8.42,0,0,0-.31-2.81l3.54.19c1.06.06,1.06-1.6,0-1.65h-.13a9,9,0,0,0,2.21-1.21,6,6,0,0,0,.44,1c.5.91,1.21,1.69,1.72,2.59C270.47,318.69,269.54,320,268.88,321.56Zm.36-95.49c-1.54-.51-1.74-6.07-1.83-8.45,0-.55,0-1-.06-1.25-.07-.77.68-2,1.64-3.58a42.18,42.18,0,0,0,2.48-4.55c1.81-4,.35-15.7-1.09-20.22-1.39-4.34-9.67-10.13-12-11.29s-10.15-1.13-10.48-1.13h0a43.66,43.66,0,0,1-5.32.28c-2.86,0-3.63.51-4.89,1.34l-.77.49a1.36,1.36,0,0,0-.68.83,2.17,2.17,0,0,0,.57,1.55,2.65,2.65,0,0,1,.68,2.17.88.88,0,0,1-.4.6c-.5.27-1.52-.07-2.69-.46a20.07,20.07,0,0,0-3.23-.86,7.64,7.64,0,0,0-4,0,34.19,34.19,0,0,1-3.44.65c-4.91.71-15.16,6.54-17.65,8.61-.35.29-.79.72-.61,1.17.32.8,2.4.69,6,.45,1-.07,2-.14,2.88-.17a6.28,6.28,0,0,1,4.19.9,17.73,17.73,0,0,0,3.57,1.57c.81.26,1.65.49,2.55.72,4.25,1.14,8.65,2.31,10.09,7.63,1.54,5.7-2.29,9.52-5.67,12.9-.45.44-.88.88-1.3,1.31a16.4,16.4,0,0,0-3.28,5.44c-.76,1.8-1.19,2.75-2.18,2.75a5.72,5.72,0,0,0-1.07.12c-1.4.25-2.33.42-8.65-6.92-1.78-2.06-3.29-3.57-4.5-4.79-4.13-4.14-5.53-5.53-6-16.69-.66-13.91,3.66-22.57,7.39-27.39a24.38,24.38,0,0,1,5.26-4.42c3.46-2.43,7-4.95,7.48-8.68.69-5.83-5.24-14.32-8.48-18a23.13,23.13,0,0,1-2.78-5.26L254.2,29.15l39.87,91.59c-5.4,9.79-11.49,22.82-15.11,31-3.53,8,2,11.34,6.83,14.3a23.43,23.43,0,0,1,4.53,3.24c4,4.1,4.49,12.31,1.58,25.12-1.83,8-4.76,12.72-7.61,17.26a61.68,61.68,0,0,0-3.95,7C277,225.84,271.32,226.75,269.24,226.07Zm5.29,91.23c-1.08-9.8,7.69-18.64,12.93-23.91.75-.76,1.44-1.44,2-2.07a117.46,117.46,0,0,1,11.33-9.3L279,331.6A50.4,50.4,0,0,1,274.52,317.29Z"/></g></svg>