<svg xmlns="http://www.w3.org/2000/svg" viewBox="0 0 500 500"><defs><style>.cls-1{fill:#fff;}.cls-2{fill:#798185;}.cls-3{fill:#ff0;}.cls-4{fill:#272530;}.cls-5{fill:#4d61a1;}</style></defs><title>clan-ghost-bear_COLOR</title><g id="n3"><polygon class="cls-1" points="121.84 118.33 120.21 123.99 108.42 101.84 113.6 102.86 121.84 118.33"/><path class="cls-1" d="M164.42,198.3H30.48A226.23,226.23,0,0,1,101.54,80.19l8,15.07-3.65,1.86-4.77-9A204.33,204.33,0,0,0,37,194.86H158l-35.79-67.22,3.45-2.24Z"/><polygon class="cls-1" points="76.16 305.61 49.43 305.61 52.51 301.68 71.96 301.68 76.16 305.61"/><path class="cls-1" d="M157.31,301.68,90.23,409.17A225.84,225.84,0,0,1,30.48,301.68H44.57v3.93H37.79A199.88,199.88,0,0,0,90.65,400.7L150,305.61H79.27l-.41-3.93Z"/><polygon class="cls-1" points="204.27 431.16 191.45 451.71 189.58 445.25 197.55 432.49 204.27 431.16"/><path class="cls-1" d="M308.28,468.5A226.45,226.45,0,0,1,177.87,464l6.74-10.8,4.07,2.93-3,4.77a201.26,201.26,0,0,0,115.88,4l-47.76-89.7q-2.61,1.29-5.32,2.55L248,378l-.48-.25q-3.8-2-7.44-4L207,426.86l-4.35-2.48L239.07,366q4.11,2.26,8.37,4.45l.55.28.55-.25c2-1,4-1.91,6-2.87Z"/><polygon class="cls-1" points="394.89 402.36 389.71 401.46 379.62 382.52 381.18 376.62 394.89 402.36"/><path class="cls-1" d="M470.52,301.68A226.13,226.13,0,0,1,399.47,419.8l-6.41-12,3.66-2,3.23,6.07A202.38,202.38,0,0,0,463.5,306.21H345.88l-1.38,1.51L380.34,375l-3.45,2.35-39.41-74,1.54-1.69Z"/><polygon class="cls-1" points="453.46 193.22 449.48 198.3 427.68 198.3 422.25 193.22 453.46 193.22"/><polygon class="cls-1" points="309.78 57.4 297.76 76.65 291.45 78.37 307.84 52.12 309.78 57.4"/><path class="cls-1" d="M323.14,36l-9.86,15.81-3.78-2.34,5.73-9.18a198.89,198.89,0,0,0-114.59-4l53.89,101.21L291,79.1,295,81l-41,65.65L192.73,31.49A226.58,226.58,0,0,1,323.14,36Z"/><path class="cls-1" d="M456.43,193.22h5.31a192.57,192.57,0,0,0-50.94-91.63l-57.18,91.63h67.85l.54,5.08h-78.3L410.78,90.83A226,226,0,0,1,470.52,198.3H456.43Z"/></g><g id="n2"><path class="cls-2" d="M346,73.8l-3.89-30.37-.5-3.94h0a66.91,66.91,0,0,1,4.69,5.85c16.44,22.88,25.28,61.21,28.88,75.1L334.6,186.16a30.29,30.29,0,0,0-2.77-6.21c-5.55-8.88-15.33-11.67-26.94-7.72a48,48,0,0,0-5.76-6.39l-.29-.27-.39-.06c-6.4-1-15.3.7-23.63,3l15.64-25.3-4.82-13.92,26-42L294.48,79.1l22.62-6.15-8.1-22Z"/><path class="cls-2" d="M343.82,292.67c-24.49,27.09-47.64,52.68-95.78,75.23-39.43-20.34-68.45-45.11-91.24-77.87,4-21.15,10.42-49.08,25-78.46l.31-.63-.38-.6c-7.2-11.28-10-19.26-4.33-29.11,6.16-10.67,13.56-13,24.75-7.84l1,.46.59-.91a53.71,53.71,0,0,1,4.33-6c23.73-.57,34.43,5.39,41.53,9.35,1.5.83,2.79,1.56,4.06,2.14l.52.24.52-.24c9-4.12,31.12-12,43-10.51a46,46,0,0,1,5.73,6.52l.56.76.88-.32c6.34-2.32,18-4.58,24.84,6.39.45.72,10.89,17.89-4,32.69l-.56.56.27.75c10.83,30.08,16,54.12,20,75.6Z"/><path class="cls-2" d="M113.26,65.44a72.48,72.48,0,0,1,8.16-.84C149.21,63.24,184.93,75,198.3,79.07l46.87,92.06c-7.44-3.58-18.48-7.2-37.72-6.66l-.57,0-.36.44a55.5,55.5,0,0,0-4.29,5.76c-9.5-4.1-16.93-3-22.9,3.61l-5.58-11-14.4-3.11-22.39-44L121,126.58l6.49-22.52-23-4.53,38.8-19.75L116.73,68l-4.28-1.91-.76-.34Z"/><path class="cls-2" d="M22.84,282.74l-3.63,2.94a68.45,68.45,0,0,1,3-8.13c1-2.26,2.08-4.54,3.29-6.81,12.51-23.53,36-46.86,44.95-56.19H177.6a283.27,283.27,0,0,0-20.2,60.1h-23l-9.31,11.42H75.69l2,18.89L60.56,289,46.08,307.45V263.91L26.47,279.8Z"/><path class="cls-2" d="M155.81,430.62l1.44,25.22.26,4.53.27,4.78a67.84,67.84,0,0,1-4.64-6.77c-1.18-1.95-2.3-4-3.37-6.11-12.11-24-17.4-57.38-19.79-70.23l46.16-64.1a239.07,239.07,0,0,0,46.5,38.28l-6.51,9L220,379.49l-28.85,40.06,16.5,9.42-23,4.55,6.53,22.55Z"/><path class="cls-2" d="M380.91,439.44c-2.52.2-5.11.28-7.74.28-26.47-.07-57.63-9.56-69.95-13l-35.55-66.08a240.3,240.3,0,0,0,48.94-35.89L325.85,342l14.47,2.78,23.39,43.47,15.69-10.71-6,22.66,23.13,4L358.21,424.8l22.85,9.56,4.42,1.85,4.63,1.94A69.35,69.35,0,0,1,380.91,439.44Z"/><path class="cls-2" d="M479,223.42c-1,2.29-2.1,4.6-3.31,6.9-12.48,23.59-36.1,47-45,56.36H347.21A459.56,459.56,0,0,0,332,226.59h34.65l9.31-11.42h49.36l-2-18.89,17.13,16,14.49-18.48v43.54l19.76-16,3.64-3,3.47-2.81A68,68,0,0,1,479,223.42Z"/></g><g id="n1"><path class="cls-3" d="M234.85,280.11c-.45.73-1.47,2-2,1.38-2.35-2.45-2.38-8.5-2.51-11.3-.12-2.44.17-6.57.79-6.87s5.55,1.17,6,3.19A19.93,19.93,0,0,1,234.85,280.11Z"/><path class="cls-3" d="M239,270.83c-.53-1.37-.94-3.34-.22-3.76h0c1-.56,6.53,0,7.77,1.22.64.64,1.24,5.26.08,6.42C245.73,275.61,240.58,274.92,239,270.83Z"/><path class="cls-3" d="M240.8,333.84c0-2.53,1.36-7.13,2.53-8.31.73-.73,2.25,1.26,2.73,2.31.34.74-.33,5.06-1.94,6.67C243.43,335.22,240.8,335.43,240.8,333.84Z"/><path class="cls-3" d="M251.14,335h-4.4c-1.46,0-.61-2.45.69-4.3h0c1.3-1.85,2.82-1.6,3.71-.06S252.86,335,251.14,335Z"/><path class="cls-3" d="M249.7,275.07c-1.16-1.34-2.44-6.24-1.23-6.28h.12a21.34,21.34,0,0,0,8.31,0H257c1.2,0-.07,4.94-1.23,6.28a4.24,4.24,0,0,1-6.09,0Z"/><path class="cls-3" d="M258.3,335h-4.4c-1.72,0-.92-2.77,0-4.36s2.41-1.79,3.71.06h0C258.92,332.58,259.76,335,258.3,335Z"/><path class="cls-3" d="M260.92,334.53c-1.61-1.61-2.28-5.94-1.94-6.67.48-1.06,2-3,2.73-2.31h0c1.18,1.18,2.53,5.78,2.53,8.31C264.25,335.43,261.61,335.22,260.92,334.53Z"/><path class="cls-3" d="M266.5,270.83c-1.59,4.09-6.74,4.78-7.63,3.89-1.16-1.16-.56-5.77.08-6.42,1.24-1.24,6.8-1.78,7.77-1.22h0C267.43,267.49,267,269.46,266.5,270.83Z"/><path class="cls-3" d="M275.19,270.19c-.13,2.8-.16,8.85-2.51,11.3-.56.59-1.59-.65-2-1.38a19.93,19.93,0,0,1-2.24-13.61c.45-2,5.39-3.5,6-3.19h0C275,263.62,275.31,267.75,275.19,270.19Z"/></g><g id="Base"><path d="M101.14,88.17l56.81,106.69h-121A204.37,204.37,0,0,1,101.14,88.17Z"/><path d="M295.8,188.76c-1.85-1.06-34.72,8.39-34.72,8.39H244.41s-28.88-8.31-34-8.47a1.52,1.52,0,0,0-.7.08c-2.17,1.24,6.56,16.87,7.87,16.65l15.86-2.08c-6.24,10.24-13.93,30.09-13.93,67.44,0,28,7.22,53.88,18.67,73.91l.31.55H267l.31-.55c11.45-20,18.67-45.88,18.67-73.91,0-37.35-7.68-57.21-13.93-67.44l15.86,2.08C289.24,205.63,298,190,295.8,188.76Zm-60,14.64c0-3.9,10.07-4,16-4h1.92c5.9,0,16,.14,16,4,0,.91.39,2.11-1.77,2.11H237.58C235.42,205.51,235.81,204.3,235.81,203.4Zm47.27,48.11a173.8,173.8,0,0,1-4.21,57.94c-5.43,22-13.37,33.58-13.37,33.58H240s-7.93-11.55-13.37-33.58a173.8,173.8,0,0,1-4.21-57.94c1.32-14.84,2.08-23.87,6.33-25,4.78-1.28,14.41-2.36,24-2.58,9.59.22,19.22,1.3,24,2.58C281,227.63,281.76,236.67,283.08,251.51Zm-8.58-36.82c.35.92,3.83,9.35,1.14,9.37A120.78,120.78,0,0,0,253,221.79h-.46a120.78,120.78,0,0,0-22.67,2.28c-2.69,0,.79-8.45,1.14-9.37.42-1.12.75-1.45,2.66-1.45h38.2C273.75,213.24,274.08,213.58,274.5,214.69Zm-2.14-5.27c0,1.52-.43,1.89-1.79,1.89H234.91c-1.36,0-1.79-.38-1.79-1.89s.48-1.89,1.79-1.89h35.67C271.89,207.53,272.37,207.91,272.37,209.43Z"/><path id="rect4138-3-4" d="M183.26,185.36c5.1-8.84,16.15-8.38,15-6.13l-12.17,23.4c-1.52,2.93-7.91-8.42-2.81-17.27Z"/><path id="rect4138-8-1-2" d="M325.81,186.23c-5.1-8.84-16.15-8.38-15-6.13L323,203.5c1.52,2.93,7.91-8.42,2.81-17.27Z"/><path d="M486.79,198.3H474.64A229.55,229.55,0,0,0,413.11,87.39l-.11-.11,6.47-10.36c-5.86-11.49-20.31-25.29-38.18-36.46s-36.61-18.07-49.51-18.3l-6.44,10.32a231.51,231.51,0,0,0-134.53-4.63l-5.71-10.72q-1.21-.06-2.49-.05c-12.79.1-30.73,5.61-48.18,14.89-18.59,9.91-34,22.67-40.6,33.73l5.75,10.8q-6,5.23-11.68,10.9A229.55,229.55,0,0,0,26.36,198.3H14.21C7.56,209.36,3.51,228.91,3.5,250s4.05,40.62,10.69,51.69H26.35A229.55,229.55,0,0,0,87.89,412.61l.12.12L81.54,423.1c5.88,11.5,20.33,25.28,38.19,36.44s36.62,18.07,49.53,18.28l6.43-10.3a231.51,231.51,0,0,0,134.53,4.63l5.71,10.72c12.89.66,32.06-5,50.65-14.86s34-22.68,40.59-33.75l-5.73-10.77q6-5.23,11.67-10.89a229.55,229.55,0,0,0,61.54-110.93h12.16c6.64-11.07,10.68-30.63,10.69-51.69S493.44,209.36,486.79,198.3Zm-76-107.46A225.91,225.91,0,0,1,470.52,198.3H456.43v-8.86l-6.94,8.86h-21.8l-6.29-5.88.62,5.88H343.71ZM346,73.8l-3.89-30.37-.5-3.94h0a66.91,66.91,0,0,1,4.69,5.85c16.44,22.88,25.28,61.21,28.88,75.1L334.6,186.16a30.29,30.29,0,0,0-2.77-6.21c-5.55-8.88-15.33-11.67-26.94-7.72a48,48,0,0,0-5.76-6.39l-.29-.27-.39-.06c-6.4-1-15.3.7-23.63,3l15.64-25.3-4.82-13.92,26-42L294.48,79.1l22.62-6.15-8.1-22Zm-2.21,218.87c-24.49,27.09-47.64,52.68-95.78,75.23-39.43-20.34-68.45-45.11-91.24-77.87,4-21.15,10.42-49.08,25-78.46l.31-.63-.38-.6c-7.2-11.28-10-19.26-4.33-29.11,6.16-10.67,13.56-13,24.75-7.84l1,.46.59-.91a53.71,53.71,0,0,1,4.33-6c23.73-.57,34.43,5.39,41.53,9.35,1.5.83,2.79,1.56,4.06,2.14l.52.24.52-.24c9-4.12,31.12-12,43-10.51a46,46,0,0,1,5.73,6.52l.56.76.88-.32c6.34-2.32,18-4.58,24.84,6.39.45.72,10.89,17.89-4,32.69l-.56.56.27.75c10.83,30.08,16,54.12,20,75.6ZM250.5,24a225.07,225.07,0,0,1,72.64,12l-9.86,15.8-7.19-4.45,3.69,10.05-12,19.25-7.57,2.06L295,81l-41,65.64L192.73,31.49A225.56,225.56,0,0,1,250.5,24ZM113.26,65.44a72.48,72.48,0,0,1,8.16-.84C149.21,63.24,184.93,75,198.3,79.07l46.87,92.06c-7.44-3.58-18.48-7.2-37.72-6.66l-.57,0-.36.44a55.5,55.5,0,0,0-4.29,5.76c-9.5-4.1-16.93-3-22.9,3.61l-5.58-11-14.4-3.11-22.39-44L121,126.58l6.49-22.52-23-4.53,38.8-19.75L116.73,68l-4.28-1.91-.76-.34ZM101.54,80.19l8,15.07-9.64,4.91,13.69,2.69,8.24,15.47L118.47,130l7.14-4.64,38.81,72.89H30.48A226.23,226.23,0,0,1,101.54,80.19ZM22.84,282.74l-3.63,2.94a68.45,68.45,0,0,1,3-8.13c1-2.26,2.08-4.54,3.29-6.81,12.51-23.53,36-46.86,44.95-56.19H177.6a283.27,283.27,0,0,0-20.2,60.1h-23l-9.31,11.42H75.69l2,18.89L60.56,289,46.08,307.45V263.91L26.47,279.8ZM90.23,409.17A225.91,225.91,0,0,1,30.48,301.68h14.1v10.12l7.94-10.12H72l7.65,7.15-.76-7.15h78.46Zm65.58,21.45,1.44,25.22.26,4.53.27,4.78a67.84,67.84,0,0,1-4.64-6.77c-1.18-1.95-2.3-4-3.37-6.11-12.11-24-17.4-57.38-19.79-70.23l46.16-64.1a239.07,239.07,0,0,0,46.5,38.28l-6.51,9L220,379.49l-28.85,40.06,16.5,9.42-23,4.55,6.53,22.55ZM250.5,476a225.07,225.07,0,0,1-72.63-12l6.74-10.8,9.19,6.62-4.22-14.58,8-12.76,14.31-2.83-9.25-5.28,36.47-58.43q4.11,2.26,8.37,4.46l.54.28.55-.26q3.06-1.43,6-2.87L308.28,468.5A225.56,225.56,0,0,1,250.5,476Zm130.41-36.55c-2.52.2-5.11.28-7.74.28-26.47-.07-57.63-9.56-69.95-13l-35.55-66.08a240.3,240.3,0,0,0,48.94-35.89L325.85,342l14.47,2.78,23.39,43.47,15.69-10.71-6,22.66,23.13,4L358.21,424.8l22.85,9.56,4.42,1.85,4.63,1.94A69.35,69.35,0,0,1,380.91,439.44Zm18.56-19.65-6.41-12,8-4.32-11.39-2-10.08-18.94,2.25-8.54-5,3.4-39.41-74,1.54-1.68H470.52A226.23,226.23,0,0,1,399.47,419.8ZM479,223.42c-1,2.29-2.1,4.6-3.31,6.9-12.48,23.59-36.1,47-45,56.36H347.21A459.56,459.56,0,0,0,332,226.59h34.65l9.31-11.42h49.36l-2-18.89,17.13,16,14.49-18.48v43.54l19.76-16,3.64-3,3.47-2.81A68,68,0,0,1,479,223.42Z"/><path d="M277.84,256.13c-1.62,0-6.41,8.41-23.45,9.61v-18h13.34c1.93,0,3.49-3.79,3.49-8.47s-1.56-8.47-3.49-8.47h-30c-1.93,0-3.49,3.79-3.49,8.47s1.56,8.47,3.49,8.47H251.1v18c-17-1.2-21.83-9.61-23.45-9.61-2.45,0-2,4.71-1.58,14.12,1.19,29.07,1.91,40.11,13.92,67.21h25.52c12-27.1,12.73-38.14,13.92-67.21C279.81,260.84,280.29,256.13,277.84,256.13Zm-43,24c-.45.73-1.47,2-2,1.38-2.35-2.45-2.38-8.5-2.51-11.3-.12-2.44.17-6.57.79-6.87s5.55,1.17,6,3.19A19.93,19.93,0,0,1,234.85,280.11Zm4.15-9.28c-.53-1.37-.94-3.34-.22-3.76h0c1-.56,6.53,0,7.77,1.22.64.64,1.24,5.26.08,6.42C245.73,275.61,240.58,274.92,239,270.83Zm1.8,63c0-2.53,1.36-7.13,2.53-8.31.73-.73,2.25,1.26,2.73,2.31.34.74-.33,5.06-1.94,6.67C243.43,335.22,240.8,335.43,240.8,333.84ZM251.14,335h-4.4c-1.46,0-.61-2.45.69-4.3h0c1.3-1.85,2.82-1.6,3.71-.06S252.86,335,251.14,335Zm-1.44-60c-1.16-1.34-2.44-6.24-1.23-6.28h.12a21.34,21.34,0,0,0,8.31,0H257c1.2,0-.07,4.94-1.23,6.28a4.24,4.24,0,0,1-6.09,0Zm8.61,60h-4.4c-1.72,0-.92-2.77,0-4.36s2.41-1.79,3.71.06h0C258.92,332.58,259.76,335,258.3,335Zm2.62-.51c-1.61-1.61-2.28-5.94-1.94-6.67.48-1.06,2-3,2.73-2.31h0c1.18,1.18,2.53,5.78,2.53,8.31C264.25,335.43,261.61,335.22,260.92,334.53Zm5.57-63.7c-1.59,4.09-6.74,4.78-7.63,3.89-1.16-1.16-.56-5.77.08-6.42,1.24-1.24,6.8-1.78,7.77-1.22h0C267.43,267.49,267,269.46,266.5,270.83Zm8.69-.64c-.13,2.8-.16,8.85-2.51,11.3-.56.59-1.59-.65-2-1.38a19.93,19.93,0,0,1-2.24-13.61c.45-2,5.39-3.5,6-3.19h0C275,263.62,275.31,267.75,275.19,270.19Z"/><path d="M251.4,29.74a197.77,197.77,0,0,1,63.83,10.52l-60.7,97.27L200.64,36.32A198.21,198.21,0,0,1,251.4,29.74Z"/><path d="M410.8,101.59a192.62,192.62,0,0,1,50.94,91.63H353.62Z"/><path d="M90.65,400.7a199.84,199.84,0,0,1-52.86-95.09H150Z"/><path d="M250.24,471.56a200,200,0,0,1-64.54-10.64l54.39-87.14q3.65,2,7.44,4l.48.25.49-.23q2.72-1.27,5.32-2.55l47.76,89.7A200.43,200.43,0,0,1,250.24,471.56Z"/><path d="M399.95,411.86,344.5,307.72l1.38-1.5H463.5A202.35,202.35,0,0,1,399.95,411.86Z"/></g><g id="p1"><path class="cls-4" d="M101.14,88.17l56.81,106.69h-121A204.37,204.37,0,0,1,101.14,88.17Z"/><path class="cls-4" d="M251.4,29.74a197.77,197.77,0,0,1,63.83,10.52l-60.7,97.27L200.64,36.32A198.21,198.21,0,0,1,251.4,29.74Z"/><path class="cls-4" d="M410.8,101.59a192.62,192.62,0,0,1,50.94,91.63H353.62Z"/><path class="cls-4" d="M90.65,400.7a199.84,199.84,0,0,1-52.86-95.09H150Z"/><path class="cls-4" d="M250.24,471.56a200,200,0,0,1-64.54-10.64l54.39-87.14q3.65,2,7.44,4l.48.25.49-.23q2.72-1.27,5.32-2.55l47.76,89.7A200.43,200.43,0,0,1,250.24,471.56Z"/><path class="cls-4" d="M399.95,411.86,344.5,307.72l1.38-1.5H463.5A202.35,202.35,0,0,1,399.95,411.86Z"/></g><g id="p2"><polygon class="cls-5" points="54.71 299.68 60.79 291.93 69.1 299.68 54.71 299.68"/><path class="cls-5" d="M168.17,475.79c-12.44-.58-30.44-7.38-47.38-17.94S89.85,434.1,83.84,423.18l5.89-9.44a5.39,5.39,0,0,0,1.39-2l.23-.59.57-.88,69-110.55H79.14l-1.23-11.6H126l9.31-11.42h22.16c-.91,4.17-1.78,8.45-2.63,13l-.15.82.48.69a234.08,234.08,0,0,0,19.76,24.67,6.12,6.12,0,0,0-.52,1.09l-46.54,64.63.16.84c.2,1.09.43,2.34.68,3.71,2.62,14.56,8.09,44.87,19.3,67.06,1.11,2.2,2.27,4.3,3.44,6.24a70,70,0,0,0,4.78,7l3.93,5L158,434.7l24.67,17.77L176.17,463,175,464.83l.18.09-.11.26,0,0-.19.23a5,5,0,0,0-1.56,2.08Z"/><path class="cls-5" d="M29.16,299.68a8.57,8.57,0,0,0-1.4-.12,6.47,6.47,0,0,0-.69,0,10.36,10.36,0,0,0-1.75-.16,8.33,8.33,0,0,0-1.69.17l-.29.07h-8C9.26,288.81,5.51,269.94,5.5,250s3.77-38.84,9.86-49.69h9.05a3.69,3.69,0,0,0,.72.19,13,13,0,0,0,2,.16,12.72,12.72,0,0,0,2-.17c.3,0,.6-.11.9-.18H167.75l-40.22-75.55,8.66-5.63L158,162l14.4,3.11,5.32,10.45c0,.19.05.37.09.56a3.85,3.85,0,0,0,.18.64,34.77,34.77,0,0,0-2.3,3.5c-6.1,10.58-3.13,19.35,4.15,30.83l-.77,1.57a8.77,8.77,0,0,0-1.33-.14h0a4.6,4.6,0,0,0-.83.07H69.55l-.59.62-2.63,2.73c-10.09,10.44-31.08,32.16-42.63,53.9-1.26,2.37-2.39,4.71-3.36,7a70.47,70.47,0,0,0-3,8.37l-1.77,6.12,28.56-23.15v31.58Z"/><polygon class="cls-5" points="116.43 103.92 124.99 105.6 122.3 114.94 116.43 103.92"/><polygon class="cls-5" points="310.32 60.3 314.47 71.59 300.99 75.26 310.32 60.3"/><path class="cls-5" d="M254.2,176.48c-1.11-.53-2.28-1.18-3.61-1.92l-2-1.11L247.34,171l-.72-1.72-.13,0L199.69,77.4l-.82-.25-3.62-1.11C180.89,71.65,151,62.49,126,62.49c-1.59,0-3.16,0-4.66.11a74.52,74.52,0,0,0-8.38.86l-1.63.29L105,64.95l33.59,15-27.53,14-9-16.9,0,0-.08-.16,0,0L96.12,65.77c6.74-10.48,21.63-22.66,39.24-32,17.07-9.08,34.74-14.56,47.25-14.65h1.25l4.49,8.42a4,4,0,0,0,.61,1.33,15.66,15.66,0,0,1,.84,1.4l.2.35,63.93,120.08,42.65-68.35,12.16,5.85-25.29,40.91L288.26,143l-16.72,27A153.36,153.36,0,0,0,254.2,176.48Z"/><path class="cls-5" d="M330.78,224.59c-1.12-3.35-2.2-6.49-3.3-9.55,8.74-8.94,9.06-18.62,7.48-25.68l42.4-68.58-.21-.83c-.28-1.08-.59-2.3-.93-3.66C372,99.83,363.34,65.59,348,44.18a69,69,0,0,0-4.84-6l-4.28-4.72,4.67,36.46L315.24,52.42,325.49,36c.56-.69,1.12-1.4,1.64-2.15a4,4,0,0,0,.64-1.5l5.08-8.14c12.44.6,30.44,7.4,47.37,18s30.95,23.76,36.93,34.68l-6.5,10.42c-.16.2-.32.41-.46.63a7.84,7.84,0,0,0-.43.79l-.1.2-.22.35-.74.89.07.15-68.67,110h81.62l1.36,12.87H375l-9.31,11.42Z"/><polygon class="cls-5" points="430.55 200.3 447.29 200.3 440.21 209.32 430.55 200.3"/><path class="cls-5" d="M317.15,480.92l-5.33-10a11.31,11.31,0,0,0-1.55-2.91L256.19,366.42c0-.09,0-.17,0-.26,3.27-1.63,6.46-3.3,9.52-5l36.19,67.27.82.23,3.65,1c13.76,3.88,42.4,12,66.82,12h.29c2.64,0,5.2-.09,7.61-.28a71.63,71.63,0,0,0,9.47-1.34l6.23-1.34-33.92-14.19,28.67-15.42,0,0,6.91,13a13.48,13.48,0,0,0,.85,1.48l.36.79,5.19,9.75c-6.72,10.48-21.61,22.67-39.23,32.06-17.27,9.19-35.07,14.67-47.62,14.67Z"/><polygon class="cls-5" points="375.9 398.57 379.22 386.01 386.92 400.47 375.9 398.57"/><path class="cls-5" d="M341.62,343l-14.47-2.78-9.3-17.29c6.33-6.06,12.25-12.26,17.94-18.43L375,378.08l-10.59,7.22Zm131.45-43.27c-.76-.05-1.52-.08-2.27-.09h0a4.3,4.3,0,0,0-.86.09H340.17L345.3,294l2.3-2.54-.47-2.53.43-.12.37-.13h83.52l.59-.62,2.63-2.73c10.13-10.48,31.2-32.29,42.74-54.08,1.27-2.4,2.41-4.78,3.39-7a70.64,70.64,0,0,0,2.92-8.09l1.77-6.12-28.56,23.14V200.3h28.71c6.09,10.86,9.85,29.73,9.86,49.69s-3.76,38.82-9.84,49.69Z"/><path class="cls-5" d="M194,418.91l28.1-39-3.83-14.23,6.34-8.8c4.15,2.6,8.45,5.15,12.82,7.6q0,.18,0,.37l0,.06L201.13,423Z"/><polygon class="cls-5" points="187.15 435.05 194.5 433.6 189.19 442.11 187.15 435.05"/></g></svg>