<svg xmlns="http://www.w3.org/2000/svg" viewBox="0 0 500 500"><title>clan-fire-mandrill</title><g id="Base"><path d="M241.65,276.48c-1.92-4.7-19.27-24.88-25.26-15.77-3.7,5.62,11.36,12.55,9.71,15.39.43-.73-4.75-6.67-4.72-7.93,4.5,2.77,12.52,3.3,16.15,7.41,2.33,2.63,3.8,11.86,5,12.82C244.47,288.39,242.12,277.63,241.65,276.48Z"/><path d="M286.75,263c-4.39-11.74-33.36,15.91-29.48,25.42-2.95-1.73,26.45-21.94,27.27-24.73,3.73,1.7-7.91,12.52-6.51,13.92C279.87,279.5,287.75,265.7,286.75,263Z"/><path d="M478.8,154C438.94,59.75,342.46-1.35,240.28,2.7,136.42,6.81,44,78,13.33,177.25c-30.49,98.57,4.92,208.2,86.88,270.66s197.9,67,284.56,11C484.63,394.33,525.19,263.63,478.8,154ZM250.29,495.58c-102.68,0-196.86-66.72-231.12-163.5-33.8-95.49-3.59-204.5,73.93-269.46C172.76-4.14,289.39-13,378.05,41.43,464,94.16,509.87,197,491.11,296.14,469.51,410.3,366.42,495.58,250.29,495.58Z"/><path d="M340.2,71.9c-.3-.3-.26,7.12,3.39,3.52S340,71.67,340.2,71.9Z"/><path d="M433,220c-2.4,1.59,8.33,33,11.23,34.88C443.65,251.51,437.28,217.15,433,220Z"/><path d="M59.6,193.55c-.17,2.63,6.71,6.07,7.09,3.15C67.34,191.76,59.93,188.62,59.6,193.55Z"/><path d="M433.64,244.7c-3.76-1.35-.23,24.67-.32,25.44-1.16,9.47-16.12,22.4-13,33.18C435.59,299.56,454.35,252.15,433.64,244.7Z"/><path d="M92.36,123.43c-16,1.86-32.84,49.78-17.11,62.89,10-7.47,10.54-25,15.93-35.67,4.69-9.24,21.33-22.1,22.64-32C110.64,117.82,90,115.68,92.36,123.43Z"/><path d="M462.65,160.79c-36.48-86.22-124-142.7-217.53-140.64S66.67,82.66,34.15,170.32C-.23,263,30,370,107.3,431.27c76.41,60.59,186.08,65.68,268,12.87C468.08,384.3,505.72,262.66,462.65,160.79Zm-15.92,21.34c4.19-10.37,8.78,4.76,6.36,3.92C452.13,185.71,444.83,186.82,446.73,182.12Zm-7.92-10.75c3.35-2.64,8.52,6.52,4.07,8.09C438.62,181,435.56,172,438.81,171.37ZM353.24,53.46c10.94-5.3,5.46,12,1.78,7C354.13,59.3,351.33,54.39,353.24,53.46Zm-11.4-.39c2.5-5.11,5.4.65,6.57,1.38C355.15,58.6,337.5,61.94,341.84,53.07Zm-92.6-11.51c1-.45,5.64-2.13,7-1.42C265.7,45.14,228.88,50.64,249.24,41.56Zm-12.48-1c3.62-4.58,3.81-1.12,7.37-.56C248.48,40.71,231.06,47.81,236.77,40.6ZM232,47.72c1.13-.62,4.08-3,5-.27C238.64,52.74,227.43,50.2,232,47.72Zm-62.75,3c1.42-.3,6.46.68,3.37,3.81S166.31,51.38,169.2,50.77Zm-11.59,7.67c-.36-4.17,6.46-.89,6.8-.87C169.36,57.84,152,64.53,157.62,58.44ZM48.5,146.93c5.08-2.63,5.09,4.91,2.18,5.71C48.12,153.33,46.47,148,48.5,146.93Zm-5.77,42.89c-5.67,2-2.36-8.12-2.48-8.71C40.09,180.3,50.37,187.07,42.72,189.82Zm2.5-26.28c-1.27-6.22,4.5-3.52,6.93-4.16C56.45,158.25,47.63,175.36,45.22,163.54Zm16.61,86.95c-4.85,2.19-7.65-6.66-3.38-7.83C61,242,64.94,249.08,61.83,250.49ZM103,379.17c-1.41,10.66-8.5.82-9.35.87C90.69,380.23,104.44,368.46,103,379.17Zm3.24-9.92c-5.12,9.91-19.49-12.62-8.79-13.63C102.2,355.18,108.58,364.76,106.26,369.26Zm-8.57-20c.19-5.46,10,.35,5.79,3.91C101.39,355,97.62,351.34,97.69,349.28Zm99.66,72.1a96.74,96.74,0,0,1-.63-21.48c6.57,5.4,5.15,25.64,8.19,34.2A22.14,22.14,0,0,1,197.35,421.38Zm16.57,21.88c-7.37-11.06-12.11-22.79-10.53-36.83,8.83,4.28,4,16.25,7.32,25.5,2.14,6.05,13,15.35,13.38,19.59A40.46,40.46,0,0,1,213.91,443.26Zm15.24,8c-10.37-11.59-22.33-21.78-17.24-39.85,11.72,1.27,7.65,8.87,9.16,17.69,1.55,9.07,10.09,17.3,11.23,25.26Zm12.63,7.14c-12.35-9.32-20.84-26.73-18.16-42.28a33.46,33.46,0,0,1,12.13,3.17C233.31,425.47,242.39,457.78,241.78,458.39Zm2.41-1.85c-2.6-6.45-9-49.41,1.46-32.82C248.68,428.52,247,456.59,244.2,456.54ZM237,416.59c-13.73-3.57-28.89-7.1-38.19-18.69-7.73-9.63-9.52-23.55-10.26-35.4-1-16,10.22-30.81,7.89-45-2.8-17-15.71-31.65-16.17-49.77-.4-15.94,9.29-31.83,26.75-24.75-22,20.27,16.47,49.62,32.72,53.55,24.78,6,74.72-19.8,54.08-51.58,18.8-4.42,29.07,11.54,25.61,29.36-4.69,24.17-16,40.28-11.62,66.61,4.23,25.27,2.76,53.84-21.6,68.45C272.82,417.45,251.94,421.3,237,416.59Zm-107-279c1.46,17.6,13.89,33.45,27.15,44,4.16,3.31,13.47,7.1,16.46,11.44,2.49,3.61,2.69,17.06,4.35,22.39-21.41-6.23-43-16.5-56-35.56-5.38-7.92-10.76-20.57-10.79-30.12,0-12.7,9.24-21.86,18.39-31.5C129.58,124.7,129.53,131.23,130.06,137.64ZM312.37,349.11c-2.26-22.6-6.27-37.59,4.67-59.48,8.9,4.54,43.47,33.87,50.32,31.79,9.48-2.89-12.48-17.2-15.57-19.63-10.24-8.06-48.71-28.27-18-26.57,21.61,1.19,49.45,18.86,68.63,28.29a168.92,168.92,0,0,1-96.06,87.37C313.48,377.41,313.88,364.2,312.37,349.11Zm6.12-62c4-7.61,39.63,23.18,45.92,29.27C349,306.3,334.94,295.45,318.5,287.09Zm59.89,1.67c-8.23-3.74-54.25-15.72-55.2-20.21,7.44,1.33,83.84,24.9,80.49,32.29C395.29,296.73,386.89,292.64,378.39,288.76Zm9.72-.69c-12.55-6.65-64-18-64.86-27,19.81,1.36,39.6,3.9,59.21,7,5.94.93,20.55.88,25.19,5.28,6.76,6.41,1.75,14-2.56,24.27C399.49,294.3,393.83,291.11,388.11,288.07Zm13.45-19.69c-12.7-3.63-76.9-4.5-79.41-12,11.77-.49,93.76,5.38,91.24,15.78Q407.53,270.08,401.56,268.38Zm-6.38-7.33a403.45,403.45,0,0,0-50-7.07c-8.44-.72-18.77,1-25.82-2.12,28.74,0,80.62-2.72,98.28-29.33A167.78,167.78,0,0,1,414.92,265C408.32,263.82,401.74,262.46,395.18,261.05Zm17.4-36.32c-12.4,17.7-45.29,19.1-64.51,21.79-7.44,1-45.95,6.84-30.37-6.54,9.85-8.45,39.2-9.55,51.86-13.86,19.41-6.61,33.2-17.1,42.82-35.7C415.56,202.41,420,214.13,412.57,224.73Zm-255-117c9.6-9.94,25.25-12.76,38.47-12,30.6,1.79,45.83,21.62,76.75,11.49,15.83-5.19,57-18.08,68.21.36,6.36,10.42,1.88,18.58-8.24,16.82-3.7-.64-10.4-8-15.52-9.67-16.52-5.26-35.61,1.25-48.7,11.24-9.07,6.92-15.24,21.5-28,12.68-1.48-1-4.46-8.72-5.25-9.59-12.16-13.55-25.17-19.26-43.87-16.91-7.19.9-24.18,11.35-29.24,9.63C151.61,118.17,164.69,114.33,157.62,107.72Zm9.61-10c39.41-40.92,135.26-34.7,173.5,4.7-13.05-5.38-27.53-7.82-41.56-5.87-15.66,2.17-30.7,12.94-46.38,13.25C238.85,110,224.41,99.23,211,95.66,196.38,91.76,181.32,91.56,167.23,97.69Zm112,87.29c1.68-2.56,8-24.54,8.95-24.81,5.31-1.55,12.78,8.47,13.84,12.68,3.73,14.85-14.16,43.3-22.56,54C280,212.8,280.67,199,279.22,185Zm3-13.2-3.77,8.74c-.62-2.8-13.4-28-2.41-26.78C285.82,154.81,284,165.8,282.25,171.78ZM278.89,232c10.84-11.1,17.37-27.9,22.28-42.3,2.93-8.58,1.09-31.51,13-16.41,7.69,9.77-.33,25.28-5,35.34-4,8.63-10.26,25-18.65,30.15C282.7,243.59,276.18,243.39,278.89,232ZM317,172c-5.77-6.25-42.94-24.51-47.53-16.84q-1.58-5.11-2.91-10.28c5.4-.32,8.89-1.86,13.52-1,5.66,1,8.32,7.24,15.6,7.54s19.5-5.52,21-13.8c8.77,8.71,20.35,11.29,29.83,2.14C344.09,157.84,329.94,163.2,317,172Zm-22.33-28.59c10.36,0,18.52-10.3,16.29-20.33,12.49,1.74-3,22.28-9.61,24-6.27,1.67-32.47-10.1-23-16.27C280.05,138.19,287.39,143.46,294.71,143.46Zm-13.66-14.39c2.52-1.83,1.08,2.86,1.09,3.76Zm13.41,6.84c5.24,0,8.07-8,11-10.36.86,10.23-10.7,22.87-18.72,11.28-5.57-8,1.67-4.85,4-10.92,3.38,2.1,1.79,7.32-1.82,7.63Zm12.46-13.52c.33,2.62,2.54,5.48.22,10.32A24.89,24.89,0,0,0,306.92,122.38Zm-96.67,19.41a16.86,16.86,0,0,0,16.52-14.31c8.39,10.91-12,20.28-21.66,18.21-8.63-1.84-24.87-23.65-11.05-24.63C191.52,131.24,199.73,141.79,210.25,141.79Zm-6.48-17.28c5.17,0,5.44,7.81.36,8.26,5.29,5.49,14.27.5,13.11-6.66,1.79,1.31,6.66,3.16,5.43-1.22,8.36,4.35-30.92,28.76-26-1.91a14,14,0,0,0,6.93-.23Q201,125.47,203.77,124.51Zm-31.53,16.21a36.34,36.34,0,0,0,15.63-6.49c5.41,10.84,13.91,16.21,26,14,10.48-2,26.5-14.47,21.51,7.56-2.57-5.07-5.39-9-11.91-8.78-8.09.24-4.18,6.83-9,8.4-3.69,1.2-7.34-1-11.16.8-3.38,1.57-3.48,6.93-6.32,7.89-13.47,4.55-19.16,1.59-29.5-10.4-5.38-6.24-9.41-13.49-10.65-21.72C160.15,136.69,165.9,141.62,172.24,140.72ZM187.39,171c12.77-16.16,16.67,22,19.55,29,2.72,6.62,23.53,38.22,21.3,40.62-11.53,12.45-26.32-16-29.92-22.87C189.85,201.66,189.61,187.78,187.39,171ZM224,225.86c-4.52-6-39.3-71.73-13.65-67.62C224,160.42,231.31,220,231,235.61Q227.62,230.65,224,225.86Zm2.83-45.61c.08-.57-18.58-24.78-5.14-29.8C241.17,143.19,227.42,176.31,226.88,180.25Zm-37.7,24c5.57,13.9,13.5,23.94,20.67,36.59-10.88-2.77-15.94-.8-22.31-8.3-3.18-3.73-4.44-10.88-5.94-15.46-1.88-5.76-11.87-37.37,2.28-37.9A79.26,79.26,0,0,0,189.18,204.29Zm23.25,39.47c12.95-1.55,20.45,3.57,21.14-12.35.31-7.15-4.39-16.67-5-24-1.75-22.87,9.14-39.65,10.76-61,8.34,6.25,16.18,5.83,24.46-.36,7.12,27.49,14.88,48,12.77,77.19-.76,10.57-3.33,15.55,3.67,21.16,8.32,6.66,9.78-5.07,13.47,10.31,7.16,29.83-35.57,45.16-57,38.18-9.64-3.14-20.64-9.9-26.16-18.7C207.14,268.65,200.3,245.23,212.43,243.77Zm79-1.48c12.64-18.32,28.63-38.52,28.9-62,21.16-1.19-6.87,56.7-10.17,62.39C303.59,237.77,295.62,245.16,291.46,242.29Zm110.35-39.5c-14.95,24.23-61.55,28.92-86,34.64,9.31-19.54,29.77-22.29,47.44-33.66s31-25.11,36.51-46.22C409.28,176.12,412.8,185,401.81,202.79Zm-13.48-25.85c-12.11,21.83-42.56,33.82-64,43.55,2.56-6.32,2.81-16.84,6.37-22.5,4-6.42,14.35-10.83,20.55-16.24,17.38-15.17,26-34.35,26.46-57.1C394.43,144.12,401.35,153.54,388.34,176.94Zm-14.59-36.25c-2.29,22.44-24.93,41.05-42.75,51.76-.48-7.13-4.72-14.87-12.32-14.87-.36-6.25,26.34-21.94,30-33.84,4-13.15,5.77-28-2.43-39.57-24.06-34-81.79-38-118.51-33.83-26,3-79,18.83-77.22,52,.7,13.09,11,30,20.61,38.92,5,4.64,14.13,7.6,13.46,15,0-.12-9.75,9-10.54,13.55-22.79-14.54-39.53-31.67-41.4-59.87-2.08-31.23,47.89-50.68,73.8-57.83A166.22,166.22,0,0,1,352.83,101C369.88,114.16,375.91,119.45,373.75,140.69Zm-259,32.22c6.81,17,24.49,29.91,40.46,37.47,10.75,5.09,26.09,4.29,27.44,18.58-18-3.22-39-5.25-55.59-13.27a58.41,58.41,0,0,1-25.29-23c-10.81-18.05-4.71-28.07,5.86-45.57C109.59,155.76,111.47,164.67,114.78,172.91Zm-14,24.5c8.79,17.14,31,23.72,48.11,27.75,12.18,2.86,37.08,1.15,40.38,16.6-9.67,8.86-50.79-.14-61.94-3.9-10.76-3.64-22.27-9.55-30.33-17.65C83.89,207,86.95,195.93,92.65,179.27,95.21,185.36,97.79,191.52,100.8,197.4ZM94.71,222c19,24.59,61.37,24.66,88.62,23.88-2.37,12.22-28.07,5.55-37,6.22a285.05,285.05,0,0,0-59.91,11.36,168.1,168.1,0,0,1-.93-54.66Q89.89,215.53,94.71,222Zm37.12,34.64c15.56-2.37,31.77-3.17,47.46-1.37C172.93,258,86.6,264.41,87,266.32A325.3,325.3,0,0,1,131.84,256.62Zm-31.61,11.59c25.65-5.68,51.37-8.89,77.67-8.57-12.33,5.8-29.41,7.3-43,12.79-14.29,5.77-26.77,13.78-39.35,22.59A166.87,166.87,0,0,1,88,270.82Q94.11,269.57,100.23,268.21Zm11,19.75c19.71-13.18,42.9-20.08,66.05-24.25l.08,2.68c-28.44,4.71-56.07,17.16-80,32.94C95.87,296,108.43,289.75,111.22,288Zm6.91,2.25c18.31-9.68,38.7-17.36,59.13-20.83-.58,12.06,2.4,7.19-4,15.16C169.73,289,160.52,292.61,156,296c-3.07,2.27-29.21,20.31-28,24,2.16,6.51,44.5-26.82,53.55-29.28,2.06,9.45,9.12,16.78,11.22,25.71,2.14,9.1-1.76,11.95-4.23,20.91a80.59,80.59,0,0,0,2.63,52A169.1,169.1,0,0,1,106,316.62c-1.3-2.26-8.25-12.16-7.49-14.57C99.44,299.17,116.15,291.26,118.13,290.21Zm62.8-2.43c0,.48-39.73,24.37-43.86,27.26,13.53-11.66,27.7-23.31,43.83-31.25A23.26,23.26,0,0,0,180.93,287.79Zm68.77,171.08c-1-.32-8.92-41.57,7.37-37.93C257.74,434.09,254.25,446.68,249.69,458.87Zm6.76-2.17-3.89,2.83c4.19-11.23,2.11-41.58,15.85-40.37C268.63,431,265.82,448.74,256.45,456.69Zm7-1.85c-5.5,4.84,4.21-12.36,5.22-16,2.7-9.82-1.72-21.3,10.38-23.18C282.94,430.84,274.42,445.31,263.49,454.85ZM281,443.06c-3.2,5.53-5.25,7.64-11,10.18,5.22-6.91,9.76-12.91,11.69-21.57,1.72-7.71-3.07-18.3,6.56-19.93C289.9,422.9,286.41,433.54,281,443.06Zm14.15-23.37c-2.24,6.5-4.65,18.57-10.35,23.14,5.67-11.23,3.31-29.56,11.12-36.65A22.74,22.74,0,0,1,295.12,419.69ZM318,437.19c-1.83,4.68-8,.06-6.07-1.9C312.83,434.38,319,434.59,318,437.19Zm47.25.54q-3.91,2.44-5.94-1C359.3,431,370.16,436.44,365.25,437.73Zm7.49-6.63c-3.44.66-8,1.1-8.32-2.95C363.4,413.6,390,428.85,372.74,431.1Zm78.18-124.85c-.25.53-4.69,8-6.86,4.49C440.75,305.39,452.87,302.19,450.92,306.25Zm.84-11.47c-6.89,10.42-9.13.52-6.34-.46C445.49,294.29,458.59,284.46,451.76,294.78Zm-5-11.75c-12.16,22-43.63,34.42-39.83,62,.81,5.85,7.26,15.39,4.84,21-7,16.27-7.15-9.55-7.21-9.69-11.27,3.61-12.38,25.62-14.87,34.79-.32,1.18-13.11,34.51-17.74,25.34-.29-.58,12-22.68,12.91-25.52-6.19-2.24-40.51,37.73-49.2,40.42-4.31,1.33-16.16,4.42-15.62-2.59.66-8.67,24.55-7.2,28.07-18.26-2.91-.3-10.5,1.65-12.23-1.86-2.72-5.53,17.93-6.81,20.86-8.11,7-3.08,11.21-8.31,15.95-13.9,3.9-4.6,24.22-29.61,16-35.09-1-.64-42.45,32.49-47.48,35.87-9.1,6.11-16.21,16.36-25.34,19.34,6-2-17.37-3.15-12.85-.6,2.22,1.25-8.62-1.73-4.5-2.87,9.41-11,26.57-13.33,38.82-19.76,15.69-8.23,29.94-20.3,41.87-33.33A175.36,175.36,0,0,0,424.64,243c3.52-57.7-23-112.89-69.17-147.39C248.58,15.72,91.53,80,77.46,215.36a173.75,173.75,0,0,0,32,119.13,175.76,175.76,0,0,0,42,41.24c6.32,4.4,41.85,16.45,42.45,24.77-.23-.08-9.2-.61-11.84-1.14-8.37-1.69-16-5-23-6-2.53-.38.07-5.52,1.36-4.86-3.88-2-15.5,1.28-18.35-3.1q.65-3.44,4.79-3.81c-.48-2.85-49.67-48-50.52-47.57,2.67,8.49-6.53,2-8.64,0-6.49-6.06-2.69-19.61-3.8-27.42C80.55,283.35,72.37,260.86,69,237.28c-1.63-11.31-4.74-18.47-10.9-27.92A42.46,42.46,0,0,1,48.7,201q-1.81-5.83,3.32-4.86c.21,2.63-3-25.39-.9-26,6.11-1.77,4.83,13.2,8.42,11.5,5-2.39-8.6-37.81-1.56-37.68,3.44.06,1.85,12.64,5.24,13.2,3-13.35,10.44-23.63,13.89-36.17A8.49,8.49,0,0,1,70.39,122c-.11-5.91,22.75-11.66,26.81-12.45,5.81-1.12,17.91,1.75,22.64-1.64,4.36-3.12,3.29-11.66,5.53-13,9.5-1.1,8.9-5.86,15.42-14.33.56-.73,15.56-17.45,16.42-10.88.68,5.24-8.91,10.4-10,15.55,30.25-17.34,56.64-26.87,91.49-31,18.32-2.15,32,1,49.28,6,3.41,1,34.9,12.56,36.92,9.23,7.49-12.35-41.52-19.3-46.58-20-33.92-4.69,6.11-17.26,22.85-13.88-.23-.1-9-4.18-4.58-6.34,5.62-2.74,34.59,22.67,37.64,25.19C349.51,67.2,349.33,84.06,364,96.29c2.38-2.87,2.35-13.6,8.63-9.84,6.59,3.94-3.08,7.7-1.57,11.91,3.91,10.87,16.36,6.53,21.53,12.72,2.51,3-.78,5.33-.41,5.9,4.23,6.54,7.12,16.42,11.39,23.64,4.6,7.77,11.7,12.51,16.14,18.47-.34-.45,13.85,17.65,1.33,10.76-3.65,18.33,18.48,46.68,24.45,63.42C447.61,239.21,456.86,292.17,446.74,283Zm7-88.16c-2.66,5.21-4.11-4.74-3.17-3.76S455.82,190.81,453.75,194.87Z"/><path d="M310.6,269.33c-.84-1.85-30.17,23.53-35.56,26.07-26.39,12.46-51.23.52-70.41-17.8-3.84-3.67-10.93-14.57-16.82-11.09-5.68,3.36,5,19.46,6,23.28,5.33,20.62,3.65,41.9,6.68,63.28,3.14,22.17,9,36,34.74,41,14.6,2.86,39.73,1.85,51.39-8,15.74-13.28,15.62-41.21,15.65-59.8,0-11.76,2.1-20.93,4.82-33.23C308.53,286.53,313.43,275.57,310.6,269.33Zm-59.77,33.91c11.53,0,24-2.55,33.33-9.82.87,6.07-.27,19.37-2.62,23.87-.33-14.84-12-24.26-15.19-3.47-.77-17.12-16.14-7.39-16.2,6.22.06-9-14.74-25-16.3-9.8C231.6,295.83,218.9,300,219,313c-.85-6.8-1.91-13.64-2.23-20.49C225.79,299.61,239.46,303.24,250.83,303.24Zm2.57,21c-.06-1.87-1-13.43,1.31-15.7C264.36,302.86,270.17,328.66,253.4,324.28Zm4.86,50.1c-9.18,4.86-6.92-18.9-7-20.18a10.12,10.12,0,0,1,8.39-1.62C259.73,356.57,261.62,372.61,258.26,374.38Zm15.55-21.2c.68,6.22-7.64,30.73-8.23,16.14C265.15,359.92,256.37,351.69,273.82,353.18Zm.87-48.66c5.06.76,5.88,14.8,3.4,17.9C261.12,325,271,304,274.69,304.52Zm-47.84,48c12.91-1.05,12.72,20.93,8.31,21.92C226.95,376.29,226.24,356.84,226.85,352.51Zm-4.36-48c10.11-3,9.24,11.86,9.67,17.68C221.26,323.34,218.76,314.2,222.49,304.47Zm14.66,4.29c8.6-6.48,10.25,9.48,10,15.42C238.09,326.23,231.35,316.87,237.14,308.76Zm2.17,45.44a10.12,10.12,0,0,1,8.39-1.62c0,4,1.92,20-1.43,21.81C237.09,379.24,239.35,355.48,239.31,354.2ZM193.88,279c-1.37,6.71-5.14-7.89-3.72-10.74C196.73,269.11,194.65,275.12,193.88,279Zm4-4c10.81,11.71,14.29,12.76,16.93,27.7,2.29,12.89,3.63,23.58,8.26,35.94-12.41-10.16-18.64-22.22-25-36.56C195.3,295.68,196,281.2,197.87,275Zm2.22,66c-2.06-8.62-1.11-18,.51-26.59,3.46,7.45,4.47,15.75,7.94,23,3.88,8.15,11.63,12.28,12.07,21.49.33,6.78-2.77,15.51-9.5,12.95C205.52,369.79,201,345,200.09,341Zm84.49,43c-16.73,16.26-78.1,11.56-80.16-17,5.92,15.92,17.72,8.81,18.92-5.22,5.46,14.8,7,12.54,17.2,13.95,9.16,1.27,19.44,4.58,21.72-7.91,4.88,10.85,6.84,12.91,13.74-1.17.72,6.36,8,9.46,12.81,12.06Zm15-43.17c-3.18,12.2-3.57,23.6-9.67,35.11-8.35-4.59-12.66-9-10.67-18.56.65-3.14,8.54-11.51,10-14.36,3.76-7.56,4.52-13.88,9.08-21.72C299.77,327.35,301.19,334.67,299.59,340.83Zm5-54.35c-1.84,22.81-10.36,39.82-26.75,55.81,2.14-11,7.05-20.62,8.62-31.75.58-4.15-.21-9.56.89-13.73,2.36-9,7-12.09,14.77-19C305.06,277.85,304.69,284.61,304.6,286.48Zm3.34-6.77c-.38.85-5.6-3.39.31-8A18.47,18.47,0,0,1,307.93,279.71Z"/></g></svg>