<svg xmlns="http://www.w3.org/2000/svg" viewBox="0 0 500 500"><title>clans</title><g id="Icons"><path d="M424,172.4,313.6,145.56l58.83-96.81L275.89,107,249.9,1.38,221.83,107,124.1,47.37l60,98.31L76,172.4l107.94,25.66-57.25,96,88-52.71,33.17,257.32,1-.13,2,.13,33.17-257.33,85.28,49.49-55.74-92.55ZM221,110.05l-6.91,26.42L142.07,63.53ZM186.2,148.3l28.28-7.18,31.08,29.25H99.31Zm.81,50.53,21,5.33-66.69,71.89Zm60.86,275.89-30.31-235.1h0L212.48,204l35.39-28.87Zm0-306.35L216.62,139,247.88,19.43Zm152.44,2H253.07l30.24-30.24L312,148.32l0,0ZM354.59,64.55,283.18,136,276.67,110Z"/></g></svg>