<svg xmlns="http://www.w3.org/2000/svg" viewBox="0 0 500 500"><defs><style>.cls-1{fill:#e56e4d;}.cls-2{fill:#d34244;}.cls-3{fill:#ffd5a5;}.cls-4{fill:#642229;}</style></defs><title>clan-wolf_COLOR</title><g id="n3"><path class="cls-1" d="M367.07,121.41l-4.14,12.75H333.25l24,17.44-6.15,18.93c-3.68-3.7-11.44-5.5-17.74-7-1.95-.45-3.79-.88-5.24-1.3-4.35-1.27-15.16-3.94-21-5.38l-1.72-5.29,24-17.44H299.72l-4.14-12.75Z"/><path class="cls-1" d="M285.52,121.41l-3.28,10.1c-1.22-1.31-2.32-2.45-3.22-3.32-1.61-1.58-4.15-3.85-7.54-6.78Z"/><path class="cls-1" d="M240.26,140.66l-1.2-.12,1.88-1.37C240.69,139.78,240.45,140.27,240.26,140.66Z"/><path class="cls-1" d="M244.86,121.41a43.15,43.15,0,0,1-.48,5.4c-.54,2.94-1.13,5.36-1.7,7.35H218.17L214,121.41Z"/><polygon class="cls-1" points="203.97 121.41 199.83 134.15 192.16 134.15 171.73 121.41 203.97 121.41"/><path class="cls-1" d="M5.67,257.25V121.41h35.2l-4.14,12.75H7.06l24,17.44L21.9,179.82l24-17.44,24,17.44L60.74,151.6l24-17.44H55.08l-4.14-12.75h71.49l-4.14,12.75H88.6l24,17.44-9.17,28.22,24-17.44,1.28.93a94.32,94.32,0,0,0,.93,14.68,44.45,44.45,0,0,0,2.63,7.09c-2,1.25-5.55,3.54-8.33,5.63-4.93,3.73-10.14,18.9-10.72,20.61l-2,5.87,4.77-3.06-1.21,3.22c-2.08,1.08-6.25,3.39-7.86,5.18s-3.19,6.47-3.43,8.63-.55,8.24-.56,8.3l-.21,4.38,6.56-4.5v3.55c-3.68,1.77-9.28,5-10.09,8.31h0a58.93,58.93,0,0,0-1.07,6.06Z"/><path class="cls-1" d="M345.61,257.25H324.33L336.24,243c.64,2.38,1.49,4.85,2.51,6a10.6,10.6,0,0,0,3.95,2.28l.42-1-.41,1a13.47,13.47,0,0,1,2.53,1.23C345.53,253,345.83,254.57,345.61,257.25Z"/><path class="cls-1" d="M495.33,257.25H408.56c4.51-3.83,7.67-11.39,8.12-12.51l0-.05c.26-.64.5-1.23.71-1.75.87-2.06,1.77-5,2.73-8.15a95.37,95.37,0,0,1,3.27-9.59c.12-.29.26-.58.45-.94a37.55,37.55,0,0,1,4.53-5.85c2.59-3,5.28-6.08,6.28-8.92,0-.06,2.21-6.31.37-9.44-1.61-2.75-6.53-4.53-10.39-5.54-3.12-.81-9.17-1.13-14.5-1.41-1.83-.1-3.56-.19-4.91-.29l-3.1-.23c-5-.38-11.93-.91-16-1-2.43-.08-5.78,0-9.34.17-5.82.21-12.42.46-16.11-.15a47.52,47.52,0,0,1-6.73-2.39l-.15-6.11a43.38,43.38,0,0,0-.41-7.08l18.72-13.6,24,17.44-9.17-28.22,24-17.44H381.27l-4.14-12.75h71.49l-4.14,12.75H414.8l24,17.44-9.17,28.22,24-17.44,24,17.44-9.17-28.22,24-17.44H462.82l-4.14-12.75h36.65Z"/></g><g id="n2"><path class="cls-2" d="M412.65,243.11c-1.45,3.61-4.16,10.32-6.79,11.75-2,1.06-7.52.73-10.51.54h-.13l-1.27-.07c-.49,0-1.14-.07-2.11-.16-4.26-.38-11.22-1.24-12.78-1.44l-14.82-4.15,10.32-13.06.08-.12c.35-.53,8.59-13.06,10.86-18.09l.17-.38c1-.37,4-.27,8.79.3,1.07.13,2,.24,2.69.28,4.47.29,12.3,1.25,15.55,2.73l1.16.5A23.33,23.33,0,0,1,419,224.4c-1.06,2.62-2.11,6.06-3.06,9.14s-1.79,5.86-2.57,7.72c-.23.54-.48,1.17-.75,1.85l1,.42Z"/><path class="cls-2" d="M248.2,106.33c5.63,4.56,22.69,18.47,28.54,24.19,5.25,5.13,17.71,19.68,22.76,25.62l-13.36-3.34c-1.27-.41-20.88-6.79-28-8.18-3.22-.63-11.49-1.94-15-2.48,1.06-2.09,2.91-6.6,4.41-14.74C248.42,122.86,248.3,111.33,248.2,106.33Z"/><path class="cls-2" d="M110.28,233.42l-2.69,1.85c.11-1.67.2-2.92.28-3.61a17.8,17.8,0,0,1,2.36-6.23c1-1.12,4.89-3.35,7.33-4.58l28.39-16.54,1.49,1.16Z"/><path class="cls-2" d="M119.64,206.64c2.22-5.47,4.93-10.94,6.94-12.46,2.54-1.92,5.88-4.07,7.82-5.3l3.79,5.82Z"/><path class="cls-2" d="M100.09,286.85c0-9.56.19-26,2.32-34.9.46-1.9,5.85-5.05,9.53-6.69l.65-.29v-.14l47.61-33c1.85.77,7.34,2.93,10.06,2.93h.19c5.3-.21,13.34-3.08,21.52-15.53,5.26-8,7.15-16.15,5.06-21.81-.27-.74-4.5-9.92-5-11L179.1,146.55l0-.07-32.78-37.11,61.4,38.31c.44.31,12.4,8.73,15.33,12.46l.67.84c2.75,3.44,6.53,8.16,6.53,15.15,0,8.6-4.65,16-9.21,22.19-2.18,2.94-11.1,9.49-11.15,9.53C209,208.42,128,263.29,100.09,286.85Z"/><path class="cls-2" d="M289.38,326.76a23.72,23.72,0,0,1,1.72,4.65c.5,3.37.95,12.9,1.05,15.29l-64.21,52.08L157,355c.8-2.77,3.51-12.12,4.81-15.42,5.83-14.69,10.32-24.64,13.33-29.55A210.93,210.93,0,0,1,190,289.65c4.36,5,13.51,12,18.88,14.84,7.83,4.16,23.66,11.24,31.79,13.15,7.06,1.66,22.39,3.91,30.36,3.65,3.45-.11,11.54-1.71,16-2.63C286.79,320.84,288.1,323.84,289.38,326.76Z"/><path class="cls-2" d="M313.16,334.41c4.22-3.73,19.49-17.57,22.26-24.7a13.86,13.86,0,0,0,.26-4.68l.23.13,1.06.62c.14,2.49.16,6.3-.31,7.48-2.6,6.39-18.47,19.84-21.48,22.36A14.43,14.43,0,0,1,313.16,334.41Z"/><path class="cls-2" d="M321,337c-.87-.12-2.17-.37-3.32-.64,4.76-4,18.42-15.94,21-22.28.58-1.44.6-4.68.54-6.87.7.44,1.36.85,1.91,1.15,0,2.56-.13,6.41-.64,7.61C337.93,321.86,323.45,334.84,321,337Z"/><path class="cls-2" d="M372.05,318.78c-1.6,2.93-5.49,8.66-7.94,11a40.07,40.07,0,0,1-11.88,6.64c-4.16,1.21-11.88,1.12-18.09,1.06-2,0-3.87,0-5.37,0-1.07,0-3-.06-4.77-.17,4.62-4.17,16.07-14.86,18.48-20.42.67-1.56.81-5.29.82-7.49a16,16,0,0,0,3.3.9c3.61.44,8.76,0,14.2-.54,5.24-.49,10.67-1,14.24-.54C375.65,310.09,373.84,315.5,372.05,318.78Z"/><path class="cls-2" d="M310,221.29c-.23-.06-5.59-1.53-7.91-1.11-2.78.5-7.43,3.23-9.7,4.91-2.77,2.05-6,6.68-8.54,10.4-.74,1.07-1.44,2.09-2,2.88-1.12,1.52-2.71,3.46-4.39,5.52-4.36,5.34-9.79,12-11.52,16.67a17.69,17.69,0,0,0-1,6.27,10.62,10.62,0,0,0,3.34,5.68c1.48,1.08,4.21,1.59,6.4,2,.67.13,1.3.24,1.78.36a150.82,150.82,0,0,1,22.62,7.9c7.5,3.59,28.48,17.19,28.71,17.34,0,0,3.83,2.37,5.52,3.5.19,1.91.31,4.55,0,5.33-2.65,6.83-18.66,21.19-22.07,24.2-.74-.55-1.66-1.3-2.27-1.8l-.24-.19a53,53,0,0,1-5-5.19c-5.15-5.84-11-12.43-15.35-9.84-2.42.52-13.58,2.89-17.57,3-7.78.24-22.85-2-29.8-3.59-8-1.87-23.54-8.84-31.27-12.95-5.54-2.94-15.41-10.57-19-15.29a22,22,0,0,1-1.34-2.21c-1.67-3-4-7.06-6.91-5.52-8.35,4.4-18.78,23.63-22.25,32.46-3.09,7.87-10.87,29.9-12.8,35.39-4.58-2.73-21.65-13-26.55-18-5.28-5.35-13.28-18.54-16.8-26.54,29.88-18.73,111.3-77.33,113.22-78.72s6.69-4.36,7.31-6.17c1.24-3.62-5.17-6.81-5.44-6.95-1.35-.66-4.5-1.86-6.56-2.62,2.76-2.1,8.24-6.4,10-8.81,2.88-3.89,9.64-13,9.64-23.48,0-7.76-4-12.82-7-16.51l-.66-.83c-2.48-3.16-10.47-9.07-14.06-11.66,3.72-1.21,11.53-3.66,14.77-4,3.81-.39,15.34.84,15.87.9s12.5,1.94,16.42,2.71c6.84,1.34,26.28,7.63,27.7,8.09l13.74,7c.14.07,14.37,6.55,20.27,9.42,2.13,1,2.16,9.61,1.51,15.67-2.3-.05-7.91-.15-10,0-3.16.27-10.92,1.46-13.53,1.87-1.52-3.09-6.44-5.55-10.47-7.57-1.08-.54-2-1-2.73-1.41-4.61-2.63-13.8-7.26-19.07-7.92-5.94-.76-12.19-1.08-13.48,2.32h0c-1,2.61,2.83,5.82,6.52,8.93a26.85,26.85,0,0,1,3.41,3.15,41.73,41.73,0,0,1,2.6,4.4c1.92,3.55,4.1,7.58,7,9.14a8.45,8.45,0,0,0,3.76.63,51.74,51.74,0,0,0,5.74-.44l.57-.07a40.75,40.75,0,0,0,12-3.57c1.6-.87,4.13-3.27,4.53-5.46,2.62-.41,10.3-1.59,13.35-1.85,1.4-.12,4.61-.1,7.16-.07l-4.94,3.14,1.17,1.83,7.7-4.9.65,0v0c2.34,0,8.45-.14,10.74,0,4.23.3,16.49,2.28,17.89,2.51.93.4,6.46,2.74,8.65,3.1,4,.66,10.79.41,16.76.19,3-.11,5.9-.22,8.12-.19a43.35,43.35,0,0,0,.77,4.47,26.58,26.58,0,0,1,.81,5.82c-.11,1.88-1.45,5.92-3.58,10.79a2.32,2.32,0,0,0-.56,1.26c-2.18,4.73-10,16.67-10.52,17.45l-11.75,14.86-22-10.83c-.6-.34-10.39-5.92-13.48-8.08-.78-.55-1.73-1.27-2.74-2C318.38,225.75,313.92,222.36,310,221.29Z"/></g><g id="n1"><path class="cls-3" d="M363,295.91a9.86,9.86,0,0,0,2.7-.83c.48-.2,1-.41,1.56-.6a15.69,15.69,0,0,1-3,2.44c-1.69.78-4.94,1.09-9.66.93h0c-1.81-.06-3.49-.17-4.84-.26l-.54,0a80.55,80.55,0,0,1-15-2.67c-2.32-.77-6.8-2.81-8.53-4.24a14.37,14.37,0,0,1-2-2.23l2,.18c2.79.28,4,.5,5.08.69a30.51,30.51,0,0,0,3.57.46c.26,0,.83.11,1.44.2,3.21.49,4.9.65,5.78.26s1.82-1.42,3.33-3.12l.71-.79c-.07,1.37-.2,2.53-.31,3.52-.28,2.55-.53,4.76,1.8,5.17a35.88,35.88,0,0,0,5.49.55c.53,0,1,0,1.54.08l.63.06A49.68,49.68,0,0,0,363,295.91Z"/><path class="cls-3" d="M388.37,265.83a23.27,23.27,0,0,1-2.94,3.25c0-.44,0-.86,0-1.24s0-.74,0-1,.09-.72.16-1.18c.29-1.88.65-4.23-.44-5.44-2-2.24-6.76-2-10.94-1.86-1.37.06-2.67.12-3.56.05-.62,0-1.47-.16-2.37-.28-2.79-.37-6.27-.84-8.27,0-1.12.47-2,1.7-3,3a8.88,8.88,0,0,1-1.85,2.12,35.38,35.38,0,0,1-8.59,2.59,18.68,18.68,0,0,0,2-6.94c.28-2.17.56-6.12-.7-8.14-.71-1.14-2.34-1.81-4.06-2.52a9.7,9.7,0,0,1-2.75-1.43c-.61-.69-1.38-3.06-2-5.27L360,251.77l.09,0,18.22,5.1.16,0c.08,0,7,.89,11.88,1.36C389.93,260.66,389.11,264.56,388.37,265.83Z"/></g><g id="Base"><circle cx="338.57" cy="218" r="3.99"/><circle cx="352.89" cy="218" r="3.99"/><circle cx="365.39" cy="219.94" r="3.62"/><path d="M458,119.23l-4.32-13.3-4.32,13.3h-72.9l-4.32-13.3-4.32,13.3h-72.9l-4.32-13.3-4.32,13.3h-19c-8.79-7.44-18.88-15.56-19.51-16.07l-1.84-1.48L246,104c0,.12.24,8.29.05,15.19h-32.7L209,105.93l-4.32,13.3H166.2l-31-19.37-1.55-1.31-1.69,20.68h-.15l-4.32-13.3-4.32,13.3H50.23l-4.32-13.3-4.32,13.3H3.5V259.42H99c-1.09,10-1.1,22.82-1.1,29.79,0,4.17,3.24,12.1,3.89,13.65,3,7.25,11.42,21.78,17.63,28.07,5.72,5.79,26.33,18,28,19l7.54,6.46,73.1,45.08,66.26-53.74,0-.55c0-.49-.51-12.1-1.1-16.06a24.46,24.46,0,0,0-1.88-5.21c-1.15-2.63-3.08-7-1.86-7.86h0c2.8-1.86,8.53,4.62,12.71,9.35a53,53,0,0,0,5.21,5.44l.24.19c.91.74,2.28,1.85,3.1,2.4l.73.5a15,15,0,0,0,3.52,2,39.26,39.26,0,0,0,6.23,1.32c1.77.17,5.8.4,7.55.37,1.47,0,3.34,0,5.31,0,1.48,0,3.05,0,4.64,0,5.21,0,10.65-.18,14.08-1.18a41.45,41.45,0,0,0,12.77-7.14c2.65-2.48,6.66-8.38,8.37-11.5,0-.09,4.56-8.65,3-11.68a2.08,2.08,0,0,0-1.4-1.09,2.28,2.28,0,0,0-.25-.06c-.91-.11-16.53-6.94-15.75-7a16,16,0,0,0,5.54-1.09c.8-.37,6.22-4.4,5.67-6.26a1.3,1.3,0,0,0-1.56-.87,17.87,17.87,0,0,0-4.38,1.31,8.34,8.34,0,0,1-2.09.67,46.64,46.64,0,0,1-6.86-.13,26.66,26.66,0,0,0,1.47-3.17c.07-.23.18-.52.29-.86.82-2.34,1.47-4.38,1.19-5.68-.33-1.5-2-3.16-5.36-5.39-1.92-1.26-5.23-2-8.43-2.63a32.67,32.67,0,0,1-6-1.61c-2.32-1.08-6.39-4.17-8.82-6l-.77-.58c-.59-.45-1.38-1.19-2.21-2a20.92,20.92,0,0,0-4.77-3.77,12.43,12.43,0,0,0-2.82-.76l1.47-1.76h25.34a13.6,13.6,0,0,1-2.18,6.12,1.48,1.48,0,0,0-.07,1.95c.48.55,1.38,1,6-.17a32.78,32.78,0,0,0,6.12-2.16,9.36,9.36,0,0,0,2.56-2.75,8.22,8.22,0,0,1,2-2.27c1.46-.61,4.75-.17,7.15.15.93.12,1.81.24,2.5.29a37.81,37.81,0,0,0,3.81-.05c3.33-.14,7.9-.34,9.23,1.14.4.45,0,2.78-.09,3.66-.08.51-.15,1-.18,1.32s0,.74,0,1.16c0,1.21,0,2.7-.65,3.53a1.33,1.33,0,0,0-.27,1.4l.3.6.66,0h.1c.39,0,.89-.19,3.47-2.69a25.08,25.08,0,0,0,3.36-3.77c.87-1.5,1.67-5.2,2.11-7.51h.27l5,0,5.81,0a5.9,5.9,0,0,0,.68,0H497.5V119.23Zm-90.9,2.17-4.14,12.75H333.25l24,17.44-6.15,18.93c-3.68-3.7-11.44-5.5-17.74-7-1.95-.45-3.79-.88-5.24-1.3-4.35-1.27-15.16-3.94-21-5.38l-1.72-5.29,24-17.44H299.72l-4.14-12.75Zm-81.55,0-3.28,10.1c-1.22-1.31-2.32-2.45-3.22-3.32-1.61-1.58-4.15-3.85-7.54-6.78Zm-37.94,6c.84-4.54.72-16.07.62-21.07,5.63,4.56,22.69,18.47,28.54,24.19,5.25,5.13,17.71,19.68,22.76,25.62l-13.36-3.34c-1.27-.41-20.88-6.79-28-8.18-3.22-.62-11.49-1.94-15-2.48C244.23,140,246.08,135.54,247.58,127.4Zm-2.73-6a43.13,43.13,0,0,1-.48,5.4c-.54,2.94-1.13,5.36-1.7,7.35H218.17L214,121.41Zm-40.88,0-4.14,12.75h-7.67l-20.43-12.75Zm-69.56,67.47,3.79,5.82-18.56,11.94c2.22-5.47,4.94-10.94,6.94-12.46C129.13,192.26,132.47,190.11,134.41,188.88Zm11.53,15.42,1.49,1.16-37.15,28-2.69,1.85c.11-1.67.2-2.92.28-3.61a17.8,17.8,0,0,1,2.36-6.23c1-1.12,4.89-3.35,7.33-4.58Zm-46.7,46.89a58.91,58.91,0,0,0-1.07,6.06H5.67V121.41h35.2l-4.14,12.75H7.06l24,17.44L21.9,179.82l24-17.44,24,17.44L60.74,151.6l24-17.44H55.08l-4.14-12.75h71.49l-4.14,12.75H88.6l24,17.44-9.17,28.22,24-17.44,1.28.93a94.35,94.35,0,0,0,.93,14.68,44.46,44.46,0,0,0,2.63,7.09c-2,1.25-5.55,3.54-8.33,5.63-4.93,3.73-10.14,18.9-10.72,20.61l-2,5.87,4.77-3.06-1.21,3.22c-2.08,1.08-6.25,3.39-7.86,5.18s-3.19,6.47-3.43,8.63-.55,8.24-.56,8.3l-.21,4.38,6.56-4.5v3.55c-3.68,1.77-9.28,5-10.09,8.31Zm.85,35.66c0-9.56.19-26,2.32-34.9.46-1.9,5.85-5.05,9.53-6.69l.65-.29v-.14l47.61-33c1.85.77,7.34,2.93,10.06,2.93h.19c5.3-.21,13.34-3.08,21.52-15.53,5.26-8,7.15-16.15,5.06-21.81-.27-.74-4.5-9.92-5-11L179.1,146.55l0-.07-32.78-37.11,61.4,38.31c.44.31,12.4,8.73,15.33,12.46l.67.84c2.75,3.44,6.53,8.16,6.53,15.15,0,8.6-4.65,16-9.21,22.19-2.18,2.94-11.1,9.49-11.15,9.53C209,208.42,128,263.29,100.09,286.85Zm189.29,39.91a23.71,23.71,0,0,1,1.72,4.65c.5,3.37.95,12.9,1.05,15.29l-64.21,52.08L157,355c.8-2.77,3.51-12.12,4.81-15.42,5.83-14.69,10.32-24.64,13.33-29.55A210.88,210.88,0,0,1,190,289.65c4.36,5,13.51,12,18.88,14.84,7.83,4.16,23.66,11.24,31.79,13.15,7.06,1.66,22.39,3.91,30.36,3.65,3.45-.11,11.54-1.71,16-2.63C286.79,320.84,288.1,323.84,289.38,326.76Zm23.78,7.65c4.22-3.73,19.49-17.56,22.26-24.69a13.86,13.86,0,0,0,.26-4.68l.23.13,1.06.62c.14,2.49.16,6.3-.31,7.48-2.6,6.39-18.47,19.84-21.48,22.36A14.4,14.4,0,0,1,313.16,334.41ZM321,337c-.87-.12-2.17-.37-3.32-.64,4.76-4,18.42-15.94,21-22.28.58-1.44.6-4.68.54-6.87.7.44,1.36.85,1.91,1.15,0,2.56-.13,6.41-.64,7.6C337.93,321.86,323.45,334.84,321,337Zm39.8-27.32c5.24-.49,10.67-1,14.24-.54.61,1-1.21,6.36-3,9.64-1.6,2.93-5.49,8.66-7.94,11a40.07,40.07,0,0,1-11.88,6.64c-4.16,1.21-11.88,1.12-18.09,1.06-2,0-3.87,0-5.37,0-1.07,0-3-.06-4.77-.17,4.62-4.17,16.07-14.86,18.48-20.42.67-1.56.81-5.29.82-7.49a15.93,15.93,0,0,0,3.3.9C350.2,310.66,355.35,310.19,360.8,309.68ZM363,295.92a9.88,9.88,0,0,0,2.7-.83c.48-.2,1-.41,1.56-.6a15.7,15.7,0,0,1-3,2.44c-1.69.78-4.94,1.09-9.66.93h0c-1.81-.06-3.49-.17-4.84-.26l-.54,0a80.54,80.54,0,0,1-15-2.67c-2.32-.77-6.8-2.81-8.53-4.24a14.39,14.39,0,0,1-2-2.23l2,.18c2.79.28,4,.5,5.08.69a30.5,30.5,0,0,0,3.57.46c.26,0,.83.11,1.44.2,3.21.49,4.9.65,5.78.26s1.82-1.42,3.33-3.12l.71-.79c-.07,1.37-.2,2.53-.31,3.52-.28,2.55-.53,4.76,1.8,5.17a35.9,35.9,0,0,0,5.49.55c.53,0,1,0,1.54.08l.63.06A49.76,49.76,0,0,0,363,295.92Zm-41.39-32a20.92,20.92,0,0,1,4.16,3.36c.88.83,1.71,1.61,2.39,2.13l.76.58c2.66,2,6.69,5.07,9.22,6.25A33.67,33.67,0,0,0,344.6,278c3,.63,6.11,1.29,7.69,2.32,3.61,2.38,4.32,3.55,4.43,4,.18.8-.73,3.4-1.11,4.5-.12.36-.23.67-.31.91a33.94,33.94,0,0,1-1.76,3.62l-.89,0a33.51,33.51,0,0,1-5.19-.52l-.12,0a9.16,9.16,0,0,1,.1-2.76,49,49,0,0,0,.37-5.75A1.31,1.31,0,0,0,347,283c-1-.4-1.89.55-3.74,2.63a17.69,17.69,0,0,1-2.56,2.56,21.74,21.74,0,0,1-4.61-.41c-.7-.11-1.25-.19-1.6-.22a28.22,28.22,0,0,1-3.35-.44c-1-.18-2.23-.4-4.79-.67L317.84,276c-.31-.37-7.71-9.06-11.58-11.08a18.27,18.27,0,0,0-4.77-1.08,19,19,0,0,1-4.2-.89,6,6,0,0,1-1.87-1.47,3.16,3.16,0,0,1,.65-1.76c.71-.49,3.39-.1,4.53.06l.87.12a49.7,49.7,0,0,1,5.94,1.44c1.41.4,2.75.77,3.8,1,.91.94,4.29,4.45,5.38,5.7,1.25,1.43,5.65,6.81,5.69,6.86l1.68-1.38c-.18-.22-4.46-5.46-5.74-6.91-.7-.8-2.23-2.42-3.53-3.79l.58.06c1.14.11,2.32.23,3.4.39A12.26,12.26,0,0,1,321.58,263.93ZM310,221.29c-.23-.06-5.59-1.53-7.91-1.11-2.78.5-7.43,3.23-9.7,4.91-2.77,2.05-6,6.68-8.54,10.4-.74,1.07-1.44,2.09-2,2.88-1.12,1.52-2.71,3.46-4.39,5.52-4.36,5.34-9.79,12-11.52,16.67a17.69,17.69,0,0,0-1,6.27,10.61,10.61,0,0,0,3.34,5.68c1.48,1.08,4.21,1.59,6.4,2,.67.13,1.3.24,1.78.36a150.89,150.89,0,0,1,22.62,7.9c7.5,3.59,28.48,17.19,28.71,17.34,0,0,3.83,2.37,5.52,3.5.19,1.91.31,4.55,0,5.33-2.65,6.83-18.66,21.19-22.07,24.2-.74-.55-1.66-1.3-2.27-1.8l-.24-.19a53,53,0,0,1-5-5.19c-5.15-5.84-11-12.43-15.35-9.84-2.42.52-13.58,2.89-17.57,3-7.78.24-22.85-2-29.8-3.59-8-1.87-23.54-8.84-31.27-12.95-5.54-2.94-15.41-10.57-19-15.29a22,22,0,0,1-1.34-2.21c-1.67-3-4-7.06-6.91-5.52-8.35,4.4-18.78,23.63-22.25,32.46-3.09,7.87-10.87,29.9-12.8,35.39-4.57-2.73-21.65-13-26.55-18-5.28-5.35-13.28-18.54-16.8-26.54,29.88-18.73,111.3-77.33,113.22-78.72s6.69-4.36,7.31-6.17c1.24-3.62-5.17-6.81-5.44-6.95-1.35-.66-4.5-1.86-6.56-2.62,2.76-2.1,8.24-6.4,10-8.81,2.88-3.89,9.64-13,9.64-23.48,0-7.76-4-12.82-7-16.51l-.66-.83c-2.48-3.16-10.47-9.07-14.06-11.66,3.72-1.21,11.53-3.66,14.77-4,3.81-.39,15.34.84,15.87.9s12.5,1.94,16.43,2.71c6.84,1.34,26.28,7.63,27.7,8.09l13.74,7c.14.07,14.37,6.55,20.27,9.42,2.13,1,2.16,9.61,1.51,15.67-2.3-.05-7.91-.15-10,0-3.16.27-10.92,1.46-13.53,1.87-1.52-3.09-6.44-5.55-10.47-7.57-1.08-.54-2-1-2.73-1.41-4.61-2.63-13.8-7.26-19.06-7.92-5.94-.76-12.19-1.08-13.48,2.32h0c-1,2.6,2.83,5.82,6.52,8.93a26.84,26.84,0,0,1,3.41,3.15,41.68,41.68,0,0,1,2.6,4.4c1.92,3.55,4.1,7.58,7,9.14a8.45,8.45,0,0,0,3.76.63,51.82,51.82,0,0,0,5.74-.44l.57-.07a40.75,40.75,0,0,0,12-3.57c1.6-.87,4.13-3.27,4.53-5.46,2.62-.41,10.3-1.59,13.34-1.85,1.4-.12,4.61-.1,7.16-.07l-4.94,3.14,1.17,1.83,7.7-4.9.65,0v0c2.34,0,8.44-.14,10.74,0,4.23.3,16.49,2.28,17.89,2.51.93.4,6.46,2.74,8.65,3.1,4,.66,10.79.41,16.76.19,3-.11,5.9-.22,8.12-.19a43.34,43.34,0,0,0,.77,4.47,26.58,26.58,0,0,1,.81,5.82c-.11,1.88-1.45,5.92-3.58,10.79a2.32,2.32,0,0,0-.56,1.27c-2.18,4.73-10,16.67-10.52,17.45l-11.75,14.86-22-10.83c-.6-.34-10.39-5.92-13.48-8.08-.78-.55-1.73-1.27-2.74-2C318.38,225.75,313.92,222.36,310,221.29Zm35.56,36H324.33L336.24,243c.64,2.38,1.49,4.85,2.51,6a10.6,10.6,0,0,0,3.95,2.28h0a13.48,13.48,0,0,1,2.53,1.23C345.53,253,345.83,254.57,345.61,257.25Zm42.77,8.58a23.25,23.25,0,0,1-2.94,3.25c0-.44,0-.86,0-1.24s0-.74,0-1,.09-.72.16-1.18c.29-1.88.65-4.23-.44-5.44-2-2.24-6.76-2-10.94-1.86-1.37.06-2.67.12-3.56.05-.62,0-1.47-.16-2.37-.28-2.79-.37-6.27-.84-8.27,0-1.12.47-2,1.7-3,3a8.88,8.88,0,0,1-1.85,2.12,35.38,35.38,0,0,1-8.59,2.59,18.68,18.68,0,0,0,2-6.94c.28-2.17.56-6.12-.7-8.14-.71-1.14-2.34-1.81-4.06-2.52a9.69,9.69,0,0,1-2.75-1.43c-.61-.69-1.38-3.06-2-5.27L360,251.77l.09,0,18.22,5.1.16,0c.08,0,7,.89,11.88,1.36C389.93,260.66,389.11,264.56,388.37,265.83Zm17.48-11c-2,1.06-7.52.73-10.51.54h-.13l-1.27-.07c-.49,0-1.14-.07-2.11-.16-4.26-.38-11.22-1.24-12.78-1.44l-14.82-4.15,10.32-13.06.08-.12c.35-.53,8.59-13.06,10.86-18.09l.17-.38c1-.37,4-.27,8.79.3,1.07.13,2,.24,2.69.28,4.47.29,12.3,1.25,15.55,2.73l1.16.5A23.31,23.31,0,0,1,419,224.4c-1.06,2.62-2.11,6.06-3.06,9.14s-1.79,5.86-2.57,7.72c-.23.54-.48,1.17-.75,1.85h0C411.19,246.72,408.49,253.44,405.85,254.87Zm89.47,2.38H408.56c4.51-3.83,7.67-11.39,8.12-12.51l0-.05c.26-.64.5-1.23.71-1.75.87-2.06,1.77-5,2.73-8.15a95.37,95.37,0,0,1,3.27-9.59c.12-.29.26-.58.45-.94a37.58,37.58,0,0,1,4.53-5.85c2.59-3,5.28-6.08,6.28-8.92,0-.06,2.21-6.31.37-9.44-1.61-2.75-6.53-4.53-10.39-5.54-3.12-.81-9.17-1.13-14.5-1.41-1.83-.1-3.56-.19-4.91-.29l-3.1-.23c-5-.38-11.93-.91-16-1-2.43-.08-5.78,0-9.34.17-5.82.21-12.42.46-16.11-.15a47.45,47.45,0,0,1-6.73-2.39l-.15-6.11a43.37,43.37,0,0,0-.41-7.08l18.72-13.6,24,17.44-9.17-28.22,24-17.44H381.27l-4.14-12.75h71.49l-4.14,12.75H414.8l24,17.44-9.17,28.22,24-17.44,24,17.44-9.17-28.22,24-17.44H462.82l-4.14-12.75h36.65Z"/></g><g id="p1"><path class="cls-4" d="M294.18,188.47c-1.3-2.66-5.53-4.77-9-6.49-.93-.46-1.73-.86-2.34-1.21-4-2.26-11.85-6.23-16.37-6.8-5.1-.65-10.47-.92-11.57,2h0c-.85,2.24,2.43,5,5.6,7.67a23.05,23.05,0,0,1,2.92,2.7,35.82,35.82,0,0,1,2.23,3.78c1.65,3,3.52,6.5,6,7.85a7.26,7.26,0,0,0,3.23.54,44.41,44.41,0,0,0,4.92-.38l.49-.06A35,35,0,0,0,290.61,195c1.37-.74,3.55-2.81,3.89-4.69"/><path class="cls-4" d="M321.58,263.93a20.91,20.91,0,0,1,4.16,3.36c.88.83,1.71,1.61,2.39,2.13l.76.58c2.66,2,6.69,5.07,9.22,6.25A33.68,33.68,0,0,0,344.6,278c3,.63,6.12,1.29,7.69,2.32,3.61,2.38,4.32,3.55,4.43,4,.18.8-.73,3.4-1.11,4.5-.12.36-.23.67-.31.91a33.87,33.87,0,0,1-1.76,3.62l-.89,0a33.51,33.51,0,0,1-5.19-.52l-.12,0a9.17,9.17,0,0,1,.1-2.76,49,49,0,0,0,.37-5.74A1.31,1.31,0,0,0,347,283c-1-.4-1.89.55-3.74,2.63a17.68,17.68,0,0,1-2.56,2.56,21.77,21.77,0,0,1-4.61-.41c-.7-.11-1.25-.19-1.6-.22a28.27,28.27,0,0,1-3.35-.43c-1-.18-2.23-.4-4.79-.67L317.84,276c-.31-.37-7.71-9.06-11.58-11.08a18.26,18.26,0,0,0-4.77-1.08,19,19,0,0,1-4.2-.89,6,6,0,0,1-1.87-1.47,3.16,3.16,0,0,1,.65-1.76c.71-.49,3.39-.1,4.53.06l.87.12a49.66,49.66,0,0,1,5.94,1.44c1.41.4,2.75.77,3.8,1,.91.94,4.29,4.45,5.38,5.7,1.25,1.43,5.65,6.81,5.69,6.86l1.68-1.38c-.18-.22-4.46-5.46-5.74-6.91-.69-.8-2.23-2.42-3.53-3.79l.58.06c1.14.11,2.32.23,3.4.39A12.27,12.27,0,0,1,321.58,263.93Z"/></g><g id="p2"><polygon class="cls-3" points="45.91 105.93 36.73 134.15 7.06 134.15 31.07 151.6 21.9 179.82 45.91 162.38 69.92 179.82 60.74 151.6 84.75 134.15 55.08 134.15 45.91 105.93"/><polygon class="cls-3" points="131.97 119.77 127.48 105.93 118.31 134.15 88.63 134.15 112.64 151.6 103.47 179.82 127.48 162.38 128.91 163.42 131.97 119.77 131.97 119.77"/><polygon class="cls-3" points="453.64 105.93 444.47 134.15 414.8 134.15 438.81 151.6 429.63 179.82 453.64 162.38 477.65 179.82 468.48 151.6 492.49 134.15 462.81 134.15 453.64 105.93"/><path class="cls-3" d="M411,134.15H381.31l-9.17-28.23L363,134.15H333.3l24,17.44-6.2,19.08h0a9.07,9.07,0,0,1,2.4,5.24l18.63-13.54,24,17.44L387,151.6Z"/><path class="cls-3" d="M218.23,134.15l-8-24.74-1.13-3.49-5.63,17.32-3.08,9.47c-.09.27-.24,1.27-.48,1.44s-.82,0-1,0h-13a11.35,11.35,0,0,1,1.84,1.17c.61.39,1.28.7,1.91,1.06a15.68,15.68,0,0,1,1.35,1c.65.47,1.42.73,2.11,1.13,2.38,1.39,4.55,3.06,6.92,4.46s4.85,2.76,7.09,4.35c.31.22.65.41,1,.63.48.32.49.47,1.05.15s1.18-.75,1.82-1c1.2-.54,2.55-.73,3.79-1.17a75.58,75.58,0,0,1,8.49-2.42,28.18,28.18,0,0,1,8-.29c.67,0,1.33.15,2,.19.34,0,.69,0,1,0a2.81,2.81,0,0,0,.81.1,2.49,2.49,0,0,0,.59-.43l3.58-2.6,4.71-3.42c1.19-.86,1.93-1.3,2.2-2.91H218.23Z"/><path class="cls-3" d="M299.15,155.87c.82.74,2.59.51,3.65.52a27.63,27.63,0,0,1,4.33.49L306,153.32c-.16-.48-.68-1.41-.43-1.81s1.12-.81,1.5-1.09l2.84-2.06,15.45-11.22,4.09-3H300.93c-.23,0-1,.13-1.16,0-.38-.25-.61-1.75-.75-2.18l-4.71-14.48-3.76-11.56-8.37,25.77a18.35,18.35,0,0,1-.68,2.09c-.3.64-.79.37-1.56.37,1.44,1.58,3,3.11,4.45,4.7.82.92,1.48,1.94,2.35,2.83s1.82,1.88,2.69,2.86,1.67,2.16,2.64,3.07a30.26,30.26,0,0,1,2.49,2.71C296.09,152.14,297.36,154.26,299.15,155.87Z"/></g></svg>