<svg xmlns="http://www.w3.org/2000/svg" viewBox="0 0 500 500"><title>clan-steel-viper</title><g id="Icons"><path d="M487.36,32.4H348.43c-21.43,0-50.81,5.39-71.61,0C259.68,28,259.5,18.56,250.07,0c-9.26,18.22-9.73,27.77-26.75,32.4-20.56,5.6-50.32,0-71.61,0H12.77l68.09,134c11.68,23,28.67,47.56,36.66,72.17,6,18.52-.63,23.56-10.65,43.28,25.17,0,28.8-5.24,39.94,14.39,13.27,23.37,24.49,48.21,36.66,72.17l66.59,131.09,66.59-131.09c12.18-24,23.38-48.79,36.66-72.17,11.11-19.56,14.85-14.39,39.94-14.39-10.18-20-17-24.8-10.48-43.6,8.7-25.26,25.4-50,37.47-73.76Q453.81,98.46,487.36,32.4ZM269.46,73.9c-12.77-2.67-26.21-1.75-39,.36l19.58-38.53Zm117.71,85c1.28,5.13,0,12.05-5.52,14.15.24-.81-2.2-11.09-4.16-8.62q.48,4.78.88,9.56c-.58-1.9-5.05-7.28-4.84-9.39,4.18,3,2.07-9.25,2-10.05,3.44.47,7-2.23,9.5-4.19.2,2.06-2.28,13.91-2.7,14.11A25.67,25.67,0,0,0,387.17,158.91ZM291.81,303.24c4.76,4.75,4.57,8.6-.09,12.66C293.05,309.5,288.12,308.84,291.81,303.24Zm-4.73,5.7c2.89,3.64-.83,6.82,1.16,9.57l-3.09,1.83C286.89,314,282.1,313.64,287.09,308.94Zm-4.85-31.82c.29-9.76,7.73-70.7,19.19-74.36C302.24,202.5,300.36,274.94,282.24,277.12Zm-3.51,46.48c.65-2.75.38-7-2.54-8.53C285.93,312.27,282.91,323.49,278.73,323.6Zm-9.23-7.06c8.69-1.44,7,11.33.64,10.23C270.9,323.92,270.86,319.4,269.5,316.55ZM270,194.2q-1.92-8.1,3.1-12.63C279.28,182.17,274.18,193.7,270,194.2Zm2.85-16.29c-1.88,3.43-13.59,2.13-16.21,2.15a144,144,0,0,0-1-38c9.43-1.69,20.37-2.76,28.59,3.31C278,153.21,277.94,168.57,272.81,177.91ZM261.12,317.72c8.58-1,9.43,9.76.88,10.13C263.36,324.18,262.28,321.18,261.12,317.72ZM266,194.48l-4.8-.07c2.65-7.09-.6-10.23,7.56-11.45A17.9,17.9,0,0,1,266,194.48Zm-12,123.57c5.58.16,6.53,5.08,4.37,10l-4.65.08A33.08,33.08,0,0,0,254.07,318.05Zm-1.47-124.54a24.16,24.16,0,0,0,1.94-10.16c1.9,0,3.81.08,5.72.1C259.89,190.22,260.11,194.57,252.61,193.51Zm-7.37-10.15,6.07,0c.09,2.75-2.17,7.17-1.69,9.76C242.7,192,246,189.57,245.24,183.36Zm2.64,134c5,0,3.51,7.14,2.59,10.69C244,327.9,248.7,321.95,247.88,317.37ZM245.42,180c-11.45-.22-31.79-43.14-4.27-40.41C258.84,141.35,262.27,180.33,245.42,180Zm-7.64,147.79c-7.72-1.26-3-6.1-3.2-12.2C242.3,317.7,237.6,320.85,237.78,327.79Zm-7.51-1.57c-5.62-.84-8.84-11.51-2.45-13C234.44,311.6,230.61,329,230.26,326.22ZM214,320.33c-7-3.16.16-19.66,4.9-12.24A14.71,14.71,0,0,0,214,320.33ZM128.68,178.94q-1-3-1.73-6.12c3,3.33,5.56,3.53,9.46,5.28a8.54,8.54,0,0,1,5.14.82C147.14,183.12,124.45,179,128.68,178.94Zm7.46,6.31a43.55,43.55,0,0,0-3.28,5.75c-1.07-.88-2.41-6.7-2.7-7.57A12,12,0,0,0,136.14,185.25Zm-16-3.11c-7.41-5.87-1.73-17.68,4.54-22.3-.61,2.86-1.56,5.53-1.54,8.5C120,168.62,120.16,180,120.15,182.14ZM220.86,81.8a48.52,48.52,0,0,1-2.51,5.76q4.32,4,5.53-3a31.06,31.06,0,0,1,5.3,7.08c-9.07,4.18-19.43-5.57-26-11.06C209,74.51,215.3,77.24,220.86,81.8Zm8.55-3.06c5.13,1.82,7.79,5.05,8.78,10.39-6,.87-14.53-3.62-13.61-11.32A5.6,5.6,0,0,1,229.41,78.74ZM363,138c2.68,5.43-.83,7-5.21,8.06.61-4.14-2.06-9.34-4.75-12.28C357.59,134.3,360.57,133,363,138Zm-7.7-7.14a56.63,56.63,0,0,0,1.93-6.14,7.81,7.81,0,0,0,2.87,4.88A7.63,7.63,0,0,1,355.34,130.88Zm4.56,37.06c-2.33-3.88.52-9.27-.24-13.89,3.13,3.81,15.69,18.93,1.41,19.92A9.26,9.26,0,0,0,359.9,167.94Zm5.28-12.82a87.41,87.41,0,0,0,6.14-6.26c.13.65,2.82,15,.46,14.66A59.64,59.64,0,0,1,365.18,155.12Zm-.38-4c-4.33,1.3.73,4.91-5-2.23a19.27,19.27,0,0,0,10.29-5.5C370.79,146.14,367.33,150.41,364.8,151.16Zm4.05-11.1-2.36,2.31c.1-4.53-.65-7.54-4.49-10.22C366.63,128.65,370.29,138.61,368.85,140.06Zm-18.25,45.88a147.87,147.87,0,0,0-9.55,14.78c.68-5.33-5-27.38,2.48-30.65,5.08-2.22,1.45,14.34,1.86,15.51.36,1,6.28-16.77,8.92-17.64C353.57,173,349.53,180.83,350.61,185.94Zm-15.83,27.58q-2.86,4.19-5.65,8.44c.35-1.15,8.23-49.47,7.77-49.34C341,186.32,331.28,201.42,334.78,213.52ZM315.09,160.6c9.86,1.31,14.26,9.6,2.69,13.43C318.27,169.41,316.74,164.83,315.09,160.6ZM308,206.78c-1.87-17.56-14.51-1.07-17.88,5.85-17.73-21.21,14.28-30.68,27.25-35C316.31,189.93,315,196.65,308,206.78Zm8.26,51.87c6.51,1.21,1.42,11.34,0,13.9C316,270.45,307.45,257,316.22,258.65Zm-37.48-73.08c3.16-.47,4.63-4.78,5.77-7.16.29,8.61.79,11.48-7.69,14.29A38,38,0,0,0,278.74,185.57ZM277,177l4.63.38a11.28,11.28,0,0,1-3,4.65C277.78,179,275.48,179.79,277,177Zm6.39-2.84-4.78-.2c1.66-3.22,3.59-4.1,7.48-3.21A4.67,4.67,0,0,1,283.37,174.17Zm-1.79-6.66,1.41-4a18,18,0,0,0,5.64,2.08C287.69,168.41,284.61,168.08,281.58,167.52Zm67.66-24c-8,1.41-14.79,4.24-18.66-4.41C336.7,141.08,343.18,141.6,349.24,143.55ZM331.51,136m12.7-3.3c5,.6,8.52,4.25,9.91,9.5-3.06-2-7.67-2.71-11.14-3.41A10.78,10.78,0,0,0,344.21,132.73Zm-2.34,21.09c-.26-.79,6.37-3,6.52-3.09,2.25,6.39,2.06,15.13-5.09,16.89C344.26,163.2,343.27,158,341.87,153.82ZM335.8,153l-1.52-4.83c1.77,0,16.26-2.16,16.76-1.46C345.59,147.81,340.68,150.53,335.8,153Zm-4.87-4.56c2.2,10.93-7.37,9.64-15.25,9,3.29-7.17,5.81-13.77,6-21.75C327.58,138.47,329.48,141.3,330.93,148.48ZM309,169c-10.74-21.63,15.61,2.32.77,7.84A13.78,13.78,0,0,0,309,169Zm-2.52,9.1c-1.1.44-5.17-8.53-4-10.49C307.75,171.21,305.3,172.9,306.49,178.09Zm-.28-20.89a26.38,26.38,0,0,0-1.42-12.38C310.26,143.53,317.77,155.33,306.21,157.2Zm2.54-14.5c-6.21-4.86-6,.15-6.35-9.44,6.21,4.18,16.87,7.09,12.9,17A33.34,33.34,0,0,0,308.75,142.7Zm9.65-2c-6.2-7.32-20.71-10.45-18.17-22.69C306.11,125.48,319.88,131.08,318.4,140.73ZM300,150.84q.27-4,.3-7.94C302.63,146.49,303.36,148.45,300,150.84Zm3.12,1.73a22.53,22.53,0,0,1-.57,6.67c-1.08-1.14-5.91.13-6.94.31C297.13,156.21,300.25,154.63,303.14,152.57Zm-3.92,19.5c-2.57,2.88,6.16,5.81-2.93,10.54C296.33,175.88,294.85,176.94,299.21,172.07Zm-3.5-9.26c1.93-.36,4.07-.33,6-.78a24.65,24.65,0,0,1-3,5.57C297.47,166.12,296.9,164.23,295.72,162.8Zm-8,15.09a4.1,4.1,0,0,0,4.88-.08c1.26,6.48.39,6.63-5,9.75A91.73,91.73,0,0,0,287.73,177.9Zm4.37-3.82c-2.5,1.75-8.08-3.12,2.45-1.94Zm-.73-5.53c3.48-4.2.38-4.71,4.35.51A22.57,22.57,0,0,0,291.37,168.54Zm5.95-27.71q-.28,3.73-.47,7.46c-.06-.15-5.25-5.65-6.59-4.48C290.26,143.81,297.48,140,297.32,140.84Zm-5.72,7c4.22,1.66,3.3,6.16,1.6,9.19C289,154.42,280.88,143.58,291.6,147.82Zm.05,12c8.74,5.31-4,1.94-6.08,1.47.27.12.58.24.94.37-1.31-.42-1.45-.48-.94-.37-2.66-1.17-1.36-2.32-1.07-5.76Q288.15,157.58,291.65,159.85Zm33.63.8,5.1-1.52a20.08,20.08,0,0,1,1.55,11.6C328.71,173.43,325.66,161.37,325.28,160.65Zm10.52,8.9c-.44-8.72-5.37-10,3.06-14.5C340.76,160.93,342.49,167.68,335.81,169.55Zm15.39-4a22.44,22.44,0,0,0,.33-15.61C359.82,148.35,357.86,163.55,351.2,165.53Zm.78-34.89-2.81-.45c2.71-3.2,3.67-8,5-11.89C356,122,353.33,127.19,352,130.65Zm-16.17-2.53c4.49-2.51,14.78-9.39,15.84-12.43C347.85,126.62,348.15,130.85,335.81,128.12Zm6.55-7.92c-7.38,6-11.16,7.65-19.17,2.46,6.27-2.4,14.75-5.26,18.25-11.7a9.46,9.46,0,0,0,7.64-2.08C348.91,113.88,346.48,116.86,342.35,120.2Zm-12.71,11.17c.19,7.37-8.31-.35-8.44-.13C323.32,127.67,329.5,125.61,329.65,131.36Zm-11.23-1.77c-.65,1.09-19.14-13.62-19.29-18,9.89,1.89,13.91,8.32,22.4,13.86Zm-19.25,8c-3.14-1.19-6.34,2.92-8.51,2.42-4.78-1.09-2.21-5.83-3.73-6.59C289,134.46,299.84,118.94,299.17,137.58ZM285.7,126.7c-.94-1.08-4.89-3.83-5.17-5.41,7.09-.73,15.37-5,17.54,3.95C294,124.64,289.63,125.82,285.7,126.7Zm-31.18,6.83c-1.42-13.41,24.08-14.84,29.43-3.87A31.08,31.08,0,0,0,254.53,133.53Zm29.28,7.76c-8.66-4.91-19.21-4.1-28.63-2.43C255.17,138.85,283.71,118.94,283.8,141.29Zm-10.16-46a16.71,16.71,0,0,0-8-5.41C271.19,84.37,281.11,89.5,273.64,95.32Zm11.7,4.33a14.4,14.4,0,0,1,1.46,5.51c-3.86-.82-8.4-4-12.36-3.61C277.38,97.62,280.27,91.34,285.34,99.64Zm-.33,8.44c-9.11,5.67-21.25,4.24-31.53,8.58C253.21,100.8,278,106.67,285,108.08Zm3.51,1.8c3.6-1.76,14.92,5.83-.38,7.39C275.44,118.57,279.49,114.32,288.52,109.88Zm-26.27,6.84c8.12-3,13.37-5.3,14.85,3.64-9.49-2.94-14.6,2.19-23.38,3C253.46,118.34,257.75,118.39,262.25,116.73ZM293,107c-4.54,1.52-3.8-7.12-3.14-8.17C295.79,89.52,301.31,104.23,293,107Zm-4.81-10.93c-2.38.37-3.06-1.84-6.22-3.08,5.8-4.32,5.91-5.5,11.55-.67C291.16,92.59,290,95.8,288.22,96.07Zm-8.14-5.65c-1.5-3.54-5-5.91-8.6-6.84C276.24,79.82,287,85.28,280.08,90.42ZM274.32,77.9c-4.7,2.83-9.9,11.26-15,10.68,1.66-4.16,4.94-8,6.27-12.23C268.54,76.64,271.38,77.52,274.32,77.9ZM256,88.34c-3.59,1-4-9.66-5.06-12.53q5.59,0,11.18.27C261.35,77.42,256.92,88.06,256,88.34Zm13.77,7.59c4.07,3.44-38.11,14.36-45.13,4C220.61,94,264.63,91.61,269.74,95.93ZM209.17,201c3,5.46,4.08,48.39,8.53,49.33,1.08,9,3.67,18.08,4.27,27.1-12.75-8.35-35.64-77.15-20-87.41C201.43,192,208,198.88,209.17,201Zm5.17.94c.3-7.38-13.33-18.59-18.3-9-3.38-5.36-2-13.41-5.56-19.42,7.06,1.3,26.59,3.62,29.53,12C223.09,194.31,214.71,193.16,214.34,201.92Zm-35.48,65.67c-6-4.2,1.8-9.57,5.18-11.74,3.6,7.24.23,7-3.17,13.59Zm1.82-107.83q3.07-.37,6.14-.47-.46,4.47-.91,8.94C178.87,166.86,181.32,166.46,180.68,159.76Zm-24,29.18q.28,6.71.56,13.42c-1.77-3.44-13-30.8-3.64-32.29C160.66,168.93,156.51,185.92,156.64,188.93Zm-27.36-42.07c5.73,2.34,13.84.84,18.46-2.72a40.2,40.2,0,0,0-.11,6.69c-6.48-1.19-15.62-2.79-20.21,2.91-1.52-3.19-5-10-.92-12.3A4.77,4.77,0,0,0,129.28,146.86Zm24-16.47q2.18-.74,4.33-1.6c-1.36,2.8-9.8,21.07-14.65,7.65C141.86,133.37,152.25,130.74,153.29,130.39Zm-6.61-1.53c.12-3.53.5-6.7,2.2-9.87a23.53,23.53,0,0,0,2.45,8.46Zm38.83-36.41c-6.36,12.25-10.5,18.79-10.31-4.27C178.93,89.69,182.17,90.1,185.51,92.45Zm-3.69-10.94q2.52,3.73,4.74,7.66a36.76,36.76,0,0,0-7-3.35Zm-5.11,3.8-11.1-1.88c-5.65,2.38-5.78,7.6-11.35-.25q4.2-2.58,8.32-5.32A16.36,16.36,0,0,0,165.61,83.43Zm21.86,26.06c-13.9,7.34-23.9.16-31.61-13.41a39.06,39.06,0,0,0,5.23.81C164.36,109,176.94,109.66,187.47,109.49Zm19.11-2.27a103.25,103.25,0,0,1-17,13C183.82,109.62,200.25,108,206.58,107.22Zm-11.07-19.9c7.33,2.51,10.94,8.82,10.07,16.25C194.39,102.59,194.8,94.91,195.51,87.32ZM210,106.69c6.76-1.23,14.15-1,12.52,9.3-1.76-1.23-21.38,2.34-20.07-1C203.28,113,212.32,110.28,210,106.69Zm6.38-5.12-2.55.95a22.55,22.55,0,0,0-.11-10.58C221.49,96.7,215,94.83,216.39,101.57ZM234,106.08c5.15-1,16.16,6.45,16.31,12.06-2.9-.87-34-12.63-29.94-15,1.58,1.22,10.81,4.82,13.07,5.7A2.31,2.31,0,0,0,234,106.08Zm-9.12,15.86q.67-4.26,1.35-8.52c4.32,2.26,24.09,6.08,24.29,9.94C243.62,119.22,232.23,121.47,224.85,121.95Zm26.1,8.32c-8.37-2.17-18.8-.55-27.34-.5C225,121.29,250.25,122.25,250.95,130.27Zm-31-30.66,1-3.74C223.79,97.24,221.91,98.23,219.93,99.6Zm-3.16,67.51c.32,1.93,1.62,11.35.58,12.84C211.64,178.53,213.7,169.17,216.78,167.11ZM203.45,140c3.94,8.53-4.66,5.44-5.52,13.73a9.84,9.84,0,0,1-4.32-3.54C196.86,146.82,200.06,143.33,203.45,140Zm-12.31,8.09c-5.2-10.9-3.31-16.11,9.9-18.3C201.74,139,197.12,141.77,191.14,148.13Zm28-9.34c-4.8-.34-7.3,1-10.7,4.17-4.47-7.55,4.29-11.59,11.78-12.21C219.79,133.36,219,136.15,219.12,138.8ZM213,152.69c0,.66-8.06-3.09-8.64-3.32C209.29,146.1,208.76,150.05,213,152.69Zm.59,6.12c-.21,0-4.35,4.21-5.18,5.14a9.44,9.44,0,0,1-2.16-4.9A24.64,24.64,0,0,0,213.6,158.81Zm-12.44-5,.75-2.15c2.27,2.64,7.49,2.74,10.41,4.06C209.7,156.18,200.82,157.31,201.15,153.85Zm9.57,22.2c-4.86-2.49-20-9.09-6.11-12.62C207.24,166.53,208.88,172.28,210.73,176.05Zm-.22-7.34c-2-2.26,4.77-6.86,5.94-8C218.37,165.32,213.29,165,210.51,168.72ZM223,146.54c1.65,2.55,2.35,5.82,3.07,8.71a10.77,10.77,0,0,0-7.62,2C215.93,151.11,216.17,150.3,223,146.54Zm-8.69,2.89c-1.25-.18-3.39-2.89-4-3.71,1.56-1.43,10.23-7.22,10.84-1.84C221.07,143.64,214.26,149.42,214.28,149.43Zm6.43-21.94c-5.92.29-11.47,3.25-16,6.91C201.6,114,222.66,115.2,220.72,127.49Zm-21.3-10c2.53,12.63-4,9.35-13.45,15.66C182.35,124.3,192.93,122.31,199.42,117.5Zm-31.64,48.62c-6.77-.25-6-1-6.33-7.42a24.3,24.3,0,0,0,6.7,1.44A21.62,21.62,0,0,0,167.79,166.12Zm-14.55-13.85c4.77-2.47,16.53-9.12,18,1.12C172.43,161.52,157.47,153.62,153.23,152.26Zm-2.43-2.39c-.46-9.76,3.13-9.12,11.8-12.59a15.44,15.44,0,0,0,1.6,7.16C159.38,145,155,147.73,150.81,149.88Zm.36,17.24c-5.54.15-8.55-9.43-9.69-13.81C152.83,154.1,147.43,159.83,151.17,167.11ZM171.94,122c.35,9.51-2.88,9.17-11.61,12.74C156.45,127.51,167.65,124.3,171.94,122Zm-3,22.13c-13.84-4.35,9.49-14,12.38-15.49C180.82,133.31,178.53,147.15,169,144.15Zm7.88-16.84c-6.95-7.17,4.6-10.53,9.34-13.17C186.14,122.89,184.44,123.5,176.86,127.31ZM156.5,104.09c4.28.55,13,10.65,18.2,12.68-9.08,5.22-21.43-3.59-21.75-13.57Zm8.81,17.69c-11,5.34-12.48,3.35-13.54-7.92C156.5,115.38,161.07,119.07,165.31,121.78Zm-21.83,7.91c-10.86,2.64-1.74-7,1.39-9.81C144.06,122,142.89,127.17,143.48,129.7Zm-3.28,4c-.33,3.61.78,7.29,4.65,8.39-7.72,6.08-12.08,2.33-15-3A26.1,26.1,0,0,1,140.2,133.74Zm-13.32,30.54.87-3.44c.26,1.88,11.95,13.49,11.8,13.57C134.68,177.18,125.63,169.43,126.87,164.28Zm6.45,1.26c-3.71-3.35-3.83-13.73,3.39-12.1,4.12.93,6,11.12,8.16,13.92C140.74,167.6,136.92,168.79,133.32,165.54Zm13.62,5c-1.18,5.92,2.49,14.22,3.48,20.12-3.72-6-7.44-12.63-7.76-19.9Zm8.11-4.19c-3,.22-2.38-9-1.9-10.79,7.65,2.45,4.25,3.45,6,10.57Zm4.83,8.24c.8-3.3.18-4.23,3.8-4.08-3,15.69,2,33.08,2.54,49C159.31,207.73,156.62,188.13,159.88,174.57Zm7-3.79q0-1,1.73,0c-2.88,17.84,3,39.81,3.64,57.94C164.85,217.68,164.4,183,166.91,170.78Zm4.41-10c.19-.87,5.5-.68,6.17-.73a14.18,14.18,0,0,0,.18,6.89C172.34,166.26,169.75,168.13,171.32,160.74Zm3.64-5.13a13.24,13.24,0,0,0-4.42-8.59c5.4-1.06,9.59-5.8,13.91-8.86C188.24,149.23,186.78,152.48,175,155.61Zm9.66.68-2.56.14c6.59-3.16,15.89-4.31,21.06,3.89C196.22,159.36,191.91,156,184.61,156.29Zm5.46,3.22c8.39,1.52,6,5.4,6.74,11.87C188.14,169.4,190,167.81,190.07,159.51ZM226.76,158l1.24,3.84c1.92.23-12.67,3.28-8.39-1A24.78,24.78,0,0,1,226.76,158Zm-2.93-16.13c-8.52-11,26.48-14.69,28.1-2.78C244.14,136,229.81,134.07,223.83,141.89Zm18.48-66c6.77-.14,7.69,7.13,8.16,12.43C244.5,88.49,244.75,81.4,242.31,75.92Zm1.13,12.69c-4.12.25-5.62-12.61-10-12.1C241.6,75.58,242,81.12,243.45,88.61ZM195.27,69.87a35.69,35.69,0,0,1,17.44,3.77C203.29,72.44,199.65,83.52,195.27,69.87ZM210,103.48c-.42.09-.84.17-1.26.23,1-8.82-13-26.76-19.58-32.29l3-.56C196.28,83.53,217.68,87.54,210,103.48ZM191.38,91.2c-3.73-6.81-10.53-11.08-4.74-17.71C192.08,77.56,193.44,85,191.38,91.2ZM181.22,75.33c-4-5-8.12-7.46-14.34-5.16C173.4,54.62,189,59.94,181.22,75.33Zm-28.66,5.09c-5.61-10.27,5.56-18.42,15-21.1C164,70,162.23,74.61,152.56,80.42Zm7.72,13.07C148.1,91.32,144,88.58,147.69,77.71,150.09,83.18,159.64,89.91,160.28,93.49Zm-5.6,7c-6.77-2.06-10.65-4.38-10.33-10.74C148.07,94.59,151.39,95,154.68,100.45Zm-4.47,8.67c-7.43-3.46-8-4.37-6.81-11.4C150,102.45,149.12,101.33,150.21,109.12Zm-1.56,5.68c-1.5-.39-14.69-2.28-11.73-5.85C140.43,104.71,148.22,109.81,148.64,114.8ZM143,117.26c-1.89,1.61-4.63,4.51-6.51,6.37A8.85,8.85,0,0,1,134,113.34Q138.56,115.09,143,117.26Zm-10.31,16c-5.75-1.23-4.41-10.83-2.28-13.79C130.62,120.56,141,135.07,132.64,133.3ZM130,135.06c-7.25,5.47-13-4.11-5.19-9.41C125.6,129.15,127.82,132.26,130,135.06Zm-7.44,4.48c-7,2.45-11.22-4-5.52-8.79C117.34,134.16,119.28,138,122.51,139.54Zm-8.23,8.69c1.76-6.55,2.13-3.75,7.56-5-.4,4.79-4.24,6.26-8.51,8.59Zm7.78,1.61a40.2,40.2,0,0,0,2.62,6.35c-3.38,1.52-8.59,7.87-9.62,11.21C109.52,155.63,113.09,157,122.06,149.84Zm2,24.79c1.05,4.29,2.61,8.53,4,12.71q-2.32-1.54-4.7-3C124.11,181.47,123.53,177.58,124,174.62Zm18.81,8.82c4.06,8.65-3.23,4.43-4.55,12.52C132.48,189.45,141.09,189.26,142.84,183.45Zm6.41,11.32a13.22,13.22,0,0,0-7.11,6.67l-1.33-2.15C144.28,196.46,143.59,185.46,149.25,194.76Zm-5.33,9.94a13.17,13.17,0,0,1,6.76-7.07c6.54,1-2.6,11-3.67,12.81Q145.39,207.61,143.92,204.7Zm10.76,0c4.27,8.53,5.22,7-2.3,12.66C148.16,211.44,149.66,211.5,154.67,204.72Zm5.6,11.13c3.2,6-.57,5.37-3.72,10.87C149.8,220.72,156.1,219.6,160.28,215.84Zm3.84,6.61c3.17,5-2.43,7-4.1,12.44C158.14,229.76,160.17,226,164.11,222.45ZM168,228.1c3.78,5.34-1.55,9.15-4.1,14.71C161.24,237.63,163.76,232.08,168,228.1Zm4.82,7q2.17,3.38,4.11,6.89c-3.85,1.25-6.25,4.91-7.72,8.44C164.52,245,166.81,239.58,172.78,235.07Zm4.09,10.55c13.79-4.2-2.89,15.35-2.43,14.43C170.29,256.57,170.3,247.62,176.87,245.62ZM182.29,273c1.59-.54,5.15-7.54,6.14-8.55,4.27,8.07.91,7.08-2.48,15.76A20.79,20.79,0,0,1,182.29,273Zm11.1.17c4.42,7.11,0,6.59-2,13.94L188,282.88C190.32,281.46,191.44,275.46,193.39,273.2Zm5.22,7.61c5.88,7.91,1.41,8-2.31,15.15q-1.31-2.71-2.76-5.35C195.61,289.16,196.43,283.09,198.61,280.81Zm6.79,8.91q2.36,3.12,4.54,6.36c-3.25.31-6.85,6.83-7.73,9.48C196.49,299.2,198.87,295.2,205.4,289.71Zm.88,14.66c.64-2.15,4-4.39,5.23-5.81,4.4,7.27-.58,4.62-2.83,12.37C205.93,306.89,204.42,310.57,206.28,304.37Zm13.86,7.35c7.15-6,1.21,8,.58,10.89C216.08,320.84,215.36,315.73,220.13,311.71Zm.12-140.88c4.16,4.68,3.64,4,3.53,10.63C219.17,178.91,220.32,176.06,220.25,170.83Zm2.51-4.13c6.62-2.1,6.16-2.36,10.11,3.54C227.24,168.28,226.88,173,222.77,166.7Zm14.5,13c-3.44-.41-7.41-1.83-8.71-5.45C228.93,175.3,236,171.64,237.27,179.75ZM227,178c4.58,6,5.15,3.66,7.35,11C228.23,186.45,227.16,184.21,227,178Zm10,4.89c6.38.86,6,2.19,4.84,8.72C237.33,190.61,236.55,187.68,237,182.91Zm5.52,134.28q7.24,1,1.7,11.1C240.44,328.08,239.19,318.29,242.49,317.19ZM295.67,296c3.2,3.48,4.48,7.66,2.36,11.61C296.25,300.47,292.68,302.79,295.67,296Zm3.54-8.55q4,5,1.62,10.54C298.07,291.91,296.41,294.06,299.21,287.41Zm4.23-8c7,.19,3.19,11,1.76,13.74C305.41,290.89,297.32,279.26,303.44,279.42Zm1.36-3.06c7.09-12.21,11.06-3.11,5.74,6.7C310.21,279.75,308.24,276.91,304.81,276.36Zm11-21.18a14,14,0,0,1,4.45-8c5.75-.38,2.78,13.12,2,14.53C321.74,258.49,319.39,255.11,315.83,255.19Zm4.73-11.72c6.43-13.88,9.76,3.58,6.34,10.45C326.72,249.51,325.73,244.33,320.56,243.47Zm4.61-8.91c4.47-7.88,13.19-3.28,8,6.19A9.13,9.13,0,0,0,325.18,234.56Zm4.59-7.62c4-6.27,12.21.95,8.84,5.78C337.79,229,333.91,225.48,329.77,226.94Zm3.69-5.68c6.11-9.21,13-4.46,8,5.88C340.49,222.59,337.68,221.25,333.46,221.26Zm5.39-9.27c5.65-11.89,14-6.66,8.41,5.17C346.17,213.86,342.06,212,338.85,212Zm13.91-6.81c-2.32-1.61-4.77-4.53-7.84-4.71C353.51,185.77,353.45,199.86,352.76,205.18Zm-2-13.82c6.6-9.23,14.61-7,8.5,3.86C357.75,193.05,353.34,191.69,350.81,191.36Zm7.68-10.65c4.9-7.74,11,.2,7.41,7.24C364.88,184.51,362.19,181.33,358.49,180.71Zm7.21-5.11c3.71-2.49,9.3,3.58,6.75,5.2A15,15,0,0,0,365.69,175.6Zm5.52-7.88c1.75,2.57,5.32,6.52,4.13,9.76C374.14,174.29,371,170.65,371.21,167.73ZM377.15,151c-3.93-.56-3.27-6.27-4.6-10.67a24.1,24.1,0,0,0,11.37-4.18C384.51,140.28,386,152.28,377.15,151Zm-5.43-13.82c-2.87-2.87,7.79-10.79,9.55-10.44C389.22,128.34,376.12,141.6,371.72,137.18Zm6.13-13.11c-.15,2.29-6.68,6.68-8.17,7.76-3.32-7.82-3.59-7.41,1.39-16.63C371.91,115.61,377.92,123,377.85,124.07ZM362,126.82c-4.1-5,1.94-8.92,5.76-12.37C365.68,118.51,364.21,122.8,362,126.82Zm-3.9-6.49c-1.8-4,4.75-9.05,7.11-12.2C366.06,113.88,361.79,115.42,358.15,120.33Zm-4.43-7.59c2.78-2,9.92-8.57,9.74-12.65C367.68,103.5,357.11,116.61,353.71,112.74Zm-1.43-3c-.45-4.56,6-14.82,7.09-19.16C366.06,95.92,355.61,106.74,352.28,109.71Zm3.25-17.26c-2.28-4.33-2.92-2.73-2.69-8C357,89.49,357,86.32,355.54,92.45Zm-1.84,4.68c.61,4-7,11-10.84,10.78,2.78-7.67,3.25-9.52,8-16.66A11.62,11.62,0,0,1,353.69,97.12ZM349.55,85c-3.1-5.1-6.91-8.29-7.41-14.09A14.38,14.38,0,0,1,349.55,85Zm-7.24-5c2.24,2.05,9,11.5,2.05,13.87C337.79,96.13,342.28,80.66,342.31,80Zm-1.6,22.55C339.61,116.31,321.8,124,311.95,114,322.08,115.64,333.29,109,340.71,102.57Zm-13.65-9.74c-1.29,5.58-3.31,18.79-10.26,18.53C312.08,100.14,310.93,93.13,327.07,92.82Zm10.59-2M325.75,75.06a17,17,0,0,0-4.61-6.63C327,63.08,338.43,62,339,73.06,334,69.48,329.57,70.08,325.75,75.06Zm-4.39-1.49C325.7,80.88,327,88.25,318.79,91,318.89,85.61,315.06,77.12,321.36,73.57Zm-6,3.63c-3.53-5.26-4.36-2.41,3-6.89a7.66,7.66,0,0,0,.93.79A16.16,16.16,0,0,0,315.37,77.2Zm.13,15.15a26,26,0,0,0-5.46,4c.45-2-2.32-13.6,2-14.13Q317.76,85.66,315.5,92.35ZM303.8,78l4.15-2.59c1.42,1,2.84,2,4.23,3.06C303.84,79.22,312.65,81.11,303.8,78Zm.54,4.38c6.29,6.45,3.14,18.14-4.33,21.82C298.54,92,298.53,92.77,304.34,82.42Zm-6.18-9.77a22.41,22.41,0,0,1,5.3,1.77Q297.71,80.94,298.16,72.66Zm2.11,7.64c.38,1.07-4.28,6.89-5.09,8.89A43.84,43.84,0,0,1,291,86.52Q295.59,83.34,300.27,80.29Zm-14.45,5.94a9.77,9.77,0,0,0-7.38-7.13C291.32,69.54,303.74,73.45,285.82,86.23ZM248.72,8.61c0,16.52-8.72,74.67-32.63,64.23ZM19.74,35.1h212.5c-5.91,28.16-84.6,13.48-105.93,13.48C87.48,48.58,52.91,55.45,19.74,35.1ZM43.54,51.28H224L213.65,71.69c-20.42-10.07-48.4-25.09-65.23-1.87-8.71,12-6.46,27-14.52,39.67-6.19,9.72-17.88,14.29-22.93,24.16-1,2-2.67,21.85-2.54,24.13.79,14.25,7,21.35,15.73,30.91,17.17,18.8,21.19,17.46,9.62,40.24Zm68.9,225.61,32.75-64.47C157.88,235.89,132.36,264.66,112.44,276.89Zm20.8-11.19,19.31-38c6.26,13.59,13.86,25.8,21.65,38ZM250.07,457.84l-89.39-176c23.36,0,21.78,0,34.46,18.86,13.4,20,27.49,30.27,52.62,30.78,23.75.49,41.3-7.23,54.9-26.15,16.18-22.5,9.62-23.49,36.79-23.49ZM323.53,265.7c7.34-13.89,14.45-27.92,22.25-41.57l21.12,41.57Zm42.83-36.78c-2.49-4.9-11.05-16.07-10.72-21.09,1-14.37,23.73-24.23,29.83-34.87,8.6-15,3.75-36.45-4.54-50.68-7.84-13.46-15.85-27-24.85-39.05C348.57,73.16,340,60.48,325.87,61.61c-5.4.43-11.11,8-16.63,9.28-7.25,1.72-16.15-3.71-23.38-.45l-9.73-19.16H456.6ZM458.42,48.58H352.14c-19.25,0-79.24,12.89-84.24-13.48H480.4Z"/></g></svg>