<svg xmlns="http://www.w3.org/2000/svg" viewBox="0 0 500 500"><defs><style>.cls-1{fill:#e76a71;}.cls-2{fill:#8eb7de;}.cls-3{fill:#e9cd6a;}.cls-4{fill:#6aa54d;}</style></defs><title>clan-jade-falcon_COLOR</title><g id="n4"><path class="cls-1" d="M162.35,58.1,178.48,42l.53-.53H437.74L454.39,58.1v189q-1.75-1.64-3.58-3.27V59.58L436.26,45H180.49L165.94,59.58v6.64c-1.19-.37-2.38-.74-3.58-1.1Z"/><path class="cls-1" d="M454.39,446l-16.58,16.58H178.94L162.35,446V370.56c1.25-.1,2.41-.25,3.58-.44v74.36L180.42,459H436.33l14.48-14.48V425.56l3.58,1.22Z"/><path class="cls-1" d="M162.25,275.8h0V255.15c1.16.3,2.4.6,3.7.9V283.9q-1.93-.95-3.58-1.79l-.11-.06v-4.48l.37-.78A.74.74,0,0,0,162.25,275.8Z"/><path class="cls-1" d="M450.81,402.23V377.66c1.25,1.27,2.46,2.45,3.58,3.48V403.6Z"/></g><g id="n3"><path class="cls-2" d="M357.43,77.35H318l-15.6,15.6v93.13c-2.89.61-5.73,1.27-8.43,1.9s-5.05,1.17-7.29,1.64l-.44.09c-2.45.52-3.11.66-8.92-3.12-27.58-17.94-38.12-60.46-38.65-73.1-.33-7.82-2.38-9.72-6.29-12.65-.57-.43-1.19-.89-1.87-1.44a200.6,200.6,0,0,0-49.51-27.91l15.33-15.33H390.91l15.6,15.6V215.23A182.6,182.6,0,0,0,373,204.14V92.95Z"/><path class="cls-2" d="M291.23,368.09a3.93,3.93,0,0,0,2.56,3.55,2.52,2.52,0,0,0,.85.15,3,3,0,0,0,2.11-1,9.29,9.29,0,0,0,2-3.58l3.62,1.49v42.39l15.53,15.53H357.5L373,411.12V397c11.28,4.37,22.48,8.62,33.48,12.7v22.6L391,447.84H196.21l-15.53-15.53v-54c1.67-.52,3.08-1,4.69-1.67a62.09,62.09,0,0,0,8.89,7.88l.7.55.8-.38c10.24-4.87,17.71-8.62,23.35-11.71a22.37,22.37,0,0,1,1.95,6.13l.37,2.3,1.88-1.36c4.52-3.27,8.52-6.2,14.72-11a64.39,64.39,0,0,0,11.65,12.25l.72.55.81-.41c5.35-2.74,7.75-4.37,11-7.59a91.15,91.15,0,0,0,17.84,10l2.77,1.1-.87-2.85a197.27,197.27,0,0,1-5.63-24.19q7.67,3.22,15.55,6.48A8.38,8.38,0,0,0,291.23,368.09Z"/><path class="cls-2" d="M180.68,290.84V268.63c2.18.06,4.47.08,6.94.1l3.89,0a38.64,38.64,0,0,1,.65,6.38l.06,1,1,.27a89.38,89.38,0,0,0,11.26,2.06c-4.85,4.59-11.69,9.48-19.48,14.29Z"/><path class="cls-2" d="M273.68,330.91c0-1.41,0-2.78,0-4.09q.78,2.5,1.69,4.81Z"/><path class="cls-2" d="M373,371.56V339.38c4.06-.45,7.89-.94,10.24-1.37a149.45,149.45,0,0,0,13,13.25l.67.62.85-.35a30.45,30.45,0,0,0,7.05-4.15c.48.6,1,1.26,1.65,2v35.57C395.79,380.67,384.55,376.19,373,371.56Z"/><path class="cls-2" d="M481.37,416.74a157.36,157.36,0,0,1-15.22,10.95l-3.68-1.21q-4-1.33-8.09-2.72l-3.58-1.22c-14.14-4.84-29-10.2-44.3-15.87-11-4.09-22.2-8.35-33.48-12.72-23.66-9.17-47.63-18.8-70.67-28.3l-3-1.22a14.64,14.64,0,0,0,.14-2.47,9.91,9.91,0,0,0-.49-2.91l-.57-1.64-1.5.87a10.39,10.39,0,0,0-1.28.87,12.62,12.62,0,0,0-2.51,2.72q-8.83-3.66-17.43-7.27l-3.07-1.29c-16.79-7.06-32.72-13.89-47.27-20.22a12.58,12.58,0,0,0-.17-6.37l-.57-1.64-1.5.87a12.23,12.23,0,0,0-4.25,4.32c-21.69-9.48-39.92-17.67-52.69-23.61l-3.36-1.57-.52-.25-.11-.05-3.89-1.84-4.08-2-2.47-1.22,7.53-16q1.39.73,3,1.55l3.58,1.77c4.13,2,9.08,4.32,14.74,6.9l1.36.62,3.23,1.46c7.5,3.38,16,7.15,25.39,11.21-2.5,3-4.44,6.24-4.55,8.86l-.12,2.69,2.29-1.41c1.36-.83,2.54-1.59,3.59-2.27,3.21-2.06,5.16-3.31,6.84-3.31h0c1.43,0,3.09.92,5.6,2.28,1.47.8,3.15,1.71,5.23,2.69,1.85.87,3.78,1.57,5.64,2.25a28.72,28.72,0,0,1,6.69,3c2.22,1.63,2.29,4.42,1.61,10.45l-.31,2.74,2.42-1.33c2.85-1.57,4.09-6.23,4.63-9.74q10,4.23,20.59,8.63l2.88,1.2,3.28,1.36,4,1.67,2.72,1.13c-.41.52-.8,1.06-1.17,1.63a22,22,0,0,0-1.59,2.88,14.88,14.88,0,0,0-1.43,5.4l-.12,2.69,2.29-1.41c1-.61,1.86-1.2,2.66-1.77s1.61-1.2,2.28-1.73l.39-.31c2.07-1.63,3.1-2.41,4-2.17a77.7,77.7,0,0,1,10.35,4,84.63,84.63,0,0,0,8.71,3.12c1.1.35,2.14.67,3.2,1,2.69.91,3.5,1.19,2.87,6.76l-.31,2.74.86-.48,1.46-.8.09-.05a5.69,5.69,0,0,0,1.38-1.07,8.86,8.86,0,0,0,2.12-4.77c17.24,7.05,34.53,14.06,51.21,20.76,11.53,4.63,22.76,9.11,33.48,13.35,16.22,6.42,31.24,12.29,44.3,17.3l3.58,1.37,8.09,3.07C469.66,412.45,476,414.81,481.37,416.74Z"/></g><g id="n2"><path class="cls-3" d="M342.91,214c0,.48,0,1-.06,1.43s-.1,1-.18,1.43-.22,1.24-.36,1.85c-.41-.69-.81-1.33-1.2-1.93s-.77-1.17-1.15-1.7a26.78,26.78,0,0,0-2.22-2.76c-.44-.47-.88-.9-1.35-1.31a22.6,22.6,0,0,0-5.54-3.51,43.14,43.14,0,0,1,7.9-2.79l.81-.21c.18.25.35.5.52.74.35.52.66,1,.94,1.54A14.61,14.61,0,0,1,342.91,214Z"/><path class="cls-3" d="M220.29,335.5c-.19-2.07,1.22-4.33,2.61-5.75a12.8,12.8,0,0,1-.68,4.24,8.88,8.88,0,0,1-.78,1.81c-.17.28-.41.8-.74.65S220.31,335.76,220.29,335.5Z"/><path class="cls-3" d="M294.08,367.83c-.19-2.07,1.22-4.33,2.61-5.75a12.85,12.85,0,0,1-.73,4.37,6.9,6.9,0,0,1-1,2c-.3.38-.43.5-.73,0A1.59,1.59,0,0,1,294.08,367.83Z"/><path class="cls-3" d="M211,311.52a33.66,33.66,0,0,1,4.51-5.27,36.33,36.33,0,0,1,2.83-2.5c.69-.54,1.87-1.69,2.79-1.78.67-.07,1.45,1.1,1.85,1.58a29.44,29.44,0,0,1,2.09,2.89,48.26,48.26,0,0,1,3.56,6.69c-3-1.52-6.32-4.11-9.79-4.15-3.21,0-6.12,2.27-8.69,3.91C210.36,312.42,210.66,312,211,311.52Z"/><path class="cls-3" d="M233,315.17q3.43-.51,6.89-.72a27.27,27.27,0,0,1,7,.09c.44.09.48.11.63.52a5.93,5.93,0,0,1,.22,1.55,27.47,27.47,0,0,1,0,3.75,30.3,30.3,0,0,1-1,6.6c-.06-3.29-1.17-6-4-7.78S236.24,316.45,233,315.17Z"/><path class="cls-3" d="M284.27,342.53a18.62,18.62,0,0,1,3.6-4.55,4.39,4.39,0,0,1,1.75-1.18,3.28,3.28,0,0,1,1.58.34c3.35,1.22,6.19,3.83,8.55,6.43a49,49,0,0,0-7.93-2.91c-3.4-.78-6.25,2.56-8.72,4.37A16.19,16.19,0,0,1,284.27,342.53Z"/><path class="cls-3" d="M305.27,345.86c3.8-.39,7.74-1.15,11.56-1,.47,0,.86-.07,1.22.32a5.47,5.47,0,0,1,.77,2.36,16.45,16.45,0,0,1,.21,5.65c-.59-2.68-2.89-3.75-5.27-4.53C310.93,347.73,308.07,346.91,305.27,345.86Z"/></g><g id="n1"><path class="cls-4" d="M153.61,358.39l-.31-.78-.83-.11a40.48,40.48,0,0,1-5.33-1,71.43,71.43,0,0,1-1.45-9.9l-.07-1.08-1.06-.23a101.88,101.88,0,0,1-14.73-4.61c1.07-1.8,1.85-3.21,3.08-5.41l1.56-2.8.79-1.42-1.51-.61A87.83,87.83,0,0,1,122.33,325c8.38-2.42,20.87-7.33,34-13.5q3-1.39,5.94-2.87l.75-.37c12.87,6,31.91,14.59,54.79,24.59a7.84,7.84,0,0,0-.34,2.9A3.93,3.93,0,0,0,220,339.3a2.51,2.51,0,0,0,.85.15,3,3,0,0,0,2.11-1,8.2,8.2,0,0,0,1.64-2.65c14.95,6.5,31.34,13.52,48.61,20.77A205.6,205.6,0,0,0,278.33,380a91.14,91.14,0,0,1-15.4-9.17l-1-.78L261,371a33.41,33.41,0,0,1-10.32,7.51c-4.74-3.81-8.21-8.31-11.29-12.31l-.88-1.14-1.13.88c-6,4.65-9.91,7.58-14,10.54a19.85,19.85,0,0,0-2.65-6.23l-.75-1-1.09.61c-5.58,3.11-13.09,6.9-23.59,11.91A56,56,0,0,1,186.8,374l-.67-.72-.91.37a63.64,63.64,0,0,1-9.49,3.09,43.32,43.32,0,0,1-3.26-9.51l-.34-1.41-1.4.36a48.61,48.61,0,0,1-11.85,1.73A40.81,40.81,0,0,1,153.61,358.39Z"/><path class="cls-4" d="M478.73,323.66l-2.15-.05.78,2c.71,1.81,1.32,3.3,1.91,4.73,1.21,2.93,2.28,5.52,3.65,9.77-3.09-.09-5.94,0-9.5.17l-1.69.08.36,1.65a57,57,0,0,1,1.51,11c-3.24,0-7.18-.32-10.7-.63l-3.19-.27-1.54-.12v1.55c0,1.32.05,3.21.11,5.39.15,5.83.37,14.33-.06,21.76-3.1-2.52-7.61-7.31-11.68-11.63-4.26-4.53-7.95-8.44-10-9.79l-.81-.54-.8.56c-1.13.79-2.12,1.54-3.08,2.27a47.43,47.43,0,0,1-5.52,3.78c-5.56-4.86-16.77-16.3-20.15-20.89l-.94-1.28-1.17,1.07a26.23,26.23,0,0,1-6.57,4.26,136.21,136.21,0,0,1-12.59-13l-.55-.68-.86.18c-4.82,1-21.23,2.68-26,2.75-1.24-1.13-2.26-2-3.16-2.8-1.46-1.28-2.52-2.2-3.56-3.29l-.55-.57-.78.17c-2.89.62-18.76,4.17-22.62,5.16a43,43,0,0,1-3.9-3.2c-.86-.76-1.67-1.48-2.34-2l-1.86-1.43-.42,2.31c-.27,1.46-.54,5.29-.78,10-1.89-.2-4.8.09-9.22.58-1.63.18-3.32.36-5,.52h-.08l-.06-.06c-6-7.21-11.31-9.19-13.31-9.22h0a6.68,6.68,0,0,0-4,2.05l-6.65-2.76a69.43,69.43,0,0,1-4.67-15l-2.81,0a67.52,67.52,0,0,0-.86,11.55q-10.33-4.31-20.21-8.48c0-.2,0-.38,0-.54.19-3.18.09-7.19-1.44-8.29-2.38-1.7-12.47-.73-17.78.11-2.88-6.67-7.41-13.45-10-13.48h0c-1.65,0-5.35,2.59-8.7,6-9-3.89-17.2-7.51-24.5-10.79,8.36-5.28,15.57-10.69,20.37-15.77l1.91-2-2.76-.38A125.16,125.16,0,0,1,195,273.95,31.15,31.15,0,0,0,194,267l-.27-1.06-1.09,0-5-.05a117.56,117.56,0,0,1-16.31-.84,52,52,0,0,0,1.15-9.26l.05-1.21-1.19-.25a189.88,189.88,0,0,1-19.19-5c-.33-1.73-.56-3-.81-4.41-.29-1.61-.61-3.44-1.18-6.42l-.17-.91-.9-.21c-2.34-.56-4.93-1.06-7.2-1.51-2.13-.42-4.16-.81-5.44-1.15a74.35,74.35,0,0,1-1.9-13.17l0-1.2-1.19-.19c-4.1-.65-13.43-3.23-17.72-5.28-1.58-3-3.48-10-4.58-15.65l-.16-.84-.81-.25c-4.48-1.4-18.1-6.61-23.7-9.1,1-3.18,1.72-6.37,1-8.75l-.16-.53-.48-.28c-6.1-3.58-29.14-7.61-36.25-8.67a38.32,38.32,0,0,0,1.37-9l.05-1.31-1.3-.16c-7.87-1-21.61-4.69-28.54-7.11C32,148.28,46,140.48,53.86,136.1l5.44-3-4.63-.41c-22.09-2-36.12-6.58-43.79-9.93L16.48,121c9.87-3,22.16-6.73,30.88-9.81l4.13-1.46L47.3,108.5c-15-4.53-26.87-8.69-32-11.18a275.16,275.16,0,0,0,27.2-8.16l3.89-1.36-3.9-1.34c-6-2.08-12.92-6.75-17.74-10.4a148.29,148.29,0,0,0,29.64-4.51l2.82-.71L55,69A134,134,0,0,0,37.18,56.68l8.13-.14c48.52-.9,121.83-2.26,183.38,45.1.69.55,1.33,1,1.92,1.47,3.34,2.51,4.87,3.65,5.15,10.48.32,7.67,3.42,21.83,9.61,36.15,5.35,12.37,15,29.22,30.34,39.22,6.49,4.22,7.83,4.21,11.07,3.52l.43-.09c2.27-.47,4.74-1,7.35-1.65,13.4-3.11,30.08-7,39.81-1.83,5.08,2.69,6.82,6.61,5.38,12.6a50.2,50.2,0,0,0-13,4.81L324,207.77l2.87,1.16c7.43,3,9.48,5,14.63,14.22l1.69,3,.94-3.32a42.5,42.5,0,0,0,1.41-6.21,40.52,40.52,0,0,0,4.53-1,71.38,71.38,0,0,0,15.21-6.25c3.06-1.59,5.47-2.85,6.86-2.53,60.57,13.81,93,51.84,112.26,80.79A124,124,0,0,0,472,284.12l-3.28-.76,1.73,2.89c5.69,9.49,14,25.54,20.21,38.21C486,323.84,478.83,323.66,478.73,323.66Z"/></g><g id="Base"><path d="M294.51,365.49v0"/><path d="M213.37,308.43h0l.09,0Z"/><path d="M303.29,343.18l-.14-.06.06.06Z"/><path d="M496,328.86l-1.5-3.09c-5.76-11.87-13.85-27.63-19.87-38.08,3.93,1,7.57,2.17,12.84,4.05l4,1.42-2.29-3.54a237.27,237.27,0,0,0-26.68-34.5V48.76l-15.6-15.6h-277l-15.6,15.6V62.89q-10.69-2.75-22.1-4.69c-32.55-5.52-62.69-5-86.91-4.51-4.87.09-9.48.18-13.72.2l-.64,2.71c6.21,3.13,11.2,6.1,20,12.89-9.65,2.28-17.64,3.31-30,3.95l-3.75.19L20,76c4,3.2,11.13,8.54,18,11.73a261.32,261.32,0,0,1-26.59,7.61l-2.35.54,1.61,1.8c2.7,3,20.62,8.9,31.58,12.29-8.16,2.74-18.24,5.8-26.6,8.34-3.47,1.05-6.62,2-9.17,2.8l-3.37,1,3.15,1.59c6.32,3.19,20.13,8.73,43.59,11.33-9,5-23.07,12.77-32,17l-2.78,1.33,2.81,1.27c4.76,2.15,21.28,6.85,31,8.32a45.13,45.13,0,0,1-1.6,8.66L47,173.21l1.6.19c5.79.69,29.68,4.95,36.2,8.23.3,1.94-.59,5-1.47,7.71l-.38,1.19,1.12.54c4.45,2.13,18.78,7.65,24.39,9.51.92,4.5,2.93,12.66,5,16.09l.21.36.37.19c4.1,2.08,13,4.6,17.79,5.54a84.15,84.15,0,0,0,2.13,13.43l.19.76.74.25a65.33,65.33,0,0,0,6.54,1.46c2,.38,4.15.81,6.19,1.27.46,2.44.74,4,1,5.47.29,1.66.55,3.08,1,5.29l.16.83.81.26c1,.3,2.21.7,3.75,1.16v23.68l-1,2L23.54,217.42c-2.41-1.14-6.71,2.81-9,7.39s-2.64,11.69-.5,12.7l129.74,61.25-2.4,5.09a.74.74,0,0,0,.36,1l5.57,2.63a.74.74,0,0,0,1-.36l2.27-4.81,3.65,1.79v5.15c-14.34,6.73-27.86,11.94-35.81,13.82l-3.22.76,2.76,1.82a78.36,78.36,0,0,0,13.21,6.82l-.77,1.39c-1.51,2.71-2.34,4.2-3.87,6.73L125.7,342l1.46.67a100.16,100.16,0,0,0,15.76,5.21A77.06,77.06,0,0,0,144.53,358l.18.79.77.25a35.79,35.79,0,0,0,5.77,1.22,40.92,40.92,0,0,0,3,5.91v89.17l15.53,15.53H446.95l15.53-15.53V429.49l3.44,1.13.65.21.58-.38a158.71,158.71,0,0,0,18-13.13l1.9-1.61-2.34-.83c-6-2.15-13.54-4.93-22.21-8.21V355.23l.19,0a101.55,101.55,0,0,0,12.53.6l1.44-.07-.08-1.44a62.62,62.62,0,0,0-1.3-11.29c3.44-.15,6.28-.19,9.59,0l2,.1-.61-2a120.13,120.13,0,0,0-4.35-11.95c-.35-.85-.71-1.72-1.09-2.66,4.54.18,10.24.6,11.92,1.17ZM162.35,58.1,178.48,42l.53-.53H437.74L454.39,58.1v189q-1.75-1.64-3.58-3.27V59.58L436.26,45H180.49L165.94,59.58v6.64c-1.19-.37-2.38-.74-3.58-1.1ZM357.43,77.35H318l-15.6,15.6v93.13c-2.89.61-5.73,1.27-8.43,1.9s-5.05,1.17-7.29,1.64l-.44.09c-2.45.52-3.11.66-8.92-3.12-27.58-17.94-38.12-60.46-38.65-73.1-.33-7.82-2.38-9.72-6.29-12.65-.57-.43-1.19-.89-1.87-1.44a200.6,200.6,0,0,0-49.51-27.91l15.33-15.33H390.91l15.6,15.6V215.23A182.6,182.6,0,0,0,373,204.14V92.95ZM342.91,214c0,.48,0,1-.06,1.43s-.1,1-.18,1.43-.22,1.24-.36,1.85c-.41-.69-.81-1.33-1.2-1.93s-.77-1.17-1.15-1.7a26.78,26.78,0,0,0-2.22-2.76c-.44-.47-.88-.9-1.35-1.31a22.6,22.6,0,0,0-5.54-3.51,43.14,43.14,0,0,1,7.9-2.79l.81-.21c.18.25.35.5.52.74.35.52.66,1,.94,1.54A14.61,14.61,0,0,1,342.91,214ZM153.61,358.39l-.31-.78-.83-.11a40.48,40.48,0,0,1-5.33-1,71.43,71.43,0,0,1-1.45-9.9l-.07-1.08-1.06-.23a101.88,101.88,0,0,1-14.73-4.61c1.07-1.8,1.85-3.21,3.08-5.41l1.56-2.8.79-1.42-1.51-.61A87.83,87.83,0,0,1,122.33,325c8.38-2.42,20.87-7.33,34-13.5q3-1.39,5.94-2.87l.75-.37c12.87,6,31.91,14.59,54.79,24.59a7.84,7.84,0,0,0-.34,2.9A3.93,3.93,0,0,0,220,339.3a2.51,2.51,0,0,0,.85.15,3,3,0,0,0,2.11-1,8.2,8.2,0,0,0,1.64-2.65c14.95,6.5,31.34,13.52,48.61,20.77A205.6,205.6,0,0,0,278.33,380a91.14,91.14,0,0,1-15.4-9.17l-1-.78L261,371a33.41,33.41,0,0,1-10.32,7.51c-4.74-3.81-8.21-8.31-11.29-12.31l-.88-1.14-1.13.88c-6,4.65-9.91,7.58-14,10.54a19.85,19.85,0,0,0-2.65-6.23l-.75-1-1.09.61c-5.58,3.11-13.09,6.9-23.59,11.91A56,56,0,0,1,186.8,374l-.67-.72-.91.37a63.64,63.64,0,0,1-9.49,3.09,43.32,43.32,0,0,1-3.26-9.51l-.34-1.41-1.4.36a48.61,48.61,0,0,1-11.85,1.73A40.81,40.81,0,0,1,153.61,358.39Zm66.68-22.89c-.19-2.07,1.22-4.33,2.61-5.75a12.8,12.8,0,0,1-.68,4.24,8.88,8.88,0,0,1-.78,1.81c-.17.28-.41.8-.74.65S220.31,335.76,220.29,335.5Zm70.95,32.59a3.93,3.93,0,0,0,2.56,3.55,2.52,2.52,0,0,0,.85.15,3,3,0,0,0,2.11-1,9.29,9.29,0,0,0,2-3.58l3.62,1.49v42.39l15.53,15.53H357.5L373,411.12V397c11.28,4.37,22.48,8.62,33.48,12.7v22.6L391,447.84H196.21l-15.53-15.53v-54c1.67-.52,3.08-1,4.69-1.67a62.09,62.09,0,0,0,8.89,7.88l.7.55.8-.38c10.24-4.87,17.71-8.62,23.35-11.71a22.37,22.37,0,0,1,1.95,6.13l.37,2.3,1.88-1.36c4.52-3.27,8.52-6.2,14.72-11a64.39,64.39,0,0,0,11.65,12.25l.72.55.81-.41c5.35-2.74,7.75-4.37,11-7.59a91.15,91.15,0,0,0,17.84,10l2.77,1.1-.87-2.85a197.27,197.27,0,0,1-5.63-24.19q7.67,3.22,15.55,6.48A8.38,8.38,0,0,0,291.23,368.09Zm2.85-.26c-.19-2.07,1.22-4.33,2.61-5.75a12.85,12.85,0,0,1-.73,4.37,6.9,6.9,0,0,1-1,2c-.3.38-.43.5-.73,0A1.59,1.59,0,0,1,294.08,367.83ZM454.39,446l-16.58,16.58H178.94L162.35,446V370.56c1.25-.1,2.41-.25,3.58-.44v74.36L180.42,459H436.33l14.48-14.48V425.56l3.58,1.22Zm27-29.23a157.36,157.36,0,0,1-15.22,10.95l-3.68-1.21q-4-1.33-8.09-2.72l-3.58-1.22c-14.14-4.84-29-10.2-44.3-15.87-11-4.09-22.2-8.35-33.48-12.72-23.66-9.17-47.63-18.8-70.67-28.3l-3-1.22a14.64,14.64,0,0,0,.14-2.47,9.91,9.91,0,0,0-.49-2.91l-.57-1.64-1.5.87a10.39,10.39,0,0,0-1.28.87,12.62,12.62,0,0,0-2.51,2.72q-8.83-3.66-17.43-7.27l-3.07-1.29c-16.79-7.06-32.72-13.89-47.27-20.22a12.58,12.58,0,0,0-.17-6.37l-.57-1.64-1.5.87a12.23,12.23,0,0,0-4.25,4.32c-21.69-9.48-39.92-17.67-52.69-23.61l-3.36-1.57-.52-.25-.11-.05-3.89-1.84-4.08-2-2.47-1.22,7.53-16q1.39.73,3,1.55l3.58,1.77c4.13,2,9.08,4.32,14.74,6.9l1.36.62,3.23,1.46c7.5,3.38,16,7.15,25.39,11.21-2.5,3-4.44,6.24-4.55,8.86l-.12,2.69,2.29-1.41c1.36-.83,2.54-1.59,3.59-2.27,3.21-2.06,5.16-3.31,6.84-3.31h0c1.43,0,3.09.92,5.6,2.28,1.47.8,3.15,1.71,5.23,2.69,1.85.87,3.78,1.57,5.64,2.25a28.72,28.72,0,0,1,6.69,3c2.22,1.63,2.29,4.42,1.61,10.45l-.31,2.74,2.42-1.33c2.85-1.57,4.09-6.23,4.63-9.74q10,4.23,20.59,8.63l2.88,1.2,3.28,1.36,4,1.67,2.72,1.13c-.41.52-.8,1.06-1.17,1.63a22,22,0,0,0-1.59,2.88,14.88,14.88,0,0,0-1.43,5.4l-.12,2.69,2.29-1.41c1-.61,1.86-1.2,2.66-1.77s1.61-1.2,2.28-1.73l.39-.31c2.07-1.63,3.1-2.41,4-2.17a77.7,77.7,0,0,1,10.35,4,84.63,84.63,0,0,0,8.71,3.12c1.1.35,2.14.67,3.2,1,2.69.91,3.5,1.19,2.87,6.76l-.31,2.74.86-.48,1.46-.8.09-.05a5.69,5.69,0,0,0,1.38-1.07,8.86,8.86,0,0,0,2.12-4.77c17.24,7.05,34.53,14.06,51.21,20.76,11.53,4.63,22.76,9.11,33.48,13.35,16.22,6.42,31.24,12.29,44.3,17.3l3.58,1.37,8.09,3.07C469.66,412.45,476,414.81,481.37,416.74ZM162.25,275.8h0V255.15c1.16.3,2.4.6,3.7.9V283.9q-1.93-.95-3.58-1.79l-.11-.06v-4.48l.37-.78A.74.74,0,0,0,162.25,275.8Zm18.43,15V268.63c2.18.06,4.47.08,6.94.1l3.89,0a38.64,38.64,0,0,1,.65,6.38l.06,1,1,.27a89.38,89.38,0,0,0,11.26,2.06c-4.85,4.59-11.69,9.48-19.48,14.29ZM211,311.52a33.66,33.66,0,0,1,4.51-5.27,36.33,36.33,0,0,1,2.83-2.5c.69-.54,1.87-1.69,2.79-1.78.67-.07,1.45,1.1,1.85,1.58a29.44,29.44,0,0,1,2.09,2.89,48.26,48.26,0,0,1,3.56,6.69c-3-1.52-6.32-4.11-9.79-4.15-3.21,0-6.12,2.27-8.69,3.91C210.36,312.42,210.66,312,211,311.52Zm22,3.64q3.43-.51,6.89-.72a27.27,27.27,0,0,1,7,.09c.44.09.48.11.63.52a5.93,5.93,0,0,1,.22,1.55,27.47,27.47,0,0,1,0,3.75,30.3,30.3,0,0,1-1,6.6c-.06-3.29-1.17-6-4-7.78S236.24,316.45,233,315.17Zm40.68,15.74c0-1.41,0-2.78,0-4.09q.78,2.5,1.69,4.81Zm10.59,11.62a18.62,18.62,0,0,1,3.6-4.55,4.39,4.39,0,0,1,1.75-1.18,3.28,3.28,0,0,1,1.58.34c3.35,1.22,6.19,3.83,8.55,6.43a49,49,0,0,0-7.93-2.91c-3.4-.78-6.25,2.56-8.72,4.37A16.19,16.19,0,0,1,284.27,342.53Zm21,3.33c3.8-.39,7.74-1.15,11.56-1,.47,0,.86-.07,1.22.32a5.47,5.47,0,0,1,.77,2.36,16.45,16.45,0,0,1,.21,5.65c-.59-2.68-2.89-3.75-5.27-4.53C310.93,347.73,308.07,346.91,305.27,345.86ZM373,371.56V339.38c4.06-.45,7.89-.94,10.24-1.37a149.45,149.45,0,0,0,13,13.25l.67.62.85-.35a30.45,30.45,0,0,0,7.05-4.15c.48.6,1,1.26,1.65,2v35.57C395.79,380.67,384.55,376.19,373,371.56Zm77.78,30.67V377.66c1.25,1.27,2.46,2.45,3.58,3.48V403.6Zm27.93-78.57-2.15-.05.78,2c.71,1.81,1.32,3.3,1.91,4.73,1.21,2.93,2.28,5.52,3.65,9.77-3.09-.09-5.94,0-9.5.17l-1.69.08.36,1.65a57,57,0,0,1,1.51,11c-3.24,0-7.18-.32-10.7-.63l-3.19-.27-1.54-.12v1.55c0,1.32.05,3.21.11,5.39.15,5.83.37,14.33-.06,21.76-3.1-2.52-7.61-7.31-11.68-11.63-4.26-4.53-7.95-8.44-10-9.79l-.81-.54-.8.56c-1.13.79-2.12,1.54-3.08,2.27a47.43,47.43,0,0,1-5.52,3.78c-5.56-4.86-16.77-16.3-20.15-20.89l-.94-1.28-1.17,1.07a26.23,26.23,0,0,1-6.57,4.26,136.21,136.21,0,0,1-12.59-13l-.55-.68-.86.18c-4.82,1-21.23,2.68-26,2.75-1.24-1.13-2.26-2-3.16-2.8-1.46-1.28-2.52-2.2-3.56-3.29l-.55-.57-.78.17c-2.89.62-18.76,4.17-22.62,5.16a43,43,0,0,1-3.9-3.2c-.86-.76-1.67-1.48-2.34-2l-1.86-1.43-.42,2.31c-.27,1.46-.54,5.29-.78,10-1.89-.2-4.8.09-9.22.58-1.63.18-3.32.36-5,.52h-.08l-.06-.06c-6-7.21-11.31-9.19-13.31-9.22h0a6.68,6.68,0,0,0-4,2.05l-6.65-2.76a69.43,69.43,0,0,1-4.67-15l-2.81,0a67.52,67.52,0,0,0-.86,11.55q-10.33-4.31-20.21-8.48c0-.2,0-.38,0-.54.19-3.18.09-7.19-1.44-8.29-2.38-1.7-12.47-.73-17.78.11-2.88-6.67-7.41-13.45-10-13.48h0c-1.65,0-5.35,2.59-8.7,6-9-3.89-17.2-7.51-24.5-10.79,8.36-5.28,15.57-10.69,20.37-15.77l1.91-2-2.76-.38A125.16,125.16,0,0,1,195,273.95,31.15,31.15,0,0,0,194,267l-.27-1.06-1.09,0-5-.05a117.56,117.56,0,0,1-16.31-.84,52,52,0,0,0,1.15-9.26l.05-1.21-1.19-.25a189.88,189.88,0,0,1-19.19-5c-.33-1.73-.56-3-.81-4.41-.29-1.61-.61-3.44-1.18-6.42l-.17-.91-.9-.21c-2.34-.56-4.93-1.06-7.2-1.51-2.13-.42-4.16-.81-5.44-1.15a74.35,74.35,0,0,1-1.9-13.17l0-1.2-1.19-.19c-4.1-.65-13.43-3.23-17.72-5.28-1.58-3-3.48-10-4.58-15.65l-.16-.84-.81-.25c-4.48-1.4-18.1-6.61-23.7-9.1,1-3.18,1.72-6.37,1-8.75l-.16-.53-.48-.28c-6.1-3.58-29.14-7.61-36.25-8.67a38.32,38.32,0,0,0,1.37-9l.05-1.31-1.3-.16c-7.87-1-21.61-4.69-28.54-7.11C32,148.28,46,140.48,53.86,136.1l5.44-3-4.63-.41c-22.09-2-36.12-6.58-43.79-9.93L16.48,121c9.87-3,22.16-6.73,30.88-9.81l4.13-1.46L47.3,108.5c-15-4.53-26.87-8.69-32-11.18a275.16,275.16,0,0,0,27.2-8.16l3.89-1.36-3.9-1.34c-6-2.08-12.92-6.75-17.74-10.4a148.29,148.29,0,0,0,29.64-4.51l2.82-.71L55,69A134,134,0,0,0,37.18,56.68l8.13-.14c48.52-.9,121.83-2.26,183.38,45.1.69.55,1.33,1,1.92,1.47,3.34,2.51,4.87,3.65,5.15,10.48.32,7.67,3.42,21.83,9.61,36.15,5.35,12.37,15,29.22,30.34,39.22,6.49,4.22,7.83,4.21,11.07,3.52l.43-.09c2.27-.47,4.74-1,7.35-1.65,13.4-3.11,30.08-7,39.81-1.83,5.08,2.69,6.82,6.61,5.38,12.6a50.2,50.2,0,0,0-13,4.81L324,207.77l2.87,1.16c7.43,3,9.48,5,14.63,14.22l1.69,3,.94-3.32a42.5,42.5,0,0,0,1.41-6.21,40.52,40.52,0,0,0,4.53-1,71.38,71.38,0,0,0,15.21-6.25c3.06-1.59,5.47-2.85,6.86-2.53,60.57,13.81,93,51.84,112.26,80.79A124,124,0,0,0,472,284.12l-3.28-.76,1.73,2.89c5.69,9.49,14,25.54,20.21,38.21C486,323.84,478.83,323.66,478.73,323.66Z"/></g></svg>