<svg xmlns="http://www.w3.org/2000/svg" viewBox="0 0 500 500"><title>clan-cloud-cobra</title><g id="Base"><path d="M243.73,232.61a31.9,31.9,0,0,0-5.42-12.85c-1.6-2.25-5.35-.09-3.73,2.18a28.92,28.92,0,0,1,5,11.82C240.06,236.49,244.23,235.33,243.73,232.61Z"/><path d="M267.46,221.32a28.39,28.39,0,0,0-6.75,6.66,13.59,13.59,0,0,0-1.62,3.46c-.23.77-.19,3.41-.77,3.77-1.69,1-1.15,4.3,1.09,4l.52-.07a2.25,2.25,0,0,0,1.76-1.22c1.38-1.61.91-3.65,1.75-5.86,1.27-3.34,4.34-5.59,7.06-7.71C272.71,222.67,269.63,219.63,267.46,221.32Z"/><path d="M246.85,247.2c-1.13-1.93-3.66-.4-5.11-.14,1.42-1.37,5-4.88,1.15-5.82-2.3-.57-4.15,2.94-5.8,4.13-2.32-10.54-12.59-17.47-21-23.33-8.63-6-5,2-3.46,7.26,3.22,10.91,6.64,16.84,18.15,20.2.72.21,2,1.35,3.1,1.62.74.19,2.55-.74,3.33-.72C238.52,250.42,250,252.52,246.85,247.2Zm-15-4.53c-3.22,1.78-3-.66-6.15-2.24-1.07-.54-4-.86-4.92-1.65.15.31.31.62.49.91-2.92-2.82-3.39-7.88-4.49-11.6C217.8,229,233.4,241.81,231.85,242.67Z"/><path d="M260.68,276.81a1.63,1.63,0,0,0-2,1.13,6.36,6.36,0,0,1-1.27,3,1.67,1.67,0,0,0,0,2.29,1.63,1.63,0,0,0,2.29,0,9.61,9.61,0,0,0,2.1-4.38A1.67,1.67,0,0,0,260.68,276.81Z"/><path d="M247.4,280.47l-.33-2.16a1.63,1.63,0,0,0-2-1.13,1.67,1.67,0,0,0-1.13,2l.33,2.16a1.63,1.63,0,0,0,2,1.13A1.67,1.67,0,0,0,247.4,280.47Z"/><path d="M403.49,363.68c-3.92-23.94-7.65-37.48-19.77-58.59-4.67-8.13-14.64-19.36-17-28.22-2.66-9.91.17-10.9,4.37-20.1a257.72,257.72,0,0,0,20.4-68.42c1-6.42,8.46-54.29-2.37-57.42,3.2-4.56-12.3-31.26-14-34.3C367.32,82.29,356.25,69.17,344.43,58c-20-18.92-43.72-29-71.65-25-14.57,2-25.59,8.95-36.69,18.26-5.87,4.93-15.48,20.38-22.21,21.89S186.2,58,178.2,55.55c-15.14-4.69-32.76-5.72-48.06-1.19C53.81,77,87.49,184.81,110.91,233.37c15.11,31.33,32.93,58.54,51.44,87.77,13.67,21.58,32.8,41.22,45.1,61.8,3.76,6.27-58.15,23.49-62.37,22.93-29.55-3.93-48.75-31.81-57.89-56-7.85-20.78-8.39-42.21-9.15-64.35-1.69-49.23-25.81-5.3-16.95,3.12-5.57,1.07,5.61,52.2,7.36,57.9,1.46,4.76,1,9.12,2.87,14.1,2.07,5.59,4,6.67,6.51,11.44,9.37,17.48,19.65,34,37.67,43.84-6.22,9.46,55.86,14.22,60.14,13.56,17.51-2.68,34.13-12.57,50.84-15.28,13.12-2.13,18.7,6.92,30.65,15.91,28.23,21.23,67.41,40.06,102.65,24.91C392.49,440.94,409,397.22,403.49,363.68Zm-28-66.83c16.77,28.88,36.48,75.82,4.91,101.74-6.69,5.49-17.67,13.11-25.12,15.5-5.6,1.8-21.79-7.16-25.83-2.38-4.36-4-13.06-6.56-17.66-8.5-5.44-2.29-18.3-11.12-23.88-9.46-.65-6.31-10.16-12.91-16.1-11.51-1-6.11-5.07-14.86-13-12.1-.65-3.08-5.82-14.74-10.45-13.13a22.45,22.45,0,0,0-1.72-9.92c2.91-1.17,3.91-4.45,4.77-7.22,11.26,19.58,44.5,39.86,65,47.29,13.71,5,25,6.08,37.37-2.58.72-.51,18.78-22.15,17.7-22.19-7.25-.27-12.85,15.36-18.05,19,5.27-33-18.16-67.15-36.15-92.88-7.66-10.95-26-22.77-31.16-33.63-1.9-4,0-16.05,2-21.22,1.93-4.91,11.28-19.08,16.34-20.4,7.92-2.07,14.11,8,19.2,14C341.91,249,361.27,272.29,375.53,296.85Zm-121.67-7.91a11.2,11.2,0,0,0,2.18-.15c-.21,1.1,2.27,3.31,3.29,2.82-1.13,3.06-3.08,16.88-8.17,16.24C250.15,307.73,254,290.82,253.86,288.94Zm11.75-41.74c.06-.37,2.91-8.94,4.57-7.57,9.16,7.57-6.64,13.67-4.46,7.41Zm64.1,72.91c-2.93,9.26-36.35,49.08-46,41.86,6.78-2.94,14.33-13.38,18.2-18.11,4.61-5.63,25.24-24.53,26.05-31.35C329.1,315.84,330.6,317.31,329.72,320.11Zm4.33,3.32c8.58,11.74,25.56,55.62,7.51,64.76-13.66,6.92-39.86-13.18-50.3-20.47C306.62,354.72,320.62,338.43,334,323.43Zm-64.67,22.68a5.16,5.16,0,0,0-1.64-1.25c6-12,21.83,2.57,16.55,11.33S273,349.75,269.37,346.11Zm3.37,9.13c-2.76-2.43-5.36-5-7.85-7.64C267.53,346.57,272.32,353.67,272.75,355.24Zm41.71-35.54c0,5.28-.52,3.93-4.95,7.26-2.74-4.12-10.24-12-15.62-11.82C295.92,303.53,310.7,314.68,314.46,319.7Zm-15.67-13.15c1.92-10,21.11-1.77,22.54,5.3C323.54,322.69,302.44,307.18,298.79,306.55Zm3,16.86c6.32,5.25,7.61,9.1,1,14.63-.28-6.95-5.35-16.24-13.06-16.85C291.25,314.38,298.65,320.8,301.81,323.42Zm-5.37,6c1.11,1.87,7.11,16.11.34,15.54-1.26-.11-11-15-12.75-16.65C281.48,325.93,292.87,323.35,296.44,329.41Zm-4.25,17.26c1,3.52-.07,5.64-3.89,6.73-1.12-6.77-5-15-12.15-17C284.34,323,290.26,339.85,292.19,346.66Zm33.73-36.12a4.85,4.85,0,0,0-1.34.43c-3-7.14-11.64-11.53-18.89-11.84,3.2-11.23,20.19,6.35,21.81,12A1.64,1.64,0,0,0,325.93,310.54Zm-17.44-17.87c2.33-6.17,5.48-1.78,7.93,1.09A22.23,22.23,0,0,0,308.48,292.67Zm-3.51,1c-5.45,10.45-15.71,23.79-23.53,32.49-1.65,1.84-14.19,17.56-17,17.88-23.57,2.68,10.45-78.51,17-87.37a177.76,177.76,0,0,1,28.92,29.95C307.41,288.1,305,290.24,305,293.63ZM256.4,305.51c2.62-5.21,3.77-11.23,6.26-16.35-2.51,10.45-4.81,20.85-8.43,31C255.4,325.35,254.84,303.92,256.4,305.51Zm7-19.59c-.67.49-4,2.41-4.72,3.41a2.51,2.51,0,0,0-.74-1,21.46,21.46,0,0,0,5.59-3Zm67.67-129.1c-23.94-19.84-42.66-37.88-70.64-53.45,2.86-4.59,11.7-12.14,13-16.9,2.31.88,27.6-7.33,28.14-7.93.23-2.13,37.76,25.42,38.21,25.47-1.43,8.86,16.69,29.47,19.17,39.62,1.55,6.34.51,16.84.4,23.49-.07,3.92-6.08,23.67-3.67,26.35-4.08,3.63-17.48,45.27-15.7,47.6.75-.53-27.49-29.07-30.26-31.33C321.12,201.54,348.56,171.28,331.11,156.82ZM258.88,99.75c-2.06,3.38-4.93,0-8-1.7,2.59-3.18.92-10.83,3.79-14.93C259.05,89,255.48,95.05,258.88,99.75ZM257.07,81a1.62,1.62,0,0,0-.56-.4L260.94,77c9.32.85,2.92,14.7,1,17.82C261.77,89.75,260.64,84.88,257.07,81Zm29.41-21.6c1.13,4.94,1.09,16.53-3.77,19.89,1.55-5.87.08-13.28-3.11-18.42,2.31-1.14,4.87-3.11,7.54-3.17A1.56,1.56,0,0,0,286.48,59.39ZM278.79,80.6l-3.28,2c-.12-4.34-.15-12.81-6-14.17,2.35-3.47,3.33-4.24,7.18-6.14C279,68,282,74.49,278.79,80.6Zm-7.47-6a33.73,33.73,0,0,1,.93,8.15c-2.17-.31-1.91,3.65-3.18,4.69-.74-4.07-.73-12-5.72-13.63C266,71.61,270,70.17,271.32,74.62Zm18.28-16.09a1.4,1.4,0,0,0-.84-1c19-6.14,1.85,23.4-1.3,21C289.05,71.88,291.18,65.4,289.61,58.52Zm11-1.12c.76-.17,8.44-.8,9.11-1.68.17,6.63-4.44,24.19-14.33,21.25C297.59,71.43,302.44,63.57,300.61,57.41Zm47.22,28.15a2,2,0,0,0-.12-.33c10.26-4.63-3.4,32.1-12.42,12.11C338.94,96.64,349.09,90.51,347.83,85.56Zm16.74,20.84c14.18,2.67-12.73,17-11.43,13.45-2.89-1.25-5.22-4.08-4.67-7.19C355.58,114.92,361.73,105.86,364.57,106.4ZM382.25,162a13.61,13.61,0,0,1-.44,7.44c-2,1.31-16.2-.46-18-.7.19-.41-1-10.34-1-10.41,6.72,3.73,14,3.94,19.28-1.87C382.73,157,382,160.86,382.25,162Zm-38.53,78.35c8.35.62,19.63,21.38,11.63,20.11-7.2-1.14-6.51-16-14-16.4C342.34,243.38,345,242,343.72,240.32Zm-2-3.18c-.94-13.9,37.49-5.83,19.07,13.81C356.18,245.58,350.49,235.27,341.77,237.14ZM362,228.25c-2.64-1.72-23.27-5.31-8.13-11,10.42-3.93,20,10.18,13,18.55C365.69,233,364.44,229.87,362,228.25Zm-10-14c-4.14-14.52,32-6.91,18.75,8.09C367.11,217.1,359.23,209,352,214.28Zm14.27-9.69c-10.29-3.84-14-12.13.84-10.4C378.1,195.47,384,211.21,366.23,204.58Zm3.61-12.92c-1.22-.29-11.3.8-11.75-1.8-1.62-9.48,30.88-12.94,20.2,6.45A17.49,17.49,0,0,0,369.84,191.66Zm3.53-12.33c-4.31-.55-18.83,1.41-11.78-8,3.68,3.89,31-4.8,20.08,11C379.18,180.36,376.82,179.78,373.37,179.33Zm7.79-31.65c-.94,9.65-18,15.81-18.94,3.71-.75-9.39,11.94-5.06,16.88-11.27C381.41,142.95,381.54,143.74,381.15,147.68Zm-15.33-4.26c-5.45-.48-6.63-4.42-6.79-9.78,5.15.07,11.31-1.79,14.7-5.92C378.21,133.85,376.15,144.32,365.82,143.43Zm7.4-19.32c-2.13-.09-21.17,14-19,1.33,1.15-6.81,13.42-4.26,16.84-10C373.37,117.51,373.44,121,373.22,124.11ZM362.5,102.62c-1.72,5.56-13.22,9.42-17.62,5.67-5.39-4.6,7.26-7.46,9.89-12.49C356.66,97.66,365.15,94.06,362.5,102.62Zm-17-20c-3.27,2-5.55,17.39-13.42,10.19-4.16-3.8,6.25-13.42,7.76-17A7.35,7.35,0,0,1,345.51,82.59Zm-7.85-9.52c-3,4.17-7.81,20.48-15.52,12.06,3.67-2.81,3.55-9.22,7.09-11.6,3.28-2.21,5.93-.54,9.16-2.23.12.34.23.69.36,1A1.69,1.69,0,0,0,337.66,73.07Zm-18,9.85c-.13.09-5.61-2.4-5.84-2.54,5-5.41,6.61-12.35,7-19.49C333,61.17,325,79.24,319.7,82.92Zm-2.55-17.27c-.56,3.33-8,20.29-12.2,12-.85-1.65,8.23-15.88,8.11-20.1C316.38,62,318.46,57.93,317.15,65.65Zm-81.08-11c47.84-42.88,111.37-1.44,136.84,44.6,29.27,52.93,15.23,117.89-11,169-1.47-1.52-2.95-3.05-4.41-4.6,11-6,16.71-37.5,19.85-48.68,5-17.65,10.91-38.64,9.35-57a112.83,112.83,0,0,0-10.56-37.29c-3.17-6.39-6.5-16.36-11-22.25-1.45-1.89-15.1-17.26-16.37-17.22.35-19.69-39.2-32.1-53.13-30.73-23.23,2.29-46.53,20.33-47.67,46-10.29-5.69-20.21-14.15-30.91-20.15C223.11,68.89,229,61,236.07,54.63Zm-104.52,212C106.7,211.59,61.86,141.45,101.3,83c15.89-23.55,41.57-30.17,68.51-24.4,24,5.14,25.21,13.72,17.45,36.32-27.38-12.63-30.76,23.45-26.71,40.74,4.88,20.86,22,50.49,44.23,55.76,28.4,6.73,30.72-24.14,24-44.53-4-12.22-11.91-19.5-18.68-29.87-8.14-12.46-8.77-28.3-8.14-43.26a119.73,119.73,0,0,1,36.18,35.8c8.5,13.27,9.24,28.8,16.64,42.62,6.84,12.77,20,22.43,25.19,36,1.23,3.18,1.93,26.86,4.72,27.24,4.63.64,2-22.44,1.94-24.57,26.92,9.11,9.33-41.31,5.73-47.79-5.51-9.9-12.11-21-21.85-27.23-10.7-6.88-21.51-5-27.56-18.44,25.79,14.12,55,26.1,75.08,48.38,29.78,33-6.68,54.8-30,77.88-1.33-8.53-6.65,13-5.92,10.48-3.27,11.49-2.58,18.68-11.14,28.84a36.51,36.51,0,0,0-3.72-9.11c7.18,3,14-16.09,10.82-20.51-3.89-5.46-21.15,11-22,15.23A10,10,0,0,1,263.5,256c-3.16.82,10.67,26.92-8.63,30.67-16.77,3.26-27-21.94-40.76-27.17,1.15-.78-10.06,1.33-1.61,1.77-1.92,14.61,9.44,34.28,13.62,48.26,3.72,12.46,4,37.06,21.78,31.25-8.93,19.76-23.08-26.07-24-28.63-6.33-17.81-10.14-41.72-19.9-57.46.36-.22-9.42-40.29-9.49-40.87,8.7,5.12-5.26-12.43-7.38-9.53-15.89-14.54-35.82-26-50.74-41.07-5.35-5.39-12.65-14.18-14.32-21.76-1.32-6,5.5-18.57,4.07-21.91,7,1.13,32.36-40.38,37.3-35.07C154.64,75,137.19,101.22,134.62,104c0-.85,1.75-23.18-3-20-6.15,4.16.73,18.82-1.59,24.72-3.35,8.5-16.26,13.28-21,21.88s-5.65,20-5.87,29.76c-.61,27.26,9.07,49.67,18.81,72.67-2.34,0,5.09,13.41,5.21,13.67-.49-.73-1.3,4.63-1.82,2.26,1.65,7.48,8.39,13.08,8.78,20.89C133.25,268.78,132.36,267.73,131.54,266.62Zm65.64-148.32c9.19,8.82,22.57,28.63,18.92,42.3-4.44,16.65-18.86,9-27.89-.42-7.62-8-19-26.91-17.28-38.65C173.46,104.6,187.25,108.77,197.18,118.29Zm62.05,3.91c11.77,2.79,48.48,47.69,32.13,54C277.63,181.57,257.06,133.18,259.24,122.2Zm-11,216.26a25.86,25.86,0,0,1-3.09.41c.93-2.86,1.45-5.85,2.41-8.69C247.67,331.62,247.32,336.93,248.19,338.46Zm-10.73-55.54c.27,2.39,4.19,19.34,2.6,21.71C241.43,302.25,230.1,287.9,237.46,282.92Zm1.25,57.49c-2.8-1.17-3.75-10.22-1.71-9.19C237.95,331.7,238.49,339.45,238.71,340.42Zm-4-58.25a31.4,31.4,0,0,0-.87-3.12c.79.7,1.63,1.35,2.48,2A9.91,9.91,0,0,0,234.68,282.17ZM224,285.48c-1.27,4.28-4.22-6.86-4.06-6.33-.57-1.83-7.28-13.74-3.1-15C226.77,261.3,225,282.15,224,285.48Zm-13,8.54c-22.29-29.14-48-68.65-49.14-107.71,5.39,9.43,36.73,110.28,50.37,104.32,3,7.32,5.85,14.66,8.59,22C209.27,306.34,217.89,303.09,210.94,294ZM117.42,137.13c-8.63-3.09-3.4-6.24,1.27-10.06A18.9,18.9,0,0,0,117.42,137.13Zm1,3.67c1.87,5.55,5,10.71,8.34,15.61-16.37,2.47-20.92-7.07-16.74-20.88C111.61,138.33,115.38,140.1,118.37,140.8Zm-5.3,17.07q7.59.72,15.16,1.59a103.2,103.2,0,0,1,9.28,9.87c-14.09,5.3-33.4,4.9-30.72-14.53C108.38,156.34,111.35,157.23,113.07,157.88Zm-6.2,12.56c13.38,11.14,28.86-2.46,42.25,5.64C140.68,183.29,98.69,194.13,106.87,170.44Zm9.75,17.85c10,.26,29.84,1,35.22-10.46,11.42,7.72-29,47.27-42.81,9.14C111.07,188.47,114.11,188.21,116.62,188.28Zm-4.94,13.59c5.82-2.45,18.87,5.68,27.05,3.29,11.23-3.28,15.8-11.73,19.66-22.21,12.11,11-9.86,29.51-18.06,32-5.82,1.76-15.58,3.16-21-.53C117.85,213.43,110.74,202,111.68,201.87Zm7.4,15.8c16.11,3.4,32.7.75,41.79-14.43C170.17,240.62,110.49,236.22,119.09,217.67Zm5.59,18.24c16.92,3.22,35.87-4,40.45-22,16.41,29.71-28.93,54.12-40.6,22Zm43.47-44.78c12.81,8.53,21.52,21,24.6,35.65,4.08,19.41,12.13,36.24,16,55.78-10.86-8.74-16-30-21.86-42.39C179.3,224.36,172,208.33,168.14,191.13Zm-33.46,68.58c-1.73-3.06-5.38-6-6.07-9.56,16.46,15.14,39.4-2.2,42.32-19.45C189.5,252.09,146.65,280.86,134.68,259.72Zm3.81,14.91c-1.38-2.54-.7-4.14-1.28-7.68,17.38,5.44,35.46-1.54,41.77-19.28C199.72,264.88,155.43,305.8,138.49,274.63Zm7,12.76c18.59,8.35,35.27-6.72,40.58-23.1C209.33,290,164,313.31,145.53,287.39Zm13.24,22.84c-1.73-2.62-3-5.52-4.68-8.19,18.32,7.27,37.37-3.74,41.75-21.74,12.39,4.16,3.74,25.28-1.91,30.24C182,321,163.81,306.31,158.77,310.23Zm5.57,6.26c19.2,9.69,38-3.77,40.91-22.84,12.24,6.43,4.33,29.48-3.64,36.22-4.23,3.58-12.19,6.43-17.82,5.28C172.86,332.93,172.33,324.45,164.34,316.48Zm14,21.42c15.87,2.16,20.41-3.07,30.74-13,3.27-3.15.78-9.09,7-9.29,6-.19,6.57,8,6.73,12.73C223.73,357.2,189.35,363.21,178.34,337.9Zm22.54,30.6c-3.85-3-7.76-6.18-10.4-10.38,20.26,3.2,35.84-10.88,35.29-31.22,3.62,10.88,11.33,22.77,2.29,33.35C220.93,368.59,209.64,364.52,200.88,368.49Zm4.36,9.35a9,9,0,0,1-2.75-6.17c17.81,1.61,31.43-7.69,33.85-25.16a13.72,13.72,0,0,0,4.95,1.3c-4.58,11.81,9.45,17.31-6.48,29.56C226.63,383.66,213.35,385.53,205.24,377.85Zm-.62,9.29c1.92-.51,4.6-.29,5.92-2.1,16,21.91-7.79,13.87-9.08,4.44Zm-9.22,6.7c5.74-1.14,10.94,4.11,12.69,8.73-13,2.65-4.82-1-15.09-7.16A4.55,4.55,0,0,1,195.4,393.83Zm.23,12.34-21.56-2.49c1.46-.82,3.63-2.48,5.55-2.31-.74,4.5,5.83,3.51,3.82,7.83-3.11,6.7-8.52-3.94-9.69-5.35Zm-9.84,3.06q6.39-4.67,8.52,2.93-5.7,2.36-8.54-2.91Zm-3.67,1.76a2.82,2.82,0,0,1,2.07,1.67c-2.93-.11-6.5.22-9.35-.47A61.53,61.53,0,0,0,160.56,408.49ZM71.33,263.55c1.84.27,4.88,2.1,2.89,4.27-1.25-2.59-5.18-1-7.14-.27C67.33,265.18,68.26,263.1,71.33,263.55Zm-4.76,7.95c3.58-2.86,7.78-1.36,7,3.41a11,11,0,0,0-8-.29C65.75,273.42,65.82,272.1,66.56,271.5Zm-2.33,7.41c2.17-1.61,9.13-3,9.78,1-2.65-1.29-9.51,1.44-10.34-.68A1.6,1.6,0,0,0,64.23,278.91Zm-1,5c2.45-3.45,12.61-2.06,11.71,4C72.3,285.89,61.1,286.91,63.23,283.91Zm-1,8c2.26-6.87,11.93-1.86,12.92,3.51C72.4,293,60.94,295.94,62.25,291.91Zm1.43,8.48c3.56-10.81,10.54.79,11.72,4.67-4-2.46-7.06-3.55-10.92-.29A4.76,4.76,0,0,1,63.68,300.39Zm11.21,8.11c-2.27,3.71-6.5,1.44-10,4.69C61.88,306.4,72.4,307.48,74.89,308.5Zm-9.48,8.18c3.38,0,12.25-6.85,10.8,2.71C73.84,318.93,60.71,324.86,65.41,316.68Zm1.44,16c-3.94-3.3,9.68-18.8,10.64-3.82A14.36,14.36,0,0,0,66.84,332.71Zm2.21,6c-3.62-5.66,12.33-10.53,10.56-3.14C76,334.55,71.88,336.41,69.05,338.74Zm1.63,2.87c2.41-2.21,13-5.44,11.32,1-4-1.11-8,.37-11.22,2.74A3.16,3.16,0,0,1,70.68,341.6Zm.42,11.51c-4.07-7.92,12.1-6.23,12.75-7.92C88.33,349.18,72.6,351.46,71.09,353.12Zm2.49,2.79c-1.09-4.55,10.82-2.34,12.41-.49-4.24-1.09-8.75.37-12.55,2.28A8.28,8.28,0,0,0,73.58,355.91Zm5.17,12.54c-16.79-8.8,11.47-8.69,11.72-8.92.93,1.85-.68,3.72-.76,5.53C87.43,364.78,79.47,365.37,78.76,368.45ZM206.58,417c-32.46,10.8-63.92,13.32-93.47-6.93A96.31,96.31,0,0,1,87.86,384.7c-8.88-13.2-7.61-9.43,2.63-16.75,19.94,28.28,46.38,45.93,81.33,44.89,10.14-.3,45.45-.59,49.56-14.06q3.54,4.17,7.27,8.19C222.1,411.87,214.26,414.47,206.58,417Zm19.16-19.2c-2.74-.15-7.3-7.69-9.07-10a30.88,30.88,0,0,0,22.63-9.7c3.42-3.6,5.84-14.94,8.6-16.88-.67,10.1,9.82,8.78,3.63,22.61C246.51,395.09,237.5,398.44,225.74,397.83Zm16,15.39c-3.32-1.17-8.16-5.7-10.73-8.48,17.83-1.25,24.3-38.22,35.41-26.28C279.08,392.09,258.2,419.06,241.72,413.22Zm11.53,11.15a39.5,39.5,0,0,1-6-4.84,1.63,1.63,0,0,0,.49-2c12.91-.12,29.47-18.68,24.68-32.13C289.81,379.65,283.36,443.39,253.25,424.37ZM266,431.61a1.88,1.88,0,0,0-.29-.15c11.71-4.87,23.15-44.69,33.22-30.28,4.9,7-2.77,20-7.18,25.51C283.59,437,276.84,438.54,266,431.61ZM291.47,445c-4.37-1.49-8.12-2.22-12.15-4.67,14-4.7,20.77-19.51,24.22-33.12,7.93,4.48,11.4.18,9.47,15.15C311.84,431.29,303,448.9,291.47,445Zm16.92,7.24q-5.55-1.83-11.12-3.58c12.65-5.53,14.9-14.9,19-26.84,1.93-5.68-2-16.3,8.5-10,7,4.18,4.45,12.23,2.52,18.59C324.3,440.15,310.24,445.37,308.4,452.2Zm22.66,2.86c-4.85,2.29-8.59-.07-13-2,12-7.94,7.63-34.9,14.23-39.1C345.44,405.52,347.08,447.48,331.06,455.06Zm5.74-.05c7.21-6.5,9.4-15.26,10.43-24.34.31-2.76-4-14-.56-15.79C357.55,409.19,366.09,450.73,336.8,455Zm30.55-10c-.48.33-4.9,2.53-3.33,4.37-1.92.87-3.87,1.66-5.82,2.47,12-16.32-8.33-34.94,12.73-42C373.82,422.6,365.54,433.9,367.35,445Zm14.83-26.12c-.81,7-3.12,19.8-8.41,24.52-.53-1.24-1.79-1.06-2.83-.83.87-3.1,7.63-39.65,8.5-39.06a19.38,19.38,0,0,0,3.74-1.84C382.94,407.44,382.84,413.23,382.18,418.91Zm10.5-8.87c-1.34,6-4.17,11.76-7.31,17.07a1.72,1.72,0,0,0-1.4-.93c3.94-12.89,1-23,8.57-34.79C393.24,397.55,394,404.15,392.68,410Zm8.17-17.62A75.19,75.19,0,0,1,396.51,406c.89-12.74,1.46-20.86,4.06-33.26C402.26,377.43,398.72,389.13,400.85,392.42Z"/><path d="M202.1,134.5c-3-6-5.84-13.67-14-12.52-6.26.88-9.5,8-6.68,13.45a13.85,13.85,0,0,0,1.24,5.95c1.84,3.63,3.86,7.78,6.42,10.94,3.33,4.11,12.78,7.74,16.56,2.36C210.16,148.2,205,140.4,202.1,134.5Z"/><path d="M275.46,136.89c-1.74-2.28-4.85-7.39-8.42-6s-1.75,5.53-.05,7.57a1.31,1.31,0,0,0,.47.36,4.47,4.47,0,0,0,.6.9c2,9.14,8.11,16.05,13.91,23.41.91,1.15,2.75.14,2.77-1.15C284.82,152.77,281,144.14,275.46,136.89Z"/><path d="M291.68,279.72c-20.43-18.21-25.67,25.48-29.54,40-5.06,19,3.26,16.12,13.66,2.58C284.15,311.47,306.28,292.73,291.68,279.72Z"/><path d="M337.7,369.73c0-7.54.47-15.33-.43-22.84a24.6,24.6,0,0,0-4.21-11c-10.14,7.08-23.61,22.75-27.81,34.77C314.91,371.68,337.71,388.46,337.7,369.73Z"/><path d="M280.66,273.37h0Z"/><path d="M195.9,432.38c19.84,4.57,41.46,4.79,61.68,5.89C235.05,420.22,222.36,421.33,195.9,432.38Z"/><path d="M337.66,378.91c.2.13.45.1.16-.38A.41.41,0,0,0,337.66,378.91Z"/><path d="M249.54,4.31c-103.31,0-198,66.91-232.47,164.36-33.93,96-3.72,205.83,74.28,271.17,80.12,67.11,197.62,75.92,286.78,21.29,86.56-53,132.44-156.52,113.62-256.29C470.07,89.89,366.42,4.31,249.54,4.31Zm167,362.4c-8.21,23.45-8.2,44.87-23.94,65.84-14,18.65-33.82,31.13-57.43,32.31-24.25,1.22-48.29-7.62-72.57-8.51-28-1-54.82-2.09-81.84-9.89C132.71,432.56,89,423.15,66,372.85c-10-21.84-5.9-49.11-15.28-69.62-6.4-14-29.16-22.61-14.82-42.79,4.75-6.69,10.77-7.59,13.39-15.64,1.86-5.7-.84-13.2-.59-19.18A147.77,147.77,0,0,1,67,161c10.08-17.81,3.29-37.42,10.1-57.45C84,83.16,97.35,63.89,117,54.15c18.25-9.05,41.81-10.42,61.74-8.33,5.65.59,13.49,4,19.09,3.07,8.1-1.35,9-5.81,16.23-11.17C229.9,26,256.51,29,276,27c28.63-2.94,47.24,4.59,69.11,23.1C388.6,87,429.9,145.23,444.9,200.57,461.62,262.26,436.46,309.85,416.56,366.7Z"/><path d="M161.38,338.23C123.7,285.57,95.76,238.29,77,175.65c-.41.7-1,1.77-1,1.46-9.18,23.75-6.92,49.13-10.33,73.62,27.51-8.77,22.78,35.86,24,50.79,2,24.9,4.43,54.9,24,73C125,384.82,150.44,398.83,166.44,396,202.15,389.69,172.8,354.19,161.38,338.23Z"/><path d="M399,191c-2.21,15.69-6.55,31.12-11.09,46.28-3.3,11-11.56,26.65-10,38.42,3.17,23.71,29.07,44.81,34.58,69.85C427,310.17,442.3,276.65,439.39,237.4c-2.75-37.08-18.11-73.27-39.92-103.1C400.76,153.08,401.62,172.32,399,191Z"/><path d="M334.13,118.9C317,98.13,297.39,80.49,273.29,101.42c21.55,9.24,60.3,36.51,67.11,59.65,4.08,13.88-1.7,23.06-8.69,34.63C323.05,210,322.41,207.58,336,221,354.32,190.72,357.85,147.6,334.13,118.9Z"/></g></svg>