<svg xmlns="http://www.w3.org/2000/svg" viewBox="0 0 500 500"><defs><style>.cls-1{fill:none;}.cls-2{fill:#dbb600;}</style></defs><title>clan-jade-falcon</title><g id="Icons"><path class="cls-1" d="M273.72,324.82c0,1.31-.06,2.68,0,4.09l1.74.72Q274.51,327.31,273.72,324.82Z"/><path d="M294.51,363.49v0"/><path d="M213.37,306.43h0l.09,0Z"/><path d="M303.29,341.18l-.14-.06.06.06Z"/><path class="cls-2" d="M290.88,335l2.42,1.11A13,13,0,0,0,290.88,335Z"/><path d="M288.83,335.21l0,0"/><path d="M308.87,343.48l.33,0"/><path d="M317.66,343l.35.16,0-.07A1.43,1.43,0,0,0,317.66,343Z"/><path d="M317.41,342.85v.07l.25,0Z"/><path class="cls-1" d="M450.81,442.48,436.33,457H180.42l-14.48-14.48V368.12c-1.17.19-2.34.33-3.58.44V444l16.58,16.58H437.81L454.39,444V424.78l-3.58-1.22Z"/><path class="cls-1" d="M162.24,275.57v4.48l.11.06q1.66.84,3.58,1.79V254.05c-1.3-.3-2.53-.6-3.7-.9V273.8h0a.74.74,0,0,1,.36,1Z"/><path class="cls-1" d="M193.22,274.45l-1-.27-.06-1a38.63,38.63,0,0,0-.65-6.38l-3.89,0c-2.47,0-4.76,0-6.94-.1v22.21l4.32,2c7.79-4.81,14.63-9.7,19.48-14.29A89.37,89.37,0,0,1,193.22,274.45Z"/><path class="cls-1" d="M406.51,213.23V69.75l-15.6-15.6H196.28L180.95,69.48a200.59,200.59,0,0,1,49.51,27.91c.68.55,1.3,1,1.87,1.44,3.91,2.93,6,4.83,6.29,12.65.53,12.63,11.07,55.15,38.65,73.1,5.81,3.78,6.47,3.64,8.92,3.12l.44-.09c2.23-.46,4.69-1,7.29-1.64s5.54-1.29,8.43-1.9V90.95L318,75.35h39.48L373,90.95v111.2A182.6,182.6,0,0,1,406.51,213.23Z"/><path class="cls-1" d="M165.94,57.58,180.49,43H436.26l14.55,14.55V241.81q1.83,1.62,3.58,3.27V56.1L437.74,39.45H179l-.53.53L162.35,56.1v7c1.2.35,2.39.73,3.58,1.1Z"/><path class="cls-1" d="M339.57,202.53l-.81.21a43.15,43.15,0,0,0-7.9,2.79,22.6,22.6,0,0,1,5.54,3.51c.46.41.91.84,1.35,1.31A26.78,26.78,0,0,1,340,213.1c.38.53.76,1.09,1.15,1.7s.79,1.24,1.2,1.93q.21-.92.36-1.85c.07-.47.14-.95.18-1.43s.06-1,.06-1.43a14.61,14.61,0,0,0-1.88-7.21c-.28-.51-.59-1-.94-1.54C339.92,203,339.75,202.78,339.57,202.53Z"/><path class="cls-1" d="M450.81,375.66v24.57l3.58,1.37V379.14C453.27,378.11,452.06,376.93,450.81,375.66Z"/><path class="cls-1" d="M404.85,345.38a30.45,30.45,0,0,1-7.05,4.15l-.85.35-.67-.62a149.44,149.44,0,0,1-13-13.25c-2.35.43-6.18.93-10.24,1.37v32.18c11.52,4.63,22.75,9.11,33.48,13.36V347.34C405.9,346.64,405.34,346,404.85,345.38Z"/><path class="cls-1" d="M273.68,328.91l1.74.72q-.91-2.32-1.69-4.81C273.68,326.13,273.67,327.49,273.68,328.91Z"/><path class="cls-1" d="M220.83,334.55a1.29,1.29,0,0,0,.25-.23,3.44,3.44,0,0,0,.36-.51c.09-.16.19-.34.28-.54s.16-.36.24-.56v0c.07-.17.14-.35.2-.54s.13-.38.18-.58.11-.39.16-.59.09-.4.13-.6.06-.31.09-.47l0-.14q0-.31.08-.62t.05-.63c0-.22,0-.43,0-.64,0,0,0-.07,0-.11l-.07.08c-.15.16-.29.32-.43.48s-.26.33-.39.5-.25.34-.36.51l0,.07c-.1.15-.19.3-.28.46s-.19.36-.28.54-.17.37-.25.56-.15.38-.21.57-.1.33-.14.49l0,.1a5.43,5.43,0,0,0-.1.61,4,4,0,0,0,0,.64s0,.09,0,.13a2,2,0,0,0,.13.57A.88.88,0,0,0,220.83,334.55Z"/><path class="cls-1" d="M162.24,275.57v4.48l.11.06q1.66.84,3.58,1.79V254.05c-1.3-.3-2.53-.6-3.7-.9V273.8h0a.74.74,0,0,1,.36,1Z"/><path class="cls-1" d="M172.13,363.8l.35,1.41a43.32,43.32,0,0,0,3.26,9.51,63.64,63.64,0,0,0,9.49-3.09l.91-.37.67.72a56,56,0,0,0,8.53,7.75c10.51-5,18-8.8,23.59-11.91l1.09-.61.75,1a19.85,19.85,0,0,1,2.65,6.23c4.08-3,8-5.89,14-10.54l1.13-.88.88,1.14c3.08,4,6.55,8.5,11.29,12.31A33.41,33.41,0,0,0,261,369l.89-.91,1,.78a91.14,91.14,0,0,0,15.4,9.17,205.6,205.6,0,0,1-5.13-23.39c-17.27-7.26-33.66-14.28-48.61-20.77a8.2,8.2,0,0,1-1.64,2.65,3,3,0,0,1-2.11,1,2.51,2.51,0,0,1-.85-.15,3.93,3.93,0,0,1-2.56-3.55,7.84,7.84,0,0,1,.34-2.9c-22.89-10-41.92-18.58-54.79-24.59l-.75.37q-3,1.47-5.94,2.87c-13.11,6.17-25.59,11.09-34,13.5a87.83,87.83,0,0,0,11.42,5.45l1.51.61-.79,1.42-1.56,2.8c-1.23,2.2-2,3.61-3.08,5.41a101.88,101.88,0,0,0,14.73,4.61l1.06.23.07,1.08a71.43,71.43,0,0,0,1.45,9.9,40.48,40.48,0,0,0,5.33,1l.83.11.31.78a40.81,40.81,0,0,0,5.27,9.5,48.61,48.61,0,0,0,11.85-1.73Z"/><path class="cls-1" d="M450.81,442.48,436.33,457H180.42l-14.48-14.48V368.12c-1.17.19-2.34.33-3.58.44V444l16.58,16.58H437.81L454.39,444V424.78l-3.58-1.22Z"/><path class="cls-1" d="M454.39,404.66l-3.58-1.37c-13.06-5-28.08-10.88-44.3-17.3-10.72-4.24-21.95-8.72-33.48-13.35-16.68-6.7-34-13.71-51.21-20.76a8.86,8.86,0,0,1-2.12,4.77,5.69,5.69,0,0,1-1.38,1.07l-.09.05-1.46.8-.87.48.31-2.74c.63-5.58-.18-5.85-2.87-6.76-1.06-.36-2.1-.68-3.2-1a84.63,84.63,0,0,1-8.71-3.12,77.7,77.7,0,0,0-10.35-4c-.93-.25-2,.53-4,2.17l-.39.31c-.67.53-1.43,1.11-2.28,1.73s-1.67,1.17-2.66,1.77l-2.29,1.41.12-2.69a14.88,14.88,0,0,1,1.43-5.4,22,22,0,0,1,1.59-2.88c.37-.57.77-1.12,1.17-1.63L281,335.06l-4-1.67L273.75,332l-2.88-1.2q-10.52-4.39-20.59-8.63c-.54,3.51-1.78,8.17-4.63,9.74l-2.42,1.33.31-2.74c.68-6,.61-8.81-1.61-10.45a28.73,28.73,0,0,0-6.69-3c-1.87-.68-3.8-1.38-5.64-2.25-2.09-1-3.76-1.89-5.23-2.69-2.51-1.36-4.17-2.27-5.6-2.28h0c-1.68,0-3.63,1.25-6.84,3.31-1,.67-2.24,1.43-3.59,2.27L206,316.82l.12-2.69c.11-2.63,2.05-5.89,4.55-8.86-9.35-4.06-17.89-7.83-25.39-11.21L182,292.6l-1.36-.62c-5.66-2.58-10.61-4.89-14.74-6.9l-3.58-1.77q-1.64-.82-3-1.55l-7.53,16,2.47,1.22,4.08,2,3.89,1.84.11.05.52.25,3.36,1.57c12.77,5.94,31,14.14,52.69,23.61a12.23,12.23,0,0,1,4.25-4.32l1.5-.87.57,1.64a12.58,12.58,0,0,1,.17,6.37c14.55,6.33,30.49,13.15,47.27,20.22l3.07,1.29q8.58,3.6,17.43,7.27a12.61,12.61,0,0,1,2.51-2.72,10.39,10.39,0,0,1,1.28-.87l1.5-.87.57,1.64a9.91,9.91,0,0,1,.49,2.91,14.63,14.63,0,0,1-.14,2.47l3,1.22c23,9.5,47,19.13,70.67,28.3,11.27,4.37,22.47,8.63,33.48,12.72,15.27,5.68,30.16,11,44.3,15.87l3.58,1.22q4.09,1.39,8.09,2.72l3.68,1.21a157.36,157.36,0,0,0,15.22-10.95c-5.35-1.93-11.72-4.29-18.9-7Z"/><path class="cls-1" d="M276.31,355.9a197.28,197.28,0,0,0,5.63,24.19l.87,2.85-2.77-1.1a91.15,91.15,0,0,1-17.84-10c-3.24,3.22-5.64,4.85-11,7.59l-.81.41-.72-.55A64.39,64.39,0,0,1,238,367c-6.2,4.81-10.2,7.74-14.72,11l-1.88,1.36-.37-2.3a22.37,22.37,0,0,0-1.95-6.13c-5.64,3.09-13.12,6.84-23.35,11.71l-.8.38-.7-.55a62.08,62.08,0,0,1-8.89-7.88c-1.61.64-3,1.15-4.69,1.67v54l15.53,15.53H391l15.53-15.53v-22.6c-11-4.08-22.2-8.34-33.48-12.7v14.11L357.5,424.65H317.89l-15.53-15.53V366.73l-3.62-1.49a9.29,9.29,0,0,1-2,3.58,3,3,0,0,1-2.11,1,2.52,2.52,0,0,1-.85-.15,3.93,3.93,0,0,1-2.56-3.55,8.38,8.38,0,0,1,.62-3.71Q284,359.12,276.31,355.9Z"/><path class="cls-1" d="M339.57,202.53l-.81.21a43.15,43.15,0,0,0-7.9,2.79,22.6,22.6,0,0,1,5.54,3.51c.46.41.91.84,1.35,1.31A26.78,26.78,0,0,1,340,213.1c.38.53.76,1.09,1.15,1.7s.79,1.24,1.2,1.93q.21-.92.36-1.85c.07-.47.14-.95.18-1.43s.06-1,.06-1.43a14.61,14.61,0,0,0-1.88-7.21c-.28-.51-.59-1-.94-1.54C339.92,203,339.75,202.78,339.57,202.53Z"/><path class="cls-1" d="M165.94,57.58,180.49,43H436.26l14.55,14.55V241.81q1.83,1.62,3.58,3.27V56.1L437.74,39.45H179l-.53.53L162.35,56.1v7c1.2.35,2.39.73,3.58,1.1Z"/><path class="cls-1" d="M406.51,213.23V69.75l-15.6-15.6H196.28L180.95,69.48a200.59,200.59,0,0,1,49.51,27.91c.68.55,1.3,1,1.87,1.44,3.91,2.93,6,4.83,6.29,12.65.53,12.63,11.07,55.15,38.65,73.1,5.81,3.78,6.47,3.64,8.92,3.12l.44-.09c2.23-.46,4.69-1,7.29-1.64s5.54-1.29,8.43-1.9V90.95L318,75.35h39.48L373,90.95v111.2A182.6,182.6,0,0,1,406.51,213.23Z"/><path class="cls-1" d="M294.63,366.89a1.15,1.15,0,0,0,.19-.17,3,3,0,0,0,.37-.51c.1-.16.19-.33.29-.53s.16-.36.24-.55.14-.36.21-.56l.14-.43,0-.13c.06-.19.11-.38.16-.58s.09-.39.14-.58.08-.39.11-.59.06-.4.09-.6,0-.24,0-.37,0-.16,0-.25,0-.42,0-.62,0-.21,0-.32l-.22.25c-.15.16-.29.32-.43.49l-.12.16-.26.35c-.12.17-.23.34-.34.52s-.21.35-.31.53-.19.36-.27.54-.16.37-.23.55v0c-.07.18-.13.36-.18.54s-.11.39-.15.58a5.25,5.25,0,0,0-.09.6,3.7,3.7,0,0,0,0,.63h0a1.75,1.75,0,0,0,.19.69A.83.83,0,0,0,294.63,366.89Z"/><path class="cls-1" d="M454.39,379.14c-1.12-1-2.33-2.21-3.58-3.48v24.57l3.58,1.37Z"/><path class="cls-1" d="M314.11,346.78l.16.05a11,11,0,0,1,2.73,1.27l.18.13a4.58,4.58,0,0,1,1.37,1.59,5.27,5.27,0,0,1,.34.84c.05.17.11.34.16.53,0-.15,0-.3.05-.45a15.09,15.09,0,0,0,.1-1.64c0-.38,0-.74,0-1.11,0-.11,0-.22,0-.32,0-.28-.05-.55-.08-.82s-.12-.81-.19-1.18q-.06-.29-.12-.55c-.06-.24-.11-.47-.17-.67a5,5,0,0,0-.55-1.34l0-.07a1.43,1.43,0,0,0-.3-.09l-.25-.12v.07a14.27,14.27,0,0,0-2.26,0c-.63,0-1.33.08-2.06.15l-2,.19-1.93.21-.33,0-.22,0-1.36.15-2,.21c2,.77,3.9,1.35,5.73,1.92C312.06,346.12,313.07,346.44,314.11,346.78Z"/><path class="cls-1" d="M204.48,276.52a89.37,89.37,0,0,1-11.26-2.06l-1-.27-.06-1a38.63,38.63,0,0,0-.65-6.38l-3.89,0c-2.47,0-4.76,0-6.94-.1v22.21l4.32,2C192.79,286,199.63,281.11,204.48,276.52Z"/><path class="cls-1" d="M468.73,281.35l3.28.76a124.06,124.06,0,0,1,12.44,3.56c-19.29-29-51.69-67-112.26-80.79-1.39-.32-3.81.94-6.86,2.53a71.38,71.38,0,0,1-15.21,6.25,40.5,40.5,0,0,1-4.53,1,42.5,42.5,0,0,1-1.41,6.21l-.94,3.32-1.69-3c-5.15-9.21-7.2-11.2-14.63-14.22L324,205.77l2.75-1.43a50.2,50.2,0,0,1,13-4.81c1.44-6-.3-9.92-5.38-12.6-9.73-5.15-26.41-1.28-39.81,1.83-2.61.61-5.08,1.18-7.35,1.65l-.43.09c-3.25.69-4.58.7-11.07-3.52-15.38-10-25-26.85-30.34-39.22-6.19-14.32-9.29-28.47-9.61-36.15-.29-6.83-1.81-8-5.15-10.48-.59-.45-1.23-.93-1.92-1.47-61.55-47.36-134.86-46-183.38-45.1l-8.13.14A134,134,0,0,1,55,67l2.28,1.8-2.82.71a148.29,148.29,0,0,1-29.64,4.51c4.82,3.64,11.72,8.32,17.74,10.4l3.9,1.34-3.89,1.36a275.16,275.16,0,0,1-27.2,8.16c5.09,2.49,16.93,6.65,32,11.18l4.19,1.26-4.13,1.46c-8.72,3.08-21,6.81-30.88,9.81l-5.61,1.71c7.67,3.35,21.71,8,43.79,9.93l4.63.41-5.44,3C46,138.48,32,146.28,22.06,151.21c6.93,2.43,20.66,6.12,28.54,7.11l1.3.16-.05,1.31a38.32,38.32,0,0,1-1.37,9c7.11,1.05,30.15,5.09,36.25,8.67l.48.28.16.53c.75,2.38,0,5.57-1,8.75,5.59,2.5,19.22,7.7,23.7,9.1l.81.25.16.84c1.1,5.63,3,12.66,4.58,15.65,4.29,2.05,13.62,4.63,17.72,5.28l1.19.19,0,1.2a74.35,74.35,0,0,0,1.9,13.17c1.28.34,3.31.73,5.44,1.15,2.28.45,4.86.95,7.2,1.51l.9.21.17.91c.57,3,.89,4.81,1.18,6.42.25,1.42.48,2.68.81,4.41a189.87,189.87,0,0,0,19.19,5l1.19.25-.05,1.21a52,52,0,0,1-1.15,9.26,117.56,117.56,0,0,0,16.31.84l5,.05,1.09,0L194,265a31.15,31.15,0,0,1,.93,6.94,125.17,125.17,0,0,0,12.76,2.13l2.76.38-1.91,2c-4.8,5.08-12,10.49-20.37,15.77,7.3,3.28,15.53,6.9,24.5,10.79,3.34-3.41,7-6,8.7-6h0c2.61,0,7.15,6.81,10,13.48,5.31-.84,15.41-1.81,17.78-.11,1.53,1.1,1.63,5.12,1.44,8.29,0,.16,0,.34,0,.54q9.86,4.16,20.21,8.48a67.52,67.52,0,0,1,.86-11.55l2.81,0a69.43,69.43,0,0,0,4.67,15l6.65,2.76a6.68,6.68,0,0,1,4-2.05h0c2,0,7.28,2,13.31,9.22l.06.06h.08c1.73-.16,3.41-.34,5-.52,4.43-.48,7.33-.78,9.22-.58.25-4.66.52-8.49.78-10l.42-2.31,1.86,1.43c.68.52,1.49,1.24,2.34,2a43,43,0,0,0,3.9,3.2c3.86-1,19.73-4.54,22.62-5.16l.78-.17.55.57c1,1.09,2.1,2,3.56,3.29.91.79,1.92,1.68,3.16,2.8,4.77-.07,21.18-1.71,26-2.75l.86-.18.55.68a136.22,136.22,0,0,0,12.59,13,26.23,26.23,0,0,0,6.57-4.26l1.17-1.07.94,1.28c3.38,4.59,14.59,16,20.15,20.89a47.43,47.43,0,0,0,5.52-3.78c1-.73,2-1.48,3.08-2.27l.8-.56.81.54c2,1.35,5.72,5.26,10,9.79,4.07,4.32,8.58,9.11,11.68,11.63.43-7.43.21-15.93.06-21.76-.06-2.18-.11-4.07-.11-5.39V350l1.54.12,3.19.27c3.52.31,7.46.66,10.7.63a57,57,0,0,0-1.51-11l-.36-1.65,1.69-.08c3.56-.17,6.4-.26,9.5-.17-1.38-4.25-2.44-6.83-3.65-9.77-.59-1.43-1.2-2.91-1.91-4.73l-.78-2,2.15.05c.09,0,7.3.18,11.94.8-6.21-12.66-14.52-28.72-20.21-38.21Z"/><path class="cls-1" d="M406.51,347.34c-.61-.71-1.17-1.37-1.65-2a30.45,30.45,0,0,1-7.05,4.15l-.85.35-.67-.62a149.44,149.44,0,0,1-13-13.25c-2.35.43-6.18.93-10.24,1.37v32.18c11.52,4.63,22.75,9.11,33.48,13.36Z"/><path class="cls-1" d="M285.29,341.34a13,13,0,0,1,4.37-2.7,4.18,4.18,0,0,1,2.16,0,59.25,59.25,0,0,1,7.93,2.91,35.51,35.51,0,0,0-2.56-2.55l-.78-.67a22.13,22.13,0,0,0-3.11-2.21,13,13,0,0,0-2.42-1.11,5.21,5.21,0,0,0-1.08-.26,2.09,2.09,0,0,0-.95.42l0,0a12.92,12.92,0,0,0-2.29,2.14,20.32,20.32,0,0,0-2.27,3.18,16.26,16.26,0,0,0-1.18,2.5c.7-.51,1.32-1,1.89-1.45Z"/><path class="cls-1" d="M210.34,310.74l.39-.25.93-.59.94-.59,1-.58q.52-.3,1-.56c.37-.19.73-.36,1.09-.51l.27-.11a9.25,9.25,0,0,1,1-.32,7,7,0,0,1,1.59-.24h.31a8.21,8.21,0,0,1,2.87.62,36.29,36.29,0,0,1,4.07,2c.87.47,1.8,1,2.85,1.52q-.27-.61-.54-1.2l-.17-.36q-.28-.58-.56-1.13-.41-.8-.81-1.53t-.93-1.59q-.56-.91-1.08-1.68c-.48-.7-.92-1.3-1.33-1.81a8.86,8.86,0,0,0-1.88-1.91,3.68,3.68,0,0,0-.92.4c-.28.16-.59.36-.93.6s-.56.4-.86.63l-.82.66-.79.67-.76.69-.72.68,0,0-.71.71-.69.72-.67.74h0l-.64.74-.62.76c-.2.26-.4.52-.59.78s-.38.53-.56.8-.36.55-.52.82-.23.37-.33.55Z"/><path class="cls-1" d="M236.48,314.47a29.19,29.19,0,0,1,7.14,3.3A7.55,7.55,0,0,1,245,319a6.85,6.85,0,0,1,.85,1.28l.17.36a8.24,8.24,0,0,1,.45,1.34,10.83,10.83,0,0,1,.23,1.22q.07.56.1,1.15,0,.29,0,.58l.11-.39,0-.12q.12-.48.23-1t.2-1q.09-.51.16-1l.06-.44c0-.2.05-.39.07-.59q.06-.53.1-1t.07-1.06c0-.1,0-.2,0-.3,0-.26,0-.52,0-.77s0-.74,0-1.09,0-.77,0-1.12-.06-.81-.1-1.15a5.07,5.07,0,0,0-.27-1.24,9.59,9.59,0,0,0-2.66-.33c-.61,0-1.31,0-2.06,0-.6,0-1.24,0-1.92.06l-1.83.11-1.76.15-1.69.18h0l-1.65.21-.84.12c1.06.42,2.15.82,3.21,1.2Z"/><path class="cls-1" d="M273.72,324.82c0,1.31-.06,2.68,0,4.09l1.74.72Q274.51,327.31,273.72,324.82Z"/><path d="M496,326.86l-1.5-3.09c-5.76-11.87-13.85-27.63-19.87-38.08,3.93,1,7.57,2.17,12.84,4.05l4,1.42-2.29-3.54a237.27,237.27,0,0,0-26.68-34.5V46.76l-15.6-15.6h-277l-15.6,15.6V60.89q-10.69-2.75-22.1-4.69c-32.55-5.52-62.69-5-86.91-4.51-4.87.09-9.48.18-13.72.2l-.63,2.71c6.21,3.13,11.2,6.1,20,12.89-9.65,2.28-17.64,3.31-30,3.95l-3.75.19L20,74c4,3.2,11.13,8.54,18,11.73a261.34,261.34,0,0,1-26.59,7.61l-2.35.54,1.61,1.8c2.7,3,20.62,8.9,31.58,12.29-8.16,2.74-18.24,5.8-26.6,8.34-3.47,1.05-6.62,2-9.17,2.8l-3.37,1,3.15,1.59c6.32,3.19,20.13,8.73,43.59,11.33-9,5-23.07,12.77-32,17l-2.78,1.33,2.81,1.27c4.76,2.15,21.28,6.85,31,8.32a45.13,45.13,0,0,1-1.6,8.66L47,171.21l1.6.19c5.79.69,29.68,4.95,36.2,8.23.3,1.94-.59,5-1.47,7.71l-.38,1.19,1.12.54c4.45,2.13,18.78,7.65,24.39,9.51.92,4.5,2.93,12.66,5,16.09l.21.36.37.19c4.1,2.08,13,4.6,17.79,5.54a84.15,84.15,0,0,0,2.13,13.43l.19.76.74.25a65.35,65.35,0,0,0,6.54,1.46c2,.38,4.15.81,6.19,1.27.46,2.44.74,4,1,5.47.29,1.66.55,3.08,1,5.29l.16.83.81.26c1,.3,2.21.7,3.75,1.16v23.68l-1,2L23.54,215.42c-2.41-1.14-6.71,2.81-9,7.39s-2.64,11.69-.5,12.7l129.74,61.25-2.4,5.09a.74.74,0,0,0,.36,1l5.57,2.63a.74.74,0,0,0,1-.36l2.27-4.81,3.65,1.79v5.15c-14.34,6.73-27.86,11.94-35.81,13.82l-3.22.76,2.76,1.82a78.36,78.36,0,0,0,13.21,6.82l-.77,1.39c-1.51,2.71-2.34,4.2-3.87,6.73L125.7,340l1.46.67a100.15,100.15,0,0,0,15.76,5.21A77.07,77.07,0,0,0,144.53,356l.18.79.77.25a35.79,35.79,0,0,0,5.77,1.22,40.93,40.93,0,0,0,3,5.91v89.17l15.53,15.53H446.95l15.53-15.53V427.49l3.44,1.13.65.21.58-.38a158.7,158.7,0,0,0,18-13.13l1.9-1.61-2.34-.83c-6-2.15-13.54-4.93-22.21-8.21V353.23l.19,0a101.55,101.55,0,0,0,12.53.6l1.44-.07-.08-1.44a62.62,62.62,0,0,0-1.3-11.29c3.44-.15,6.28-.19,9.59,0l2,.1-.61-2a120.14,120.14,0,0,0-4.35-11.95c-.35-.85-.71-1.72-1.09-2.66,4.54.18,10.24.6,11.92,1.17ZM162.35,56.1,178.48,40l.53-.53H437.74L454.39,56.1v189q-1.75-1.64-3.58-3.27V57.58L436.26,43H180.49L165.94,57.58v6.64c-1.19-.37-2.38-.74-3.58-1.1ZM357.43,75.35H318l-15.6,15.6v93.13c-2.89.61-5.73,1.27-8.43,1.9s-5.05,1.17-7.29,1.64l-.44.09c-2.45.52-3.11.66-8.92-3.12-27.58-17.94-38.12-60.46-38.65-73.1-.33-7.82-2.38-9.72-6.29-12.65-.57-.43-1.19-.89-1.87-1.44a200.59,200.59,0,0,0-49.51-27.91l15.33-15.33H390.91l15.6,15.6V213.23A182.6,182.6,0,0,0,373,202.14V90.95ZM342.91,212c0,.48,0,1-.06,1.43s-.1,1-.18,1.43-.22,1.24-.36,1.85c-.41-.69-.81-1.33-1.2-1.93s-.77-1.17-1.15-1.7a26.78,26.78,0,0,0-2.22-2.76c-.44-.47-.88-.9-1.35-1.31a22.6,22.6,0,0,0-5.54-3.51,43.15,43.15,0,0,1,7.9-2.79l.81-.21c.18.25.35.5.52.74.35.52.66,1,.94,1.54A14.61,14.61,0,0,1,342.91,212ZM153.61,356.39l-.31-.78-.83-.11a40.48,40.48,0,0,1-5.33-1,71.43,71.43,0,0,1-1.45-9.9l-.07-1.08-1.06-.23a101.88,101.88,0,0,1-14.73-4.61c1.07-1.8,1.85-3.21,3.08-5.41l1.56-2.8.79-1.42-1.51-.61A87.83,87.83,0,0,1,122.33,323c8.38-2.42,20.87-7.33,34-13.5q3-1.39,5.94-2.87l.75-.37c12.87,6,31.91,14.59,54.79,24.59a7.84,7.84,0,0,0-.34,2.9A3.93,3.93,0,0,0,220,337.3a2.51,2.51,0,0,0,.85.15,3,3,0,0,0,2.11-1,8.2,8.2,0,0,0,1.64-2.65c14.95,6.5,31.34,13.52,48.61,20.77A205.6,205.6,0,0,0,278.33,378a91.14,91.14,0,0,1-15.4-9.17l-1-.78L261,369a33.41,33.41,0,0,1-10.32,7.51c-4.74-3.81-8.21-8.31-11.29-12.31l-.88-1.14-1.13.88c-6,4.65-9.91,7.58-14,10.54a19.85,19.85,0,0,0-2.65-6.23l-.75-1-1.09.61c-5.58,3.11-13.09,6.9-23.59,11.91A56,56,0,0,1,186.8,372l-.67-.72-.91.37a63.64,63.64,0,0,1-9.49,3.09,43.32,43.32,0,0,1-3.26-9.51l-.35-1.41-1.4.36a48.61,48.61,0,0,1-11.85,1.73A40.81,40.81,0,0,1,153.61,356.39Zm66.68-22.89s0-.09,0-.13a4,4,0,0,1,0-.64,5.43,5.43,0,0,1,.1-.61l0-.1c0-.16.08-.32.14-.49s.14-.38.21-.57.16-.37.25-.56.18-.36.28-.54.18-.31.28-.46l0-.07c.11-.17.23-.34.36-.51s.25-.34.39-.5.28-.33.43-.48l.07-.08s0,.07,0,.11c0,.21,0,.43,0,.64s0,.42-.05.63,0,.41-.08.62l0,.14c0,.16-.06.32-.09.47s-.08.4-.13.6-.1.4-.16.59-.12.39-.18.58-.13.37-.2.54v0c-.08.2-.16.39-.24.56s-.19.38-.28.54a3.44,3.44,0,0,1-.36.51,1.29,1.29,0,0,1-.25.23.88.88,0,0,1-.42-.49A2,2,0,0,1,220.29,333.5Zm70.95,32.59a3.93,3.93,0,0,0,2.56,3.55,2.52,2.52,0,0,0,.85.15,3,3,0,0,0,2.11-1,9.29,9.29,0,0,0,2-3.58l3.62,1.49v42.39l15.53,15.53H357.5L373,409.12V395c11.28,4.37,22.48,8.62,33.48,12.7v22.6L391,445.84H196.21l-15.53-15.53v-54c1.67-.52,3.08-1,4.69-1.67a62.08,62.08,0,0,0,8.89,7.88l.7.55.8-.38c10.24-4.87,17.71-8.62,23.35-11.71a22.37,22.37,0,0,1,1.95,6.13l.37,2.3,1.88-1.36c4.52-3.27,8.52-6.2,14.72-11a64.39,64.39,0,0,0,11.65,12.25l.72.55.81-.41c5.35-2.74,7.75-4.37,11-7.59a91.15,91.15,0,0,0,17.84,10l2.77,1.1-.87-2.85a197.28,197.28,0,0,1-5.63-24.19q7.67,3.22,15.55,6.48A8.38,8.38,0,0,0,291.23,366.09Zm2.85-.26a3.7,3.7,0,0,1,0-.63,5.25,5.25,0,0,1,.09-.6c0-.19.09-.38.15-.58s.11-.36.18-.54v0c.07-.18.14-.37.23-.55s.17-.36.27-.54.2-.35.31-.53.22-.35.34-.52l.26-.35.12-.16c.13-.17.28-.33.43-.49l.22-.25c0,.11,0,.21,0,.32s0,.41,0,.62,0,.16,0,.25,0,.24,0,.37-.05.4-.09.6-.07.4-.11.59-.09.39-.14.58-.1.39-.16.58l0,.13-.14.43q-.1.29-.21.56c-.08.19-.16.38-.24.55s-.19.37-.29.53a3,3,0,0,1-.37.51,1.15,1.15,0,0,1-.19.17.83.83,0,0,1-.35-.36,1.74,1.74,0,0,1-.19-.69ZM454.39,444l-16.58,16.58H178.94L162.35,444V368.56c1.25-.1,2.41-.25,3.58-.44v74.36L180.42,457H436.33l14.48-14.48V423.56l3.58,1.22Zm27-29.23a157.36,157.36,0,0,1-15.22,10.95l-3.68-1.21q-4-1.33-8.09-2.72l-3.58-1.22c-14.14-4.84-29-10.19-44.3-15.87-11-4.09-22.2-8.35-33.48-12.72-23.66-9.17-47.63-18.8-70.67-28.3l-3-1.22a14.63,14.63,0,0,0,.14-2.47,9.91,9.91,0,0,0-.49-2.91l-.57-1.64-1.5.87a10.39,10.39,0,0,0-1.28.87,12.61,12.61,0,0,0-2.51,2.72q-8.83-3.66-17.43-7.27l-3.07-1.29c-16.79-7.06-32.72-13.89-47.27-20.22a12.58,12.58,0,0,0-.17-6.37l-.57-1.64-1.5.87a12.23,12.23,0,0,0-4.25,4.32c-21.69-9.48-39.92-17.67-52.69-23.61l-3.36-1.57-.52-.25-.11-.05-3.89-1.84-4.08-2-2.47-1.22,7.53-16q1.39.73,3,1.55l3.58,1.77c4.13,2,9.08,4.32,14.74,6.9l1.36.62,3.23,1.46c7.5,3.38,16,7.15,25.39,11.21-2.5,3-4.44,6.24-4.55,8.86l-.12,2.69,2.29-1.41c1.36-.83,2.54-1.59,3.59-2.27,3.21-2.06,5.16-3.31,6.84-3.31h0c1.43,0,3.09.92,5.6,2.28,1.47.8,3.15,1.71,5.23,2.69,1.85.87,3.78,1.57,5.64,2.25a28.73,28.73,0,0,1,6.69,3c2.22,1.63,2.29,4.42,1.61,10.45l-.31,2.74,2.42-1.33c2.85-1.57,4.09-6.23,4.63-9.74q10,4.23,20.59,8.63l2.88,1.2,3.28,1.36,4,1.67,2.72,1.13c-.41.52-.8,1.06-1.17,1.63a22,22,0,0,0-1.59,2.88,14.88,14.88,0,0,0-1.43,5.4l-.12,2.69,2.29-1.41c1-.61,1.86-1.2,2.66-1.77s1.61-1.2,2.28-1.73l.39-.31c2.07-1.63,3.1-2.41,4-2.17a77.7,77.7,0,0,1,10.35,4,84.63,84.63,0,0,0,8.71,3.12c1.1.35,2.14.67,3.2,1,2.69.91,3.5,1.19,2.87,6.76l-.31,2.74.87-.48,1.46-.8.09-.05a5.69,5.69,0,0,0,1.38-1.07,8.86,8.86,0,0,0,2.12-4.77c17.24,7.05,34.53,14.06,51.21,20.76,11.53,4.63,22.76,9.11,33.48,13.35,16.22,6.42,31.24,12.29,44.3,17.3l3.58,1.37,8.09,3.07C469.66,410.45,476,412.81,481.37,414.74ZM162.25,273.8h0V253.15c1.16.3,2.4.6,3.7.9V281.9q-1.93-.95-3.58-1.79l-.11-.06v-4.48l.37-.78A.74.74,0,0,0,162.25,273.8Zm18.43,15V266.63c2.18.06,4.47.08,6.94.1l3.89,0a38.63,38.63,0,0,1,.65,6.38l.06,1,1,.27a89.37,89.37,0,0,0,11.26,2.06c-4.85,4.59-11.69,9.48-19.48,14.29ZM211,309.52c.18-.27.36-.53.56-.8s.39-.52.59-.78l.62-.76.64-.74h0l.67-.74.69-.72.71-.71,0,0,.72-.68.76-.69.79-.67.82-.66c.3-.23.59-.44.86-.63s.65-.44.93-.6a3.68,3.68,0,0,1,.92-.4,8.86,8.86,0,0,1,1.88,1.91c.41.51.86,1.11,1.33,1.81q.52.76,1.08,1.68.46.75.93,1.59t.81,1.53q.28.55.56,1.13l.17.36q.27.58.54,1.2c-1-.54-2-1-2.85-1.52a36.29,36.29,0,0,0-4.07-2,8.21,8.21,0,0,0-2.87-.62h-.31a7,7,0,0,0-1.59.24,9.25,9.25,0,0,0-1,.32l-.27.11c-.35.15-.71.32-1.09.51s-.66.35-1,.56l-1,.58-.94.59-.93.59-.39.25-.23.15c.1-.18.22-.37.33-.55S210.77,309.79,211,309.52Zm22,3.64.84-.12,1.65-.21h0l1.69-.18,1.76-.15,1.83-.11c.68,0,1.32-.05,1.92-.06.76,0,1.45,0,2.06,0a9.59,9.59,0,0,1,2.66.33,5.07,5.07,0,0,1,.27,1.24c0,.34.08.72.1,1.15s0,.72,0,1.12,0,.71,0,1.09,0,.51,0,.77c0,.1,0,.2,0,.3q0,.52-.07,1.06t-.1,1c0,.2,0,.39-.07.59l-.06.44q-.07.5-.16,1t-.2,1q-.11.49-.23,1l0,.12-.11.39q0-.3,0-.58,0-.6-.1-1.15a10.83,10.83,0,0,0-.23-1.22,8.24,8.24,0,0,0-.45-1.34l-.17-.36A6.85,6.85,0,0,0,245,319a7.55,7.55,0,0,0-1.33-1.25,29.19,29.19,0,0,0-7.14-3.3l-.27-.1C235.15,314,234.06,313.59,233,313.17Zm40.68,15.74c0-1.41,0-2.78,0-4.09q.78,2.5,1.69,4.81Zm10.59,11.62a20.32,20.32,0,0,1,2.27-3.18,12.92,12.92,0,0,1,2.29-2.14l0,0a2.09,2.09,0,0,1,.95-.42,5.21,5.21,0,0,1,1.08.26,13,13,0,0,1,2.42,1.11,22.13,22.13,0,0,1,3.11,2.21l.78.67a35.51,35.51,0,0,1,2.56,2.55,59.25,59.25,0,0,0-7.93-2.91,4.18,4.18,0,0,0-2.16,0,13,13,0,0,0-4.37,2.7l-.3.24c-.57.45-1.19.94-1.89,1.45A16.26,16.26,0,0,1,284.27,340.53Zm21,3.33,2-.21,1.36-.15.22,0,.33,0,1.93-.21,2-.19c.73-.06,1.43-.11,2.06-.15a14.27,14.27,0,0,1,2.26,0v-.07l.25.12a1.43,1.43,0,0,1,.3.09l0,.07a5,5,0,0,1,.55,1.34c.06.21.12.43.17.67s.08.36.12.55c.07.37.14.76.19,1.18s.06.54.08.82c0,.11,0,.21,0,.32,0,.36,0,.73,0,1.11a15.09,15.09,0,0,1-.1,1.64c0,.15,0,.3-.05.45,0-.19-.1-.36-.16-.53a5.27,5.27,0,0,0-.34-.84,4.58,4.58,0,0,0-1.37-1.59l-.18-.13a11,11,0,0,0-2.73-1.27l-.16-.05c-1-.35-2-.67-3.11-1C309.18,345.21,307.31,344.63,305.27,343.86ZM373,369.56V337.38c4.06-.45,7.89-.94,10.24-1.37a149.44,149.44,0,0,0,13,13.25l.67.62.85-.35a30.45,30.45,0,0,0,7.05-4.15c.48.6,1,1.26,1.65,2v35.57C395.79,378.67,384.55,374.19,373,369.56Zm77.78,30.67V375.66c1.25,1.27,2.46,2.45,3.58,3.48V401.6Zm27.93-78.57-2.15-.05.78,2c.71,1.81,1.32,3.3,1.91,4.73,1.21,2.93,2.28,5.52,3.65,9.77-3.09-.09-5.94,0-9.5.17l-1.69.08.36,1.65a57,57,0,0,1,1.51,11c-3.24,0-7.18-.32-10.7-.63l-3.19-.27-1.54-.12v1.55c0,1.32.05,3.21.11,5.39.15,5.83.37,14.33-.06,21.76-3.1-2.52-7.61-7.31-11.68-11.63-4.26-4.53-7.95-8.44-10-9.79l-.81-.54-.8.56c-1.13.79-2.12,1.54-3.08,2.27a47.43,47.43,0,0,1-5.52,3.78c-5.56-4.86-16.77-16.3-20.15-20.89l-.94-1.28-1.17,1.07a26.23,26.23,0,0,1-6.57,4.26,136.22,136.22,0,0,1-12.59-13l-.55-.68-.86.18c-4.82,1-21.23,2.68-26,2.75-1.24-1.13-2.26-2-3.16-2.8-1.46-1.28-2.52-2.2-3.56-3.29l-.55-.57-.78.17c-2.89.62-18.76,4.17-22.62,5.16a43,43,0,0,1-3.9-3.2c-.86-.76-1.67-1.48-2.34-2l-1.86-1.43-.42,2.31c-.27,1.46-.54,5.29-.78,10-1.89-.2-4.8.09-9.22.58-1.63.18-3.32.36-5,.52h-.08l-.06-.06c-6-7.21-11.31-9.19-13.31-9.22h0a6.68,6.68,0,0,0-4,2.05l-6.65-2.76a69.43,69.43,0,0,1-4.67-15l-2.81,0a67.52,67.52,0,0,0-.86,11.55q-10.33-4.31-20.21-8.48c0-.2,0-.38,0-.54.19-3.18.09-7.19-1.44-8.29-2.38-1.7-12.47-.73-17.78.11-2.88-6.67-7.41-13.45-10-13.48h0c-1.65,0-5.35,2.59-8.7,6-9-3.89-17.2-7.51-24.5-10.79,8.36-5.28,15.57-10.69,20.37-15.77l1.91-2-2.76-.38A125.17,125.17,0,0,1,195,271.95,31.15,31.15,0,0,0,194,265l-.27-1.06-1.09,0-5-.05a117.56,117.56,0,0,1-16.31-.84,52,52,0,0,0,1.15-9.26l.05-1.21-1.19-.25a189.87,189.87,0,0,1-19.19-5c-.33-1.73-.56-3-.81-4.41-.29-1.61-.61-3.44-1.18-6.42l-.17-.91-.9-.21c-2.34-.56-4.93-1.06-7.2-1.51-2.13-.42-4.16-.81-5.44-1.15a74.35,74.35,0,0,1-1.9-13.17l0-1.2-1.19-.19c-4.1-.65-13.43-3.23-17.72-5.28-1.58-3-3.48-10-4.58-15.65l-.16-.84-.81-.25c-4.48-1.4-18.1-6.61-23.7-9.1,1-3.18,1.72-6.37,1-8.75l-.16-.53-.48-.28c-6.1-3.58-29.14-7.61-36.25-8.67a38.32,38.32,0,0,0,1.37-9l.05-1.31-1.3-.16c-7.87-1-21.61-4.69-28.54-7.11C32,146.28,46,138.48,53.86,134.1l5.44-3-4.63-.41c-22.09-2-36.12-6.58-43.79-9.93L16.48,119c9.87-3,22.16-6.73,30.88-9.81l4.13-1.46L47.3,106.5c-15-4.53-26.87-8.69-32-11.18a275.16,275.16,0,0,0,27.2-8.16l3.89-1.36-3.9-1.34c-6-2.08-12.92-6.75-17.74-10.4a148.29,148.29,0,0,0,29.64-4.51l2.82-.71L55,67A134,134,0,0,0,37.18,54.68l8.13-.14c48.52-.9,121.83-2.26,183.38,45.1.69.55,1.33,1,1.92,1.47,3.34,2.51,4.87,3.65,5.15,10.48.32,7.67,3.42,21.83,9.61,36.15,5.35,12.37,15,29.22,30.34,39.22,6.49,4.22,7.83,4.21,11.07,3.52l.43-.09c2.27-.47,4.74-1,7.35-1.65,13.4-3.11,30.08-7,39.81-1.83,5.08,2.69,6.82,6.61,5.38,12.6a50.2,50.2,0,0,0-13,4.81L324,205.77l2.87,1.16c7.43,3,9.48,5,14.63,14.22l1.69,3,.94-3.32a42.5,42.5,0,0,0,1.41-6.21,40.5,40.5,0,0,0,4.53-1,71.38,71.38,0,0,0,15.21-6.25c3.06-1.59,5.47-2.85,6.86-2.53,60.57,13.81,93,51.84,112.26,80.79A124.06,124.06,0,0,0,472,282.12l-3.28-.76,1.73,2.89c5.69,9.49,14,25.54,20.21,38.21C486,321.84,478.83,321.66,478.73,321.66Z"/></g></svg>