<svg xmlns="http://www.w3.org/2000/svg" viewBox="0 0 500 500"><title>clan-invasion</title><g id="Icons"><path d="M249.4,227.27h29.7l18.65-7v14s-2.6,3.39-2.33,4.66c.93,4.45,14,11.66,14,11.66s-2,8.7-2.33,11.66c-.4,4.06,0,16.32,0,16.32l-7,4.66v23.31l9.32,7h11.66v25.64l-7,7v35l4.66,11.66s-12,5.62-14,9.32c-1.65,3.08,0,14,0,14s-21.52,7.68-28,11.66c-4.58,2.82-16.32,14-16.32,14v11.66h39.63l4.66-11.66h11.66l7,11.66h28l7-11.66h9.32L377,453.38h37.3V441.72s-14.81-15.31-21-18.65c-5.84-3.16-25.64-7-25.64-7s1.34-10.76,0-14C366.1,398.29,356,390.44,356,390.44l4.66-9.32V348.48l-9.32-11.66,2.33-23.31,7-7v-30.3l-16.32-7s-.15-8.32-2.33-9.32c-2.37-1.09-9.32,4.66-9.32,4.66V248.25s9.43-6.33,11.66-9.32A34.79,34.79,0,0,0,349,227.27c.78-5.19,1.23-15.88,0-21-1.18-4.87-7.2-14-11.66-16.32-2.07-1.07-9.32,0-9.32,0v9.32l-9.32,2.33v-9.32s-11.34-4.08-16.32-2.33c-3.11,1.09-16.32,9.32-16.32,9.32l2.33-11.66s1-27.7,7-35c2.34-2.85,9.94-3.73,11.66-7,2-3.75-4.89-10.6-2.33-14,1.4-1.86,5-3.56,7-2.33,1.11.69,1.22,4,2.33,4.66,3,1.84,10.64,1,14,0,4-1.22,9.8-9.74,14-9.32,3.28.32,6.09,6.33,9.32,7,3.07.63,8.9-3.83,11.66-2.33s2.76,9.37,4.66,11.66,9.32,4.66,9.32,4.66l-2.33,55.94s-7.24.21-9.32,2.33c-4.57,4.65-7.75,19.17-7,25.64,1.18,10.11,16.32,37.3,16.32,37.3h28s11.14-27.54,11.66-37.3c.31-5.93-1.24-18.45-4.66-23.31-2-2.78-11.66-4.66-11.66-4.66L395.65,162s1.59-11.63,2.33-14c2.22-7-4-20.51-9.32-25.64-4.37-4.24-18.65-4.66-18.65-4.66s-4.11-9.93-7-14c-2.63-3.71-14-16.32-14-16.32H325.72v-7H363l9.32-11.66V12.82L357.19,0H312.9L301.24,7v49s-8.41-6-11.66-7c-8.16-2.52-33.32-2.43-40.19-2.35s-32-.16-40.19,2.35c-3.25,1-11.66,7-11.66,7V7L185.9,0H141.61L126.46,12.82V68.76l9.32,11.66h37.3v7H149.77s-11.35,12.61-14,16.32c-2.88,4.06-7,14-7,14s-14.28.43-18.65,4.66C104.85,127.51,98.6,141,100.82,148c.74,2.36,2.33,14,2.33,14l-2.33,39.63s-9.7,1.88-11.66,4.66c-3.42,4.86-5,17.38-4.66,23.31.52,9.76,11.66,37.3,11.66,37.3h28s15.14-27.19,16.32-37.3c.76-6.47-2.43-21-7-25.64-2.08-2.12-9.32-2.33-9.32-2.33l-2.33-55.94s7.32-2.25,9.32-4.66,2-10.24,4.66-11.66,8.58,3,11.66,2.33c3.23-.66,6-6.67,9.32-7,4.18-.41,10,8.11,14,9.32,3.35,1,11,1.84,14,0,1.11-.69,1.22-4,2.33-4.66,2-1.23,5.59.47,7,2.33,2.55,3.39-4.31,10.23-2.33,14,1.72,3.26,9.32,4.14,11.66,7,6,7.27,7,35,7,35l2.33,11.66s-13.21-8.23-16.32-9.32c-5-1.75-16.32,2.33-16.32,2.33v9.32l-9.32-2.33V190s-7.25-1.07-9.32,0c-4.46,2.29-10.48,11.44-11.66,16.32-1.23,5.1-.78,15.79,0,21a34.79,34.79,0,0,0,4.66,11.66c2.22,3,11.66,9.32,11.66,9.32v16.32s-7-5.75-9.32-4.66c-2.18,1-2.33,9.32-2.33,9.32l-16.32,7v30.3l7,7,2.33,23.31-9.32,11.66v32.63l4.66,9.32s-10.08,7.85-11.66,11.66c-1.34,3.23,0,14,0,14s-19.8,3.83-25.64,7c-6.17,3.34-21,18.65-21,18.65v11.66h37.3l9.32-11.66h9.32l7,11.66h28l7-11.66h11.66l4.66,11.66h39.63V441.72s-11.74-11.17-16.32-14c-6.45-4-28-11.66-28-11.66s1.65-10.9,0-14c-2-3.71-14-9.32-14-9.32l4.66-11.66v-35l-7-7V313.52h11.66l9.32-7V283.22l-7-4.66s.4-12.26,0-16.32c-.29-3-2.33-11.66-2.33-11.66s13.05-7.2,14-11.66c.27-1.28-2.33-4.66-2.33-4.66v-14l18.65,7h29.7M249.34,141H233.68s-.78-4.8,0-7,4.79-5.86,7-7c1.95-1,6.15-1,8.72-1.46,2.57.41,6.77.45,8.72,1.46,2.2,1.13,6.16,4.66,7,7s0,7,0,7H249.46m-15.77-21h-9.32l-11.66-9.32s4-10,7-11.66,14,0,14,0Zm24.44-9.32H240.68v-21h17.44ZM274.44,120h-9.32v-21s10.94-1.72,14,0,7,11.66,7,11.66Z"/><path d="M91.08,421.73a25.09,25.09,0,0,1,9.69-8.54,207.16,207.16,0,0,1,22.56-308.14c-7.22-4.2-11.49-11.56-12.83-19.51A230.42,230.42,0,0,0,83.78,429.13,25.4,25.4,0,0,1,91.08,421.73Z"/><path d="M457.46,269.23a206.74,206.74,0,0,1-58.22,144,25.33,25.33,0,0,1,10.85,10.35,25.17,25.17,0,0,1,6,5.77,230.43,230.43,0,0,0-25.4-342.9c-2.53,7.58-8,14-16.32,16.88A207.25,207.25,0,0,1,457.46,269.23Z"/><path d="M327.62,461.58a206.92,206.92,0,0,1-158.32-1.28c-.08,8-3.07,16.06-9,21.5A230.06,230.06,0,0,0,337,482.93C330.92,477.59,327.81,469.64,327.62,461.58Z"/></g></svg>