<svg xmlns="http://www.w3.org/2000/svg" viewBox="0 0 500 500"><title>clan-coyote</title><g id="Icons"><polygon points="261.85 113.98 268.89 116.21 283.29 91.06 258.85 105.06 261.85 113.98"/><polygon points="237.58 113.98 240.35 105.76 214.67 91.06 229.29 116.61 237.58 113.98"/><polygon points="261.85 136.77 260.37 146.57 283.29 159.69 269.03 134.77 261.85 136.77"/><polygon points="237.58 136.03 229.42 133.92 214.67 159.69 239.03 145.74 237.58 136.03"/><path d="M240.57,260.82l10.25,94.71,2.67,0,7.24-94.43,0-.48-9.35-13.4Zm11.36,80-8.57-79.19,7.93-10,6.74,9.67Z"/><polygon points="260.11 115.75 259.75 114.68 249.72 77.49 239.68 114.68 239.32 115.75 238.25 116.09 199.94 125.9 238.14 133.89 239.55 134.26 239.77 135.71 249.73 222.13 259.66 136.44 259.88 135.03 261.26 134.64 299.73 125.97 261.18 116.09 260.11 115.75"/><path d="M497.53,41.32H433.9l.09-.22.15.07c4.31-8.62,4.51-20.05-7.56-20.13-11.23-.07-28.79,14-38.35,19.54l-1.24.73H113.17l-1.24-.73C102.36,35,84.81,21,73.57,21,61.5,21.12,61.7,32.56,66,41.17l.15-.07.09.22H2.06l4.52,8L85.12,188.42,71.93,209.24l15.75-2.72L58.95,256.4l6.48-1.92c11.28-.31,23.49-4.18,33.74-8.6l2,20.38,15.94-6.91c.61.93,3.9.09,7.4-1.1L245.12,471.79l4.67,8.27,4.67-8.27,120.67-213.7c3.67,1.28,7.23,2.23,7.86,1.26l15.94,6.91,2-20.38c10.25,4.42,22.46,8.29,33.74,8.6l6.48,1.92-28.73-49.88,15.75,2.72L414.74,188l5-8.83h.06l0-.06L493,49.32ZM378.16,46.68c-9.67,6-19.77,12.22-29.8,16.07-8.77,3.36-16.09,1.49-24.45-1.56-3.26-1.19-21-10.45-23.56-6.86-18-5.78-33.21,3-50.28,3s-32.28-8.79-50.28-3c-2.55-3.59-20.3,5.67-23.56,6.86-8.36,3-15.68,4.92-24.45,1.56-10-3.85-20.13-10.1-29.8-16.07ZM83.08,173.89,11.25,46.68H68.53c7,16.59,13.67,33.34,20.42,50,3.27,8.1,5.22,15.55,7.41,23.82,1,3.7,2.6,15,5.41,17.39Q92.4,155.9,83.08,173.89ZM70,33.77c2.22-1.43,8.35,1.87,16.25,7.55,2.24,1.61,4.63,3.42,7.11,5.36,21.22,16.65,49.4,43.57,54.25,47.65-10.36,13.16-22.63,24.45-32.86,37.87l-8.63-5.68-1,2.55c-5.86-28.63-23.57-54.45-32-82.39q-.81-2.67-1.49-5.36C71,38.82,70.42,36.31,70,33.77ZM249.8,469.15,135.48,266.71l20.74-4.44-3.08,12.82,21.64,1c1.23,10,13.92,16.49,17.61,24.89,3.34,7.61,2.3,21.59,4.16,30.43,2.38,11.31,3.56,21,8.49,31.57,1.7,3.65,9.76,22,14.16,23.35-1,5.27-1.7,11.3,2.23,15.17,7.3,7.18,12.44-2,16.28-1.1,5.83,3.11,3.79,8.89,12.36,7.73,8.57,1.16,6.53-4.62,12.36-7.73,3.84-.85,9,8.28,16.28,1.1,3.93-3.86,3.26-9.89,2.23-15.17,4.4-1.37,12.46-19.7,14.16-23.35,4.93-10.57,6.11-20.27,8.49-31.57,1.86-8.84.82-22.81,4.16-30.43,3.68-8.4,16.38-14.9,17.61-24.89l21.64-1-3.08-12.82,20.25,4.34ZM160.55,258a25.06,25.06,0,0,1,2.17-5.1c3.6,2.77,8.82.43,13.52-.39-1.68,6.5,26.63,23.91,30.62,29.56-2.2,4.76,1,17,1.34,23.07.68,11.53,1.51,23.06,2.32,34.58.87,12.3,2.92,30.9,19.35,32.25a35.89,35.89,0,0,0-8.85,8.16c-7.87-10.54-14.27-22.16-17.56-35-.54-2.11-1.31-26.07-5-27.42-1.87-19.73-8.74-28.46-19.86-44.67l-21.39-1,3.36-14Zm132.74,24.07c4-5.65,32.3-23.06,30.62-29.56,4.7.82,9.93,3.16,13.52.39a25.06,25.06,0,0,1,2.17,5.1h0l3.36,14-21.39,1c-11.12,16.21-18,24.94-19.86,44.67-3.71,1.36-4.48,25.31-5,27.42-3.3,12.85-9.69,24.47-17.56,35a35.89,35.89,0,0,0-8.85-8.16c16.42-1.34,18.48-19.94,19.34-32.25.81-11.52,1.65-23,2.32-34.58C292.3,299.17,295.49,286.88,293.29,282.12ZM420.64,203.3c-4.1,0-10.43-3.85-13.22-2.4a2.51,2.51,0,0,0-1.27,1.83.86.86,0,0,0,0,.36c.5,2.08,6.06,9.52,6.77,10.76L434.39,251l-36.1-10.68,0,.34c-2.1.39-1.81,18.07-2.09,20.86l-18.48-8-4.95-2.15-8.83-3.82L362.82,263,344,259a24.81,24.81,0,0,0-3.95-9c12.76.81,12.65.86,19.89-9.6l17.74,2.22,4.07.51,4.37-13.38,5.2-.38,22.85-1.65c-4.31-5.23-8.48-10.81-12.73-16.27q-1.78-2.29-3.59-4.55c-2.54-3.15-5.13-6.21-7.83-9.09-11.18-11.94-32.52-8.94-48.18-10.3-17.64-1.53-22.46,6.81-32.85,20.31-9.1,11.84-20.23,24-28.65,35.52-3.83-4.21-7.49-8.58-11.14-12.94h0c-1.22-.95-3,.6-2.38,2l-.09.07c2.89,3.46,9.11,14.9,12.38,16.66,6.9,3.72,9-4.43,15.46-8.77-.63-.39,34.2-14.75,32.8-11.83,1.06-2.22-6.38-5.25-7.21-5.52,1.44-2.28,13.07-33.62,14.5-32.81,15.56,1.15,41.48-1.8,52.74,9.62A117.06,117.06,0,0,1,396.14,210c1.19,1.53,2.38,3.08,3.55,4.63,2.68,3.54,5.34,7.08,8.05,10.37l-14.5,1-6.42.46-3.07.22-4,12.35-.31.54-21-2.62c-2.09,3-4.91,9.12-7.93,10.47-3.78,1.7-9.08-1.61-12.83.37,3.08,3-15.85,1.64-14.64,1.32-4.23,1.09-9.23,7.9-12.33,10.82-13.56,12.79-22,19.29-21.53,38.43.37,16.4-1.95,34.6-3.44,50.73-2.11,22.89-19.94,17-35.66,18.33-15.72-1.33-33.55,4.55-35.66-18.33-1.49-16.13-3.8-34.33-3.44-50.73.43-19.15-8-25.64-21.53-38.43-3.1-2.93-8.11-9.73-12.33-10.82,1.21.31-17.72,1.68-14.64-1.32-3.75-2-9,1.34-12.83-.37-3-1.36-5.84-7.46-7.93-10.47l-21.11,2.64-4.22-12.91-3.65-.26-6.42-.46L92.4,225c2.61-3.16,5.16-6.55,7.73-10,1.17-1.55,2.35-3.1,3.54-4.63a119.49,119.49,0,0,1,9-10.56c11.26-11.42,37.18-8.47,52.74-9.62,1.43-.81,13.06,30.53,14.5,32.81-.82.27-8.27,3.3-7.21,5.52-1.4-2.93,33.43,11.44,32.8,11.83,6.5,4.34,8.57,12.49,15.46,8.77,3.27-1.76,9.48-13.2,12.38-16.66l-.09-.07c.58-1.39-1.16-2.94-2.38-2h0c-3.65,4.36-7.31,8.73-11.14,12.94-8.41-11.49-19.54-23.68-28.65-35.52-10.39-13.51-15.21-21.84-32.85-20.31-15.67,1.36-37-1.64-48.18,10.3-2.81,3-5.51,6.21-8.15,9.5q-1.81,2.25-3.59,4.55c-4.14,5.33-8.21,10.77-12.41,15.86l22.27,1.61,5.78.42,4.37,13.38,3.55-.44,18.26-2.28c7.24,10.46,7.12,10.41,19.89,9.6a24.81,24.81,0,0,0-3.95,9l-18.79,4-1.1-15.44-9.27,4-5,2.15-18,7.81c-.28-2.78,0-20.47-2.09-20.86l0-.34L65.76,251l21.42-37.19c.66-1.14,5.41-7.52,6.56-10.16a1.94,1.94,0,0,0,.24-1,2.43,2.43,0,0,0-2-2.07c-3-.65-8.73,2.61-12.52,2.65l7.41-11.7,3.26-5.14,8.75-13.82-12.73,2.21c7.31-14.17,16.34-28.27,21.48-43.43l9.75,6.41,34.61-44c-17-14.31-31.6-29-50-42a51.81,51.81,0,0,1-5.67-5.17C94.71,45,92.9,43.18,91,41.32,82.52,33,72.24,24.63,66,32.94c-.71-2.4-.11-4.5,1.94-6.84a156.07,156.07,0,0,1,37,15.22c2.81,1.55,5.64,3.19,8.52,4.9l.76.46c13.22,8,28.77,20.13,43.92,23.47C173.94,73.63,189.31,60,204.4,56.33c16-3.87,30.5,4.24,45.68,4.24s29.66-8.1,45.68-4.24C310.84,60,326.2,73.63,342,70.16c15.15-3.34,30.7-15.49,43.91-23.47l.77-.46c2.88-1.72,5.71-3.35,8.52-4.9a156.07,156.07,0,0,1,37-15.22c2.05,2.34,2.65,4.44,1.94,6.84-6.2-8.31-16.48.09-25,8.38-1.9,1.86-3.71,3.71-5.37,5.36a51.76,51.76,0,0,1-5.67,5.17c-18.41,13-33,27.71-50,42l34.61,44,9.75-6.41c5.14,15.15,14.17,29.26,21.48,43.43l-12.73-2.21L409.68,186l3.26,5.14Zm-99.5.37c-.62,4.19-3.25,16.12-6.16,19.21-3.36,3.57-14.63,6.06-19.29,8.13,1.88-2.57,3.84-5.22,5.82-7.88C308.42,219.39,315.52,209.63,321.15,203.67Zm-142.15,0c5.63,6,12.73,15.72,19.62,19.46,2,2.66,3.94,5.31,5.82,7.88-4.66-2.06-15.93-4.56-19.29-8.13C182.25,219.79,179.62,207.86,179,203.67ZM430.18,33.77c-.45,2.54-1,5.06-1.65,7.55q-.69,2.7-1.49,5.36c-8.45,27.94-26.15,53.75-32,82.39l-1-2.55-8.63,5.68c-10.23-13.42-22.5-24.71-32.86-37.87,4.85-4.08,33-31,54.25-47.65,2.48-1.95,4.86-3.75,7.11-5.36C421.83,35.63,428,32.34,430.18,33.77ZM416.8,173.38q-9.17-17.74-18.43-35.44c2.81-2.35,4.43-13.69,5.41-17.39,2.19-8.27,4.14-15.72,7.41-23.82,6.75-16.7,13.41-33.45,20.42-50h56.72Z"/></g></svg>