<svg xmlns="http://www.w3.org/2000/svg" viewBox="0 0 500 500"><defs><style>.cls-1{fill:red;}</style></defs><title>clans-hbs_COLOR</title><g id="Base"><polygon class="cls-1" points="290.79 128.35 314.7 135.93 363.57 50.56 280.59 98.06 290.79 128.35"/><polygon class="cls-1" points="208.39 128.35 217.78 100.47 130.6 50.56 180.25 137.28 208.39 128.35"/><polygon class="cls-1" points="290.79 205.74 285.77 238.99 363.57 283.53 315.15 198.95 290.79 205.74"/><polygon class="cls-1" points="208.39 203.23 180.68 196.05 130.6 283.53 213.32 236.17 208.39 203.23"/><polyline class="cls-1" points="249.59 4.5 283.67 130.75 284.89 134.36 288.52 135.51 419.38 169.08 288.77 198.5 284.09 199.81 283.36 204.62 249.63 495.5 215.82 202.12 215.09 197.21 210.28 195.96 80.62 168.82 210.66 135.51 214.3 134.36 215.51 130.75 249.59 4.5"/></g></svg>