<svg xmlns="http://www.w3.org/2000/svg" viewBox="0 0 500 500"><defs><style>.cls-1{fill:#111;}.cls-2{fill:#151515;}</style></defs><title>clan-smoke-jaguar</title><g id="Icons"><path class="cls-1" d="M352.8,272.17l0,0,0,0Z"/><path d="M291.73,165.5c-5.26,1.43-8,1-9.32.07-.73-.51-.87-.79.16-1,5-.85,10-2.81,13.6-7.67-2.92,1.29-5.16,1-6,.44-.42-.26-.58-.49,0-.82,3.14-1.8,6.08-3.78,9.76-5A1.94,1.94,0,0,1,302,152c2.27,2,3.32,7,3.59,11.37,0,.7.39.77.7.07A14.89,14.89,0,0,0,305,148c-.75-1.12-2.35-1.14-3.84-.76h0c-12.86,3.3-26.19,18-49.58,17.29C260.16,172.77,280.9,175.08,291.73,165.5Z"/><path d="M167.55,179.12h0c-.58,5,.56,10.19,2.95,12.71.38.41,1.59.09,1.89-.48.56-1.08.9-3.93,1.08-5.56.11-1.05.18-1.28-.15-1.79A13.09,13.09,0,0,0,167.55,179.12Z"/><path d="M199,197.75c8.07,2.2,15.95,2.31,23.62-.77,3.66-1.47,4.13-2.88,5.31-6.23,1.06-3,6.41-2.67,9.42-3.71,2.78-1,9.18-3.71,11.21-5.1,1-.7,1-1-.2-1h0c-2.5,0-21.12,1.89-27.16,1.89-9.06,0-19.63,9.63-23.26,13.28C197,197,198,197.49,199,197.75Z"/><path d="M158.49,205.15c.79,2.54,2.43,4.07,3.79,5.88,2.85,3.78,4.11,6.3,8.75,9.58.46.32.86.21,1-.15a70,70,0,0,1,2.31-7.38c1.28-3,3.68-4.37,5.17-7.4.36-.74-.11-1-.51-.86a40.43,40.43,0,0,1-11.5,1.76c-4.43,0-6.14-.46-8.41-2.11-.35-.25-.69.22-.56.66Z"/><path d="M271.91,278.06c-.65-1.07-2.24-2.77-5.57-2.14-5.1,1-8,4-11,7.24-4,4.29-8.22,12.35-8,18.85l.07,2.12,1.82-1.09c1.35-.81,2.7-2.58,4.26-4.63,2.2-2.9,4.95-6.5,7.92-7.39a23.2,23.2,0,0,1,2.59-.55c2.43-.43,5.19-.91,7-3.24C273,284.64,273.42,280.53,271.91,278.06ZM269,285.68c-1.22,1.57-3.28,1.94-5.46,2.32a25.47,25.47,0,0,0-2.87.62c-3.76,1.12-6.77,5.08-9.2,8.27-.48.63-1,1.25-1.4,1.81a30.11,30.11,0,0,1,7-13.83c3.33-3.54,5.65-5.74,9.66-6.49,1.43-.27,2.41.05,3,1C270.73,280.94,270.38,283.95,269,285.68Z"/><path d="M296.57,285.61c-2.66-2.19-8-1.73-11-1.26-4.7.74-15.5,7.93-18.71,14.27L265.64,301l2.6-.6a26.71,26.71,0,0,0,6.1-2.25,15.23,15.23,0,0,1,4.49-1.6,22.31,22.31,0,0,1,11.41,1c3.39,1.29,5.91-1.63,7.58-3.56l.2-.23a4.63,4.63,0,0,0,1.12-3.49A7.08,7.08,0,0,0,296.57,285.61Zm-.45,6.49-.2.23c-1.72,2-3.16,3.48-4.79,2.86a24.8,24.8,0,0,0-12.69-1.12,17.45,17.45,0,0,0-5.18,1.81c-.71.34-1.44.69-2.26,1,4.16-5,11.92-9.62,14.95-10.1,3.31-.52,7.42-.61,9,.72a4.63,4.63,0,0,1,1.66,2.92A2.13,2.13,0,0,1,296.12,292.11Z"/><path d="M317.64,304.09a3.48,3.48,0,0,0-1.43-2.37c-2.6-1.94-5-3.29-8.18-3.55a21.21,21.21,0,0,0-4.07.06,30.63,30.63,0,0,1-3.38.16h-.13c-2.76,0-5.89-.07-8.84,2.41l-1.68,1.41,2.06.73a44.62,44.62,0,0,0,4.57,1.29,32.61,32.61,0,0,1,4.26,1.24,6.69,6.69,0,0,1,3.27,3,9.06,9.06,0,0,0,3,3.12,5.21,5.21,0,0,0,2.62.69,8,8,0,0,0,5.94-3.18C317.16,307.21,317.83,305.52,317.64,304.09Zm-4,3.47c-1.3,1.64-3.63,2.86-5.36,1.87a6.79,6.79,0,0,1-2.15-2.35,9,9,0,0,0-4.44-4,34.57,34.57,0,0,0-4.58-1.34l-1.64-.41a14.17,14.17,0,0,1,4.91-.5h.13a33.57,33.57,0,0,0,3.63-.17,18.93,18.93,0,0,1,3.64-.06c2.61.22,4.57,1.33,6.89,3.07a1,1,0,0,1,.44.69C315.25,305.11,314.72,306.26,313.69,307.56Z"/><path class="cls-2" d="M122.87,232.26a5.39,5.39,0,0,0-3.08-3.78h0c-2.47-1.12-5.22.26-7,1.92-5.11,4.82-6.95,12.47-4.8,20l1.22,4.25,1.19-4.26c1.11-4,2.55-6.43,5-8.51a19.07,19.07,0,0,1,2.4-1.68,15.46,15.46,0,0,0,3.76-3A5.67,5.67,0,0,0,122.87,232.26Zm-3.22,3.31a13.32,13.32,0,0,1-3.2,2.48,21.31,21.31,0,0,0-2.7,1.9,16.25,16.25,0,0,0-4.09,5.29,16.46,16.46,0,0,1,4.87-13,5.47,5.47,0,0,1,3.37-1.63,2.08,2.08,0,0,1,.87.18h0a2.91,2.91,0,0,1,1.67,2A3.2,3.2,0,0,1,119.65,235.58Z"/><path class="cls-2" d="M406.66,372.54c5.06.53,6.14-.09,9.47-2.48,5.17-3.71,7.53-6.64,16.23-16.09,5-5.51,8.72-12,11.84-17.36a11.3,11.3,0,0,0,1.81-7.37c-.22-2.73-3.42-7.41-6-8.68-11-5.39-27-12.88-41.08-19.44s-25.84-12-29.36-14c-6.09-3.41-10.84-5-16.75-14.92-2-3.11-4.33-6.4-6.69-9.7l-3.81-5.36,6.52.8c15,1.82,29.83,3.73,48.42,5.67,3.91.4,6.5-.45,8.4-2.15s3.24-4.49,3.7-8.53c5.87-50.8-3.33-97.77-26-126.52-2.87-3.63-5.15-4.88-7.18-5.08s-4.4.67-7.38,2.82c-14.29,10.28-22.34,16.88-37.7,28.44a13.59,13.59,0,0,0-4.91,6.94l-3.68,10.38-1.9-10.85c-1.91-10.88-6.13-18.07-11.24-21.58s-11.28-3.83-18.74-.11l-2.25,1.12-1.43-2.06a12.36,12.36,0,0,0-5-4.15l-2.21-.93.5-2.34c5.44-25.63,16.14-70.95,25.26-112.26.88-4,.37-4.71-.48-6.82a9.43,9.43,0,0,0-3-3.47,10.39,10.39,0,0,0-4.25-1.91,7.14,7.14,0,0,0-.93-.05,11.11,11.11,0,0,0-5.59,1.67c-21.77,13-47.18,27.92-71.12,42.27-5.21,3.12-7.16,7.37-6.84,11.59,1.72,22.69,3.55,45.35,5.87,67.19l.36,3.4-3.41-.2c-14.54-.84-27.81,8.72-31.06,18.29a11.94,11.94,0,0,1-1.31,3,8.68,8.68,0,0,1-2.6,2.36c-2.21,1.45-5.73,3.08-10.43,5.46a16.73,16.73,0,0,0-7.34,7.32c-3.81,7.8-5.48,16.67-6.22,24l-.21,2-1.93.51c-3.79,1-6.87,4.79-7.2,7.58l-.42,3.53-3.37-1.12c-25.82-8.56-48.78-16-77-23.57-5-1.36-8.42.09-10.61,2.63a10.62,10.62,0,0,0-1.82,10.13c3.05,9.42,7.4,22.6,9.39,31.79a12.84,12.84,0,0,0,1.81,3.95l1.24,1.83-1.44,1.67c-5.25,6.13-6.28,14.84-2.59,22.78l.42.91-.24,1a15,15,0,0,0-.38,6.06c1.16,5.52,2.91,10.25,6.88,13.31s9.23,5.28,15.07,7.13c11.67,3.7,26.47,4.77,36.61,11,8,4.95,15.55,8.44,20.75,14.68,4.73,5.66,8.68,13.12,15.21,20.31a128.18,128.18,0,0,0,33.67,26.55l1.86,1-.4,2.09c-4.31,22.38-8.29,46-12.42,66.37-.84,4.13-.25,7,1.13,9.46a18.46,18.46,0,0,0,6.56,6.31c25.38,15.85,57.92,34.58,86.53,52.62,4.5,2.83,8.6,2.61,11.47.82s4.75-5.26,4-10.37c-5.77-41.26-11.54-82-16-117.61-.76-6.13-1.12-9.54-.34-12.51a7.85,7.85,0,0,1,2.25-3.76,14.65,14.65,0,0,1,3.29-2.1c4.75-2.41,7.24-3.61,10-4.06,4.67-.76,9.63,2,17.13,8.14,18.75,15.38,30.52,34.47,46.37,49.71C373.59,422,395.3,434,432.53,431.67c3.21-.21,4.7-1.73,4.94-3.77a5.09,5.09,0,0,0-3-5.34c-28.18-12.47-53.83-32-64-54.71l-3.2-7.14,7.08,3.34C382.84,368.07,393.38,371.14,406.66,372.54Zm-41.79-78.61a1.88,1.88,0,0,1,1,.31c24.12,12.53,48.93,22.87,70.53,33.48,2.08,1,1.84,3.1.8,4.9-3.07,5.31-6.68,11.42-10.84,16-1.26,1.39-1.75,1.36-3.76.13-11.49-7.05-23.55-15.65-34-22.42a1.12,1.12,0,0,0-1.49.17c-.88,1.18-1.5,1.94-2,2.65-.7.91-1.4.9-2,.26-4.2-4.28-15.93-24.42-18.16-32.95C364.53,295.16,364.21,294,364.87,293.93ZM332,167.71c.83-2.79,1.31-6.92,3.74-8.75,15.34-11.54,23.65-17.86,37.75-28.48a2.34,2.34,0,0,1,1.61-.65c.52.07,1,.47,1.71,1.33C397.13,158,407,202.85,401.36,252c-.44,3.82-.83,3.94-3.32,3.67-23.66-2.56-43.27-5-61.67-7.22-4.77-.58-8.59-5.61-11.5-8.52-1.88-1.88-2.41-3.59-2.21-6.42s-.95-9.16-3.52-14.62c-4.11-8.72-7.92-12.37-11.79-16.29-1.57-1.6-1.35-2.75,0-3.84C317.21,191.14,328.51,179.41,332,167.71ZM224,55.27C247.91,40.93,273.32,26,295.13,13a2.87,2.87,0,0,1,1.65-.52c.52.05.79.44.79,1.07a3.37,3.37,0,0,1-.08.66C288,55.69,277.6,102.14,272.17,127.76c-.37,1.76-1.92,2.2-3.24,2.15-11.73-.44-24.93-1.66-37.43,2.54-2.31.78-3.93.73-4.11-.91-2.6-23.17-4.41-47.63-6.35-72.15C220.89,57.45,222.55,56.16,224,55.27ZM155.36,202.6a2.56,2.56,0,0,1,2.48-1.86c3.74-.1,7.55.21,11.22-.76,5.32-1.4,9.53-5,14-8,4.27-2.81,6.29-3.88,10.13-7.38,2.26-2.06,1-2.19-1.84-1.12-6.85,2.58-17.24,7.76-23.88,11-1.7.83-2.92.14-2.76-1.66.68-7.92,2.47-16,5.61-22.52a8.13,8.13,0,0,1,3.77-3.68c9-4.56,15.12-6.87,17.19-12.93,3.46-10.12,12.77-16.37,24.82-15.36,1.23.11,1.41.89-.12.89-3.14,0-9.06,2.47-10.29,3.92-2.05,2.44.64,6.36,4.57,4.87,24.34-9.23,28.16-10.35,46.05-10.63h1.1c7.39,0,17.58,1.1,21.47,2.15,2.3.62,2,2.59.31,3.63-5.38,3.34-9.87,5.12-15.48,8-1.66.86-.92,2.5,1,2.29,15.06-1.67,22.32-6.14,32-10.13,5.22-2.15,9.35.34,11.53,5.34,1.8,4.11,5.05,9.62,3.63,14.24-1.25,4.05-5.81,5.32-9.15,7.22-4.07,2.31-4.4,7.85-8.25,10.33-4.72,3-10.71,4.44-16,5.61-1.35.3-1.9,1.33,0,1.58,12.53,1.66,25.29-2.53,37-7.95.86-.4,1.3.17.59,1-30.45,35.67-59.8,21.93-60,81.29,0,2.23-2.75,2.74-4.26,3-15.37,3.06-23.16,13-29.94,25.22-.62,1.12-1.48,1.13-2.66,1.2-8.24.44-16.18-1.22-22.95-6.59A26.2,26.2,0,0,1,186.7,267c-.1-.89.27-1.22,1.1-.61,6,4.42,15.46,8.46,21.57,5.54,10.49-5,12.71-10.91,16.81-20.32,3.77-8.65,1.87-12.92-2.62-20.21a2.09,2.09,0,0,1,1.65-3.18c6.81-1.28,11.4.34,16.38,2.35,1.3.53,1.15-.22.58-1.29-3.29-6.26-13.9-10.74-21.68-10.74-9.66,0-17.33,5.95-26.24,7.78-12.42,2.56-14.46-1.44-21.27-1.27-3,.07-4.84,1.86-7.59,1.86-3,0-7.26-3.68-8.5-7.87-1-3.39-.16-7-.69-10C155.8,206.75,154.82,204.77,155.36,202.6ZM241.1,346.15c1.12,1.14,1.72,2.72-.54,1.62-11.12-5.45-23.91-11.63-32.34-19.28-1.29-1.17-1.14-2.69-.76-4.25,1.73-7.06,3.61-15.25,5.38-22.5.35-1.45.85-2.15,2.05-2.24a84.22,84.22,0,0,1,8.94-.37c.8,0,1.29.68,1.6,1.71,2.64,8.74,4.55,11.38,8.78,14.52,1.62,1.2,1.81,2.27,1.48,3.7C233.12,330.31,232.33,337.24,241.1,346.15Zm-1.5-22.76a21.47,21.47,0,0,1,2.22,1.54l.1.08.75.58.14.11c1.51,1.19,3.22,2.49,5.5,2.5h.05c2.87,0,5.36-1.19,7.77-2.34l.94-.44c1.64,1.64,3,3.51,2.28,5.37a7.62,7.62,0,0,1-5.44,5c-4-1.25-8.8-4.4-10.47-6.45l-.13-.16-1-1.2A17,17,0,0,1,239.6,323.39Zm-4.74-20.13c-1.43-3.11-1.75-7.66-1.32-9.06,1.18-3.85,6.32-7.43,9.81-8.69a3.2,3.2,0,0,1,1.72,1.54,8.08,8.08,0,0,1,.27,5.56,7.86,7.86,0,0,1-2.9,1.77,23.41,23.41,0,0,0-2.17,1C237.46,296.9,236,300.18,234.86,303.26ZM177.08,243.1c-4.12-1.26-8.68-7.48-8.44-11a1.49,1.49,0,0,1,1-1.27,36.27,36.27,0,0,1,3.82-1.44,5.44,5.44,0,0,1,3.92.33c3.18,1.23,7.93,1.14,11.52,1.83a6.18,6.18,0,0,0,4.3-.24c.74-.25,2.14-.56,3.24-.89s1.47,0,1.25.54a15,15,0,0,0-1.14,5.11c-.07,3.16,2.09,5.39,3.95,9-3.35-.46-7.26-4.72-9.21-6.72-1.5-1.52-2.65-3.2-5-3.33-2.78-.15-8-1.4-10.29-1.7-.76-.1-1.16-.07-1.39.58C173.49,237.33,176.5,239.83,177.08,243.1Zm19.67,19.53c3.81,0,8.54.29,12.22-.83.83-.25,2.22-1.19,1.74-2.68a23.55,23.55,0,0,0-3.79-6.57,10.28,10.28,0,0,1,5.69,3.07,12.63,12.63,0,0,1,2.63,4.72c.85,2.57-2.46,4.33-4.65,4.78-3.48.72-6.64.54-10.19.5-3,0-7.58-.23-9.1-1.32-4.24-3.08-7.75-4.86-8.79-10.26C186.21,256.68,191.85,262.63,196.75,262.63ZM61.94,189.91c-.63-1.87-.06-2.9,1.16-2.88a2.87,2.87,0,0,1,.94.18c29.87,10.32,54.61,15.81,81.52,25,1.67.57,2.76,1.48,2.77,3,0,5.52,2.69,11.34,6.25,14.27a81,81,0,0,1,7.81,6.78c7.67,8.12,15.3,21.12,16.47,30.94a37.21,37.21,0,0,0,3.22,11c.87,1.7.6,2.23-.45,3.48-1.6,1.9-4.24,5.73-6.14,7.34-1.28,1.09-2.5-.63-3.12-1.6C158,264.87,153.2,237.2,141.25,226.53c-7.76-6.94-13.49-9.92-25.66-9.92-4.12,0-4.48-.73-7.14-1.52-8.21-2.43-20,1.92-24.49,6.82-1.78,2-3.83,1.57-5.85,1.47-1.34-.07-2.39.87-3.25,1.12-1.44.42-2.78.4-3.27-1.9C69.46,212.75,65.17,199.44,61.94,189.91Zm27.12,41.45c1.1-1.18,3.21-1.32,5.8-.38a2.71,2.71,0,0,1,1.64,2.39,4.14,4.14,0,0,1-1.34,3.68c-4,2.49-7.42,7.94-9,13.83-1.12-4.16-1.85-8.66-.82-12.79a27.69,27.69,0,0,1,3-5.92C88.61,231.86,88.83,231.6,89.06,231.36Zm-18.14,6.19a.28.28,0,0,0,0,.09,1.34,1.34,0,0,1,.11-.24,2.61,2.61,0,0,1,.28-.45,3.68,3.68,0,0,1,.39-.4l0,0a3.24,3.24,0,0,1,.8-.47,1.18,1.18,0,0,1,1.42.26,1.49,1.49,0,0,1,.34.2c1.07.82,1.86,3,1.44,4a24.6,24.6,0,0,0-2,6.57,1.57,1.57,0,0,1-.1.55s0,0,0,0c0,.45-.06.89-.07,1.33a.28.28,0,0,0,0,.09,16.61,16.61,0,0,0,.36,4.31h0a19.84,19.84,0,0,0,.48,1.95,1.13,1.13,0,0,0-.11-.11.45.45,0,0,1,0,.16.47.47,0,0,1-.7.38,6.64,6.64,0,0,1-1.39-1,5.91,5.91,0,0,1-.62-.72l-.09-.13-.15-.24-.1-.17-.17-.33A14.43,14.43,0,0,1,70.92,237.55Zm.05,26.5a1.58,1.58,0,0,1-.2-.68,1.62,1.62,0,0,1,.43-1.21,1.48,1.48,0,0,1,1.29-.41.73.73,0,0,0-.09-.08A13.14,13.14,0,0,1,76,262.82c1.29.64,1.7,1.16,1.74,1.29l.12.54-.08,0a2.1,2.1,0,0,1,.19.4l0,.07s.09.12.09.15l.18.21c.18.19.36.38.53.58a14.76,14.76,0,0,0,1,1.35,1.92,1.92,0,0,1,.19.23h0a1.14,1.14,0,0,1,.17.3s0,0,0,0a1.77,1.77,0,0,1,.08.31c1.32,3.13,3.4,5.08,8.08,8.46A18.15,18.15,0,0,1,71,264.05Zm53.33,16.32a20.61,20.61,0,0,1-2.68,1.65,18.62,18.62,0,0,1-10.52,2.35c2.33-2.07,4.59-3,6-4.82h.06a1.47,1.47,0,0,1,.56-.6c.14-.07.26-.15.39-.23l.05,0s0,0,0,0l.46-.43.86-.83a13.69,13.69,0,0,0,.41-4.85,6.9,6.9,0,0,1,.31-3.14c.27-.69,1.68-.44,2-.39,2.35.48,4.93,2.56,4.88,4.79a6,6,0,0,1-1.78,4,1.3,1.3,0,0,1-.13.3.42.42,0,0,0,0,.07c0,.1-.07.21-.11.31s-.08.2-.13.3a7.13,7.13,0,0,1-.32.88,2.08,2.08,0,0,1-.48.65ZM163,323.58c-5.61-6.18-9.63-13.64-15-20.06-6.54-7.84-15.37-11.87-22.7-16.37-1.2-.73-.84-1.41,0-1.83,4.24-2.2,14.38-3.58,17.39-4.5,1.17-.35.84-.87-1.05-1.05-5.17-.51-9.78-.42-14.26-.53a8.42,8.42,0,0,0,2.17-5.37v-.13c0-3.56-3.55-6.48-6.89-7.16-2.29-.46-4.12.27-4.77,1.91a9,9,0,0,0-.48,4.2,11.22,11.22,0,0,1-.47,4.53,5.21,5.21,0,0,1-.27.64l-.14.3a44.62,44.62,0,0,1-16.67-7.52c-2.73-1.9.21-5.44,1.79-7.48,1.14-1.48,4.63-5.1,6.09-6.87s.5-1.61-.51-1.31c-3.22,1-4.85,2.66-7.52,4.82s-3.85,5.48-6.74,7a14.47,14.47,0,0,1-11.83.4l-.3-.92c-.24-.77-.47-1.66-.71-2.74-.61-2.73-6.89-4.8-9.27-4.41a2.58,2.58,0,0,0-.95.36,3.46,3.46,0,0,1,.85-1.95,5.89,5.89,0,0,0,.89-1.47,20.83,20.83,0,0,0,5,4.15l3.81,2.3-2.06-4c-3-5.74-3.13-11-.43-17.1,1-2.2-.37-5.55-2.19-6.95a3.23,3.23,0,0,0-2.08-.73c1.83-1.74,5.1-2.22,5.75-.81,1.19,2.58-.06,5.17,2.39,7.25a1.27,1.27,0,0,0,.57.28c-.48,5.67,1.37,11.45,2.91,16.25l2.44-.32c.41-7.68,4.75-14.83,8.7-17.29a6.47,6.47,0,0,0,2.5-6.06,5.06,5.06,0,0,0-3.27-4.48,9.74,9.74,0,0,0-5.6-.6c3.43-3.54,7.76-5.81,12.53-5.82a16.18,16.18,0,0,1,2.82.26c1.07.2,1.15,1.28.81,2.24-1.23,3.45-5.1,7-4.24,11.23.18.91.87,1.7,1.83.71,2.38-2.43,6.45-10.76,10.78-11.57,12.18-2.25,22,5.23,26,13,8,15.59,14.45,32.33,21.77,46.94,20.67,41.22,60.45,66.55,90.18,73.54,5.12,1.21,4.28,1.75-1.06,2.33C223.37,364,188.34,351.45,163,323.58ZM281.67,484.89c.41,2.93-.57,3.43-3.41,1.67-28.72-17.84-61.54-37.77-87-53.54-2.1-1.3-4.44-2.57-3.64-6.45,3.83-18.59,7.1-40,11.91-64.92a1.65,1.65,0,0,1,1.59-1.55,2.84,2.84,0,0,1,1.42.37c19.84,10.66,52.71,8.64,60.39,5.54,1.55-.62,2.53-.26,2.71,1.19C270.52,405.47,276.64,448.79,281.67,484.89ZM423.7,423c12.2,4.29,5.88,4.39-1.31,3.68-67.07-6.62-71.93-48.51-111.44-80.9-8.12-6.66-15.27-10.47-22.48-10-4.25.3-8.65,2.69-13.1,4.84-11.27,5.43-31.21,3.81-32.64-5.31-.13-.81-.33-2.08-.42-3.53a30.22,30.22,0,0,0,11.2,6.5l.28.08.29,0a10,10,0,0,0,7.61-6.61c1.53-3.93-2-7.26-3.5-8.68l-.6-.57-.76.34c-.59.26-1.18.54-1.77.82-2.27,1.08-4.41,2.12-6.73,2.1-1.49,0-2.76-1-4.1-2.08l-.34-.26c0-.06.07-.12.11-.17,2.58-3.66,5-5.95,9.54-7,6.62-1.57,13.44,0,20.14,0,1.24,0,.95-.87-.14-1.44-8.8-4.57-17.55-3.47-26.91-3.1-3.86.15-7.68-1.92-10.39-5l.07-.18.58-1.52c1.09-2.89,2.33-6.17,4.56-7.36.71-.38,1.36-.66,2-.93a9.81,9.81,0,0,0,4-2.6l.16-.19.08-.24a10.65,10.65,0,0,0-.37-7.77,5.73,5.73,0,0,0-3.59-2.88l-.37-.1L243,283a23,23,0,0,0-7.87,4.72c1.65-3.69,4.11-7.19,8.06-8a10.66,10.66,0,0,1,7.79,1.42,4.56,4.56,0,0,0,6-1.58c2-3,7.42-4.37,12.53-4.37a26.52,26.52,0,0,1,4.85.43c3.77.72,5.48,4.86,8.67,6.57,2,1.09,4.48-.75,6.75-1,5.41-.58,10.26,2.71,13.39,6.79,2.12,2.76,1.59,3,1.12,7.95-.08.94.36,1.83,1.29,1.78,7.23-.33,14.93,5.12,19.71,12.22C354.72,353.8,372.08,404.8,423.7,423ZM336.2,305c-15.52-23.21-40.83-41.49-64.6-41.42-3.61,0-4.85-2.1-4.84-4.79.08-28.52,12-36.07,33.06-48.4a4.91,4.91,0,0,1,2.78-.79,3.55,3.55,0,0,1,2.46,1.29c4.63,5.22,9.69,13.85,10,20.63.05.93-.1,2-2,2-4.36,0-3.25-1.66-9.16-1-2.48.28-2.87,1.73-.91,2.51,18.59,7.35,32.44,25.22,43,41.59,8.67,13.4,12.66,25.94,18.21,36.83,9.77,19.17,24.08,36.74,44.32,49.88,2.24,1.45,1.45,1.61-1.1,1.32C356,358.73,355.75,334.19,336.2,305Z"/></g></svg>