<svg xmlns="http://www.w3.org/2000/svg" viewBox="0 0 500 500"><defs><style>.cls-1{fill:#ff8801;}.cls-2{fill:#fff;}.cls-3{fill:#acacaa;}</style></defs><title>clan-wolverine_COLOR</title><g id="n3"><path class="cls-1" d="M251.22,91.56c-85.91,0-155.8,69.89-155.8,155.8s69.89,155.8,155.8,155.8S407,333.27,407,247.37,337.13,91.56,251.22,91.56Z"/></g><g id="n2"><path class="cls-2" d="M204.83,219.25c-6.29,4-14.88-1.52-21.24-3.87,10.65-6.69,23.84-5.32,35.52-8.77C215.72,212.13,210.18,215.86,204.83,219.25Z"/><path class="cls-2" d="M162.7,83.77c-2.9-2-6.81-3-9.33-5.53-.35-.35-5-6.16-3.32-5.43,16.75,7.5,30.8,25.62,44.09,36.27,2.32,1.86,1.85.19,4.36,3.42,3.48,4.47,4.92,7.62,9.47,11.44,2.59,2.17,5.18,4.56,7.83,6.61.18.14,2.14,1.39,3.9,2.32q-3.15,1.52-6.26,3.12c-.26-6.2-10-11.15-13.75-14.58-6.5-5.94-12.1-12.78-18.52-18.85S170,88.88,162.7,83.77Z"/><path class="cls-2" d="M150.2,107.69C137.7,97.52,124,87.37,113.12,75.46c-8.52-9.33-17.84-19.58-28.6-29.15,11.22,4.86,20.28,17.75,29.54,25.6,10.5,8.91,20,17.66,31.43,25.62,12.14,8.48,18.71,20.71,29.19,30.71,4.64,4.43,10.64,7.32,15.2,11.74.16.16,4,4.64,6,5.83q-2.56,1.57-5.09,3.18c1-5.83-14.13-10.69-17.8-13C162.5,129.17,160.56,116.13,150.2,107.69Z"/><path class="cls-2" d="M98.35,109.77C82.5,92.84,66.35,76.53,51,58.89c3.6,3.18,9.15,5,12.38,8.49,1.09,1.18,1.71,3.92,3.05,5.33,3.45,3.61,7.06,7.71,11.3,11.89,11.06,10.89,22.26,21.05,32.54,31.92,10.06,10.63,21.27,19.83,31,30.85,4.76,5.37,10.65,8.89,15.43,14.4.47.54,4.07,6.26,6.51,7.3q-2.61,2.12-5.17,4.3a16.56,16.56,0,0,0-1.75-4.08,62,62,0,0,0-16.57-19.64C124.54,138.23,111.5,123.82,98.35,109.77Z"/><path class="cls-2" d="M98.84,154.85c-3.06-4.32-8.07-7.63-12.27-10.7-9-6.61-18.72-12.18-26.78-20.07-9.71-9.5-21.4-22.16-30.35-31-4.31-4.27-15.08-8.73-18.24-17.69,4.91,1.07,12.77,8.55,16.15,12a193.78,193.78,0,0,0,17.15,15.14,94.61,94.61,0,0,1,16.23,16.24c6.53,8.47,10.36,10.38,18.84,16.26,12,8.28,24.2,19.69,34.15,30.7,6.46,7.14,12.4,11.33,20,17a59.2,59.2,0,0,0,8.23,5.14q-2.59,2.43-5.17,4.9a46.53,46.53,0,0,0-3.62-4c-7.71-7.89-18.32-12-25.9-19.66C103.1,164.86,102.09,159.44,98.84,154.85Z"/><path class="cls-2" d="M121.86,372.77c-2.08,2.14-5.47,3.06-7.75,5.31-3.46,3.41-6.72,10.07-9.85,14.41-3.66,5.08-7.9,8.22-12.21,12.65-2.47,2.54-4.77,7.62-7.79,9.32,2-8.12,9.13-12.76,13.91-19,4.28-5.62,9-11.21,12.88-17.15,4.07-6.24,7.79-12.08,12.64-17.8.77-.9,7-7.16,8.75-10.75a89.92,89.92,0,0,1,9.79.7c-3.69,3.09-8.24,8.94-8.54,9.27C129.7,364.08,125.64,368.88,121.86,372.77Z"/><path class="cls-2" d="M131.2,397.8c-9.64,14.79-22.94,34.78-37.32,45.26,3.05-15.83,23.74-26.51,31.2-40.7,3.87-7.36,5.16-13.51,11-19.67,4.13-4.36,9-8.48,13.33-12.81,1.11-1.1,10.15-10.44,12.11-15.6q2.92.76,5.84,1.57c-4.36,2.69-13.89,13.86-15.47,15.62A213.12,213.12,0,0,0,131.2,397.8Z"/><path class="cls-2" d="M144.36,425.2c-4.89,6.56-8.95,15.46-15,20.73,6.24-16.27,19.6-30.47,29.5-44.81,2.12-3.07,28.62-34,30.83-39.36q3.07.67,6.15,1.25c-4.23,8.4-13.15,13.24-19.21,20.17-6.61,7.56-11.17,16.73-17.37,24.62C154.41,414,149,419,144.36,425.2Z"/><path class="cls-2" d="M161.78,446.21c4.15-8.72,11-15.58,16.7-22.93,5-6.43,9.06-12.85,14.88-18.77,6.68-6.81,10-15.37,16.23-22.4,3.72-4.21,10.1-7.7,12.83-12.83a16.73,16.73,0,0,0,1.19-2.71l3.41.22C217.4,376.08,168.68,438.4,161.78,446.21Z"/><path class="cls-2" d="M407.86,426.12l-41.35-29.54c-8.45-6-14.69-13.53-22.43-19.55-3.84-3-8.76-5.24-13.39-8.44-2.86-2-8.11-4.84-10.13-7.3-1.69-2.06-1.11-4.36-1.92-5.32a43.25,43.25,0,0,0-6.71-6.53,5.11,5.11,0,0,0-3.44-3.79q-1.31-1-2.15.8s-2-2-4.09-3.68q3.72-.92,7.36-2C314.51,357.34,398.39,414.56,407.86,426.12Z"/><path class="cls-2" d="M399.89,379.47c10.71,10,24.43,17,36.23,25.78-23-8-41.76-29-60.43-39.15-11.66-6.34-17.82-17.3-28-24.53-2.63-1.86-11.13-9.12-14.8-10.2,1.89-1.25,2.68-2.67-.18-4.17a5.25,5.25,0,0,0-2.38.21,5,5,0,0,0-.66-1.06c3.47-.74,6.92-1.57,10.34-2.53l.39-.11c1.34,2.66,5.83,5.85,7,7.25,4.29,5.1,8.34,7.71,13.64,12.16,4.71,4,7,9.47,10.92,14,4.28,5,8.36,5.27,13.79,8.48C391.36,369,395.2,375.07,399.89,379.47Z"/><path class="cls-2" d="M402.58,340c3.83,2.65,9.06,4.69,11.34,6.82,5.28,5,8.41,13.14,14.62,18.37,7.06,5.94,14.16,11.09,21,17.49-11.07-6.44-19.36-14.06-29.29-20.88-3.93-2.7-8-8.48-12.81-12.11-5.51-4.12-8.79-5.32-12.71-10.76-1.07-1.49-23-21.76-30.46-24.88.07-.08.16-.16.23-.24,6.7-8.15-.61-4.88-6.22-3.91-.19,0-1.51.08-3.44.1.64-1,.85-2.1-1.13-2.1.63,0-2.68-3.52-5.53-4.8,3.87-.94,7.72-1.87,10.42-3.49.48-.29.94-.6,1.41-.9,1.11,3,6.5,7.81,7.27,8.58,5,5.06,10.67,9.79,16.06,14.5C389.94,327.59,395.4,335.06,402.58,340Z"/><path class="cls-2" d="M413,310.56a163.74,163.74,0,0,1,14.81,16.74c-3.49.87-11.31-10.54-14.28-12.91-6.39-5.1-11.7-10.65-17.91-15.77-1-.79-14.05-11.84-18.21-15.17l1.41-1.55c.43-.48,1.5-1.58,2.79-3,1.6,3.69,9.28,12.39,11.42,14.69C398.83,299.88,407,304.44,413,310.56Z"/><path class="cls-2" d="M375,272.61c-.45-.17.34.47,1.47,1.22-5.84,3.53-11.87,7.44-13.07,7.93A81.61,81.61,0,0,0,374.89,271,11.12,11.12,0,0,0,375,272.61Z"/><path class="cls-2" d="M398.32,110.08c16.13-15.66,34.46-29.69,51.27-44.78-8.27,16.56-23.82,24.32-35.73,37.76-1.39,1.56-8.48,9.64-10.19,14-3.2-.11-6.42-.09-9.52-.21l-1.67,0A75.75,75.75,0,0,0,398.32,110.08Z"/><path class="cls-2" d="M393.68,129.14a7.22,7.22,0,0,0-2,2.93,1.44,1.44,0,0,0,.32,1.26c-6.13.73-12.19,1.27-17.73.34C379.81,131.11,386.9,129.88,393.68,129.14Z"/><path class="cls-2" d="M363.19,92.4c14-10.69,26.13-23.58,40-34.61-5.81,8.12-12.71,14.57-19.82,21.48-3.28,3.18-7.38,9.39-11.76,13-3.31,2.72-6.7,3.73-9.69,7.21.59-.69-1.85,3.38-3.6,5.81-2.87.36-5.91.82-9,1.35C354.79,101.75,361.11,94,363.19,92.4Z"/><path class="cls-2" d="M329.44,87c3.93-4.28,6.13-7.89,10.48-10.93,6.42-4.48,10-8.23,15.06-14.22C351.64,73,335.57,87.55,327,96.41c-1.26,1.3-7.19,5.46-7.45,8l-.09,0c-3.49.65-7,1.09-10.55,1.52C315.67,101,326.48,90.25,329.44,87Z"/><path class="cls-2" d="M310.26,115.21c-7.07,1.82-12.42,3.32-14.43,3.95,4.13-3.78,9.68-8.67,15.12-10.52a21.16,21.16,0,0,1,4.2-.61C312,110.14,307.45,113.6,310.26,115.21Z"/><path class="cls-2" d="M409.25,149.83l-8.36.36a30.46,30.46,0,0,0,3.78-6.79,88.83,88.83,0,0,1,11.25-1.88A76.3,76.3,0,0,0,409.25,149.83Z"/><path class="cls-2" d="M442.9,116.35c-4.61,4.33-16.56,9.85-18,16.88,0,.07,0,.12,0,.19q-3.4-.54-6.82-.92a62.63,62.63,0,0,0,5.45-4c3.88-.39,6.55-1.4,5.85-3.7-.1-.34-.56-.74-1.24-1.17a48.72,48.72,0,0,1,8.55-8.34c15.6-11.25,28.43-25.73,44.23-36.91C470.33,92.14,455.08,104.9,442.9,116.35Z"/></g><g id="n1"><path class="cls-3" d="M97.11,227.4c-7.36-1.36-18.75,2.66-25.81,4.44-9,2.28-10.68,3-2.47,9.28,5,3.84,16.15,10.2,3.63,7.82-1.82-.35-4.72-3.51-6.61-2.66s.49,3.26-.07,3.82c-5.64,5.65-3.23,5.53-7.78-5.69q-2.69-6.65-5.38-13.3c19.79-5.79,39.19-7.45,59.21-11.86,6.56-1.44,17.68-2,23.69-5.15,8.58-4.54,1.53-3.73,2-11.13.72-11.69,25.84-25.43,34.4-31.51C185.28,162,195.6,155.1,211.54,150a220.18,220.18,0,0,1,50.65-9.9c24.1-1.81,69.62.37,83.86,24.9-5.21,1.65-10.57,4-15.93,5-8.48,1.64-11.63-3.74-18.53-8.21-21.8-14.13-47.38-8.85-71.46-6.74-24.44,2.14-46,12.43-66.82,25.35-7.81,4.85-19.93,10-25.36,17.83-6.35,9.17,4.07,11,7.56,19.64a161.35,161.35,0,0,1-18.77,6.26c-5.62,1.48-12.66,4.57-19.24,6.8C107.44,234.36,105.91,229,97.11,227.4Z"/><path class="cls-3" d="M232.87,225.6c-11.48,4.59-25.28,11.42-37.24,9.08-5.3-1-7.09-2.12-13-.77-3.27.76-10.84,4.83-14.27,3.19,2.45-6.14,6.78-12.43,6.66-19.23,7.26,2.58,17.65,6.66,25.51,6.66,6.43,0,10.93-5.3,17.59-3.89C220.1,223.22,229.77,224.62,232.87,225.6Z"/><path class="cls-3" d="M197.26,207.22l1.55-2c10.53,1.58,6.64-13.67,16.7-1C209.5,205.67,203.33,206.14,197.26,207.22Z"/><path class="cls-3" d="M107.79,327.36c17.53-5,35-8.53,52.74-12.65,5.76-1.34,6.86-1.65,11.64-7.45,4-4.91,8.32-13.54,15-14.64,5.94-1,15.55,1.55,22.05,1.34,8.46-.26,17.58.23,25.58-2.38,3.2-1,25.42-9.6,26.26-12,2.41-6.9-7-.06-7.07-1.92-.22-5.39,13.85-6.21,15.83-10,3.35-6.53-5-3.56-3.45-8.29s17.93-9.25,17.5-14.65-6.49.27-7.14-3c-.3-1.51,10.83-7.22,11.17-8.35,1.79-6-5.5,0-8.13.17,1.76-2.6,12.79-10.59,12.36-13.56-.78-5.33-7.79,1-10.78,2,.86-4.41,8.68-9,3.59-11.22-4.56-2-14.64,9.94-19.38,8.29s10.5-20.54,7.84-27c-2.27-5.56-5.85-2.1-12.49-.12-8.26,2.47-16.49,5.25-25,6.82-2.91.54-8.76,2.12-11.73,2-4.64-.12-1.59,1-5.74-1.87-7.64-5.19-5.25-11-14.95-2.86,3.64-21.64,18.88-29.25,39-32,21.32-2.91,38.84,1.84,57.35,12.25,9.9,5.57,11.77,6.84,23.65,4.7,10.48-1.88,20.89-4.2,31.35-6.23,8.29-1.6,16.61-3.17,24.9-4.66,2.29-.41,4.31-.93,6-1.15q3,5.14,5.62,10.53c-.76,13.31-6.3,25.89-14.4,36.38-2.68,3.47-24.72,29-28.86,28.34-9.36-1.45,12.82-23,15.41-26.74,4.59-6.64,18.28-27.19,14.22-36.39-3.61-8.17-26.12,5.5-32.68,7.56-4.24,1.32-22.88,3.5-25,7.78-1.7,3.44,4.3,12.56,5.57,16.53,4.32,13.53,7.6,29.39,1.08,42.93-1.64,3.41-9,6.92-9.81,9.42-1.86,5.68,7.71,2.83,13.28,2-2.64,2.11-20.26,10.91-20.36,12.91-.25,5.15,11.36.44,15,1.73-4.05-1.29-17.36,8.12-22,9.17-2.73.63-12.3-.16-13.7,1.34-3.59,3.82,10.86,4.14,14.17,4.32-7.66,5.12-16.59,4-23.94,7.72-9.27,4.71,9,3.84,13.66,4.94-6.55,8.59-24.23,4.59-33,7.48-2.4.79-8.57-1.11-4.78,3.25,1,1.15,11,1.77,13.33,2.91a187.39,187.39,0,0,1-45.46,6.62c-6.34.13-15.69-2.29-21.66-.79-8.25,2.08-.12,2.95,3.87,6.68-18.92-1.89-38-4.11-57-4.67C135.42,330.47,118.71,339,107.79,327.36Z"/></g><g id="Base"><path d="M494.6,67.84l-.07.09C494.35,68.17,494.34,68.18,494.6,67.84Z"/><path d="M475.79,45.22s.12-.14.34-.44Z"/><path d="M496.36,62.5c-15.38,10.69-31,22.64-44.82,35.67-7.19,6.79-15.62,12.09-22.79,18.7a15.28,15.28,0,0,0-3.25,5.37,86.71,86.71,0,0,0-11.43-4,44.35,44.35,0,0,0-6.19-.91c5.3-5.28,15.07-17,17.29-19.06A228.2,228.2,0,0,0,445.41,77.8c2.74-3.21,4.74-6.91,7.59-9.79,2.59-2.62,4.28-3.31,7.72-5.84,4.22-3.1,5.82-6.49,9.41-10.55,1.57-1.78,4-4.27,5.66-6.4-.16.1,7.79-11.16,2-6.61-8.91,6.95-18,13.72-26.78,20.8-6.86,5.5-12,13.29-19.51,17.9-10.28,6.32-21.49,18.18-31.87,27-2.18,1.86-13.14,8.77-13,12.43,0,.07,0,.13,0,.19-9.94.54-19.69,2.44-29.52,2.19,2.62-2.14,23-10.4,22.79-11.42-.6-3.06-6.7-3.74-15.39-3.07,3.16-3.05,6.28-6.77,7.26-7.82C383.53,84.22,395.35,70,408.28,59.1c7.73-6.5,16.35-12.43,23.19-19.91,2.86-3.12,7.47-8.12,9.19-11.46-.67,1.3,6-7.43.63-4.16-13.7,8.34-25.38,19.89-37.83,29.93-8,6.47-16.8,9-23.65,16.81-6.18,7-13.31,14.17-19.77,20.29-2.24,2.12-17.26,12.59-19.6,17.08Q336.3,105,332,102.63a1.72,1.72,0,0,0-1.37-.78,89.62,89.62,0,0,0,12.54-15.6c4-6.93,9.59-14.28,16.17-22.37,6.23-7.67,16.77-13.71,24.5-19.92,3.09-2.48,7.15-4.15,8.59-8.07-.39,1,4.37-8.14-.32-4-8.21,7.31-12.36,9-22.77,13.58-12.39,5.4-17.1,19.06-28.37,25.56-1.36-7.25-10.06,8.16-11.78,10-5,5.21-11,8.08-16.28,12.45a165.52,165.52,0,0,0-127.85,1.9c-6.74-5.16-14.39-11.94-21.72-17.53-9.59-7.31-21.93-11.61-30.65-19-3.94-3.36-11.6-12.32-5.89-1.52,3.38,6.39,14.3,15.28,19.7,19.88s10.14,7.7,14.81,12.72c3.57,3.84,6.85,8.11,10.38,12.06q-5,2.75-9.79,5.84C151.28,95,140.75,84.42,126.38,76.24c-6.11-3.48-53.22-49.22-58.07-42-2,3,27.75,27.81,30.19,30.57,11.17,12.63,22.39,24.77,35,36,5.56,5,13.09,8.43,18,14.14a167.31,167.31,0,0,0-17.8,15.54c-9.77-10.46-21.46-21.14-32.75-31C86.87,87.26,76.78,75.13,62.77,62.87c-6.21-5.43-11.63-12-18.46-17.39-2.74-2.17-18-15-16.58-7.47C28.47,41.85,42,54.64,45,58.08,51.15,65.21,58,72.32,63.84,79.75c7.56,9.7,15.54,19.1,23.27,28.66,6.51,8.05,12.73,19.37,22.37,23.91,4.4,2.07,7.86,1.33,11.25,4.58a15.73,15.73,0,0,1,3,4.63,167.06,167.06,0,0,0-10.2,13.59,69,69,0,0,0-10.52-11.34c-6.61-5.31-13.1-4.56-19.65-10.31-6-5.28-12.48-11.7-18.41-17.62C50.49,101.38,33.65,87.38,17.75,73.62,15.51,71.68,5.28,64.3,2.16,65.83c-4.17,2,6.08,11.75,7.73,13.75A265.11,265.11,0,0,0,32.25,103.1c4.32,4.11,9.16,7.93,13.26,12.26,1.86,2,1.77,3.52,3.53,5.12,1.21,1.1,2.91.27,3.81,1.6,1,1.53,2.59,4.77,3.22,5.55.11.13-.54,3.4.26,4,1.82,1.27,5.21,0,7.3.85,7.51,3.18,16.89,13,22.11,19.39,6.23,7.67,9.71,13.47,17.78,18.92l.53.35a164.56,164.56,0,0,0-16.2,48c-3.87,1.32-12.08.79-15.41,1.56-4.94,1.15-15.79,3.12-19.64,7-7.16,7.2,3.35,15.56,5.06,24.66,2.44,13-10.53,23.27-1.14,35.88,6.19,8.32,25.47,14.33,24,26.14-.74,6-3.88,4.68-5.4,10.77-3.3,13.26-.29,26.72,11.12,34.24,2.84,1.87,16.8,12.26,19,11.37,4.42-1.77.06-5.6-.17-9.81,10.57.18,7.29-1.2,5.43-8.27a69.08,69.08,0,0,1,10.71-2.31q1.1,1.39,2.23,2.75a134.3,134.3,0,0,0-10.62,14.69c-6.4,10-12.51,20.63-20.62,29.65-5.16,5.74-8.3,9.08-11.36,16.31-3.24,7.66-10.82,14.58-13.47,21.84-3.36,9.2,4.3.48,7.42-2.9A179.86,179.86,0,0,0,90,413.84c7.43-10.55,17.89-21.62,27-30.59,5.68-5.57,10.53-12.12,16.25-17.57.33-.32.7-.63,1.08-.94q3.38,3.36,6.95,6.52c-8.16,9.09-16.28,18.54-21.74,29.26S108.91,418.07,100,427c-8,8.1-11.34,19.46-17.51,29.24-2.72,4.3-13.27,18.11-2.46,10.47,5.66-4,13.11-13.62,17.49-19.07-.27.34,6.42-7.65,1.25-4.42,14.47-12.88,24.08-28.19,37.12-42.28,5.54-6,11.13-12.26,15.65-19.2l.88-1.37q5.74,4.28,11.85,8.06c-2.64,3.3-4.67,5.92-5.5,7.05-5.7,7.76-10.06,16.4-16,24-4.82,6.18-10.19,11.36-13.67,18.48a95.59,95.59,0,0,1-12.07,19.59c-7.09,9-5.3,14.33,2.79,5.06,9.91-11.37,18.18-23.69,27.41-35.78,8.43-11,17.5-21.77,25.73-33.38A165.06,165.06,0,0,0,191.56,402c-5.81,6.6-11.28,12.36-16.47,19.81-10,14.33-23.6,27.63-29.64,44.48-4.12,11.49,1.66,4.57,6.85-1.25q11.07-12.39,21.61-25.24c9-11,16.31-22.05,26.26-31.83.74-.72,1.44-1.46,2.13-2.2a165.49,165.49,0,0,0,141.89-21.2Q361.61,397,379,409.44c5,3.54,35.54,29.46,39.26,27a1.75,1.75,0,0,0,.08-2.87c-4.78-3.41-7.26-8.91-11.35-13.29a151.84,151.84,0,0,0-15.81-14c-8.89-7.18-18-15-25.81-22.31-3-2.84-6.21-5.54-9.45-8.18q5.37-4.39,10.36-9.2l.17.13a353.25,353.25,0,0,0,39.05,25c5.64,3.14,10.77,9.06,16.45,13.3,6.23,4.66,12.58,5.47,19,8.71s12.92,9.18,19,13.31c3.14,2.15,7.47,7.61,11.4,8-.45,0,8.53,1,3.64-1.62-13.39-7.24-23.06-20.72-35.81-30.15,5,.06-9.64-9-10.37-9.58-8.9-6.62-17.19-15.2-25.76-22.14-7.37-6-15.86-13-23.62-19.34,2.94-3.58,5.75-7.26,8.4-11.08,1.24,2.31,2.53,5.13,3.81,6.19,4.9,4.08,10.83,3.92,15.56,9,5.9,6.32,8.59,10.13,16.36,14.9,6.1,3.74,8.55,9.56,13.77,13.38,2.7,2,5.78,1,8.73,2.58,3.66,2,4.64,4.88,8.09,7.47,4.92,3.7,8.81,6,13.67,10.39,1.33,1.2,5.58,7.66,8.36,6.51,1-.41,3.83-2.62.86-3.11-4.91-.82-2.81-2.92-4.14-4.7-3.26-4.36-3.59-4.53-7.56-8.28-4.71-4.45-7.68-9.72-12.47-14.23-5-4.74-9.53-11.48-13.32-15.29-1-1-1.87,1.61-2.8.77-1.65-1.48-4.48-3.88-5.7-5.63-4.8-6.9-8.23-14.17-14.77-20.13-4.27-3.89-10.2-5-14.37-8.82-3.2-2.95-3.24-3.25-5.25-5.32q3.87-7,7.07-14.49c7.91,6.47,15.86,12.9,23.27,19.89,6,5.68,12.06,11.31,17.62,17.48,1.87,2.08,4.73,7.22,7.51,7.79-.05,0,5.52,2.76,3.19-1a222.76,222.76,0,0,0-30.5-38,120.48,120.48,0,0,1-11.34-13,19.75,19.75,0,0,0-5.25-4.84,165.63,165.63,0,0,0-8-126.18c.52-5.71-.51-6.2,6.67-8.91,7.8-2.94,18-8.22,25.73-9.76,2.48-.49,17,1.37,14.15-5.22-.85-1.95-17-1.66-32.43-1.07,2.53-3.1,4.89-7.16,5.15-8.4,1.32-.09,2.63-.15,3.93-.18,6.66-.14,12.76,1.66,19.32,2.35,1.38.15,7.07,1.31,7.9-.23.3-.55,2-3-.68-2.73s-9.58-3.72-13-4.57q-4.45-1.11-9-1.93c3.13-2.49,7.56-7.56,8.6-8.53,11.57-10.83,21.51-18.19,32.07-30.14,5.64-6.38,11.81-10.64,16.17-16.79,2.84-4,6.73-6.83,9.71-10.56C495.49,66.68,501.2,59.14,496.36,62.5Zm-98,47.57c16.13-15.66,34.46-29.69,51.27-44.78-8.27,16.56-23.82,24.32-35.73,37.76-1.39,1.56-8.48,9.64-10.19,14-3.2-.11-6.42-.09-9.52-.21l-1.67,0A75.75,75.75,0,0,0,398.32,110.08Zm-4.64,19.06a7.22,7.22,0,0,0-2,2.93,1.44,1.44,0,0,0,.32,1.26c-6.13.73-12.19,1.27-17.73.34C379.81,131.11,386.9,129.88,393.68,129.14ZM363.19,92.4c14-10.69,26.13-23.58,40-34.61-5.81,8.12-12.71,14.57-19.82,21.48-3.28,3.18-7.38,9.39-11.76,13-3.31,2.72-6.7,3.73-9.69,7.21.59-.69-1.85,3.38-3.6,5.81-2.87.36-5.91.82-9,1.35C354.79,101.75,361.11,94,363.19,92.4ZM329.44,87c3.93-4.28,6.13-7.89,10.48-10.93,6.42-4.48,10-8.23,15.06-14.22C351.64,73,335.57,87.55,327,96.41c-1.26,1.3-7.19,5.46-7.45,8l-.09,0c-3.49.65-7,1.09-10.55,1.52C315.67,101,326.48,90.25,329.44,87Zm-2.63,24.17c-4,.9-7.79,1.82-11.33,2.7a13.44,13.44,0,0,0,3.09-6.12l2.67-.21a5.2,5.2,0,0,1-.54.37C322.76,109,324.8,110.07,326.81,111.19Zm-16.55,4c-7.07,1.82-12.42,3.32-14.43,3.95,4.13-3.78,9.68-8.67,15.12-10.52a21.16,21.16,0,0,1,4.2-.61C312,110.14,307.45,113.6,310.26,115.21Zm-59-23.65a155,155,0,0,1,54.1,9.71c-1.63,2.08-2.91,4.15-2.94,5.54-1.59.22-3.17.47-4.75.75A307.93,307.93,0,0,0,221.5,132c-2.16-2.65-4.68-7.11-7-9.22-2.55-2.36-6.57-2.57-8.58-5-3.21-3.86-4.15-8.31-7.42-11.42-1.39-1.33-2.91-2.64-4.46-3.92A154.75,154.75,0,0,1,251.22,91.56ZM162.7,83.77c-2.9-2-6.81-3-9.33-5.53-.35-.35-5-6.16-3.32-5.43,16.75,7.5,30.8,25.62,44.09,36.27,2.32,1.86,1.85.19,4.36,3.42,3.48,4.47,4.92,7.62,9.47,11.44,2.59,2.17,5.18,4.56,7.83,6.61.18.14,2.14,1.39,3.9,2.32q-3.15,1.52-6.26,3.12c-.26-6.2-10-11.15-13.75-14.58-6.5-5.94-12.1-12.78-18.52-18.85S170,88.88,162.7,83.77Zm16.58,25.47c7.64,6.28,14.75,12,21.45,19.51.74.83,5,6.88,8.36,9.52q-4.92,2.64-9.72,5.45L197.17,145a5.37,5.37,0,0,0-.11-.62c-1.61-7-11.32-11.07-16.34-15.18s-8.74-8.76-12.54-13.61Q173.59,112.21,179.28,109.24Zm-29.07-1.55C137.7,97.52,124,87.37,113.12,75.46c-8.52-9.33-17.84-19.58-28.6-29.15,11.22,4.86,20.28,17.75,29.54,25.6,10.5,8.91,20,17.66,31.43,25.62,12.14,8.48,18.71,20.71,29.19,30.71,4.64,4.43,10.64,7.32,15.2,11.74.16.16,4,4.64,6,5.83q-2.56,1.57-5.09,3.18c1-5.83-14.13-10.69-17.8-13C162.5,129.17,160.56,116.13,150.2,107.69Zm6.27,16.11c1.41,3.58,1.91,5.37,6.9,8.81s15.75,17.79,21.69,20.18q-9.54,6.47-18.5,13.61a1.35,1.35,0,0,0-.44-.83c-8.73-8.37-17.14-17.67-25.73-27.57A157.23,157.23,0,0,1,156.47,123.81Zm-58.12-14C82.5,92.84,66.35,76.53,51,58.89c3.6,3.18,9.15,5,12.38,8.49,1.09,1.18,1.71,3.92,3.05,5.33,3.45,3.61,7.06,7.71,11.3,11.89,11.06,10.89,22.26,21.05,32.54,31.92,10.06,10.63,21.27,19.83,31,30.85,4.76,5.37,10.65,8.89,15.43,14.4.47.54,4.07,6.26,6.51,7.3q-2.61,2.12-5.17,4.3a16.56,16.56,0,0,0-1.75-4.08,62,62,0,0,0-16.57-19.64C124.54,138.23,111.5,123.82,98.35,109.77Zm31.52,40.07c6,5.94,13.29,11.4,19.06,17.46,2.3,2.42,6.27,6.17,8.16,6.93q-6.17,5.26-12.17,10.79c-3.58-7.4-15.27-12.54-21.1-18-1.27-1.19-2.47-2.46-3.64-3.78A156.79,156.79,0,0,1,129.87,149.84Zm-31,5c-3.06-4.32-8.07-7.63-12.27-10.7-9-6.61-18.72-12.18-26.78-20.07-9.71-9.5-21.4-22.16-30.35-31-4.31-4.27-15.08-8.73-18.24-17.69,4.91,1.07,12.77,8.55,16.15,12a193.78,193.78,0,0,0,17.15,15.14,94.61,94.61,0,0,1,16.23,16.24c6.53,8.47,10.36,10.38,18.84,16.26,12,8.28,24.2,19.69,34.15,30.7,6.46,7.14,12.4,11.33,20,17a59.2,59.2,0,0,0,8.23,5.14q-2.59,2.43-5.17,4.9a46.53,46.53,0,0,0-3.62-4c-7.71-7.89-18.32-12-25.9-19.66C103.1,164.86,102.09,159.44,98.84,154.85Zm13.63,21.78a124.64,124.64,0,0,1,15.67,11.72,45.78,45.78,0,0,0,7.3,5.53c-2,1.71-4.43,3.53-4.79,6.13-.48,3.48,3.72,6.19,1.39,9.27-1.71,2.27-19.19,3.37-22.77,4.23-3.07.73-7.15,2.67-10.89,3.76A154.63,154.63,0,0,1,112.46,176.63ZM97.11,227.4c-7.36-1.36-18.75,2.66-25.81,4.44-9,2.28-10.68,3-2.47,9.28,5,3.84,16.15,10.2,3.63,7.82-1.82-.35-4.72-3.51-6.61-2.66s.49,3.26-.07,3.82c-5.64,5.65-3.23,5.53-7.78-5.69q-2.69-6.65-5.38-13.3c19.79-5.79,39.19-7.45,59.21-11.86,6.56-1.44,17.68-2,23.69-5.15,8.58-4.54,1.53-3.73,2-11.13.72-11.69,25.84-25.43,34.4-31.51C185.28,162,195.6,155.1,211.54,150a220.18,220.18,0,0,1,50.65-9.9c24.1-1.81,69.62.37,83.86,24.9-5.21,1.65-10.57,4-15.93,5-8.48,1.64-11.63-3.74-18.53-8.21-21.8-14.13-47.38-8.85-71.46-6.74-24.44,2.14-46,12.43-66.82,25.35-7.81,4.85-19.93,10-25.36,17.83-6.35,9.17,4.07,11,7.56,19.64a161.35,161.35,0,0,1-18.77,6.26c-5.62,1.48-12.66,4.57-19.24,6.8C107.44,234.36,105.91,229,97.11,227.4Zm107.72-8.15c-6.29,4-14.89-1.52-21.25-3.88,10.65-6.69,23.84-5.32,35.52-8.77C215.72,212.13,210.18,215.86,204.83,219.25Zm28,6.35c-11.48,4.59-25.28,11.42-37.24,9.08-5.3-1-7.09-2.12-13-.77-3.27.76-10.84,4.83-14.27,3.19,2.45-6.14,6.78-12.43,6.66-19.23,7.26,2.58,17.65,6.66,25.51,6.66,6.43,0,10.93-5.3,17.59-3.89C220.1,223.22,229.77,224.62,232.87,225.6Zm-35.61-18.38,1.55-2c10.53,1.58,6.64-13.67,16.7-1C209.5,205.67,203.33,206.14,197.26,207.22ZM107.79,327.36c17.53-5,35-8.53,52.74-12.65,5.76-1.34,6.86-1.65,11.64-7.45,4-4.91,8.32-13.54,15-14.64,5.94-1,15.55,1.55,22.05,1.34,8.46-.26,17.58.23,25.58-2.38,3.2-1,25.42-9.6,26.26-12,2.41-6.9-7-.06-7.07-1.92-.22-5.39,13.85-6.21,15.83-10,3.35-6.53-5-3.56-3.45-8.29s17.93-9.25,17.5-14.65-6.49.27-7.14-3c-.3-1.51,10.83-7.22,11.17-8.35,1.79-6-5.5,0-8.13.17,1.76-2.6,12.79-10.59,12.36-13.56-.78-5.33-7.79,1-10.78,2,.86-4.41,8.68-9,3.59-11.22-4.56-2-14.64,9.94-19.38,8.29s10.5-20.54,7.84-27c-2.27-5.56-5.85-2.1-12.49-.12-8.26,2.47-16.49,5.25-25,6.82-2.91.54-8.76,2.12-11.73,2-4.64-.12-1.59,1-5.74-1.87-7.64-5.19-5.25-11-14.95-2.86,3.64-21.64,18.88-29.25,39-32,21.32-2.91,38.84,1.84,57.35,12.25,9.9,5.57,11.77,6.84,23.65,4.7,10.48-1.88,20.89-4.2,31.35-6.23,8.29-1.6,16.61-3.17,24.9-4.66,2.29-.41,4.31-.93,6-1.15q3,5.14,5.62,10.53c-.76,13.31-6.3,25.89-14.4,36.38-2.68,3.47-24.72,29-28.86,28.34-9.36-1.45,12.82-23,15.41-26.74,4.59-6.64,18.28-27.19,14.22-36.39-3.61-8.17-26.12,5.5-32.68,7.56-4.24,1.32-22.88,3.5-25,7.78-1.7,3.44,4.3,12.56,5.57,16.53,4.32,13.53,7.6,29.39,1.08,42.93-1.64,3.41-9,6.92-9.81,9.42-1.86,5.68,7.71,2.83,13.28,2-2.64,2.11-20.26,10.91-20.36,12.91-.25,5.15,11.36.44,15,1.73-4.05-1.29-17.36,8.12-22,9.17-2.73.63-12.3-.16-13.7,1.34-3.59,3.82,10.86,4.14,14.17,4.32-7.66,5.12-16.59,4-23.94,7.72-9.27,4.71,9,3.84,13.66,4.94-6.55,8.59-24.23,4.59-33,7.48-2.4.79-8.57-1.11-4.78,3.25,1,1.15,11,1.77,13.33,2.91a187.39,187.39,0,0,1-45.46,6.62c-6.34.13-15.69-2.29-21.66-.79-8.25,2.08-.12,2.95,3.87,6.68-18.92-1.89-38-4.11-57-4.67C135.42,330.47,118.71,339,107.79,327.36ZM375,272.61c-.45-.17.34.47,1.47,1.22-5.84,3.53-11.87,7.44-13.07,7.93A81.61,81.61,0,0,0,374.89,271,11.12,11.12,0,0,0,375,272.61Zm9.64,23.53c3.55,3.31,7.23,6.49,11,9.63a155.14,155.14,0,0,1-6.69,14.32c-4.73-3.59-9.87-6.83-14.07-10.85-2-1.94-8.36-11.22-11.59-12.73a93.7,93.7,0,0,0,12.45-11.28C377.09,289.17,383.66,295.21,384.67,296.15Zm-34.33,13.93c-7,0-16-.28-15-1.44,1.94-2.26,5.46-3.54,9.34-4.58l0,.06C344.25,305.19,347.62,308.23,350.34,310.07ZM324.43,329a27.68,27.68,0,0,1-3,.76c-4.09.47-8.75.84-12.74-.31q7.86-.66,15.63-2a3.2,3.2,0,0,0-.07.88A2.17,2.17,0,0,0,324.43,329ZM157,353.18c-3.48,3.34-7.92,9.41-8.78,10.38l-.28.32q-2.78-2.47-5.42-5.08c2.44-2.09,4.33-4.52,4.42-7.68C150.31,351.67,153.66,352.38,157,353.18Zm-23.33,6.51c-4,4.39-8,9.19-11.83,13.09-2.08,2.14-5.47,3.06-7.75,5.31-3.46,3.41-6.72,10.07-9.85,14.41-3.66,5.08-7.9,8.22-12.21,12.65-2.47,2.54-4.77,7.62-7.79,9.32,2-8.12,9.13-12.76,13.91-19,4.28-5.62,9-11.21,12.88-17.15,4.07-6.24,7.79-12.08,12.64-17.8.77-.9,7-7.16,8.75-10.75a89.92,89.92,0,0,1,9.79.7C138.54,353.5,134,359.36,133.69,359.69Zm18.19,11.8A213.12,213.12,0,0,0,131.2,397.8c-9.64,14.79-22.94,34.78-37.32,45.26,3.05-15.83,23.74-26.51,31.2-40.7,3.87-7.36,5.16-13.51,11-19.67,4.13-4.36,9-8.48,13.33-12.81,1.11-1.1,10.15-10.44,12.11-15.6q2.92.76,5.84,1.57C163,358.55,153.46,369.73,151.88,371.49ZM158,372a55,55,0,0,1,4-4.91c.84-.92,8.55-7.74,8.58-10.36l5.69,1.62q6,1.72,12.1,3.08c-3.28,2.2-10.95,11-17.7,19.15C166.29,378,162.08,375.09,158,372Zm18.62,11.14c-6.61,7.56-11.17,16.73-17.37,24.62C154.41,414,149,419,144.36,425.2c-4.89,6.56-8.95,15.46-15,20.73,6.24-16.27,19.6-30.47,29.5-44.81,2.12-3.07,28.62-34,30.83-39.36q3.07.67,6.15,1.25C191.61,371.41,182.69,376.25,176.63,383.18Zm2.77,2.35c3.62-3.86,7.52-7.32,11.49-11.24,1.27-1.25,8.85-8.24,8.18-10.54l0-.16q9.48,1.65,19.05,2.54c-2.09,1.73-.82,4.4-1.74,5.57-2,2.55-5,4-7.3,6.3-4.64,4.62-7.56,10.37-11.06,15.76A154.54,154.54,0,0,1,179.4,385.53Zm-17.62,60.68c4.15-8.72,11-15.58,16.7-22.93,5-6.43,9.06-12.85,14.88-18.77,6.68-6.81,10-15.37,16.23-22.4,3.72-4.21,10.1-7.7,12.83-12.83a16.73,16.73,0,0,0,1.19-2.71l3.41.22C217.4,376.08,168.68,438.4,161.78,446.21Zm89.44-43a155.14,155.14,0,0,1-42-5.76c2.84-3.77,5.53-7.67,8.44-11.61.7-.95,11.05-14.39,12.15-18.84q6.4.31,12.87.34c9.07.05,16.64-.07,25.39-2.78,8.25-2.55,24.3-3.55,30.21-9.65,4.41-4.55,2.22-2.7-4.08-3.3-10.85-1-22.06,1.32-32.45-3.62A181.14,181.14,0,0,0,296.73,344c.34.7.7,1.35.9,1.7,2.52,4.28,10.28,8.63,13.94,12.4a177.18,177.18,0,0,0,23.89,20.21A154.78,154.78,0,0,1,251.22,403.17Zm156.64,23-41.35-29.54c-8.45-6-14.69-13.53-22.43-19.55-3.84-3-8.76-5.24-13.39-8.44-2.86-2-8.11-4.84-10.13-7.3-1.69-2.06-1.11-4.36-1.92-5.32a43.25,43.25,0,0,0-6.71-6.53,5.11,5.11,0,0,0-3.44-3.79q-1.31-1-2.15.8s-2-2-4.09-3.68q3.72-.92,7.36-2C314.51,357.34,398.39,414.56,407.86,426.12Zm-60-56.71c-5-4-10-7.93-14.65-12.23-3-2.75-12.51-13.68-18.55-18.07a126.78,126.78,0,0,0,12.44-5c.69-.32,1.53-.68,2.4-1.06.09,1.35,2.27,3,3,4,3.33,4.9,11.23,10.91,15.76,14.74,3.2,2.71,6.59,5.62,10.06,8.49Q353.31,365.11,347.88,369.41Zm37.87-3.77c5.61,3.33,9.45,9.42,14.14,13.83,10.71,10,24.43,17,36.23,25.78-23-8-41.76-29-60.43-39.15-11.66-6.34-17.82-17.3-28-24.53-2.63-1.86-11.13-9.12-14.8-10.2,1.89-1.25,2.68-2.67-.18-4.17a5.25,5.25,0,0,0-2.38.21,5,5,0,0,0-.66-1.06c3.47-.74,6.92-1.57,10.34-2.53l.39-.11c1.34,2.66,5.83,5.85,7,7.25,4.29,5.1,8.34,7.71,13.64,12.16,4.71,4,7,9.47,10.92,14C376.24,362.13,380.33,362.43,385.75,365.65Zm-14.24-19.43a90.94,90.94,0,0,1-8.43-6.84c-4.59-4.31-8.61-11.9-13.55-15.3a30.12,30.12,0,0,0-3.61-1.81c5.5-1.43,12-3.33,16.16-6.24,2,4.59,13.14,13.23,14.94,14.8,1.17,1,2.45,2,3.72,3Q376.43,340.25,371.51,346.22ZM402.58,340c3.83,2.65,9.06,4.69,11.34,6.82,5.28,5,8.41,13.14,14.62,18.37,7.06,5.94,14.16,11.09,21,17.49-11.07-6.44-19.36-14.06-29.29-20.88-3.93-2.7-8-8.48-12.81-12.11-5.51-4.12-8.79-5.32-12.71-10.76-1.07-1.49-23-21.76-30.46-24.88.07-.08.16-.16.23-.24,6.7-8.15-.61-4.88-6.22-3.91-.19,0-1.51.08-3.44.1.64-1,.85-2.1-1.13-2.1.63,0-2.68-3.52-5.53-4.8,3.87-.94,7.72-1.87,10.42-3.49.48-.29.94-.6,1.41-.9,1.11,3,6.5,7.81,7.27,8.58,5,5.06,10.67,9.79,16.06,14.5C389.94,327.59,395.4,335.06,402.58,340ZM413,310.56a163.74,163.74,0,0,1,14.81,16.74c-3.49.87-11.31-10.54-14.28-12.91-6.39-5.1-11.7-10.65-17.91-15.77-1-.79-14.05-11.84-18.21-15.17l1.41-1.55c.43-.48,1.5-1.58,2.79-3,1.6,3.69,9.28,12.39,11.42,14.69C398.83,299.88,407,304.44,413,310.56Zm-6-63.19a155.22,155.22,0,0,1-7.42,47.54c-.37-.32-.74-.67-1.12-1-3-2.9-10.67-15.24-15.42-16.55,3.17-3.55,6.65-8,5.33-9.2-.69-.64-4.95,1.6-9.77,4.45-1.5-1.69-2.41-2.37-3-2.48a121.61,121.61,0,0,0,7.93-10.27c1.64-2.36,14.34-20.4,12.81-22.25-2.88-3.46-8.86,4.36-12.61,6.5-5.34,3-12.89,6.77-19.13,7.65,5.7-7.77,13.29-13.21,17.9-21.85a153.83,153.83,0,0,0,9-21.39c1.85-5.37,3.62-11.11,5.14-16.88A155,155,0,0,1,407,247.37Zm-11-97c-4.89.2-8.56.32-9.92.22a62.3,62.3,0,0,1,14.25-6.08A34.08,34.08,0,0,0,396.06,150.4Zm13.18-.57-8.36.36a30.46,30.46,0,0,0,3.78-6.79,88.83,88.83,0,0,1,11.25-1.88A76.3,76.3,0,0,0,409.25,149.83Zm5.41-18c0,.1-.07.19-.11.28l-2.62-.21a84.29,84.29,0,0,0-15.59.86c1.86-1,3.55-2.64,3.49-4.25l4-.31c2.43-.2,8.56.37,14.21.4A7.11,7.11,0,0,0,414.65,131.87Zm28.25-15.52c-4.61,4.33-16.56,9.85-18,16.88,0,.07,0,.12,0,.19q-3.4-.54-6.82-.92a62.63,62.63,0,0,0,5.45-4c3.88-.39,6.55-1.4,5.85-3.7-.1-.34-.56-.74-1.24-1.17a48.72,48.72,0,0,1,8.55-8.34c15.6-11.25,28.43-25.73,44.23-36.91C470.33,92.14,455.08,104.9,442.9,116.35Z"/></g></svg>