<svg xmlns="http://www.w3.org/2000/svg" viewBox="0 0 500 500"><defs><style>.cls-1{fill:#ea5d45;}.cls-2{fill:#2e481f;}.cls-3{fill:#d4d661;}</style></defs><title>clan-goliath-scorpion_COLOR</title><g id="n3"><path class="cls-1" d="M225.14,450.79c-7.2,12.73-14.22,25.64-22,38-.09-13.68,0-27.36,0-41Z"/><path class="cls-1" d="M281.48,490.6l-20-40.71c11.75-.77,18.71-4.33,22.63,4.34C287.58,462,282.12,481.66,281.48,490.6Z"/><path class="cls-1" d="M354.84,469.13l-13.41-10.52C350.35,457.35,350.38,461.52,354.84,469.13Z"/><path class="cls-1" d="M387.55,414l20.33,21.09C393.89,428.48,383.52,429.6,387.55,414Z"/><path class="cls-1" d="M114.49,246.7c10.06,9.1,14.25,18.65,26.37,7.45Z"/><path class="cls-1" d="M80.87,273.21c12.74,6.37,21.79,17.12,30.71,2.19Z"/><path class="cls-1" d="M54.31,307.22c13.17,2.66,35.27,14.87,36.66-4.69Z"/><path class="cls-1" d="M44.59,345.89l38.38.47c.64-3.09.85-9.39,0-12.42Z"/><path class="cls-1" d="M88.51,369,52.29,388.86l42.19-8C92.52,377,90.84,372.69,88.51,369Z"/><path class="cls-1" d="M198.9,233.28v-6.6q3.73,1.23,4.58,5.73Z"/><path class="cls-1" d="M155,227.69l14.23,8.88a36.74,36.74,0,0,0-8.89,4Z"/><path class="cls-1" d="M79.76,432.92l26.48-26.81a91.2,91.2,0,0,0,5.81,12.42Z"/><path class="cls-1" d="M132.84,468.35c7.06-15.66,4.42-19.36,20.33-17Z"/><path class="cls-1" d="M394.3,383.14,436.78,394c-8-5.28-16.64-13.18-25.49-16.76C399.24,372.35,403.23,370.08,394.3,383.14Z"/><path class="cls-1" d="M407,349.4l39.11.83-38.4-12.88C407.48,341,406.28,345.8,407,349.4Z"/><path class="cls-1" d="M399.86,305.79c2.28,18.59,24.05,6.2,36.38,3.26Z"/><path class="cls-1" d="M379.58,277.55c7.51,16,21.15,2.39,32.24-3.24Z"/><path class="cls-1" d="M351.13,256.06c12,10.9,16.83,1.15,27-7.66Z"/><path class="cls-1" d="M316.33,239.82c15.46,6.76,14,3.71,21.21-11.07Z"/><path class="cls-1" d="M285.15,225.39l6.94-.46c1.57,7.73-3.86,9.5-10.66,7C282.26,228.45,283,227.57,285.15,225.39Z"/><path class="cls-1" d="M396.61,337.2a72.64,72.64,0,0,1-7.08,30.88c-7.55-16.39-21.47-27.71-33.42-40.61-2.36-2.54-2.7-7.35-9.3-11.09-3.81-2.16-16.5-2.46-18.28-4.66,5.62-6.24,12-15.64,9.36-24.56-1.37-4.67-7.47-6.36-8.48-10.73-1-4.2,5.27-9.19,3.73-14.93-2.26-8.45-11.66-9.82-17.45-14.68C354.51,260.65,396.61,291.86,396.61,337.2Z"/><path class="cls-1" d="M145.47,353.21c-.53-7,6.73-13.35,11.68-16.9-1.14,12.8,10,21.49,18.69,28.79-.42-.28-34.67-11.42-34-3.91A75.19,75.19,0,0,0,145.47,353.21Z"/><path class="cls-1" d="M301.74,367.88c-3.77-.79,18-26.72,18.46-29.65,13.45,6.6,11.46,19.24,20.46,28.14-12,0-24.21.76-34.84,7A4.92,4.92,0,0,0,301.74,367.88Z"/><path class="cls-1" d="M93.65,337.2c0-34.35,25.42-61.8,53.66-77.95,6.22,15.69-3.67,12.51-4.18,25.67-.34,8.66,11.72,17.23,16.34,23.54-14.48-6-19.73.83-28.59,7.43-8.5,6.34-14.54,12.71-19.75,22.22-7.24,13.22-3.52,23.35-7,36.44A74.32,74.32,0,0,1,93.65,337.2Z"/><path class="cls-1" d="M245.13,439.38a223.6,223.6,0,0,1-26.56-1.59c5.07-4,19.95-15.84,17.73-23.39-2.83-9.65-19.3,2.66-24.08,3.89-12.6,3.25-27.05.19-38.32-6.13-6-3.36-13.17-8.2-16.43-14.39-.46-.87-4.93-11-2.63-9.54,9.2,5.91,20.43,1.52,29.52,7,11.79,7.14,13.66,14.84,9.78-7-1.64-9.19-2.17-16.49-6.88-24.57-5.72-9.8-31.3-23.21-15.39-38.24,7.91-7.47,30.8-.94,38.5,3.84,5.44,3.37,9.94,11,15.92,13.05,8.54,3,9.93-1,18.11-1.58,2.6-.17,1.59,3.45,7.47.86,5.32-2.34,6.51-6.24,11-8.77,14.11-8,29.71-3.38,44.46.6-3.39,12-30,43.21-3.56,41.16-4.85,3.2-23.43,21-17,28.31,2.93,3.33,23.36-6,28.36-6.63,19-2.55,35.93-.09,18.79,19.36-16.36,18.55-48.87,9.1-68.65,2-6.3-2.25-17.8-10.7-17.92-.18,0,2.8,17.2,19.85,18.55,20.86Q255.53,439.38,245.13,439.38Z"/><path class="cls-1" d="M177.3,291.76c-3.2-6.41-13.58-13-10.74-21.38a11.59,11.59,0,0,1,15-7.18c9.54,3.33,24.4,34.07,27.19,43.13C199.28,308.88,189.91,278.11,177.3,291.76Z"/><path class="cls-1" d="M172.09,300.7l-4.34,5.53c-5.12-9.08-12.89-15.41-9.36-26.87,2.87,4.38,6.67,9.09,9.8,13.39,1.87,2.57-4,5.2-2.55,7.08C168.55,303.51,171.42,296.25,172.09,300.7Z"/><path class="cls-1" d="M270.37,276.74c2.93-6.73,20.22-38.88,30.2-29.53,9.7,9.09-24,35.21-30.5,40.37Z"/><path class="cls-1" d="M314.14,277.17c-3.48,3.58-4.92,8.57-9.17,11.49-1.92,1.32-6.32-1.17-8.73.08-4.13,2.13-22,19.18-25.68,18.78C270,291.46,298.92,266.43,314.14,277.17Z"/><path class="cls-1" d="M188.78,302.48q-2.18-5.07,3.44,2.93Q186.1,305.84,188.78,302.48Z"/><path class="cls-1" d="M186.83,299.69l-4.18.45Q184.36,296.7,186.83,299.69Z"/><path class="cls-1" d="M291.39,303c.61-.67,6.87-6.5,8.31-5.08,4,4-9.69,8.15-10.91,7.89Z"/><path class="cls-1" d="M304.22,303.69q1.4-5.87,4.54.09a4.55,4.55,0,0,0-3.64,3.85Q300.33,307.19,304.22,303.69Z"/><path class="cls-1" d="M322,284c7,7.78,3.56,14,.81,22.71C312.8,297.59,311.67,294,322,284Z"/><path class="cls-1" d="M283.94,238.43c-3.52,6.61-6.08,13.8-11.83,18.94C272.09,251.73,279.63,237.66,283.94,238.43Z"/><path class="cls-1" d="M308.53,260.32l1.35-6.53c.61.49,17.12,14.94,11.9,15.45S312.72,262.11,308.53,260.32Z"/><path class="cls-1" d="M202.84,251c-3.28-6.6-7.52-10.42.86-12A77.19,77.19,0,0,0,202.84,251Z"/><path class="cls-1" d="M207.29,259.5a17.58,17.58,0,0,1-1.91-3.26C206.82,257.46,209.76,257.35,207.29,259.5Z"/><path class="cls-1" d="M215.51,237l-2.41,7.47Q208.71,236.35,215.51,237Z"/><path class="cls-1" d="M179.74,245.07l2.4,3.39c-9.85-2.52-15.55,9.64-21.61,14.88C155.91,249.77,169.46,248.4,179.74,245.07Z"/><path class="cls-1" d="M208.61,281.89c-8.69-1.89-16-21.48-17.56-28.87,3.43,6.55,6.69,12.31,10.53,18.42C206.4,279.1,210.08,269.32,208.61,281.89Z"/></g><g id="n2"><path class="cls-2" d="M145.68,306.61a20.43,20.43,0,0,1,10.62,2.95q-2.47,2.55-4.89,5.14c3.54-5.34,15.21-4.16,15.48,6.67s-16.46,15.84-21.37,23.9c.24-1.56,4.9-10.84,3.41-12.18-.08-.07-8.82,21.78-9.83,22.3-4.7,2.4-16.67-5.86-23.34-2.44-8.5,4.36-4,7.25-8.52,14.43-11-12.61,12.85-40.49,22.1-47.55C133.8,316.44,144.85,307,145.68,306.61Z"/><path class="cls-2" d="M169.3,363.83c9.65,4.53,17.49,11.67,21.68,21.39.94,2.18,4.71,18.57,2.57,18.36-4.43-.43-5-8.64-8.26-10.31-6.47-3.34-10.4-1-17-3.25-16.68-5.8-14.15-11.83-23.65-25.29C151.9,361.28,161.91,360.36,169.3,363.83Z"/><path class="cls-2" d="M331.28,368.4c17.6-.93,20,16.23,13.43,28.89-7-4.77-17.78-5.62-26-5.08-8.84.58-22.07,10.36-29.55,9.15-5.34-.86,11.84-21.72,12.2-22C309.56,372.44,320.65,369,331.28,368.4Z"/><path class="cls-2" d="M339,346c-14.21,3.27-29.85-27.5-5.1-31.63,17.83-3,29.38,27.73,40.61,38.61a44.85,44.85,0,0,1-11.28.8,13.35,13.35,0,0,0-6.75,8.05c-4,1.58-4.26,7.42-10.32,4.65C342,364.56,340.19,345.71,339,346Z"/><path class="cls-2" d="M209.7,440.89c-35,22-81.73,7.21-98.81-30-7.19-15.65-11.22-41.79,6.63-52.76,19.24-11.83,23.72,9.06,29.42,22,10.48,23.76,27.8,45.23,58.43,41.42,6.34-.79,25.44-12.9,27.33-5C234.47,423.87,215,437.57,209.7,440.89Z"/><path class="cls-2" d="M375.78,433.89c-16.37,22.49-45.39,24.38-70.65,19.6-9.1-1.72-60.93-25.86-55.59-39.05,19.46,9.05,55.84,20.9,76.53,9.68,12.69-6.88,39.87-41.85,24.66-55.12,17-2.2,33.09-19.09,38.07,7.65C392,393.62,385.73,420.23,375.78,433.89Z"/><path class="cls-2" d="M185.56,115.7c15.55-1.06,24.69,7.23,27.1,22.06.92,5.7-5.2,29.41-1.92,28.48-6.46,23.66-47.25,12.29-58-.15C131.19,141,161.55,117.41,185.56,115.7Z"/><path class="cls-2" d="M173.77,90.3q.58,9.22-4,.7c6.38,4.11,10.45,16.9,13.71,22.35-7.66-1.23-18.61,1.94-25.62,5.25-9.4,4.43-6.11,3-11.54,11.59-4,6.3,2.71,12.34-8.15,10.94-6.19-.8-10.9-13.43-11.53-18.49,4.15,7.09,2.52-13.12,2.52-13.61-.19-10.79.79-22,5.46-32C147.71,48.67,168.72,67.76,173.77,90.3Z"/><path class="cls-2" d="M200.05,48.69c-1.73,8.64-17.9,30.42-27.86,24.7-2.83-1.62-2.15-12.18-4.88-14.92-8-8-13-1.22-21.95,1.07,2-9.93,14.36-34,25.49-39.7C188.46,10.9,203.23,32.15,200.05,48.69Z"/><path class="cls-2" d="M248.23,37c1.44,11.7-.38,8-12.71,8.8-9.51.61-20.67,4-30,.8,15.6-15.66-29.71-25.91,1.62-36,8.61-2.78,37.45-3.89,46.49,4.9a26.46,26.46,0,0,0-5,2c2.21-1.85,11,.32,11.25,4.1C260.19,25.78,247.08,27.72,248.23,37Z"/><path class="cls-2" d="M291.59,71.41C281.07,78.72,276.33,56.58,268.48,55q-3.35,1.12.29,3.3c-24.49-8-13.11-41.54,10.47-34.69,17.51,5.09,26.88,18.52,31.57,33.24C294.3,57.56,301.75,64.38,291.59,71.41Z"/><path class="cls-2" d="M293,105.46c-7-13.6,2-47.08,22.13-39.63,14.44,5.34,13.8,39.48,4.8,49.62C313.63,95.91,298.15,115.39,293,105.46Z"/><path class="cls-2" d="M281.45,139.9c6-12.12,3.29-37.93,28.58-26.3,21.81,10,1.57,33.49-6.73,44.2-4.22-9.72-18.49-15.11-28-8.59A19.92,19.92,0,0,1,281.45,139.9Z"/><path class="cls-2" d="M249.67,178.15c9.06-8.5,22.34-29.65,35.58-27.06,22.83,4.48,10.47,26.22,5,37.29-.83-.28,3-6.16,1-7.27,1.91,1.11-10.56,22.89-12.08,24.29-3.92-22.28-9-20.63-30.42-19.65A10.91,10.91,0,0,1,249.67,178.15Z"/><path class="cls-2" d="M228.59,212.18c2.75-4.38,6-5.46,7.86-9.07,2.6-5-.32-8.25,4.2-12.07,12.63-10.68,31.76,1.25,35.26,16.24,2.45,10.49,1.24,32.28-10.46,26.1-5.56-2.93-6-12.52-13-15.85-11.08-5.27-17.6,1.45-26.44,7.57A32.5,32.5,0,0,1,228.59,212.18Z"/><path class="cls-2" d="M223.7,230.1c23.47-24.54,46.22.52,46.22,27.94-6.86-8.65-18.57-19-23.26-26.37-1.35-2.13,2.34-9.92-2.17-11.18-.36-.1-1.37,10.26-3.16,12.09-7.29,7.44-19.55,13.68-27.78,21.94C215.71,245.52,217,237.06,223.7,230.1Z"/><path class="cls-2" d="M183.09,371.33a6.71,6.71,0,0,0,6.71-1.48C194.18,377.25,186.17,374.9,183.09,371.33Z"/><path class="cls-2" d="M161.21,347.31a6.56,6.56,0,0,0,4.52-3.28c5.1,9.49,16,15.78,22.82,24C180.14,374.18,164.55,352.36,161.21,347.31Z"/><path class="cls-2" d="M165.63,339.39c-1.71,5.87-5.17,3.94-7.33.85-3-4.33,9.48-12.63,11.19-14.25Q167.71,332.73,165.63,339.39Z"/><path class="cls-2" d="M314.23,334.16c-2,5.44-11.9,10-6.18,2.36C310.7,332.94,309.88,334.54,314.23,334.16Z"/><path class="cls-2" d="M316.37,334.67c.45,7.95-14.49,28.94-22.59,33.47C297.74,354.11,311.95,347.32,316.37,334.67Z"/><path class="cls-2" d="M298.29,368.65a7.52,7.52,0,0,1,5.44,3.81,78.91,78.91,0,0,1-9.17.11A16.7,16.7,0,0,0,298.29,368.65Z"/><path class="cls-2" d="M246.78,341.53c-1.39-6-15.58,1.23-19.56-1.42,9.74-4.3,19.61-2.52,29.74-1.33C251.42,341.71,251.89,337,246.78,341.53Z"/><path class="cls-2" d="M168.38,309.77c7.54-15,14.1-1.79,24.39-2.06C183,310.12,177.43,314,168.38,309.77Z"/><path class="cls-2" d="M173.4,315.68c6.76-6.74,50.11-12.35,45.06,4-2.67,8.63-13.55,3.52-18.78,3-7.26-.75-21.77,2.93-27.73.55Q172.85,319.46,173.4,315.68Z"/><path class="cls-2" d="M261.76,314.53c6.07-8.25,32.75-5,39.43-6.17.52-.09,11.13-1.38,11-1.44,4,2.43,7.51,18.71,4.91,24.22C312.69,324.53,248.83,332.1,261.76,314.53Z"/><path class="cls-2" d="M252,318.26c-9.1,12.38-17.61,4.92-29,3.19,8.3-7-25.42-26.75-3-20.08,9.33,2.77,7.53,15.67,11.07,17.74,4.7,2.76-1.55-11.59-2-12.3-2.8-4.16-11.4-12.57-17.46-8.28,0-7.65,14.32-27.12,22.44-27.45,7.87-.32,1.77,8.57,8.85,10.44,4.06,1.07-.57-11.42-.75-11.58,6.9,1.52,30.92,25.66,27,33.53-8.58-12.07-31.9,10.07-22.45,15.63-3.82-2.25,12.25-27.32,21.62-11.9C257.22,305.64,257.1,311.32,252,318.26Z"/><path class="cls-2" d="M266.39,294C251,268.19,233.07,254.52,213,287.15c.52-15.75,15.92-42.89,36.07-32.12C261.28,261.56,270.33,281.08,266.39,294Z"/><path class="cls-2" d="M228,243.37c18-17.65,46.11,10.34,41,30.56-5.37-.44-28.47-36.35-25.76-37.29.86-.3-1.4,12.19-2.3,13.57-5.38,8.31-22.89,10.82-29.52,22C206.6,259.16,220.26,251,228,243.37Z"/><path class="cls-2" d="M154.85,273c5.94-6.41,12-16.38,19.24-21.18-.87,5.64-18.63,36.2-27.1,33.47C141.93,283.64,153.75,274.17,154.85,273Z"/><path class="cls-2" d="M208.58,291.91c-3.13,3-17.14-17.94-19.91-21.14-1.74-2-9.77-10.89-9.89-11.44-.62-2.71,1.35-6.26-.29-9C187.36,249.51,209.35,284.44,208.58,291.91Z"/><path class="cls-2" d="M305.39,261.61c4.68,1.13,30.89,20.89,30.6,25.44-.48,7.49-29.34-16.54-32.4-16.57A20.29,20.29,0,0,0,305.39,261.61Z"/><path class="cls-2" d="M270.23,290.24c6.4-5.2,22.89-28.55,29.95-29.12-1.85,3-1.21,8.2-3.34,11.57-2,3.21-8.25,6.9-11.25,9.91-2.28,2.3-6.39,11.37-10,11.43C274.25,294.06,267.28,292.6,270.23,290.24Z"/><path class="cls-2" d="M186.61,238.48c1.46-.2,4.36-5.93,4.53-7.27,4.09,3.26,9.75,19.09,11.28,23.83,2.31,7.14,1.05,8,1.94,15C200.52,269.06,186.5,241.74,186.61,238.48Z"/><path class="cls-2" d="M285.43,305.77c-3.06.52-8.24.63-10.95,1.53,1.89-1.9,26.27-21.68,25.51-15.37C299.5,295.93,282.93,301.86,285.43,305.77Z"/><path class="cls-2" d="M330.26,260.18c-1.17-.3-5.11,3.35-6.51,3.35-3,0-7.14-6.29-9.45-7.87-6.84-4.65-19.89-13-20.67-21.79C301.48,234.87,326.55,253.79,330.26,260.18Z"/><path class="cls-2" d="M178.3,220.09c4-5.05,30.79-7.71,23.54,3.26C198.25,228.8,177,221.75,178.3,220.09Z"/><path class="cls-2" d="M154.05,270.42a36.85,36.85,0,0,0-4.35-9.58C157.09,263.09,161.33,260.92,154.05,270.42Z"/><path class="cls-2" d="M186.61,297a4.2,4.2,0,0,1-.32-4.86c6.36,3.06,10.55,8.53,15.67,13.15C193.45,304.71,193.28,301.2,186.61,297Z"/><path class="cls-2" d="M179.84,301a12,12,0,0,1-4.81-1.73,20.08,20.08,0,0,1,5.36-7.3C182.94,297.19,179.31,297,179.84,301Z"/><path class="cls-2" d="M160.08,276.41l1.92-2.94c4.07.3,11,16.31,13.18,19.1C171,293.09,159,281.52,160.08,276.41Z"/><path class="cls-2" d="M169.41,297.5c3-2.9.17-1.49,5.65-2.67C173,298.21,174,296.73,169.41,297.5Z"/><path class="cls-2" d="M154,285c-1.49,4.47,14.46,23.33,10.9,24.53-4.67,1.57-14.68-17.28-16.92-20.32A8.75,8.75,0,0,0,154,285Z"/><path class="cls-2" d="M302.48,299.57c2.9,1.64-1.91,6.17-4,5.81A24.44,24.44,0,0,0,302.48,299.57Z"/><path class="cls-2" d="M324.6,308.21c-5.1-8.77,8.73-11.85,10.89-12.49C334.79,297.61,328.12,314.27,324.6,308.21Z"/><path class="cls-2" d="M270.67,301.15c-1.47-3.69-3.18-3.4-1.89-7.49C271.68,297.44,273.8,296.33,270.67,301.15Z"/><path class="cls-2" d="M272.12,259.94c10.87-.26,9.86-20.64,17.49-25.23C293.9,243.15,272.12,277.56,272.12,259.94Z"/><path class="cls-2" d="M272,268.49q7.08.23-.71,5.29Z"/><path class="cls-2" d="M304,249.45c2.63,2.63,6,3.42,2.9,8.32C303.09,263.69,304.33,252.1,304,249.45Z"/><path class="cls-2" d="M326.38,267.94a16.75,16.75,0,0,0,4.76,1c-3.22,6.65-4.41,5.49-9.12,2.63A14.45,14.45,0,0,1,326.38,267.94Z"/><path class="cls-2" d="M308.49,300.3c-4.43-4.5-3.42-2.18-5.36-8.54,7.8,3.52,19.1,14.69,24.13,21.88C323,316.48,310.95,302.81,308.49,300.3Z"/><path class="cls-2" d="M310.63,293.67l-4.52-2.88c4.44-4.67,7.15-15.46,14.33-8.4A148.9,148.9,0,0,0,310.63,293.67Z"/><path class="cls-2" d="M151.14,250.69c9.31-9.89,23.37-10.8,33.27-19-2.05,8.89-7.12,6.59-16.27,11.82-5.09,2.91-13.58,16.13-18.39,10.57Z"/><path class="cls-2" d="M188.78,252.84l.86,3.7c-4-4.09-9.18-11.23-9.6-17.19C186.66,239.43,186.46,245.8,188.78,252.84Z"/><path class="cls-2" d="M308.38,226.06a25.29,25.29,0,0,1,1.13,15.27C300.67,233.94,306,232.53,308.38,226.06Z"/><path class="cls-2" d="M282.82,215.23c7.67,1.36,16.57,3.58,23,8.19C301.11,226.08,280,226.26,282.82,215.23Z"/><path class="cls-2" d="M279.41,219.35c6.08,8.76-2.25,24.28-7.5,30.83-.34-7,1.33-9.21,2.44-15C274.52,234.34,280.29,212.5,279.41,219.35Z"/><path class="cls-2" d="M205.87,220.14c7.2,7.2,4,25.24,4.46,36C206.36,253.1,205.62,220.06,205.87,220.14Z"/><path class="cls-2" d="M175.76,224.86c-.37,3.55,15.3-.82,1.34,7.29Z"/></g><g id="n1"><path class="cls-3" d="M220.19,324.62c2.7-1.89,15.3,0,13.1,5.32-1.51,3.63-16.6-.7-15.71-2.82Z"/><path class="cls-3" d="M239.75,127.4c-4.34,10.47-17.82,34.08-30.08,36.8,3.24-5,4.19-11.06,7.75-15.56,4-5,10.51-7.24,14.32-13.7,11.12-18.87,1.93-36,2-55.46C242.64,93.56,246.29,111.6,239.75,127.4Z"/><path class="cls-3" d="M222,125.4c8.85-3.76,10.55-17.51,11.88-25.71.84,15.1,2,41.63-17.95,46,.37-6.64-.88-14.91-3.78-20.93A14.45,14.45,0,0,0,222,125.4Z"/><path class="cls-3" d="M399.86,305.79c2.28,18.59,24.05,6.2,36.38,3.26Z"/><path class="cls-3" d="M351.13,256.06c12,10.9,16.83,1.15,27-7.66Z"/><path class="cls-3" d="M114.49,246.7c10.06,9.1,14.25,18.65,26.37,7.45Z"/><path class="cls-3" d="M54.31,307.22c13.17,2.66,35.27,14.87,36.66-4.69Z"/><path class="cls-3" d="M155,227.69l14.23,8.88a36.74,36.74,0,0,0-8.89,4Z"/><path class="cls-3" d="M79.76,432.92l26.48-26.81a91.2,91.2,0,0,0,5.81,12.42Z"/><path class="cls-3" d="M225.14,450.79c-7.2,12.73-14.22,25.64-22,38-.09-13.68,0-27.36,0-41Z"/><path class="cls-3" d="M394.3,383.14,436.78,394c-8-5.28-16.64-13.18-25.49-16.76C399.24,372.35,403.23,370.08,394.3,383.14Z"/><path class="cls-3" d="M354.84,469.13l-13.41-10.52C350.35,457.35,350.38,461.52,354.84,469.13Z"/><path class="cls-3" d="M387.55,414l20.33,21.09C393.89,428.48,383.52,429.6,387.55,414Z"/><path class="cls-3" d="M228,430a91.58,91.58,0,0,1-7.91,7.24c8.78,1.84,14.84-8,15.07-16.23C233.5,424.54,230.61,427.22,228,430Z"/><path class="cls-3" d="M345,397.78c-4.43-4.4-10.37-1.86-15.5-2-12.11-.41-19.39.49-30.92,4.37,6.29,7.3,12.71,21.49,23,23.28,4.84.84,13.44-5.56,16-9.68C339.56,410.63,341.05,398.75,345,397.78Z"/><path class="cls-3" d="M391.86,366.36c2.65-3.32-5.31-7.1-7.74-7.47,1.48,3.26,5.53,5.36,7.24,8.82Z"/><path class="cls-3" d="M201.43,269.12c-1.67-1.13-2.17-2.83-4-4.05a80.12,80.12,0,0,0,4.86,9.48A32.44,32.44,0,0,0,201.43,269.12Z"/><path class="cls-3" d="M149.64,294.25c-3.77-5.37-3.54-3.4-8.94-1.24-7.4,3-15.69,2.91-23.33,4.94-8,2.11-13.56,4.37-16.61,12.1-2.78,7-5.88,11.37,4.06,10.35,4.09-.42,6.16-2.43,9.48-4.3,5-2.81,10.49-3,15.94-4.39,2.79-.72,5-1.09,7.52-1.85a4.61,4.61,0,0,0,4.72-.62q1.19-1.73,2.43-3.42c3.69-1.8,8-.89,11.2-3.14C153.53,300.28,151.66,297.13,149.64,294.25Z"/><path class="cls-3" d="M162.27,263.36c3.6-.49,5.73-6.54,8-9,3.54-3.8,7.59-6.08,12.91-6.13-2.53-5.05-3.73-3.19-9-1.41-3.17,1.06-7,1.91-9.85,3.72-.75.48-3.29,2.33-3.78,3.39C159.76,255.66,161,263.54,162.27,263.36Z"/><path class="cls-3" d="M186.56,267.83c-4.44-7.27-10.35-8.57-15.91-1.5-5.33,6.77-.82,13.88,4.33,19.75,3.43,3.9,4.49,5.26,9,2.51,2-1.22,1.62.1,3.53-2.25,1.7-2.09,1.78-10.67,4-9.8C189.92,273.62,188.31,270.69,186.56,267.83Z"/><path class="cls-3" d="M146.81,279.38c7.05-7.54,6.57-10.94,2.38-20.49-5.83,3.16-15.58,6.25-11.54,13.46C138.44,273.77,145,281.28,146.81,279.38Z"/><path class="cls-3" d="M299.22,378.58c2.29-1.16,4-3.11,6.09-4.5-3-4.05-14.95,4.83-13.67-6.9.81-7.52,9.81-12.94,13.34-19.15-3.52,2.23-7,1.89-10.58,3.12s-11.86,10.23-14.31,7.69c-.79-.81-.41-5.29-1.77-6.93a6.3,6.3,0,0,0-3.85-2.34q-5,1.14-4.27-3.2c-5.87-8,6.43-14.88,12.25-19-6.14,0-13.6.87-18.27,5.32-4.27,4.08-4.43,7.4-11,8.71-4.15.83-5.35-.87-8.68-.78-2,.05-4.31,1.63-6.4,2-6.61,1-11.68-1.64-16.61-5.79-6.62-5.57-6.93-7.2-16.13-7.17-7,0-13.12.07-19.86-2.14-3.3-1.08-7.17-3.74-10.28-2.54-5,1.91-6.43,11-6.82,16,3.44-2.09,5.69-.79,9.56.64,5.91,2.18,8.16,2.36,11,7.88,3.07,5.85,6.79,11.7,9.16,17.88,1.9,5,2.06,10.63,3.45,16.15.77,3.05,2.27,7.48,2.26,10.65,0,3.68-.66,2.55-1.64,5.26-2.15,5.93-2.62,19.1,5.85,20.09,5.44.63,12.48-4.61,17.42-6.46,1.68-.63,6.85-1.15,7.8-2.19.65-.72-1.22-3.28-.83-4.11a42.87,42.87,0,0,1,4-6.28c1.76-2-.17-1.92,2.58-2.26,2.27-.29,4.61,2.15,6.73,3,4.91,1.85,10.9,2,16.07,1.86a33.63,33.63,0,0,0,16.22-4.06,36.71,36.71,0,0,0,6.35-4.6c2.22-2,3.27-5.76,6-3C291.45,387.9,296.49,380,299.22,378.58ZM276.6,379.7c-3.47,3.88-7.17,6.56-12.45,7.24-3.26.42-8.15.51-11.35-.38-4-1.1-6.8-4-11.24-4.44q.79-3.5,1.45-7-.82-5.58,4.26-3c4-.52,10.47,2.51,14.1,4,4.53,1.85,7.55,3.85,12.46,4C273,380,278.27,377.84,276.6,379.7Z"/><path class="cls-3" d="M162.21,348.25c-.1-3.91-3.3-8.12-3.33-12.79-9.4,5.72-12,15.15-14.73,25.1,2.13-1.47,6.52-1,9.15-1.27,5.22-.48,4,.27,6.14-3.16C160.24,354.88,162.25,349.85,162.21,348.25Z"/><path class="cls-3" d="M309.25,303.33a1.33,1.33,0,0,0,1.63-.52c-2.14-2.81-7.31-2.9-6.63,2.3C305,311.24,308.49,303.33,309.25,303.33Z"/><path class="cls-3" d="M308.15,273.47c-6-.23-6.84,1.54-10.46,6a61.39,61.39,0,0,1-10.21,10.11c-4.3,3.25-8,4.95-11.18,9.19-.69.93-7.24,8.77-3,8.69,1.44,0,8.45-8.49,10-9.74,3.94-3.21,8.75-7.13,13.68-8.66s9,.62,13-3.4c2-2,4.5-6.39,5.91-8.84C313.5,275.27,311.06,273.58,308.15,273.47Z"/><path class="cls-3" d="M317.85,289c-.89,2.8-2.92,4.43-2.28,7.19s1.87,4.56,4.19,3a4,4,0,0,0,3.61,5.41c3.95.09,5-8.31,4.91-11.6C328,286,320.91,279.41,317.85,289Z"/><path class="cls-3" d="M392,309.48c-3.42-8.9-6.72-10.75-16.38-13.23-6.71-1.72-13.7-1.31-20.37-3-1.72-.44-.75-8.3,1.74-10.63-.16.15,4.69-.35,5.91-1.09,9.23-5.52-.51-11.31-5.25-15s-10.22-8.6-16.25-4.59c-4.75,3.16-8.46,5.79-9.67,11.86-.85,4.24-1.6,2.06,2.46,6.1,3.2,3.19,5.36,5.48,5.76,10.32.62,7.62-4.68,16.09-9.63,21.48,3.64.94,6.89-.6,10.72.36,6.31,1.59,10.44,7.19,16.86,8.59,7,1.52,15.64-.65,22.65-1.38,3-.31,6.67,0,9.39-1.22C395.34,315.67,394,314.69,392,309.48Z"/><path class="cls-3" d="M248.19,330.63l-2.62-2.5c-.89-2.12,14.21-6.45,15.71-2.82C263.49,330.6,250.88,332.52,248.19,330.63Z"/></g><g id="Base"><path d="M172.53,445.94c-28.16,0-53.46-20.79-60.6-47.69-2.85-10.72-3.22-29.41,8.79-35.62,13.24-6.85,10.25.47,14.59,7.44,7.72,12.36,11.41,30.1,22.37,40.44A59.4,59.4,0,0,0,224,421C210.81,436.23,193,445.94,172.53,445.94Z"/><path d="M185.66,386.52c-16.75-9.52-23.12,2.92-32.95-18.67C164.7,365.44,181.93,374,185.66,386.52Z"/><path d="M137.53,349.08a50.13,50.13,0,0,0-22.41-1.58c4.09-9.17,15-28.81,26.65-30.09,6.53-.72,11.1,8.68,17.88-.46,1.66,2.56,2.71,6.26-.39,8.54-20.41,15,1.84-6.17-10.93,1.85C140.46,332.29,138.36,339.66,137.53,349.08Z"/><path d="M209.91,319.61c-5.06,0-11.05-3.38-15.81-4.29,5.55-1.41,14.91-3.09,19.11,2.26C212.7,317.93,210.69,319.61,209.91,319.61Z"/><path d="M310.32,324.6c-8.36-1.43-40.34,2.22-44.76-5.71,2.57-9.84,39.89.15,46.12-5.19C310.48,317.43,309.41,320.52,310.32,324.6Z"/><path d="M331.18,450.14c-24.74,0-44.21-4.68-61.75-22.52,24.53,6.87,54.69,11.47,72.1-10.67,4.75-6,10.75-13.75,14.62-20.29,4-6.78,1.44-22.31,3.8-25.73,2.23-3.24,15.47-6.36,19-4.28,8.3,5,4.19,25.12,3,32.87C377.81,427.34,361.73,450.14,331.18,450.14Z"/><path d="M297.32,392c7.43-12.76,53.29-31.14,44.58-2.23C329.06,384.24,309.19,385.77,297.32,392Z"/><path d="M349,361.65c-4.34-5.36-1.15-14.07-5.72-19.53-1.57-1.88-6-.42-6.7-1-6.31-5.52-13.85-7-8.82-15.8,9.12-15.93,35.14,14,38.45,22.68C355.52,347.6,356,359.35,349,361.65Z"/><path d="M269,228.94c-6.08-10.42-13.35-20.53-27.12-19.14,5.29-8-6.85-15.58,10.91-16.62C272.26,192,272.74,215.34,269,228.94Z"/><path d="M249.27,263.21a17.69,17.69,0,0,0-16.8-1.37C239.81,257.33,244.53,256.26,249.27,263.21Z"/><path d="M256.19,232.83c-.9-.89-3.61-2.22-3.39-3.69ZM230.61,231l7-5.37C238.06,230.53,238.25,226.28,230.61,231Z"/><path d="M230.68,248.42a60.57,60.57,0,0,1,7.27-6.09,5.15,5.15,0,0,1-.21,3.05A42.13,42.13,0,0,0,230.68,248.42Z"/><path d="M238.24,321c8.4,0-13.6-27-19.41-28.38,2.95-4.57,10.89-12.82,15.68-15.91,2.77,5,12.52,17.65,15.18,4.72a147.39,147.39,0,0,1,10.1,14.39C238.58,293.44,245.48,321,238.24,321Z"/><path d="M185.64,174.32c-43.57,0-41.7-54.65-.09-53.13C217.1,122.35,214,174.32,185.64,174.32Z"/><path d="M140.08,136c-11.65-6.17-6.78-57.38,4.7-65.17,14.12-9.58,18.48,6.85,20.95,16.65,2.3,9.1,1.18,12.72,10.48,20.31C156.22,110,143.24,115.23,140.08,136Z"/><path d="M176.33,68.31c-2.56-11.47-8.53-23.72-22.78-18.28,2.73-8.07,19.09-28.74,28.87-26.38C207.4,29.7,190.3,61.23,176.33,68.31Z"/><path d="M214,42.44c3.33-13.28-7.06-14.69-13.78-21.78,6.92-5.51,24.13-6.55,33.29-5.18,8.68,1.29,5.3-2.46,9.4,2.73,6.64,8.42-3.63,12.47.71,22.32C233.69,40.72,223.79,42.29,214,42.44Z"/><path d="M287.81,67.24c-4.44-.15-11.64-13.91-15.38-16.29-7-4.43-14.26,2.43-12.16-11.55C264,15,302.45,38.65,304.29,51,293.06,51.08,293,66.54,287.81,67.24Z"/><path d="M319.68,104c-6-6.1-15-4.85-22-1.56-4-9.54-.4-35,14.85-31.93C321.39,72.34,321.73,96.78,319.68,104Z"/><path d="M304.61,149.43c-4.57-5.72-10.81-8.15-17.9-7.86,4-9.35-1.48-31.68,19.45-23.15C317.7,123.12,314.39,142.75,304.61,149.43Z"/><path d="M281.87,189.28c-4.33-10.2-15.25-12-25.07-10.3,8.48-7.9,22.19-33.39,33.81-17C299.77,174.92,283.78,176.69,281.87,189.28Z"/><path d="M445.89,398l-54.27-13.84c9.52-13.92,7.75-16.74,21.7-7.57ZM394.3,383.14,436.78,394c-8-5.28-16.64-13.18-25.49-16.76C399.24,372.35,403.23,370.08,394.3,383.14Z"/><path d="M456.85,352.1,405.24,351l.94-15.9ZM407,349.4l39.11.83-38.4-12.88C407.48,341,406.28,345.8,407,349.4Z"/><path d="M403.43,318.55l-6.14-14.65,49.14,4.41Zm-3.57-12.77c2.28,18.59,24.05,6.2,36.38,3.26Z"/><path d="M387.29,288.6l-11.1-12.36,44.23-4.44Zm-7.71-11.05c7.51,16,21.15,2.39,32.24-3.24Z"/><path d="M361.93,264.61l-14.86-9.11,37.7-10.7Zm-10.8-8.55c12,10.9,16.83,1.15,27-7.66Z"/><path d="M330.17,247.67,312.53,240l28.67-15Zm-13.84-7.85c15.46,6.76,14,3.71,21.21-11.07Z"/><path d="M130,263l-21.84-19.77,36.67,10.36ZM114.49,246.7c10.06,9.1,14.25,18.65,26.37,7.45Z"/><path d="M104.14,286.68,72.73,271l42.2,3ZM80.87,273.21c12.74,6.37,21.79,17.12,30.71,2.19Z"/><path d="M88.46,315.8,44.2,306.86l49.13-6.28Zm-34.15-8.58c13.17,2.66,35.27,14.87,36.66-4.69Z"/><path d="M84.61,348l-50.43-.62,50.43-15.7Zm-40-2.14,38.38.47c.64-3.09.85-9.39,0-12.42Z"/><path d="M42.38,392.41l46.83-25.66,7.73,15.3ZM88.51,369,52.29,388.86l42.19-8C92.52,377,90.84,372.69,88.51,369Z"/><path d="M305.14,453.49c-9.1-1.72-60.93-25.86-55.59-39.05,19.46,9.05,55.84,20.9,76.53,9.68,12.69-6.88,39.87-41.85,24.66-55.12,17-2.2,33.09-19.09,38.07,7.65a53.51,53.51,0,0,1,.82,9.31,78.82,78.82,0,0,1,1-12.85c2.2-12.49,8.67-22.47,8.74-35.91.12-22.62-11.13-43.29-26.77-59a133.8,133.8,0,0,0-28.3-21.36c-9.17-5.27-27.05-9.67-31.89-16.91a20.62,20.62,0,0,1-2.21-4.27,26.23,26.23,0,0,1-.68,5.66c-8.5-7.1-3.86-8.68-1.41-14.54-.94-2.83-2.94-5.59-8.68-9-4.72-2.77-13.4-7.56-20-4.69-.39-5.35,12.91-20.66,15.77-25.65,2.27-4,5.93-7.84,7.36-12.06,1-2.89-2.33-7.76-1.33-9.78,3.74-7.58,11.23-12.47,15.32-20.11,5.53-10.31,2.46-16,4.45-25.66,1-5.06,2.35-9.37,3.46-13.52a23.93,23.93,0,0,1-4.5,9.1c-6.32-19.54-21.8-.07-26.93-10-7-13.6,2-47.08,22.13-39.63,10.76,4,13.14,23.93,9.94,38a46.92,46.92,0,0,0,1.42-17.73C324.77,71.55,318,64.3,312,51.46,310.31,47.81,306.87,31,301.4,31c-6.27,3.2-5.86-2.4-13.15-6.72-7.75-4.59-13.77-2-21.08-4.17C258.59,17.62,251.66,8.62,240.39,7c-14-2-30-1.22-41,4-4.3,2-3.83,5.51-9.48,6.7-4,.84-9.4-3.22-14.81-2C164.46,18.19,157,31.9,151.91,40.23,139.42,60.64,117.34,93.76,128,120.08c-5.71-6.74-4.43,7.7-3.53,10.5,2.27,7,7.58,7.6,11.72,12.28l7.38,1.82-.61,7.68c6.39,12.69,4.53,18.85,19.54,26,9.06,4.32,21.06,7.08,31,5.41,18.06-3,38.73-29.66,46.17-45.77s10.49-50.24-6.42-63c-.61-.46-2.37,27.27-3,30.12-3.07,15.14-6.54,17.68-20.25,15.78a47.85,47.85,0,0,1-8.57-2c6,3.63,9.78,10.06,11.19,18.79.73,4.53-3,20.39-2.89,26.27,3.16-4.92,4.13-10.95,7.65-15.4,4-5,10.51-7.24,14.32-13.7,11.12-18.87,1.93-36,2-55.46,8.89,14.08,12.54,32.12,6,47.92-4.33,10.44-17.74,33.94-30,36.77,0,1.45.31,2.26,1,2.07-6.46,23.66-47.25,12.29-58-.15-21.58-25,8.78-48.68,32.79-50.39a31.06,31.06,0,0,1,10.33.88C182,109.1,178.39,94,172.08,76.76c19.53,5.1,22-21.08,33-26.47,1.59-.78,16.75-.59,19.08-.83,7.75-.81,21.26,1.54,27.94-2.87,2,9.6,29.76,30.47,39.6,28.78-2.92,9.58-7.16,28.93,3.16,36,3.48-1.34,8.27-1,15.15,2.2,21.81,10,1.57,33.49-6.73,44.2-4.22-9.72-18.49-15.11-28-8.59a19.92,19.92,0,0,1,6.13-9.3c3.88-7.86,4.12-21.46,10.7-26.9-2.23.77-4.47,1.51-6.74,2.16a10.94,10.94,0,0,0-4.29,9.28c-3.08,5.93-3.14,14-6.92,20.69-6.47,11.48-18.64,19.83-26.26,31.41a28.28,28.28,0,0,0-2.12,9.38,9.83,9.83,0,0,1-1.44,2.67c12.37-6,28.36,5.1,31.53,18.67,2.45,10.49,1.24,32.28-10.46,26.1-5.56-2.93-6-12.52-13-15.85-11.08-5.27-17.6,1.45-26.44,7.57a32.5,32.5,0,0,1,2.57-12.92c2.75-4.38,6-5.46,7.86-9.07,2.6-5-.32-8.25,4.2-12.07a18.21,18.21,0,0,1,1.54-1.15,4.88,4.88,0,0,1-3.43-1.72c-3,4.45-3.11,9.56-5.3,13.63-3.06,5.67-6.14,11.87-9.2,18.41.13-.28-11.8,24.83-12,12.23l3.76-.71c-5.85-7.12-5.78-13.88-15.75-17.08-9.3-3-21.24.68-26.29,8.16-4.21,6.24,3.81,10.61-5.36,11.47-3.27.31-14-8.74-17.14-10.7,1.64,4,7.74,13.06,7.11,17.14-.32,2-1.91,4.46-4.18,7,9.11-7.17,21.17-8.73,30-16.05-2.05,8.89-7.12,6.59-16.27,11.82-5.09,2.91-13.58,16.13-18.39,10.57l1.16-2.8c-6.44,5.94-15.15,11.89-19.05,14.78-22.74,16.84-41,41.88-41,71.18,0,22.69,20,48.58,12.59,69.35a21.87,21.87,0,0,1-3.12,5.5l5.86-5.93a91.2,91.2,0,0,0,5.81,12.42l-3.59,1.6a9.69,9.69,0,0,1,4.42-.17c-.1,0,27.11,26.67,27.34,27.45.41,1.44-.1,3.75-1.13,6.47,2.23-3.3,5.37-3.82,14.07-2.52l-20.33,17c1.48-3.27,2.53-6,3.41-8.3a123.93,123.93,0,0,1-10.13,16.06c7.51-6.27,15.35-15.37,23.91-20,15-8,34-1.17,51.47-8.29,0,14.68-.43,29.43.09,44.1,11.07-8.29,19-29.83,26.17-42.45l-22.86-3.15c17.68-8.37,57.29-9.93,75,.7l-21,1.37,23.81,48.37L284.6,470c-1,7.6-2.77,15.69-3.11,20.58l-20-40.71c11.75-.77,18.71-4.33,22.63,4.34a17.69,17.69,0,0,1,1.16,6.85l.77-10.83c17.57,8,36.72,3.4,53.56,9,7.1,2.35,15.11,11.85,21.07,16.52L349.45,456.7c6.3-2.15,13.13-8.72,19.44-15.14C352,456.75,327.15,457.66,305.14,453.49ZM233.88,99.68c.84,15.1,2,41.63-17.95,46,.37-6.64-.88-14.91-3.78-20.94a14.45,14.45,0,0,0,9.85.61C230.84,121.64,232.54,107.89,233.88,99.68Zm-60.1-9.38a10.65,10.65,0,0,1-.28,4.36c4.3,5.57,7.38,14.39,9.94,18.68-7.66-1.23-18.61,1.94-25.62,5.25-9.4,4.43-6.11,3-11.54,11.59-4,6.3,2.71,12.34-8.15,10.94-6.19-.8-10.9-13.43-11.53-18.49,4.15,7.09,2.52-13.12,2.52-13.61-.19-10.79.79-22,5.46-32C147.71,48.67,168.72,67.76,173.77,90.3Zm26.28-41.6c-1.73,8.64-17.9,30.42-27.86,24.7-2.83-1.62-2.15-12.18-4.88-14.92-8-8-13-1.22-21.95,1.08,2-9.93,14.36-34,25.49-39.7C188.46,10.9,203.23,32.15,200.05,48.69ZM248.23,37c1.44,11.7-.38,8-12.71,8.79-9.51.61-20.67,4-30,.8,15.6-15.66-29.71-25.91,1.62-36,8.61-2.78,37.45-3.89,46.49,4.9A26.46,26.46,0,0,0,249.52,17c3.06-.92,10.09,1.16,10.35,4.54C260.19,25.78,247.08,27.72,248.23,37Zm43.36,34.38C281.07,78.72,276.33,56.58,268.48,55q-3.35,1.12.29,3.3c-24.49-8-13.11-41.54,10.47-34.69,17.51,5.09,26.88,18.52,31.57,33.24C294.3,57.56,301.75,64.38,291.59,71.41ZM160.34,240.55,155,227.69l14.23,8.88A36.75,36.75,0,0,0,160.34,240.55ZM344.71,397.29c-7-4.77-17.78-5.62-26-5.08-8.84.58-22.07,10.36-29.55,9.15-5.34-.86,11.84-21.72,12.2-22,8.23-6.9,19.32-10.38,29.95-10.94C348.88,367.47,351.25,384.63,344.71,397.29Zm-83-82.76c6.07-8.25,32.75-5,39.43-6.17.52-.09,11.13-1.38,11-1.44,4,2.43,7.51,18.71,4.91,24.22C312.69,324.53,248.83,332.1,261.76,314.53Zm-13.57,16.11-2.62-2.5c-.89-2.12,14.21-6.45,15.71-2.82C263.49,330.6,250.88,332.52,248.19,330.63ZM304,249.45c2.63,2.63,6,3.42,2.9,8.32C303.09,263.69,304.33,252.1,304,249.45Zm1.39,12.16c4.68,1.13,30.89,20.89,30.6,25.44-.48,7.49-29.34-16.54-32.4-16.57A20.29,20.29,0,0,0,305.39,261.61Zm16.4,7.62c-5.1.5-9.07-7.12-13.26-8.92l1.35-6.53C310.5,254.28,327,268.73,321.79,269.24Zm4.59-1.3a16.75,16.75,0,0,0,4.76,1c-3.22,6.65-4.41,5.49-9.12,2.63A14.44,14.44,0,0,1,326.38,267.94Zm9.1,27.78c-.7,1.9-7.37,18.56-10.89,12.49a7.25,7.25,0,0,1-1.12-3.7c-.24.71-.48,1.43-.71,2.17-10-9.08-11.1-12.71-.81-22.71,5.52,6.13,4.55,11.32,2.54,17.49C327.12,297.73,334,296.15,335.49,295.71Zm-15-13.32a148.84,148.84,0,0,0-9.81,11.28l-4.52-2.88C310.55,286.12,313.26,275.33,320.44,282.39Zm6.81,31.25c-4.23,2.83-16.3-10.83-18.76-13.34-4.43-4.5-3.42-2.18-5.36-8.54C310.93,295.28,322.23,306.46,327.25,313.65Zm-18.49-9.87a4.55,4.55,0,0,0-3.64,3.85q-4.79-.44-.9-3.94Q305.62,297.82,308.76,303.78Zm-10.3,1.61a24.42,24.42,0,0,0,4-5.81C305.38,301.22,300.57,305.74,298.46,305.38Zm-9.67.48,2.6-2.81c.61-.67,6.87-6.5,8.31-5.08C303.75,301.95,290,306.12,288.79,305.86Zm-3.37-.09c-3.06.52-8.24.63-10.95,1.53,1.89-1.9,26.27-21.69,25.51-15.37C299.5,295.93,282.93,301.86,285.43,305.77Zm34.77,32.46c13.45,6.6,11.46,19.24,20.46,28.14-12,0-24.21.76-34.84,7a4.92,4.92,0,0,0-4.08-5.48C298,367.09,319.73,341.17,320.2,338.24Zm-6-4.08c-2,5.44-11.9,10-6.18,2.36C310.7,332.94,309.88,334.54,314.23,334.16Zm2.14.52c.45,7.95-14.49,28.94-22.59,33.47C297.74,354.11,311.95,347.32,316.37,334.67Zm-18.07,34a7.52,7.52,0,0,1,5.44,3.81,78.83,78.83,0,0,1-9.17.11A16.69,16.69,0,0,0,298.29,368.65Zm64.94-14.89a13.35,13.35,0,0,0-6.75,8.05c-4,1.58-4.26,7.42-10.32,4.65-4.16-1.9-6-20.75-7.16-20.47-14.21,3.27-29.85-27.5-5.1-31.63,17.83-3,29.38,27.73,40.61,38.61A44.87,44.87,0,0,1,363.23,353.76ZM316.1,247c38.7,13.92,80.51,45.07,80.51,90.24a72.64,72.64,0,0,1-7.08,30.88c-7.55-16.39-21.47-27.71-33.42-40.61-2.36-2.54-2.7-7.35-9.3-11.09-3.81-2.16-16.5-2.46-18.28-4.66,5.62-6.24,12-15.64,9.36-24.56-1.37-4.67-7.47-6.36-8.48-10.73-1-4.2,5.27-9.19,3.73-14.93-2-7.29-9.2-9.31-14.87-12.84,5.74,4.55,10.53,9,12,11.54-1.17-.3-5.11,3.35-6.51,3.35-3,0-7.14-6.29-9.45-7.87-6.84-4.65-19.89-13-20.67-21.79C298,234.43,307.71,240.54,316.1,247Zm-22.36-21.49q7.68,2.48,8.55,10.33C296,231.55,291.86,233.37,293.74,225.46Zm-10.92-10.23c7.67,1.36,16.57,3.58,23,8.19C301.11,226.08,280,226.26,282.82,215.23Zm-1.73,18.34,5.55.72C285.19,235.8,280.43,237,281.09,233.56Zm2.85,4.87c-3.52,6.61-6.08,13.8-11.83,18.94C272.09,251.73,279.63,237.66,283.94,238.43Zm-2.51-6.48c.83-3.5,1.57-4.38,3.72-6.56l6.94-.46C293.66,232.67,288.23,234.43,281.43,231.95Zm-32.61-46.2a10.91,10.91,0,0,1,.85-7.6c9.06-8.5,22.34-29.65,35.58-27.06,22.83,4.48,10.47,26.22,5,37.29-.83-.28,3-6.16,1-7.27,1.91,1.11-10.56,22.89-12.08,24.29C275.32,183.12,270.27,184.77,248.82,185.74Zm25.53,49.47c.17-.87,5.95-22.71,5.06-15.86,6.08,8.76-2.25,24.28-7.5,30.83C271.57,243.16,273.24,241,274.35,235.21Zm-4.28,52.37.3-10.84c.35-.81.92-2,1.65-3.43l-.7.47.71-5.29a8.46,8.46,0,0,1,2.4.35c1.12-2,2.42-4.16,3.82-6.35-3.37,3.41-6.14,3.74-6.14-2.54,10.87-.26,9.86-20.64,17.49-25.23,1.87,3.67-1.19,12.24-5.25,19.31,5.55-6.69,11.65-11.09,16.21-6.81,3.58,3.35,1.25,9-3.44,15.11a7.26,7.26,0,0,1,3-1.2c-1.85,3-1.21,8.2-3.34,11.57-2,3.21-8.25,6.9-11.25,9.92a9.7,9.7,0,0,0-.91,1.11c9.35-7.83,21.34-12.27,29.46-6.54-3.48,3.58-4.92,8.57-9.17,11.49-1.92,1.32-6.32-1.17-8.73.08-4.13,2.13-22,19.18-25.68,18.78-.13-4.16,1.71-8.91,4.77-13.49-1.87-.14-7.88-1.56-5.1-3.78,2.38-1.94,6.17-6.39,10.34-11.25C276,283,271.92,286.11,270.07,287.58ZM269.92,258c-6.86-8.65-18.57-19-23.26-26.37-1.35-2.13,2.34-9.92-2.17-11.18-.36-.1-1.37,10.26-3.16,12.09a74,74,0,0,1-9.58,7.86,17.64,17.64,0,0,1,11.45-2.53c-.2-.72-.2-1.17.07-1.27s.22.45.17,1.3c15,1.89,29.36,21.06,25.6,36-4.69-.38-22.93-27.86-25.64-35.41-.33,3.48-1.76,10.66-2.42,11.69a13.37,13.37,0,0,1-2,2.4A19,19,0,0,1,249.05,255c12,6.43,21,25.44,17.51,38.33a29.88,29.88,0,0,1,1.89,3.58,5.61,5.61,0,0,1,.33-3.29c2.9,3.79,5,2.67,1.89,7.49a22.25,22.25,0,0,0-1.9-3.44c.89,2.32,1.13,4.33.4,5.78-8.58-12.07-31.9,10.07-22.45,15.63-3.82-2.25,12.25-27.32,21.62-11.9-11.12-1.57-11.24,4.11-16.34,11-9.1,12.38-17.61,4.92-29,3.19,8.3-7-25.42-26.75-3-20.08,9.33,2.77,7.53,15.67,11.07,17.74,4.7,2.76-1.55-11.59-2-12.3-2.8-4.16-11.4-12.57-17.46-8.28,0-7.65,14.32-27.12,22.44-27.45,7.87-.32,1.77,8.57,8.85,10.44,4.06,1.08-.57-11.42-.75-11.58,3.82.84,12.89,8.63,19.56,16.74-14.3-20.75-30.66-28.93-48.76.46.25-7.48,3.86-17.53,9.73-24.86-4.49,2.56-8.69,5.58-11.26,9.89-4.86-13,8.81-21.2,16.57-28.8.5-.49,1-.95,1.54-1.37-5.55,3.92-11.41,7.9-16,12.52,2.15-9,3.48-17.46,10.15-24.43C247.18,205.56,269.92,230.61,269.92,258Zm-36.63,71.91c-1.51,3.63-16.6-.7-15.71-2.82l2.62-2.5C222.88,322.74,235.49,324.65,233.29,329.94Zm-17.78-93-2.41,7.47Q208.71,236.35,215.51,237Zm-9.65-16.85c7.2,7.2,4,25.24,4.46,36C206.36,253.1,205.62,220.06,205.87,220.14Zm2.71,71.77c-1.66,1.61-6.35-3.5-10.82-9.14,5.22,9.19,9.59,19.05,11,23.55-9.46,2.55-18.83-28.21-31.44-14.56-3.2-6.41-13.58-13-10.74-21.38a11.59,11.59,0,0,1,15-7.18c.22.08.45.19.68.29a45.22,45.22,0,0,1-3.45-4.16c-.62-2.71,1.35-6.26-.29-9,4-.35,10.6,6.49,16.63,14.81A72.87,72.87,0,0,1,191,253c3.43,6.55,6.69,12.31,10.53,18.42,4.82,7.66,8.5-2.12,7,10.45a10.28,10.28,0,0,1-4.67-2.69C206.92,284.79,208.81,289.63,208.58,291.91Zm-33.39.66c-4.15.52-16.19-11.05-15.1-16.16l1.22-1.88c-5.09,6.71-10.6,11.94-14.32,10.74-5.06-1.64,6.76-11.1,7.86-12.29,5.94-6.41,12-16.38,19.24-21.18-.47,3-5.83,13.28-12,21.68C166.17,274,173,289.81,175.18,292.57Zm4.65,8.42a12,12,0,0,1-4.81-1.73,20.08,20.08,0,0,1,5.36-7.3C182.94,297.19,179.31,297,179.84,301Zm-10.43-3.49c3-2.9.17-1.49,5.65-2.67C173,298.21,174,296.73,169.41,297.5ZM154,285c-1.49,4.47,14.46,23.33,10.9,24.53-4.67,1.57-14.68-17.28-16.92-20.32A8.75,8.75,0,0,0,154,285Zm4.36-5.63c2.87,4.38,6.67,9.09,9.8,13.39,1.87,2.57-4,5.2-2.55,7.08,2.91,3.68,5.78-3.59,6.46.87l-4.34,5.53C162.63,297.16,154.87,290.82,158.39,279.37Zm34.38,28.35c-9.81,2.41-15.35,6.29-24.39,2.06C175.92,294.74,182.48,308,192.77,307.72Zm-10.12-7.57q1.71-3.45,4.18-.46Zm9.58,5.26q-6.13.43-3.44-2.93Q186.6,297.41,192.23,305.41ZM186.61,297a4.2,4.2,0,0,1-.32-4.86c6.36,3.06,10.55,8.53,15.67,13.15C193.45,304.71,193.28,301.2,186.61,297Zm20.68-37.48a17.57,17.57,0,0,1-1.91-3.26C206.82,257.46,209.76,257.35,207.29,259.5Zm-20.68-21c1.35-.18,3.94-5.1,4.45-6.9-2.42-1.27-4.62-2.29-6-2.29-.16-4.68,15.84-6.91,12.31,5.61-1.69-.81-3.53-1.84-5.31-2.79,4,4.6,9,18.53,10.37,22.93,2.31,7.14,1.05,8,1.94,15C200.52,269.06,186.5,241.74,186.61,238.48Zm17.09.46a77.19,77.19,0,0,0-.86,12C199.56,244.35,195.32,240.54,203.7,238.94Zm-5.82-3.79,5.85-1.1C204,237.3,201.37,236.76,197.88,235.14Zm1-1.87v-6.6q3.73,1.23,4.58,5.73Zm-21.8-1.12-1.24-6.72C177.22,227.92,190.21,224.54,177.11,232.15Zm1.19-12.06c4-5.05,30.79-7.71,23.54,3.26C198.25,228.8,177,221.75,178.3,220.09Zm10.49,32.74.86,3.7c-4-4.09-9.18-11.23-9.6-17.19C186.66,239.43,186.46,245.8,188.78,252.84ZM178,240.74c.53,3.48-6.9,4.42-9.88,5.59A48.24,48.24,0,0,1,178,240.74Zm1.74,4.33,2.4,3.38c-9.85-2.52-15.55,9.64-21.61,14.88C155.91,249.77,169.46,248.4,179.74,245.07Zm-25.69,25.36a36.85,36.85,0,0,0-4.35-9.58C157.09,263.09,161.33,260.92,154.05,270.42ZM93.65,337.2c0-34.35,25.42-61.8,53.66-77.95,6.22,15.69-3.67,12.51-4.18,25.67-.34,8.66,11.72,17.23,16.34,23.54-14.48-6-19.73.83-28.59,7.43-8.5,6.34-14.54,12.71-19.75,22.22a37.64,37.64,0,0,0-3.64,9.36c5.34-11.51,16.26-23.37,21.85-27.64,4.45-3.39,15.5-12.81,16.33-13.23a20.43,20.43,0,0,1,10.62,2.95c-1.16,1.2-2.31,2.42-3.45,3.63,4.53-3.45,13.81-1.46,14,8.18.26,10.86-16.46,15.84-21.37,23.9.24-1.56,4.9-10.84,3.41-12.18-.08-.07-8.82,21.78-9.83,22.3-4.7,2.4-16.67-5.86-23.34-2.44-8.5,4.36-4,7.25-8.52,14.43a11.07,11.07,0,0,1-1.55-2.32,53.57,53.57,0,0,1-1.55,9.48A74.31,74.31,0,0,1,93.65,337.2Zm82.19,27.9c-.38-.25-27.75-9.16-33.13-5.7q1.52-3,2.76-6.19c-.53-7,6.73-13.35,11.68-16.9C156,349.11,167.14,357.79,175.84,365.1Zm7.25,6.23a6.71,6.71,0,0,0,6.71-1.48C194.18,377.25,186.17,374.9,183.09,371.33Zm10.46,27.25c-4.43-.43-5-3.64-8.26-5.31-6.47-3.34-10.4-1-17-3.25-16.68-5.8-14.15-11.83-23.65-25.29,7.22-3.45,17.23-4.37,24.62-.9,9.65,4.53,17.49,11.67,21.68,21.39C191.92,387.4,195.69,398.79,193.55,398.58Zm-32.34-51.26a6.56,6.56,0,0,0,4.52-3.28c5.1,9.49,16,15.78,22.82,24C180.14,374.18,164.55,352.36,161.21,347.31Zm63.93,103.48c-7.2,12.73-14.22,25.64-22,38-.09-13.68,0-27.36,0-41ZM110.9,410.94c-7.19-15.65-11.22-41.79,6.63-52.76,19.24-11.83,23.72,9.06,29.42,22,10.48,23.76,27.8,45.23,58.43,41.42,6.34-.79,25.44-12.9,27.33-5,1.76,7.33-17.72,21-23,24.36C174.69,462.87,128,448.11,110.9,410.94Zm134.24,28.44a223.58,223.58,0,0,1-26.56-1.59c5.07-4,19.95-15.84,17.73-23.39-2.83-9.65-19.3,2.66-24.08,3.89-12.6,3.25-27.05.19-38.32-6.13-6-3.36-13.17-8.2-16.43-14.39-.46-.87-4.93-11-2.63-9.54,9.2,5.91,20.43,1.52,29.52,7,11.79,7.14,13.66,14.83,9.78-7-1.64-9.19-2.17-16.49-6.88-24.57-4.38-7.51-20.44-17.15-20.53-28-.37,1.22-.72,2.45-1.1,3.67-1.71,5.87-5.17,3.94-7.33.85-3-4.33,9.48-12.63,11.18-14.25-.32,1.2-.66,2.39-1,3.58a19.41,19.41,0,0,1,3.37-4.08,10,10,0,0,1,2.52-1.71,10.71,10.71,0,0,1-2.45-.6q.91-3.71,1.45-7.49c6.76-6.74,50.11-12.35,45.06,4-2.67,8.63-13.55,3.52-18.78,3a44.47,44.47,0,0,0-8.13.24c7.56,1.32,15,4.1,18.82,6.45,5.44,3.37,9.94,11,15.92,13.05,8.54,3,9.93-1,18.11-1.58,2.6-.17,1.59,3.45,7.47.86a15.12,15.12,0,0,0,3.59-2.22c-4,1.39-4.09-2-8.68,2.09-1.39-6-15.58,1.23-19.56-1.42,9.53-4.21,19.18-2.6,29.08-1.41,2.14-2,3.66-4.18,6.52-5.81,14.11-8,29.71-3.38,44.46.6-3.39,12-30,43.21-3.56,41.16-4.85,3.2-23.43,21-17,28.31,2.93,3.33,23.36-6,28.36-6.63,19-2.55,35.93-.09,18.79,19.36-16.36,18.55-48.87,9.1-68.65,2-6.3-2.25-17.8-10.7-17.92-.18,0,2.8,17.2,19.85,18.55,20.86Q255.53,439.38,245.13,439.38Zm109.7,29.75-13.41-10.52C350.35,457.35,350.38,461.52,354.84,469.13Z"/><path d="M154.45,247.7a29.9,29.9,0,0,0-3.31,3l-.22.54C152.2,250,153.4,248.86,154.45,247.7Z"/><path d="M209.77,164.17s0-.09,0-.13l-.1.16Z"/><path d="M294.88,111.4a9.85,9.85,0,0,0-2.74,1.61c1.12-.39,2.24-.77,3.35-1.19C295.28,111.68,295.09,111.54,294.88,111.4Z"/><path d="M191.55,322.87c-6.39-1.12-12.83-1.19-17.15.9C178.89,324.41,185.63,323.43,191.55,322.87Z"/><path d="M244.38,188.6a17.19,17.19,0,0,0-2.19,1.28A3,3,0,0,0,244.38,188.6Z"/><path d="M266.39,294c.06-.2.11-.41.16-.61a59.59,59.59,0,0,0-4.82-6.67C263.32,289,264.87,291.41,266.39,294Z"/><path d="M401,432.24a48.66,48.66,0,0,0-10.69-4.76C392.87,429.35,396.59,430.58,401,432.24Z"/><path d="M136.25,460a59.24,59.24,0,0,0,2.84-6.16A32.81,32.81,0,0,0,136.25,460Z"/><path d="M195.88,116.58a35.35,35.35,0,0,0,5.58,2.39A21.94,21.94,0,0,0,195.88,116.58Z"/><path d="M285.24,461.08,284.6,470A65.53,65.53,0,0,0,285.24,461.08Z"/><path d="M373.08,437.27l-4.19,4.28A48.84,48.84,0,0,0,373.08,437.27Z"/><path d="M325.08,103.89q-.3,1.23-.64,2.47Q324.79,105.16,325.08,103.89Z"/><path d="M231.76,240.44a20.27,20.27,0,0,0-2.19,1.56Z"/><path d="M387.55,414l20.33,21.09c-2.42-1.15-4.72-2.06-6.87-2.87,5.32,3,10.6,6.45,14.3,8.21L388,412.13c1.88-8,1.59-16.11,1.6-24.12-.34,15.9-5.91,35-13.83,45.88-.87,1.19-1.77,2.31-2.71,3.38,5.54-5.63,10.43-10.26,13.84-10.28a13.37,13.37,0,0,1,3.41.49C387,425,385.65,421.36,387.55,414Z"/><path d="M389.61,388q0-1,0-2Q389.62,387,389.61,388Z"/><path d="M222.71,262.28c5.92-3.38,12.34-6,16.23-9.67C232.59,253,227,256.88,222.71,262.28Z"/><path d="M308.38,226.06c-.09.25-.19.49-.28.72.9,2.71.82,5.47,2.09,8.88A25.39,25.39,0,0,0,308.38,226.06Z"/><path d="M268.45,296.94a3.76,3.76,0,0,0,.32.76C268.67,297.46,268.56,297.2,268.45,296.94Z"/><path d="M108.46,420.13c-5.05,1.11-12.17,4.7-18.93,8.44Z"/><path d="M284.36,254a87.33,87.33,0,0,0-6.11,8.46A43,43,0,0,0,284.36,254Z"/><path d="M275.33,294h.3c3.13-.05,6.68-7.06,9-10.32A49.67,49.67,0,0,0,275.33,294Z"/><path d="M203.94,279.19a125.56,125.56,0,0,0-8.83-14.08C197.41,270.46,200.47,276,203.94,279.19Z"/><path d="M105.7,365.06c.49-6,.34-11.58,1.8-17.59C104.5,353.92,103.27,360.24,105.7,365.06Z"/><path d="M151.42,314.7l1.43-1.51A6.25,6.25,0,0,0,151.42,314.7Z"/><path d="M323.48,304.51c.35-1,.7-2.06,1-3A5.3,5.3,0,0,0,323.48,304.51Z"/><path d="M318.27,248.65q-1.07-.85-2.17-1.69l-.4-.15A22.39,22.39,0,0,0,318.27,248.65Z"/><path d="M191.14,231.2a2.72,2.72,0,0,1-.09.37l1,.53A7.13,7.13,0,0,0,191.14,231.2Z"/><path d="M161.31,274.54l.78-1-.08,0Z"/><path d="M274.43,268.83c-.93,1.64-1.74,3.16-2.41,4.47Q277.19,269.78,274.43,268.83Z"/><path d="M243.45,237.94l-.24,0c.05.19.11.39.19.62Q243.43,238.21,243.45,237.94Z"/><path d="M169.73,91q2.93,5.41,3.77,3.67A15.72,15.72,0,0,0,169.73,91Z"/><path d="M166.74,335.71q.92-3.07,1.77-6.15A11.59,11.59,0,0,0,166.74,335.71Z"/><path d="M256.31,338.7q-.41.38-.85.74a10.64,10.64,0,0,0,1.51-.66Z"/><path d="M297.13,262.32c-4.58,2.82-10.92,10.12-16.56,16.67C286.22,274.13,292.72,268,297.13,262.32Z"/><path d="M100.39,412l-12,12.15C93,420.22,97.4,416.06,100.39,412Z"/><path d="M249.52,17a2.57,2.57,0,0,0-.91.44Z"/><path d="M182.23,263.49c2.44,2.79,5.45,6.13,6.44,7.28,1.3,1.51,5.11,7,9.09,12C192.73,273.91,186.92,265.69,182.23,263.49Z"/><path d="M88.38,424.2c-5.93,5.13-12.15,10-15.92,13.78,3.54-1.58,10.12-5.57,17.07-9.41l-9.77,4.35Z"/></g></svg>