<svg xmlns="http://www.w3.org/2000/svg" viewBox="0 0 500 500"><defs><style>.cls-1{fill:none;}.cls-2{fill:aqua;}.cls-3{fill:#ff0;}</style></defs><title>clan-mongoose</title><g id="Icons"><path class="cls-1" d="M231.57,491.55q3.78.9,4.51,4.17a7.74,7.74,0,0,0,3.23-.75c2.32-1,2.66-3.85,2.41-6.44C234.34,487.28,233.44,479.55,231.57,491.55Z"/><path class="cls-1" d="M123.13,318.85l-.13,0,0,.24Z"/><path class="cls-1" d="M348.88,241.49c-3.91-.59-7.2-1-8.46-.66-11.77,3.22-15.21,14.28-7.82,23.65,8,10.17,13.38,9.38,7,23.42-4.22,9.35-12.56,18.2-19.44,25.73l-1.31-6.55L314,312.71l-.6-7.76-4.93,7.74V304c-12.51,11.36-34.94,19.87-50.34,11.3-9.77-5.43-10.09-12.46-21.17-6.44-3.67,2-11.16,10.27-8.69,15,12.93-3.25-6.5,37.8-9.24,42.48-4.23,7.21-4.62,8.27-3.61,15.46,1.14,8.11,2.93,5.09,5.77,11.81,2.06,4.87.76,9.94,2.46,14.6,1.64,4.5,8.06,7.77,10.42,12.81a48.64,48.64,0,0,1,2.48,6.55l85.74,47.52Z"/><path class="cls-1" d="M396.51,223.34l.7-.42-.75.29A1,1,0,0,1,396.51,223.34Z"/><path class="cls-1" d="M225.78,421.59c-.46-.89-.93-1.78-1.43-2.66-7.39-13-9.59-25.77-25.94-30.34,0,.3.94,16.08,0,16.91a1.84,1.84,0,0,1-.89.44"/><path class="cls-1" d="M140.7,378.2c3.49,5.76,6.86,14.54,4.21,18.23.32.59.6,1.15.86,1.64a65.48,65.48,0,0,1,3.36,7.64c.59-1.89,2-4.63,4.18-4.51.14-.28,17.44,10.37,15.62,13.49-1.48,2.55-13.63-8-14.33-8.74,1.29,8.38-3,13,.52,22.08,2.48,6.46,11.22,10.8,12.91,16.69.31,0,16.75,19.81,18.42,21C199,475,214.31,479.62,227,488.61c1.84-4.43,6.1-10.38,11.9-7.91-2.68-18.46-3.79-37.34-10.79-54"/><path class="cls-1" d="M203.86,165.12c-22.84,5.59-52,30.88-61.37,52.38h0c-1.75,2.81-3.35,5.56-4.82,8.27"/><path class="cls-1" d="M354,32a95.88,95.88,0,0,1,18.08,5.89l2.86-25.07Z"/><path class="cls-1" d="M260.68,155.05c19.13,1.6,38.07,5.07,55.81,12.74,13.79,6,22.5,16.07,38.09,14.18l1.1-.15,10.86-95.34c-20.13-7.76-44.65-8.06-64.42-6.94l-85.2,78.07A152.3,152.3,0,0,1,260.68,155.05Z"/><path class="cls-1" d="M397.06,111.5c-6.33-11.26-16-18.77-27.34-23.71l-10.65,93.48C391.77,175,415.45,144.22,397.06,111.5Z"/><path class="cls-1" d="M119.39,362.62c-1.41-5.79-4.32-10.86-5.42-17-2.06-11.53,5-15.88,6.48-26,1.63-11.24-3.27-25.31-3.4-36.87-.13-11.37-.41-23.8,1.87-35.29L40.77,319Z"/><path class="cls-1" d="M429.26,69.37l-.2-.26c0,.11,0,.23,0,.34Z"/><path class="cls-1" d="M371.32,44.52c-8.72-3.54-18-7.81-20.41-8.37l-1.15-.25"/><path class="cls-1" d="M311,71.46c19.1-.84,39.07,1.06,56.35,8.33"/><path class="cls-1" d="M352.62,237.87c2.85.38,5.21.81,6.66,1.09-6.83-9.85-3.64-7.87,6.15-10,4.44-1,23.72-7.73,27.11-5.88a8.52,8.52,0,0,1,1.67-.94c-.29,0-13.35.08-13.18.38-1.39-2.39,9.56-5.4,6.66-4.8.47-3,33.59-17.84,37.81-21.16a3.9,3.9,0,0,1-4.63-.85q.31-1.82,1.95-1.63c1.35-4.71,14.26-15.22,17.87-20.48,5.84-8.5,10.25-16.9,12.26-27.45,5.35-28.19-5.27-52.22-21.9-74.41.11,1.56,1.57,9.31-.73,9.79-1,.22-35.7-34.77-35.41-36.1a37.21,37.21,0,0,0-11.8-6.78c.76,1,7.35,8.16,5.23,10.33-1.22,1.25-7.07-.56-13.83-3.19"/><path class="cls-1" d="M370.46,81.2a71.54,71.54,0,0,1,28.83,23.91c22.35,32,3.5,68.85-30,81.28a68.07,68.07,0,0,1-11.13,3.24"/><path class="cls-1" d="M345.77,35.08a114,114,0,0,0-32.7-1.49c1.08,1.36,6.12,1.2,6.25,3.33.06,1-6,3-7,2-16,5.46-33.82-.82-49.29,8.56.45.1,10.14,3.9,10.22,5.31.07,1.23-31.89,6.67-31.83,6.65,1,1.19,6.89,3.89,6.26,5.67s-7,2.69-8.32,1.8c-7.19,3.58-17.11.57-23.74,5.75.69,0,6.42,1.12,7.88,1.27a.47.47,0,0,1,.27,0c.16.07,0,.08-.27,0-2.77,1-23.78,18.38-26.15,21.83,2.48-1.19,9.82-6.45,11.86-4.42-2-2-19.09,43.71-20.47,48.19,30.58-28.84,59-60.54,103.54-66.38,4.4-.58,8.92-1,13.5-1.36"/><path class="cls-1" d="M133.55,234c-11.46,25.15-11.4,47.73-7,79.17,1.65-1.11,4.33-5.44,6.18-4.37C133,309,124.9,326.35,125,326c-4.75,12.55-3.82,22.66,1.78,35.54,1-.08,2.61,4,4.55,7.7"/><path class="cls-1" d="M354.74,190.13A36.88,36.88,0,0,1,337,187.33c-5-2-34-10.87-37.15-16.48-6.84.85-16.72-5.64-23.71-7.26-11.61-2.69-24.16-2.93-36-2.69a208.52,208.52,0,0,0-30,3"/><path class="cls-1" d="M190.34,401.95c-1.32-1.41-2.1-2.76-1.63-3.23a3.42,3.42,0,0,1,3.8,1.45,1.81,1.81,0,0,1,.81-1.09c-.7-9.43,2.37-26.53,15.09-12.8-.58-6.34-9.64-33.93-13.37-33.15a.9.9,0,0,0-.23.09.77.77,0,0,1,.23-.09c3.17-.8,16.1,12.13,16.38,15.62,15.28-5.81,15-37.43,6.14-47.11-2.18-2.39-8.78-9.38-12.86-9.52-3.62-.12-14.17,8.36-15.17,7.36-5.29-5.28,16.1-12.8,18.47-13.55,23.84-7.57,14.89-27,22.87-47.38,6.58-16.75,21-28.52,37-35.74,4.29-1.94,4-5.26,8.62-3.62,1.64.59,7.43,7.85,5.2,9.16a6.89,6.89,0,0,1-5.75-4.54c-13.6,8.17-23.05,19.64-30.7,33.83-7.49,13.89-6.84,21.39,2.4,35.05,3.16,4.67,6.93,10.62,11.63,14.32,2.4,1.89,7.69,3.25,9.58,5.47,1.2-.37,12.73-3.86,14.06-2.64,2-.89,38.14-19,37.52-19.34a3.06,3.06,0,0,1,.52,3.67,1.51,1.51,0,0,1,.46.43c3-2.16,3.44,1.48,2.75,3.47a1.64,1.64,0,0,1,1,.72c7-9.18,16.37-15.31,10.25-25.84-.7-1.21-23.13-23.38-13.2-24.5-1.08-11.87,15.36-12.2,27.13-11"/><path class="cls-2" d="M123.28,240.76l-.06-.11q-.27.77-.51,1.6C122.9,241.75,123.09,241.26,123.28,240.76Z"/><path d="M452.86,103.57c-2.13-5.25-20.25-42.37-26-39.95a11.16,11.16,0,0,0-.3,7.84C416,57.6,406.6,45.74,390.74,37.25c-8.53-4.56-19.83-8.94-10,5-1.82-1-3.65-2-5.49-2.87l4-34.93L350,31.21q-2.53-.46-5.12-.8c-4.08-.54-44-3.29-40.83,3.73,1.14,2.56,6.51-1.66,7.49,2.22-5,2.36-53.87-.22-52.22,11.7a16.54,16.54,0,0,0,6.74,3.29c-.35.12-37,7.39-30.28,12.91h0c-7.76,1.57-29,6.21-25.62,11.35.52.78,6.47-.23,7.27.16-3.4,2.32-29.41,18.86-24,23.82,2.06,1.9,5.5-3.15,7.54-2.23a2.17,2.17,0,0,1,.18.63c-4.7,6.19-32.36,50.4-21.27,58.83,2.45,1.86,33.25-37.14,41.53-43.55,23.14-17.9,46.7-30.46,75.4-33.29l-86.41,79.18c-39.26,10.13-72.48,36.65-88.49,77.83-.6,1.53-1.11,3.11-1.57,4.7L36.85,318.16l-1.69,1.55,84.91,47.07c0,.31.06.61.07.93.17,3.73-4.65,25.61.49,26,2.22.19,3.62-5,4.29-6.43.57,2.19,1.67,14.77,5.75,13.39,2.35-.79,2.24-7.72,2.78-9.17,2.55,4.47,6.91,16.94,7.39,3.18,8.37,13.18,4.53,32.57,14.34,44,4.54,5.3,9.62,7.94,13.92,13.92,4.81,6.69,8.16,11.38,15.15,16.37,13.12,9.37,28.52,19,43.22,25.6,16.82,7.55,16.94-3.9,14.95-17.6s-1.42-30.66-4.71-45L325,480.35,352.15,242c11.23,1.74,24.19,3.61,10.59-6.11,3.89-1.15,45.29-7.3,42.71-16.3-.52-1.83-7.38-1.44-8.73-1.93,4.18-2.4,48.56-20.72,44.43-28.9a7.87,7.87,0,0,0-5.15-.48c4.83-9.69,15-15.66,19.47-26.06C463.8,142.79,460.57,122.6,452.86,103.57Zm-332.42,216c-1.47,10.12-8.55,14.47-6.48,26,1.1,6.17,4,11.23,5.42,17L40.77,319l78.15-71.61c-2.28,11.49-2,23.91-1.87,35.29C117.18,294.28,122.08,308.35,120.45,319.59ZM429.26,69.37l-.18.08c0-.11,0-.23,0-.34ZM374.93,12.83,372.08,37.9A95.88,95.88,0,0,0,354,32ZM302.13,79.55c19.76-1.13,44.28-.82,64.42,6.94l-10.86,95.34-1.1.15c-15.59,1.89-24.3-8.22-38.09-14.18-17.73-7.67-36.68-11.13-55.81-12.74a152.3,152.3,0,0,0-43.75,2.56Zm67.59,8.24c11.32,4.94,21,12.45,27.34,23.71,18.4,32.73-5.29,63.46-38,69.77ZM123.22,240.65l.06.11c-.18.5-.38,1-.57,1.48Q122.95,241.41,123.22,240.65Zm-.09,78.2-.09.22,0-.24ZM239.31,495a7.74,7.74,0,0,1-3.23.75q-.73-3.28-4.51-4.17c1.87-12,2.77-4.27,10.15-3C242,491.13,241.62,494,239.31,495Zm83-19.91-85.74-47.52a48.64,48.64,0,0,0-2.48-6.55c-2.37-5-8.79-8.31-10.42-12.81-1.7-4.67-.4-9.74-2.46-14.6-2.84-6.72-4.63-3.69-5.77-11.81-1-7.19-.62-8.25,3.61-15.46,2.74-4.68,22.17-45.72,9.24-42.48-2.47-4.72,5-13,8.69-15,11.08-6,11.4,1,21.17,6.44,15.4,8.57,37.83.06,50.34-11.3v8.68l4.93-7.74.6,7.76,4.92-5.63,1.31,6.55c6.87-7.53,15.22-16.39,19.44-25.73,6.33-14,1-13.25-7-23.42-7.4-9.38-4-20.43,7.82-23.65,1.26-.34,4.55.07,8.46.66Zm74.93-252.16-.7.42a1,1,0,0,0-.06-.14Zm55.73-76.77c-2,10.55-6.42,18.94-12.26,27.45-3.61,5.25-16.52,15.77-17.87,20.48q-1.63-.19-1.95,1.63a3.9,3.9,0,0,0,4.63.85c-4.22,3.32-37.35,18.11-37.81,21.16,2.9-.59-8,2.41-6.66,4.8-.17-.29,12.89-.41,13.18-.38a8.52,8.52,0,0,0-1.67.94c-3.39-1.85-22.67,4.91-27.11,5.88-9.79,2.14-13,.16-6.15,10-1.45-.28-3.81-.7-6.66-1.09-1-.14-2.13-.27-3.28-.39-11.78-1.23-28.22-.9-27.13,11-9.93,1.12,12.5,23.29,13.2,24.5,6.12,10.54-3.27,16.66-10.25,25.84a1.64,1.64,0,0,0-1-.72c.68-2,.28-5.63-2.75-3.47a1.51,1.51,0,0,0-.46-.43,3.06,3.06,0,0,0-.52-3.67c.63.34-35.53,18.46-37.52,19.34-1.33-1.22-12.86,2.28-14.06,2.64-1.89-2.22-7.17-3.58-9.58-5.47-4.71-3.71-8.47-9.65-11.63-14.32-9.24-13.66-9.89-21.16-2.4-35.05,7.65-14.19,17.1-25.65,30.7-33.83a6.89,6.89,0,0,0,5.75,4.54c2.23-1.31-3.56-8.57-5.2-9.16-4.58-1.64-4.34,1.67-8.62,3.62-15.91,7.22-30.38,19-37,35.74-8,20.34,1,39.81-22.87,47.38-2.38.76-23.76,8.27-18.47,13.55,1,1,11.55-7.49,15.17-7.36,4.08.14,10.68,7.13,12.86,9.52,8.85,9.68,9.14,41.3-6.14,47.11-.28-3.49-13.21-16.41-16.38-15.62,3.72-.78,12.78,26.81,13.37,33.15-12.71-13.73-15.79,3.37-15.09,12.8a1.81,1.81,0,0,0-.81,1.09,3.42,3.42,0,0,0-3.8-1.45c-.47.47.31,1.82,1.63,3.23,2,2.13,5.21,4.4,7.21,4a1.84,1.84,0,0,0,.89-.44c.91-.83,0-16.6,0-16.91,16.35,4.57,18.55,17.34,25.94,30.34.5.88,1,1.77,1.43,2.66q1.28,2.5,2.36,5.08c7,16.69,8.12,35.56,10.79,54-5.8-2.47-10.06,3.49-11.9,7.91-12.73-9-28.07-13.62-40.59-22.86-1.67-1.23-18.11-21.08-18.42-21-1.69-5.89-10.43-10.23-12.91-16.69-3.49-9.07.77-13.7-.52-22.08.7.77,12.85,11.28,14.33,8.74,1.82-3.12-15.48-13.77-15.62-13.49-2.13-.11-3.58,2.62-4.18,4.51a65.48,65.48,0,0,0-3.36-7.64c-.25-.49-.54-1-.86-1.64,2.65-3.69-.72-12.47-4.21-18.23-2.8-4.63-5.69-7.31-5.6-3.84-1.32-.87-2.59-2.91-3.75-5.11-1.93-3.66-3.55-7.78-4.55-7.7-5.6-12.88-6.53-23-1.78-35.54-.13.34,8-17,7.65-17.19-1.85-1.08-4.52,3.25-6.18,4.37-4.36-31.44-4.41-54,7-79.17q1.85-4.07,4.12-8.25c1.47-2.71,3.07-5.46,4.82-8.27h0c9.37-21.5,38.53-46.79,61.37-52.38.87-.21,1.73-.41,2.58-.56l3.6-.63a208.52,208.52,0,0,1,30-3c11.85-.24,24.41,0,36,2.69,7,1.62,16.86,8.1,23.71,7.26,3.2,5.61,32.12,14.51,37.15,16.48a36.88,36.88,0,0,0,17.78,2.79c1.12-.11,2.24-.28,3.38-.49a68.07,68.07,0,0,0,11.13-3.24c33.54-12.43,52.39-49.3,30-81.28A71.54,71.54,0,0,0,370.46,81.2q-1.56-.73-3.16-1.41C350,72.52,330.06,70.62,311,71.46q-2.62.12-5.21.3c-4.59.32-9.11.78-13.5,1.36-44.56,5.84-73,37.54-103.54,66.38,1.38-4.47,18.43-50.23,20.47-48.19-2-2-9.38,3.23-11.86,4.42,2.37-3.45,23.37-20.83,26.15-21.83-1.46-.15-7.19-1.24-7.88-1.27,6.63-5.18,16.55-2.17,23.74-5.75,1.32.9,7.73-.11,8.32-1.8s-5.25-4.48-6.26-5.67c-.06,0,31.9-5.43,31.83-6.65-.08-1.42-9.77-5.21-10.22-5.31,15.47-9.38,33.31-3.1,49.29-8.56,1.06,1.06,7.08-1,7-2-.13-2.13-5.16-2-6.25-3.33a114,114,0,0,1,32.7,1.49q2,.37,4,.81l1.15.25c2.44.56,11.69,4.83,20.41,8.37l3.18,1.26c6.76,2.62,12.61,4.44,13.83,3.19,2.12-2.17-4.47-9.34-5.23-10.33a37.21,37.21,0,0,1,11.8,6.78c-.28,1.34,34.38,36.32,35.41,36.1,2.3-.49.84-8.23.73-9.79C447.67,93.92,458.29,118,452.94,146.14Z"/><path class="cls-3" d="M195,353.13a.77.77,0,0,0-.23.09A.9.9,0,0,1,195,353.13Z"/><path class="cls-3" d="M223.73,73.85a.47.47,0,0,0-.27,0C223.77,73.93,223.89,73.92,223.73,73.85Z"/><path d="M158.88,411.86c-1.72-4.22-7.69,6.86-3.26,6.85a3.5,3.5,0,0,0,2.05-3.59c1.82,2.57,8.07,20.31,5.11,20.31C172.69,435.43,159.59,413.6,158.88,411.86Z"/><path d="M185.75,451.83c1.6,6.2,15.3,24.95,22.81,15.67,3,.85-17.69-16-19.22-15.35C188,451.08,182.27,448.31,185.75,451.83Z"/><path d="M221.8,437.35c.23,1.94-.17,13.77,2.43,15.68q-1.54,2.65.36,4.32c6.68,2,6.43-31.88-1.7-32.09C221.44,425.22,221.59,435.67,221.8,437.35Z"/><path d="M199.89,402c2.3,4.21,3.9,5,9.7,6.51,2.54.67,4.42,3.51,7.19,3.42,2-.06,1.64-6.15-.22-6.64-2.17-.57-1.33,3.61-5.09,1.34-2-1.23-8.08-5.08-9.23-5.3-.25-1.13,1.05-9-1.08-9C199.52,392.31,199.4,401.07,199.89,402Z"/></g></svg>