<svg xmlns="http://www.w3.org/2000/svg" viewBox="0 0 500 500"><defs><style>.cls-1{fill:red;}</style></defs><title>classic-battletech-mech_COLOR</title><g id="n2"><polygon points="253.39 401.71 241.01 374.51 232.87 374.51 244.52 401.71 253.39 401.71"/><polygon points="43.3 401.71 37.78 389.23 29.98 390.28 32.81 401.71 43.3 401.71"/><path d="M136.19,231.22c-6.71,2-7.75-5.11-10.2-10.38-1.68-3.61-9.8-15.7-.71-15.26,7.22-.8,8.59,6.81,10.94,12S143.53,229,136.19,231.22Z"/><circle cx="204.62" cy="234.86" r="6.76"/><path d="M206.32,266.84c-6.65-3.46-7.81-5.06-14.17-.27l23.3,12c-3.57,2.18-9.35-3.22-13.42-4.93-7.4-3.11-6.2-3.77-12.83,1.55l20.79,10c-7.48,3.85-15.34-12.87-22.7-2.6l17.33,8.66c-5.39,4.91-12.18-9.22-20.79-1l16.11,7.8c-4.49,2.34-6.53-3.52-11.24-3.29-3.87.19-5.64,6.39-10.16,6.06,3.89-16.11,9.59-31.08,16.2-46.26l24.95,12.82c-4.23,4.7-17.52-11.77-24.52-8.4l25.56,13.08C217.9,275.07,209.93,268.72,206.32,266.84Z"/><ellipse cx="362.12" cy="127.09" rx="2.95" ry="6.06"/><ellipse cx="362.55" cy="146.15" rx="3.38" ry="5.72"/><ellipse cx="362.55" cy="166.68" rx="3.38" ry="5.46"/><ellipse cx="346.09" cy="117.31" rx="3.73" ry="6.32"/><ellipse cx="346.44" cy="135.58" rx="3.38" ry="6.06"/><ellipse cx="346.44" cy="155.08" rx="3.38" ry="5.28"/><circle cx="346.7" cy="234.86" r="6.76"/><circle cx="229.05" cy="247.68" r="5.98"/><circle cx="322.09" cy="247.68" r="5.98"/><path d="M361.54,294.81c-4.7-.23-6.75,5.63-11.24,3.29l16.11-7.8c-8.61-8.18-15.4,5.95-20.79,1l17.33-8.66c-7.36-10.27-15.22,6.45-22.7,2.6l20.79-10c-6.63-5.33-5.43-4.67-12.83-1.55-4.07,1.71-9.85,7.11-13.42,4.93l23.3-12c-6.36-4.79-7.52-3.19-14.17.27-3.61,1.88-11.58,8.23-14.42,5.27L355.07,259c-7-3.36-20.29,13.11-24.52,8.4l24.95-12.82c6.61,15.18,12.31,30.15,16.2,46.26C367.18,301.21,365.41,295,361.54,294.81Z"/><path d="M411.85,235.32c-17.58-18.32,6.21-39.57,26.84-31.47-19-.43-34.2,24.95-12.82,31V209.39c10.57,3.73,6.41,15.89,6.41,26.68,11.84-4.39,12.85-17.1,5-26C465.57,218.3,433.76,258.16,411.85,235.32Z"/><path d="M220.72,350.41,210,325.82l-7.8,1,7.62,23C208.47,349.65,221.15,350.4,220.72,350.41Z"/></g><g id="n1"><path d="M251.4,143.38s12.47-5,20.88-5,22.09,5,22.09,5v5h-43Z"/><path d="M230.09,173.7c4.16-14.73,14.38-15.94,14.38-15.94s-1,17-2.77,26.68-5.37,24.08-5.37,24.08S225.93,188.43,230.09,173.7Z"/><path d="M273.06,229.32c-24.43,0-33.44-14-33.44-14l12.82-57.52h40L304.94,216S297.49,229.32,273.06,229.32Z"/><path d="M309.78,208.53s-3.64-14.38-5.37-24.08-2.77-25.64-2.77-25.64S313.26,163,316,173.7C319.83,188.52,309.78,208.53,309.78,208.53Z"/></g><g id="Base"><polygon class="cls-1" points="232.87 374.51 241.01 374.51 253.39 401.71 379.27 401.71 376.84 349.04 349.12 349.04 341.67 356.31 289.87 355.45 280.34 363.94 268.04 363.94 258.68 356.49 207.4 356.31 197.35 349.04 170.49 349.04 166.33 401.71 244.52 401.71 232.87 374.51"/><path class="cls-1" d="M497.43,235.38c-3.15-3.54-15.41.53-14.9-5.89.33-4.12,13-8.75,14.9-12.94,2.39-5.36,0-16.75,0-22.75-7.13.38-24.92,5.1-28.07-2.25s10.24-19.31,10.06-27.15c-.1-4.36-8.14-13.18-13.46-13.56-6.25-.45-20.57,11.34-26.4,14.55,1-15.26,6.53-50.87-20.93-34.24-19.91,12.05-46.11,42.62-18.22,58.84-2.12,3.4-7.11,16.73-13.17,12.82-1.62-1,.78-7.53-.45-9.21-1.5-2.05-2-3-2-3.43a26.91,26.91,0,0,1-3.09-1.69c-6.87-4.17-10.61,3-8.3-8.41.94-4.68,6.28-8.13,7.08-14,.53-3.92-.38-8.57-1.18-12.42,12.77-2.35,8.81-11.19,6.24-19-.34-1-3.28-5-4-6.8-2.8-6.57-1-10.24-6.39-15.92-10.49-11-36.35-22.29-44.33-3.75-4.61,10.7-1.17,31-.75,41.9.36,9.18,3.52,10.25,5.61,17.8,1.6,5.76,0,14.18,0,20.1-4,.57-7,2-11.44,2.77,4.34-6.59,7.68-8,5.89-19.43-2.12-13.58-3.18-5.26-12.4-11.07-16.74-10.53-13.38-34.95-36.75-36.73-8-.61-18-1.37-25.49,1.8-8,3.37-15,16.75-19.91,24.32-2.59,4-3.84,9.74-7.19,11.57-5,2.74-7.8-1.87-11.47,3.55-3.43,5.06-2.39,20.59,2.68,24.26-9.1-.32-18.84.37-27.83-1-5.43-.82-9.28-3-15.1-2.68-6,.3-7.23,5.61-14.69,3,0,6.94,2.93,17.75-8.91,13.17-2.7-1-7.18-6.52-7-9.75.19-3.69,2.3-1.3,5-4.25,8.17-9.09,13.38-9.13,7.56-22.1-3.46-7.71-9.82-14.36-15.86-20.07-9.45-8.94-23.23-27.64-35.16-13.43-6.6,7.87-2.13,22.14-1.26,33.22-10.46-5.56-27.45-22.23-36.87-7.37-5.48,8.65,5.53,26.19,9.5,36.82-11.85-.76-36.36-9.05-38.6,8.7-1.45,11.44,24.68,16.36,22.66,26.64-2.52,12.85-33.71.62-33,19.85.51,13.3,29.84,9.07,28.48,22.08H71.56c-.26,15.18-4.83,35.17,3.12,48.86-3.7-3.89-7.93-7.77-13.17-7.62V294.29c-22.91,0-34.32,1.66-50,19-11.77,13-8.53,13.6-3,29.63,4,11.69-7.77,24.89,1.77,32.81-12,7.52,4,16.75-3.81,26H32.81L30,390.28l7.8-1,5.53,12.47H148.49c-13.84-12.81-9.47-26.79-9.58-45.53A151.64,151.64,0,0,0,137,331.94c-.2-1.18-4.67-1.72-5-3.86-.24-1.54,4-2.29,4-2.63-.13-2.13-2.07-5.75-2.07-6.21a27.6,27.6,0,0,0,4.5-4.5,8.18,8.18,0,0,0-3.47-3.47c1.2-4.08,3.29-5.35,4.16-10,1.42-7.73-.88-17.06-.85-24.93,0-5.29-1.53-16,2.58-19.77,4-3.65,18.76-3.15,18.71,2.77h-4.5v46.78c8-1.21,30,1.37,34.06,5.52,9.51,9.64,5.22,32,17.45,37.45a13.5,13.5,0,0,0,3.24.83l-7.62-23,7.8-1,10.72,24.58c5.81-.09,11.65-.63,14.24-1.37,7-2,5.32-1.15,9.76-8.74,3.58-6.1,7.81-21,13.58-25,4.15-2.86,9.22-2,15.19-2,4.39,0,14.89-1.9,18.38.51,5.3,3.66,9.73,18.36,12.74,24,2.63,5,3.71,8.06,7.84,10.1,3.44,1.7,25.36,1.89,28.63,0,10.63-6.12,7.1-29.66,16.83-37.22,3.26-2.53,11.79.18,16.15-.55,6.43-1.08,10.6-3.47,18.37-3.47-.45-9.84.83-21.44-1.42-31-2-8.59-3.79-9.65-.66-17.21l-5.54.35c3.09-6,14.94-3.12,21.83-3.12v44.54c0,6.75,2.9,11.19,3.59,16,.49,3.32-1.92,5-1.86,8.11a18.62,18.62,0,0,0,3.47,5.54,4.7,4.7,0,0,1-3.31,3.31c-.51,11.85-1.19,27.56-1.19,40.74,0,16.35,1.75,18.09-11.44,27.67h50.61c19.79,0,23.37,1.44,37.72-11.81,5.55-5.12,8.07-6.34,9-12.44,1.24-7.79-4.17-20.69-5.72-28.42-.68-3.35-1.25-17.51-4-19.75-8.17-6.7-12.48,5.82-11.44-8,.33-4.33,2.24-8.81,3.12-15,1.14-8-3.75-23.19,0-30.21s3.73-1.52,12.82-5.05c-3.5,1.36,6.22-8.48,5-6.84,3.25-4.27,2,1,4.37-3.7C498.58,258.26,499.11,237.27,497.43,235.38Zm-361.24-4.16c-6.71,2-7.75-5.11-10.2-10.38-1.68-3.61-9.8-15.7-.71-15.26,7.22-.8,8.59,6.81,10.94,12S143.53,229,136.19,231.22Zm68.44-3.12a6.76,6.76,0,1,1-6.76,6.76A6.76,6.76,0,0,1,204.62,228.1Zm1.69,38.74c-6.65-3.46-7.81-5.06-14.17-.27l23.3,12c-3.57,2.18-9.35-3.22-13.42-4.93-7.4-3.11-6.2-3.77-12.83,1.55l20.79,10c-7.48,3.85-15.34-12.87-22.7-2.6l17.33,8.66c-5.39,4.91-12.18-9.22-20.79-1l16.11,7.8c-4.49,2.34-6.53-3.52-11.24-3.29-3.87.19-5.64,6.39-10.16,6.06,3.89-16.11,9.59-31.08,16.2-46.26l24.95,12.82c-4.23,4.7-17.52-11.77-24.52-8.4l25.56,13.08C217.9,275.07,209.93,268.72,206.32,266.84ZM362.12,121c1.63,0,2.95,2.71,2.95,6.06s-1.32,6.06-2.95,6.06-2.95-2.71-2.95-6.06S360.49,121,362.12,121Zm.43,19.4c1.87,0,3.38,2.56,3.38,5.72s-1.51,5.72-3.38,5.72-3.38-2.56-3.38-5.72S360.68,140.44,362.55,140.44Zm0,20.79c1.87,0,3.38,2.44,3.38,5.46s-1.51,5.46-3.38,5.46-3.38-2.44-3.38-5.46S360.68,161.23,362.55,161.23ZM346.09,111c2.06,0,3.73,2.83,3.73,6.32s-1.67,6.32-3.73,6.32-3.73-2.83-3.73-6.32S344,111,346.09,111Zm.35,30.67c-1.87,0-3.38-2.71-3.38-6.06s1.51-6.06,3.38-6.06,3.38,2.72,3.38,6.06S348.3,141.65,346.44,141.65Zm3.38,13.43c0,2.92-1.51,5.28-3.38,5.28s-3.38-2.37-3.38-5.28,1.51-5.28,3.38-5.28S349.81,152.16,349.81,155.08Zm-3.12,73a6.76,6.76,0,1,1-6.76,6.76A6.76,6.76,0,0,1,346.7,228.1ZM251.4,143.38s12.47-5,20.88-5,22.09,5,22.09,5v5h-43ZM229.05,253.66a6,6,0,1,1,6-6A6,6,0,0,1,229.05,253.66Zm1-80c4.16-14.73,14.38-15.94,14.38-15.94s-1,17-2.77,26.68-5.37,24.08-5.37,24.08S225.93,188.43,230.09,173.7Zm43,55.62c-24.43,0-33.44-14-33.44-14l12.82-57.52h40L304.94,216S297.49,229.32,273.06,229.32Zm36.72-20.79s-3.64-14.38-5.37-24.08-2.77-25.64-2.77-25.64S313.26,163,316,173.7C319.83,188.52,309.78,208.53,309.78,208.53Zm12.31,45.13a6,6,0,1,1,6-6A6,6,0,0,1,322.09,253.66Zm39.44,41.16c-4.7-.23-6.75,5.63-11.24,3.29l16.11-7.8c-8.61-8.18-15.4,5.95-20.79,1l17.33-8.66c-7.36-10.27-15.22,6.45-22.7,2.6l20.79-10c-6.63-5.33-5.43-4.67-12.83-1.55-4.07,1.71-9.85,7.11-13.42,4.93l23.3-12c-6.36-4.79-7.52-3.19-14.17.27-3.61,1.88-11.58,8.23-14.42,5.27L355.07,259c-7-3.36-20.29,13.11-24.52,8.4l24.95-12.82c6.61,15.18,12.31,30.15,16.2,46.26C367.18,301.21,365.41,295,361.54,294.81Zm50.31-59.49c-17.58-18.32,6.21-39.57,26.84-31.47-19-.43-34.2,24.95-12.82,31V209.39c10.57,3.73,6.41,15.89,6.41,26.68,11.84-4.39,12.85-17.1,5-26C465.57,218.3,433.76,258.16,411.85,235.32Z"/></g></svg>