<svg xmlns="http://www.w3.org/2000/svg" viewBox="0 0 500 500"><title>comstar</title><g id="Base"><path d="M270.82,222.74a.06.06,0,0,1,0-.09l33.9-9.62-33.9-7.53a.06.06,0,0,1,0-.09l18.1-30.6L259,192.92a.06.06,0,0,1-.09,0L250.7,159l-8.23,33.2a.06.06,0,0,1-.09,0l-29.91-17.41,16.71,29.91a.06.06,0,0,1,0,.09L196.64,213l32.5,8.92a.06.06,0,0,1,0,.09l-16.71,29.21,19-11.87,5.66,172.08,10.11-110.55L262.55,499l6.06-258.61,20.3,10.87Z"/><path d="M215.52,137.27A57.47,57.47,0,0,1,238,123.75l6.76-105.15C215.3,20.51,189.12,40.87,171.48,72,181.29,86.1,204.58,120.89,215.52,137.27Z"/><path d="M298.87,150.1A107.43,107.43,0,0,1,312,176.66l38.43-13.48c-.49-31-7.47-59.65-19-83.13Z"/><path d="M260.39,122.48a53.9,53.9,0,0,1,24.53,12.08l43.25-60.68c-17.78-32.43-44.68-53.65-75-55.33Z"/><path d="M315.65,189.8a143.11,143.11,0,0,1,3.4,31.25c0,33.14-11,62.48-27.87,80.54,34.53-23.05,58.65-73.73,59.23-132.76Z"/><path d="M184.44,221.05a143.67,143.67,0,0,1,3-29.25l-39.23-24.38c.23,66.32,30.18,122.34,71.34,140.91C198.61,291.46,184.44,258.7,184.44,221.05Z"/><path d="M191.17,177.67a110.49,110.49,0,0,1,11.09-24L168.66,77.2c-12.35,23.88-19.88,53.41-20.46,85.48Z"/><path d="M250,1C184.13,1,130.73,74.38,130.73,164.91c0,78.51,40.17,144.12,93.81,160.15V325C174.44,309,137,242.08,137,166.3c0-87.83,50.28-159,112.29-159s112.29,71.2,112.29,159c0,73.3-35,138.87-82.65,157.28v.36c51.88-17.78,90.32-82.23,90.32-159C369.27,74.38,315.87,1,250,1Z"/></g></svg>