<svg xmlns="http://www.w3.org/2000/svg" viewBox="0 0 500 500"><defs><style>.cls-1{fill:#fff;}</style></defs><title>conventional-vehicle_COLOR</title><g id="n1"><path class="cls-1" d="M195.27,184.94c1.54-.71,3.14-1.21,4-.84a9.18,9.18,0,0,1,3.42,3s33.35,3,37.06,1.53a48.54,48.54,0,0,1,7.7-2.14h24.51v14.12s-7.41.29-9.69,1.43a35.23,35.23,0,0,0-4.85,3.14s-20-1.71-33.07,0c-9.5,1.24-22.59,3.82-29.08,5.15Z"/><polygon class="cls-1" points="195.27 365.02 195.27 353.26 232.52 365.02 195.27 365.02"/><path class="cls-1" d="M425.59,365H275.07l-10.25-13s-2-12.26-3.42-14.25-12-14-9.12-16.25,2.85-2.28,6.27,0,28.79,21.09,28.79,21.09,2.85-11.12,10.26-9.41,8.55,1.43,8.55,6v9.12l119.44-58.2Z"/><path class="cls-1" d="M411.62,154.45c-3.42,0-7.13-6-10.26-8.55s-20.24-2.28-27.37-2.28-5.13,5.13-11.4,7.41-6,.57-14.25,1.43-13.4,4.28-16.53,5.7-13.11-.29-18.24,0-17.67,9.41-17.67,9.41-20.52,6.56-33.64,5.7a83.55,83.55,0,0,1-25.94-5.42c-5.26-1.82-31-1.64-41-1.49V134.69H425.59v19.76Z"/></g><g id="Base"><path d="M497,168.57A48.39,48.39,0,0,0,485.31,164c-6.84-1.71-35.63-.3-38.77,0-2.37.22-8.16-4.79-12.83-7.61V126.86H187.43V169.6c-3.11-2.63-7.53-5.72-11.4-5.88-6.84-.29-20.52-1.43-22.8,0s-2,4.14-4.56,4.49-2.28-4.75-5.42-5.2-27.37-1.55-30.22,0-3.71,7.26-4,10.4-.57,10.26,4.56,10.55,25.37,2,28.79,0,2.28-2.57,5.42-2.57,3.14,5.7,6.27,5.42,21.38,1.16,23.94,0,2-2.58,4.56-2.86a25.08,25.08,0,0,1,4.85.25v28.14L173.18,216l-1.43-9s-50.17,5.7-53.59,7.41-20.24,12.26-20.24,12.26l-14,1.71-61,36.2L3,302.26s10.55,1.71,13.11,4a74.85,74.85,0,0,1,6.84,8l41.33,10,31.07-11.4,77,14L180.59,339l6.84,1.08v33H433.72V284.69c4.06-3.72,10.08-9.35,12.26-12.07,3.42-4.28.57-16.25.57-16.25s12-11.12,14-12.83-2.85-3.71-4-4.85,4-4.85,8.55-9.41,19.38-6.84,19.38-6.84l.29-13.68L466.5,215v-8.55c0-3.14-4.28-7.13-4.28-7.13L497,194.22ZM195.41,185.09c1.54-.71,3.14-1.21,4-.84a9.18,9.18,0,0,1,3.42,3s33.35,3,37.06,1.53a48.54,48.54,0,0,1,7.7-2.14h24.51v14.12s-7.41.29-9.69,1.43a35.23,35.23,0,0,0-4.85,3.14s-20-1.71-33.07,0c-9.5,1.24-22.59,3.82-29.08,5.15Zm0,180.07V353.41l37.25,11.76Zm230.32,0H275.22l-10.25-13s-2-12.26-3.42-14.25-12-14-9.12-16.25,2.85-2.28,6.27,0,28.79,21.09,28.79,21.09,2.85-11.12,10.26-9.41,8.55,1.43,8.55,6v9.12l119.44-58.2Zm-14-210.56c-3.42,0-7.13-6-10.26-8.55s-20.24-2.28-27.37-2.28-5.13,5.13-11.4,7.41-6,.57-14.25,1.43-13.4,4.28-16.53,5.7-13.11-.29-18.24,0S296,167.71,296,167.71s-20.52,6.56-33.64,5.7A83.55,83.55,0,0,1,236.46,168c-5.26-1.82-31-1.64-41-1.49V134.84H425.74V154.6Z"/><polygon points="268.96 340.74 286.06 356.7 277.51 360.64 268.96 340.74"/></g></svg>