<svg xmlns="http://www.w3.org/2000/svg" width="500" height="500" viewBox="0 0 500 500">
  <title>crescent-hawks_COLOR</title>
  <g id="n5">
    <path d="M250,492.63C116.22,492.63,7.37,383.78,7.37,250S116.22,7.37,250,7.37,492.63,116.22,492.63,250,383.78,492.63,250,492.63Z" style="fill: #33569b"/>
  </g>
  <g id="n4">
    <path d="M166.3,147.44c-4.54.57-8.46,1.06-10.61,1.5-5.36,1.07-14.43,11.34-16.84,14.18H119.94c-6.6,0-26.21,2.14-41.87,5.5-16.16,3.46-33.26,22.06-37.32,40.6-3.93,17.89-1.48,53.14,2.23,64.25,4,11.89,26.4,35.61,29.24,37a1.94,1.94,0,0,0,1.93-.09c1.49-.92,2.62-3.61,2.62-28.7,0-7.61.34-12.67,5.1-18.66s12.6-8.63,16.46-9.24c7-1.08,26.16-1.88,32-2.1v23.43c0,8.48-3.76,23.85-6.46,31.13a27.59,27.59,0,0,1-4.47,8.1,29.28,29.28,0,0,0-3.1,4.85c-2.43,4.85-5.26,13.95-6.69,20a188.87,188.87,0,0,0-2.71,21c-1.2,15.93.64,18.63,2.82,19.18,3.81,1,12.8-5.46,30.27-19.3l5-4c6.5-5.06,14.49-12.55,19.17-17,18.67,38.06,40.5,66.59,66.76,87.24s57.94,34.18,96.48,41.15l-2.11.8c-2.48.93-5.17,1.93-8.12,3.08-20.35,7.91-54.5,7.49-90.7,7.49-25.86-3.91-51.09-10.73-74.48-22.4a243.86,243.86,0,0,1-65.15-47.24,232.12,232.12,0,0,1-45.68-66.15,225.46,225.46,0,0,1-11-157.63,227,227,0,0,1,36.2-71.68A241,241,0,0,1,124.7,58.56a247.15,247.15,0,0,1,73.18-33.32c.42-.12,39.78-3.28,64.31-3.28,3.1,0,6,.05,8.5.16,15.18.69,34.65,5.9,51.23,11.48C256.73,51,201.75,92.06,170.32,146.93,168.95,147.11,167.59,147.28,166.3,147.44Z" style="fill: #edd363"/>
  </g>
  <g id="n3">
    <path d="M155,167c.26,2.25-.63,8.07-4.21,13.67-.63,1-1.19,1.86-1.68,2.6-2.58,3.92-3.64,5.55-2.5,8.68,1.89,5.18,5.08,11.63,9.63,12.94l1.21.35c3.89,1.09,7,2,9.62,5,.6.68,1.14,1.28,1.63,1.8,2.25,2.47,2.68,3,2.38,4.19a8.39,8.39,0,0,1-1.36,2.63,7.5,7.5,0,0,0-1.61,3.79,17.14,17.14,0,0,0,.05,2,4.88,4.88,0,0,1-.24,2.59c-.16.32-.42.77-.71,1.27-2,3.51-3.48,6.33-2,8.14,1.17,1.45,6.26,7.1,8.67,9.58a75.78,75.78,0,0,1,13.81,19.16c1.14,2.34,2,4.11,2.74,5.54a44.2,44.2,0,0,1,4,9.87c2.71,9.39,3.28,15.71,2.45,17.09a180.3,180.3,0,0,1-16.36,20.48c-5.63,5.93-12.22,12.25-14.13,14.07h0l-.57.57c-.13.13-13.16,13.13-22.8,20.63-1.49,1.15-3.19,2.5-5,4-7.72,6.11-23.61,18.7-27.21,18.7h-.08c-.48-.64-.73-2.32-.83-4.59l5.22-4.55c.76-.14,1.64-.83,3-2.23.67-.58,6.42-5.53,9.37-8.35,1.86-1.77,8.2-7.07,14.33-12.2,3.83-3.2,7.44-6.23,9.86-8.31,6.42-5.51,19.15-17.64,24.78-23.62a76.37,76.37,0,0,0,11.5-17c1-2.19,0-5.72-1.49-10.46-.24-.77-.48-1.5-.68-2.17-1.18-4-4.36-11-7.92-17.53-3.74-6.84-12.42-16.66-13.89-17.79-.68-.52-1.21-.94-26.84.57l-5.19.32c-1.29,0-25.68.91-34,2.21C92,251.46,84.05,255,79.32,261c-5.42,6.81-5.83,12.61-5.83,20.69,0,15.66-.46,22.3-1,24.89-5.13-4.72-23.14-24.22-26.45-34.14-3.6-10.8-6-45.08-2.14-62.53S63.71,175,78.75,171.82c15.24-3.27,34.88-5.43,41.19-5.43h20.44l0,0C146.49,166,153.41,166.14,155,167Z" style="fill: #de4207"/>
    <path d="M135.24,280.36c.1,4.59-2.64,14.19-4.46,20.54-.74,2.61-1.39,4.86-1.72,6.33-1,4.63-5.71,12.09-7.79,14.61s-3.42,6.08-5.5,12.72c-1.22,3.93-2.15,13.86-2.75,29.47,0,.23,0,.4,0,.57l-3.21,2.79c.23-9.11,1.83-22.38,3-27.39,1.39-5.9,4.11-14.68,6.43-19.31a27.77,27.77,0,0,1,2.8-4.35,30.62,30.62,0,0,0,4.93-8.93c2.72-7.34,6.66-23.07,6.66-32.26v-23.6l1.9-.12Z" style="fill: #de4207"/>
    <path d="M139.59,262.43c2.52-14.79,5.28,1,5.83,7.25,2,16.15-4.47,34.25-9.75,49.38-2.35,6.73-5.06,13.43-7,20.29-1.28,4.55-1.63,7.77-4.17,11.73-.57.89-6.25,7-6.41,6.37-2.48-10.34,3.08-23,7.38-31.94,6.37-13.24,11.78-25,13.48-39.81C139.84,278.08,138.31,270,139.59,262.43Z" style="fill: #de4207"/>
  </g>
  <g id="n2">
    <path d="M71.72,203c-7.79,9.77-12,26.25-12.84,25.5S52.32,208.13,63.47,197c15-15,32.5-9.09,32.5-9.09S78,195.12,71.72,203Z" style="fill: #fff"/>
    <path d="M212.84,341.26c2.12,0,7.1-2.72,15.06-7.21,3.66-2.07,8.21-4.63,9.14-4.82,2.61-.25,3.61.87,5.1,2.57.39.45.8.9,1.24,1.33,1,1,3.53,3.09,6.4,5.48,3.36,2.75,7.15,5.89,8.9,7.64,3.51,3.51,10.2,5.77,10.48,5.86l2.6.87-.47-2.71c-.07-.36-1.57-9-2.23-11.11a28.38,28.38,0,0,0-1.36-3.17c4.37,4.6,8.72,9.22,9.42,10.12,2.22,2.81,9.75,11.95,14.34,16.54,4,4,7.2,14.5,7.24,14.61l1.07,3.55,1.91-3.18a47,47,0,0,0,4.56-10.28,37.3,37.3,0,0,0,.75-5.45c.15.43.33.86.5,1.3,1.88,4.71,5.87,8.5,9.72,12.18.91.86,1.81,1.73,2.67,2.58,3.43,3.43,11.2,18.21,13.9,23.62l3.1,6.21v-6.94c0-5.42.19-20.22,1-23.65.59-2.38,3.69-6.67,6.13-9.72.49,2.84,1.17,6.67,1.61,8.59.8,3.54,3,6.9,5,9.86a24.93,24.93,0,0,1,2.66,4.5c.85,2.56,2.6,17.19,3.2,22.62l.54,4.82,2.5-4.16c.27-.45,6.69-11.19,7.84-15.75A106.22,106.22,0,0,0,369,386.29c2.27,6.56,5.18,16.48,4.61,23-.9,10.23-4.71,25.52-17.81,40.26-7.51,8.45-13.34,11.95-21.89,15.46a2.14,2.14,0,0,0-1.49-1c-78.1-13-127.31-51-164.56-127.17a2.16,2.16,0,0,0-.59-.73c.07-.08.16-.16.23-.23C174.5,336.78,209.7,341.26,212.84,341.26Z" style="fill: #fff"/>
    <path d="M388.46,117c-4.8,8.67-20,20.33-24,21-7.1,1.28-17.33.28-23.75-.75,3.24-.5,7.34-1,11.1-1.46l.28,0,.26-.13c1.24-.61,5.28-2.86,5.28-5.84a2.09,2.09,0,0,0-.63-1.48c-1.51-1.46-6.69-1.77-22.15-1.34-1.75,0-3.17.09-4,.09-4,0-5.67.9-8.48,2.37-.61.33-1.3.69-2.09,1.08-4,2-9.19,3.38-15.87,4.21a23.13,23.13,0,0,1-4.59,0,7,7,0,0,0,6.35-4.38l.69-2-2.15-.12c-.85,0-20.83-1.09-23-1.09-1.07,0-3.66,1-11.38,4.13s-19.48,7.89-22.5,7.89c-4,0-5.29-.56-8.44-1.91-.85-.37-1.81-.79-3-1.25-5.93-2.38-20.38-3.42-29.42-1.17-5.68,1.43-11.53,4.35-16.23,6.71a66.81,66.81,0,0,1-6.87,3.17,53.42,53.42,0,0,1-8,1.56c32.11-54.07,87.74-94,153.27-109.92l-.05-.19c7.92,2.84,14.83,5.61,19.75,7.76,24.59,10.78,31.81,19.54,39.61,36.35C394.45,93.23,392.94,108.87,388.46,117Z" style="fill: #fff"/>
  </g>
  <g id="n1">
    <path d="M252.46,189.34c-5.13,4.72-14.13,9.13-21.14,6.75-6.47-2.2-9.56-7-4.5-10.7,3.39-2.5,11.93-3.44,16.05-4.14S261.06,181.43,252.46,189.34Z" style="fill: #871812"/>
    <path d="M161.43,287c4.36,7.37-10.27,30-16.52,25.06C139.48,307.83,156.18,280.21,161.43,287Z" style="fill: #871812"/>
  </g>
  <g id="Base">
    <g>
      <path d="M255,177c-12.37-.47-25.53.88-37.26,5.1-2.21.79-8.75,2.47-10.19,4.47-.67.93-1.48,11.65,1.18,11.29,3.16-.42,1.92-4.13,6.36-3.38,3.94.67,7.91,5.88,12.84,6.77,9.76,1.78,17.31-3.37,25.47-8.1,10.85-6.29,23-9.14,35.13-12.33C279.19,176.63,265,177.33,255,177Zm-2.55,12.39c-5.13,4.72-14.12,9.13-21.14,6.75-6.47-2.2-9.56-7-4.5-10.7,3.39-2.5,11.93-3.44,16.05-4.14S261.06,181.43,252.46,189.34Z"/>
      <path d="M60.12,194.23c-14.05,14-5.06,53.45-4,54.4s9.95-31.4,19.76-43.71c7.92-9.93,35.43-19.4,35.43-19.4S79.08,175.3,60.12,194.23ZM71.72,203c-7.79,9.77-12,26.25-12.84,25.5S52.32,208.13,63.47,197c15-15,32.5-9.09,32.5-9.09S78,195.12,71.72,203Z"/>
      <path d="M124,176.41c1.73,3.25,17.08,8.94,10.16,15.67C126.68,199.37,122.68,180.79,124,176.41Z"/>
      <path d="M424.66,75.34A247,247,0,0,0,75.34,424.66,247,247,0,0,0,424.66,75.34ZM250,492.63C116.22,492.63,7.37,383.78,7.37,250S116.22,7.37,250,7.37,492.63,116.22,492.63,250,383.78,492.63,250,492.63Z"/>
      <path d="M391.38,78.82c-8-17.27-15.86-26.84-41.27-38-5.39-2.36-13.11-5.45-22-8.57l-.05-.25c-.13,0-.25.07-.38.1-17.74-6.22-39.88-12.5-56.85-13.28-22.86-1-57.95-.11-73.08,2.5-.3-.07-3.92.86-3.92.86a251.1,251.1,0,0,0-71.35,33.06,244.73,244.73,0,0,0-59.31,56.18A231.14,231.14,0,0,0,26.4,184.38,228.63,228.63,0,0,0,37.82,344.65a235.47,235.47,0,0,0,46.5,67.11,247.47,247.47,0,0,0,66.15,47.79c23.83,11.85,49.53,18.73,75.84,22.63h0s0,0,.07,0c.69.1,73.53-.54,92-7.71,3-1.15,5.63-2.15,8.09-3.07,13.87-5.2,21.52-8.07,31.85-19.69C372,436.3,376,420.29,376.91,409.58c1-11.21-7-30.44-7.37-31.25l-2.62-6.26-.52,6.77c0,.14-1.09,14.12-2.14,18.32-.57,2.28-3,6.9-5,10.57-.73-6.16-2-16-2.79-18.34a24.69,24.69,0,0,0-3-5.3c-1.83-2.72-3.9-5.81-4.57-8.75-.7-3.11-2.15-11.85-2.16-11.93l-.57-3.42-2.28,2.61c-.81.93-7.95,9.18-9.1,13.8-.71,2.86-1,11.58-1.08,17.8-3.3-6.25-8.49-15.6-11.46-18.57-.87-.87-1.79-1.75-2.72-2.63-3.6-3.43-7.31-7-8.94-11a70.06,70.06,0,0,1-3.19-10.63l-3.25.32c0,.11,0,10.78-1,14.91a32.65,32.65,0,0,1-2.44,6.15c-1.39-3.72-3.84-9.39-6.83-12.38-4.49-4.49-11.89-13.49-14.08-16.25-1.55-2-16.94-18-17.6-18.7l-8.55-8.92,5.92,10.84c2.31,4.2,5.91,11.08,6.43,12.8.36,1.18,1.08,4.93,1.63,7.86a22.72,22.72,0,0,1-6.55-4c-1.86-1.86-5.72-5-9.13-7.86-2.7-2.23-5.25-4.33-6.18-5.26-.38-.39-.74-.8-1.09-1.19-1.69-1.9-3.61-4.07-7.87-3.65-1.3.12-3.89,1.53-10.44,5.22-4.47,2.51-11.93,6.72-13.45,6.79-2.38,0-28.77-3.29-42.29-5,2.92-2.81,7.91-7.68,12.33-12.34a181.37,181.37,0,0,0,16.79-21.06c2.1-3.49-.42-13.84-2.11-19.69a46.57,46.57,0,0,0-4.21-10.42c-.71-1.42-1.58-3.18-2.72-5.51a79.08,79.08,0,0,0-14.4-20c-2.38-2.47-7.07-7.67-8.33-9.2,0-1,1.56-3.58,2.15-4.6.34-.58.63-1.08.81-1.45a7.87,7.87,0,0,0,.58-4.26c0-.57-.07-1.11,0-1.67a5.17,5.17,0,0,1,1.06-2.13,11.75,11.75,0,0,0,1.81-3.65c.73-3-.81-4.63-3.16-7.19-.47-.52-1-1.09-1.57-1.76-3.3-3.75-7.14-4.83-11.2-6l-1.19-.34c-2.47-.71-5.19-4.69-7.45-10.92-.54-1.48-.39-1.85,2.16-5.75.49-.77,1.07-1.64,1.72-2.64,3.77-5.93,5.3-13,4.59-16.43-.21-1-.75-3.58-14.77-3,4.24-4.67,10-10.18,12.93-10.77,2-.4,6.1-.92,10.38-1.45,7.5-1,15.26-1.92,18.26-3a73,73,0,0,0,7.26-3.34c4.55-2.28,10.21-5.11,15.54-6.45,8.1-2,22.08-1.11,27.41,1,1.14.46,2.08.86,2.91,1.21a19.92,19.92,0,0,0,9.73,2.19c3.4,0,12.36-3.52,23.74-8.13,4.37-1.77,9.32-3.77,10.14-3.89,1.43,0,11.58.5,19,.89a5.39,5.39,0,0,1-1.55.21c-9.86,0-11.41.26-11.81,2a1.94,1.94,0,0,0,1.25,2.22c2.57,1.29,11.56,2.94,16.24,2.35,7-.89,12.58-2.36,16.92-4.54.82-.4,1.52-.78,2.14-1.1,2.69-1.41,3.79-2,7-2,.84,0,2.3,0,4.08-.09,4.44-.13,15.48-.44,19,.25a11.15,11.15,0,0,1-2.8,2.07c-18.37,2.05-18.56,3.08-18.79,4.38a1.81,1.81,0,0,0,1,2c2.8,1.4,20.94,4.25,31.62,2.34,5.3-1,21.09-13.3,26.28-22.68C396.2,109.75,397.87,92.84,391.38,78.82ZM212.84,341.26c2.12,0,7.1-2.72,15.06-7.21,3.66-2.07,8.21-4.63,9.14-4.82,2.61-.25,3.61.87,5.1,2.57.39.45.8.9,1.24,1.33,1,1,3.53,3.09,6.4,5.48,3.36,2.75,7.15,5.89,8.9,7.64,3.51,3.51,10.2,5.77,10.48,5.86l2.6.87-.47-2.71c-.07-.36-1.57-9-2.23-11.11a28.39,28.39,0,0,0-1.36-3.17c4.37,4.6,8.72,9.22,9.42,10.12,2.22,2.81,9.75,11.95,14.34,16.54,4,4,7.2,14.5,7.24,14.61l1.07,3.55,1.91-3.18a47,47,0,0,0,4.56-10.28,37.31,37.31,0,0,0,.75-5.45c.15.43.33.86.5,1.3,1.88,4.71,5.87,8.5,9.72,12.18.91.86,1.81,1.73,2.67,2.58,3.43,3.43,11.2,18.21,13.9,23.62l3.1,6.21v-6.94c0-5.42.19-20.22,1-23.65.59-2.38,3.69-6.67,6.13-9.72.49,2.84,1.17,6.67,1.61,8.59.8,3.54,3,6.9,5,9.86a24.93,24.93,0,0,1,2.66,4.5c.85,2.56,2.6,17.19,3.2,22.62l.54,4.82,2.5-4.16c.27-.45,6.69-11.19,7.84-15.75A106.22,106.22,0,0,0,369,386.29c2.27,6.56,5.18,16.48,4.61,23-.9,10.23-4.71,25.52-17.81,40.26-7.51,8.45-13.34,11.95-21.89,15.46a2.14,2.14,0,0,0-1.49-1c-78.1-13-127.31-51-164.56-127.17a2.16,2.16,0,0,0-.59-.73c.07-.08.16-.16.23-.23C174.5,336.78,209.7,341.26,212.84,341.26ZM155,167c.26,2.25-.63,8.07-4.21,13.67-.63,1-1.19,1.86-1.68,2.6-2.58,3.92-3.64,5.55-2.5,8.68,1.89,5.18,5.08,11.63,9.63,12.94l1.21.35c3.89,1.09,7,2,9.62,5,.6.68,1.14,1.28,1.63,1.8,2.25,2.47,2.68,3,2.38,4.19a8.4,8.4,0,0,1-1.36,2.63,7.5,7.5,0,0,0-1.61,3.79,17.15,17.15,0,0,0,.05,2,4.88,4.88,0,0,1-.24,2.59c-.16.32-.42.76-.71,1.27-2,3.51-3.48,6.33-2,8.14,1.17,1.45,6.26,7.1,8.67,9.58a75.78,75.78,0,0,1,13.81,19.16c1.14,2.34,2,4.11,2.74,5.54a44.2,44.2,0,0,1,4,9.87c2.71,9.39,3.28,15.71,2.45,17.09a180.3,180.3,0,0,1-16.36,20.48c-5.63,5.93-12.22,12.25-14.13,14.07h0l-.57.57c-.13.13-13.16,13.13-22.8,20.63-1.49,1.15-3.19,2.5-5,4-7.72,6.11-23.61,18.7-27.21,18.7h-.08c-.48-.64-.73-2.32-.83-4.59l5.22-4.55c.77-.14,1.64-.83,3-2.23.67-.58,6.42-5.53,9.37-8.35,1.86-1.77,8.2-7.07,14.33-12.2,3.83-3.2,7.44-6.23,9.86-8.31,6.42-5.51,19.15-17.64,24.78-23.62a76.37,76.37,0,0,0,11.5-17c1-2.19,0-5.72-1.49-10.46-.24-.76-.48-1.5-.68-2.17-1.18-4-4.36-11-7.92-17.53-3.74-6.84-12.42-16.66-13.89-17.79-.68-.52-1.21-.94-26.84.57l-5.19.32c-1.29,0-25.68.91-34,2.21C92,251.46,84.05,255,79.32,261c-5.42,6.81-5.83,12.61-5.83,20.69,0,15.66-.46,22.3-1,24.89-5.13-4.72-23.14-24.22-26.45-34.14-3.6-10.8-6-45.08-2.14-62.53S63.71,175,78.75,171.82c15.24-3.27,34.88-5.43,41.19-5.43h20.44l0,0C146.49,166,153.41,166.14,155,167Zm-15.41,95.47c2.52-14.79,5.28,1,5.83,7.25,2,16.15-4.47,34.25-9.75,49.38-2.35,6.73-5.06,13.43-7,20.29-1.28,4.55-1.63,7.77-4.17,11.73-.57.89-6.25,7-6.41,6.37-2.48-10.34,3.08-23,7.38-31.94,6.37-13.24,11.78-25,13.48-39.81C139.84,278.08,138.31,270,139.59,262.43ZM161.43,287c4.36,7.37-10.27,30-16.52,25.06C139.48,307.83,156.18,280.21,161.43,287Zm-26.18-6.66c.1,4.59-2.64,14.19-4.46,20.54-.74,2.61-1.39,4.86-1.72,6.33-1,4.63-5.71,12.09-7.79,14.61s-3.42,6.08-5.5,12.72c-1.22,3.93-2.15,13.86-2.75,29.47,0,.23,0,.4,0,.57l-3.21,2.79c.23-9.11,1.83-22.38,3-27.39,1.39-5.9,4.11-14.68,6.43-19.31a27.76,27.76,0,0,1,2.8-4.35,30.62,30.62,0,0,0,4.93-8.93c2.72-7.34,6.66-23.07,6.66-32.26v-23.6l1.9-.12ZM166.3,147.44c-4.54.57-8.46,1.06-10.61,1.5-5.36,1.07-14.43,11.34-16.84,14.18H119.94c-6.6,0-26.21,2.14-41.87,5.5-16.16,3.46-33.26,22.06-37.32,40.6-3.93,17.89-1.48,53.14,2.23,64.25,4,11.89,26.41,35.61,29.24,37a1.94,1.94,0,0,0,1.93-.09c1.49-.92,2.62-3.61,2.62-28.7,0-7.61.34-12.67,5.1-18.66s12.6-8.63,16.46-9.24c7-1.08,26.16-1.88,32-2.1v23.43c0,8.48-3.76,23.85-6.46,31.13a27.59,27.59,0,0,1-4.47,8.1,29.28,29.28,0,0,0-3.1,4.85c-2.43,4.85-5.26,13.95-6.69,20a188.81,188.81,0,0,0-2.71,21c-1.2,15.93.64,18.63,2.82,19.18,3.81,1,12.8-5.46,30.27-19.3l5-4c6.5-5.06,14.49-12.55,19.17-17,18.67,38.06,40.5,66.59,66.76,87.24s57.94,34.18,96.48,41.15l-2.11.8c-2.48.93-5.17,1.93-8.12,3.08-20.35,7.91-54.5,7.49-90.7,7.49-25.86-3.91-51.09-10.73-74.48-22.4a243.86,243.86,0,0,1-65.15-47.24,232.12,232.12,0,0,1-45.68-66.15,225.46,225.46,0,0,1-11-157.63,227,227,0,0,1,36.2-71.68A241,241,0,0,1,124.7,58.56a247.15,247.15,0,0,1,73.18-33.32c.42-.12,39.78-3.28,64.31-3.28,3.1,0,6,.05,8.5.16,15.18.69,34.65,5.9,51.23,11.48C256.73,51,201.75,92.06,170.32,146.93,168.95,147.11,167.59,147.28,166.3,147.44ZM388.46,117c-4.8,8.67-20,20.33-24,21-7.1,1.28-17.33.28-23.75-.75,3.23-.5,7.34-1,11.1-1.46l.28,0,.26-.13c1.24-.61,5.28-2.86,5.28-5.84a2.09,2.09,0,0,0-.63-1.48c-1.51-1.46-6.69-1.77-22.15-1.34-1.75,0-3.17.09-4,.09-4,0-5.67.9-8.48,2.37-.61.33-1.3.69-2.09,1.08-4,2-9.19,3.38-15.87,4.21a23.12,23.12,0,0,1-4.59,0,7,7,0,0,0,6.35-4.38l.69-2-2.15-.12c-.85,0-20.83-1.09-23-1.09-1.07,0-3.66,1-11.38,4.13s-19.48,7.89-22.5,7.89c-4,0-5.29-.56-8.44-1.91-.85-.37-1.81-.79-3-1.25-5.93-2.38-20.38-3.42-29.42-1.17-5.68,1.43-11.53,4.35-16.23,6.71a66.78,66.78,0,0,1-6.87,3.17,53.42,53.42,0,0,1-8,1.56c32.11-54.07,87.74-94,153.27-109.92l-.05-.19c7.92,2.84,14.83,5.61,19.75,7.76,24.59,10.78,31.81,19.54,39.61,36.35C394.45,93.23,392.94,108.87,388.46,117Z"/>
      <rect width="500" height="500" style="fill: none"/>
    </g>
  </g>
</svg>
