<svg xmlns="http://www.w3.org/2000/svg" viewBox="0 0 500 500"><defs><style>.cls-1{fill:none;stroke:#000;stroke-miterlimit:10;}</style></defs><title>dark-age</title><g id="Icons"><path d="M250,0C123.73,0,21,102.73,21,229c0,107.11,73.94,197.24,173.45,222.13a150.94,150.94,0,0,1-2-24.48C106.83,401.68,44.13,322.53,44.13,229,44.13,115.48,136.48,23.13,250,23.13S455.87,115.48,455.87,229c0,94.9-64.56,175-152,198.68-.08,2.56,1.12,5.74,1.57,8.22.9,4.86,1.7,9.77,2.26,14.7C406.1,425,479,335.36,479,229,479,102.73,376.27,0,250,0Z"/><path d="M287,62.09V39.32H210.67l.06,22.75C132.71,79.52,74.2,149.27,74.2,232.47,74.2,316,133.14,386,211.6,403.07l.24,96.31L250,464.21,285.05,497l.34.31H287V402.85c78-17.46,136.47-87.2,136.47-170.38S365,79.55,287,62.09Zm5.83,47.82,11.2.43-3.64-10.6,8.81,6.94L312.49,96l3,10.79,9-6.74-3.87,10.52,11.21-.19-9.32,6.23,9.18,6.44-11.2-.43,3.64,10.6-8.81-6.94L312,137l-3-10.79-9,6.74,3.87-10.52-11.21.19,9.32-6.23ZM163.3,112.22l11.2.43-3.64-10.6,8.81,6.94L183,98.28l3,10.79,9-6.74-3.87,10.52,11.21-.19L193,118.89l9.18,6.44-11.2-.43,3.64,10.6-8.81-6.94-3.29,10.72-3-10.79-9,6.74,3.87-10.52-11.21.19,9.32-6.23ZM96.08,231.3l9.32-6.23-9.18-6.44,11.2.43-3.64-10.6,8.81,6.94,3.29-10.72,3,10.79,9-6.74L124,219.25l11.21-.19-9.32,6.23,9.18,6.44-11.2-.43,3.64,10.6L118.71,235l-3.29,10.72-3-10.79-9,6.74,3.87-10.52Zm55.19,69.83-11.2-.43,3.64,10.6-8.81-6.94-3.29,10.72-3-10.79-9,6.74,3.87-10.52-11.21.19,9.32-6.23L112.41,288l11.2.43L120,277.85l8.81,6.94,3.29-10.72,3,10.79,9-6.74-3.87,10.52,11.21-.19-9.32,6.23ZM153.58,167l-11.2-.43,3.64,10.6-8.81-6.94-3.29,10.72-3-10.79-9,6.74,3.87-10.52-11.21.19,9.32-6.23-9.18-6.44,11.2.43-3.64-10.6,8.81,6.94,3.29-10.72,3,10.79,9-6.74-3.87,10.52,11.21-.19-9.32,6.23ZM202.16,352l-11.2-.43,3.64,10.6-8.81-6.94L182.5,366l-3-10.79-9,6.74,3.87-10.52-11.21.19,9.32-6.23-9.18-6.44,11.2.43-3.64-10.6,8.81,6.94L183,325l3,10.79,9-6.74-3.87,10.52,11.21-.19L193,345.58Zm136.47,2.31-11.2-.43,3.64,10.6-8.81-6.94L319,368.28l-3-10.79-9,6.74,3.87-10.52-11.21.19,9.32-6.23-9.18-6.44,11.2.43-3.64-10.6,8.81,6.94,3.29-10.72,3,10.79,9-6.74-3.87,10.52,11.21-.19-9.32,6.23ZM287,318l-2.31,1V493.51L250,461l-35.87,33.06-.44-175.19-2.31-.61a93.64,93.64,0,0,1-.43-171.48l2.31-.52L213,41.64h71.7V146.31l2.31.64a93.63,93.63,0,0,1,0,171Zm56.72-164.13,11.2.43-3.64-10.6,8.81,6.94,3.29-10.72,3,10.79,9-6.74-3.87,10.52,11.21-.19-9.32,6.23,9.18,6.44-11.2-.43,3.64,10.6-8.81-6.94-3.29,10.72-3-10.79-9,6.74,3.87-10.52-11.21.19,9.32-6.23Zm43.48,149.58L376,303l3.64,10.6-8.81-6.94-3.29,10.72-3-10.79-9,6.74,3.87-10.52-11.21.19,9.32-6.23-9.18-6.44,11.2.43-3.64-10.6,8.81,6.94L368,276.39l3,10.79,9-6.74L376.14,291l11.21-.19L378,297Zm8.63-56.91L387,239.59l-3.29,10.72-3-10.79-9,6.74,3.87-10.52-11.21.19,9.32-6.23-9.18-6.44,11.2.43-3.64-10.6,8.81,6.94,3.29-10.72,3,10.79,9-6.74-3.87,10.52,11.21-.19-9.32,6.23,9.18,6.44-11.2-.43Z"/><path d="M191,267.17,235,297.24,202.58,251l48.58,37-25.44-48.58,46.26,37L241.9,227.84l46.26,37-34.7-53.2L299.73,244,265,197.77l41.64,25.44-25.44-37,37,23.13-25.44-34.7,19.37,10.43a79.22,79.22,0,1,0-96.55,119Z"/><rect class="cls-1" width="500" height="500"/></g></svg>