<svg xmlns="http://www.w3.org/2000/svg" viewBox="0 0 500 500"><defs><style>.cls-1{fill:#fff;}.cls-2{fill:#ff0;}.cls-3{fill:#662d91;}</style></defs><title>dark-age_COLOR</title><g id="n3"><circle class="cls-1" cx="250" cy="232" r="225"/></g><g id="n2"><polygon class="cls-2" points="292.34 110.41 303.54 110.85 299.9 100.24 308.71 107.18 311.99 96.46 315.04 107.25 324 100.51 320.13 111.03 331.33 110.84 322.02 117.08 331.19 123.52 319.99 123.08 323.63 133.68 314.82 126.75 311.54 137.46 308.49 126.68 299.53 133.41 303.4 122.9 292.2 123.08 301.51 116.85 292.34 110.41"/><polygon class="cls-2" points="162.8 112.72 174 113.16 170.36 102.56 179.17 109.49 182.46 98.78 185.51 109.56 194.46 102.83 190.59 113.34 201.8 113.16 192.48 119.39 201.66 125.83 190.46 125.39 194.1 136 185.29 129.06 182 139.78 178.95 128.99 170 135.73 173.87 125.21 162.66 125.39 171.98 119.16 162.8 112.72"/><polygon class="cls-2" points="95.58 231.8 104.9 225.57 95.72 219.13 106.92 219.56 103.28 208.96 112.09 215.9 115.38 205.18 118.42 215.97 127.38 209.23 123.51 219.75 134.72 219.56 125.4 225.79 134.58 232.23 123.38 231.8 127.02 242.4 118.21 235.46 114.92 246.18 111.87 235.39 102.91 242.13 106.79 231.61 95.58 231.8"/><polygon class="cls-2" points="150.77 301.63 139.57 301.19 143.21 311.79 134.4 304.86 131.11 315.57 128.06 304.79 119.11 311.53 122.98 301.01 111.77 301.19 121.09 294.96 111.91 288.52 123.11 288.96 119.48 278.36 128.28 285.29 131.57 274.57 134.62 285.36 143.57 278.62 139.7 289.14 150.91 288.96 141.59 295.19 150.77 301.63"/><polygon class="cls-2" points="153.08 167.47 141.88 167.03 145.52 177.63 136.71 170.7 133.43 181.41 130.38 170.63 121.42 177.36 125.29 166.84 114.09 167.03 123.4 160.8 114.23 154.36 125.43 154.79 121.79 144.19 130.59 151.13 133.88 140.41 136.93 151.2 145.89 144.46 142.01 154.98 153.22 154.79 143.91 161.03 153.08 167.47"/><polygon class="cls-2" points="201.66 352.51 190.46 352.08 194.1 362.68 185.29 355.75 182 366.46 178.95 355.68 170 362.41 173.87 351.9 162.66 352.08 171.98 345.85 162.8 339.41 174 339.85 170.36 329.24 179.17 336.18 182.46 325.46 185.51 336.25 194.46 329.51 190.59 340.03 201.8 339.85 192.48 346.08 201.66 352.51"/><polygon class="cls-2" points="338.13 354.83 326.93 354.39 330.57 365 321.76 358.06 318.48 368.78 315.43 357.99 306.47 364.73 310.35 354.21 299.14 354.39 308.45 348.16 299.28 341.72 310.48 342.16 306.84 331.56 315.65 338.49 318.93 327.77 321.98 338.56 330.94 331.82 327.06 342.34 338.27 342.16 328.95 348.39 338.13 354.83"/><polygon class="cls-2" points="343.23 154.36 354.43 154.79 350.79 144.19 359.6 151.13 362.88 140.41 365.93 151.2 374.89 144.46 371.01 154.98 382.22 154.79 372.9 161.03 382.08 167.47 370.88 167.03 374.52 177.63 365.71 170.7 362.43 181.41 359.38 170.63 350.42 177.36 354.29 166.84 343.09 167.03 352.4 160.8 343.23 154.36"/><polygon class="cls-2" points="386.71 303.94 375.51 303.5 379.15 314.11 370.34 307.17 367.05 317.89 364 307.1 355.05 313.84 358.92 303.32 347.71 303.5 357.03 297.27 347.85 290.83 359.06 291.27 355.42 280.67 364.22 287.6 367.51 276.89 370.56 287.67 379.51 280.94 375.64 291.45 386.85 291.27 377.53 297.5 386.71 303.94"/><polygon class="cls-2" points="395.34 247.03 386.53 240.09 383.24 250.81 380.2 240.02 371.24 246.76 375.11 236.24 363.9 236.43 373.22 230.19 364.05 223.75 375.25 224.19 371.61 213.59 380.41 220.52 383.7 209.81 386.75 220.59 395.71 213.85 391.83 224.37 403.04 224.19 393.72 230.42 402.9 236.86 391.7 236.42 395.34 247.03"/></g><g id="n1"><path class="cls-3" d="M287.2,318.49l-2.33,1V494L250,461.55l-36.05,33.06-.45-175.19-2.33-.61A93.79,93.79,0,0,1,154.66,233c0-38.17,23.08-72.06,56.08-86.64l2.32-.52-.27-104.67h72.08V145.81l2.33.64C320,161.09,343,194.9,343,233A93.77,93.77,0,0,1,287.2,318.49Z"/></g><g id="Base"><path d="M250,0C123.73,0,21,102.73,21,229c0,107.11,73.94,197.24,173.45,222.13a150.94,150.94,0,0,1-2-24.48C106.83,401.68,44.13,322.53,44.13,229,44.13,115.48,136.48,23.13,250,23.13S455.87,115.48,455.87,229c0,94.9-64.56,175-152,198.68-.08,2.56,1.12,5.74,1.57,8.22.9,4.86,1.7,9.77,2.26,14.7C406.1,425,479,335.36,479,229,479,102.73,376.27,0,250,0Z"/><path d="M287,62.09V39.32H210.67l.06,22.75C132.71,79.52,74.2,149.27,74.2,232.47,74.2,316,133.14,386,211.6,403.07l.24,96.31L250,464.21,285.05,497l.34.31H287V402.85c78-17.46,136.47-87.2,136.47-170.38S365,79.55,287,62.09Zm5.83,47.82,11.2.43-3.64-10.6,8.81,6.94L312.49,96l3,10.79,9-6.74-3.87,10.52,11.21-.19-9.32,6.23,9.18,6.44-11.2-.43,3.64,10.6-8.81-6.94L312,137l-3-10.79-9,6.74,3.87-10.52-11.21.19,9.32-6.23ZM163.3,112.22l11.2.43-3.64-10.6,8.81,6.94L183,98.28l3,10.79,9-6.74-3.87,10.52,11.21-.19L193,118.89l9.18,6.44-11.2-.43,3.64,10.6-8.81-6.94-3.29,10.72-3-10.79-9,6.74,3.87-10.52-11.21.19,9.32-6.23ZM96.08,231.3l9.32-6.23-9.18-6.44,11.2.43-3.64-10.6,8.81,6.94,3.29-10.72,3,10.79,9-6.74L124,219.25l11.21-.19-9.32,6.23,9.18,6.44-11.2-.43,3.64,10.6L118.71,235l-3.29,10.72-3-10.79-9,6.74,3.87-10.52Zm55.19,69.83-11.2-.43,3.64,10.6-8.81-6.94-3.29,10.72-3-10.79-9,6.74,3.87-10.52-11.21.19,9.32-6.23L112.41,288l11.2.43L120,277.85l8.81,6.94,3.29-10.72,3,10.79,9-6.74-3.87,10.52,11.21-.19-9.32,6.23ZM153.58,167l-11.2-.43,3.64,10.6-8.81-6.94-3.29,10.72-3-10.79-9,6.74,3.87-10.52-11.21.19,9.32-6.23-9.18-6.44,11.2.43-3.64-10.6,8.81,6.94,3.29-10.72,3,10.79,9-6.74-3.87,10.52,11.21-.19-9.32,6.23ZM202.16,352l-11.2-.43,3.64,10.6-8.81-6.94L182.5,366l-3-10.79-9,6.74,3.87-10.52-11.21.19,9.32-6.23-9.18-6.44,11.2.43-3.64-10.6,8.81,6.94L183,325l3,10.79,9-6.74-3.87,10.52,11.21-.19L193,345.58Zm136.47,2.31-11.2-.43,3.64,10.6-8.81-6.94L319,368.28l-3-10.79-9,6.74,3.87-10.52-11.21.19,9.32-6.23-9.18-6.44,11.2.43-3.64-10.6,8.81,6.94,3.29-10.72,3,10.79,9-6.74-3.87,10.52,11.21-.19-9.32,6.23ZM287,318l-2.31,1V493.51L250,461l-35.87,33.06-.44-175.19-2.31-.61a93.64,93.64,0,0,1-.43-171.48l2.31-.52L213,41.64h71.7V146.31l2.31.64a93.63,93.63,0,0,1,0,171Zm56.72-164.13,11.2.43-3.64-10.6,8.81,6.94,3.29-10.72,3,10.79,9-6.74-3.87,10.52,11.21-.19-9.32,6.23,9.18,6.44-11.2-.43,3.64,10.6-8.81-6.94-3.29,10.72-3-10.79-9,6.74,3.87-10.52-11.21.19,9.32-6.23Zm43.48,149.58L376,303l3.64,10.6-8.81-6.94-3.29,10.72-3-10.79-9,6.74,3.87-10.52-11.21.19,9.32-6.23-9.18-6.44,11.2.43-3.64-10.6,8.81,6.94L368,276.39l3,10.79,9-6.74L376.14,291l11.21-.19L378,297Zm8.63-56.91L387,239.59l-3.29,10.72-3-10.79-9,6.74,3.87-10.52-11.21.19,9.32-6.23-9.18-6.44,11.2.43-3.64-10.6,8.81,6.94,3.29-10.72,3,10.79,9-6.74-3.87,10.52,11.21-.19-9.32,6.23,9.18,6.44-11.2-.43Z"/><path d="M191,267.17,235,297.24,202.58,251l48.58,37-25.44-48.58,46.26,37L241.9,227.84l46.26,37-34.7-53.2L299.73,244,265,197.77l41.64,25.44-25.44-37,37,23.13-25.44-34.7,19.37,10.43a79.22,79.22,0,1,0-96.55,119Z"/></g></svg>