<svg xmlns="http://www.w3.org/2000/svg" viewBox="0 0 500 500"><title>davion</title><g id="Base"><polygon points="250.5 1.36 232.83 53.51 232.83 362.9 247.31 362.9 247.31 48.87 250.5 48.87 253.69 48.87 253.69 362.9 268.17 362.9 268.17 53.51 250.5 1.36"/><path d="M293.08,357.11c-3.48,4.06-6.37,15.06-6.37,15.06H214s-2.9-11-6.37-15.06c-4.3-5-18-8.11-18-8.11S203,391.29,207,391.29h86.62c4.06,0,17.38-42.3,17.38-42.3S297.38,352.09,293.08,357.11Z"/><path d="M252.24,395.93H228.48s6,7,8.69,7h28.1c2.66,0,8.69-7,8.69-7Z"/><polygon points="261.22 416.78 261.22 431.85 253.69 424.32 261.22 416.78"/><polygon points="250.21 406.94 239.2 406.94 239.2 412.15 250.21 423.16 261.22 412.15 261.22 406.94 250.21 406.94"/><polygon points="250.21 426.63 239.2 437.06 239.2 442.86 250.21 453.87 261.22 442.86 261.22 437.06 250.21 426.63"/><polygon points="239.49 416.78 239.49 431.85 247.02 424.32 239.49 416.78"/><polygon points="239.2 463.13 239.2 448.07 246.73 455.6 239.2 463.13"/><polygon points="250.5 474.43 261.51 474.43 261.51 469.22 250.5 458.21 239.49 469.22 239.49 474.43 250.5 474.43"/><polygon points="260.93 463.13 260.93 448.07 253.4 455.6 260.93 463.13"/><polygon points="250.79 480.52 233.99 480.52 233.99 492.68 239.2 499.64 250.79 499.64 262.38 499.64 267.59 492.68 267.59 480.52 250.79 480.52"/><path d="M186.19,364.64c.64-1.46.42-4.84,0-6.37-.53-1.94-4.06-7-4.06-7L162,408.77A185,185,0,0,1,98.52,350.9L215.16,254l-28.39,84,10.43,4.64,29-57.36v-32a58.83,58.83,0,0,1,0-106.83V117.24L199.43,71.47a182.25,182.25,0,0,1,26.74-5.63V51.22A198.1,198.1,0,0,0,110.39,388a197.39,197.39,0,0,0,122.73,57.28V430.73a182.31,182.31,0,0,1-69.68-21.17C170.31,396.58,182.16,373.9,186.19,364.64ZM197.2,236,97.72,349.71a182.54,182.54,0,0,1-28.61-73ZM66.83,247.89A183.29,183.29,0,0,1,73,200.8l114.39,12L68.89,275.36A184.31,184.31,0,0,1,66.83,247.89Zm6.51-48.51a183.06,183.06,0,0,1,28.87-59.74l85.71,48.28ZM197.54,72l17.61,74.19-68-50.05A183,183,0,0,1,197.54,72ZM145.87,97l50.74,66.57-93.35-25.36A185.2,185.2,0,0,1,145.87,97Z"/><path d="M433.08,170.76A198,198,0,0,0,274.83,51.22V65.84a182.25,182.25,0,0,1,27,5.7l-26.7,45.7v29.15a58.83,58.83,0,0,1,0,106.83v32l29,57.36L314.52,338l-28.39-84,116.45,96.77a185,185,0,0,1-63.33,57.89l-20.09-57.32s-3.53,5-4.06,7c-.42,1.54-.64,4.91,0,6.37,4,9.23,15.81,31.8,22.68,44.8a182.31,182.31,0,0,1-70.48,21.34v14.55A198.27,198.27,0,0,0,433.08,170.76Zm-5,30.07a184.15,184.15,0,0,1,4.08,74.39L313.94,212.84Zm-114.68-12.9,85.5-48.16a183.05,183.05,0,0,1,28.78,59.59Zm-27.23-41.72L303.73,72.1A183.05,183.05,0,0,1,354,96.26Zm18.54,17.38,50.64-66.43a185.2,185.2,0,0,1,42.47,41.14ZM304.09,236l127.82,40.59a182.54,182.54,0,0,1-28.5,72.91Z"/><path d="M233.12,452.26c-105-8.85-187.72-97.13-187.72-204.37C45.4,143,124.5,56.3,226.17,44.23V41.31A207.93,207.93,0,0,0,103.42,395a207.2,207.2,0,0,0,129.7,60.2Z"/><path d="M442.15,166.93A207.8,207.8,0,0,0,274.83,41.31v2.92C376.5,56.3,455.6,143,455.6,247.89c0,107.44-83,195.84-188.3,204.42v2.91A208.13,208.13,0,0,0,442.15,166.93Z"/></g></svg>