<svg xmlns="http://www.w3.org/2000/svg" viewBox="0 0 500 500"><title>death-from-above</title><g id="Icons"><g id="layer1"><g id="g927"><path id="path4322-0" d="M191.61,180.57l-18.07,18.75,20.65-1.86Zm152.22,1.16L321.12,203l25.45-3.25Zm-161.76,4L3.5,206.73,8,215.48l164.26-19.54Zm310.13.93-174.07,21,1,8.54,171.08-21.24Zm-158.74.5L170.13,204.34l1.15,9.62,151.53-17ZM482,201l-23.62,2.79,2.4,20.43,19.63-2.32,3.44-5.73-17.34,2-.33-2.78,12.53-1.48,3.08-5.07-16.16,1.91-.29-2.44,13.2-1.56Zm-326.07.81-6.28.74.85,7.24-12.13,1.43-.85-7.24-6.34.75,2.4,20.43,6.34-.75-.93-7.88,12.13-1.43.93,7.88,6.28-.74Zm142.26,1.35a3.83,3.83,0,0,0-.58,0,3.53,3.53,0,0,0-2,.85,4.7,4.7,0,0,0-1.2,1.71l-2.61,6.17c-.37.84-.67,1.59-1,2.21s-.49,1.2-.7,1.72-.36,1-.53,1.36-.27.78-.4,1.16c-.22-.35-.46-.7-.71-1.07s-.5-.77-.81-1.21-.66-.93-1.06-1.49-.87-1.23-1.4-2l-3.91-5.41a4.46,4.46,0,0,0-1.58-1.43,3.49,3.49,0,0,0-2.11-.35,3.65,3.65,0,0,0-2.09.95,3.78,3.78,0,0,0-1.17,2.27L271,227.17l6.19-.7,1.12-7.34c.19-1.19.31-2.25.45-3.15s.21-1.8.29-2.63c.2.33.41.66.61,1s.48.73.75,1.15.62.86,1,1.38.75,1.1,1.18,1.75l3.32,4.86a6.27,6.27,0,0,0,.93,1.13,4.08,4.08,0,0,0,.93.58,2.45,2.45,0,0,0,.95.2,5.9,5.9,0,0,0,1.08,0,5.77,5.77,0,0,0,1.06-.21,2.45,2.45,0,0,0,.88-.41,3.56,3.56,0,0,0,.75-.76,5.65,5.65,0,0,0,.69-1.31l2.17-5.44c.56-1.39,1-2.56,1.31-3.46s.62-1.77.89-2.51c.25.82.56,1.65.87,2.5s.73,1.83,1.17,3l2.72,6.9,6.28-.71-7.17-17.39a3.75,3.75,0,0,0-1.64-2,3.49,3.49,0,0,0-1.63-.48Zm157.93.89-7.44.88-8,14.69L429.9,207.1l-7.74.91,14.95,17a6.6,6.6,0,0,0,1.81,1.46,4.32,4.32,0,0,0,2.48.36,4.1,4.1,0,0,0,2.36-1,7.71,7.71,0,0,0,1.46-1.78Zm-326.88.91L106,207.66l-3.46,5.8,9.57-1.13,1.78,15.12,6.31-.75-1.78-15.12,7.28-.86Zm128.05,3a35.16,35.16,0,0,0-4.32.24c-5,.5-8.59,1.86-10.91,3.8s-3.19,4.77-2.82,8.42,2,6.17,4.59,7.62,6.5,1.77,11.51,1.27,8.59-1.86,10.91-3.8S269.4,220.7,269,217s-2-6.14-4.65-7.58a15.84,15.84,0,0,0-7.13-1.51ZM92.06,209a5.41,5.41,0,0,0-.69,0A4.15,4.15,0,0,0,89,210a7.11,7.11,0,0,0-1.43,1.78l-10.9,20,7.47-.88,8-14.69,4.29,5q.6.67,1.25,1.46T98.81,224q-.74,0-1.74.14l-1.89.22-5.12.6-3.19,5.7,23.71-2.8-14.92-17a6,6,0,0,0-1.84-1.42,3.7,3.7,0,0,0-1.77-.43Zm320.82,0a34.57,34.57,0,0,0-4.31.26q-7.47.88-10.89,3.85t-2.78,8.44q.65,5.5,4.63,7.59T411,230.38q7.47-.88,10.89-3.85t2.77-8.47q-.64-5.47-4.69-7.56A15.7,15.7,0,0,0,412.87,209ZM74.62,211.37,51,214.16l2.4,20.43L73,232.27l3.44-5.73-17.34,2-.33-2.78,12.53-1.48,3.08-5.07-16.16,1.91L58,218.72l13.2-1.56Zm153.44.13a19.62,19.62,0,0,0-2.7.11l-13.12,1.48-3.52,5.78,17.75-2a4.65,4.65,0,0,1,2.63.32,2,2,0,0,1,1.11,1.67,1.89,1.89,0,0,1-.82,1.79,4.69,4.69,0,0,1-2.4.89l-17.75,2L210.43,234l6.31-.71-.61-5.41,9.7-1.09,5.15,4.9,8.45-1-4.2-3.55c-.78-.64-1.43-1.12-1.9-1.49a14,14,0,0,0-1.27-.88,6.93,6.93,0,0,0,2.13-1.08,6.48,6.48,0,0,0,2.36-3.7,7,7,0,0,0,.11-2.3,6.05,6.05,0,0,0-1.41-3.49,7.18,7.18,0,0,0-2.75-1.95,10.8,10.8,0,0,0-3.51-.75c-.32,0-.63,0-.94,0Zm156.37,1.07a15.83,15.83,0,0,0-1.75.11l-13.5,1.59-3.64,5.82,18-2.13a2.7,2.7,0,0,1,1.25.13,1.06,1.06,0,0,1,.67,1,1.16,1.16,0,0,1-.42,1.16,2.59,2.59,0,0,1-1.19.42l-18,2.13,1.46,12.43,17.92-2.12a14.76,14.76,0,0,0,3.94-.93,6.89,6.89,0,0,0,2.41-1.55,4.46,4.46,0,0,0,1.12-2,7,7,0,0,0,.12-2.43,4.61,4.61,0,0,0-1.3-2.88A4.45,4.45,0,0,0,389.1,222a4.33,4.33,0,0,0,.94-.64,3.68,3.68,0,0,0,.78-1,4.88,4.88,0,0,0,.49-1.33,5.51,5.51,0,0,0-.81-4,4.67,4.67,0,0,0-1.82-1.58,7,7,0,0,0-2.66-.77A11.84,11.84,0,0,0,384.44,212.57Zm-126.85.67a7,7,0,0,1,2.74.47,3.26,3.26,0,0,1,1.67,1.42,6.47,6.47,0,0,1,.76,2.61,6.85,6.85,0,0,1-.16,2.74,3.43,3.43,0,0,1-1.32,1.76,7.14,7.14,0,0,1-2.56,1.09,36,36,0,0,1-4,.64,39.16,39.16,0,0,1-4,.27,7.61,7.61,0,0,1-2.77-.49,3.47,3.47,0,0,1-1.64-1.42,8.08,8.08,0,0,1-.6-5.35,3.29,3.29,0,0,1,1.29-1.75,7.08,7.08,0,0,1,2.6-1.07,31.06,31.06,0,0,1,4-.67,33.39,33.39,0,0,1,4-.24Zm-50.52.43-22.88,2.57,2.29,20.44,6.34-.71-.84-7.49,11.53-1.3,3.28-5.41-15.37,1.73-.3-2.66,12.44-1.4Zm206.16.67a6.88,6.88,0,0,1,2.74.45,3.26,3.26,0,0,1,1.68,1.41,6.54,6.54,0,0,1,.77,2.6,6.77,6.77,0,0,1-.14,2.74,3.44,3.44,0,0,1-1.31,1.76,7.23,7.23,0,0,1-2.56,1.11,44.56,44.56,0,0,1-8,1,7.52,7.52,0,0,1-2.78-.48,3.47,3.47,0,0,1-1.65-1.42,6.77,6.77,0,0,1-.77-2.63,6.55,6.55,0,0,1,.14-2.71,3.29,3.29,0,0,1,1.28-1.76,7.16,7.16,0,0,1,2.59-1.08,38.14,38.14,0,0,1,8-1ZM37.51,215.85a18.16,18.16,0,0,0-2,.13l-9.63,1.14-3.4,5.79,13.66-1.61a7,7,0,0,1,2.42.12,6.06,6.06,0,0,1,2,.81,4.54,4.54,0,0,1,1.46,1.41,4.41,4.41,0,0,1,.69,1.93,4.49,4.49,0,0,1-.22,2.07,4.79,4.79,0,0,1-1.07,1.67,6,6,0,0,1-1.8,1.23,8.26,8.26,0,0,1-2.37.62L30,232l-.88-7.48-6.34.75L24.29,238l13.66-1.61A14.79,14.79,0,0,0,42.76,235a12.2,12.2,0,0,0,3.62-2.63,10.12,10.12,0,0,0,2.17-3.6,9.36,9.36,0,0,0,.46-4.26,9,9,0,0,0-1.39-3.92,9.27,9.27,0,0,0-2.93-2.87,11.65,11.65,0,0,0-4.12-1.62A14.94,14.94,0,0,0,37.51,215.85Zm309,.79a5.42,5.42,0,0,0-.69,0,4.15,4.15,0,0,0-2.39,1,7.11,7.11,0,0,0-1.43,1.78l-10.9,20,7.47-.88,8-14.69,4.29,5q.6.67,1.25,1.46t1.17,1.26q-.74,0-1.75.14l-1.89.22-5.12.61-3.19,5.7,23.71-2.8-14.92-17a6,6,0,0,0-1.84-1.42,3.7,3.7,0,0,0-1.77-.43Zm147.25,7.08L323,244.35l.81,7.32,173.7-21Zm-322.54.37L10.56,243l-1.66,8.7,163.38-19.62Zm213.55.9a1.93,1.93,0,0,1,1.05.22,1.18,1.18,0,0,1,.58,1,1.3,1.3,0,0,1-.33,1.12,2.42,2.42,0,0,1-1.45.54L373,229.21l-.33-2.81L384.33,225l.49,0Zm-65.55.51L174.37,241.15l.94,7.48,145-15Z"/><path id="rect4600" d="M41.32,97.67l8.74,42.56,40,43.93L33.53,131.54l5.39,35.32,30.5,27.56,70.93-8-2.77-7.83-33.2-38,13.27,32.15Zm417.07,0-76.34,75,13.27-32.15-33.2,38-7,19.82,81.18-9.4,25-22.89,5.39-35.32-57,53.35,40-43.93ZM31.83,175.06l1.8,23.87L68,194.77Zm436.07,0L444,187.86l16.28-2ZM147.1,239.49l-76.73,9.06,21.46,7.71L61.38,250l-25,3.08,7.79,12.79,44.66,14.9-52-3.75L52,293.32l40.14,8.32h-42l15.11,14.23,37.4,3.11-36.35,6.22,24.83,11.08,16.94-.72-24.36,8,21,3.53L126.49,340l-23.3,13.71,27.16-.6,24.4-12.42L134.49,359l21.66-3.94,13.9-11.17-3.63,6.81,16.13-2.91,12.16-11.37.92,7.31,5.12-2.22-3,7.18,16.47,17.79,4.94,18.09,3.43,2.05,10.76.72.21-14h8l1,14.17H257l1-14.17h8l.21,14,10.76-.72,3.43-2.05,4.94-18.09,16.47-17.79-3-7.18,5.12,2.22.92-7.31L317,347.79l16.13,2.91-3.63-6.81,13.9,11.17L365.1,359l-20.26-18.33,24.4,12.42,27.16.6L373.1,340l21.85,7.09,21-3.53-24.36-8,16.94.72,24.84-11.08L397,319l37.4-3.11,15.11-14.23h-42l40.14-8.32L462.72,277l-52,3.75,44.66-14.9,14.18-22.37-61.82,12.73,39.09-14.52-91.14,10.73-.22,16.42-6.95-3.82-8,6.82,6.09,10.65-5,7.86,10.05,3-.06,13.51L341.49,321.1l-44.66-1.95L292.56,327l-9.37,6.39L278.27,358,276.4,375.3l-6.28,1.93-.83-6-14.37,0-1,6.34h-8.29l-1-6.34-14.37,0-.83,6-6.28-1.93L221.33,358l-4.93-24.55L207,327l-4.27-7.86L158.1,321.1,148,306.95l-.06-13.51,10.05-3-5-7.86L159,271.88l-8-6.82-6.95,3.82-.1-19Zm99.55,25.4-5.36,24L244.73,312l3.14,2.16v20.23l1.88.87,2-.87V314.15l3-2.16,3.34-23.12-5.36-24Zm-74.27,5.19-8.29,11.14,11.45,11.27,33.45-.93,9.21-10.22-6.12-9.42Zm154.71,0-39.69,1.83-6.12,9.42,9.21,10.22,33.45.93,11.45-11.27ZM228.32,394.89l-.68,4.45a63.33,63.33,0,0,0,9.83,1.71l.22-4.5A59.35,59.35,0,0,1,228.32,394.89Zm43.05,0a59.36,59.36,0,0,1-9.37,1.67l.22,4.5a63.33,63.33,0,0,0,9.82-1.71Zm-25.76,2.8v4.14a17.73,17.73,0,0,0,8.33,0v-4.14a34.43,34.43,0,0,1-8.35,0Z"/></g></g></g></svg>