<svg xmlns="http://www.w3.org/2000/svg" viewBox="0 0 500 500"><title>dragons-fury</title><g id="Base"><rect x="241.1" y="150.02" width="72.2" height="72.2" transform="translate(212.8 -141.5) rotate(45)"/><rect x="304.72" y="214.2" width="72.2" height="72.2" transform="translate(276.81 -167.69) rotate(45)"/><rect x="176.92" y="214.2" width="72.2" height="72.2" transform="translate(239.38 -77.32) rotate(45)"/><g id="_Group_" data-name="&lt;Group&gt;"><path d="M73.49,259.3a24.74,24.74,0,0,0-8.73.09c2,31.34,7.84,61.75,28.26,86.64-9.07-27.48-22-56.77-19.62-86.31Zm47.18-7.57c3.84,7.11.5,13.34,6.41,20.12s16.71,7.4,22.41,14.85c-13.22,9.69,9.4,1.88,12.24.54a24.18,24.18,0,0,0-7.44,8.75c3.1,1.26,6.53-5.43,9.33-2.43a27.82,27.82,0,0,0-8.31,7.39c8.29,5.26,17.6-12.85,20.22-17,1.11,19-14.8,19-26.54,26.47-3.67,2.33-4.14,5.38-9.14,7.32-7,2.72-17.67,1.4-25.08,1.73,1.74-4.77,13.62-2,11.32-8.32-1.43-4-9.69.37-10.42-5.31,1.37-1.17,7.51-1,7.75-3.26,0-.22.27-6.17-2.15-2.91,1.34-9-3.83-4.61-8.38-5.71a6.15,6.15,0,0,0,.66-5.88l-2.7,1.13c-.15-1.78-6.28-10.74-7.42-12.43-4.66-6.9-12.48-11.49-20.08-14.61l-.18.44c1,14.45,2.65,33.3,10,46.13h0c9.13,18.09,18.43,41.41,34.72,53.92l-.22.28c3.75,5.16,9.19,9.23,13.83,13.61,2.28,2.15,4.75,4.09,7.06,6.21,3,2.79,5.78,5.88,8.84,8.63,8.54,7.7,19.2,12.56,29.66,17.3l15.83,7.16a72.54,72.54,0,0,0,12.47,4.76l0,.14c62.22,15.89,142.93,9.89,185.64-45l.42.34c28.31-32,48-68.93,49-112.68-5.39,12.28-6.67,26.76-11.15,39.48a228.48,228.48,0,0,1-17.1,37.48l-.19.13c-9.68,16.3-22.6,30.53-37,42.89a111.24,111.24,0,0,1-15.18,11.3c-3.06,1.84-6.25,3.44-9.44,5q-13.56,6.67-27.48,12.58l0-.11c-15.5,3.61-28.88,9.67-45.07,10-13.52.27-27.21-1.79-40.51-4.08-20.09-3.46-57.6-12-71.91-27.79,30.58,13.32,59.74,21.8,93,24.46l0,.33c5.26-.28,31-2.59,31.35-3.31a5.37,5.37,0,0,0-2-4.68c6.81-2.92,15,.47,21.95-2a11.06,11.06,0,0,0-4.46-4c5.63-5.59,21.57.67,25.68-4.79,2.41-3.2-7.81-4.14-6.92-7.38.54-2,12.8-4.76,15.71-5.63l0,0c2-.39,15.09-2,15.26-4.89s-6.11-1.89-6.89-4.32c-.85-2.63,24-8.92,25.8-10.07,11.76-7.7-2.4-2.59-6.63-7.33-3.37-3.77,27-13.78,27.43-15.25,2.31-7.34-6.62-3.66-12.88-6.23-1.33-2.47,11.33-8.69,13-9.71l-.2-.27c1.57-1.23,19.24-12.12,19-12.43-1.46-2.33-12.4-.19-14.7,0-2.17-6.12,24.11-25,22.26-27-1.18-1.32-11.92,2.67-12.55,2.84.45-2.8,18.15-27.42,17.13-28.69-1.35-1.67-9.1,3.68-11.15,3.62a148.76,148.76,0,0,1,4.51-16.57.17.17,0,0,1,0-.06c1.88-4.72,9.06-15.81,8.29-19.71-3.87.22-6.68,3.67-10.19,5.33-2.79-7.69,6.47-27.91,4-32-4.4-7.29-.81,2.6-7.21,1-1.46-.36-2.32-10.78-2.5-12.95h.06c-.5-4.64,3-12.45.73-16.59a63.64,63.64,0,0,0-4.41,7c-.06-3.57-.33-19.71-3-22.23a14.48,14.48,0,0,1-3.45,6.46c-2.48.85-2-15.6-2.5-16.61l-3.06,2.31c0-16.54-20.56-26.42-32.05-35.81h0C343.87,93.61,305.62,83,269.67,84.79v-.08c-27.8-1.77-55.22,7.37-78.64,21.89-19.05,11.81-51.84,34.84-59.42,57.09l-.14,0c-10.55,17.13-14.28,26.09-5.16,45.06,6,12.53,5.57,14.41-1.67,24.92C119.5,241.05,119.3,242.74,120.67,251.73ZM168,49.64a33.69,33.69,0,0,1,9.49-9.48c.71,4-4.86,8-2.66,11.42A67.87,67.87,0,0,1,192,35.45q-1,4.85-2,9.69c5.69-3.56,9.39-11.4,16.85-11.81q-.67,2.35-1.34,4.71A15.31,15.31,0,0,0,213.29,34c.18,2.56,37.64-3.22,41.4-3.47,19.62-1.3,39.43-1.71,58.93,1.24l0,.12c58.86,11.63,105.7,39.84,142.72,87.34l.14-.11c22.07,29,38.63,69.46,39.63,106.17h.13c4.62,30.86-2.34,76.66-14.27,107.91h0C471.86,361,456.09,377.27,440,400.3l-.43.74c-33.41,43-91.14,63.57-143.65,69.08l-.12,0c-55,9.8-117.71-12.92-159.13-48.51l-.21.24c-25.14-21.24-43.84-47.68-60.88-75.8l.09-.06C61.42,324.48,55,290.14,54.81,264.84l-.12-.11c-5.69,5.85-6.58,15-12.91,20.31l-.21,0c-2.85,12.55-.53,4.38-5.2,8.46-.16,2.19,2.35,4.49,1.39,6.3-.65,1.22-5.62,1-5.63.83.06,3.46,3.23,5,4.37,8.06,1,2.78-6.42.77-7.17,1.7-2.59,3.14,9.4,5.29,9.38,5.21.76,2.26-7.38,3.1-7.5,3.12.4,5.1,8.48,2.46,10.94,5.63-4.21,3.46-7.77.23-11.43,1.62-1.19.45-4.39,4.42-5.24,4.41-6.26-.09-9.95-5.54-15.29-9.64-9-6.94-6.81-4.86-1.23-15.66,4.3-8.32,11.59-21.78,12.9-30.95l.2-.2c2.53-4.18,6.49-11.71,6.35-16.86s-2.85-1.28-3.58-5.11c-.64-3.33-4-12.45-3.9-14.77.23-10.5.45-.85,8.1-6.85.94-.74-14.68-9.62-13.45-13.59a9.82,9.82,0,0,1,8.47.18l.3-.13a8.22,8.22,0,0,0,6.51-.77c-4.26-8.86-20.64-16.1-15.86-29.62,2,1.38,11.19,10,14.61,7.45,3.22-2.42-2.5-18.78.45-23.73l0,0c5.44-9.06,1-25.54,10.92-33,2,7.44,3.77,26.57,10.42,21.75,2.71-2,1.34-18.38,2.14-22,1.42-6.43,3.73-12.71,8.6-17.38,1.27,2.64,3,17.17,6.82,17.38,4.88.26,5-15.32,6.11-18.38l-.14-.06a170.85,170.85,0,0,1,14-26.07c-.35,3.51-4.19,16.36-.64,19.24,11.5-1.25,15.55-33.05,27.86-39.1a76.48,76.48,0,0,0-4.91,15.93c5.06,2.19,9.45-11.29,11-13.36,4.17-5.5,9.53-9,15.16-12.94l-2.07,8.66c4.81-2.75,6.58-8.7,10.14-12.59,4.28-4.68,10.25-8.23,15.25-12,.77,4.15-3.27,8.61-1.25,12.33a30.17,30.17,0,0,0,8.48-8.88Zm-112,186a19.76,19.76,0,0,0,.4-9.36,70.57,70.57,0,0,1-5.7,8.39c-2.11,2.54-4.59,4.8-6.37,7.57l.57.14A59.74,59.74,0,0,0,55,237a2.4,2.4,0,0,0,.7-.61A2.33,2.33,0,0,0,56,235.68Z"/><path d="M277.2,367.29l-52.82-52.82,52.82-52.82L330,314.47Zm-49.28-52.82,49.28,49.29,49.28-49.29L277.2,265.19Z"/></g></g></svg>