<svg xmlns="http://www.w3.org/2000/svg" viewBox="0 0 500 500"><title>eridani-light-horse</title><g id="Icons"><path id="path4567" d="M250,2.5C113.31,2.5,2.5,113.31,2.5,250S113.31,497.5,250,497.5,497.5,386.69,497.5,250h0C497.5,113.31,386.69,2.5,250,2.5Zm0,33.24c117.89,0,213.61,95.27,214.22,213.15-21.83-37.45-54.61-64.67-81.81-81.33-6.39-3.69-14.23.88-19.93,2.91-40.87,14.56-70.92,11.36-97.1,3.49-4.39-1.32-7.2-7.5-9.83-11.68C207.86,86.64,179.76,68.49,140,66.41A214.26,214.26,0,0,1,250,35.74ZM97.15,100.14c-2.54,25.4-1.79,57.72-2.88,75.48-.25,4,1.28,4.53,3.49,6.55,6.11,5.58,19.87,10.38,29,12.24,3.53.72,3.94-.14,4.9-2.26,1.45-3.2,4.94-18.09,5.86-23.95.48-3.07,1.17-3.71,2.64-4.56,5.25-3,8.37-4.79,12.47-8.89,2.15-2.15,4.24-1.61,4.43,2,1.17,23-7.33,63.51-13.86,75.42A15.17,15.17,0,0,0,142.08,243c2.65,10.95,10,27.71,11.32,30.38,1.13,2.26,4,5.5,0,6.13-19.36,3.06-33.89,5.66-48.15,8.83-7.05,1.57-6.48,1.23-11.74,7.11C79,311.68,65.35,329.64,57.63,344A213.3,213.3,0,0,1,97.15,100.14ZM438.69,269.26c.64,0,1.33.55,2,2,4.35,9.67,12.16,25.46,12.09,47.34a214.26,214.26,0,0,1-73.53,102.06c5.48-21.87,21.71-47,29-54.3,3.17-3.17-.77-8.71-2.36-12.1-6-12.85-12.08-26-6.68-30.92,13.27-12,29.17-32.86,37.54-52.05.44-1.11,1.17-2,2-2Zm-122,17.3a3.56,3.56,0,0,1,3.57,1.85c7.37,13.91,18.88,64.12,11.87,66.79-17.58,6.68-45.64,20.23-51.41,26.79-5.84,7-6.28,38.59-3.22,51.14a127.1,127.1,0,0,0,21.61-12.81c-2.31-5.61-5.08-27.34-.64-29.9,17-9.79,41.47-13.37,54.06-15.44,4.26-.7,6-.41,5.85-4.15-.28-7.77,3.66-21.3,5.06-26.54.77-2.88,3.08-2.94,3.71-.42,1.63,6.5,5.23,11.85,11.59,20.07,2.62,3.38,1.95,5.91-.36,8.87-11.14,14.28-23.86,48.7-27.39,65.94a209.53,209.53,0,0,1-137.72,22.12c1.38-16.15,10.85-34.95,14.13-40.63,3.09-5.34,1.9-7.42.77-11.64-11.28-42.09-17-76.05-3.62-115.66,1-3.67,3.37-5.89,7.26-5,25.87,5.93,52.21,7.22,83.42-1.14a7.12,7.12,0,0,1,1.45-.23Zm-199.48,23.7c23.8.31,38.47,3.47,54.64,6,4.93.78,7.06,2.19,8.45,6,11.57,31.42,16.34,47.07,26,83.64.69,2.61,2.35,7.05.85,9.65-7,12.08-18.15,25-24.58,37.66a214.26,214.26,0,0,1-98.68-68c2.37-9.09,8.22-15.55,10.23-18.56-6.05-7-10.14-12.09-12.25-15.56-1.76-2.9-2.77-3.84-.66-6.89,7.72-11.15,14.14-17.46,23.57-26.89C110.45,311.72,113.28,310.21,117.23,310.26Z"/></g></svg>