<svg xmlns="http://www.w3.org/2000/svg" viewBox="0 0 500 500"><defs><style>.cls-1{fill:#ed1010;}.cls-2{fill:#dcb556;}.cls-3{fill:#1b580f;}</style></defs><title>escorpion-imperio_COLOR</title><g id="n4"><path class="cls-1" d="M244.37,123.6,252.94,150c4.5,13.84,7.48,14.7-3.29,25l-7-21.53L227.89,198.9c-4.22,13-16.09,34.27-15.77,48.3C202,202.83,234.2,164.59,244.37,123.6Z"/><path class="cls-1" d="M190,259.5c1.77,2.69,3.72,7.71,5.63,10.86C193.52,266.94,191.72,265.26,190,259.5Z"/><path class="cls-1" d="M206.07,262.88a18.3,18.3,0,0,1-2-3.4C205.58,260.76,208.64,260.65,206.07,262.88Z"/><path class="cls-1" d="M201.43,254c-1.85-3.72-1.6-7.39.77-11.16A61.52,61.52,0,0,0,201.43,254Z"/><path class="cls-1" d="M310.67,362.79q4-5.23,8-10.39l7.51,23.11C312.41,377.81,315.09,376.38,310.67,362.79Z"/><path class="cls-1" d="M122.55,488l10.17-31.3c6.64,4.91,15.23,6.26,23.21,7.05Z"/><path class="cls-1" d="M158.51,412.42c-1.65-1.72-9.39-10-8.29-13.61.73-2.43,9.79,1.87,12.1,1.86C162,403.84,160.23,409.74,158.51,412.42Z"/><path class="cls-1" d="M162.88,363.84q5,4.81,10.4,9.15C167.32,369,161.79,370.75,162.88,363.84Z"/><path class="cls-1" d="M311.13,343.2c2.76-3.73,1.91-2.07,6.44-2.46C315.5,346.4,305.17,351.18,311.13,343.2Z"/><path class="cls-1" d="M332.68,430.51l-8.2-25.23c9.91-.35,10.52-1.64,14,8C341.77,422.29,341.34,424.27,332.68,430.51Z"/><path class="cls-1" d="M362.76,488l-23.34-17c12-.17,12.21-5.08,18.49,2C360.56,476,361.48,484,362.76,488Z"/><path class="cls-1" d="M325.63,288.41c5.74,6.38,4.75,11.77,2.67,18.18a8.83,8.83,0,0,0-1.14,3.42c-.23.68-.46,1.37-.68,2.07C316.08,302.61,314.9,298.83,325.63,288.41Z"/><path class="cls-1" d="M302.43,303c4.22,4.14-10.1,8.49-11.38,8.23C292.24,309.94,300.21,300.82,302.43,303Z"/><path class="cls-1" d="M307.13,309l1.62-3c3.76,3.64.21,8.67-3.34,6Z"/><path class="cls-1" d="M190.36,310.76q-6.39.45-3.59-3.05Q184.5,302.42,190.36,310.76Z"/><path class="cls-1" d="M184.74,304.8l-4.36.47Q182.16,301.67,184.74,304.8Z"/><path class="cls-1" d="M155.08,283.6c3,4.57,7,9.48,10.21,14,1.94,2.68-4.21,5.42-2.66,7.38a14.07,14.07,0,0,0,7.15-.6,11.61,11.61,0,0,1-4.94,7.27C159.5,302.15,151.45,295.42,155.08,283.6Z"/><path class="cls-1" d="M175.07,361.47c-7.35-7.25-5.37-11.45-10.13-17.24q1.64-5.44,3.69-10.74C183.24,344.1,180.65,344.27,175.07,361.47Z"/><path class="cls-1" d="M276.53,257.7c.47-6.26,4.48-10.15,5.74-17.48C284.46,247.18,281.31,252,276.53,257.7Z"/><path class="cls-1" d="M277,299a.11.11,0,0,0,.06,0,.12.12,0,0,0,.12-.13h.19c3.12-.05,7.07-7.31,9.53-10.84,9.74-8.11,22.18-12.69,30.62-6.74-10.53,10.83-8.27,8-20.67,13-4.4,1.78-20.63,19.1-24.76,18.65C271.9,308.65,273.8,303.73,277,299Z"/><path class="cls-1" d="M315.44,258.82c3,2.4,10.2,7.32,11.22,11.54-10,1.3-14.78-4.9-13.63-13.32C314,259.86,315.8,259.36,315.44,258.82Z"/><path class="cls-1" d="M174.8,296.52c-3.27-6.53-14.18-13.62-11.24-22.16,5.32,0,15.75-2,20.3.11,9.87,4.52,20.89,28,23.73,37.24C197.72,314.37,187.94,282.29,174.8,296.52Z"/><path class="cls-1" d="M197,274.36c7.91.56,11.35,4.3,10.47,11.87A22.29,22.29,0,0,1,197,274.36Z"/><path class="cls-1" d="M233.48,206,231,208.19c1.07-3.66,1.77-7.59,2.75-11.3C233.47,200,234.59,203.87,233.48,206Z"/><path class="cls-1" d="M235.49,192.83c.66-3.23,1.18-7,1.82-10l5.34-16.45c3.38,10.42,5.86,14.48-.18,23.91C242.29,190.6,238.2,189.41,235.49,192.83Z"/><path class="cls-1" d="M166.45,270.36c5.12-5.21,11.24-7.71,15.25,0Z"/><path class="cls-1" d="M164,259.5q-8.25,15.05-8.22,0C158.4,259.11,161.4,259.5,164,259.5Z"/><path class="cls-1" d="M139.94,291.82c.64,7.94,11.86,16.12,16.27,22.12-23-9.51-41.65-24.69-62.15-39.58h54C147.51,282,139.24,283,139.94,291.82Z"/><path class="cls-1" d="M48.32,259.5h94.53a38.49,38.49,0,0,0,4.63,10.86H81.74l19.27,14c10.68,8.94,24.26,20,32.75,24.14l-.13-.06c1.33,1,4.14,2.62,5.48,3.59C127.68,329.58,61,268.74,48.32,259.5Z"/><path class="cls-1" d="M290.2,274.36c-.52.63-1.06,1.26-1.6,1.88a168.27,168.27,0,0,1-17.07,15.93c1.44-9.85,1.25-8.79,6.22-16C279.71,273.37,286.58,273.69,290.2,274.36Z"/><path class="cls-1" d="M287.08,271.13c-.92,0-2.59,0-3.42,0-3.44-.85-3.74-5,3.76-15,2.93,5.86,11.14,3.4,17.92,3.4C305,263.48,294.07,270,287.08,271.13Z"/><path class="cls-1" d="M342.09,274.36a32.87,32.87,0,0,1,4.64-1.14c7.9,0,20.39.17,29,.21,5.58.48,10.93.93,15.51.93l-58.12,42.23c4-4.64,9.53-12,9.62-18.64,0-1.48-1-3.68-2.38-6v0c.07-1.15-1.64-3.62-4.11-6.15l.24.24a21.59,21.59,0,0,1-2.39-3.61C335.21,274.18,335.73,276.5,342.09,274.36Z"/><path class="cls-1" d="M437,259.5l-85.91,62.42c-5.1-3-7.32-3.65-13.47-3.64l3.23-2.35c9.44-5.47,28.37-19.81,40.78-29.63l21.95-15.95H380.31c-12.15-.63-28.66-1.1-36.62,0l.34-.05c-10.88-3.58,0,.66-9.93-10.81Z"/><path class="cls-1" d="M268,400.15c-6.78-5.88-15.49-12.46-21.47-15l-3.58-2.6c-1.36.77-2.72,1.58-4.08,2.42l.34-.22c-14.43,5.38-41.45,30-54.47,40.68a8.25,8.25,0,0,1-3.08,1.16c-7.22.72-17.91-6.85-19.68-14.75,1.07-2.64,2.86-7.05,3.22-9.38.3-.28.62-.55,1-.81,12.24-9.13,22.25,18,28.54,11.15,3.08-3.34-1.8-12.35-2.39-15.64a29.89,29.89,0,0,0-4.62-10.91q3.83-2.08,2.07-6.7c-2.31-5.3-10.63-12.14-11.13-16.27-.47-3.82,3.67-9.22,4.21-13,.23-1.56.85-4,1-5.17l0,0c.59-1.69.89-3,.68-3.7a2.29,2.29,0,0,0-.53-.7l0,0c-.9-2.3-4.21-4.16-10.49-8.72,23.25-5.63,36.86,8.56,53.52,14.72a5.71,5.71,0,0,0,2.17.75,37.39,37.39,0,0,0,16.34,1.67,23.59,23.59,0,0,0,8.69-2.63h-.1a25.45,25.45,0,0,0,2.27-1.24h0l.19-.12,0,0h0c1.71-1,3.61-2.26,6.05-3.74,13.32-8.06,24.71-8.05,40.78-3.41-9,4.77,2,11.85,1.12,19.09-1.2,10.08-26.31,28,2,25.77-6.45,4.25-26.4,25.14-14.88,30.7,7,3.4,19.91-12.73,29-7,1.52,1,9,23.2,8.12,25-2.36,5-9.44,4.35-14.13,3a26.13,26.13,0,0,1-3.23-1.18c-6.82-5-18.6-13.68-26.09-19.17-3.57-3.11-6.93-6-9.88-8.14-1.12-.81-6.44-5.32-7.56-6.13Z"/><path class="cls-1" d="M267.62,419.92c-1.61-1.34-7.06-5.51-11.22-8.64l1.28.91c-4.29-3.39-10.6-8.27-15-11.5-17.11,12.43-33.86,32.88-56.1,27.34l.67-.5c9.9-3.6,29.84-23.38,43.28-34.51,5.22-3.09,10-5,13.6-4.69,8.95.69,27.57,20,34.65,25.17l13,9.43c-1.09-.93-2.16-1.86-3.19-2.76,4.49,3.84,13.69,11.05,19.1,14.32l2.77,2C293.68,436.53,280.32,429.19,267.62,419.92Z"/><path class="cls-1" d="M304.55,375.9q-1.67-5.19,3.23-9.09c1.84,5.66,6.4,11.65,1,14.8A5.13,5.13,0,0,0,304.55,375.9Z"/></g><g id="n3"><path class="cls-2" d="M186.7,427.44a4.74,4.74,0,0,1-3.4-.57c1-.76,2.24-1.69,3.52-2.74q-.82.59-1.6,1.06c4.12-3.16,10.23-8.57,12.28-10.06,12.33-9,26.88-20.74,39.95-29.2a15.36,15.36,0,0,1,6.64-1.16,11.33,11.33,0,0,1,2,.42c8.18,5.93,17.72,12.52,25.83,18.41,4.31,3.81,9.38,8.23,11.43,9.72l3.07,2.23c7.51,6.24,18.79,15,25.15,18.27l3.47,2.52a14.54,14.54,0,0,1-6.81-1.68c-5.41-4-14.93-11-19.75-14.53-3.39-3-6.4-5.62-8.61-7.22-6.88-5-27.95-26.45-36.74-26.69-2.64-.07-6.31,1.91-10.56,5l0,0C218.41,399.84,196.68,419.72,186.7,427.44Z"/><path class="cls-2" d="M161.76,412.16c-.44,1.08-.81,2-1,2.47-2.6-2.36,1.37-10.77,2.73-14,.94,0,1.24.86,1.16,2.1C162.51,405.41,161.31,409.41,161.76,412.16Z"/><path class="cls-2" d="M305.23,338.61a7.53,7.53,0,0,0-.3,3v0a13,13,0,0,0,.23,5.68l-.05-.18c.19,4,.43,7.94.17,8.39C304.77,353.86,297,336.58,305.23,338.61Z"/><path class="cls-2" d="M308.59,365.64c2.41-3.38,6.91,12.66,4.47,13.76Z"/><path class="cls-2" d="M180.84,347.38c-.25-8.85-2.92-8.55-11.87-15.06.41-1.52,10.55,4.79,14.52,8,.49,1.33.39,3,0,5.82-2,5-5.63,12.51-6.29,15.65C177.28,357.23,181,352.67,180.84,347.38Z"/><path class="cls-2" d="M321.51,405.4c3.44-.15,11.67,25.29,8.7,26.77Z"/><path class="cls-2" d="M336.85,273.22c.63-1.32,2.92-2.19,6.26-2.76,5.78,1.7,16-.1,22-.1,4.49,0,12.35.15,17.31.17,8,.48,14.66,1,17.65,1-2.72,2-11.08,8.82-21,16.68l-36.71,26.67c-4.5,2.61-7.77,3.87-8.94,3l61.38-44.6h-18c-9.62-.69-24.8-1.26-31.84,0Z"/><path class="cls-2" d="M325.48,273l-3.85-1.52C324.5,270.89,326,270.89,325.48,273Z"/><path class="cls-2" d="M283.89,271.16c.76,0,2,.05,2.89,0h0a21.7,21.7,0,0,1,4.6.32c-1.8,2.71-12.5,3.2-11.6-.22a45.44,45.44,0,0,0,4.65,0C284.21,271.23,284.05,271.19,283.89,271.16Z"/><path class="cls-2" d="M247.37,177.21l-4.71-14.51c-1.74,5.36-3.38,12-5.1,19.07v0c-3,9.18-6.3,19.73-9.28,28.9a13.94,13.94,0,0,1,1.91-1.2,110.85,110.85,0,0,1-7.38,18.38,14.09,14.09,0,0,1-.73,1.89l.45-1.39a45.83,45.83,0,0,1-5.75,8.46l25.87-79.63C244.33,162.31,249.76,172.4,247.37,177.21Z"/><path class="cls-2" d="M183.14,273.22H164.3C166.16,269.69,181.43,270,183.14,273.22Z"/><path class="cls-2" d="M141.36,310.14c-1.21.5-4-1.26-6.52-2.21C123.21,299.49,110.62,291,99,282.6c-5.61-4.69-11.35-9.39-13.71-11.1,7.86,0,62.56-2.32,62.8,1.71H90.54Z"/></g><g id="n2"><path class="cls-3" d="M146.89,36.65c2.6,3.11,18.72-23.71,23.92-25.31C187.81,6.1,200,25,198.72,40.1c-.72,8.31-16.13,34.76-28.63,30.12-3.07-1.14-3-14.26-5.71-16.95C156,44.92,150.86,52,141.49,54.4A92.38,92.38,0,0,1,146.89,36.65Z"/><path class="cls-3" d="M139.16,140c-9.29,2.33-16.35-12.65-17.23-19.82,4.54,7.76,2.72-13.22,2.72-13.21-.17-12.71.62-26.25,7.28-37.64,7.06-12.07,15.61-17.21,27.84-6.94,5.6,4.7,18,31.8,7.13,24.81,6.65,4.28,10.9,17.62,14.3,23.3-5.91-.95-28.92,2.65-33.59,7C143.6,121.28,142.92,139,139.16,140Z"/><path class="cls-3" d="M179.75,179.58c-47.29-5.57-48.14-63.48-.31-66.32,17.71-1,29.25,4.4,32.21,22.69,1,6.19-6.4,30.94-2,29.69C206.49,177.24,189.91,180.78,179.75,179.58Z"/><path class="cls-3" d="M182.93,429.65a53.08,53.08,0,0,0,29.13.75c4.88-1.28,13.32-9.29,18.71-7.14,9,3.57-14.24,22.84-17.14,25a72.18,72.18,0,0,1-47.27,14.64c-36.6-2.09-81.29-43.83-64.32-83.05,3.27-7.55,8.84-15.68,17.67-17.18,13.54-2.3,11.32,3.61,16.22,11.22,5.26,8.17,7.93,19.92,12.71,28.39C156.26,415.81,167.88,425,182.93,429.65Z"/><path class="cls-3" d="M189.07,394c1,2.27,4.91,19.36,2.68,19.14-4.87-.47-7.82-11.05-12.62-13.44-4.17-2.08-12.15.27-16.17-.94-15-4.51-13.89-14.41-22.17-26.13,7.52-3.6,18-4.55,25.67-.94C176.52,376.4,184.69,383.84,189.07,394Z"/><path class="cls-3" d="M317.83,401.46c-7.76,1.09-19.35,10.48-26.42,9.34-8.71-1.41,21.86-29,25-30.27,21.24-8.51,46.58-.42,32.92,26l-3.3-1.75C338.46,401,326.24,400.28,317.83,401.46Z"/><path class="cls-3" d="M394.83,398.79C393,436,374.19,466.22,334.24,467.38c-16.61.48-36.18-1.86-50.61-10.44-4.34-2.58-35.82-26.79-33.51-32.51,21,9.75,60.93,22.92,82.41,8.53,12-8.06,38.88-42.14,23.1-55.9,10.56-1.36,21.95-14,33.34-6.51C397.88,376.43,395.28,389.67,394.83,398.79Z"/><path class="cls-3" d="M362.17,337.06c7.1,7,11.74,17,18.26,23.28a46.77,46.77,0,0,1-11.76.83,13.92,13.92,0,0,0-7,8.4c-4.13,1.64-4.44,7.73-10.76,4.85-4.34-2-6.23-21.63-7.47-21.35-11.1,2.56-29.8-19.17-11.56-30.82C345,313.85,353.49,328.47,362.17,337.06Z"/><path class="cls-3" d="M262.86,320.27c5.43-7.39,33.13-6.38,38.92-7.33.09,0,14,.4,11.84-.7,6.16,3.23,11,16.87,7,25.35C316,330.68,249.11,339,262.86,320.27Z"/><path class="cls-3" d="M319.8,341.27a5.43,5.43,0,0,1,1.49,4.38c-2.69,6.88-18.24,26.71-25,30.51C300.38,361.54,315.19,354.46,319.8,341.27Z"/><path class="cls-3" d="M297.07,380.79c.74-.2,10.11-8.61,9.56-.11A82.43,82.43,0,0,1,297.07,380.79Z"/><path class="cls-3" d="M180.84,379.49a7,7,0,0,0,7-1.54C192.4,385.67,184,383.22,180.84,379.49Z"/><path class="cls-3" d="M186.52,376.1c-8.93,6.49-24.67-15.86-28.5-21.65a6.84,6.84,0,0,0,4.71-3.42C168,360.93,179.46,367.49,186.52,376.1Z"/><path class="cls-3" d="M304.35,29c5.38,9.43,6.26,12,9.66,22.67-8.93.35-9.21,1.34-15.36,5.68C292.9,61.38,297.59,69.44,287,67c-.83-.19-18.55-18.85-18.9-16.92a6.15,6.15,0,0,0,2.08,3.09C254,47.88,247,26,266.79,17.45,276.09,13.46,303.32,31.91,304.35,29Z"/><path class="cls-3" d="M208.53,1.61c3.85,3.32,39.09.25,45.87,6.85A27.6,27.6,0,0,0,250,10.14c2.93-.94,10.59.31,10.93,4.67-.15-1.94-12,15.94-12.14,16.12-4,7.85,8.93,4.44-5.73,9.37-7.72,2.6-30.76,3.37-38.79.63C219.15,26,193,23.67,192.54,14.33,192.19,7.17,203.94,5.57,208.53,1.61Z"/><path class="cls-3" d="M233.24,210.17c.35-1,2.24-7.43,2.74-8.39,3.78-7.17,3.84-14.08,16.41-13.65,14.53.49,23.86,8.16,25.95,23.54.65,4.75-.48,27.94-7,28.08-5.45.12-10.66-16.14-15.37-19.23-11.94-7.82-20.44-.37-30.36,6.49C227.09,219.78,231.62,215,233.24,210.17Z"/><path class="cls-3" d="M292.61,188.73c-.87-.29,3.08-6.42,1.08-7.58,2,1.16-11,23.86-12.59,25.33C277,183.25,271.74,185,249.37,186c2.37-10.18,19.25-34.15,31.44-36.49,8.43-1.61,17,4.8,19.9,13C304.78,174.14,297.31,179.14,292.61,188.73Z"/><path class="cls-3" d="M320.67,135.8c-4,10-8.24,13-14.49,21-4.39-10.1-19.18-15.71-29.08-9,.9-1.34,7.45-21.24,7.73-21.89,3.65-8.32,1.2-10.69,10.66-14.74C313.46,103.5,327.77,118.21,320.67,135.8Z"/><path class="cls-3" d="M325.94,67c.26.42.5.87.74,1.34a111.88,111.88,0,0,1,3.24,11.38,67.6,67.6,0,0,1-.35,18.21c-.53,2.42-1.42,5.45-2.09,7.87a22.4,22.4,0,0,1-3.94,6.9c-6.93-21.41-23.36,2.58-29.71-16.19C287.95,79.09,311.31,43.53,325.94,67Z"/><path class="cls-3" d="M291.9,237c5.81,11.42-11.05,25.45-15.36,33.64C271.78,269.69,286,240.59,291.9,237Z"/><path class="cls-3" d="M306.9,252.41c2.74,2.74,6.3,3.57,3,8.67C306,267.26,307.25,255.17,306.9,252.41Z"/><path class="cls-3" d="M334.28,263.6c-1.45-.37-4.64,3.53-6.18,3.62s-8.65-6.28-8.26-6.06c-7.07-3.88-23-16.28-23.76-25C302.78,237,330.42,256.93,334.28,263.6Z"/><path class="cls-3" d="M312.65,243.94c-9.21-7.7-3.61-9.17-1.18-15.92A26.37,26.37,0,0,1,312.65,243.94Z"/><path class="cls-3" d="M284.82,216.72c8,1.42,17.28,3.74,24,8.54-7.92,4.45-1.78,3.34-12,.88C290.72,224.68,282.71,225.08,284.82,216.72Z"/><path class="cls-3" d="M281.27,221c6.32,9.1-1.8,24.63-7.82,32.15-.36-7.33,1.38-9.61,2.54-15.61C276.16,236.66,282.19,213.89,281.27,221Z"/><path class="cls-3" d="M204.58,221.85c7.51,7.51,4.14,26.32,4.65,37.57C205.1,256.21,204.33,221.77,204.58,221.85Z"/><path class="cls-3" d="M177.65,241.87c6.9.09,6.69,6.73,9.12,14.07l.89,3.86C183.51,255.53,178.09,248.08,177.65,241.87Z"/><path class="cls-3" d="M184.5,241c1.52-.21,4.55-6.18,4.73-7.58,4.27,3.4,10.17,19.91,11.76,24.85,2.41,7.44,1.1,8.38,2,15.64C199,272.86,184.39,244.37,184.5,241Z"/><path class="cls-3" d="M175.84,221.8c4.35-5.43,32.42-7.14,24.55,3.4C196.45,230.48,174.42,223.56,175.84,221.8Z"/><path class="cls-3" d="M174.6,234.37l-1.29-7C174.71,230,188.25,226.44,174.6,234.37Z"/><path class="cls-3" d="M147.52,253.71c9.71-10.31,24.37-11.26,34.69-19.86-2.14,9.27-7.42,6.87-17,12.32-5.31,3-14.16,16.82-19.17,11Z"/><path class="cls-3" d="M194.6,273.48c3.93,6.2,13.68,14.78,12.81,23.2-3,2.88-20.46-22.08-23.14-25.73,0-.06-4.56-8.48-5.07-8.7-.84-2.74-2.12-7.16-3.17-8.94C184.43,252.55,191,267.78,194.6,273.48Z"/><path class="cls-3" d="M150.56,274.28a38.43,38.43,0,0,0-4.53-10C153.73,266.63,158.14,264.37,150.56,274.28Z"/><path class="cls-3" d="M172.63,307.17c6.39-.81,12.55,6.15,18.31,6-5.24,1.29-15.24,6.89-20.6,4.69C163.94,315.23,165.71,308,172.63,307.17Z"/><path class="cls-3" d="M192.23,327.08c-7-.48-16.66,4.75-23,2.2,5.74-8.39.64-6.94,12.84-11.16,9.55-3.3,26.11-8.26,34,1C229.49,334.77,194.83,327.25,192.23,327.08Z"/><path class="cls-3" d="M287.54,311.14c-3.19.54-8.59.66-11.41,1.6,2-2,27.39-22.61,26.59-16C302.22,300.87,284.94,307.06,287.54,311.14Z"/><path class="cls-3" d="M313.82,298.52l-4.72-3c4.63-4.87,7.46-16.12,14.94-8.76A155.3,155.3,0,0,0,313.82,298.52Z"/><path class="cls-3" d="M306,296.53c8.13,3.67,19.92,15.32,25.16,22.82-4.41,3-17-11.3-19.57-13.91C307,300.74,308,303.16,306,296.53Z"/><path class="cls-3" d="M103.22,355.76a117.66,117.66,0,0,1,10.43-19.27c3.28-3.54,7.52-8.08,10.6-11.89l-.27.34a48.07,48.07,0,0,1,5.24-3.88c3-1.93,16.42-4.36,12.43-8.38,3.4-2.26,8.07,1.19,11.24,2.41-1.09,1.12-2.15,2.26-3.22,3.4,5.44-4,15.07.17,13.87,10.44-1.26,10.74-16.74,15-21.88,23.4.25-1.62,5.1-11.3,3.56-12.7-.08-.07-9.2,22.71-10.25,23.25-5,2.56-17.38-6.43-24.34-2.54-8.7,4.86-4,7.44-8.88,15C96.74,369.64,100.7,361.4,103.22,355.76Z"/><path class="cls-3" d="M184.51,302a4.38,4.38,0,0,1-.34-5.07c6.63,3.2,11,8.9,16.34,13.71C191.63,310,191.46,306.37,184.51,302Z"/><path class="cls-3" d="M177.44,306.15a12.53,12.53,0,0,1-5-1.8,20.94,20.94,0,0,1,5.59-7.61C180.68,302.19,176.89,301.95,177.44,306.15Z"/><path class="cls-3" d="M148.2,299.19l-3.95-5.33a9.13,9.13,0,0,0,6.28-4.39c-1.55,4.66,15.08,24.33,11.36,25.58C156.79,316.77,150.26,302,148.2,299.19Z"/><path class="cls-3" d="M166.57,302.51c3.17-3,.17-1.55,5.89-2.78C170.27,303.26,171.33,301.71,166.57,302.51Z"/><path class="cls-3" d="M160.63,267a133.12,133.12,0,0,1,10.82-12.18c-.49,3.16-6.08,13.85-12.51,22.61,4.25.53,11.38,17,13.66,19.9-4.32.54-16.88-11.52-15.75-16.85l1.28-2c-5.3,7-11.05,12.45-14.93,11.2C138.59,288.28,159.51,268.06,160.63,267Z"/><path class="cls-3" d="M305.17,347.27c-.07-1.51-.19-3.67-.23-5.15.56-1.84,2.12-3,5.39-2.09-1.21,4.3-1.22,8-1.89,10.5C307.83,352.77,306,350.37,305.17,347.27Z"/><path class="cls-3" d="M222.48,327.48c8.66-7.31-26.5-27.89-3.11-20.94,9.73,2.89,7.85,16.33,11.54,18.5,4.9,2.88-1.61-12.09-2.11-12.82-2.92-4.34-11.88-13.11-18.21-8.63,0-8,14.93-28.27,23.4-28.62,8.2-.34,1.84,8.93,9.23,10.89,4.24,1.12-.59-11.91-.78-12.07,4,.88,13.44,9,20.4,17.45-14.91-21.64-32-30.17-50.84.48a48.26,48.26,0,0,1,9.13-25.29c-4.31,2.56-8.26,5.56-10.72,9.68-5.08-13.62,9.13-22,17.28-30a18.91,18.91,0,0,1,15.82-5.7c-.21-.75-.21-1.23.08-1.32s.25.46.19,1.35a27.69,27.69,0,0,1,13.58,6.17c-5.18-5.49-9.72-10.93-10.09-14.47,1.38-2.27.44-9.1-2.41-9.89,0,0-1.73,10.66-3.3,12.61-1.78,2.21-10.2,4.7-13,6.73-6,4.31-10.76,10.94-15.95,16.15,3.13-13.12,10.84-36.75,28.55-38,20.76-1.45,30.22,25.9,30.22,41.65-1.75-2.2-4.5-5-7.54-8.13,5.6,7.33,8.66,16.61,6.62,24.7-1.76-.14-5.33-3.93-9.33-9.08,5.82,9.22,8.84,21.32,6.73,29.33a31.18,31.18,0,0,1,2,3.74,5.85,5.85,0,0,1,.34-3.43c3,3.95,5.24,2.79,2,7.81a23.16,23.16,0,0,0-2-3.59c.93,2.42,1.17,4.51.42,6-8.95-12.58-33.27,10.5-23.41,16.3-4-2.34,12.78-28.49,22.55-12.41-11.59-1.63-11.72,4.29-17,11.52C243.2,337.06,234.33,329.29,222.48,327.48Z"/><path class="cls-3" d="M271.7,294.94c2.7-2.2,10.48-11.54,16.79-18.56l-.22.26c5.76-6.3,11.47-11.8,14.65-12.06-1.93,3.08-1.26,8.55-3.48,12.06s-8.6,7.08-11.73,10.34a9.33,9.33,0,0,0-.67.81l.07-.1a55.32,55.32,0,0,0-10,11.1.11.11,0,0,0-.06,0,.11.11,0,0,0-.11.11C274.84,298.68,268.85,297.22,271.7,294.94Z"/><path class="cls-3" d="M305.32,304.67c3,1.71-2,6.43-4.19,6.06A25.48,25.48,0,0,0,305.32,304.67Z"/><path class="cls-3" d="M335.21,272.72a66.83,66.83,0,0,0-5.23,6.48l-4.28-3.74C330.34,272.48,331.17,274.38,335.21,272.72Z"/><path class="cls-3" d="M308.35,265.09c3.64.88,20,12.83,27.86,20.68,1.16,1.64,2.74,4,4,6.08-1.19,6.93-30.57-17.49-33.72-17.51A21.15,21.15,0,0,0,308.35,265.09Z"/><path class="cls-3" d="M328.43,306.46c2.83-3.76,9.8-5.36,11.31-5.81-.72,2-7.68,19.35-11.35,13a7.65,7.65,0,0,1-1.16-3.69C327.59,308.94,328.11,307.42,328.43,306.46Z"/><path class="cls-3" d="M253.69,346.59c-1.93-.22-2.92-1.3-6.44,1.83-1.22-5.27-12-.71-17.8-.85-.59-.23-1.32-.64-1.91-.9,9.05-3.75,18.22-2.6,27.59-1.44C254.58,345.62,254.19,346.2,253.69,346.59Z"/><path class="cls-3" d="M272.83,277.77l.74-5.52Q281,272.5,272.83,277.77Z"/></g><g id="n1"><path class="cls-2" d="M211.13,122.42c16.81,6.41,20.75-14.46,22.66-26.17.89,16.09,2.12,43.39-18.71,48C215.47,137.32,214.16,128.7,211.13,122.42Z"/><path class="cls-2" d="M224.52,148.91c-4.19,4.71-9.2,13.1-16,14.6,3.38-5.16,4.37-11.53,8.08-16.23,4.15-5.26,11-7.55,14.93-14.28,11.6-19.68,2-37.5,2.11-57.82a63,63,0,0,1,4.61,8.76c1.18,4.42,3.08,12,4.36,17.43C243.94,118.24,237.07,134.8,224.52,148.91Z"/><path class="cls-2" d="M233.17,336.34c-1.49,3.58-11.91.12-14.29-.65C209.36,332.64,238,324.72,233.17,336.34Z"/><path class="cls-2" d="M248.48,331.81c1.49-3.58,11.91-.12,14.29.65C272.3,335.5,243.65,343.43,248.48,331.81Z"/></g><g id="Base"><path d="M169.83,457.29c-29.36,0-55.74-21.67-63.18-49.73-3.14-11.81-2.87-34.68,12.61-38.27,14-3.25,7.89,3.53,12.59,13.07,17.43,35.41,47.56,69.78,91.65,48.91C209.74,447.16,191.18,457.29,169.83,457.29Z"/><path d="M183.52,395.33c-17.46-9.93-24.1,3-34.36-19.47C161.66,373.35,179.62,382.28,183.52,395.33Z"/><path d="M208.8,325.56c-5.28,0-11.53-3.53-16.48-4.47,5.79-1.47,15.55-3.22,19.93,2.35C211.71,323.81,209.62,325.56,208.8,325.56Z"/><path d="M313.49,330.77c-7.38-1.26-42.69,1.2-46.67-6,2.68-10.26,41.59.15,48.09-5.41C313.67,323.29,312.55,326.52,313.49,330.77Z"/><path d="M335.25,461.67c-25.8,0-46.09-4.88-64.39-23.48,21.93,6.14,53.18,12.31,70.79-5.73,6-6.1,13-16.32,17.68-23.53,4.56-7,5.82-11.18,7.46-19.25.61-3-2.83-9-1.55-10.6,4-5,17.17-6.17,21.58-2.52,6.72,5.56,2.17,27.19.92,34.77C383.13,439.39,365.88,461.67,335.25,461.67Z"/><path d="M299.95,401c7.75-13.31,55.56-32.47,46.48-2.33C333,393,312.31,394.55,299.95,401Z"/><path d="M353.78,369.4c-4.52-5.59-1.21-14.67-6-20.36-5.18-6.2-4.54,1-7-1.09-6.28-5.5-17.82-9.86-7.68-19,11.4-10.26,34.84,16.31,38.58,26.16C360.62,354.75,361.13,367,353.78,369.4Z"/><path d="M270.41,231c-6.34-10.87-13.92-21.4-28.28-20,5.51-8.39-7.14-16.24,11.38-17.33C273.81,192.55,274.31,216.85,270.41,231Z"/><path d="M249.84,266.75a18.44,18.44,0,0,0-17.52-1.43C239.27,261.07,244.91,259.53,249.84,266.75Z"/><path d="M257.06,235.08c-.94-.92-3.76-2.32-3.54-3.84Zm-26.67-1.9,7.27-5.6C238.15,232.68,238.35,228.25,230.38,233.18Z"/><path d="M230.46,251.34A63.16,63.16,0,0,1,238,245a5.37,5.37,0,0,1-.22,3.18A43.93,43.93,0,0,0,230.46,251.34Z"/><path d="M238.34,327c8.76,0-14.18-28.13-20.24-29.59,3.08-4.77,11.36-13.37,16.35-16.59,2.89,5.19,13.06,18.41,15.83,4.92a153.68,153.68,0,0,1,10.53,15C238.69,298.28,245.89,327,238.34,327Z"/><path d="M183.49,174.08c-45.47,0-43.91-56.41-.51-55.37C216.31,119.51,213.19,174.08,183.49,174.08Z"/><path d="M136,134.12c-11.76-6.23-7.68-61.8,6-69.65,11.18-6.44,20.18,6.95,22.25,17.48.61,3.11-2.72,6.76-.49,12.33,1.77,4.43,6.41,7.54,10,10.43C152.82,107,139.29,112.46,136,134.12Z"/><path d="M173.79,63.54c-2.67-12-8.89-24.74-23.75-19.06,2.85-8.41,19.91-30,30.1-27.5C206.19,23.28,188.36,56.16,173.79,63.54Z"/><path d="M213,36.56c3.48-13.85-7.37-15.31-14.37-22.71,7.48-6,24.88-6.52,34.72-5.4,9.19,1,5.46-2.22,9.8,2.85,7.3,8.54-3.76,13,.74,23.27C233.59,34.77,223.27,36.4,213,36.56Z"/><path d="M290,62.42c-4.63-.16-12.14-14.51-16-17-7.12-4.52-15.21,2.46-12.68-12,2.61-15,14.83-11.49,24.47-7.39,6.24,2.65,20.31,12,21.42,19.53C295.87,45.57,295.31,61.7,290,62.42Z"/><path d="M323.25,100.79c-6.26-6.36-15.63-5.06-23-1.62-4.14-9.94-.42-36.5,15.49-33.29C325,67.74,325.39,93.23,323.25,100.79Z"/><path d="M307.54,148.12c-4.77-6-11.27-8.5-18.67-8.19,4.19-9.75-1.55-33,20.28-24.14C321.19,120.69,317.74,141.16,307.54,148.12Z"/><path d="M283.84,189.67c-4.51-10.63-15.9-12.56-26.14-10.74,8.72-8.13,20.2-29.67,32.69-20.88C306.16,169.16,285.53,178.5,283.84,189.67Z"/><path d="M133.33,356.29c.86-9.81,3-17.5,11.26-22.66,16.34-10.26-11.78,20.78,11.4-1.93,2.89-2.84,2.34-5.92.41-8.9-7.38,9.93-11.68-.93-18.65.48-12.51,2.53-23.11,20.87-27.79,31.37A52.27,52.27,0,0,1,133.33,356.29Z"/><path d="M250,10.14a2.47,2.47,0,0,0-.8.39Z"/><path d="M147.81,320.45c.62-.66,1.25-1.31,1.87-2A7.77,7.77,0,0,0,147.81,320.45Z"/><path d="M261.13,268.86a40.75,40.75,0,0,0-3.73-5C258.66,265.59,259.91,267.29,261.13,268.86Z"/><path d="M257.4,263.83c-6.09-8.55-12.16-18.58-13.68-22.78-.35,3.65-1.87,11.12-2.53,12.16a13,13,0,0,1-1.76,2.18,21.92,21.92,0,0,1,8,1.24A24,24,0,0,1,257.4,263.83Z"/><path d="M243.78,240.41l-.26,0c.06.2.12.42.21.67Q243.76,240.7,243.78,240.41Z"/><path d="M257.36,246.58c2.13,2.26,4.37,4.52,6.47,6.66A38.62,38.62,0,0,0,257.36,246.58Z"/><path d="M158.12,278.57l.81-1.09-.09,0Z"/><path d="M221.13,266.42c6.64-3.94,14.13-6.81,18.3-11C231.92,255.68,225.72,260.24,221.13,266.42Z"/><path d="M267.7,298.83c.06-.21.11-.43.17-.64a62.12,62.12,0,0,0-5-7C264.49,293.62,266.11,296.16,267.7,298.83Z"/><path d="M369.24,341.42c-5.61-7-7.1-13.93-15.31-18l91.86-66.74H356.66c-10.86,0-22.47,2.32-31.94-3.45-13-7.93-4.79-16.49-12-27-4.15-6-24.45-14.62-31.4-11.6-.43-5.91,13.46-21,16.44-26.75,2.25-4.31,6.15-8.08,7.68-12.58,1-3-2.43-8.09-1.39-10.2,3.9-7.91,11.71-13,16-21,5.76-10.76,2.57-16.66,4.64-26.76.93-4.53,2.08-8.47,3.13-12.23-.08.21-.16.42-.24.63a55.46,55.46,0,0,0,2-7.45l0,.16a49.79,49.79,0,0,0,.88-16.27c0-.38-.11-.73-.16-1.1l0,.17-.06-.36c-.14-.92-.3-1.83-.48-2.71,0,.29.08.61.13.91a65.55,65.55,0,0,0-3.36-11.3l.06.14c-3.07-7.26-7.31-13.43-11.27-21.94-1.77-3.81-5.36-21.33-11.06-21.31-6.54,3.34-6.11-2.5-13.71-7-8.08-4.79-14.38-2.1-22-4.35C259.83,10.74,252.24,1,240.58-.36c-12.12-1.46-23-1-32.42,1.37a.72.72,0,0,0,.09.25,81.51,81.51,0,0,0-11.9,4.19c-9.69,4.25-16.21.32-26.87,4.55-8.55,3.39-17.48,17.29-22.05,24.36C134.08,55,113,91.75,123.39,117.52c-5.18-6.11-5.33,3.67-4.52,6.81,1.77,6.82,5.26,9.4,9.67,14.57a16.5,16.5,0,0,0,11.09,4.28,37.89,37.89,0,0,0-.12,13.17c2.93,5.56,3.61,10.08,8.47,15,9.26,9.29,27.42,14,40,13.13,19.07-1.33,27.84-17.74,40-30.36l-21,64.67c-5.17-4.79-27.06-4.55-32.51.8-6.1,6,.92,10.94-3.38,16.49-2.78,3.59-8.48,3.35-11.88,6-15.07,12-14.19,14.57-32.19,14.57H39.53l87.81,63.8c-.94,1.37-1.92,2.67-2.91,3.94a74.27,74.27,0,0,0-11.51,12.91l.3-.32c-7.22,7.86-13.7,16-15.63,29.26-2.82,19.43-1.81,42.15,7.9,60.14,4.24,7.85,23.36,21.79,24.83,28.43.58,2.64-3.07,7.94-3.42,10.54-1.35,9.93-6.67,20.52-9.78,30.1,6.05-4.4,42.07-30.61,40.9-31.53,26.05,2.5,51.33-3.7,69.25-24,4.35-4.93,13.91-14.89,5.26-19.08-5.94-2.88-18.3,7.65-24.49,8.53,7.27-5.28,27.21-25.44,35.19-24.73,2.5.22,6.56,2.35,10.38,4.78,3.42,3.08,9.14,8.56,7.35,6.66,3,3.23,7,7.11,5.36,5.86,7.45,6.22,11.11,7.55,15.69,10.87-7.42-1.72-35-16.83-34.18-5.13.85,12.34,32.49,30.8,41.49,34.63,16.49,7,35.26,4.66,50.4,12.43,10.05,5.16,19.28,14,28.47,20.69-2.13-6.55-6.64-14.56-6.92-21.3-.57-13.59,6.7-10.4,17.47-21.8,16.78-17.78,29.63-63.64,11.37-83.66C383,360.86,375.91,349.75,369.24,341.42Zm-7.07-4.35c7.1,7,11.74,17,18.26,23.28a46.77,46.77,0,0,1-11.76.83,13.92,13.92,0,0,0-7,8.4c-4.13,1.64-4.44,7.73-10.76,4.85-4.34-2-6.23-21.63-7.47-21.35-11.1,2.56-29.8-19.17-11.56-30.82C345,313.85,353.49,328.47,362.17,337.06ZM186.7,427.44a4.74,4.74,0,0,1-3.4-.57c1-.76,2.24-1.69,3.52-2.74q-.82.59-1.6,1.06c4.12-3.16,10.23-8.57,12.28-10.06,12.33-9,26.88-20.74,39.95-29.2a15.36,15.36,0,0,1,6.64-1.16,11.33,11.33,0,0,1,2,.42c8.18,5.93,17.72,12.52,25.83,18.41,4.31,3.81,9.38,8.23,11.43,9.72l3.07,2.23c7.51,6.24,18.79,15,25.15,18.27l3.47,2.52a14.54,14.54,0,0,1-6.81-1.68c-5.41-4-14.93-11-19.75-14.53-3.39-3-6.4-5.62-8.61-7.22-6.88-5-27.95-26.45-36.74-26.69-2.64-.07-6.31,1.91-10.56,5l0,0C218.41,399.84,196.68,419.72,186.7,427.44Zm128,7.23a26.13,26.13,0,0,1-3.23-1.18c-6.82-5-18.6-13.68-26.09-19.17-3.57-3.11-6.93-6-9.88-8.14-1.12-.81-6.44-5.32-7.56-6.13l.1.09c-6.78-5.88-15.49-12.46-21.47-15l-3.58-2.6c-1.36.77-2.72,1.58-4.08,2.42l.34-.22c-14.43,5.38-41.45,30-54.47,40.68a8.25,8.25,0,0,1-3.08,1.16c-7.22.72-17.91-6.85-19.68-14.75,1.07-2.64,2.86-7.05,3.22-9.38.3-.28.62-.55,1-.81,12.24-9.13,22.25,18,28.54,11.15,3.08-3.34-1.8-12.35-2.39-15.64a29.89,29.89,0,0,0-4.62-10.91q3.83-2.08,2.07-6.7c-2.31-5.3-10.63-12.14-11.13-16.27-.47-3.82,3.67-9.22,4.21-13,.23-1.56.85-4,1-5.17l0,0c.59-1.69.89-3,.68-3.7a2.29,2.29,0,0,0-.53-.7l0,0c-.9-2.3-4.21-4.16-10.49-8.72,23.25-5.63,36.86,8.56,53.52,14.72a5.71,5.71,0,0,0,2.17.75,37.39,37.39,0,0,0,16.34,1.67,23.59,23.59,0,0,0,8.69-2.63h-.1a25.45,25.45,0,0,0,2.27-1.24h0l.19-.12,0,0h0c1.71-1,3.61-2.26,6.05-3.74,13.32-8.06,24.71-8.05,40.78-3.41-9,4.77,2,11.85,1.12,19.09-1.2,10.08-26.31,28,2,25.77-6.45,4.25-26.4,25.14-14.88,30.7,7,3.4,19.91-12.73,29-7,1.52,1,9,23.2,8.12,25C326.47,436.66,319.39,436,314.7,434.67ZM161.76,412.16c-.44,1.08-.81,2-1,2.47-2.6-2.36,1.37-10.77,2.73-14,.94,0,1.24.86,1.16,2.1C162.51,405.41,161.31,409.41,161.76,412.16Zm-8-69.19c-.62,7,10.59,18.87,5,24.06-1.19,1.11-17.72-1.14-20.62,1a78.38,78.38,0,0,0,3.4-7.48C141.06,353.32,148.63,346.68,153.79,343Zm40.81-69.49c3.93,6.2,13.68,14.78,12.81,23.2-3,2.88-20.46-22.08-23.14-25.73,0-.06-4.56-8.48-5.07-8.7-.84-2.74-2.12-7.16-3.17-8.94C184.43,252.55,191,267.78,194.6,273.48Zm-4.6-14c1.77,2.69,3.72,7.71,5.63,10.86C193.52,266.94,191.72,265.26,190,259.5Zm53.59-20.45c.2-.07.25.46.19,1.35a27.69,27.69,0,0,1,13.58,6.17c-5.18-5.49-9.72-10.93-10.09-14.47,1.38-2.27.44-9.1-2.41-9.89,0,0-1.73,10.66-3.3,12.61-1.78,2.21-10.2,4.7-13,6.73-6,4.31-10.76,10.94-15.95,16.15,3.13-13.12,10.84-36.75,28.55-38,20.76-1.45,30.22,25.9,30.22,41.65-1.75-2.2-4.5-5-7.54-8.13,5.6,7.33,8.66,16.61,6.62,24.7-1.76-.14-5.33-3.93-9.33-9.08,5.82,9.22,8.84,21.32,6.73,29.33a31.18,31.18,0,0,1,2,3.74,5.85,5.85,0,0,1,.34-3.43c3,3.95,5.24,2.79,2,7.81a23.16,23.16,0,0,0-2-3.59c.93,2.42,1.17,4.51.42,6-8.95-12.58-33.27,10.5-23.41,16.3-4-2.34,12.78-28.49,22.55-12.41-11.59-1.63-11.72,4.29-17,11.52-9.49,12.91-18.36,5.13-30.21,3.33,8.66-7.31-26.5-27.89-3.11-20.94,9.73,2.89,7.85,16.33,11.54,18.5,4.9,2.88-1.61-12.09-2.11-12.82-2.92-4.34-11.88-13.11-18.21-8.63,0-8,14.93-28.27,23.4-28.62,8.2-.34,1.84,8.93,9.23,10.89,4.24,1.12-.59-11.91-.78-12.07,4,.88,13.44,9,20.4,17.45-14.91-21.64-32-30.17-50.84.48a48.26,48.26,0,0,1,9.13-25.29c-4.31,2.56-8.26,5.56-10.72,9.68-5.08-13.62,9.13-22,17.28-30a18.91,18.91,0,0,1,15.82-5.7C243.31,239.63,243.31,239.15,243.59,239.05Zm48.31-2c5.81,11.42-11.05,25.45-15.36,33.64C271.78,269.69,286,240.59,291.9,237ZM276.53,257.7c.47-6.26,4.48-10.15,5.74-17.48C284.46,247.18,281.31,252,276.53,257.7Zm30.37-5.29c2.74,2.74,6.3,3.57,3,8.67C306,267.26,307.25,255.17,306.9,252.41Zm1.45,12.68c3.64.88,20,12.83,27.86,20.68,1.16,1.64,2.74,4,4,6.08-1.19,6.93-30.57-17.49-33.72-17.51A21.15,21.15,0,0,0,308.35,265.09Zm7.08-6.27c3,2.4,10.2,7.32,11.22,11.54-10,1.3-14.78-4.9-13.63-13.32C314,259.86,315.8,259.36,315.44,258.82Zm26.66,15.54a32.87,32.87,0,0,1,4.64-1.14c7.9,0,20.39.17,29,.21,5.58.48,10.93.93,15.51.93l-58.12,42.23c4-4.64,9.53-12,9.62-18.64,0-1.48-1-3.68-2.38-6v0c.07-1.15-1.64-3.62-4.11-6.15l.24.24a21.59,21.59,0,0,1-2.39-3.61C335.21,274.18,335.73,276.5,342.09,274.36Zm-5.24-1.14c.63-1.32,2.92-2.19,6.26-2.76,5.78,1.7,16-.1,22-.1,4.49,0,12.35.15,17.31.17,8,.48,14.66,1,17.65,1-2.72,2-11.08,8.82-21,16.68l-36.71,26.67c-4.5,2.61-7.77,3.87-8.94,3l61.38-44.6h-18c-9.62-.69-24.8-1.26-31.84,0Zm-81.72,72c-.55.4-.94,1-1.45,1.37-1.93-.22-2.92-1.3-6.44,1.83-1.22-5.27-12-.71-17.8-.85-.59-.23-1.32-.64-1.91-.9C236.59,342.92,245.76,344.06,255.13,345.22Zm-36.25-9.53c-9.52-3,19.12-11,14.29.65C231.69,339.92,221.27,336.46,218.88,335.69Zm29.6-3.88c1.49-3.58,11.91-.12,14.29.65C272.3,335.5,243.65,343.43,248.48,331.81Zm14.38-11.54c5.43-7.39,33.13-6.38,38.92-7.33.09,0,14,.4,11.84-.7,6.16,3.23,11,16.87,7,25.35C316,330.68,249.11,339,262.86,320.27Zm38.27-9.53a25.48,25.48,0,0,0,4.19-6.06C308.34,306.39,303.33,311.1,301.13,310.73Zm6-1.77,1.62-3c3.76,3.64.21,8.67-3.34,6Zm-16.08,2.26c1.19-1.29,9.16-10.41,11.38-8.23C306.64,307.15,292.33,311.5,291.05,311.23Zm-3.51-.09c-3.19.54-8.59.66-11.41,1.6,2-2,27.39-22.61,26.59-16C302.22,300.87,284.94,307.06,287.54,311.14Zm23.59,32.06c2.76-3.73,1.91-2.07,6.44-2.46C315.5,346.4,305.17,351.18,311.13,343.2Zm-2.69,7.34c-.61,2.23-2.39-.17-3.26-3.26-.07-1.51-.19-3.67-.23-5.15.56-1.84,2.12-3,5.39-2.09C309.12,344.34,309.11,348.06,308.44,350.54Zm-3.21-11.93a7.53,7.53,0,0,0-.3,3v0a13,13,0,0,0,.23,5.68l-.05-.18c.19,4,.43,7.94.17,8.39C304.77,353.86,297,336.58,305.23,338.61Zm14.57,2.67a5.43,5.43,0,0,1,1.49,4.38c-2.69,6.88-18.24,26.71-25,30.51C300.38,361.54,315.19,354.46,319.8,341.27Zm-13.17,39.4a82.43,82.43,0,0,1-9.56.11C297.81,380.59,307.18,372.18,306.63,380.68Zm-2.09-4.78q-1.67-5.19,3.23-9.09c1.84,5.66,6.4,11.65,1,14.8A5.13,5.13,0,0,0,304.55,375.9Zm4-10.26c2.41-3.38,6.91,12.66,4.47,13.76Zm2.08-2.85q4-5.23,8-10.39l7.51,23.11C312.41,377.81,315.09,376.38,310.67,362.79ZM321,350.19c7.18-16.82,20,20.06,24.12,24.14a130.35,130.35,0,0,0-16,.76C327.58,370.43,319.25,354.31,321,350.19Zm-9.42-44.76c-4.62-4.69-3.56-2.27-5.59-8.9,8.13,3.67,19.92,15.32,25.16,22.82C326.74,322.3,314.15,308,311.59,305.43Zm2.23-6.91-4.72-3c4.63-4.87,7.46-16.12,14.94-8.76A155.3,155.3,0,0,0,313.82,298.52Zm11.81-10.12c5.74,6.38,4.75,11.77,2.67,18.18a8.83,8.83,0,0,0-1.14,3.42c-.23.68-.46,1.37-.68,2.07C316.08,302.61,314.9,298.83,325.63,288.41Zm2.76,25.27a7.65,7.65,0,0,1-1.16-3.69c.36-1,.88-2.56,1.2-3.53,2.83-3.76,9.8-5.36,11.31-5.81C339,302.63,332.06,320,328.39,313.68ZM330,279.19l-4.28-3.74c4.63-3,5.47-1.08,9.51-2.74A66.83,66.83,0,0,0,330,279.19Zm-4.5-6.16-3.85-1.52C324.5,270.89,326,270.89,325.48,273Zm-8,8.28c-10.53,10.83-8.27,8-20.67,13-4.4,1.78-20.63,19.1-24.76,18.65-.14-4.3,1.76-9.22,4.91-14a.11.11,0,0,0,.06,0,.12.12,0,0,0,.12-.13h.19c3.12-.05,7.07-7.31,9.53-10.84C296.6,279.94,309,275.36,317.47,281.31Zm-33.59-10.15c.76,0,2,.05,2.89,0h0a21.7,21.7,0,0,1,4.6.32c-1.8,2.71-12.5,3.2-11.6-.22a45.44,45.44,0,0,0,4.65,0C284.21,271.23,284.05,271.19,283.89,271.16Zm6.32,3.2c-.52.63-1.06,1.26-1.6,1.88a168.27,168.27,0,0,1-17.07,15.93c1.44-9.85,1.25-8.79,6.22-16C279.71,273.37,286.58,273.69,290.2,274.36ZM271.7,294.94c2.7-2.2,10.48-11.54,16.79-18.56l-.22.26c5.76-6.3,11.47-11.8,14.65-12.06-1.93,3.08-1.26,8.55-3.48,12.06s-8.6,7.08-11.73,10.34a9.33,9.33,0,0,0-.67.81l.07-.1a55.32,55.32,0,0,0-10,11.1.11.11,0,0,0-.06,0,.11.11,0,0,0-.11.11C274.84,298.68,268.85,297.22,271.7,294.94Zm15.39-23.81c-.92,0-2.59,0-3.42,0-3.44-.85-3.74-5,3.76-15,2.93,5.86,11.14,3.4,17.92,3.4C305,263.48,294.07,270,287.08,271.13Zm3.52-14.48c-1.81-10.37,13.48-11.81,14.7,0Zm-17.77,21.13.74-5.52Q281,272.5,272.83,277.77Zm-1.5-38c-5.45.12-10.66-16.14-15.37-19.23-11.94-7.82-20.44-.37-30.36,6.49,1.48-7.24,6-12,7.64-16.85.35-1,2.24-7.43,2.74-8.39,3.78-7.17,3.84-14.08,16.41-13.65,14.53.49,23.86,8.16,25.95,23.54C279,216.42,277.86,239.61,271.34,239.75ZM233.48,206,231,208.19c1.07-3.66,1.77-7.59,2.75-11.3C233.47,200,234.59,203.87,233.48,206Zm2-13.17c.66-3.23,1.18-7,1.82-10l5.34-16.45c3.38,10.42,5.86,14.48-.18,23.91C242.29,190.6,238.2,189.41,235.49,192.83Zm11.88-15.62-4.71-14.51c-1.74,5.36-3.38,12-5.1,19.07v0c-3,9.18-6.3,19.73-9.28,28.9a13.94,13.94,0,0,1,1.91-1.2,110.85,110.85,0,0,1-7.38,18.38,14.09,14.09,0,0,1-.73,1.89l.45-1.39a45.83,45.83,0,0,1-5.75,8.46l25.87-79.63C244.33,162.31,249.76,172.4,247.37,177.21ZM216.09,319.12c13.4,15.65-21.26,8.13-23.86,8-7-.48-16.66,4.75-23,2.2,5.74-8.39.64-6.94,12.84-11.16C191.61,314.83,208.16,309.87,216.09,319.12Zm-38.65-13a12.53,12.53,0,0,1-5-1.8,20.94,20.94,0,0,1,5.59-7.61C180.68,302.19,176.89,301.95,177.44,306.15Zm-10.88-3.64c3.17-3,.17-1.55,5.89-2.78C170.27,303.26,171.33,301.71,166.57,302.51Zm6.06,4.65c6.39-.81,12.55,6.15,18.31,6-5.24,1.29-15.24,6.89-20.6,4.69C163.94,315.23,165.71,308,172.63,307.17Zm17.73,3.59q-6.39.45-3.59-3.05Q184.5,302.42,190.36,310.76Zm-5.85-8.8a4.38,4.38,0,0,1-.34-5.07c6.63,3.2,11,8.9,16.34,13.71C191.63,310,191.46,306.37,184.51,302Zm.23,2.83-4.36.47Q182.16,301.67,184.74,304.8Zm-16.11,28.69c14.61,10.62,12,10.78,6.44,28-7.35-7.25-5.37-11.45-10.13-17.24Q166.58,338.79,168.63,333.49Zm12.22,13.9c-.25-8.85-2.92-8.55-11.87-15.06.41-1.52,10.55,4.79,14.52,8,.49,1.33.39,3,0,5.82-2,5-5.63,12.51-6.29,15.65C177.28,357.23,181,352.67,180.84,347.38Zm-6-50.86c-3.27-6.53-14.18-13.62-11.24-22.16,5.32,0,15.75-2,20.3.11,9.87,4.52,20.89,28,23.73,37.24C197.72,314.37,187.94,282.29,174.8,296.52Zm8.34-23.3H164.3C166.16,269.69,181.43,270,183.14,273.22Zm-16.69-2.86c5.12-5.21,11.24-7.71,15.25,0Zm30.52,4c7.91.56,11.35,4.3,10.47,11.87A22.29,22.29,0,0,1,197,274.36Zm-19.32-32.49c6.9.09,6.69,6.73,9.12,14.07l.89,3.86C183.51,255.53,178.09,248.08,177.65,241.87Zm2.18,9.49c-8.34-2.14-13.57,7.2-22.91,5.27,3.79-5.59,12.69-11,18.59-13.32A18.82,18.82,0,0,0,179.84,251.37ZM164,259.5q-8.25,15.05-8.22,0C158.4,259.11,161.4,259.5,164,259.5ZM160.63,267a133.12,133.12,0,0,1,10.82-12.18c-.49,3.16-6.08,13.85-12.51,22.61,4.25.53,11.38,17,13.66,19.9-4.32.54-16.88-11.52-15.75-16.85l1.28-2c-5.3,7-11.05,12.45-14.93,11.2C138.59,288.28,159.51,268.06,160.63,267Zm-66.57,7.32h54c-.56,7.63-8.82,8.65-8.12,17.46.64,7.94,11.86,16.12,16.27,22.12C133.24,304.43,114.56,289.26,94.06,274.36Zm47.3,35.78c-1.21.5-4-1.26-6.52-2.21C123.21,299.49,110.62,291,99,282.6c-5.61-4.69-11.35-9.39-13.71-11.1,7.86,0,62.56-2.32,62.8,1.71H90.54Zm6.84-11-3.95-5.33a9.13,9.13,0,0,0,6.28-4.39c-1.55,4.66,15.08,24.33,11.36,25.58C156.79,316.77,150.26,302,148.2,299.19Zm6.88-15.59c3,4.57,7,9.48,10.21,14,1.94,2.68-4.21,5.42-2.66,7.38a14.07,14.07,0,0,0,7.15-.6,11.61,11.61,0,0,1-4.94,7.27C159.5,302.15,151.45,295.42,155.08,283.6Zm31.44,92.49c-8.93,6.49-24.67-15.86-28.5-21.65a6.84,6.84,0,0,0,4.71-3.42C168,360.93,179.46,367.49,186.52,376.1Zm1.31,1.85c4.56,7.72-3.79,5.27-7,1.54A7,7,0,0,0,187.83,377.95Zm-14.56-5c-6-4-11.49-2.24-10.4-9.15Q167.87,368.65,173.28,373Zm-6.82-1.32c10.06,4.72,18.24,12.17,22.61,22.31,1,2.27,4.91,19.36,2.68,19.14-4.87-.47-7.82-11.05-12.62-13.44-4.17-2.08-12.15.27-16.17-.94-15-4.51-13.89-14.41-22.17-26.13C148.31,369,158.75,368.06,166.46,371.67Zm-16.23,27.13c.73-2.43,9.79,1.87,12.1,1.86-.34,3.17-2.1,9.07-3.82,11.75C156.86,410.7,149.12,402.45,150.22,398.81Zm171.29,6.6c3.44-.15,11.67,25.29,8.7,26.77Zm3-.12c9.91-.35,10.52-1.64,14,8,3.27,9,2.84,11-5.82,17.24ZM338.8,405c12.5.6,7,4.33,3.63,11.17C340.57,413,339.93,408.43,338.8,405Zm7.26-.16c-7.6-3.8-19.82-4.52-28.23-3.35-7.76,1.09-19.35,10.48-26.42,9.34-8.71-1.41,21.86-29,25-30.27,21.24-8.51,46.58-.42,32.92,26ZM437,259.5l-85.91,62.42c-5.1-3-7.32-3.65-13.47-3.64l3.23-2.35c9.44-5.47,28.37-19.81,40.78-29.63l21.95-15.95H380.31c-12.15-.63-28.66-1.1-36.62,0l.34-.05c-10.88-3.58,0,.66-9.93-10.81Zm-102.7,4.1c-1.45-.37-4.64,3.53-6.18,3.62s-8.65-6.28-8.26-6.06c-7.07-3.88-23-16.28-23.76-25C302.78,237,330.42,256.93,334.28,263.6Zm-21.63-19.66c-9.21-7.7-3.61-9.17-1.18-15.92A26.37,26.37,0,0,1,312.65,243.94Zm-27.83-27.21c8,1.42,17.28,3.74,24,8.54-7.92,4.45-1.78,3.34-12,.88C290.72,224.68,282.71,225.08,284.82,216.72Zm.26,12.8c4.63-8.32,21.08.64,20,8.65-7.71-5.21-14.77-5.61-19.43,3.32C283.37,237.64,282.91,233.42,285.08,229.52ZM281.27,221c6.32,9.1-1.8,24.63-7.82,32.15-.36-7.33,1.38-9.61,2.54-15.61C276.16,236.66,282.19,213.89,281.27,221Zm11.34-32.3c-.87-.29,3.08-6.42,1.08-7.58,2,1.16-11,23.86-12.59,25.33C277,183.25,271.74,185,249.37,186c2.37-10.18,19.25-34.15,31.44-36.49,8.43-1.61,17,4.8,19.9,13C304.78,174.14,297.31,179.14,292.61,188.73Zm-81.47-66.31c16.81,6.41,20.75-14.46,22.66-26.17.89,16.09,2.12,43.39-18.71,48C215.47,137.32,214.16,128.7,211.13,122.42ZM231.4,72c-3.91,5.4,0,23.07-1.36,29.95-3.19,15.78-6.83,18.44-21.11,16.45-27.42-3.82-31.18-23.1-39.57-46.05,20.33,5.31,23-21.94,34.44-27.6,1.67-.83,17.41-.59,19.9-.87,8.14-.92,22.11,1.64,29.13-3,2,10,31,31.77,41.29,30-3.11,10.19-7.65,31,3.93,38-2.78,4-10.23,2.65-14,7.95-2.78,3.87-1.19,12.72-2.55,17.23-4,13.2-12.86,19.21-21,29.72-4.36-13.41-11-27.5-13.43-41.33-.26-1.49-1.65-9.09-3.55-18a136.63,136.63,0,0,0-5.1-20.82C235.86,75.17,233.3,69.38,231.4,72Zm89.27,63.79c-4,10-8.24,13-14.49,21-4.39-10.1-19.18-15.71-29.08-9,.9-1.34,7.45-21.24,7.73-21.89,3.65-8.32,1.2-10.69,10.66-14.74C313.46,103.5,327.77,118.21,320.67,135.8ZM325.94,67c.26.42.5.87.74,1.34a111.88,111.88,0,0,1,3.24,11.38,67.6,67.6,0,0,1-.35,18.21c-.53,2.42-1.42,5.45-2.09,7.87a22.4,22.4,0,0,1-3.94,6.9c-6.93-21.41-23.36,2.58-29.71-16.19C287.95,79.09,311.31,43.53,325.94,67Zm-21.6-38c5.38,9.43,6.26,12,9.66,22.67-8.93.35-9.21,1.34-15.36,5.68C292.9,61.38,297.59,69.44,287,67c-.83-.19-18.55-18.85-18.9-16.92a6.15,6.15,0,0,0,2.08,3.09C254,47.88,247,26,266.79,17.45,276.09,13.46,303.32,31.91,304.35,29ZM208.53,1.61c3.85,3.32,39.09.25,45.87,6.85A27.6,27.6,0,0,0,250,10.14c2.93-.94,10.59.31,10.93,4.67-.15-1.94-12,15.94-12.14,16.12-4,7.85,8.93,4.44-5.73,9.37-7.72,2.6-30.76,3.37-38.79.63C219.15,26,193,23.67,192.54,14.33,192.19,7.17,203.94,5.57,208.53,1.61Zm-61.63,35c2.6,3.11,18.72-23.71,23.92-25.31C187.81,6.1,200,25,198.72,40.1c-.72,8.31-16.13,34.76-28.63,30.12-3.07-1.14-3-14.26-5.71-16.95C156,44.92,150.86,52,141.49,54.4A92.38,92.38,0,0,1,146.89,36.65ZM139.16,140c-9.29,2.33-16.35-12.65-17.23-19.82,4.54,7.76,2.72-13.22,2.72-13.21-.17-12.71.62-26.25,7.28-37.64,7.06-12.07,15.61-17.21,27.84-6.94,5.6,4.7,18,31.8,7.13,24.81,6.65,4.28,10.9,17.62,14.3,23.3-5.91-.95-28.92,2.65-33.59,7C143.6,121.28,142.92,139,139.16,140Zm40.59,39.6c-47.29-5.57-48.14-63.48-.31-66.32,17.71-1,29.25,4.4,32.21,22.69,1,6.19-6.4,30.94-2,29.69C206.49,177.24,189.91,180.78,179.75,179.58Zm44.77-30.67c-4.19,4.71-9.2,13.1-16,14.6,3.38-5.16,4.37-11.53,8.08-16.23,4.15-5.26,11-7.55,14.93-14.28,11.6-19.68,2-37.5,2.11-57.82a63,63,0,0,1,4.61,8.76c1.18,4.42,3.08,12,4.36,17.43C243.94,118.24,237.07,134.8,224.52,148.91Zm19.85-25.32L252.94,150c4.5,13.84,7.48,14.7-3.29,25l-7-21.53L227.89,198.9c-4.22,13-16.09,34.27-15.77,48.3C202,202.83,234.2,164.59,244.37,123.6Zm-39.79,98.25c7.51,7.51,4.14,26.32,4.65,37.57C205.1,256.21,204.33,221.77,204.58,221.85Zm1.49,41a18.3,18.3,0,0,1-2-3.4C205.58,260.76,208.64,260.65,206.07,262.88ZM184.5,241c1.52-.21,4.55-6.18,4.73-7.58,4.27,3.4,10.17,19.91,11.76,24.85,2.41,7.44,1.1,8.38,2,15.64C199,272.86,184.39,244.37,184.5,241Zm-1.62-9.59c-.43-12.65,18.91,3.95,18.82,3.74-.66,3.75-2.45,7.55-3.63,11.18C194.35,237.26,192.89,231.43,182.88,231.39ZM201.43,254c-1.85-3.72-1.6-7.39.77-11.16A61.52,61.52,0,0,0,201.43,254ZM175.84,221.8c4.35-5.43,32.42-7.14,24.55,3.4C196.45,230.48,174.42,223.56,175.84,221.8Zm-1.24,12.57-1.29-7C174.71,230,188.25,226.44,174.6,234.37Zm-27.08,19.33c9.71-10.31,24.37-11.26,34.69-19.86-2.14,9.27-7.42,6.87-17,12.32-5.31,3-14.16,16.82-19.17,11Zm3,20.57a38.43,38.43,0,0,0-4.53-10C153.73,266.63,158.14,264.37,150.56,274.28ZM48.32,259.5h94.53a38.49,38.49,0,0,0,4.63,10.86H81.74l19.27,14c10.68,8.94,24.26,20,32.75,24.14l-.13-.06c1.33,1,4.14,2.62,5.48,3.59C127.68,329.58,61,268.74,48.32,259.5Zm54.9,96.26a117.66,117.66,0,0,1,10.43-19.27c3.28-3.54,7.52-8.08,10.6-11.89l-.27.34a48.07,48.07,0,0,1,5.24-3.88c3-1.93,16.42-4.36,12.43-8.38,3.4-2.26,8.07,1.19,11.24,2.41-1.09,1.12-2.15,2.26-3.22,3.4,5.44-4,15.07.17,13.87,10.44-1.26,10.74-16.74,15-21.88,23.4.25-1.62,5.1-11.3,3.56-12.7-.08-.07-9.2,22.71-10.25,23.25-5,2.56-17.38-6.43-24.34-2.54-8.7,4.86-4,7.44-8.88,15C96.74,369.64,100.7,361.4,103.22,355.76ZM122.55,488l10.17-31.3c6.64,4.91,15.23,6.26,23.21,7.05Zm89.51-57.56c4.88-1.28,13.32-9.29,18.71-7.14,9,3.57-14.24,22.84-17.14,25a72.18,72.18,0,0,1-47.27,14.64c-36.6-2.09-81.29-43.83-64.32-83.05,3.27-7.55,8.84-15.68,17.67-17.18,13.54-2.3,11.32,3.61,16.22,11.22,5.26,8.17,7.93,19.92,12.71,28.39,7.62,13.52,19.24,22.73,34.29,27.35A53.08,53.08,0,0,0,212.06,430.4Zm55.57-10.47c-1.61-1.34-7.06-5.51-11.22-8.64l1.28.91c-4.29-3.39-10.6-8.27-15-11.5-17.11,12.43-33.86,32.88-56.1,27.34l.67-.5c9.9-3.6,29.84-23.38,43.28-34.51,5.22-3.09,10-5,13.6-4.69,8.95.69,27.57,20,34.65,25.17l13,9.43c-1.09-.93-2.16-1.86-3.19-2.76,4.49,3.84,13.69,11.05,19.1,14.32l2.77,2C293.68,436.53,280.32,429.19,267.62,419.92Zm95.14,68-23.34-17c12-.17,12.21-5.08,18.49,2C360.56,476,361.48,484,362.76,488Zm32.07-89.16C393,436,374.19,466.22,334.24,467.38c-16.61.48-36.18-1.86-50.61-10.44-4.34-2.58-35.82-26.79-33.51-32.51,21,9.75,60.93,22.92,82.41,8.53,12-8.06,38.88-42.14,23.1-55.9,10.56-1.36,21.95-14,33.34-6.51C397.88,376.43,395.28,389.67,394.83,398.79Z"/><path d="M222.54,228.32l.27-.5a16.45,16.45,0,0,0,.41-1.61Z"/></g></svg>