<svg xmlns="http://www.w3.org/2000/svg" viewBox="0 0 500 500"><title>escorpion-imperio</title><g id="Icons"><path d="M169.83,459.29c-29.36,0-55.74-21.67-63.18-49.73-3.14-11.81-2.87-34.68,12.61-38.27,14-3.25,7.89,3.53,12.59,13.07,17.43,35.41,47.56,69.78,91.65,48.91C209.74,449.16,191.18,459.29,169.83,459.29Z"/><path d="M183.52,397.33c-17.46-9.93-24.1,3-34.36-19.47C161.66,375.35,179.62,384.28,183.52,397.33Z"/><path d="M133.33,358.29A52.27,52.27,0,0,0,110,356.64c4.68-10.5,15.28-28.84,27.79-31.37,7-1.41,11.27,9.45,18.65-.48,1.93,3,2.48,6.07-.41,8.9-23.18,22.71,4.94-8.33-11.4,1.93C136.38,340.78,134.19,348.47,133.33,358.29Z"/><path d="M208.8,327.56c-5.28,0-11.53-3.53-16.48-4.47,5.79-1.47,15.55-3.22,19.93,2.35C211.71,325.81,209.62,327.56,208.8,327.56Z"/><path d="M313.49,332.77c-7.38-1.26-42.69,1.2-46.67-6,2.68-10.26,41.59.15,48.09-5.41C313.67,325.29,312.55,328.52,313.49,332.77Z"/><path d="M335.25,463.67c-25.8,0-46.09-4.88-64.39-23.48,21.93,6.14,53.18,12.31,70.79-5.73,6-6.1,13-16.32,17.68-23.53,4.56-7,5.82-11.18,7.46-19.25.61-3-2.83-9-1.55-10.6,4-5,17.17-6.17,21.58-2.52,6.72,5.56,2.17,27.19.92,34.77C383.13,441.39,365.88,463.67,335.25,463.67Z"/><path d="M299.95,403c7.75-13.31,55.56-32.47,46.48-2.33C333,395,312.31,396.55,299.95,403Z"/><path d="M353.78,371.4c-4.52-5.59-1.21-14.67-6-20.36-5.18-6.2-4.54,1-7-1.09-6.28-5.5-17.82-9.86-7.68-19,11.4-10.26,34.84,16.31,38.58,26.16C360.62,356.75,361.13,369,353.78,371.4Z"/><path d="M270.41,233c-6.34-10.87-13.92-21.4-28.28-20,5.51-8.39-7.14-16.24,11.38-17.33C273.81,194.55,274.31,218.85,270.41,233Z"/><path d="M249.84,268.75a18.44,18.44,0,0,0-17.52-1.43C239.27,263.07,244.91,261.53,249.84,268.75Z"/><path d="M257.06,237.08c-.94-.92-3.76-2.32-3.54-3.84Zm-26.67-1.9,7.27-5.6C238.15,234.68,238.35,230.25,230.38,235.18Z"/><path d="M230.46,253.34A63.16,63.16,0,0,1,238,247a5.37,5.37,0,0,1-.22,3.18A43.93,43.93,0,0,0,230.46,253.34Z"/><path d="M238.34,329c8.76,0-14.18-28.13-20.24-29.59,3.08-4.77,11.36-13.37,16.35-16.59,2.89,5.19,13.06,18.41,15.83,4.92a153.68,153.68,0,0,1,10.53,15C238.69,300.28,245.89,329,238.34,329Z"/><path d="M183.49,176.08c-45.47,0-43.91-56.41-.51-55.37C216.31,121.51,213.19,176.08,183.49,176.08Z"/><path d="M136,136.12c-11.76-6.23-7.68-61.8,6-69.65,11.18-6.44,20.18,6.95,22.25,17.48.61,3.11-2.72,6.76-.49,12.33,1.77,4.43,6.41,7.54,10,10.43C152.82,109,139.29,114.46,136,136.12Z"/><path d="M173.79,65.54c-2.67-12-8.89-24.74-23.75-19.06,2.85-8.41,19.91-30,30.1-27.5C206.19,25.28,188.36,58.16,173.79,65.54Z"/><path d="M213,38.56c3.48-13.85-7.37-15.31-14.37-22.71,7.48-6,24.88-6.52,34.72-5.4,9.19,1,5.46-2.22,9.8,2.85,7.3,8.54-3.76,13,.74,23.27C233.59,36.77,223.27,38.4,213,38.56Z"/><path d="M290,64.42c-4.63-.16-12.14-14.51-16-17-7.12-4.52-15.21,2.46-12.68-12,2.61-15,14.83-11.49,24.47-7.39,6.24,2.65,20.31,12,21.42,19.53C295.87,47.57,295.31,63.7,290,64.42Z"/><path d="M323.25,102.79c-6.26-6.36-15.63-5.06-23-1.62-4.14-9.94-.42-36.5,15.49-33.29C325,69.74,325.39,95.23,323.25,102.79Z"/><path d="M307.54,150.12c-4.77-6-11.27-8.5-18.67-8.19,4.19-9.75-1.55-33,20.28-24.14C321.19,122.69,317.74,143.16,307.54,150.12Z"/><path d="M283.84,191.67c-4.51-10.63-15.9-12.56-26.14-10.74,8.72-8.13,20.2-29.67,32.69-20.88C306.16,171.16,285.53,180.5,283.84,191.67Z"/><path d="M390.12,370.67c-7.13-7.82-14.2-18.92-20.88-27.26-5.61-7-7.1-13.93-15.31-18l91.86-66.74H356.66c-10.86,0-22.47,2.32-31.94-3.45-13-7.93-4.79-16.49-12-27-4.15-6-24.45-14.62-31.4-11.6-.43-5.91,13.46-21,16.44-26.75,2.25-4.31,6.15-8.08,7.68-12.58,1-3-2.43-8.09-1.39-10.2,3.9-7.91,11.71-13,16-21,5.76-10.76,2.57-16.66,4.64-26.76,2.76-13.44,7.44-21.77,5.75-35.16-1.92-15.21-8.89-22.77-15.12-36.18-1.77-3.81-5.36-21.33-11.06-21.31-6.54,3.34-6.11-2.5-13.71-7-8.08-4.79-14.38-2.1-22-4.35C259.83,12.74,252.24,3,240.58,1.64,222.92-.49,210,1.46,196.35,7.45c-9.69,4.25-16.21.32-26.87,4.55-8.55,3.39-17.48,17.29-22.05,24.36C134.08,57,113,93.75,123.39,119.52c-5.18-6.11-5.33,3.67-4.52,6.81,1.77,6.82,5.26,9.4,9.67,14.57a16.5,16.5,0,0,0,11.09,4.28,37.89,37.89,0,0,0-.12,13.17c2.93,5.56,3.61,10.08,8.47,15,9.26,9.29,27.42,14,40,13.13,19.07-1.33,27.84-17.74,40-30.36l-21,64.67c-5.17-4.79-27.06-4.55-32.51.8-6.1,6,.92,10.94-3.38,16.49-2.78,3.59-8.48,3.35-11.88,6-15.07,12-14.19,14.57-32.19,14.57H39.53l87.81,63.8c-10.87,15.9-26.56,23.79-29.76,45.78-2.82,19.43-1.81,42.15,7.9,60.14,4.24,7.85,23.36,21.79,24.83,28.43.58,2.64-3.07,7.95-3.42,10.54-1.35,9.93-6.67,20.52-9.78,30.1,6.05-4.4,42.07-30.61,40.9-31.53,26.05,2.5,51.33-3.7,69.25-24,4.35-4.93,13.91-14.89,5.26-19.08-5.94-2.88-18.3,7.65-24.49,8.53,7.27-5.28,27.21-25.44,35.19-24.73,10.48.93,29.84,21.68,38.78,28.18-7.42-1.72-35-16.83-34.18-5.13.85,12.34,32.49,30.8,41.49,34.63,16.49,7,35.26,4.66,50.4,12.43,10.05,5.16,19.28,14,28.47,20.69-2.13-6.55-6.64-14.56-6.92-21.3-.57-13.59,6.7-10.4,17.47-21.8C395.53,436.56,408.38,390.7,390.12,370.67Zm-27.94-31.61c7.1,7,11.74,17,18.26,23.28a46.77,46.77,0,0,1-11.76.83,13.92,13.92,0,0,0-7,8.4c-4.13,1.64-4.44,7.73-10.76,4.85-4.34-2-6.23-21.63-7.47-21.35-11.1,2.56-29.8-19.17-11.56-30.82C345,315.85,353.49,330.47,362.17,339.06ZM243,384.57c-15.46,8.74-30.78,21.87-45.49,32.56-3.37,2.45-11.36,11-15.8,11.48-10.48,1-28.31-15.37-15.48-24.95,12.24-9.13,22.25,18,28.54,11.15,3.08-3.34-1.8-12.35-2.39-15.64a29.89,29.89,0,0,0-4.62-10.91q3.83-2.08,2.07-6.7c-2.31-5.3-10.63-12.14-11.13-16.27-.47-3.82,3.67-9.22,4.21-13,1.8-12.4,2.1-9.91-9.33-18.22,31.14-7.55,45,20.48,72,17.14,7.15-.88,9.66-3.21,17.15-7.75,13.32-8.06,24.71-8.05,40.78-3.41-9,4.77,2,11.85,1.12,19.09-1.2,10.07-26.31,28,2,25.77-6.45,4.25-26.4,25.14-14.88,30.7,7,3.4,19.91-12.73,29-7,1.52,1,9,23.2,8.12,25-2.36,5-9.44,4.35-14.13,3-12.8-3.58-28.56-20.75-39.2-28.48Zm72.09,53.79c-10,.64-27.41-17.8-35.16-23.43-6.88-5-27.95-26.45-36.74-26.69-12.78-.35-49.56,47.4-59.89,40.62,13.15-9.56,46.32-43.57,60.78-42.09,10.6,1.08,30.82,22.39,39.31,28.56ZM141.61,362.6c-.55-7.28,7-13.92,12.17-17.62-.62,7,10.59,18.87,5,24.06-1.31,1.23-21.35-1.65-21.06,1.87A78.4,78.4,0,0,0,141.61,362.6Zm102.76-237L252.94,152c4.5,13.84,7.48,14.7-3.29,25l-7-21.53L227.89,200.9c-4.22,13-16.09,34.27-15.77,48.3C202,204.83,234.2,166.59,244.37,125.6Zm-33.24-1.18c16.81,6.41,20.75-14.46,22.66-26.17.89,16.09,2.12,43.39-18.71,48C215.47,139.32,214.16,130.7,211.13,124.42ZM231.4,74c-3.91,5.4,0,23.07-1.36,29.95-3.19,15.78-6.83,18.44-21.11,16.45-27.42-3.82-31.18-23.1-39.57-46.05,20.33,5.31,23-21.94,34.44-27.6,1.67-.83,17.41-.59,19.9-.87,8.14-.92,22.11,1.64,29.13-3,2,10,31,31.77,41.29,30-3.11,10.19-7.65,31,3.93,38-2.78,4-10.23,2.65-14,7.95-2.78,3.87-1.19,12.72-2.55,17.23-4,13.2-12.86,19.21-21,29.72-4.36-13.41-11-27.5-13.43-41.33C246.27,120.23,236.5,67,231.4,74Zm50.87,168.21c2.19,7-1,11.8-5.74,17.48C277,253.43,281,249.55,282.27,242.22Zm-6.62,18.47M291.9,239c5.81,11.42-11.05,25.45-15.36,33.64C271.78,271.69,286,242.59,291.9,239Zm15,15.36c2.74,2.74,6.3,3.57,3,8.67C306,269.26,307.25,257.17,306.9,254.41Zm1.45,12.68c4.88,1.18,32.21,21.78,31.91,26.52-.5,7.81-30.59-17.25-33.78-17.27A21.15,21.15,0,0,0,308.35,267.09ZM313,259c1,2.82,2.78,2.32,2.41,1.79,3,2.4,10.2,7.32,11.22,11.54C316.65,273.66,311.87,267.46,313,259Zm78.22,17.32-58.12,42.23c4-4.64,9.53-12,9.62-18.64.06-4.31-8.76-14.62-8.64-15.5,1.09-8.27,1.61-6,8-8.09C355.36,271.91,377,276.36,391.25,276.36Zm-54.4-1.14c3.38-7,53.36-1.71,63.2-1.71-7.74,5.63-61.1,50.66-66.66,46.31l61.38-44.6ZM304.55,377.9q-1.66-5.19,3.23-9.09c1.84,5.66,6.4,11.65,1,14.8A5.13,5.13,0,0,0,304.55,377.9Zm2.09,4.78a82.28,82.28,0,0,1-9.56.11C297.81,382.59,307.18,374.18,306.63,382.68Zm2-15c2.41-3.38,6.91,12.66,4.47,13.76Zm2.08-2.85q4-5.23,8-10.39l7.51,23.11C312.41,379.81,315.09,378.38,310.67,364.79Zm18.42,12.3c-1.52-4.67-9.85-20.78-8.09-24.9,7.17-16.82,20,20.06,24.12,24.14A130.42,130.42,0,0,0,329.1,377.1Zm-7.81-29.44c-2.69,6.88-18.24,26.71-25,30.51,4.13-14.63,18.95-21.71,23.55-34.89A5.43,5.43,0,0,1,321.29,347.65Zm-74,2.76c-1.45-6.22-16.24,1.29-20.39-1.48,10.15-4.49,20.45-2.63,31-1.38C252.08,350.61,252.57,345.68,247.24,350.42Zm-28.36-12.73c-9.52-3,19.12-11,14.29.65C231.69,341.92,221.27,338.46,218.88,337.69Zm23.39-.25,10.42-11.28c-9.49,12.91-18.36,5.13-30.21,3.33,8.66-7.31-26.5-27.89-3.11-20.94,9.73,2.89,7.85,16.33,11.54,18.5,4.9,2.88-1.61-12.09-2.11-12.82-2.92-4.34-11.88-13.11-18.21-8.63,0-8,14.93-28.27,23.4-28.62,8.2-.34,1.84,8.93,9.23,10.89,4.24,1.12-.59-11.91-.78-12.07,7.2,1.58,32.24,26.76,28.14,35-8.95-12.59-33.27,10.5-23.41,16.3-4-2.34,12.78-28.49,22.55-12.41C258.13,313,258,318.92,252.69,326.15Zm-5.42-92c1.38-2.27.44-9.1-2.41-9.89,0,0-1.73,10.66-3.3,12.61-1.78,2.21-10.2,4.7-13,6.73-6,4.31-10.76,10.94-15.95,16.14,3.13-13.12,10.84-36.75,28.55-38,20.76-1.45,30.22,25.9,30.22,41.65C265.47,255.92,248,241.21,247.27,234.11Zm-25.19-2.4,1.14-3.5A15,15,0,0,1,222.08,231.71Zm49.61,65.22c5.41-4.39,24.29-29.81,31.23-30.36-1.93,3.08-1.26,8.55-3.48,12.06s-8.6,7.08-11.73,10.34c-2.31,2.41-6.73,11.86-10.38,11.92C275.89,300.92,268.62,299.4,271.7,296.94Zm15.73-38.84c2.93,5.86,11.14,3.4,17.92,3.4C304.64,269,266.94,285.48,287.43,258.1Zm3.92,15.41c-1.8,2.71-12.5,3.2-11.6-.22C283.1,273.52,287.83,272.77,291.34,273.5Zm-19.19,34.81c-1.54-3.84-3.32-3.54-2-7.81C273.21,304.45,275.42,303.29,272.15,308.31Zm-4.46-7.48C251.68,274,233,259.69,212,293.72c.53-15.92,14-42.46,35.47-35.1C261.38,263.39,271.63,288,267.7,300.83Zm-4.83,21.43c5.43-7.39,33.13-6.38,38.91-7.33.09,0,14,.4,11.84-.7,6.16,3.23,11,16.87,7,25.35C316,332.68,249.11,341,262.86,322.27Zm38.27-9.53a25.48,25.48,0,0,0,4.19-6.06C308.34,308.39,303.33,313.1,301.13,312.73Zm6-1.77,1.62-3c3.76,3.64.21,8.67-3.34,6Zm-16.08,2.26c1.19-1.29,9.16-10.41,11.38-8.23C306.64,309.15,292.33,313.5,291.05,313.23Zm-3.51-.09c-3.19.54-8.59.66-11.41,1.6,2-2,27.39-22.61,26.59-16C302.22,302.87,284.94,309.06,287.54,313.14Zm20.9,39.4c-1.37,5-8.73-13.37,1.89-10.5C309.12,346.34,309.11,350.06,308.44,352.54Zm2.69-7.34c2.76-3.73,1.91-2.07,6.44-2.46C315.5,348.4,305.17,353.18,311.13,345.2Zm-5.6-4.52c-1.48-1.88.31,15.76-.25,16.76C304.76,355.84,296.77,338.13,305.53,340.68Zm6.06-33.24c-4.62-4.69-3.56-2.27-5.59-8.91,8.13,3.67,19.92,15.32,25.16,22.82C326.74,324.3,314.15,310,311.59,307.43Zm2.23-6.91-4.72-3c4.63-4.87,7.46-16.12,14.94-8.76A155.25,155.25,0,0,0,313.82,300.52Zm11.81-10.12c7.3,8.11,3.71,14.63.85,23.67C316.08,304.61,314.9,300.83,325.63,290.41Zm2.76,25.27c-5.31-9.15,9.1-12.35,11.35-13C339,304.63,332.06,322,328.39,315.68ZM330,281.19l-4.28-3.74c4.63-3,5.47-1.08,9.51-2.74A67,67,0,0,0,330,281.19Zm-4.5-6.16-3.85-1.52C324.5,272.89,326,272.89,325.48,275Zm-8,8.28c-10.53,10.83-8.27,8-20.67,13-4.4,1.78-20.63,19.1-24.76,18.66C271.51,298.22,301.61,272.11,317.47,283.31Zm-26.87-24.67c-1.81-10.37,13.48-11.81,14.69,0Zm-17,15.62q7.38.24-.74,5.52Zm4.18,3.93c2-2.82,8.82-2.5,12.45-1.83a121.87,121.87,0,0,1-18.67,17.81C273,284.32,272.78,285.38,277.75,278.19Zm-6.42-36.44c-5.45.12-10.66-16.14-15.37-19.23-11.94-7.82-20.44-.37-30.36,6.49,1.48-7.24,6-12,7.64-16.85.35-1,2.24-7.43,2.74-8.39,3.78-7.17,3.84-14.08,16.41-13.65,14.53.49,23.86,8.16,25.95,23.54C279,218.42,277.86,241.61,271.34,241.75ZM233.48,208l-5.2,4.64,14.38-44.25c3.38,10.42,5.86,14.48-.18,23.91-.22.34-5.94-1.43-8.33,4.89C232.95,200.4,234.81,205.46,233.48,208Zm13.89-28.8-4.71-14.51c-6.55,20.16-11.58,57.9-25.87,74.08l25.87-79.63C244.33,164.31,249.76,174.4,247.37,179.21Zm-19.68,68.87c18.8-18.41,48.08,10.79,42.77,31.87-5.6-.45-29.69-37.9-26.86-38.89.94-.33-1.51,12.74-2.4,14.15-5.41,8.57-23.94,11.39-30.78,22.9C205.33,264.49,219.54,256.06,227.69,248.07Zm-11.6,73c13.4,15.65-21.26,8.13-23.86,8-7-.48-16.66,4.75-23,2.2,5.74-8.39.64-6.94,12.84-11.16C191.61,316.83,208.16,311.87,216.09,321.12ZM158,356.45a6.84,6.84,0,0,0,4.71-3.42c5.32,9.9,16.73,16.46,23.79,25.06C177.59,384.58,161.85,362.24,158,356.45Zm29.81,23.5c4.56,7.72-3.79,5.27-7,1.54A7,7,0,0,0,187.83,379.95Zm-14.56-5c-6-4-11.49-2.24-10.4-9.15Q167.87,370.65,173.28,375ZM155.8,261.5c2.59-.39,5.59,0,8.22,0Q155.77,276.55,155.8,261.5Zm4.83,7.54a133.09,133.09,0,0,1,10.82-12.18c-.91,5.88-19.42,37.75-28.26,34.9C138.59,290.28,159.51,270.06,160.63,269Zm35,3.32c-2.11-3.42-3.91-5.1-5.63-10.86C191.77,264.19,193.72,269.21,195.63,272.36Zm-5.95-12,4.92,15.11c3.93,6.2,13.68,14.78,12.81,23.2-3,2.88-20.46-22.08-23.14-25.73-.06-.08-7.4-13.78-4.39-6.66-.61-1.45-2.43-8.6-3.85-11C184.43,254.55,191,269.78,194.6,275.48Zm1.33-2-9.16,36.2q-2.27-5.29,3.59,3.05Q184,313.21,186.77,309.71ZM184.51,304a4.38,4.38,0,0,1-.34-5.07c6.63,3.2,11,8.9,16.34,13.71C191.63,312,191.46,308.37,184.51,304Zm.23,2.84-4.36.47Q182.16,303.67,184.74,306.8Zm-9.94-8.28c-3.27-6.53-14.18-13.62-11.24-22.16,5.32,0,15.75-2,20.3.11,9.87,4.52,20.89,28,23.73,37.24C197.72,316.37,187.94,284.29,174.8,298.52Zm2.65,9.63a12.53,12.53,0,0,1-5-1.8,20.94,20.94,0,0,1,5.59-7.61C180.68,304.19,176.89,303.95,177.44,308.15ZM164.3,275.22c1.86-3.53,17.13-3.25,18.84,0Zm17.4-2.86H166.45C171.57,267.15,177.7,264.65,181.7,272.36Zm-24.86,10.16,2-3.07c4.24.32,11.45,17,13.75,19.92C168.27,299.92,155.71,287.85,156.84,282.52Zm15.62,19.21c-2.19,3.53-1.13,2-5.89,2.78C169.73,301.49,166.74,303,172.46,301.73Zm.17,7.44c6.39-.81,12.55,6.15,18.31,6-5.24,1.29-15.24,6.89-20.6,4.69C163.94,317.23,165.71,310,172.63,309.17Zm-8,41.9.26-4.84q1.64-5.44,3.69-10.74c14.61,10.62,12,10.78,6.44,28C167.72,356.22,169.69,352,164.93,346.23Zm12.42,19.37c-1.1-5.22,3.65-10.26,3.49-16.21-.25-8.85-2.92-8.55-11.87-15.06.51-1.87,15,7.4,15.58,9.2C185.57,346.66,175.3,364.08,177.36,365.6Zm30.08-77.36A22.29,22.29,0,0,1,197,276.36C204.88,276.92,208.33,280.66,207.44,288.23Zm-1.37-23.35a18.33,18.33,0,0,1-2-3.4C205.58,262.76,208.64,262.65,206.07,264.88ZM201.43,256c-1.85-3.72-1.6-7.39.77-11.16A61.52,61.52,0,0,0,201.43,256Zm.27-18.86c-.66,3.75-2.45,7.55-3.63,11.18-3.71-9-5.17-14.87-15.19-14.91C182.45,220.74,201.78,237.33,201.7,237.12ZM184.5,243c1.52-.21,4.55-6.18,4.73-7.58,4.27,3.4,10.17,19.91,11.76,24.85,2.41,7.44,1.1,8.38,2,15.64C199,274.86,184.39,246.37,184.5,243Zm2.27,15,.89,3.86c-4.15-4.26-9.57-11.71-10-17.92C184.56,244,184.35,250.6,186.77,257.94Zm-6.93-4.57c-8.34-2.14-13.57,7.2-22.91,5.27,3.79-5.59,12.69-11,18.59-13.32A18.82,18.82,0,0,0,179.84,253.37Zm-29.28,22.91a38.43,38.43,0,0,0-4.53-10C153.73,268.63,158.14,266.37,150.56,276.28Zm-2.49-1.06H90.54l50.82,36.92c-8.79,3.61-47-32-56.1-38.64C93.12,273.5,147.82,271.19,148.07,275.22Zm-54,1.14h54c-.56,7.63-8.82,8.65-8.12,17.46.64,7.94,11.86,16.12,16.27,22.12C133.24,306.43,114.56,291.26,94.06,276.36Zm54.14,24.83-3.95-5.33a9.12,9.12,0,0,0,6.28-4.39c-1.55,4.66,15.08,24.33,11.36,25.58C156.79,318.77,150.26,304,148.2,301.19Zm6.88-15.59c3,4.57,7,9.48,10.21,14,1.94,2.68-4.21,5.42-2.66,7.38a14.07,14.07,0,0,0,7.15-.6,11.61,11.61,0,0,1-4.94,7.27C159.5,304.14,151.45,297.42,155.08,285.6Zm11.57,48.61-.2,39.46c10.06,4.72,18.24,12.17,22.61,22.31,1,2.27,4.91,19.36,2.68,19.14-4.87-.47-7.82-11.05-12.62-13.44-4.17-2.08-12.15.27-16.17-.93-15-4.51-13.89-14.41-22.17-26.13C148.31,371,158.75,370.06,166.46,373.67Zm-16.23,27.13c.73-2.43,9.79,1.87,12.1,1.86-.34,3.17-2.1,9.07-3.82,11.75C156.86,412.7,149.12,404.45,150.22,400.81Zm13.3,1.88c3.54.12-1.94,11.52-2.73,14C158.2,414.27,162.17,405.87,163.53,402.68Zm158,4.72c3.44-.15,11.67,25.29,8.7,26.77Zm3-.12c9.91-.35,10.52-1.64,14,8,3.27,9,2.84,11-5.82,17.24Zm17.95,10.84c-1.86-3.12-2.5-7.7-3.63-11.17C351.3,407.56,345.84,411.28,342.43,418.13Zm3.63-11.33c-7.6-3.8-19.82-4.52-28.23-3.35-7.76,1.09-19.35,10.48-26.42,9.34-8.71-1.41,21.86-29,25-30.27,21.24-8.51,46.58-.42,32.92,26Zm5-82.88c-5.1-3-7.32-3.65-13.47-3.64l66-47.92H365.09c-6.1,0-15.2,1.89-20.91,0-11.15-3.68-.07.66-10.09-10.86H437ZM334.28,265.6c-1.45-.37-4.64,3.53-6.18,3.62s-8.65-6.28-8.26-6.06c-7.07-3.88-23-16.28-23.76-25C302.78,239,330.42,258.93,334.28,265.6ZM311.47,230a26.37,26.37,0,0,1,1.18,15.92C303.44,238.24,309,236.77,311.47,230Zm-26.65-11.29c8,1.42,17.28,3.74,24,8.54-7.92,4.45-1.78,3.34-12,.88C290.72,226.68,282.71,227.08,284.82,218.72Zm.26,12.8c4.63-8.32,21.08.64,20,8.65-7.71-5.21-14.77-5.61-19.43,3.32C283.37,239.64,282.91,235.42,285.08,231.52ZM281.27,223c6.32,9.1-1.8,24.63-7.82,32.15-.36-7.33,1.38-9.61,2.54-15.61C276.16,238.66,282.19,215.89,281.27,223Zm11.34-32.3c-.87-.29,3.08-6.42,1.08-7.58,2,1.16-11,23.86-12.59,25.33C277,185.25,271.74,187,249.37,188c2.37-10.18,19.25-34.15,31.44-36.49,8.43-1.61,17,4.8,19.9,13C304.78,176.14,297.31,181.14,292.61,190.73Zm28.07-52.93c-4,10-8.24,13-14.49,21-4.4-10.13-19.28-15.75-29.18-9,.27.81,7.53-21.27,7.83-22,3.65-8.32,1.2-10.69,10.66-14.74C313.46,105.5,327.77,120.21,320.67,137.8ZM325.94,69c6.65,10.67,6,36.19-2.41,45.7-6.93-21.41-23.36,2.58-29.71-16.19C287.95,81.09,311.31,45.53,325.94,69ZM266.79,19.45c9.3-4,36.53,14.46,37.56,11.51,5.38,9.43,6.26,12,9.66,22.67-8.93.35-9.21,1.34-15.36,5.68C292.9,63.38,297.59,71.44,287,69c-.83-.19-18.55-18.85-18.9-16.92a6.15,6.15,0,0,0,2.08,3.09C254,49.88,247,28,266.79,19.45ZM209.16,3c.21,4.3,38.08.5,45.23,7.45a27.59,27.59,0,0,0-5.23,2.07c1.9-1.59,11.36-.57,11.73,4.28-.15-1.94-12,15.94-12.14,16.12-4,7.85,8.93,4.44-5.73,9.37-7.72,2.6-30.76,3.37-38.79.63C219.15,28,193,25.67,192.54,16.33,192.18,8.82,205.14,7.42,209.16,3ZM146.89,38.65c2.6,3.11,18.72-23.71,23.92-25.31C187.81,8.1,200,27,198.72,42.1c-.72,8.31-16.13,34.76-28.63,30.12-3.07-1.14-3-14.26-5.71-16.95C156,46.92,150.86,54,141.49,56.4A92.39,92.39,0,0,1,146.89,38.65ZM139.16,142c-9.29,2.33-16.35-12.65-17.23-19.82,4.54,7.76,2.72-13.22,2.72-13.21-.17-12.71.62-26.25,7.28-37.64,7.06-12.07,15.61-17.21,27.84-6.94,5.6,4.7,18,31.8,7.13,24.81,6.65,4.28,10.9,17.62,14.3,23.3-5.91-.95-28.92,2.65-33.59,7C143.6,123.28,142.92,141,139.16,142Zm40.59,39.6c-47.29-5.57-48.14-63.48-.31-66.32,17.71-1,29.25,4.4,32.21,22.69,1,6.19-6.4,30.94-2,29.69C206.49,179.24,189.91,182.78,179.75,181.58Zm44.77-30.67c-4.19,4.71-9.2,13.1-16,14.61,3.38-5.16,4.37-11.53,8.08-16.23,4.15-5.26,11-7.55,14.93-14.28,11.6-19.68,2-37.5,2.11-57.82C249.61,102.44,243.58,129.48,224.52,150.91Zm-19.94,72.94c7.51,7.51,4.14,26.32,4.65,37.57C205.1,258.21,204.33,223.77,204.58,223.85Zm-28.74,0c4.35-5.43,32.42-7.14,24.55,3.4C196.45,232.48,174.42,225.56,175.84,223.8Zm-2.64,5c-.39,3.71,16-.86,1.4,7.6Zm-25.68,26.93c9.71-10.31,24.37-11.26,34.69-19.86-2.14,9.27-7.42,6.87-17,12.32-5.31,3-14.16,16.82-19.17,11Zm-4.67,5.8a38.48,38.48,0,0,0,4.63,10.86H81.74L139.11,314C127.68,331.58,61,270.74,48.32,261.5Zm-39.63,96.26c6-13.39,13.31-26.63,26-34.7,3-1.93,16.42-4.36,12.43-8.39,3.4-2.26,8.07,1.19,11.24,2.41q-2.57,2.66-5.1,5.36c4.63-7,17.1-3.13,15.74,8.47-1.26,10.74-16.74,15-21.88,23.4.25-1.62,5.1-11.3,3.56-12.7-.08-.07-9.2,22.71-10.25,23.25-5,2.56-17.38-6.43-24.34-2.54-8.7,4.86-4,7.44-8.88,15C96.74,371.64,100.7,363.4,103.22,357.76ZM122.55,490l10.17-31.3c6.64,4.91,15.23,6.26,23.21,7.05Zm108.22-64.7c9,3.57-14.24,22.84-17.14,25a72.18,72.18,0,0,1-47.27,14.64c-36.6-2.09-81.29-43.83-64.32-83.05,3.27-7.55,8.84-15.68,17.67-17.18,13.54-2.3,11.32,3.61,16.22,11.22,5.26,8.17,7.93,19.92,12.71,28.39,7.62,13.52,19.24,22.73,34.29,27.35a53.07,53.07,0,0,0,29.13.75C216.93,431.12,225.38,423.11,230.77,425.25Zm11.89-22.56c-17.11,12.43-33.86,32.88-56.1,27.34,12.8-9.3,43.33-40.81,57.55-39.71,8.95.69,27.57,20,34.65,25.17l31.68,23C282.66,438.55,264.18,418.33,242.66,402.69ZM362.76,490l-23.34-17c12-.17,12.21-5.08,18.49,2C360.56,478,361.48,486,362.76,490Zm32.07-89.16C393,438,374.19,468.22,334.24,469.38c-16.61.48-36.18-1.86-50.61-10.44-4.34-2.58-35.82-26.79-33.51-32.51,21,9.75,60.93,22.92,82.41,8.53,12-8.06,38.88-42.14,23.1-55.9,10.56-1.36,21.95-14,33.34-6.51C397.88,378.43,395.28,391.67,394.83,400.79Z"/></g></svg>