<svg xmlns="http://www.w3.org/2000/svg" viewBox="0 0 500 500"><title>escorpion-imperio</title><g id="Icons"><path d="M169.83,459.29c-29.36,0-55.74-21.67-63.18-49.73-3.14-11.81-2.87-34.68,12.61-38.27,14-3.25,7.89,3.53,12.59,13.07,17.43,35.41,47.56,69.78,91.65,48.91C209.74,449.16,191.18,459.29,169.83,459.29Z"/><path d="M183.52,397.33c-17.46-9.93-24.1,3-34.36-19.47C161.66,375.35,179.62,384.28,183.52,397.33Z"/><path d="M133.33,358.29A52.27,52.27,0,0,0,110,356.64c4.68-10.5,15.28-28.84,27.79-31.37,7-1.41,11.27,9.45,18.65-.48,1.93,3,2.48,6.07-.41,8.9-23.18,22.71,4.94-8.33-11.4,1.93C136.38,340.78,134.19,348.47,133.33,358.29Z"/><path d="M208.8,327.56c-5.28,0-11.53-3.53-16.48-4.47,5.79-1.47,15.55-3.22,19.93,2.35C211.71,325.81,209.62,327.56,208.8,327.56Z"/><path d="M313.49,332.77c-7.38-1.26-42.69,1.2-46.67-6,2.68-10.26,41.59.15,48.09-5.41C313.67,325.29,312.55,328.52,313.49,332.77Z"/><path d="M335.25,463.67c-25.8,0-46.09-4.88-64.39-23.48,21.93,6.14,53.18,12.31,70.79-5.73,6-6.1,13-16.32,17.68-23.53,4.56-7,5.82-11.18,7.46-19.25.61-3-2.83-9-1.55-10.6,4-5,17.17-6.17,21.58-2.52,6.72,5.56,2.17,27.19.92,34.77C383.13,441.39,365.88,463.67,335.25,463.67Z"/><path d="M299.95,403c7.75-13.31,55.56-32.47,46.48-2.33C333,395,312.31,396.55,299.95,403Z"/><path d="M353.78,371.4c-4.52-5.59-1.21-14.67-6-20.36-5.18-6.2-4.54,1-7-1.09-6.28-5.5-17.82-9.86-7.68-19,11.4-10.26,34.84,16.31,38.58,26.16C360.62,356.75,361.13,369,353.78,371.4Z"/><path d="M270.41,233c-6.34-10.87-13.92-21.4-28.28-20,5.51-8.39-7.14-16.24,11.38-17.33C273.81,194.55,274.31,218.85,270.41,233Z"/><path d="M249.84,268.75a18.44,18.44,0,0,0-17.52-1.43C239.27,263.07,244.91,261.53,249.84,268.75Z"/><path d="M257.06,237.08c-.94-.92-3.76-2.32-3.54-3.84Zm-26.67-1.9,7.27-5.6C238.15,234.68,238.35,230.25,230.38,235.18Z"/><path d="M230.46,253.34A63.16,63.16,0,0,1,238,247a5.37,5.37,0,0,1-.22,3.18A43.93,43.93,0,0,0,230.46,253.34Z"/><path d="M238.34,329c8.76,0-14.18-28.13-20.24-29.59,3.08-4.77,11.36-13.37,16.35-16.59,2.89,5.19,13.06,18.41,15.83,4.92a153.68,153.68,0,0,1,10.53,15C238.69,300.28,245.89,329,238.34,329Z"/><path d="M183.49,176.08c-45.47,0-43.91-56.41-.51-55.37C216.31,121.51,213.19,176.08,183.49,176.08Z"/><path d="M136,136.12c-11.76-6.23-7.68-61.8,6-69.65,11.18-6.44,20.18,6.95,22.25,17.48.61,3.11-2.72,6.76-.49,12.33,1.77,4.43,6.41,7.54,10,10.43C152.82,109,139.29,114.46,136,136.12Z"/><path d="M173.79,65.54c-2.67-12-8.89-24.74-23.75-19.06,2.85-8.41,19.91-30,30.1-27.5C206.19,25.28,188.36,58.16,173.79,65.54Z"/><path d="M213,38.56c3.48-13.85-7.37-15.31-14.37-22.71,7.48-6,24.88-6.52,34.72-5.4,9.19,1,5.46-2.22,9.8,2.85,7.3,8.54-3.76,13,.74,23.27C233.59,36.77,223.27,38.4,213,38.56Z"/><path d="M290,64.42c-4.63-.16-12.14-14.51-16-17-7.12-4.52-15.21,2.46-12.68-12,2.61-15,14.83-11.49,24.47-7.39,6.24,2.65,20.31,12,21.42,19.53C295.87,47.57,295.31,63.7,290,64.42Z"/><path d="M323.25,102.79c-6.26-6.36-15.63-5.06-23-1.62-4.14-9.94-.42-36.5,15.49-33.29C325,69.74,325.39,95.23,323.25,102.79Z"/><path d="M307.54,150.12c-4.77-6-11.27-8.5-18.67-8.19,4.19-9.75-1.55-33,20.28-24.14C321.19,122.69,317.74,143.16,307.54,150.12Z"/><path d="M283.84,191.67c-4.51-10.63-15.9-12.56-26.14-10.74,8.72-8.13,20.2-29.67,32.69-20.88C306.16,171.16,285.53,180.5,283.84,191.67Z"/><path d="M113.67,338.47c3.43-3.71,7-7.38,10.32-11.53A59.09,59.09,0,0,0,113.67,338.47Z"/><path d="M184.55,343.52a4,4,0,0,0-1.08-1.23c.53,1.36.42,3.07,0,6C184.32,346.11,184.82,344.33,184.55,343.52Z"/><path d="M162,413.67c1.08-2.67,2.5-6.31,2.71-8.66A9.13,9.13,0,0,0,162,413.67Z"/><path d="M262.68,418.21c-2.35-2-4.7-3.83-7-5.49C258,414.58,260.34,416.42,262.68,418.21Z"/><path d="M250,12.14a2.47,2.47,0,0,0-.8.39Z"/><path d="M237.29,388a15.55,15.55,0,0,1,6.79-1.21,12.76,12.76,0,0,1,2.92.71l-4-2.91Q240.14,386.18,237.29,388Z"/><path d="M272.14,405.75c-8.17-7.24-18-15.74-25.14-18.27Z"/><path d="M147.81,322.45c.62-.66,1.25-1.31,1.87-2A7.77,7.77,0,0,0,147.81,322.45Z"/><path d="M243.18,388.24c-3.18-.09-7.84,2.8-13.21,7.08,5.43-3.28,10.36-5.29,14.13-5,8.95.69,27.57,20,34.65,25.17l13,9.43c-4.69-4-8.92-7.89-11.81-10C273,409.93,252,388.48,243.18,388.24Z"/><path d="M310.68,435.16l-22.15-16.09C295.69,425.29,303.49,431.86,310.68,435.16Z"/><path d="M229.13,349.55q-1-.33-2-.71l-.23.09A4.58,4.58,0,0,0,229.13,349.55Z"/><path d="M307.16,436.14l-15.43-11.21C296.71,429.18,302.2,433.57,307.16,436.14Z"/><path d="M326.76,70.47a52.21,52.21,0,0,1,2.94,9.68A34.2,34.2,0,0,0,326.76,70.47Z"/><path d="M329.64,99.6c-.52,2.48-1.18,4.94-1.89,7.48A44.51,44.51,0,0,0,329.64,99.6Z"/><polygon points="209.16 3 209.15 3.01 209.16 3.01 209.16 3"/><path d="M257.86,347.55l-1.39-.17c-.76.45-1.48.87-2.19,1.24A7.6,7.6,0,0,0,257.86,347.55Z"/><path d="M329.64,99.6a45,45,0,0,0,.73-15.45c-.18-1.4-.41-2.71-.67-4A61,61,0,0,1,329.64,99.6Z"/><path d="M247.24,350.42c-1.25-5.36-12.4-.53-18.12-.86a37.45,37.45,0,0,0,16.46,1.71,23.59,23.59,0,0,0,8.69-2.63C251.92,348.63,251.11,347,247.24,350.42Z"/><path d="M272.14,405.75c4.5,4,8.49,7.58,11.24,9.58l5.14,3.74c-4.75-4.13-9.22-8.11-13-10.88Z"/><path d="M261.13,270.86a40.75,40.75,0,0,0-3.73-5C258.66,267.59,259.91,269.29,261.13,270.86Z"/><path d="M241.19,255.21a13,13,0,0,1-1.76,2.18,21.92,21.92,0,0,1,8,1.24,24,24,0,0,1,9.94,7.21c-6.09-8.55-12.16-18.58-13.68-22.78C243.37,246.69,241.85,254.16,241.19,255.21Z"/><path d="M243.78,242.41l-.26,0c.06.2.12.42.21.67Q243.76,242.7,243.78,242.41Z"/><path d="M257.36,248.58c2.13,2.26,4.37,4.52,6.47,6.66A38.62,38.62,0,0,0,257.36,248.58Z"/><path d="M135.11,311.13,99.57,285.31C111.09,295,126,307.22,135.11,311.13Z"/><path d="M158.85,279.46l-.72,1.11.81-1.09Z"/><path d="M239.43,257.38c-7.52.3-13.71,4.85-18.3,11C227.77,264.48,235.26,261.61,239.43,257.38Z"/><path d="M237.29,388c-14.77,5.5-37.83,27.87-50.47,38.14,4-2.85,8.39-7.33,10.68-9C210.4,407.76,223.77,396.5,237.29,388Z"/><path d="M305.11,349c-.08-1.73-.16-3.45-.17-4.9A9.54,9.54,0,0,0,305.11,349Z"/><path d="M267.87,300.19a62.12,62.12,0,0,0-5-7c1.64,2.38,3.26,4.93,4.85,7.59C267.76,300.62,267.81,300.4,267.87,300.19Z"/><path d="M269.84,303.93a3.91,3.91,0,0,0,.33.79C270.07,304.46,270,304.2,269.84,303.93Z"/><path d="M238.76,87.07c1.33,4.71,2.64,10.12,3.81,15.34A54.4,54.4,0,0,0,238.76,87.07Z"/><path d="M369.24,343.42c-5.61-7-7.1-13.93-15.31-18l91.86-66.74H356.66c-10.86,0-22.47,2.32-31.94-3.45-13-7.93-4.79-16.49-12-27-4.15-6-24.45-14.62-31.4-11.6-.43-5.91,13.46-21,16.44-26.75,2.25-4.31,6.15-8.08,7.68-12.58,1-3-2.43-8.09-1.39-10.2,3.9-7.91,11.71-13,16-21,5.76-10.76,2.57-16.66,4.64-26.76.93-4.53,2.08-8.47,3.13-12.23a23.19,23.19,0,0,1-4.21,7.62c-6.93-21.41-23.36,2.58-29.71-16.19-5.88-17.41,17.48-53,32.11-29.51.29.46.56,1,.82,1.48C323.68,63,319.31,56.7,315.25,48c-1.77-3.81-5.36-21.33-11.06-21.31-6.54,3.34-6.11-2.5-13.71-7-8.08-4.79-14.38-2.1-22-4.35C259.83,12.74,252.24,3,240.58,1.64c-12.12-1.46-22-1-31.42,1.37.24,4.29,38.08.49,45.23,7.45A27.6,27.6,0,0,0,250,12.14c2.93-.94,10.59.31,10.93,4.67-.15-1.94-12,15.94-12.14,16.12-4,7.85,8.93,4.44-5.73,9.37-7.72,2.6-30.76,3.37-38.79.63C219.15,28,193,25.67,192.54,16.33c-.36-7.51,12.58-8.9,16.61-13.32a80.77,80.77,0,0,0-12.81,4.44c-9.69,4.25-16.21.32-26.87,4.55-8.55,3.39-17.48,17.29-22.05,24.36C134.08,57,113,93.75,123.39,119.52c-5.18-6.11-5.33,3.67-4.52,6.81,1.77,6.82,5.26,9.4,9.67,14.57a16.5,16.5,0,0,0,11.09,4.28,37.89,37.89,0,0,0-.12,13.17c2.93,5.56,3.61,10.08,8.47,15,9.26,9.29,27.42,14,40,13.13,19.07-1.33,27.84-17.74,40-30.36l-21,64.67c-5.17-4.79-27.06-4.55-32.51.8-6.1,6,.92,10.94-3.38,16.49-2.78,3.59-8.48,3.35-11.88,6-15.07,12-14.19,14.57-32.19,14.57H39.53l87.81,63.8c-1.07,1.57-2.2,3.06-3.35,4.5a48.07,48.07,0,0,1,5.24-3.88c3-1.93,16.42-4.36,12.43-8.38,3.4-2.26,8.07,1.19,11.24,2.41-1.09,1.12-2.15,2.26-3.22,3.4,5.44-4,15.07.17,13.87,10.44-1.26,10.74-16.74,15-21.88,23.4.25-1.62,5.1-11.3,3.56-12.7-.08-.07-9.2,22.71-10.25,23.25-5,2.56-17.38-6.43-24.34-2.54-8.7,4.86-4,7.44-8.88,15-5-5.74-1.05-14,1.46-19.62a117.59,117.59,0,0,1,10.45-19.29c-7.41,8-14.12,16.21-16.09,29.76-2.82,19.43-1.81,42.15,7.9,60.14,4.24,7.85,23.36,21.79,24.83,28.43.58,2.64-3.07,7.94-3.42,10.54-1.35,9.93-6.67,20.52-9.78,30.1,6.05-4.4,42.07-30.61,40.9-31.53,26.05,2.5,51.33-3.7,69.25-24,4.35-4.93,13.91-14.89,5.26-19.08-5.94-2.88-18.3,7.65-24.49,8.53,7.27-5.28,27.21-25.44,35.19-24.73,3.43.31,7.8,2.74,12.46,6.09-4.29-3.39-8.59-6.81-13-10-17.11,12.43-33.86,32.88-56.1,27.34l1-.77a5.25,5.25,0,0,1-4.29-.4c1-.76,2.24-1.69,3.52-2.74a12.17,12.17,0,0,1-5.12,2.49c-7.28.73-18.09-7-19.73-14.95-.53,1.31-1,2.39-1.17,3-2.6-2.36,1.37-10.77,2.73-14,1,0,1.28,1,1.15,2.32a13.89,13.89,0,0,1,1.54-1.34c12.24-9.13,22.25,18,28.54,11.15,3.08-3.34-1.8-12.35-2.39-15.64a29.89,29.89,0,0,0-4.62-10.91q3.83-2.08,2.07-6.7c-2.31-5.3-10.63-12.14-11.13-16.27-.47-3.82,3.67-9.22,4.21-13,.23-1.56.43-2.89.59-4-1.9,5-5.57,12.17-6.27,15.53.07-4.61,3.79-9.18,3.64-14.46-.25-8.85-2.92-8.55-11.87-15.06.43-1.6,11,4.9,14.49,8-.9-2.3-3.63-3.61-9.91-8.17,23.25-5.63,36.86,8.56,53.52,14.72,9.63-4.17,19.4-2.68,29.4-1.46,1.77-1.06,3.73-2.34,6.27-3.87,13.32-8.06,24.71-8.05,40.78-3.41-9,4.77,2,11.85,1.12,19.09-1.2,10.08-26.31,28,2,25.77-6.45,4.25-26.4,25.14-14.88,30.7,7,3.4,19.91-12.73,29-7,1.52,1,9,23.2,8.12,25-2.36,5-9.44,4.35-14.13,3a27.34,27.34,0,0,1-4-1.51l4.4,3.2c-2.32.15-5-.73-7.92-2.22l3.26,2.37c-18.93,0-33.54-9.36-47.74-20.29,7.45,6.22,14.75,13.28,19.33,16.6-7.42-1.72-35-16.83-34.18-5.13.85,12.34,32.49,30.8,41.49,34.63,16.49,7,35.26,4.66,50.4,12.43,10.05,5.16,19.28,14,28.47,20.69-2.13-6.55-6.64-14.56-6.92-21.3-.57-13.59,6.7-10.4,17.47-21.8,16.78-17.78,29.63-63.64,11.37-83.66C383,362.86,375.91,351.75,369.24,343.42Zm-7.07-4.35c7.1,7,11.74,17,18.26,23.28a46.77,46.77,0,0,1-11.76.83,13.92,13.92,0,0,0-7,8.4c-4.13,1.64-4.44,7.73-10.76,4.85-4.34-2-6.23-21.63-7.47-21.35-11.1,2.56-29.8-19.17-11.56-30.82C345,315.85,353.49,330.47,362.17,339.06Zm-53.58,28.58c2.41-3.38,6.91,12.66,4.47,13.76Zm.2,16a5.13,5.13,0,0,0-4.25-5.71q-1.67-5.19,3.23-9.09C309.61,374.47,314.18,380.46,308.8,383.61Zm1.88-18.81q4-5.23,8-10.39l7.51,23.11C312.41,379.81,315.09,378.38,310.67,364.79ZM321,352.19c7.18-16.82,20,20.06,24.12,24.14a130.35,130.35,0,0,0-16,.76C327.58,372.43,319.25,356.31,321,352.19Zm-33.46-39.06c-3.19.54-8.59.66-11.41,1.6,2-2,27.39-22.61,26.59-16C302.22,302.87,284.94,309.06,287.54,313.14Zm-70.76-74.36,25.87-79.63c1.68,5.16,7.1,15.25,4.71,20.06l-4.71-14.51c-1.85,5.7-3.58,12.8-5.43,20.42l5.43-16.72c3.38,10.42,5.86,14.48-.18,23.91-.21.34-5.68-1.33-8.15,4.51l-.54,2.07c-.32,3.09.81,7-.31,9.12l-3.06,2.73a112.75,112.75,0,0,1-7.61,19.09,14.09,14.09,0,0,1-.73,1.89l.45-1.39A45.83,45.83,0,0,1,216.78,238.78Zm16.46-26.61c.35-1,2.24-7.43,2.74-8.39,3.78-7.17,3.84-14.08,16.41-13.65,14.53.49,23.86,8.16,25.95,23.54.65,4.75-.48,27.94-7,28.08-5.45.12-10.66-16.14-15.37-19.23-11.94-7.82-20.44-.37-30.36,6.49C227.09,221.78,231.62,217,233.24,212.17ZM291.9,239c5.81,11.42-11.05,25.45-15.36,33.64C271.78,271.69,286,242.59,291.9,239ZM276.53,259.7c.47-6.26,4.48-10.15,5.74-17.48C284.46,249.18,281.31,254,276.53,259.7Zm14.82,13.81c-1.8,2.71-12.5,3.2-11.6-.22a45.44,45.44,0,0,0,4.65,0c-4.09-.45-5-4.45,3-15.15,2.93,5.86,11.14,3.4,17.92,3.4-.38,4-11.64,10.75-18.6,11.68A21.7,21.7,0,0,1,291.34,273.5Zm-.73-14.86c-1.81-10.37,13.48-11.81,14.7,0Zm-17.77,21.13.74-5.52Q281,274.5,272.83,279.77Zm-1.3,14.39c1.44-9.85,1.25-8.79,6.22-16,2-2.82,8.82-2.5,12.45-1.83-.63.77-1.28,1.52-1.94,2.27,5.76-6.3,11.47-11.8,14.65-12.06-1.93,3.08-1.26,8.55-3.48,12.06s-8.6,7.08-11.73,10.34a10.82,10.82,0,0,0-.89,1.11c9.74-8.13,22.21-12.73,30.65-6.77-10.53,10.83-8.27,8-20.67,13-4.4,1.78-20.63,19.1-24.76,18.65-.14-4.33,1.79-9.29,5-14.07-1.95-.15-8.22-1.63-5.32-3.95,2.74-2.22,8.93-9.83,15.27-16.88A132.76,132.76,0,0,1,271.53,294.17Zm68.21,8.48c-.72,2-7.68,19.35-11.35,13a7.56,7.56,0,0,1-1.17-3.86c-.25.74-.5,1.49-.74,2.26-10.4-9.47-11.57-13.25-.85-23.68,5.76,6.4,4.74,11.8,2.65,18.24C331,304.75,338.21,303.11,339.74,302.65Zm-25.92-2.13-4.72-3c4.63-4.87,7.46-16.12,14.94-8.76A155.3,155.3,0,0,0,313.82,300.52ZM302.43,305c4.22,4.14-10.1,8.49-11.38,8.23C292.24,311.94,300.21,302.82,302.43,305Zm2.89,1.67c3,1.71-2,6.43-4.19,6.06A25.48,25.48,0,0,0,305.32,306.67Zm1.81,4.29,1.62-3c3.76,3.64.21,8.67-3.34,6ZM306,298.53c8.13,3.67,19.92,15.32,25.16,22.82-4.41,3-17-11.3-19.57-13.91C307,302.74,308,305.16,306,298.53Zm131-37-85.91,62.42c-5.1-3-7.32-3.65-13.47-3.64l4.72-3.43c-4.5,2.61-7.78,3.87-8.94,3l61.38-44.6h-21.5c6.47.54,12.72,1.14,18,1.14l-58.12,42.23c4-4.64,9.53-12,9.62-18.64,0-1.54-1.09-3.84-2.52-6.2-.86,7.34-30.59-17.38-33.75-17.4a21.15,21.15,0,0,0,1.87-9.25c3.69.89,20.16,12.85,27.88,20.7a15.53,15.53,0,0,1-2.12-3.34c1.09-8.27,1.61-6,8-8.09a32.91,32.91,0,0,1,4.66-1.14h-9.9c.69-1.43,3.33-2.35,7.17-2.91-10.88-3.58,0,.66-9.93-10.81ZM306.9,254.41c2.74,2.74,6.3,3.57,3,8.67C306,269.26,307.25,257.17,306.9,254.41Zm8.54,6.42c3,2.4,10.2,7.32,11.22,11.54-10,1.3-14.78-4.9-13.63-13.32C314,261.86,315.8,261.36,315.44,260.82Zm19.77,13.89a66.83,66.83,0,0,0-5.23,6.48l-4.28-3.74C330.34,274.48,331.17,276.38,335.21,274.72Zm-9.73.31-3.85-1.52C324.5,272.89,326,272.89,325.48,275Zm8.8-9.43c-1.45-.37-4.64,3.53-6.18,3.62s-8.65-6.28-8.26-6.06c-7.07-3.88-23-16.28-23.76-25C302.78,239,330.42,258.93,334.28,265.6Zm-21.63-19.66c-9.21-7.7-3.61-9.17-1.18-15.92A26.37,26.37,0,0,1,312.65,245.94Zm-27.83-27.21c8,1.42,17.28,3.74,24,8.54-7.92,4.45-1.78,3.34-12,.88C290.72,226.68,282.71,227.08,284.82,218.72Zm.26,12.8c4.63-8.32,21.08.64,20,8.65-7.71-5.21-14.77-5.61-19.43,3.32C283.37,239.64,282.91,235.42,285.08,231.52ZM281.27,223c6.32,9.1-1.8,24.63-7.82,32.15-.36-7.33,1.38-9.61,2.54-15.61C276.16,238.66,282.19,215.89,281.27,223Zm11.34-32.3c-.87-.29,3.08-6.42,1.08-7.58,2,1.16-11,23.86-12.59,25.33C277,185.25,271.74,187,249.37,188c2.37-10.18,19.25-34.15,31.44-36.49,8.43-1.61,17,4.8,19.9,13C304.78,176.14,297.31,181.14,292.61,190.73Zm28.07-52.93c-4,10-8.24,13-14.49,21-4.39-10.1-19.18-15.71-29.08-9,.9-1.34,7.45-21.24,7.73-21.89,3.65-8.32,1.2-10.69,10.66-14.74C313.46,105.5,327.77,120.21,320.67,137.8ZM266.79,19.45c9.3-4,36.53,14.46,37.56,11.51,5.38,9.43,6.26,12,9.66,22.67-8.93.35-9.21,1.34-15.36,5.68C292.9,63.38,297.59,71.44,287,69c-.83-.19-18.55-18.85-18.9-16.92a6.15,6.15,0,0,0,2.08,3.09C254,49.88,247,28,266.79,19.45Zm-119.9,19.2c2.6,3.11,18.72-23.71,23.92-25.31C187.81,8.1,200,27,198.72,42.1c-.72,8.31-16.13,34.76-28.63,30.12-3.07-1.14-3-14.26-5.71-16.95C156,46.92,150.86,54,141.49,56.4A92.38,92.38,0,0,1,146.89,38.65ZM139.16,142c-9.29,2.33-16.35-12.65-17.23-19.82,4.54,7.76,2.72-13.22,2.72-13.21-.17-12.71.62-26.25,7.28-37.64,7.06-12.07,15.61-17.21,27.84-6.94,5.6,4.7,18,31.8,7.13,24.81,6.65,4.28,10.9,17.62,14.3,23.3-5.91-.95-28.92,2.65-33.59,7C143.6,123.28,142.92,141,139.16,142Zm40.59,39.6c-47.29-5.57-48.14-63.48-.31-66.32,17.71-1,29.25,4.4,32.21,22.69,1,6.19-6.4,30.94-2,29.69C206.49,179.24,189.91,182.78,179.75,181.58Zm31.38-57.16c16.81,6.41,20.75-14.46,22.66-26.17.89,16.09,2.12,43.39-18.71,48C215.47,139.32,214.16,130.7,211.13,124.42Zm13.39,26.49c-4.19,4.71-9.2,13.1-16,14.6,3.38-5.16,4.37-11.53,8.08-16.23,4.15-5.26,11-7.55,14.93-14.28,11.6-19.68,2-37.5,2.11-57.82a62.77,62.77,0,0,1,5.1,9.88c-2.62-9.25-5.35-15.83-7.36-13.06-3.91,5.4,0,23.07-1.36,29.95-3.19,15.78-6.83,18.44-21.11,16.45-27.42-3.82-31.18-23.1-39.57-46.05,20.33,5.31,23-21.94,34.44-27.6,1.67-.83,17.41-.59,19.9-.87,8.14-.92,22.11,1.64,29.13-3,2,10,31,31.77,41.29,30-3.11,10.19-7.65,31,3.93,38-2.78,4-10.23,2.65-14,7.95-2.78,3.87-1.19,12.72-2.55,17.23-4,13.2-12.86,19.21-21,29.72-4.36-13.41-11-27.5-13.43-41.33-.3-1.72-2.09-11.5-4.45-22.06C244.22,119.61,237.31,136.53,224.52,150.91Zm19.85-25.32L252.94,152c4.5,13.84,7.48,14.7-3.29,25l-7-21.53L227.89,200.9c-4.22,13-16.09,34.27-15.77,48.3C202,204.83,234.2,166.59,244.37,125.6Zm-39.79,98.25c7.51,7.51,4.14,26.32,4.65,37.57C205.1,258.21,204.33,223.77,204.58,223.85Zm-14.22,88.91q-6.39.45-3.59-3.05Q184.5,304.42,190.36,312.76Zm-5.85-8.8a4.38,4.38,0,0,1-.34-5.07c6.63,3.2,11,8.9,16.34,13.71C191.63,312,191.46,308.37,184.51,304Zm.23,2.83-4.36.47Q182.16,303.67,184.74,306.8Zm-9.94-8.28c-3.27-6.53-14.18-13.62-11.24-22.16,5.32,0,15.75-2,20.3.11,9.87,4.52,20.89,28,23.73,37.24C197.72,316.37,187.94,284.29,174.8,298.52Zm2.65,9.63a12.53,12.53,0,0,1-5-1.8,20.94,20.94,0,0,1,5.59-7.61C180.68,304.19,176.89,303.95,177.44,308.15Zm-34.25-16.39c-4.6-1.49,16.32-21.71,17.44-22.72a133.12,133.12,0,0,1,10.82-12.18c-.49,3.16-6.08,13.85-12.51,22.61,4.25.53,11.38,17,13.66,19.9-4.32.54-16.88-11.52-15.75-16.85l1.28-2C152.82,287.57,147.07,293,143.19,291.77Zm51.41-16.28c3.93,6.2,13.68,14.78,12.81,23.2-3,2.88-20.46-22.08-23.14-25.73,0-.06-4.56-8.48-5.07-8.7-.84-2.74-2.12-7.16-3.17-8.94C184.43,254.55,191,269.78,194.6,275.48Zm-4.6-14c1.77,2.69,3.72,7.71,5.63,10.86C193.52,268.94,191.72,267.26,190,261.5Zm7,14.86c7.91.56,11.35,4.3,10.47,11.87A22.29,22.29,0,0,1,197,276.36Zm-15.27-4H166.45C171.57,267.15,177.7,264.65,181.7,272.36Zm1.44,2.86H164.3C166.16,271.69,181.43,272,183.14,275.22Zm-5.49-31.34c6.9.09,6.69,6.73,9.12,14.07l.89,3.86C183.51,257.53,178.09,250.08,177.65,243.87Zm2.18,9.49c-8.34-2.14-13.57,7.2-22.91,5.27,3.79-5.59,12.69-11,18.59-13.32A18.82,18.82,0,0,0,179.84,253.37ZM164,261.5q-8.25,15.05-8.22,0C158.4,261.11,161.4,261.5,164,261.5Zm8.44,40.23c-2.19,3.53-1.13,2-5.89,2.78C169.73,301.49,166.74,303,172.46,301.73Zm33.61-36.84a18.3,18.3,0,0,1-2-3.4C205.58,262.76,208.64,262.65,206.07,264.88ZM184.5,243c1.52-.21,4.55-6.18,4.73-7.58,4.27,3.4,10.17,19.91,11.76,24.85,2.41,7.44,1.1,8.38,2,15.64C199,274.86,184.39,246.37,184.5,243Zm-1.62-9.59c-.43-12.65,18.91,3.95,18.82,3.74-.66,3.75-2.45,7.55-3.63,11.18C194.35,239.26,192.89,233.43,182.88,233.39ZM201.43,256c-1.85-3.72-1.6-7.39.77-11.16A61.52,61.52,0,0,0,201.43,256ZM175.84,223.8c4.35-5.43,32.42-7.14,24.55,3.4C196.45,232.48,174.42,225.56,175.84,223.8Zm-1.24,12.57-1.29-7C174.71,232,188.25,228.44,174.6,236.37Zm-27.08,19.33c9.71-10.31,24.37-11.26,34.69-19.86-2.14,9.27-7.42,6.87-17,12.32-5.31,3-14.16,16.82-19.17,11Zm3,20.57a38.43,38.43,0,0,0-4.53-10C153.73,268.63,158.14,266.37,150.56,276.28Zm-15.45,34.85,4,2.91C127.68,331.58,61,270.74,48.32,261.5h94.53a38.49,38.49,0,0,0,4.63,10.86H81.74l17.83,13C93.25,280,88,275.47,85.26,273.5c7.86,0,62.56-2.32,62.8,1.71H90.54l50.82,36.92C140,312.72,137.79,312.29,135.11,311.13Zm-41-34.77h54c-.56,7.63-8.82,8.65-8.12,17.46.64,7.94,11.86,16.12,16.27,22.12C133.24,306.43,114.56,291.26,94.06,276.36Zm67.84,40.69c-5.1,1.72-11.64-13.06-13.7-15.86l-3.95-5.33a9.13,9.13,0,0,0,6.28-4.39C149,296.14,165.61,315.8,161.9,317.06Zm-6.82-31.45c3,4.57,7,9.48,10.21,14,1.94,2.68-4.21,5.42-2.66,7.38a14.07,14.07,0,0,0,7.15-.6,11.61,11.61,0,0,1-4.94,7.27C159.5,304.15,151.45,297.42,155.08,285.6ZM153.79,345c-.62,7,10.59,18.87,5,24.06-1.19,1.11-17.72-1.14-20.62,1a78.38,78.38,0,0,0,3.4-7.48C141.06,355.32,148.63,348.68,153.79,345ZM122.55,490l10.17-31.3c6.64,4.91,15.23,6.26,23.21,7.05Zm60.38-58.31a53.08,53.08,0,0,0,29.13.75c4.88-1.28,13.32-9.29,18.71-7.14,9,3.57-14.24,22.84-17.14,25a72.18,72.18,0,0,1-47.27,14.64c-36.6-2.09-81.29-43.83-64.32-83.05,3.27-7.55,8.84-15.68,17.67-17.18,13.54-2.3,11.32,3.61,16.22,11.22,5.26,8.17,7.93,19.92,12.71,28.39C156.26,417.81,167.88,427,182.93,431.65Zm-24.42-17.23c-1.65-1.72-9.39-10-8.29-13.61.73-2.43,9.79,1.87,12.1,1.86C162,405.84,160.23,411.74,158.51,414.42ZM189.07,396c1,2.27,4.91,19.36,2.68,19.14-4.87-.47-7.82-11.05-12.62-13.44-4.17-2.08-12.15.27-16.17-.94-15-4.51-13.89-14.41-22.17-26.13,7.52-3.6,18-4.55,25.67-.94C176.52,378.4,184.69,385.84,189.07,396Zm-26.19-30.14q5,4.81,10.4,9.15C167.32,371,161.79,372.75,162.88,365.84Zm18,15.65a7,7,0,0,0,7-1.54C192.4,387.67,184,385.22,180.84,381.49Zm5.68-3.4c-8.93,6.49-24.67-15.86-28.5-21.65a6.84,6.84,0,0,0,4.71-3.42C168,362.93,179.46,369.49,186.52,378.1Zm-11.45-14.63c-7.35-7.25-5.37-11.45-10.13-17.24q1.64-5.44,3.69-10.74C183.24,346.1,180.65,346.27,175.07,363.47Zm-2.44-54.3c6.39-.81,12.55,6.15,18.31,6-5.24,1.29-15.24,6.89-20.6,4.69C163.94,317.23,165.71,310,172.63,309.17Zm19.6,19.91c-7-.48-16.66,4.75-23,2.2,5.74-8.39.64-6.94,12.84-11.16,9.55-3.3,26.11-8.26,34,1C229.49,336.77,194.83,329.25,192.23,329.08Zm40.95,9.26c-1.49,3.58-11.91.12-14.29-.65C209.36,334.64,238,326.72,233.17,338.34Zm-10.7-8.86c8.66-7.31-26.5-27.89-3.11-20.94,9.73,2.89,7.85,16.33,11.54,18.5,4.9,2.88-1.61-12.09-2.11-12.82-2.92-4.34-11.88-13.11-18.21-8.63,0-8,14.93-28.27,23.4-28.62,8.2-.34,1.84,8.93,9.23,10.89,4.24,1.12-.59-11.91-.78-12.07,4,.88,13.44,9,20.4,17.45-14.91-21.64-32-30.17-50.84.48a48.26,48.26,0,0,1,9.13-25.29c-4.31,2.56-8.26,5.56-10.72,9.68-5.08-13.62,9.13-22,17.28-30a18.91,18.91,0,0,1,15.82-5.7c-.21-.75-.21-1.23.08-1.32s.25.46.19,1.35a27.69,27.69,0,0,1,13.58,6.17c-5.18-5.49-9.72-10.93-10.09-14.47,1.38-2.27.44-9.1-2.41-9.89,0,0-1.73,10.66-3.3,12.61-1.78,2.21-10.2,4.7-13,6.73-6,4.31-10.76,10.94-15.95,16.15,3.13-13.12,10.84-36.75,28.55-38,20.76-1.45,30.22,25.9,30.22,41.65-1.75-2.2-4.5-5-7.54-8.13,5.6,7.33,8.66,16.61,6.62,24.7-1.76-.14-5.33-3.93-9.33-9.08,5.82,9.22,8.84,21.32,6.73,29.33a31.18,31.18,0,0,1,2,3.74,5.85,5.85,0,0,1,.34-3.43c3,3.95,5.24,2.79,2,7.81a23.16,23.16,0,0,0-2-3.59c.93,2.42,1.17,4.51.42,6-8.95-12.58-33.27,10.5-23.41,16.3-4-2.34,12.78-28.49,22.55-12.41-11.59-1.63-11.72,4.29-17,11.52C243.2,339.06,234.33,331.29,222.48,329.48Zm26,4.33c1.49-3.58,11.91-.12,14.29.65C272.3,337.5,243.65,345.43,248.48,333.81Zm14.38-11.54c5.43-7.39,33.13-6.38,38.92-7.33.09,0,14,.4,11.84-.7,6.16,3.23,11,16.87,7,25.35C316,332.68,249.11,341,262.86,322.27Zm54.71,20.47c-2.07,5.67-12.4,10.45-6.44,2.46C313.89,341.46,313,343.13,317.57,342.73Zm-12.35-2.13c-.25.29-.32,1.67-.29,3.54.56-1.85,2.12-3,5.4-2.11-1.21,4.3-1.22,8-1.89,10.5-.62,2.28-2.48-.29-3.33-3.49.19,4,.43,7.94.17,8.39C304.77,355.86,297,338.58,305.23,340.61Zm14.57,2.67a5.43,5.43,0,0,1,1.49,4.38c-2.69,6.88-18.24,26.71-25,30.51C300.38,363.54,315.19,356.46,319.8,343.27Zm-22.73,39.52c.74-.2,10.11-8.61,9.56-.11A82.43,82.43,0,0,1,297.07,382.79Zm20.76,20.67c-7.76,1.09-19.35,10.48-26.42,9.34-8.71-1.41,21.86-29,25-30.27,21.24-8.51,46.58-.42,32.92,26l-3.3-1.75C338.46,403,326.24,402.28,317.83,403.46Zm21,3.5c12.5.6,7,4.33,3.63,11.17C340.57,415,339.93,410.43,338.8,407Zm-6.12,25.56-8.2-25.23c9.91-.35,10.52-1.64,14,8C341.77,424.29,341.34,426.27,332.68,432.51ZM321.51,407.4c3.44-.15,11.67,25.29,8.7,26.77ZM362.76,490l-23.34-17c12-.17,12.21-5.08,18.49,2C360.56,478,361.48,486,362.76,490Zm32.07-89.16C393,438,374.19,468.22,334.24,469.38c-16.61.48-36.18-1.86-50.61-10.44-4.34-2.58-35.82-26.79-33.51-32.51,21,9.75,60.93,22.92,82.41,8.53,12-8.06,38.88-42.14,23.1-55.9,10.56-1.36,21.95-14,33.34-6.51C397.88,378.43,395.28,391.67,394.83,400.79Z"/><path d="M286.75,273.18c-.78,0-1.57,0-2.35.07A9.93,9.93,0,0,0,286.75,273.18Z"/><path d="M223.22,228.21l-.69,2.11.27-.5A16.45,16.45,0,0,0,223.22,228.21Z"/><path d="M287,280.06c.43-.47.87-.95,1.3-1.43Z"/><path d="M230.42,210.74c1.21-3.88,2.32-7.86,3.37-11.85a6.7,6.7,0,0,1,.36-1.68c.05-.14.12-.25.17-.39,1-4,2-7.89,2.9-11.7l-8.94,27.53Z"/><path d="M187.58,429.26c10-2.53,28.53-22.88,42.39-33.94C215.45,404.07,197.29,421.88,187.58,429.26Z"/><path d="M277,300.89h.31c3.22-.06,7.05-7.43,9.49-10.81A51.83,51.83,0,0,0,277,300.89Z"/><path d="M379,290.18l24.53-17.82h-24c9.19.53,17.16,1.14,20.49,1.14C397.33,275.48,389,282.32,379,290.18Z"/><path d="M365.09,272.36h14.46c-12.36-.72-26.95-1.29-35.53-.05l.16.05C349.89,274.25,359,272.36,365.09,272.36Z"/><path d="M346.75,275.22h26.52C364.11,274.45,354.53,273.83,346.75,275.22Z"/><path d="M342.33,316.85c9.44-5.47,24.3-16.86,36.71-26.67Z"/><path d="M336.24,287.79c1.21,1.71,2.72,3.85,4,6,0,0,0-.08,0-.13C340.33,292.45,338.74,290.33,336.24,287.79Z"/><path d="M327.22,311.82c.37-1.09.73-2.15,1.06-3.18A5.52,5.52,0,0,0,327.22,311.82Z"/></g></svg>