<svg xmlns="http://www.w3.org/2000/svg" viewBox="0 0 500 500"><title>federated-commonwealth</title><g id="Base"><polygon points="302.23 142.49 302.23 142.49 302.23 142.49 302.23 142.49"/><polygon points="160.15 312.88 160.14 312.88 160.15 312.88 160.15 312.88"/><polygon points="205.37 318.66 217.4 343.79 275.81 343.79 288.64 318.66 338.83 318.66 338.83 312.88 285.09 312.88 272.27 338 221.04 338 209.02 312.88 160.15 312.88 160.15 318.66 205.37 318.66"/><polygon points="226.14 331.58 267.35 331.58 279.66 307.14 330.55 307.14 318.04 295.51 180.22 295.51 180.22 295.51 167.71 307.14 214.51 307.14 226.14 331.58"/><polygon points="181.9 293.95 316.36 293.95 311.42 289.36 186.84 289.36 181.9 293.95"/><path d="M248.49,268.56h0c-22.48.17-45.5,4-64.65,11.25,1.08,1.63,1.69,2.49,1.69,2.49H310.38s.64-.84,1.67-2.23C294.82,272.27,272,268.38,248.49,268.56Z"/><path d="M248.43,261.52c1.51,0,3,0,4.53,0V230.41l19.57-19.57H205.71c-7.17,14.46-16.14,25.45-40.3,36.79,5.49,11,10.79,20.07,14.56,26.13C200.38,265.8,224.65,261.7,248.43,261.52Z"/><polygon points="256.83 203.03 282.25 203.03 293.03 193 293.03 138.91 291.84 138.91 288.89 138.91 256.83 138.91 256.83 203.03"/><polygon points="222.82 162.21 212.79 168.21 212.79 203.03 238.21 203.03 248.99 193 248.99 138.91 222.82 138.91 222.82 162.21"/><polygon points="204.31 171.58 191.43 178.67 204.31 196.36 204.31 171.58"/><path d="M479.2,151.92a249.56,249.56,0,1,0,19.55,96.83A247.92,247.92,0,0,0,479.2,151.92ZM250,494C114.77,494,4.75,384,4.75,248.75S114.77,3.5,250,3.5s245.25,110,245.25,245.25S385.23,494,250,494Z"/><path d="M479.21,248.75a230.85,230.85,0,0,0-3.41-39.69l1.21-.34-1.25.09a228.54,228.54,0,0,0-27.15-74.59l1-.73-1.15.52a229,229,0,0,0-36.4-47.34Q405,79.61,397.43,73.25l.73-1.08-.93.91a228,228,0,0,0-58-35.53q-5.3-2.24-10.69-4.21l.31-1.2-.54,1.12a228,228,0,0,0-78.17-13.72l-.13-1.3-.13,1.3A228,228,0,0,0,171.7,33.26l-.54-1.12.31,1.2q-5.38,2-10.69,4.21a228,228,0,0,0-58,35.53l-.93-.91.73,1.08Q95,79.63,87.93,86.68A229,229,0,0,0,51.52,134l-1.15-.52,1,.73a228.54,228.54,0,0,0-27.15,74.59L23,208.72l1.21.34a232.44,232.44,0,0,0,0,79.37l-1.21.34,1.25-.09A227,227,0,0,0,38.81,338a229.32,229.32,0,0,0,12.59,25.3l-1,.73,1.15-.52a229,229,0,0,0,36.4,47.34q7.06,7.06,14.64,13.43l-.73,1.08.93-.91a228,228,0,0,0,58,35.53q5.3,2.24,10.69,4.21l-.3,1.2.54-1.12A228,228,0,0,0,249.87,478l.13,1.3.13-1.3a228,228,0,0,0,78.17-13.72l.54,1.12-.3-1.2q5.38-2,10.69-4.21a228,228,0,0,0,58-35.53l.93.91-.73-1.08q7.57-6.37,14.64-13.43a229,229,0,0,0,36.4-47.34l1.15.52-1-.73a228.54,228.54,0,0,0,27.15-74.59l1.25.09-1.21-.34A230.84,230.84,0,0,0,479.21,248.75Zm-7-39.67-53.09,4a170.72,170.72,0,0,0-16.59-45.7l43.14-31A224.12,224.12,0,0,1,472.21,209.08Zm-91,52.73,27.12-13.06-27.12-13.06,38.45-10.82a171.33,171.33,0,0,1,0,47.77Zm36.4,22.51a170,170,0,0,1-16.37,44.86l-32.4-23.3,29.95-3-21-21.55ZM327.27,136.73H332l-5.07,4.94Zm-.9-8.08-1.06-1.13H308.54l18.88-12.87Zm4.08,4.35h-2.91l.13-1.75h1.13l-1.05-1.12,1.38-18.48-24.87,17,9.85-38.7a171.4,171.4,0,0,1,41.32,23.93L333,135.72Zm34.09-11.51A172.6,172.6,0,0,1,395.25,158l-36.36,16.4L371.26,147l-29.17,7.42Zm36.66,46.82a170,170,0,0,1,16.37,44.86l-39.84,3,21-21.55-29.95-3Zm44-32.81-48.45,21.86a174.17,174.17,0,0,0-24.54-30.8q-3.3-3.3-6.75-6.39l29.94-43.92A227.36,227.36,0,0,1,445.18,135.5ZM394.63,75.62l-38,37.1a171.41,171.41,0,0,0-42.07-24.36l13.12-51.55A225.81,225.81,0,0,1,394.63,75.62ZM326.75,36.49,303.67,84.41a172.82,172.82,0,0,0-47.88-8.36l-5.31-53A224.65,224.65,0,0,1,326.75,36.49ZM303,85.84l-17.33,36-8.16-29-17.57,24.44-4-39.73A170.4,170.4,0,0,1,303,85.84ZM249.52,23l-5.31,53a172.82,172.82,0,0,0-47.88,8.36L173.25,36.49A224.65,224.65,0,0,1,249.52,23Zm-9.43,94.25L222.51,92.86l-8.16,29L197,85.84a170.4,170.4,0,0,1,47-8.28Zm2.55,6.11H215.47l7.64-27.14ZM80.35,272.64a173.8,173.8,0,0,1-1.65-23.89,172,172,0,0,1,1.67-23.88l38.45,10.82L91.7,248.75l27.12,13.06Zm41.91,8.7-21,21.55,29.95,3L98.7,329.26a169.26,169.26,0,0,1-16.32-44.93ZM82.42,213.18A170,170,0,0,1,98.8,168.31l32.4,23.3-29.95,3,21,21.55ZM104.75,158a172.59,172.59,0,0,1,30.7-36.54l22.45,32.93L128.74,147l12.38,27.44Zm39.8-44.19a171.39,171.39,0,0,1,41.32-23.93l8.53,33.49h-6.31l-17.23-11.74,1,13-2.16,2.49H172l.18,2.43h-4.63l-3.15,3.64Zm27.92,19.46.4,5.36H170l-5.5-5.36Zm.11-18.64,12.84,8.75H173.23Zm18.31,12.48,3.57,2.43H173.7l-.18-2.43Zm2.66,0h1.79l.38,1.48ZM172.35,36.81l13.13,51.55a171.4,171.4,0,0,0-42.07,24.36l-38-37.1A225.81,225.81,0,0,1,172.35,36.81ZM104.62,76.25l29.94,43.92q-3.44,3.1-6.75,6.39a174.17,174.17,0,0,0-24.54,30.81L54.82,135.5A227.35,227.35,0,0,1,104.62,76.25ZM54.33,136.34l43.14,31a170.71,170.71,0,0,0-16.59,45.7l-53.09-4A224.15,224.15,0,0,1,54.33,136.34Zm-30,112.41A226.23,226.23,0,0,1,27.63,210l51.26,14.42a175,175,0,0,0,0,48.6L27.63,287.47A226.23,226.23,0,0,1,24.29,248.75Zm3.49,39.67,53.09-4a170.72,170.72,0,0,0,16.6,45.7l-43.14,31A224.13,224.13,0,0,1,27.79,288.42Zm27,73.58,48.45-21.86a174.15,174.15,0,0,0,24.54,30.81q3.3,3.3,6.75,6.39l-29.94,43.92A227.43,227.43,0,0,1,54.82,362Zm50.54,59.89,38-37.1a171.41,171.41,0,0,0,42.07,24.36l-13.12,51.55A225.74,225.74,0,0,1,105.37,421.88ZM173.25,461l23.08-47.92a172.82,172.82,0,0,0,47.88,8.36l5.31,53A224.64,224.64,0,0,1,173.25,461Zm49.26-56.37,17.57-24.44,4,39.74A171.32,171.32,0,0,1,197,411.73l17.37-36.06Zm-7-30.55h27.16l-19.52,27.14ZM215.14,347l-12.27-25.48H160.14v52.62h11.59l-.88,11.75,17.23-11.75h6.31l-8.55,33.58a169.93,169.93,0,0,1-41.8-24.3V367h-2.47l-6.17,9q-3.33-3-6.54-6.2a172.65,172.65,0,0,1-24.22-30.37l36.46-16.45L128.74,350.5l10.53-2.71v13.38h14.17V321.8l-14.17,14v10.5l-7.88,2,18.93-42-45.82-4.59,32.15-33-41.49-20,41.49-20-32.15-33,40.07-4c3.81,17.87,9.5,34,17.92,47.53C175.3,236.86,199,214.06,199,205.4c0-4.89-16-24.12-16-24.12-15.81-.06-27.3-.62-38.09-2l-1.35-3c11.58.87,23.49,2.08,37.4,2.72-18.92-8-26.53-8.75-40.28-10.59l.3,2.17-9.63-21.36,25.89,6.59q-5.61,2.26-11.74,5.08c14.51,3.6,25.93,6.89,38.63,12,11.91-5.86,16.14-8.07,30.9-14.29v-17.4c-10.5,1.67-23.13,3.15-39.87,8.27l-.59-7.84c3.4-1,6.61-2,9.3-2.94h-9.52l-.4-5.36h26l10.7,7.29,2.05-7.29H246.2l-1.33-3.73H213.74l.68-2.43H244l-1.28-3.6L250,133.65l26.89-37.39,7.64,27.14H262.06l-1.33,3.73h24.85l.68,2.43h-26.4l-1.32,3.73h28.78l1.58,5.61H256.83V203h25.42L293,193V138.91h-1.2l16.69-11.37L307,131.25h19.21L326,133H306.24l-1.56,3.73h21.09l-.43,5.76H302.23V203h15.72l10.78-10,8.55-35.81,31.34-8-16.34,36.23c0-3,.07-5.86.06-7.89,0-4.23-4.75-10.7-7.85-15h0l-7.68,32.31c-.63,2.65-1.07,3-2.77,4.63l-9.35,8.7c-1.86,1.73-3.48,2.6-7.16,2.6H279.17l-21.52,21.51v29.3c21.55.77,42.19,4.84,58.59,12.6,9.84-14.07,35.88-59.92,35.88-75.64,0-1.75,0-4.33.07-7.16l43.31,4.34-32.15,33,41.49,20-41.49,20,32.15,33-45.82,4.59,18.93,42-7.88-2V338.5L344.6,321.8v39.37h16.13V347.79l10.53,2.71-12.37-27.44,36.36,16.4A172.61,172.61,0,0,1,364.54,376l-6.11-9H354v15.17l1.48,1.45a171.38,171.38,0,0,1-41.31,23.94l-8.53-33.49h6.31l17.23,11.75-.88-11.75h10.56V321.47H291.14L278.1,347Zm-36.84-2a7.6,7.6,0,1,1,7.6,7.6A7.6,7.6,0,0,1,178.3,345Zm7.13,29.09-12.84,8.75.65-8.75Zm74.49,6.11,17.57,24.44,8.16-29,17.33,36a170.4,170.4,0,0,1-47,8.28Zm-2.55-6.11h27.16l-7.64,27.14ZM302.83,345a7.6,7.6,0,1,1,7.6,7.6A7.6,7.6,0,0,1,302.83,345Zm23.93,29.09.65,8.75-12.84-8.75ZM250.48,474.45l5.31-53a172.82,172.82,0,0,0,47.88-8.36L326.75,461A224.65,224.65,0,0,1,250.48,474.45Zm77.17-13.76-13.12-51.55a171.54,171.54,0,0,0,42.07-24.36l38,37.11A225.75,225.75,0,0,1,327.65,460.69Zm67.74-39.44-29.94-43.92q3.44-3.1,6.75-6.39a174.14,174.14,0,0,0,24.54-30.8L445.18,362A227.43,227.43,0,0,1,395.39,421.25Zm50.28-60.09-43.14-31a170.72,170.72,0,0,0,16.59-45.7l53.09,4A224.13,224.13,0,0,1,445.67,361.16Zm26.7-73.69L421.11,273a175,175,0,0,0,0-48.6L472.37,210a226.42,226.42,0,0,1,0,77.45Z"/></g></svg>