<svg xmlns="http://www.w3.org/2000/svg" width="500" height="500" viewBox="0 0 500 500">
  <title>free-rasalhague-republic_COLOR</title>
  <g id="n4">
    <path d="M36.84,63.47c-1,12.84-7.1,109.08,34.18,228.71A358.71,358.71,0,0,0,178.87,449.77c33.49,28.18,62.08,41.57,67.7,44.06,9.5-6,89.83-59.1,152.08-161.5,37.86-62.27,53.56-132.41,60.07-180.27,6.25-46,5.44-80.73,5.16-88.29L251,5.8Z" style="fill: #9196c8"/>
  </g>
  <g id="n3">
    <path d="M420.84,149.43a6.92,6.92,0,0,0-1.51,11.35,488.83,488.83,0,0,1-16.94,75.91,6.93,6.93,0,0,0-3.15,9.62c-7.91,23.18-18.27,46.49-31.86,67.91q-2.7,4.26-5.35,8.3a6.93,6.93,0,0,0-6,9c-21.6,31.91-40.36,53.54-55,68l-.45,0a6.94,6.94,0,0,0-6.94,6.94s0,.06,0,.09c-16.64,15.16-26.27,19.62-26.27,19.62V404.08S326.81,362.45,366,276.33s35.23-164,35.23-164L250,75.11,98.77,111.81s-7.87,80.66,32.76,183.74c43.88,111.34,115.76,140.91,115.76,140.91l.36-28.22s3-1.32,9.43-4,8.36-4,8.36-4V465.1c-.65-.21-42.56-11.25-86.63-56a6.93,6.93,0,0,0-8.64-9.19,304.53,304.53,0,0,1-43-62.66,6.93,6.93,0,0,0-5.44-10.93c-2.51-5.25-5-10.67-7.34-16.31a474.59,474.59,0,0,1-21.19-62.6,6.91,6.91,0,0,0-2.4-9.48A523.8,523.8,0,0,1,78.3,163.05a6.93,6.93,0,0,0-.92-11.21C74.76,115.14,77,91.66,77,91.66l42.61-11.13a6.93,6.93,0,0,0,11.65-3L185.8,63.23a6.93,6.93,0,0,0,12.69-3.32L250,46.47,301.1,60.06a6.93,6.93,0,0,0,11.65,3.1L359,75.45a6.93,6.93,0,0,0,10.62,2.82l55,14.63S425,115.88,420.84,149.43Z" style="fill: #bd87c1"/>
    <path d="M211.43,395.18c-9.34-9.61-10.85-20-10.85-20a61.93,61.93,0,0,0,11.48,5.07,64.59,64.59,0,0,0,11.3,2.85s3.83,6.22,13.08,6.49c12.19.36,27.39-10.37,33.18-16.55s14.94-13.61,22.6-28.82,12.28-27.49,12.28-44.21-3.56-29.18-5.43-29.18-.89,19.39.44,20.19a4.28,4.28,0,0,0,2.58.62,64.57,64.57,0,0,1,.44,10.14A61.84,61.84,0,0,1,301,313.43s-8.27-.8-10.85-4.54-5.43-11.21-5.07-23.13.27-20.91,4.71-33.54,4.71-15.39,6.85-16.19,9.79,11.39,15.39,23.22,9.07,19.48,8.81,34.69.08,25.89-4.27,39.05c-5.51,16.67-12.63,30.07-23.84,42.79s-35,28.82-46.79,30.64S223,407.09,211.43,395.18Z" style="fill: #bd87c1"/>
    <path d="M245.41,408.35v23a52.8,52.8,0,0,1-10.85-5.25c-6.23-3.83-8.81-7.74-8.81-7.74V407.17a56.16,56.16,0,0,0,10.5,1.89A24.75,24.75,0,0,0,245.41,408.35Z" style="fill: #bd87c1"/>
    <path d="M147.38,246.27c3.74,12.54,4.89,17.61,8.1,24.64a123.88,123.88,0,0,0,7.29,13.43l-1.07,27.58s-18.15-18.41-27.31-52.13S127,213.26,127,213.26s-1.07-20.91,7.65-37.41,29.18-34.56,40.7-39,21.22-6.76,31.76-6.32,18.73,4.27,24.24,10.23,5.43,8.47,5.43,16.19c0,9.79-11.56,16.19-15.83,18.06s-11.83,5.69-20.46,5.87c0,0,21.53-11.3,22.86-17.3s-.53-17.93-10.76-19.21-36.74,5.47-46.26,16.15-21.79,25.89-22.06,37S143.65,233.72,147.38,246.27Z" style="fill: #bd87c1"/>
    <path d="M226.29,293.24c-1.07-.09-4.8,20.1-6.76,34.6s-2.31,31.76-2.31,31.76-3.29-.53-9.87-4-6.76-4.8-6.76-4.8,2-27.31,7.83-51.77,5.07-22.68,15.21-45.37,20.91-34.16,20.91-34.16V385.57s-1.87,2.58-7.92,2.13a17.63,17.63,0,0,1-9.52-3.38v-88S227.36,293.32,226.29,293.24Z" style="fill: #bd87c1"/>
    <path d="M166.6,280c3.2-11.21,8.81-20.55,13.17-27.49S190.7,236.23,193,236s6.49,11.78,9.25,23.26,3.29,19.39,2.49,33-4.18,20-8.63,26.33-10.05,6.85-10.05,6.85-1.16-5.16-1.78-10.32a61.84,61.84,0,0,1-.53-8.27s5.87-12.37,5.52-25.53-.18-13.79-2-13.7-4.94,12.37-5.5,24.73-.64,20.64.87,28.47,6.4,20.1,12.72,27.31,6.4,6.49,12.54,10.5,17,3.65,17,3.65v19.39s-22.24-4.09-35.32-16.81-21.44-31.6-24.11-43.29S163.39,291.19,166.6,280Z" style="fill: #bd87c1"/>
    <path d="M265.43,309.23c-1.07-.07-.8,1.93-.8,1.93v30.09a64.27,64.27,0,0,1-7.27,7.67,72,72,0,0,1-9.14,7.14V219.49c3.69,0,17.08,38.3,22.82,55.11s20.08,47.9,20.08,53.71c0,9.61-14.08,25.35-14.08,25.35l-7.34,7.94c-7.34,7.94-23.42,16.81-23.42,16.81v-19s5.87-2.8,13.81-10.41,13.74-16.08,13.74-18.15S266.5,309.29,265.43,309.23Z" style="fill: #bd87c1"/>
    <path d="M347.63,119.08c3.87,1.7,11.13,5.69,17.29,9.18-6-.32-13.82,0-15.81,3.53a10.32,10.32,0,0,0-1.36,3.84A50.57,50.57,0,0,0,334.55,129a55.17,55.17,0,0,0-19.74-3.08c-3.37,0-13.63,0-16.93,9.25-1,2.77-.93,5,.17,6.78a6.65,6.65,0,0,0,4.65,2.74l.19,0,.18,0a49.18,49.18,0,0,1,10.85-1.3c.95,0,1.86,0,2.74,0a45.43,45.43,0,0,0-10.1,3.39c-5.19,2.87-8.3,8.46-8.43,8.69l-1.25,2.29,6.58-2c-2.42,2.73-6.6,6.61-10.83,6.75-6.08.19-7.17-3.21-7.21-3.34l-2.1.36c0,.42.87,10.44,5.83,25.6a125.11,125.11,0,0,0,5.92,14.54c-3.51-1.55-7.95-2.94-10.08-5.26-3.07-3.34-8.07-17.35-8.61-29.42s.07-18.21,2.54-26.22,6.34-9.21,7.41-10.67.07-5.59,1.93-5.59,1.2.85,2.34,1.65,2.74.2,6.74.27a19.08,19.08,0,0,0,12.61-4c4-3.22,2.27-6.38,3.54-6.45s1.13,1.07,5.87,1.13,1.47-1.8,7.34-1.73S341.09,116.21,347.63,119.08Z" style="fill: #bd87c1"/>
    <path d="M330.72,111.67s.89-3.11,6.09-5.43a21.86,21.86,0,0,1,9.65-2c1.33.89-2.94,3.11-3.74,5.6s-1.51,4.54-1.51,4.54-.89-.62-5.34-1.33S330.72,111.67,330.72,111.67Z" style="fill: #bd87c1"/>
    <path d="M372,150c-1.4.2-2,3.2-3,2.87s-.13-2.4-.8-3.2a7.44,7.44,0,0,0-5.6-1.53c-2.13.4-1.93,4.8-3.2,4.8s-2.94-6.54-4.27-7.34-6.54-.27-16.61,2-13.94,6.34-15.41,7.87-2.27,5.74-2.27,9.27-.2,3.87,3,8.21,8.43,1.73,8.43,1.73v-3.83l3.4-2.31v5h2.6v-3.47l2.67-2.68v4.15h3.67v5.87s-2,3-8.14,6.61-10.34,2.87-10.88,3.87,2.54,3.8,10.88,10.73,11.08,4,20.42,15.69,7.54,21.82,6.94,31.82-2.54,17.81-13.41,34.16-27.62,25-27.62,25a99,99,0,0,0,0-12.74c-.4-8.81-.8-12.28-.8-12.28a48.29,48.29,0,0,0,10.88-10.07c4.47-5.94,5.94-11.34,6.74-19.48s-1.93-15.81-3.87-18.68-11.88-9.74-20.35-15.55-13.48-11.88-16.48-14.61a7.06,7.06,0,0,0-.57-.46,129.35,129.35,0,0,1-7.11-17A137.06,137.06,0,0,1,285.91,163a11.1,11.1,0,0,0,6.78,1.64c7.57-.24,14.35-9.88,14.63-10.29l1.75-2.51-7.47,2.25a20.22,20.22,0,0,1,6-5.46c3.69-2,12-3.78,15.39-4.43a1.33,1.33,0,0,0-.14-2.64c-2.05-.16-5.27-.36-8.91-.36a50.85,50.85,0,0,0-11.17,1.32,4.41,4.41,0,0,1-2.9-1.75c-.72-1.15-.7-2.79,0-4.9,1.91-5.34,6.65-7.83,14.92-7.83a52.56,52.56,0,0,1,19,3,48.74,48.74,0,0,1,13.79,7.17l.36.26a1.26,1.26,0,0,0,1.53.2,1.15,1.15,0,0,0,.41-1.35c-.11-.45-.45-1.84,1-4.46,1.64-2.92,11.31-2.87,18.34-2.07,2.31,1.33,4.2,2.43,5.28,3.07,4.2,2.48,4.14,4.19,5.47,8.51s1.27,8.42-.8,10.42S373.38,149.77,372,150Z" style="fill: #bd87c1"/>
    <path d="M298.08,122.5c-9.7-.06-7.52-1.05-8.63-3.06-1.65-3-2.49-7-6.14-10.09s-9.79-7.64-9.79-7.64c.53-2.49,7.54-2.58,17.38,1.16s9.13,3.36,13.66,6.48,6.58,4.19,6.58,6S307.77,122.56,298.08,122.5Z" style="fill: #bd87c1"/>
    <path d="M264.63,369.21v5.87a42.62,42.62,0,0,1-6.94,5.16c-4.27,2.58-10,5.34-10,5.34v-5.34a44,44,0,0,0,9.7-6.14C262.49,369.92,264.63,369.21,264.63,369.21Z" style="fill: #bd87c1"/>
  </g>
  <g id="n2">
    <path d="M307.61,136.43s-1.3-3.4,6.6-3.4a32.89,32.89,0,0,1,13,2.42Z" style="fill: #629c48"/>
    <circle cx="179.82" cy="48.8" r="6.94" style="fill: #629c48"/>
    <circle cx="155.4" cy="55.74" r="6.94" style="fill: #629c48"/>
    <circle cx="131.52" cy="62.19" r="6.94" style="fill: #629c48"/>
    <circle cx="106.83" cy="68.74" r="6.94" style="fill: #629c48"/>
    <circle cx="81.74" cy="75.23" r="6.94" style="fill: #629c48"/>
    <circle cx="279.84" cy="437.53" r="6.94" style="fill: #629c48"/>
    <circle cx="297.31" cy="423.65" r="6.94" style="fill: #629c48"/>
    <circle cx="315.36" cy="407.17" r="6.94" style="fill: #629c48"/>
    <circle cx="332.33" cy="390.78" r="6.94" style="fill: #629c48"/>
    <circle cx="348.19" cy="372.1" r="6.94" style="fill: #629c48"/>
  </g>
  <g id="n1">
    <path d="M366.66,165.58c-3.2-.44-4.36,4.89-4.36,4.89a4.89,4.89,0,0,1-1-5.16c.62-1.25,1.87-2.76,6-2.4a8.17,8.17,0,0,1,7.74,7.65c.27,4.36-5.52,8.9-10.14,9.43s-12.28-5.6-15.57-9.87S341,162.38,336.86,160s-13.08.53-13.08.53l2.4-5.78s11.39-.27,15.48,2,4.89,3.83,8.72,8.87,9.52,10.26,14.06,10.26a6.06,6.06,0,0,0,6-6C370.4,167.89,369.87,166,366.66,165.58Z" style="fill: #a43333"/>
  </g>
  <g id="Base">
    <g>
      <path d="M246.93,498.62l-1-.41c-.32-.13-32.1-13.44-69.81-45.17A363,363,0,0,1,67,293.58c-44.48-128.91-34.37-231-34.26-232l.15-1.46L251,1.38l.56.15L468,60.47l.08,1.54c0,.38,2,38.35-5.13,90.63-6.56,48.27-22.41,119-60.65,181.92-66.5,109.39-153.57,163-154.44,163.51ZM36.84,63.47c-1,12.84-7.1,109.08,34.18,228.71A358.71,358.71,0,0,0,178.87,449.77c33.49,28.18,62.08,41.57,67.7,44.06,9.5-6,89.83-59.1,152.08-161.5,37.86-62.27,53.56-132.41,60.07-180.27,6.25-46,5.44-80.73,5.16-88.29L251,5.8Z"/>
      <polygon points="141.33 186.8 144.8 186.8 142.13 198.14 141.33 186.8"/>
      <path d="M148.94,167.72l4.8,3.34-8,12.94h-2.67s-.27-5.74,1.73-9.74A36.3,36.3,0,0,1,148.94,167.72Z"/>
      <polygon points="151.07 164.38 165.49 149.97 168.82 155.04 155.48 168.52 151.07 164.38"/>
      <path d="M168.42,148s5.2-3.34,9.61-5.87a31.1,31.1,0,0,1,8.27-3.34v6.94a47.4,47.4,0,0,0-7.34,3.07,67.55,67.55,0,0,0-7.61,5.07Z"/>
      <path d="M189.64,138a17.48,17.48,0,0,1,6.67-2,25.39,25.39,0,0,1,8.54,1v5.54a29.05,29.05,0,0,0-8.14,0,48,48,0,0,0-7.21,1.87Z"/>
      <polygon points="226.06 158.64 230.2 158.64 225.13 163.58 226.06 158.64"/>
      <path d="M207.12,141.3v-4.8a23.7,23.7,0,0,1,8.41.67,17.11,17.11,0,0,1,7.21,4.14l-2.4,3.07a13.89,13.89,0,0,0-6.4-3.34A13.6,13.6,0,0,0,207.12,141.3Z"/>
      <path d="M222.06,146.3l3.07-3.54s2.27-.13,5.07,5.07,2,7.87,2,7.87h-5s.21-3.87-1-5.74A15.68,15.68,0,0,0,222.06,146.3Z"/>
      <path d="M349.41,230.21a7.52,7.52,0,0,1,4.45-3.63,12.65,12.65,0,0,1,6.14-.76,19.45,19.45,0,0,1,1.6,10.23,117.33,117.33,0,0,1-2.31,12s-2.58-8.87-4.89-12.25A29.66,29.66,0,0,0,349.41,230.21Z"/>
      <path d="M336.42,219.13a20.13,20.13,0,0,1,4.36-6.94,18.82,18.82,0,0,1,5.34-3.65,22.36,22.36,0,0,1,6,4.36,57.65,57.65,0,0,1,5.78,8.36,16.86,16.86,0,0,0-5.69,2.58,40.81,40.81,0,0,0-5,3.65Z"/>
      <path d="M322.45,210.15l8.9-11.92,12,8.1a49.59,49.59,0,0,0-5.34,5.6,28.55,28.55,0,0,0-3.74,6.09Z"/>
      <path d="M311.33,201.88a22.19,22.19,0,0,1,4.89-7.83,26.42,26.42,0,0,1,6.23-5l6.94,7-9.52,12Z"/>
      <path d="M318,161.13s-1.42,10,2.85,13.43,4.18,3.29,9.43,3.65,10.94-3.56,10.94-3.56l-.53,3.58s-7.12,6.29-14.59,6-8.9-3.47-8.9-3.47l-3.65-4.89s-.09,4.89,1.87,7.29,3.56,4.63,3.56,4.63a42.06,42.06,0,0,0-5.43,5.52c-2.4,3-4.71,6.32-4.71,6.32a23.63,23.63,0,0,1-6.76-8.72c-2.67-5.78-2.4-9.79-2.4-9.79A56.41,56.41,0,0,1,308,170.21,72.24,72.24,0,0,1,318,161.13Z"/>
      <path d="M357,132.49s-4.87,4.87-2.07,6,8.27,2.94,8.27,2.94-4.74.93-7.81,0-4.2-1.47-4.2-3.8S353.63,133.16,357,132.49Z"/>
      <path d="M369.31,141.5s1.53-3.67-3.34-5.94-6-1.87-7.27-1.2a1.74,1.74,0,0,0-1,2.27c.2.67.53,1.53,3.07,1.53s2.2-1.26,4.14-.49S368.24,139,369.31,141.5Z"/>
      <path d="M337.41,135.54c-.36-.24-9-5.92-22.54-5.92-5.37,0-9.06,1.27-11,3.78A6.89,6.89,0,0,0,302.7,139l.23.85L340,137.27Zm-29.8.89s-1.3-3.4,6.6-3.4a32.89,32.89,0,0,1,13,2.42Z"/>
      <path d="M317.94,120.21s1.6-3.2,7.41-3.74a30.76,30.76,0,0,1,11.48,1.47s-6.81-.93-9.61,1.13a31.86,31.86,0,0,0-3.87,3.2s-3.07.67-4.2-.33A3.09,3.09,0,0,1,317.94,120.21Z"/>
      <path d="M328.54,124.35s2.74-3.14,5.87-3.74,10.81.73,10.81.73-6.54.4-8.87,2L332.48,126Z"/>
      <path d="M338.29,127.82s4.34-3.94,8.81-4a23.71,23.71,0,0,1,8.94,2s-6.67-.69-9.34,1.16a15,15,0,0,1-4.27,2.25Z"/>
      <path d="M297.45,128.82s-4.6,7.27-2.47,11.21a15.74,15.74,0,0,0,6.34,5.94s-6.71,3.92-8.87-7.74C291,130.69,296.32,128.62,297.45,128.82Z"/>
      <path d="M290.45,134.72s-.07,9.21,2.22,11.15,7,3,7,3-6.65,2.91-9.22-.65-3.32-5.95-2.63-8.53A15.3,15.3,0,0,1,290.45,134.72Z"/>
      <path d="M286.51,144.23s.13,5.2,3,7.27a12.13,12.13,0,0,0,6.54,2s-5.14,4.67-8.47,1.87S286.51,144.23,286.51,144.23Z"/>
      <path d="M457.6,68.7,251,12.44l-208.09,56c-1.37,23-3.56,112.28,34.17,221.62A352.35,352.35,0,0,0,182.47,444.43c28.86,24.38,54.1,37.58,63.56,42.1,17.12-11.4,89.87-63.32,147.13-157.52,37.21-61.21,52.7-130.26,59.14-177.42A557.46,557.46,0,0,0,457.6,68.7ZM179.82,41.86a6.94,6.94,0,1,1-6.94,6.94A6.94,6.94,0,0,1,179.82,41.86ZM155.4,48.8a6.94,6.94,0,1,1-6.94,6.94A6.94,6.94,0,0,1,155.4,48.8Zm-23.88,6.45a6.94,6.94,0,1,1-6.94,6.94A6.94,6.94,0,0,1,131.52,55.25ZM106.83,61.8a6.94,6.94,0,1,1-6.94,6.94A6.94,6.94,0,0,1,106.83,61.8ZM81.74,68.29a6.94,6.94,0,1,1-6.94,6.94A6.94,6.94,0,0,1,81.74,68.29Zm198.1,376.17a6.94,6.94,0,1,1,6.94-6.94A6.94,6.94,0,0,1,279.84,444.46Zm17.46-13.88a6.94,6.94,0,1,1,6.94-6.94A6.94,6.94,0,0,1,297.31,430.59Zm18.06-16.48a6.94,6.94,0,1,1,6.94-6.94A6.94,6.94,0,0,1,315.36,414.11Zm17-16.4a6.94,6.94,0,1,1,6.94-6.94A6.94,6.94,0,0,1,332.33,397.72ZM348.19,379a6.94,6.94,0,1,1,6.94-6.94A6.94,6.94,0,0,1,348.19,379Zm72.65-229.61a6.92,6.92,0,0,0-1.51,11.35,488.83,488.83,0,0,1-16.94,75.91,6.93,6.93,0,0,0-3.15,9.62c-7.91,23.18-18.27,46.49-31.86,67.91q-2.7,4.26-5.35,8.3a6.93,6.93,0,0,0-6,9c-21.6,31.91-40.36,53.54-55,68l-.45,0a6.94,6.94,0,0,0-6.94,6.94s0,.06,0,.09c-16.64,15.16-26.27,19.62-26.27,19.62V404.08S326.81,362.45,366,276.33s35.23-164,35.23-164L250,75.11,98.77,111.81s-7.87,80.66,32.76,183.74c43.88,111.34,115.76,140.91,115.76,140.91l.36-28.22s3-1.32,9.43-4,8.36-4,8.36-4V465.1c-.65-.21-42.56-11.25-86.63-56a6.93,6.93,0,0,0-8.64-9.19,304.53,304.53,0,0,1-43-62.66,6.93,6.93,0,0,0-5.44-10.93c-2.51-5.25-5-10.67-7.34-16.31a474.59,474.59,0,0,1-21.19-62.6,6.91,6.91,0,0,0-2.4-9.48A523.8,523.8,0,0,1,78.3,163.05a6.93,6.93,0,0,0-.92-11.21C74.76,115.14,77,91.66,77,91.66l42.61-11.13a6.93,6.93,0,0,0,11.65-3L185.8,63.23a6.93,6.93,0,0,0,12.69-3.32L250,46.47,301.1,60.06a6.93,6.93,0,0,0,11.65,3.1L359,75.45a6.93,6.93,0,0,0,10.62,2.82l55,14.63S425,115.88,420.84,149.43ZM211.43,395.18c-9.34-9.61-10.85-20-10.85-20a61.93,61.93,0,0,0,11.48,5.07,64.59,64.59,0,0,0,11.3,2.85s3.83,6.22,13.08,6.49c12.19.36,27.39-10.37,33.18-16.55s14.94-13.61,22.6-28.82,12.28-27.49,12.28-44.21-3.56-29.18-5.43-29.18-.89,19.39.44,20.19a4.28,4.28,0,0,0,2.58.62,64.57,64.57,0,0,1,.44,10.14A61.84,61.84,0,0,1,301,313.43s-8.27-.8-10.85-4.54-5.43-11.21-5.07-23.13.27-20.91,4.71-33.54,4.71-15.39,6.85-16.19,9.79,11.39,15.39,23.22,9.07,19.48,8.81,34.69.08,25.89-4.27,39.05c-5.51,16.67-12.63,30.07-23.84,42.79s-35,28.82-46.79,30.64S223,407.09,211.43,395.18Zm34,13.17v23a52.8,52.8,0,0,1-10.85-5.25c-6.23-3.83-8.81-7.74-8.81-7.74V407.17a56.16,56.16,0,0,0,10.5,1.89A24.75,24.75,0,0,0,245.41,408.35Zm-98-162.08c3.74,12.54,4.89,17.61,8.1,24.64a123.88,123.88,0,0,0,7.29,13.43l-1.07,27.58s-18.15-18.41-27.31-52.13S127,213.26,127,213.26s-1.07-20.91,7.65-37.41,29.18-34.56,40.7-39,21.22-6.76,31.76-6.32,18.73,4.27,24.24,10.23,5.43,8.47,5.43,16.19c0,9.79-11.56,16.19-15.83,18.06s-11.83,5.69-20.46,5.87c0,0,21.53-11.3,22.86-17.3s-.53-17.93-10.76-19.21-36.74,5.47-46.26,16.15-21.79,25.89-22.06,37S143.65,233.72,147.38,246.27Zm78.91,47c-1.07-.09-4.8,20.1-6.76,34.6s-2.31,31.76-2.31,31.76-3.29-.53-9.87-4-6.76-4.8-6.76-4.8,2-27.31,7.83-51.77,5.07-22.68,15.21-45.37,20.91-34.16,20.91-34.16V385.57s-1.87,2.58-7.92,2.13a17.63,17.63,0,0,1-9.52-3.38v-88S227.36,293.32,226.29,293.24ZM166.6,280c3.2-11.21,8.81-20.55,13.17-27.49S190.7,236.23,193,236s6.49,11.78,9.25,23.26,3.29,19.39,2.49,33-4.18,20-8.63,26.33-10.05,6.85-10.05,6.85-1.16-5.16-1.78-10.32a61.84,61.84,0,0,1-.53-8.27s5.87-12.37,5.52-25.53-.18-13.79-2-13.7-4.94,12.37-5.5,24.73-.64,20.64.87,28.47,6.4,20.1,12.72,27.31,6.4,6.49,12.54,10.5,17,3.65,17,3.65v19.39s-22.24-4.09-35.32-16.81-21.44-31.6-24.11-43.29S163.39,291.19,166.6,280Zm98.83,29.24c-1.07-.07-.8,1.93-.8,1.93v30.09a64.27,64.27,0,0,1-7.27,7.67,72,72,0,0,1-9.14,7.14V219.49c3.69,0,17.08,38.3,22.82,55.11s20.08,47.9,20.08,53.71c0,9.61-14.08,25.35-14.08,25.35l-7.34,7.94c-7.34,7.94-23.42,16.81-23.42,16.81v-19s5.87-2.8,13.81-10.41,13.74-16.08,13.74-18.15S266.5,309.29,265.43,309.23Zm82.2-190.15c3.87,1.7,11.13,5.69,17.29,9.18-6-.32-13.82,0-15.81,3.53a10.32,10.32,0,0,0-1.36,3.84A50.57,50.57,0,0,0,334.55,129a55.17,55.17,0,0,0-19.74-3.08c-3.37,0-13.63,0-16.93,9.25-1,2.77-.93,5,.17,6.78a6.65,6.65,0,0,0,4.65,2.74l.19,0,.18,0a49.18,49.18,0,0,1,10.85-1.3c.95,0,1.86,0,2.74,0a45.43,45.43,0,0,0-10.1,3.39c-5.19,2.87-8.3,8.46-8.43,8.69l-1.25,2.29,6.58-2c-2.42,2.73-6.6,6.61-10.83,6.75-6.08.19-7.17-3.21-7.21-3.34l-2.1.36c0,.42.87,10.44,5.83,25.6a125.11,125.11,0,0,0,5.92,14.54c-3.51-1.55-7.95-2.94-10.08-5.26-3.07-3.34-8.07-17.35-8.61-29.42s.07-18.21,2.54-26.22,6.34-9.21,7.41-10.67.07-5.59,1.93-5.59,1.2.85,2.34,1.65,2.74.2,6.74.27a19.08,19.08,0,0,0,12.61-4c4-3.22,2.27-6.38,3.54-6.45s1.13,1.07,5.87,1.13,1.47-1.8,7.34-1.73S341.09,116.21,347.63,119.08Zm-16.9-7.41s.89-3.11,6.09-5.43a21.86,21.86,0,0,1,9.65-2c1.33.89-2.94,3.11-3.74,5.6s-1.51,4.54-1.51,4.54-.89-.62-5.34-1.33S330.72,111.67,330.72,111.67Zm35.94,53.91c-3.2-.44-4.36,4.89-4.36,4.89a4.89,4.89,0,0,1-1-5.16c.62-1.25,1.87-2.76,6-2.4a8.17,8.17,0,0,1,7.74,7.65c.27,4.36-5.52,8.9-10.14,9.43s-12.28-5.6-15.57-9.87S341,162.38,336.86,160s-13.08.53-13.08.53l2.4-5.78s11.39-.27,15.48,2,4.89,3.83,8.72,8.87,9.52,10.26,14.06,10.26a6.06,6.06,0,0,0,6-6C370.4,167.89,369.87,166,366.66,165.58ZM372,150c-1.4.2-2,3.2-3,2.87s-.13-2.4-.8-3.2a7.44,7.44,0,0,0-5.6-1.53c-2.13.4-1.93,4.8-3.2,4.8s-2.94-6.54-4.27-7.34-6.54-.27-16.61,2-13.94,6.34-15.41,7.87-2.27,5.74-2.27,9.27-.2,3.87,3,8.21,8.43,1.73,8.43,1.73v-3.83l3.4-2.31v5h2.6v-3.47l2.67-2.68v4.15h3.67v5.87s-2,3-8.14,6.61-10.34,2.87-10.88,3.87,2.54,3.8,10.88,10.73,11.08,4,20.42,15.69,7.54,21.82,6.94,31.82-2.54,17.81-13.41,34.16-27.62,25-27.62,25a99,99,0,0,0,0-12.74c-.4-8.81-.8-12.28-.8-12.28a48.29,48.29,0,0,0,10.88-10.07c4.47-5.94,5.94-11.34,6.74-19.48s-1.93-15.81-3.87-18.68-11.88-9.74-20.35-15.55-13.48-11.88-16.48-14.61a7.06,7.06,0,0,0-.57-.46,129.35,129.35,0,0,1-7.11-17A137.06,137.06,0,0,1,285.91,163a11.1,11.1,0,0,0,6.78,1.64c7.57-.24,14.35-9.88,14.63-10.29l1.75-2.51-7.47,2.25a20.22,20.22,0,0,1,6-5.46c3.69-2,12-3.78,15.39-4.43a1.33,1.33,0,0,0-.14-2.64c-2.05-.16-5.27-.36-8.91-.36a50.85,50.85,0,0,0-11.17,1.32,4.41,4.41,0,0,1-2.9-1.75c-.72-1.15-.7-2.79,0-4.9,1.91-5.34,6.65-7.83,14.92-7.83a52.56,52.56,0,0,1,19,3,48.74,48.74,0,0,1,13.79,7.17l.36.26a1.26,1.26,0,0,0,1.53.2,1.15,1.15,0,0,0,.41-1.35c-.11-.45-.45-1.84,1-4.46,1.64-2.92,11.31-2.87,18.34-2.07,2.31,1.33,4.2,2.43,5.28,3.07,4.2,2.48,4.14,4.19,5.47,8.51s1.27,8.42-.8,10.42S373.38,149.77,372,150Zm-73.9-27.47c-9.7-.06-7.52-1.05-8.63-3.06-1.65-3-2.49-7-6.14-10.09s-9.79-7.64-9.79-7.64c.53-2.49,7.54-2.58,17.38,1.16s9.13,3.36,13.66,6.48,6.58,4.19,6.58,6S307.77,122.56,298.08,122.5ZM264.63,369.21v5.87a42.62,42.62,0,0,1-6.94,5.16c-4.27,2.58-10,5.34-10,5.34v-5.34a44,44,0,0,0,9.7-6.14C262.49,369.92,264.63,369.21,264.63,369.21Z"/>
    </g>
  </g>
</svg>
