<svg xmlns="http://www.w3.org/2000/svg" width="500" height="500" viewBox="0 0 500 500">
  <title>free-worlds-league_COLOR</title>
  <g id="n4">
    <path d="M352.37,168c-32.83.11-59.18.31-60.27.7-2.55.91-11.11,13.72-16,21.32l-2.22,2.85a6.46,6.46,0,0,1-2.73-2.72c-.91-2.18-.37-5,.53-5.63a5.78,5.78,0,0,1,.42.44c.5.56,1.68,1.88,3.32,1.12,1.05-.49,2.07-2.34,3-5.51.62-2,1.9-7.07.35-9.63-1.65-2.72-5.88-2.71-8.58-2.38a11.77,11.77,0,0,0-1.66-3.1c-2.27-3.31-8.19-3.63-17-3.73-7.21-.08-10.8.67-14.71,3.12-3.25,2-11.51,16.76-14.52,22.81-7.82-11.94-12.69-18.31-14.46-18.95-1.07-.38-26.7-.59-58.87-.7q.73-1.23,1.49-2.44h18v-4.88H335.17v5.14H351Q351.71,166.88,352.37,168Z" style="fill: lime"/>
    <path d="M316.82,130.32H184.58a118.21,118.21,0,0,1,132.25,0Z" style="fill: lime"/>
    <path d="M143.65,278.51a96.58,96.58,0,0,0,9.5,10.54c12.69,12.22,30.64,19.58,40.28,23.54,2.38,1,4.84,2,5.81,2.53a29.58,29.58,0,0,1-2.09,3.25c-1.66,2.4-4.1,5.92-7.21,11.33A118,118,0,0,1,143.65,278.51Z" style="fill: lime"/>
    <path d="M310.41,330.32c-3.28-5.76-5.84-9.46-7.56-11.95a29.84,29.84,0,0,1-2.09-3.25c1-.55,3.43-1.56,5.81-2.53,9.64-4,27.59-11.32,40.28-23.54a90.84,90.84,0,0,0,13.09-15.56A119,119,0,0,1,310.41,330.32Z" style="fill: lime"/>
    <path d="M352.37,168c-32.83.11-59.18.31-60.27.7-2.55.91-11.11,13.72-16,21.32l-2.22,2.85a6.46,6.46,0,0,1-2.73-2.72c-.91-2.18-.37-5,.53-5.63a5.78,5.78,0,0,1,.42.44c.5.56,1.68,1.88,3.32,1.12,1.05-.49,2.07-2.34,3-5.51.62-2,1.9-7.07.35-9.63-1.65-2.72-5.88-2.71-8.58-2.38a11.77,11.77,0,0,0-1.66-3.1c-2.27-3.31-8.19-3.63-17-3.73-7.21-.08-10.8.67-14.71,3.12-3.25,2-11.51,16.76-14.52,22.81-7.82-11.94-12.69-18.31-14.46-18.95-1.07-.38-26.7-.59-58.87-.7q.73-1.23,1.49-2.44h18v-4.88H335.17v5.14H351Q351.71,166.88,352.37,168Z" style="fill: #692372"/>
    <path d="M316.82,130.32H184.58a118.21,118.21,0,0,1,132.25,0Z" style="fill: #692372"/>
    <path d="M143.65,278.51a96.58,96.58,0,0,0,9.5,10.54c12.69,12.22,30.64,19.58,40.28,23.54,2.38,1,4.84,2,5.81,2.53a29.58,29.58,0,0,1-2.09,3.25c-1.66,2.4-4.1,5.92-7.21,11.33A118,118,0,0,1,143.65,278.51Z" style="fill: #692372"/>
    <path d="M310.41,330.32c-3.28-5.76-5.84-9.46-7.56-11.95a29.84,29.84,0,0,1-2.09-3.25c1-.55,3.43-1.56,5.81-2.53,9.64-4,27.59-11.32,40.28-23.54a90.84,90.84,0,0,0,13.09-15.56A119,119,0,0,1,310.41,330.32Z" style="fill: #692372"/>
  </g>
  <g id="n3">
    <path d="M482.8,183.12l-.94.75c-.86.1-3.12.18-6.47.24a19.82,19.82,0,0,0-3.55-.36l-91.53.44v3.14c.25,0,25.59.13,50.74.14,24.15,0,37.05-.07,44-.22a7.55,7.55,0,0,1,2,.68c-1.51,2.67-10.61,10.5-14.57,13.5a44.72,44.72,0,0,1-4.77.28,48.39,48.39,0,0,0-5.66-.43H379.8l0,3.14c.2,0,20.66.33,41.07.49s30.94.1,36.59-.06l.71.11c-2.84,3.21-12.23,11.13-14.88,13.08a53.69,53.69,0,0,1-7.51.55,22.67,22.67,0,0,0-2.54-.22l-54,.52V222c.16,0,15.84.13,31.59.07,12,0,19.68-.19,24.65-.36a9.16,9.16,0,0,1,2.94.87c-1.68,2.79-12.6,11.84-15,13.51-.74.13-2.85.22-5.84.29a7.08,7.08,0,0,0-1.14-.39l-.18,0-36.45.53v3.14c19.82.16,30.86.08,37.05-.09a3.7,3.7,0,0,1,1.41,1.35c-1,2.54-12.15,11.87-15.5,13.61-1.74.83-14.81.83-22.61.83-10.22,0-12.92.06-13.88.46-1.13.48-1.68,1.73-2.77,4.23-2.1,4.81-6.47,14.81-18.9,26.78-12.26,11.8-29.85,19-39.3,22.89-5.82,2.39-7.21,3-7.67,4.16-.65,1.67.35,3.12,2.57,6.31a151,151,0,0,1,11.45,19.21c8.27,16.23,8,19.15,7.76,21.72,0,.34-.06.67-.08,1s-1.1,2.22-4.27,4.66c-3.61,2.78-6.86,4.1-7.86,4-2.2-1.42-10.41-16.06-17.16-29.57l-2.82,1.37c6.59,14.1,13.43,29.94,13.48,32,0,.23,0,.44-.07.62-.1,1-.1,1-3.63,3.59-1.27.93-2.93,2.15-5.1,3.79l-.89.67c-7.7,5.81-7.7,5.81-10,5.08l-.66-.21c-.64-.63-3.55-5.24-9.91-38.82-.09-.46-.17-.88-.26-1.24l0-.17h0c-.28-1-.7-1.56-1.78-1.39l-1.5.27.19,1.51c0,.37.46,3,1.33,8.44,1.88,11.81,5.35,33.55,5.62,36.6-1.33,2.12-13.61,7.19-17.69,8.87-1.9.78-3.27,1.35-3.93,1.68a.53.53,0,0,1-.87-.62V348.06h-3.14v55.17a1.9,1.9,0,0,1-.31.79,1.18,1.18,0,0,1-.56-.18c-.65-.33-2-.89-3.93-1.68-4.08-1.68-16.35-6.75-17.68-8.87.27-3,3.74-24.78,5.62-36.59.87-5.45,1.29-8.08,1.33-8.45l.19-1.54-1.5-.23c-1.08-.17-1.5.37-1.78,1.39h0l0,.17c-.09.36-.17.78-.26,1.24-6.36,33.59-9.28,38.2-9.91,38.82l-.66.21c-2.29.73-2.29.73-10-5.08l-.89-.67c-2.17-1.64-3.83-2.86-5.1-3.79-3.54-2.59-3.54-2.59-3.63-3.59,0-.19,0-.39-.06-.56,0-2.1,6.88-17.94,13.47-32l-2.82-1.37c-6.75,13.51-15,28.15-17.16,29.57-1,.1-4.25-1.24-7.87-4-3.17-2.44-4.25-4.19-4.27-4.66s0-.69-.08-1c-.24-2.57-.51-5.48,7.76-21.72a151.2,151.2,0,0,1,11.45-19.21c2.21-3.19,3.22-4.64,2.57-6.31-.46-1.17-1.85-1.78-7.67-4.16-9.45-3.88-27-11.09-39.3-22.89-12.43-12-16.8-22-18.9-26.78-1.09-2.5-1.64-3.75-2.77-4.23-1-.4-3.66-.46-13.88-.46-7.8,0-20.87,0-22.61-.83-3.35-1.74-14.51-11.07-15.51-13.61a3.71,3.71,0,0,1,1.42-1.35c6.19.17,17.23.25,37,.09v-3.14L83.69,236l-.18,0a7.07,7.07,0,0,0-1.14.39c-3-.07-5.11-.17-5.85-.29-2.36-1.67-13.28-10.72-15-13.51a9.55,9.55,0,0,1,3.11-.9c12.76.53,35.88.5,56.06.33v-3.14l-54-.52a22.26,22.26,0,0,0-2.49.22,53.65,53.65,0,0,1-7.49-.55c-2.65-1.95-12-9.86-14.87-13.08l.73-.12c5.65.16,16.28.22,36.57.06s40.86-.49,41.07-.49l0-3.14H47.9a48.06,48.06,0,0,0-5.62.43,44.75,44.75,0,0,1-4.77-.28c-4-3-13.06-10.84-14.57-13.5a7.55,7.55,0,0,1,2-.68c7,.15,19.9.23,44,.22,25.14,0,50.49-.14,50.74-.14v-3.14l-91.54-.44a19.84,19.84,0,0,0-3.55.36c-3.35-.06-5.61-.14-6.46-.24l-.94-.75C7.89,175.69,6,173,5.71,172c2.21-1.14,13.13-1.42,22.53-1,47.79,0,172,0,178.62.64,1.55,1.12,7.43,9.28,14.17,19.66a1.83,1.83,0,0,0,3.25-.37c1.39-3.82,11.68-21.86,14.26-23.47,3-1.86,5.69-2.73,13-2.64,5.44.07,12.89.15,14.42,2.37,1.34,1.95,1.33,2.46,1.32,2.76a1.82,1.82,0,0,0,2.15,1.85c3.26-.59,6.07-.29,6.68.72,1,1.66-.65,7.9-1.82,10.15a3.17,3.17,0,0,0-4-1c-2.85,1.42-3.44,6.37-2.05,9.68,1.19,2.84,4.31,4.42,5.24,4.84a1.81,1.81,0,0,0,2.19-.55l2.93-3.76.08-.11c5.86-9.09,12.83-19,14.41-20.09,6.19-.66,130.76-.69,178.73-.64,9.33-.41,20.25-.12,22.46,1C494,173,492.11,175.69,482.8,183.12Z" style="fill: #a762a0"/>
  </g>
  <g id="n2">
    <path d="M368.48,167.93,356,168c-.42-.73-.86-1.44-1.3-2.17h12.66C367.73,166.51,368.11,167.22,368.48,167.93Z" style="fill: #4577b0"/>
    <path d="M250.7,96a131.71,131.71,0,0,1,88.94,34.34L322,130.09a121.38,121.38,0,0,0-142.56,0l-17.65.23A131.7,131.7,0,0,1,250.7,96Z" style="fill: #4577b0"/>
    <path d="M146.87,165.54c-.49.81-1,1.62-1.46,2.43l-12.49,0q.62-1.21,1.26-2.4Z" style="fill: #4577b0"/>
    <path d="M121.84,258.46c4.69,0,9.37,0,10.46.19a24,24,0,0,1,1.25,2.62c.29.65.61,1.4,1,2.24a121,121,0,0,0,53.86,68.93c-.92,1.68-1.89,3.5-2.91,5.51-.78,1.53-1.49,3-2.13,4.27A132.59,132.59,0,0,1,121.84,258.46Z" style="fill: #4577b0"/>
    <path d="M316.95,342.85c-.72-1.5-1.53-3.13-2.44-4.91s-1.75-3.38-2.57-4.88a121.93,121.93,0,0,0,56.27-74.44c1.93-.15,6.8-.16,11.35-.16A132.44,132.44,0,0,1,316.95,342.85Z" style="fill: #4577b0"/>
  </g>
  <g id="n1">
    <polygon points="383.5 138.34 370.82 150.7 383.58 163.71 340.61 163.71 347.46 160.66 347.46 138.34 383.5 138.34" style="fill: #cac5e7"/>
    <rect x="158.47" y="132.41" width="186.89" height="26.15" style="fill: #cac5e7"/>
    <polygon points="132.84 150.14 120.09 138.34 156.38 138.34 156.38 160.66 162.91 163.44 120.51 163.44 132.84 150.14" style="fill: #cac5e7"/>
  </g>
  <g id="Base">
    <g>
      <path d="M291.26,373.1h0a3.72,3.72,0,1,0-6.17,4.18h0a3.72,3.72,0,0,0,6.16-4.18Zm-3.09-.61a2.67,2.67,0,0,1,1.9.79l-4.36,3a2.68,2.68,0,0,1,2.46-3.74Zm0,5.36a2.67,2.67,0,0,1-1.87-.76l4.34-2.94a2.68,2.68,0,0,1-2.48,3.7Z"/>
      <path d="M311.34,356h0a3.72,3.72,0,1,0-.63,7.42h0a3.72,3.72,0,0,0,.62-7.42Zm-2.42,2a2.67,2.67,0,0,1,1.8-1l-.44,5.24a2.68,2.68,0,0,1-1.36-4.26Zm4.17,3.37a2.67,2.67,0,0,1-1.77,1l.44-5.23a2.68,2.68,0,0,1,1.33,4.25Z"/>
      <path d="M403.9,245.75h0a3.72,3.72,0,1,0-5.32,5.21h0a3.72,3.72,0,0,0,5.32-5.21Zm-3.15,0a2.67,2.67,0,0,1,2,.44L399,249.83a2.68,2.68,0,0,1,1.75-4.12Zm1,5.27a2.67,2.67,0,0,1-2-.42l3.75-3.67a2.68,2.68,0,0,1-1.77,4.09Z"/>
      <path d="M422.16,225.53h0a3.72,3.72,0,1,0,.19,7.45h0a3.72,3.72,0,0,0-.2-7.44ZM420,227.81a2.67,2.67,0,0,1,1.68-1.17l.14,5.26a2.68,2.68,0,0,1-1.82-4.09Zm4.52,2.89a2.67,2.67,0,0,1-1.65,1.16l-.14-5.24a2.68,2.68,0,0,1,1.79,4.08Z"/>
      <path d="M443.39,212.2h0a3.72,3.72,0,1,0-7.44.33h0a3.72,3.72,0,0,0,7.44-.33Zm-2.32-2.14a2.67,2.67,0,0,1,1.2,1.66L437,212a2.68,2.68,0,0,1,4.05-1.9Zm-2.81,4.57a2.67,2.67,0,0,1-1.19-1.63l5.24-.23a2.68,2.68,0,0,1-4,1.86Z"/>
      <path d="M462.18,197.52h0a3.72,3.72,0,1,0-4.78-5.71h0a3.72,3.72,0,0,0,4.78,5.71Zm.29-3.14a2.67,2.67,0,0,1-.59,2l-3.38-4a2.68,2.68,0,0,1,4,2.07Zm-5.33.54a2.67,2.67,0,0,1,.57-1.93l3.37,4a2.68,2.68,0,0,1-3.94-2.09Z"/>
      <path d="M479.22,176.36h0a3.72,3.72,0,1,0-6.38,3.84h0a3.72,3.72,0,0,0,6.38-3.84Zm-3.06-.77a2.67,2.67,0,0,1,1.85.89l-4.51,2.71a2.68,2.68,0,0,1,2.66-3.6Zm-.29,5.35a2.67,2.67,0,0,1-1.82-.86l4.49-2.7a2.68,2.68,0,0,1-2.67,3.56Z"/>
      <path d="M352,149.26h0a3.72,3.72,0,1,0,5.62,4.88h0a3.72,3.72,0,0,0-5.63-4.88Zm.21,3.15a2.67,2.67,0,0,1,.27-2l4,3.45a2.68,2.68,0,0,1-4.25-1.42Zm5.18-1.38a2.67,2.67,0,0,1-.26,2l-4-3.44a2.68,2.68,0,0,1,4.22,1.44Z"/>
      <path d="M265.56,388.65h0a3.72,3.72,0,1,0-7.42.64h0a3.72,3.72,0,0,0,7.42-.64Zm-2.41-2a2.67,2.67,0,0,1,1.27,1.61l-5.24.45a2.68,2.68,0,0,1,4-2.06Zm-2.61,4.68a2.67,2.67,0,0,1-1.26-1.58l5.22-.45a2.68,2.68,0,0,1-4,2Z"/>
      <path d="M208.1,375.18a3.72,3.72,0,0,0,6.8,2.11h0a3.72,3.72,0,1,0-6.17-4.18h0A3.7,3.7,0,0,0,208.1,375.18Zm6.41,0a2.66,2.66,0,0,1-.22,1.06l-4.36-3a2.68,2.68,0,0,1,4.58,1.89Zm-5.36,0a2.66,2.66,0,0,1,.2-1l4.34,2.94a2.68,2.68,0,0,1-4.55-1.92Z"/>
      <path d="M186.65,356.85a3.72,3.72,0,0,0,2.63,6.61h0a3.72,3.72,0,1,0-.63-7.42h0A3.71,3.71,0,0,0,186.65,356.85Zm4,5a2.66,2.66,0,0,1-1,.49l-.44-5.24a2.68,2.68,0,0,1,1.4,4.75Zm-3.37-4.17a2.66,2.66,0,0,1,.92-.48l.44,5.23a2.68,2.68,0,0,1-1.37-4.74Z"/>
      <path d="M95.11,247.68a3.72,3.72,0,0,0,6.31,3.29h0a3.72,3.72,0,1,0-5.32-5.21h0A3.7,3.7,0,0,0,95.11,247.68Zm6.3,1.15a2.66,2.66,0,0,1-.4,1l-3.76-3.68a2.68,2.68,0,0,1,4.16,2.68Zm-5.27-1a2.66,2.66,0,0,1,.38-1l3.75,3.67a2.68,2.68,0,0,1-4.13-2.7Z"/>
      <path d="M75.76,226.12A3.72,3.72,0,0,0,77.65,233h0a3.72,3.72,0,1,0,.19-7.45h0A3.7,3.7,0,0,0,75.76,226.12Zm3.45,5.4a2.66,2.66,0,0,1-1,.39l.14-5.26a2.68,2.68,0,0,1,.87,4.87ZM76.32,227a2.66,2.66,0,0,1,1-.38l-.14,5.24a2.68,2.68,0,0,1-.84-4.86Z"/>
      <path d="M57.16,214.3A3.72,3.72,0,0,0,64,212.53h0a3.72,3.72,0,1,0-7.44-.33h0A3.7,3.7,0,0,0,57.16,214.3Zm5.46-3.35a2.66,2.66,0,0,1,.37,1l-5.26-.23a2.68,2.68,0,0,1,4.89-.78ZM58,213.75a2.66,2.66,0,0,1-.36-1l5.24.23a2.68,2.68,0,0,1-4.88.75Z"/>
      <path d="M39.82,198.36a3.72,3.72,0,0,0,2.79-6.55h0a3.72,3.72,0,1,0-4.78,5.71h0A3.7,3.7,0,0,0,39.82,198.36Zm.65-6.37a2.66,2.66,0,0,1,1,.33l-3.38,4A2.68,2.68,0,0,1,40.47,192Zm-.54,5.33a2.66,2.66,0,0,1-1-.31l3.37-4a2.68,2.68,0,0,1-2.37,4.33Z"/>
      <path d="M20.26,178.46a3.72,3.72,0,0,0,6.9,1.74h0a3.72,3.72,0,1,0-6.38-3.84h0A3.7,3.7,0,0,0,20.26,178.46Zm6.4-.35a2.66,2.66,0,0,1-.16,1.07L22,176.47a2.68,2.68,0,0,1,4.67,1.64Zm-5.35.29a2.66,2.66,0,0,1,.15-1l4.49,2.7a2.68,2.68,0,0,1-4.64-1.67Z"/>
      <path d="M146.19,148.12a3.72,3.72,0,0,0-3.79,6h0a3.72,3.72,0,1,0,5.62-4.88h0A3.71,3.71,0,0,0,146.19,148.12Zm-1.65,6.19a2.66,2.66,0,0,1-1-.48l4-3.45a2.68,2.68,0,0,1-3,3.93Zm1.38-5.18a2.66,2.66,0,0,1,.94.46l-4,3.44a2.68,2.68,0,0,1,3-3.9Z"/>
      <path d="M234.9,390.77a3.72,3.72,0,0,0,7-1.47h0a3.72,3.72,0,1,0-7.42-.64h0A3.71,3.71,0,0,0,234.9,390.77Zm5.59-3.12a2.66,2.66,0,0,1,.32,1l-5.24-.45a2.68,2.68,0,0,1,4.92-.58Zm-4.68,2.61a2.66,2.66,0,0,1-.32-1l5.22.45a2.68,2.68,0,0,1-4.9.54Z"/>
      <path d="M187.22,155.47l3.27-19.29h4.58S198.14,147,199.38,147s4.84-10.79,4.84-10.79h4.64l3.27,19.29h-5s-.39-11.44-1.77-11.64-3.79,11.51-5.95,11.64-4.45-11.51-6-11.57-2,11.57-2,11.57Z"/>
      <path d="M234.66,136.18h-5.1l-7.67,19.29h4.45l1.57-3.18h7.63l1.48,3.18h4.84Zm-6.41,13,3.62-7.37,3,7.37Z"/>
      <path d="M262.73,147.67c0-.87,4.66,0,4.79-6.19.08-3.66-5-5.3-5-5.3h-9.5v19.29h4.71a68.84,68.84,0,0,1,0-7.37c.13-1.18,5.19,7.37,5.19,7.37l5.67.26S262.73,148.54,262.73,147.67Zm-5.14-2.18v-6s5.06-1.09,5.1,2.83S257.59,145.49,257.59,145.49Z"/>
      <rect x="279.64" y="136.18" width="5.27" height="19.55"/>
      <path d="M296.59,136.18h5.06v7.17a.26.26,0,0,0,.46.17l6.38-7.34h5.8l-7.93,9.31,8.93,10.24h-6.41l-6.52-7.45a.26.26,0,0,0-.46.17v7.28h-5.32Z"/>
      <path d="M497,170.29c-2.1-3-16.77-2.78-25.25-2.4-19.94,0-61.59,0-99.77,0-.35-.71-.74-1.42-1.1-2.13h17.68l-14.78-15.06,14.86-14.49H350l0,0c-.83-.9-2.6-2.58-2.6-2.58v-3.33l-3.31-.09a135.46,135.46,0,0,0-186.89,0s-4.3,4.26-5.92,6l0,0H114.75l15.14,14-14.17,15.28h14.93c-.42.8-.84,1.59-1.24,2.39-38.55-.08-81-.06-101.1,0-8.56-.37-23.22-.56-25.32,2.4-1.84,2.6,1.36,6.59,12.26,15.28.58.46,1,.78,1.12.91s.47.44,3.31.59a2.32,2.32,0,0,0-.05.65c.24,4.08,16.06,16.26,16.21,16.38s.48.36,2.22.52c1,3.78,16.82,15.95,17,16.06a10.56,10.56,0,0,0,3.48.64v0c-.76,1.35-.7,3,7.39,10.09,3.92,3.46,8.27,6.89,9.06,7.42.19.13.52.35,4,.53q-.13.23-.24.49c-2,4.42,16.06,16.9,17.05,17.42,2,1.06,10.39,1.17,22.89,1.18A135.72,135.72,0,0,0,182,345.06c-5.1,11-4.85,13.67-4.6,16.32,0,.3.06.59.07.9.13,2.38,3.06,5.11,5.49,7,.71.55,7,5.33,10.52,4.58.93-.2,2.31-1.64,3.95-3.91-.88,2.45-1.38,4.26-1.3,5,0,.21,0,.39.06.56.23,2.39.68,2.71,4.9,5.81,1.26.92,2.91,2.13,5.07,3.76l.89.67c8.49,6.41,9,6.79,12.83,5.57l.75-.24c.66-.2,1.56-.48,3-3.9-.48,3.24-.79,5.47-.82,6.14-.15,2.74,4.43,5.49,19.63,11.76,1.7.7,3.17,1.31,3.72,1.59a4.34,4.34,0,0,0,1.95.51,3.09,3.09,0,0,0,1.5-.38,3.05,3.05,0,0,0,.39-.26,3,3,0,0,0,.39.26,3.56,3.56,0,0,0,3.45-.13c.55-.28,2-.88,3.72-1.58,15.2-6.28,19.79-9,19.63-11.76,0-.68-.34-2.9-.82-6.14,1.42,3.42,2.32,3.7,3,3.9l.75.24c3.84,1.23,4.34.84,12.83-5.57l.89-.67c2.16-1.63,3.81-2.84,5.07-3.76,4.23-3.1,4.67-3.42,4.9-5.81,0-.17,0-.35.06-.56.09-.74-.42-2.55-1.3-5,1.64,2.27,3,3.71,3.95,3.91,3.47.73,9.81-4,10.52-4.58,2.44-1.87,5.37-4.61,5.49-7,0-.31,0-.6.07-.9.24-2.59.49-5.26-4.3-15.67a135.59,135.59,0,0,0,64.48-87.24c11.73,0,19.52-.16,21.5-1.18,1-.52,19-13,17.05-17.42q-.11-.25-.24-.49c3.43-.19,3.76-.4,4-.53.79-.53,5.14-4,9.06-7.42,8-7,8.15-8.69,7.42-10,2.78-.24,3.14-.5,3.44-.72s16-12.33,17-16.06c1.74-.16,2-.34,2.22-.52s16-12.23,16.21-16.38a2.34,2.34,0,0,0-.05-.65c2.83-.16,3-.36,3.31-.59s.55-.45,1.12-.91C495.65,176.89,498.85,172.89,497,170.29Zm-128.53-2.36L356,168c-.42-.73-.86-1.44-1.3-2.17h12.66C367.73,166.51,368.11,167.22,368.48,167.93Zm-16.11,0c-32.83.11-59.18.31-60.27.7-2.55.91-11.11,13.72-16,21.32l-2.22,2.85a6.46,6.46,0,0,1-2.73-2.72c-.91-2.18-.37-5,.53-5.63a5.78,5.78,0,0,1,.42.44c.5.56,1.68,1.88,3.32,1.12,1.05-.49,2.07-2.34,3-5.51.62-2,1.9-7.07.35-9.63-1.65-2.72-5.88-2.71-8.58-2.38a11.77,11.77,0,0,0-1.66-3.1c-2.27-3.31-8.19-3.63-17-3.73-7.21-.08-10.8.67-14.71,3.12-3.25,2-11.51,16.76-14.52,22.81-7.82-11.94-12.69-18.31-14.46-18.95-1.07-.38-26.7-.59-58.87-.7q.73-1.23,1.49-2.44h18v-4.88H335.17v5.14H351Q351.71,166.88,352.37,168Zm31.13-29.64L370.82,150.7l12.76,13h-43l6.85-3.05V138.34ZM250.7,96a131.71,131.71,0,0,1,88.94,34.34L322,130.09a121.38,121.38,0,0,0-142.56,0l-17.65.23A131.7,131.7,0,0,1,250.7,96Zm66.12,34.34H184.58a118.21,118.21,0,0,1,132.25,0Zm-158.35,2.09H345.36v26.15H158.47Zm-25.63,17.73-12.75-11.8h36.29v22.32l6.53,2.79h-42.4Zm14,15.4c-.49.81-1,1.62-1.46,2.43l-12.49,0q.62-1.21,1.26-2.4Zm-25,92.93c4.69,0,9.37,0,10.46.19a24,24,0,0,1,1.25,2.62c.29.65.61,1.4,1,2.24a121,121,0,0,0,53.86,68.93c-.92,1.68-1.89,3.5-2.91,5.51-.78,1.53-1.49,3-2.13,4.27A132.59,132.59,0,0,1,121.84,258.46Zm21.81,20a96.58,96.58,0,0,0,9.5,10.54c12.69,12.22,30.64,19.58,40.28,23.54,2.38,1,4.84,2,5.81,2.53a29.58,29.58,0,0,1-2.09,3.25c-1.66,2.4-4.1,5.92-7.21,11.33A118,118,0,0,1,143.65,278.51Zm173.3,64.34c-.72-1.5-1.53-3.13-2.44-4.91s-1.75-3.38-2.57-4.88a121.93,121.93,0,0,0,56.27-74.44c1.93-.15,6.8-.16,11.35-.16A132.44,132.44,0,0,1,316.95,342.85Zm-6.54-12.53c-3.28-5.76-5.84-9.46-7.56-11.95a29.84,29.84,0,0,1-2.09-3.25c1-.55,3.43-1.56,5.81-2.53,9.64-4,27.59-11.32,40.28-23.54a90.84,90.84,0,0,0,13.09-15.56A119,119,0,0,1,310.41,330.32ZM482.8,183.12l-.94.75c-.86.1-3.12.18-6.47.24a19.82,19.82,0,0,0-3.55-.36l-91.53.44v3.14c.25,0,25.59.13,50.74.14,24.15,0,37.05-.07,44-.22a7.55,7.55,0,0,1,2,.68c-1.51,2.67-10.61,10.5-14.57,13.5a44.72,44.72,0,0,1-4.77.28,48.39,48.39,0,0,0-5.66-.43H379.8l0,3.14c.2,0,20.66.33,41.07.49s30.94.1,36.59-.06l.71.11c-2.84,3.21-12.23,11.13-14.88,13.08a53.69,53.69,0,0,1-7.51.55,22.67,22.67,0,0,0-2.54-.22l-54,.52V222c.16,0,15.84.13,31.59.07,12,0,19.68-.19,24.65-.36a9.16,9.16,0,0,1,2.94.87c-1.68,2.79-12.6,11.84-15,13.51-.74.13-2.85.22-5.84.29a7.08,7.08,0,0,0-1.14-.39l-.18,0-36.45.53v3.14c19.82.16,30.86.08,37.05-.09a3.7,3.7,0,0,1,1.41,1.35c-1,2.54-12.15,11.87-15.5,13.61-1.74.83-14.81.83-22.61.83-10.22,0-12.92.06-13.88.46-1.13.48-1.68,1.73-2.77,4.23-2.1,4.81-6.47,14.81-18.9,26.78-12.26,11.8-29.85,19-39.3,22.89-5.82,2.39-7.21,3-7.67,4.16-.65,1.67.35,3.12,2.57,6.31a151,151,0,0,1,11.45,19.21c8.27,16.23,8,19.15,7.76,21.72,0,.34-.06.67-.08,1s-1.1,2.22-4.27,4.66c-3.61,2.78-6.86,4.1-7.86,4-2.2-1.42-10.41-16.06-17.16-29.57l-2.82,1.37c6.59,14.1,13.43,29.94,13.48,32,0,.23,0,.44-.07.62-.1,1-.1,1-3.63,3.59-1.27.93-2.93,2.15-5.1,3.79l-.89.67c-7.7,5.81-7.7,5.81-10,5.08l-.66-.21c-.64-.63-3.55-5.24-9.91-38.82-.09-.46-.17-.88-.26-1.24l0-.17h0c-.28-1-.7-1.56-1.78-1.39l-1.5.27.19,1.51c0,.37.46,3,1.33,8.44,1.88,11.81,5.35,33.55,5.62,36.6-1.33,2.12-13.61,7.19-17.69,8.87-1.9.78-3.27,1.35-3.93,1.68a.53.53,0,0,1-.87-.62V348.06h-3.14v55.17a1.9,1.9,0,0,1-.31.79,1.18,1.18,0,0,1-.56-.18c-.65-.33-2-.89-3.93-1.68-4.08-1.68-16.35-6.75-17.68-8.87.27-3,3.74-24.78,5.62-36.59.87-5.45,1.29-8.08,1.33-8.45l.19-1.54-1.5-.23c-1.08-.17-1.5.37-1.78,1.39h0l0,.17c-.09.36-.17.78-.26,1.24-6.36,33.59-9.28,38.2-9.91,38.82l-.66.21c-2.29.73-2.29.73-10-5.08l-.89-.67c-2.17-1.64-3.83-2.86-5.1-3.79-3.54-2.59-3.54-2.59-3.63-3.59,0-.19,0-.39-.06-.56,0-2.1,6.88-17.94,13.47-32l-2.82-1.37c-6.75,13.51-15,28.15-17.16,29.57-1,.1-4.25-1.24-7.87-4-3.17-2.44-4.25-4.19-4.27-4.66s0-.69-.08-1c-.24-2.57-.51-5.48,7.76-21.72a151.2,151.2,0,0,1,11.45-19.21c2.21-3.19,3.22-4.64,2.57-6.31-.46-1.17-1.85-1.78-7.67-4.16-9.45-3.88-27-11.09-39.3-22.89-12.43-12-16.8-22-18.9-26.78-1.09-2.5-1.64-3.75-2.77-4.23-1-.4-3.66-.46-13.88-.46-7.8,0-20.87,0-22.61-.83-3.35-1.74-14.51-11.07-15.51-13.61a3.71,3.71,0,0,1,1.42-1.35c6.19.17,17.23.25,37,.09v-3.14L83.69,236l-.18,0a7.07,7.07,0,0,0-1.14.39c-3-.07-5.11-.17-5.85-.29-2.36-1.67-13.28-10.72-15-13.51a9.55,9.55,0,0,1,3.11-.9c12.76.53,35.88.5,56.06.33v-3.14l-54-.52a22.26,22.26,0,0,0-2.49.22,53.65,53.65,0,0,1-7.49-.55c-2.65-1.95-12-9.86-14.87-13.08l.73-.12c5.65.16,16.28.22,36.57.06s40.86-.49,41.07-.49l0-3.14H47.9a48.06,48.06,0,0,0-5.62.43,44.75,44.75,0,0,1-4.77-.28c-4-3-13.06-10.84-14.57-13.5a7.55,7.55,0,0,1,2-.68c7,.15,19.9.23,44,.22,25.14,0,50.49-.14,50.74-.14v-3.14l-91.54-.44a19.84,19.84,0,0,0-3.55.36c-3.35-.06-5.61-.14-6.46-.24l-.94-.75C7.89,175.69,6,173,5.71,172c2.21-1.14,13.13-1.42,22.53-1,47.79,0,172,0,178.62.64,1.55,1.12,7.43,9.28,14.17,19.66a1.83,1.83,0,0,0,3.25-.37c1.39-3.82,11.68-21.86,14.26-23.47,3-1.86,5.69-2.73,13-2.64,5.44.07,12.89.15,14.42,2.37,1.34,1.95,1.33,2.46,1.32,2.76a1.82,1.82,0,0,0,2.15,1.85c3.26-.59,6.07-.29,6.68.72,1,1.66-.65,7.9-1.82,10.15a3.17,3.17,0,0,0-4-1c-2.85,1.42-3.44,6.37-2.05,9.68,1.19,2.84,4.31,4.42,5.24,4.84a1.81,1.81,0,0,0,2.19-.55l2.93-3.76.08-.11c5.86-9.09,12.83-19,14.41-20.09,6.19-.66,130.76-.69,178.73-.64,9.33-.41,20.25-.12,22.46,1C494,173,492.11,175.69,482.8,183.12Z"/>
    </g>
  </g>
</svg>
