<svg xmlns="http://www.w3.org/2000/svg" width="500" height="500" viewBox="0 0 500 500">
  <title>free-rasalhague-republic-hbs_COLOR</title>
  <g id="n1">
    <path d="M250,10,449,79s-2,158-72,254S261,491,250,488,121,394,85,280,51,80,51,80Z" style="fill: #00b1ec"/>
  </g>
  <g id="Base">
    <g>
      <path d="M293.77,149.63c-3-12.59,2.1-25.38,13.25-38.22-1.43-.07-2.86-.07-4.3-.06h0c-12.61,11.88-19.62,26.07-12.53,43.78,6.66,16.63,25.41,33.73,55.2,50.82C331.57,195.29,300.94,180.16,293.77,149.63Z"/>
      <path d="M454.57,74.84,249.9,3,46,77.48C32.81,314.3,193.58,467.06,249.9,497,300.67,461.39,461,299.91,454.57,74.84ZM441.23,89.17c-.42,111.46-45.86,250.27-167.16,341v-16.6C385.07,320.71,425.68,200.87,427.24,94L250,31.78,72.6,96.65c-1.28,55.4,12.56,131.79,43.2,200.23,30,67,76.71,125.83,138.71,151.58V420.68a61.67,61.67,0,0,0,13.86-4.33v52.07c-71.54-21-129.09-83.54-165.23-165.88C71.27,229.92,56.5,150,58.76,91.54l.18-4.65,191-69.84h0L441.25,84.23ZM224.42,409.69C217,406,211.66,399.17,207.77,392a13.37,13.37,0,0,1-1.86-4.88c5.34.71,10.25,1.31,15.54,2a5.39,5.39,0,0,1,3.36,1.15,24.78,24.78,0,0,0,26,5.69c18-6.75,29.2-18.91,39.87-32.75a125.73,125.73,0,0,0,25-58.13c.68-4.69.53-9.44.76-14.16.17-3.63-2.37-23.69-8.23-29.84-.49-.51-.94-.34-1.17.22-2.06,5-2,16.58-.36,23.72.76,3.38,2,1.75,2.27,5.4a128.16,128.16,0,0,1,0,16.64,20.15,20.15,0,0,1-6.46,0c-10.4-2.58-10.07-19.67-9.2-29.75,1.44-16.67,5-34.92,11.44-47.52h0a.93.93,0,0,1,1.7-.1c9.49,12.92,22.42,33.32,25.13,58.27,3.08,28.35-8.64,55.79-22.86,78-14.07,22-29.86,38.17-57,45.89C242.83,414.32,232.83,413.91,224.42,409.69ZM249,423.29v13.86c-6.44,0-12.12-3.14-15.06-7.43a22.55,22.55,0,0,1-3.63-13.07H244.2a10.53,10.53,0,0,0,1.2,5.24C246,422.8,246.22,423.29,249,423.29ZM133.1,215.7c2.22,22.34,10.74,44.13,21.63,63.57a5.12,5.12,0,0,1,.39,3.36c-1,6.78-1.61,14.3-2.25,21.37-19.42-22.12-29.29-48.76-35.91-73.44-4.18-15.59-5.79-44.44-1.57-60.16,8.54-31.88,24.66-53.74,49.63-70.69,12.34-8.38,29.48-14.69,43.22-13.35h0c13.59,1.32,29.18,9.79,29.13,22.87-.05,13.44-13.15,25.11-27.43,28.33,3.7-8.21,11.41-14.87,12.68-23.64,1.36-9.38-7.75-12.27-15-13.16-11.15-1.37-22.21,2.9-31.34,9.08-18.36,12.43-31.88,32.73-38.2,53.21C132.44,181.31,131.35,198.11,133.1,215.7Zm82.27,142.76a1.25,1.25,0,0,1-1,1.32c-4.83-.2-9.75-3-13.2-5.61-1.12-.85-.79-2.31-.78-3.49.3-27.41,18.85-100.67,43.86-165.5h0v205H230.28v-126C221.84,294.54,213.65,331.8,215.37,358.46ZM188.86,230.92c.42-.45,1.15-.79,1.62.2,3.35,7,5,14.4,6.57,22A158.85,158.85,0,0,1,200.68,282a71.79,71.79,0,0,1-.4,11.84c-1.11,7.89-2.34,16.19-7.17,22.74A19.26,19.26,0,0,1,183,323.47a171.53,171.53,0,0,1-.51-18.95,16.94,16.94,0,0,0,5.15-4.68c2.91-4-.22-35-3.12-40.38-.43-.81-1.15-.49-1.59.23-15.31,24.67-15.77,104.18,40.91,107.42v18.46C165.05,380.57,135.75,287.48,188.86,230.92Zm93.68,96.71c-3.39-18.8-8.78-37.9-13.76-54.83v66l-15.33,15.55V185.18c4.39,10.67,31.88,90.94,45.32,141.13,1.05,3.45-.91,6.77-2.23,9.84-11.06,16.6-23.5,31.52-39.62,41.88a14.25,14.25,0,0,1-6.83,2.56V361.95c12.44-7.24,24.85-19.62,31.69-31.26A4.13,4.13,0,0,0,282.54,327.63ZM330.49,95.49c0-.35-1.31-.71-3.68-1.46-16.18-5.12-36.76-6.46-39.66-25.47h0c7.38,14.16,44.61,20.59,65.48,19.57,2.41-.12,4.76-1,7.19-.57,4,.67,7.6,2.59,11.26,4.22,2.39,1.07,5.06,1.23,7.49,2.21a50.39,50.39,0,0,1,16.73,11,19.08,19.08,0,0,1,5,7.51c.59,2-1.54,2.36-.47,4,1.88,2.79,5.72,2.92,9.32,6.13,1.31,1.18.24,3.28-.56,4.68-4.44,7.71-10.64,15.11-19.15,18.4,6.57-9.44,3.54-11,2-12.26-.79-.63-1.33-1.25-1.78-.18-2.74,6.44-3.32,12.16-12.18,13.45,3.94-3.9,5.65-11.83,2.28-13.69-6.48-3.58-13.25-6.65-19.57-10.53-1.95-1.2-3.32.57-2.34,1.06,5.17,2.57,10.18,4.75,13.23,9.88,3.41,5.72,3.65,12.62,5.24,19,1,3.81,2.89,7.65,6.45,9.74,2.76,1.62,7.27.74,8-2.57.81-3.69-3.48-6.38-7.19-4.4,2.88-6.06,8.42-5.11,10.9-1.35a8.27,8.27,0,0,1,.7,7.21c-1.5,3.62-5.88,5.52-9.33,5.52-3.66,0-6-2-7.88-4.44-5.62-7.37-4.14-17.57-8.86-25.44-3-5-8-8.36-13.38-10.31a5.88,5.88,0,0,0-1.8-.3c-4.77,4.28-8.06,20-.38,27.92,1.52,1.57,4.49,2,6.85,2.47.44.1,1.15.45.61.8-5.47,3.57-16.69,5.28-23.34-1.65,7.3-11.29,6.25-21.32-9-26.67-.82-4.6,1-9,2.89-13.09.62-1.36,1.5-2.62,1.39-4.25-5.8,4.65-10.18,12-9.41,19.61,8.65,4.65,19.55,10.87,12.11,21.43-5.17-3.14-15.25,5.13-8.78,11.81,12,12.35,40.22,26.73,49,41.77,5,8.45,5.76,19.21,3.53,32.67-3,17.89-23,48.43-44.41,60.29V273.85c6.76-8.61,14.29-15.28,16.44-28,1.17-6.91-1.22-13.91-4.85-19.79-5.45-8.83-13.8-15.22-22.09-21.23C308.23,193.06,288,185.13,279,166.9c-10-20.23-6.63-47.23,8.76-64.59a27.35,27.35,0,0,1,16.76-9c8.4-1.16,18.47,2.94,22.75,2.94C330.8,96.25,330.49,95.85,330.49,95.49Zm-13.36-27h0c1.39,7.77,6.37,9.44,13.29,10.47,8.81,1.32,20.48,2.07,24.52,6.81C345.49,87,311.5,88,317.13,68.51Z"/>
      <path d="M368.61,117.5c4,1.67,7.46,1,11.48-.9,1.24-.59,1.53-1.77.63-1.68-6.92.7-13.88-14.06-24.34-8.83C358.39,111.43,363.34,115.32,368.61,117.5Z"/>
    </g>
  </g>
</svg>
