<svg xmlns="http://www.w3.org/2000/svg" viewBox="0 0 500 500"><title>gray-death-legion</title><g id="Icons"><path d="M493.94,315.67c-1.55-9.9-10.93.59-14-1.81-12.2-9.55-2.05-3-1.13-14q6.81-2.11,6.39-8.57a27.45,27.45,0,0,1-2.27-10.05c1-9.34-.92-17.74,1-27.44,1.15-5.93,5.48-6.8,6.46-12.66.77-4.61-7.4-2.9-6.75-5.73.71-3.09,9.59-8.18,9.19-9.76-1.45-5.73-8-5.58-8.94-8.88-1.39-5,5.1-4.66,6.44-6.7,5.6-8.52,4-9.54,1.38-19.33-.8-2.93-3.94-16.34-5.41-18.44-.54-.77-11.11-11.42-10-8.5-2.38-6.17,4.58-14.16,2.3-21.07-4.82-14.6-14.53,2-17.28-3.81-1.09-2.32,4.69-4.43,1.78-8.06-2.1-2.62-9.76-1.05-9.73-3.65.23-18.76,29.83-23.88-3.92-35-11-3.62-9.5-1.07-16.43-2.56-5.92-1.27-8.25,1.74-15.2-4.24-7.66-6.59-3.36-27.48-17.8-27.12-16.3.41-12.52,19.16-32.22,16.84-8.84-1-14.48-6.45-22.93-7.67-3-.43-3.8,6.2-7.16,5.74-17.16-2.35-30-13.74-44-6.85-4.48,2.2.08,18.82-11.22,15.15-10.8-3.51-1-12.6-2.09-13.7-.5-.49-1.58-5.8-4.94-8.39-4.95-3.81-21.08,2.3-25.27-.34-12.64-8-6-25.3-27.29-26.27-3-.14-13.69,1.91-16.14,4-2,1.72-6.67,13.91-1.52,11.69-11.38,4.91-28.93-7.16-44.92-2.31-8,2.44-15.28,12.6-20.93,14.15-8.34,2.28-11-4.64-18.53-2.78-7,1.71-24.35,15.32-27.63,21.56-3.16,6-5.13,1.62-2.88,9.78,1.23,4.44,21.52,11.81,12.89,20.21-5.53,5.37-4.87-5.2-6.73-5.45-3.25-.44-5.88,0-8.85-.17-6.86-.34-9.9-8.36-18.47-1.23-7.6,6.33-.11,34.58,2.52,33.3-8.9,4.32-27.22-22.42-39.42-9.63-6.54,6.86,2.89,15.35.11,22-1.76,4.23-8,5.85-10.4,9.61-11.1,17.18-7.22,19-.3,39.18,5.38,15.66,16.93,38.09,15.23,52C37,248,28.25,254,27.21,257c-1.81,5.15,6.74,6,4.38,11.61-1.53,3.65-11.17,3.87-13.29,10.07s6.1,8.58,5.76,10.06c-2.69,11.81-18.49,8.37-17.49,22.83.7,10.06,17.22,16.4,22,19,12.88,6.84,10.38-4.7,9.63,7.19-.71,11.32-8.65,9.91-7.74,20.79C30.76,361.53,41,361.26,41,367c-.05,7-8.74,2.15-10.09,5.64C23,393,33.71,392.78,42,408.22c4.18,7.77,1.83,12.53,8,17.7l12,.24a58.59,58.59,0,0,0,16.86,9.64c11.62,4.53,37.78,3,46.57,10.93,11.29,10.23-4.73,29.35,18.2,9.79,1.9-1.62,6.32,2.52,9.46-.2,3.72-3.23-1.84-11.51,3-14.23,3.91-2.21,8.77,14.35,12.32,15.77,8.13,3.26,12.89-8.27,19.42-9.78,4.28-1,18.09-.79,23.15-.16,4.65.58,23.46,9.84,27.14,8.77,9.35-2.72,2.55-11.61,7.54-16.42.57-.55,21.87-2,22.35-1.84,6.19,2.15,2.08,5.49,5.25,7.19,14.58,7.85,38.67,21.55,49.79,3.86,3.26-5.18-4.8-10.31,3.09-15.45s10.42,2.69,12.74,7.14c1.2,2.31-7,7.5-2.42,13.22,5.05,6.29,7.35-2.45,11.55-.21,13.74,7.35,14.67,7.5,33.21,2.26,8.68-2.45,19-1.53,27.6-4-3.39,1,15.94-5.65,12-6.25,11.1,1.69,12.54,13,23,13,1.74,0,14.83-7.29,15.73-8.25,5.82-6.19,5,.58,4.4-8.61s-26-24.42-13.63-36.84c2.37-2.37,16.82,9.85,23.32,7.49,8.93-3.24,2-3.53,7.33-11.24,9.56-13.78,6.61-30.84,8-46.94C490.08,341.15,496,328.88,493.94,315.67ZM493.52,326c-7.25,18.14-2.9,33.34-6.3,51.82-.84,4.55-8.7,29.73-11.43,31.6-12.53,8.56-20-13.31-29.07-2.69-11.29,13.22,21.07,33.41,18,40.81-.75,1.79-26.81,8.81-26.44,8.87-5.55-.93-10-11-19-11.52,1.68.09-16.29,5.59-17.46,5.82-13.74,2.66-30.77,11-44.37,9.95,4.49.35-18.18-11.1-14-6.77-6.63-6.83-.16-4.68-3.47-10.9-16-30.07-16.12,6.43-25.39,11.61-7.69,4.3-11.77-.2-19.31-1.22,4.73.64-16.28-3.11-13.63-1.27-.33-.23-7.6-9.08-6.29-8.5-9.15-4-3.37-6.29-18.82-5.34-3.62.22-10.61-1.71-13.72.36-5,3.35,1.65,10.72-1.12,12.31-10.26,5.88-36.73-9.34-54.17-4.87-1.44.37-11,9.32-12.32,9.21-7.18-.59-7.93-6-11.72-7.1-2.28-.68.72-7.68-5.21-7.21-9.5.76-1.53,7.57-6.14,10.92-7,5-17.58,13.91-23.11,7.86-9.32-10.2,4-12.24-11.53-19.24-10.5-4.74-26.36-2.23-37.59-6.47-1.75-.66-30.79-10.46-31.45-11.19-.3-.33-15.59-26.31-15.74-26.61-9-19,9.31-20.74,7.18-35.13-1-6.71-9.71-1.49-8.46-11.19.29-2.24,11.52-10.08,11.12-14.28-1.2-12.51-9-3-15-6.9s-10.76-5.52-14.2-14.84c-4.74-12.8-2.56-3.77,3.45-11.65,2.08-2.73,8.45-2.87,10.32-6.71,4.79-9.79-4.9-5.83-4.13-9.79,0,.14-1.72-6-1.36-8.18.55-3.39,7.46-4.34,7.94-5.88-1,3.33,6.52-15.33,3.2-9.56-.43.75-3.28-5.11-3-6.62,2.78-13.25,10.53,1.19,7.31-19.75-1.94-12.64-9.42-30.15-14.39-42.91-3.19-8.2-8.27-15.63-6.37-23.11,2.3-9.06,13.84-12.1,16.74-19.54,3.56-9.11-5.51-18,4.22-23.33,14.09-7.67,21.69,14,32.54,10.12,9.94-3.58-9.58-19.13-4.7-30.33-.48,1.11,14.92-7.54,14.7-7.54,2.37-.07,4.37,6,7.7,6.43,1.41.2,3.89-3.2,5.45-2.61,4.9,1.84,2.63,13.91,11.53,7.76,5.86-4-.92-10.73-2.27-14.21-8.12-21-14.36-1.55-4.71-17.3C102.9,70.39,114.31,60.8,124.59,59c3-.51,6.28,5,10.11,4.31,5-.85,5.49-4.33,9-5.67C158,52.13,165.76,44.32,183.4,46.89c5.83.85,13.29,9.25,19.54,6.19,2.64-1.29,3.82-6.35,3.43-6.1,1.82-1.17-.59-7.75,10.94-10.9h0c6.23-1.7,11.47-1.17,17.1,2.38,9.51,6,.31,9,5.69,13.68,13,11.32,16.22,1.74,30.73,9.12,15.71,8-4.12,5.75,4.82,15.55,16.51,18.1,12.54-6.59,22.29-12.1,6.18-3.49,22.74,8.28,30.94,8.13,10.24-.19,16.8-.5,25.36.38,6.86.71,18.06,8.54,25.58,5.83,7-2.52,6.47-12.07,11.81-15.39,12.18-7.58,13-2,19.71,7.71,8.15,11.8,3.82,18,20.06,21.86q3-4.45,7.66-4.59,5.68-1.24,9.36,5.31c5.13,1.52,14.85,3.3,16.41,9,2.5,9.11-12.34,16.74-10.59,28.17.2,1.28,13.65,9.22,14,9.62-.9-1.2,5.73-2.53,8.14.31,3.4,4-4.17,8.67-3.68,11.06q-4.31,3.79-2.3,10.11,1.79,4.95,5.93,3.62c-.46-1.05,6.76,4.37,8,6.12,6,8.82,7.13,28.49,5.65,36.07,0-.19-7.23,7.69-8,9.27-.69,1.4,9.71,3.94,8.91,7.92-.74,3.66-7.82,4.14-9.23,10.25-1,4.43,7.51,3.06,6.83,6.21-1.19,5.51-5.85,9.86-7.44,16-2.51,9.8,1.93,18.42.61,27.65-.8,5.63.22,6-1.22,10.73-1.72,5.66-12.05,5.62-8.65,14.41C474.91,318.85,501,307.4,493.52,326Z"/><path id="path125" d="M260.14,121c-48.69-.14-94.41,27.39-102.76,77.25-3.07,18.36,10,43.29,4.1,57.73-4.25,10.35-12,1.82-12.45,14.06-.33,8.21,12.75,18.41,16.72,25.68l.23,9.52a21.76,21.76,0,0,0,10.34,9.88,59.63,59.63,0,0,1,6.3,17.9c1.82,9.13-2.33,20.44-.08,28.38,3.26,11.54,7.21,9,15.46,15.92,27.44,23.1,47.58,29.4,83.54,26C295,402,306.89,398,319,388.15c15.87-12.92,16.36-17.76,15.65-34.74-.91-21.63.68-28.86,10.39-47.35,4.44-8.45,16.11-21.42,17-31.11,1.3-14.72-7.3-7.28-9.68-16.74-2.17-8.58-1.61-10.45,0-20.27,3.12-19.06,4.68-33.9.18-53.3-4.95-21.31-9-40.16-29.26-51-18.56-9.89-42.65-12.64-63.14-12.7Zm2.74,4.11h0c27.76-.28,65.46,8.29,77.8,35.21,6.46,14.09,10.67,36,10.81,51.38.1,11.11-14,41.48-8.6,49.91a12.22,12.22,0,0,1,1-9.7c-.83.06,2,13.42,4.91,14.72l-1.59-4.07a24.72,24.72,0,0,1,8.25,2.61c-26.3,9-14.17-34.12-18-48.49-2.64-9.83-6.81-14.33-6.7-25.38.07-7.27,9.48-30.33-2.31-34.56,2.07,2.35,3.86,8.77,1.37,11.67.52.09,2.06.72,2.59.81-.68,1.09-1.51,2.09-2.16,3.19,3.17.27-.67,27.22-.15,32.65-6.74-6.36-6.72-8.68-8-16-2.28,12.64,11.33,22,15.18,32.88,4.69,13.17-8.66,34.39.69,44.19-.53,3.18,20.12,1.08,19.95.72,3.53,7.6-5,9.36-6.53,14.72,1.62-2.28,3-1.71,4.44-2.67-.82,17.91-20.06,4.09-20.21,4.44a37.45,37.45,0,0,1,5.63-.85c-1.28-12.35-30.55,23.52-24.8,23.34.19-6.5,2.09-12.77,2.17-18.93a13.25,13.25,0,0,0-3.29,8.88,16.77,16.77,0,0,1-2.42-2c2.14,6.86,2.95,9.31,0,14.15,1.18-1.95-10.9,3.31-9,3.73a12,12,0,0,0-3.08-5.94c-3.73-.39-6.71,9.44-8.83,8.92-3.25-.8,2.52-7.87-5.64-6.84-1,.13-9.84,7.21-7.11,7.88-.59-.15,1.51-10.34-5.26-8.9-2.1.45-11.24,9-9.76,9.36-4.68-1.29,1.66-37.54,2.46-40.67,33.8,29.12,10.33-43.44,3.11-44.1a13.37,13.37,0,0,0-2.21,4.19l-3.36-3.76a29.56,29.56,0,0,0-1.41,5.67c-17.51-16.78-32.23,77.14-1.57,37.24.33,1.79,2.63,41,.46,41-1,0-6.23-7-9.2-7.54-4.74-.81-5.27,7.54-6.21,7.51-.43,0-3.84-8.06-8.19-8.58-1.72-.21-2.24,9.86-2.67,9.82-2.3-.23-3.25-10-7.58-9.27q-1.94,2.85-3.77,5.76c-4.38-.11-11-3.11-15.74-4.36q-1-4.28,3.52-4.7a16.17,16.17,0,0,0,.73-4q-1.54,1.8-3,3.65c2.68-5.3-.77-11.38-5.7-13.78,3.13,5.12,6.08,10.38,3,16.65-.36-14.76-12.08-19.4-24.9-22.48,3,3.44,8.43,1.81,11.68,4.95-9.18-.35-42.92,1.3-38.68-20.09,1.92-9.69,11.64,1.2,19-5.41-3.51,1.15-7.26,1.87-10.94,1.08,2.45-3.56,9.73-1.24,13-4.55-.1.93-.29,2.8-.39,3.73,6-4.93-2-25.69-.71-32.17,2.62-13.54,15.12-20.69,14-35.37-1.32,5.29-2.84,10.65-5.73,15.36-.07-4.16-4.47-31.29-8.41-32.3.26,13.41,7.28,19.86,5.82,33.95-.89,8.63-7,14.47-7.86,24-.61,6.45,7.35,20.56-1.13,24.13-.48-7.49-4.28-12.62.79-13.19-7.45-18-11.33-30.4-8.28-49.81,3.34-21.27,6.82-27.51,22.62-39-3.32,0-5.83-.43-8.71-.43C199.16,137.49,232.77,125.59,262.88,125.07Zm-61.95,35.32c-3.06.17-8.13,1.3-10.76,3.39A33.26,33.26,0,0,0,199.5,162c1.29,6.89-8.76,22.22-4.54,26.57.58-5.23.61-8,5.82-11,4.82,6.14,17.3,11.06,25,12.12-19-14.71-17.77-2.55-24.81-29.32Zm-13.5,4.77c-6,2.48-10.21,7.84-13.74,12.83,2.76-.43,11.14-5.83,8-9a10.25,10.25,0,0,0,6.64-2.61l-.87-1.26Zm40.86,28.13c-2.47,0-24.56,3.23-24.74,7.06,16.45-5.21,26.39-1.87,42.36-1.83C244.13,195.09,231.46,193.59,228.29,193.29Zm64.39,1.42c-14.9.32-28,5.14-43.13,3.74,4.16,4.29,53.17-.23,53.55-2.24Q297.39,192.36,292.68,194.71Zm14.6,2.94c-4.32.22-4.41,3.94.66,4.9Q312.86,199.47,307.28,197.65Zm-93.86,4.27a11.8,11.8,0,0,0-3.38.51C213.27,208.08,214.53,208,213.42,201.92Zm75.13,7c-5.17-.07-34.21,3.94-37.72,7.7,12.06.46,22-3.22,34.57-6.31a11.36,11.36,0,0,0-5.58,11.22,23.28,23.28,0,0,0-6.56-3.15c3.53,7.65,7.43,12.47,10.49,22.45-1.89-.64-4.28-1.81-6.6-1.36,15.76,9.82,28.92,30.79,50.5,16.47l-3.54.29c18.64-31.36-5.24-46.92-35.56-47.31Zm-61.06.24c-10.09,0-31.22,4.23-37.33,12.93-6.46,9.19.36,38.86,13.05,40.93-2.42,4.71-7.64-.26-10.37-.35,3.93,15.83,54.39-11.76,55.84-23.42a54.6,54.6,0,0,0-6.12,3.41c1.46-7,1.73-20.76,10.7-21.69q-1.6,6.83,3.07,8.95c-.39-3.75-1.49-7.47-2.2-11.1q-9,7.29-12.6-3.06a8.1,8.1,0,0,0,8.36.48c-6.05-2.46-16-7.08-22.38-7.08Zm37.74,7.21q-7.81-2.17-9.85,3c2.75,10.4,13.2-15.29,15.3,11.08,5.26-6.14,1-13.13-5.45-14.08ZM170.38,258.6c-.8,3.47-5.38,3.06-8.17,3.83A32.08,32.08,0,0,1,170.38,258.6Zm20.13,8.06c1.4,1.86,6,5.41,6.85,1.51A10.26,10.26,0,0,1,190.52,266.66Zm112.83,5.41c-5.26.3-.51,6.79,3,5.44Q308,272.87,303.35,272.07Zm-85,.78c-6.08.92-.3,9.1,3.13,3.66C224,272.48,218.38,274.38,218.33,272.85Zm85.47,1c6.41,2.16-5.28-.22,0,0Zm-2.52,13a12.28,12.28,0,0,0-1,7.89l-2.73-2.18c2.45,3,4.75,11.22,5.78,12.49.92-2.27-2.06-18.21-2.06-18.21Zm33.62.21h0c-.11,0-3.73,30-8.8,29.17q3,6.09-2.46,6.24,5,3.11-1.5,7.49,5,2-1,6.64c3.37,1.32-.31,12.28-.71,15.31,6.92-14.5,10.31-35.58,14.27-51.14,4.32,20.55-13,46.43-6.53,68.81,1.42-5.12,1.61-9.31,3-13.53,8.16,11.07-7.42,22.55-15.5,28.92-15.36,12.11-25.23,12.55-42.33,11.84-12.17-.51-23.58,3.27-35.35,1-17.26-3.27-31.23-29.78-46-30.21,1.07,1,2.18,2,3.28,3-14.56-.87-5.07-22.54-5.6-32.24-.76-14-7.13-29.48-12.33-42.17-.67,3.61,1.11,8.81,3.06,12.66-12.16-3.9-5.83-31.66,8.07-2.32,6.26,13.22,4.29,28.56,10.16,41.38.15-7.11-8.77-34.16-5.42-38.58-5.25-2.25-6.07-12.83-8-17.55,14.22.22,14.66,43.19,30.66,52.71,6.73,4,6.7,1.45,14.3,3.8,4.46,1.38,1.4,7,6.78,9.65,2.48,1.21,6-8.45,7.48-8.33,1.09.09-.16,7.58,1.38,7.83,2.81.46,8.45-3.76,7.68-4,2.37.64-1.24,8.12,4.56,6.63,5.39-1.39-.13-12.49,5-12.12-10.53-.74,23.36,30.68,12.13,0,6.66,18.2,3.7,2.44,10,2.19,3.36-.13-1.33,8.54,5.75,4.75,3.53-1.89,5.16-6.9,7.38-8.27s8.92-1.82,11.93-4.82C323.38,328.82,322.05,292.36,334.9,287.08Zm-43.48.25a49.59,49.59,0,0,0-1.07,7.2l-2.85-2.17c2.27,4.9,6.25,12.3,5.7,18.07C295.79,305.12,291.34,293.66,291.42,287.32Zm45.93.61c9.79.72,6.66,17.19-1.32,19.29l1.71-8.65-2.3.86A35.88,35.88,0,0,0,337.34,287.93ZM306.94,294q-1.79,8.8,4.29,11.36,1.19-8.05-4.29-11.36Zm-77.09.85c-3.63,1.22-10.47,12.66-5.34,15.43-.22-5.34,2.74-11.36,5.34-15.43Zm-9.33,1.62c-3.68,1.18-8.27,9.12-5.75,12.85A31.2,31.2,0,0,1,220.52,296.46Zm17.19,1c-3,4.13-5.06,9.34-3.58,14.46C235.54,307.11,235.38,301.94,237.72,297.41Zm79.66,9.43c.57-.08.88,10.52-.82,10.52C317.18,317.36,314.86,307.21,317.37,306.84Zm-17.27,1.25c2.19-.1,2.74,26.38-5.4,24.44C290.35,331.49,294.12,308.41,300.1,308.09Zm-27.82,0c2.11,0,8.34,6.75,5.1,7a4.41,4.41,0,0,0-2.56-2.6c0,3.7,6.81,31.41-8.31,20.8-11.8-8.28,6.63-18.63,7.1-20.37a4.55,4.55,0,0,0-4.8-1.47C267.48,310.72,272,307,272.28,308.09Zm13.73.54c6.61,0,6.93,29.66-3.61,24C277.28,329.92,282.22,308.64,286,308.63Zm-32.11.14c5.66,0,14.67,26.92.57,23.31-17.92-4.58.6-15.78.45-18.18a14.81,14.81,0,0,0-6.34-.59,6.52,6.52,0,0,1,5.32-4.54Zm-13.57.32c6.51.76,5.53,20.12,3.1,21.57C230.4,338.39,236.52,308.65,240.33,309.1Zm74.06.79c3.06.1-3.82,13.41-4.1,13.57C310.44,323.36,313.1,312.29,314.38,309.88Zm-5.86.32c.44,0,2.63,17.55-3.74,14.59S304.6,312.41,308.52,310.2Zm-97.62.2c5.1-.33,4.67,13.31,2.21,14.85-5.43,3.39-5.44-14.64-2.21-14.85Zm-3.8,0c2.34.1.43,10.34-.92,10.14C202.27,320,207.1,310.44,207.11,310.43Zm21.21.11c5.23,0,8.41,23.22.8,22.83C221.81,333,226.15,313.66,228.32,310.54Zm-9.55.79c5-.18,9,16.75,1.81,16.41C214.22,327.45,217,315.09,218.77,311.34Zm-13.18,10.36c-.76,2.76-.51,5.47-1,8.29C204,327.08,203.86,324.16,205.59,321.69Zm109.71.61c.21,0,.18,12.64-2.14,12.38C312.16,334.57,308.89,321.91,315.3,322.3ZM207,324.61c1.76.45,1.79,13.08,1.58,13.08C205,337.69,206.8,326.76,207,324.61Zm102.08,1.17c8-1.07-4.18,17.45-3.23,14.31C307.93,333.18,304.36,330.55,309.06,325.78Zm-6,.56c6.32-.22-3.06,24.06-5,16.4C296.47,336.14,297.88,331,303.1,326.34Zm-92.16,1.16c4.57-.22,6.2,12.1,4.38,14.5C212.52,345.69,210.15,329.68,210.93,327.5Zm5.1.17c4.63,1.33,10.45,12.74,5.48,18C218.6,348.75,215.86,329.79,216,327.67Zm8.11,2c5.53-.68,7.52,12.89,6.66,16.1C229.76,349.68,222.67,335,224.15,329.67Zm10.07.54c11,2.4,4.42,28.3,2,25.9C230.83,350.7,232.78,336.87,234.22,330.2Zm11.94,1.32c6.06-.34,9.14,26.53,2.64,26.35s4.88-8.62,2.4-8.62C245.92,349.26,235.74,336.42,246.16,331.53Zm45.52,1.31c11.09.75.08,26.78-3.31,19.12C286,346.6,286.56,335.49,291.68,332.84Zm-13.84.58c10.89-1.16,13.47,10.91,3.71,15.13C271.24,353,278.06,333.4,277.84,333.42Zm-24.66,1.06c7.81-.18,11.25,14.17,6.68,14.76C252.77,350.17,249.88,334.55,253.18,334.48Zm18,.72,4.5.52c2.55,2.84-3.45,16.31-9.15,14.79C261.7,349.24,264.66,335.55,271.13,335.2Zm-67.81,1c-1.26,5.17-.94,12.7,4.28,15.48C204.68,346.25,204.75,342.1,203.33,336.18Zm110.31,3.53c-2.72,3.52-3.91,12.09-5.79,16.11C312.62,354.47,313.86,343.32,313.64,339.7ZM208.72,342c-.22,6.21-.61,8.4,4.79,13C211.34,351.53,210.36,346.31,208.72,342Zm4.45,5.14c1.14,8.32,10,16.76,15.71,21.87a52.6,52.6,0,0,1-5.57-18.16,23.15,23.15,0,0,0,1.67,13C220.52,362.94,216,349.78,213.16,347.16Zm91.57,1.64c.78,7.28-4.21,8.69-7.79,17.77C303.75,361.18,308.19,357.23,304.74,348.81Zm-105.61.4c-.91,3.1.1,3.95,1.09,5.07A14.65,14.65,0,0,0,199.13,349.2Zm81.16,1.35c4,.13,2.34,5,0,5.08C279.32,355.66,274.91,350.38,280.28,350.56Zm-23.7.87c6-.23,1.51,7.15-.09,6.94C253.13,357.94,256.26,350.28,256.58,351.43Zm12,.45c4.12-.07.79,5.9-.67,5.85C265.41,357.64,265.1,351.94,268.57,351.88Zm29.14,1.64c-4.39,5.6-1.37,8.24-7,10.32a12.7,12.7,0,0,0,2.11.87c-2.19,2.82-6.66,4.05-7.19,8.68C292.66,366.94,297.17,363.28,297.71,353.52Zm-66,2.1c-6.52.72,2.93,15.6,6.28,17.56q-6.63-6.83-.33-7.43c-1.09-.39-2.17-.81-3.24-1.25,0,.68.08,2,.11,2.71A25.57,25.57,0,0,1,231.69,355.62Zm53.56,5.92c-4.8,5.11-2.9,4.56-7.4,11.31A14,14,0,0,0,285.25,361.55Zm-40.72.51c-1.62,5.46-.13,13.19,5.87,14.87C247.44,372.07,245.24,367.77,244.53,362.05Zm29.83.84A30,30,0,0,1,269.89,377C273.89,376.05,276.65,366.24,274.36,362.89Zm-18.61,1.85c-1.41,1.12-1.42,2.13-.66,3.54A2.58,2.58,0,0,0,255.76,364.73Zm7.48,2.76c-1.52.94-1,7.56-1.16,8.24A9.19,9.19,0,0,0,263.23,367.49Zm-6.89,2.11c-1.15.84-1.3,3.79-1.3,5.61C255.7,374.91,257.25,372.7,256.35,369.6Zm47.95,3.62c-3-.09-4.86,2.66-7.3,4C301.23,381.77,304.21,376.13,304.29,373.22Zm-1.52,1.25a3.35,3.35,0,0,1-3.06,3.37C299.78,376.61,301.78,375.49,302.77,374.47Zm-76.94,1.39c.21-2.25-7.26,12,2.16,6.9a6,6,0,0,0-2.16-6.9Zm-2.14,1.63c2.39,0,2.87,2.27,3.1,4.17C225.18,380.75,223.72,379.47,223.69,377.48Z"/></g></svg>