<svg xmlns="http://www.w3.org/2000/svg" viewBox="0 0 500 500"><title>highlanders</title><g id="Base"><path d="M412,60.83A5.25,5.25,0,0,0,404.66,56a5.25,5.25,0,0,0-10.48.38s0,.05,0,.08a5.25,5.25,0,0,0-3,10.07A5.25,5.25,0,1,0,400,72.21a5.24,5.24,0,0,0,8.27-6.37A5.26,5.26,0,0,0,412,60.83Zm-12.55,5a5.25,5.25,0,0,0-2.31-1.44,5.22,5.22,0,0,0,.88-2.9s0-.05,0-.08a5.2,5.2,0,0,0,3.5-.22,5.21,5.21,0,0,0,.79,2.42A5.27,5.27,0,0,0,399.43,65.85Zm-3.65-9.47a3.65,3.65,0,1,1,7.22.76,5.26,5.26,0,0,0-1.26,2.07,3.63,3.63,0,0,1-4.12.34,5.27,5.27,0,0,0-1.71-2.22A3.63,3.63,0,0,1,395.78,56.38Zm-6.68,5.13a3.64,3.64,0,0,1,5.46-3.16,5.27,5.27,0,0,0,1.71,2.22,3.61,3.61,0,0,1-1.06,3.63,5.21,5.21,0,0,0-2.64.95A3.65,3.65,0,0,1,389.1,61.51Zm6.5,11.57a3.64,3.64,0,0,1-2.46-6.34,5.21,5.21,0,0,0,2.64-.95,3.65,3.65,0,0,1,3,1.78,5.25,5.25,0,0,0,.3,3.08A3.65,3.65,0,0,1,395.6,73.08Zm8.28-.8a3.65,3.65,0,0,1-3.14-1.79,5.25,5.25,0,0,0-.3-3.08,3.65,3.65,0,0,1,3.1-2.41,5.22,5.22,0,0,0,2.93,1.07,3.65,3.65,0,0,1-2.6,6.21Zm3.18-7.82a5.22,5.22,0,0,0-2.93-1.07,3.63,3.63,0,0,1-1-3.32A5.26,5.26,0,0,0,404.42,58a3.65,3.65,0,1,1,2.64,6.46Z"/><path d="M494.16,408.61c-14.6-18.94-34.17-34.15-54.54-46.45-7.88-4.76-14.24-8-20-13.9-8-8.2-9.2-22.86-21.51-28.12-17-7.24-8-7.12-26,5.32-25.51,17.67-53.43,30.66-84.07,36.55l-3.7-29.51c108-24.92,144.85-165,64.17-240.35,12.25-3.8,26.34-13.34,38.7-15.11,10.31-1.47,20.61,9.75,28.6-4.63,6.83-12.29-1.69-28.37-16.21-28.25-15.53.13-11.36,12.87-20,17.57-21,11.4-45.76,18.13-65.42,6.91-7.57-4.32-53.38-48.74-39.76-12.66A142.13,142.13,0,0,0,162,87.11c-22.59,19-30.26,50-52.93,64.28-35.14,22.07-75,21.23-102.3,56.16a2.47,2.47,0,0,1-.8,1.81A1.8,1.8,0,0,1,7.7,210c38,4.5,67.54-8.8,104-21a141.8,141.8,0,0,0,51.23,115c13.76,11.33,41.28,19,46.64,32.1,2.52,6.17-.56,17.94-.78,24.71-33.13-7.45-53.35-28.95-82.73-41-13.61-5.6-17.46-4.7-31.46,11.31-7.14,8.17-9.55,17.83-17.37,25-9.79,9-24.83,13.94-35.6,22.27C27.81,389.1,15.44,401.94,3.2,414.32c15.89-2.81,37.16-9.73,53.21-6.8.1,19.51-9.37,34.55-2.7,55.64,13-17.49,27.84-31.5,45.23-44.4,16.33-12.11,16.85-4.13,12.68-27.39,83.77,53.23,195.17,55.16,279.17,1.34-11.65,29.1,41.64,45.35,60.44,64.51,2.65-10.69-4.5-45.07-2-48.76,12.6-5.86,36.07,3,49.31,5.78Zm-33.95-25.88-10,12.65c-7.9-6.62-15.06-12.7-24.09-17.57L433.95,365A238.78,238.78,0,0,1,460.21,382.73Zm-45.64-21c-.05,6.93-2.15,7.52-5.92,11l-8.51-11.35c5.45-4.07,9.64-7.53,12.4-9.94A26.91,26.91,0,0,1,414.58,361.74Zm3.68,13.9c1.6.76,3.51,1.7,5.58,2.78l-13.11,21.34c-.92-.53-1.74-1-2.45-1.37A75.12,75.12,0,0,0,418.25,375.64Zm7,3.54c9,4.84,16.08,10.88,23.94,17.46l-15.62,19.71a171.63,171.63,0,0,0-21.46-15.77Zm7.31-15-7.89,12.84c-9.83-5.16-3.87-10.5-6-20.29C420.47,357.63,425.6,360.18,432.56,364.21Zm-20.91-14.86c-2.71,2.38-7,6-12.78,10.28l-14.22-19c5.93-4.34,10.37-8,13.11-10.38C402.52,336.24,408.25,342.27,411.65,349.35Zm-267,4.7c-8.57-4.74-16-9.48-22.06-13.69l7.85-10a195.82,195.82,0,0,0,20,13.34Zm-1,1.86-11.74,21a263.41,263.41,0,0,1-25.12-16.24l14.53-18.6A262.46,262.46,0,0,0,143.61,355.92Zm1.4.77a254.84,254.84,0,0,0,24.11,11.56l-9.25,22.44a262.87,262.87,0,0,1-26.61-13Zm25.59,12.17a240.17,240.17,0,0,0,25.1,8.69l-6.18,23.53a253.59,253.59,0,0,1-28.18-9.77Zm.81-2,4.44-10.76a202.29,202.29,0,0,0,23.41,7.9l-3,11.46A238,238,0,0,1,171.42,366.88Zm82.05-251.07c-.87,4.19.21,24.26,8.87,14.08.56,3.23.69,3.73,1.84,5.72l-29.85,10.2c3.12-3.12.2-20.15.39-22.81C247.3,159.34,247.92,124.75,253.48,115.82Zm-2.24-2c-1.3-7.12-.16-15.2,3.37-19.57C255.6,101.25,254.36,109.36,251.24,113.81ZM301.9,94.39l-26.5,10.16c1.6-6.51-1.55-11.44-1.61-18.06C292,79.11,293.41,74.56,301.9,94.39Zm-2.21-20.51c0-12,13.55,5.9,3.65,3.65C301.4,77.09,299.69,76.33,299.69,73.88Zm-17.31,334a225.12,225.12,0,0,1-28.84,2l.27-24.12A198.19,198.19,0,0,0,279.15,384Zm-1.12-24.12a212.29,212.29,0,0,0,26-5.44l6.17,23.21a237,237,0,0,1-28.93,6.06Zm-54.48-30.81c-2.74,0-6.07-2.51-6.55-5.38a9.79,9.79,0,0,0,6.58-5.07,10.32,10.32,0,0,0,6.58,4.58Q232.77,351.76,226.79,352.91Zm15.83-94.53a10,10,0,0,0,6.87,5.32c-1.1,6.67-12.27,7.55-13.17-.12A9.43,9.43,0,0,0,242.62,258.37Zm-6.35-11.52h0a9.72,9.72,0,0,0,7.18-5.45C249.44,254.89,237,254.16,236.27,246.86Zm6.57,27.36c5.26,13.58-.12,1.29.87,11.68,0-.14-7.15-2.13-7.51-5.94C240.92,278.89,240.24,276.93,242.83,274.22Zm5,18.52a7.57,7.57,0,0,1-2.83-4.32c2.2-.52,4.64-3,6.09-4.68a9.7,9.7,0,0,0,7,4.61C256.17,292.86,252.13,295.67,247.82,292.74Zm10.21,12,.26,0c-11.75,7.34-11.4,5.32-7-5.27A33.61,33.61,0,0,0,258,304.7Zm-14.66-13h0c8.33,15-4,1.54-6.13,7.43C238.3,296.18,241,296.63,243.37,291.74Zm-.43,17.69a9.31,9.31,0,0,0,.47-.89c14.81,10.4-5.2,13-6.52,5.23A9.36,9.36,0,0,0,242.94,309.43Zm8.37,8.28c1.09,1.81,4.83,4,6.94,4.23-1.21,7.58-12.23,7.47-13.21-.1A9.34,9.34,0,0,0,251.31,317.71Zm2.13,12.43a9.6,9.6,0,0,0,6.3-4.5,10.34,10.34,0,0,0,6.7,4.57c-1,7.83-12.33,7.25-13.24,0Zm5.72-10.82c-15.76,0-.12-9.32.58-10.53a10.19,10.19,0,0,0,6.07,4.48Q264.82,318.86,259.15,319.32Zm.57-17.12c-2.6,0-5.42-3.7-6.61-5.78a9.56,9.56,0,0,0,6.57-4.63,9.55,9.55,0,0,0,6.64,4.64A6.91,6.91,0,0,1,259.73,302.2Zm-.57-16.45q-4.67-.06-6.58-5.6a9.42,9.42,0,0,0,7.11-4.72,10.71,10.71,0,0,0,6.07,4.54Q264.85,285.06,259.15,285.74Zm-1.5-12.22c-3.23,7.37-10.21,2.89-12.72-1.79a9.93,9.93,0,0,0,6.38-5.07,9.77,9.77,0,0,0,6.83,5.16A6.65,6.65,0,0,1,257.66,273.53Zm-6.54-12.34q-5.54-.48-6.61-5.82a9.57,9.57,0,0,0,6.87-5.28C252.33,252,265.18,261.18,251.11,261.18ZM252,244.3q-6-.93-6.64-6.05c4.57-1.12,2.29-2.22,6.23-5.07C252.21,234.34,268.56,244.3,252,244.3Zm.1-16.94a12.12,12.12,0,0,1-7.58-5.77,9.36,9.36,0,0,0,6.89-5.51,9.82,9.82,0,0,0,6.39,4.93Q256.67,226.63,252.08,227.36Zm-3.46,2.4a9.27,9.27,0,0,0,1.13.24c-3.91,7.36-8.45,7.72-13.24,0a10.67,10.67,0,0,0,6.5-4.56A10.35,10.35,0,0,0,248.62,229.76Zm-7.1-8.11c-.92,6.93-12.3,8.2-13.24-.13a9.51,9.51,0,0,0,6.24-4.79,9.8,9.8,0,0,0,7,4.92Zm-6.71,11.76h0a9.33,9.33,0,0,0,6.73,5C241.27,240.79,226.24,247.77,234.81,233.4Zm-.37,16.71a9.51,9.51,0,0,0,6.31,5.13c-2.68,4.2-12.7,10-13.29-.36a9.35,9.35,0,0,0,7-4.77Zm.13,16.73h0a9.83,9.83,0,0,0,6.16,4.86c-1,7.49-12.08,7.61-13.21.17A9.39,9.39,0,0,0,234.58,266.84Zm-.31,16.21a9.48,9.48,0,0,0,7.28,5.53c-1.13,9-12.48,6.32-13.24,0A9.43,9.43,0,0,0,234.26,283.05Zm.66,18.13a9.62,9.62,0,0,0,6.66,4c-.72,8.51-12,7.53-13.22.59A11.87,11.87,0,0,0,234.92,301.18Zm-.4,14.18q1.52,4.49,7,6.42c-1.26,7.41-12.2,6.85-13.17-.2A9.62,9.62,0,0,0,234.52,315.36Zm.6,18.33h0c6.8,13.52-6.06,11.74-6.8,5A9.4,9.4,0,0,0,235.13,333.69Zm4.48,1.24-2.8-5.12a10,10,0,0,0,6.4-4.83,9.44,9.44,0,0,0,6.9,5.21A6.7,6.7,0,0,1,239.6,334.93Zm7.06,3.34a9.37,9.37,0,0,0,5-4.31,9.49,9.49,0,0,0,6.49,4.61c-1.05,9.54-10.31,5.17-13.24.16A9.32,9.32,0,0,0,246.67,338.27Zm12.25,5.28a12.14,12.14,0,0,0,1.11-1.82,9.36,9.36,0,0,0,6.69,5.27c-.87,7.64-12.41,7.64-13.26,0A9.34,9.34,0,0,0,258.92,343.55ZM263,355.1a10.44,10.44,0,0,0,5.29-4.41c7,12.94-6.38,10.42-7.09,4.81A9.29,9.29,0,0,0,263,355.1Zm-1.16-16.61a9.68,9.68,0,0,0,6.28-4.87,9.64,9.64,0,0,0,7,5.11C274,345.4,262.64,346.31,261.86,338.49Zm6-10.83a7.19,7.19,0,0,1-6.63-5.91,9.59,9.59,0,0,0,6.63-5.66,9.59,9.59,0,0,0,6.63,5.66A7.19,7.19,0,0,1,267.83,327.66Zm-4.65-18.74a9,9,0,0,1-2-4.18,9.32,9.32,0,0,0,6.84-4.93,9.86,9.86,0,0,0,6.42,5.22C272.7,309.68,267.8,313.44,263.18,308.92Zm4.65-15a6.68,6.68,0,0,1-6.6-5.71,9.52,9.52,0,0,0,6.33-5.06,10.51,10.51,0,0,0,6.85,5.16A6.68,6.68,0,0,1,267.83,293.89Zm-4.16-17.83a6.68,6.68,0,0,1-2.43-4.24,9.42,9.42,0,0,0,6.62-4.61,9.35,9.35,0,0,0,6.58,4.61C273.73,276.64,267.45,279.1,263.67,276.06Zm1.54-9.66c-3.21,4.64-11.26,2.51-12.08-2.78,2.39-.53,4.87-3.09,6.34-5a9.53,9.53,0,0,0,6.83,5.05A6.66,6.66,0,0,1,265.21,266.41Zm-5.48-13.81a6.91,6.91,0,0,1-6.6-5.71,9.37,9.37,0,0,0,6.94-4.6,9.67,9.67,0,0,0,6.32,4Q265.68,252,259.73,252.6Zm0-17.28a6.69,6.69,0,0,1-6.56-5.44,11.33,11.33,0,0,0,6.14-4.61,9.34,9.34,0,0,0,7,4.27A6.68,6.68,0,0,1,259.73,235.31Zm-6.26-21.16a11.49,11.49,0,0,1-.31-1.14,10.64,10.64,0,0,0,6.32-5,9.35,9.35,0,0,0,6.81,5.05C265.21,218.76,256.16,221.54,253.46,214.15Zm4-8.21c-2.81,8.76-10.51,3.2-13-1.12a10.19,10.19,0,0,0,6.53-4.58,12.07,12.07,0,0,0,6.67,4.6A6.63,6.63,0,0,1,257.46,205.95ZM248,212.7q.7.21,1.41.39c-.93,9-10,5.13-13.19.58a9.36,9.36,0,0,0,6.92-4.88A9.38,9.38,0,0,0,248,212.7Zm-6.47-7.84c-.48,7.73-12.14,8.34-13.26.51a10,10,0,0,0,6.71-4.8,9.65,9.65,0,0,0,6.54,4.29Zm-13,6.41a9.3,9.3,0,0,0,4.25,2.26c-1.21,7-12,7-13.15,0a10.16,10.16,0,0,0,6.5-5.78A9.38,9.38,0,0,0,228.57,211.28Zm-1.9,13.89h0a10.34,10.34,0,0,0,6.65,4.8c-1.31,6.44-11.67,7.19-13.09,0A9.67,9.67,0,0,0,226.67,225.17Zm-.2,16.66.06-.09c1.41,1.48,4.25,4.52,6.3,5-2.75,4-12.13,9.61-13.21-.37A9.72,9.72,0,0,0,226.47,241.82Zm-.83,16.6a9.53,9.53,0,0,0,7.17,5.32c-1.18,6.85-12.64,8-13.22-.69A9.4,9.4,0,0,0,225.65,258.43Zm.4,17.12h0a12.56,12.56,0,0,0,6.19,4.47c-2.84,4.56-12.35,10.13-13.3.14A9.43,9.43,0,0,0,226,275.55Zm.4,16.11c8.56,19-.47-6.23-.32,11.55C226,286,216.37,313.53,226.45,291.65Zm-.27,16.25,6,5.67c-1.05,7.53-11.83,7.61-13.17.27A9.67,9.67,0,0,0,226.18,307.9Zm.46,17.06c14.59,12.84-5.55,11.15-6.44,5.6A9.49,9.49,0,0,0,226.64,325ZM222,337.54c8,4.76-8.66,13.12-10.22,1.71.25,1.81,7.38-7.1,6.61-5.57A9.63,9.63,0,0,0,222,337.54Zm10.1,16.33a9.52,9.52,0,0,0,2.81-3.12c8.34,15.11-6.38,9-6.68,4.7A9.35,9.35,0,0,0,232.14,353.87Zm7.13-2.21a6.78,6.78,0,0,1-2.76-4.64,10.36,10.36,0,0,0,6.73-4.94,9.36,9.36,0,0,0,6.52,4.91C249.22,351.76,243.11,354.41,239.27,351.67Zm5,3.84a9.35,9.35,0,0,0,7.36-5.36C258.82,365.11,244.14,359.24,244.25,355.5Zm9.6,28.12.14-12.75a200.46,200.46,0,0,0,23.15-1.69l1.73,12.72A196.06,196.06,0,0,1,253.85,383.62Zm17.29-33.45a6.66,6.66,0,0,1-1.25-3.12,9.35,9.35,0,0,0,6.62-4.44,9.35,9.35,0,0,0,6.62,4.44C282.48,352.31,274.57,354.84,271.14,350.17ZM283,344.3a6.65,6.65,0,0,1-5-5.57c1.7-.26,3.89-1.79,5.3-2.73l1.06,8.49A6.63,6.63,0,0,1,283,344.3Zm-1.09-10.84c-4,5.45-10.21,1.7-12-3.36,2.06-.46,4.75-3.21,6.19-4.68C277.68,328.9,285.09,329.1,281.87,333.46Zm-.86-6.31a6.82,6.82,0,0,1-3.14-5.27,9.34,9.34,0,0,0,3.43-1.22l.89,7.07A6.63,6.63,0,0,1,281,327.15Zm-4.5-7.83c-9.81,0-5.84-8-.33-11C277.3,310.52,287.74,319.32,276.51,319.32Zm3.3-10.47a7.28,7.28,0,0,1-1.88-3.71,8.56,8.56,0,0,0,1.38-.31l.51,4Zm-3.3-6.26c-12.11,0-3.67-13.83.73-14.28C278.44,291.6,281,302.59,276.51,302.59Zm.4-16.92a6.7,6.7,0,0,1-7.52-5.6,9.58,9.58,0,0,0,6.3-4.16l1.23,9.76Zm-7.51-22a9.31,9.31,0,0,0,4.5-2.1l1,7.58A6.69,6.69,0,0,1,269.4,263.71Zm3.77-5.22c-3.57,4.78-11.44,2.29-12-3.35a9.44,9.44,0,0,0,6.59-4.5C268.16,251.33,275.57,255.28,273.16,258.49Zm-.52-6.55c-3.6-2.08-4.09-4.87-.77-6.44l.81,6.46Zm-4.81-8.17c-15.07,0-1-8.84,0-10.53C269.43,236,275.49,243.76,267.83,243.76Zm1.5-14.46.5-.12.34,2.74A6.64,6.64,0,0,1,269.33,229.31Zm-1.25-2.48a6.72,6.72,0,0,1-7.52-5.66c2.52-.89,6.4-2.79,7.59-5.3C268.77,217.82,270.9,226.42,268.09,226.83Zm-.61-16.27c-.62.08-6.21-5.37-6.26-5.82a9.5,9.5,0,0,0,5.15-3.17l1.13,9Zm-1.65-14.81c-6.87,14-8.6-1.24-14.78-1.44-.67,0-1.5,1.32-1.43,1.32-.54,0-2.57,6.58-6.34,6.66-6.84.14-4.66-8-8.35-8-3.45,0-.87,10.2-6.8,8.41-4.59-1.38-6.36-7.08-9-7.82,13.26-12.15,21.22-39.47,38.48-43-18.29,16.17,4.39,24.84,19.73,24.29ZM230.77,146c-11.5-.77-4-12.06-5-15.45C224.82,127.6,243.47,146.84,230.77,146Zm38.71,28.63c-16.39-.52-22.26-11.88-9.28-22.8l.07.07c14.22-14.73-8.46-35.36,2.74-45.86,6.88,12.55,12.92,4.46,21.18,21.06C291.85,142.5,289.6,175.25,269.48,174.62Zm-5.46-73q-.91-4.55,3.64-6.88c3.66,2.39,6.63,11.16,8.77,15.54C267.41,111.62,264.34,111.17,264,101.61Zm22.19,26.46c-2.29-7.25-6.28-14.41-9.61-21.12l26.31-10.09C313.48,123.51,306.58,121.1,286.21,128.07ZM275.38,94.84l-2.17,5.54c-8.1-14.94-13.89,3-13,12-1.48-.21-4-.08-5,1.17.18-3.36-1.43-25.87,1.52-29C264.78,76.13,274.35,83.1,275.38,94.84ZM256.1,115.09a1.8,1.8,0,0,1,1.92-1h0c.8,0,1.6,0,2.39-.09.12,1.21,4.37,18.66-2.49,16.89C253.22,129.67,254.27,118.39,256.1,115.09Zm-5.88-20.8-.86,28.89C245.62,118.59,238.86,122,238,127c-3.92-9.13-7.2-21.24-6.71-31C232.44,73.07,254.5,69.78,250.22,94.29Zm-16.54,25.17c.07.31.16.65.25,1l-1.43.55c-2.14-5.62-2.91-13.22-1.58-17.17C232,110.61,233.12,117.07,233.67,119.46ZM231,121.58,233,132c-7.22-7.93-13.18.93-10,9.09C210.58,128.46,198,91,225,91.26Zm-15.26,5.85L211.5,129l-1.82-14.38C211.58,118.8,214.07,123.13,215.73,127.43Zm-8.07-15.92,3.55,28q-7.22-.41-10,6.12C196.85,136.47,180.25,100.76,207.66,111.5Zm-2.08,30.91c11-5.71,5.39,7.15,6.77,9.19C213.27,152.94,193.15,148.88,205.59,142.42Zm8.65,10.25c7-8.63-8.86-15.95,2.37-22.72,2.3,7.17,5,15.05,13.13,17.43l-15.5,5.29ZM216.72,197a8.87,8.87,0,0,1-1.31,3.23C215.47,198.42,215.23,198.17,216.72,197Zm-1.43,7a9.4,9.4,0,0,0,3.15-3.57c-3.12-16,17.06,28.59-.72,10.75C214.44,207.81,215,213.26,215.29,203.92Zm.67,9.73c.22,0,.44.07.67.09a6.76,6.76,0,0,1-1.76,3.3c0-1.2.07-2.4.12-3.6A9.87,9.87,0,0,0,216,213.65Zm1.72,4.16c.17-.24.33-.48.48-.73a9.7,9.7,0,0,0,6.87,4.58C220,227,208.5,230.68,217.69,217.81Zm-2.37,11.75a9.39,9.39,0,0,0,1.32.37,7.63,7.63,0,0,1-2.3,3.85q.08-2.27.14-4.55Zm1.49,5.53a9.32,9.32,0,0,0,1.62-2.27C226.39,248.59,210.12,242.06,216.82,235.1ZM215.58,246c2.52.8-.25,4.47-1.79,5.5q.1-3.09.19-6.17A9.15,9.15,0,0,0,215.58,246Zm2.68,4.48a10.31,10.31,0,0,0,5.81,4.25c-.53,4.82-6.67,7.45-10.53,4.68C213.82,252.71,214.48,257.26,218.26,250.45Zm-1.63,12.82h.1c-.65,1.53-2,4.4-3.48,5.21q.1-3.07.19-6.08A12.61,12.61,0,0,0,216.63,263.27Zm-2.23,7.62a9.17,9.17,0,0,0,3.77-3.59,10.08,10.08,0,0,0,6.4,4.51C222.92,283.48,207.48,274.5,214.4,270.89Zm-.06,8.57c2.73,1.15.31,4.47-1.62,5.73.07-2.14.21-4.33.21-6.48A9.3,9.3,0,0,0,214.35,279.46Zm0,7.87a12.93,12.93,0,0,0,3-3.35,9.35,9.35,0,0,0,7.2,4.9C218.13,295,208.41,291.33,214.31,287.33Zm2.34,9.66a6.78,6.78,0,0,1-4.46,5.13q.11-3.43.22-6.88A10.67,10.67,0,0,0,216.66,297Zm-3.81,7.72a11.36,11.36,0,0,0,5.4-4.35,9.51,9.51,0,0,0,5.81,5.16C222.45,317.38,208.33,306.1,212.84,304.71Zm-.76,7.56a9.24,9.24,0,0,0,3.65,1.54,7.24,7.24,0,0,1-4.08,5.53q.11-3.61.22-7.21Zm3,8.08a9.4,9.4,0,0,0,2.42-3.08,9.41,9.41,0,0,0,7.15,4.67C224.06,330.52,206,327.93,215.06,320.35Zm-.18,9.94a9.37,9.37,0,0,0,1.78.44q-.79,4.06-5.53,5.36c.08-2.58.17-5.26.25-8A9.35,9.35,0,0,0,214.87,330.29Zm1.74,17.23q-2,5.22-6,5.22c.09-2.78.18-5.76.28-8.91A11.13,11.13,0,0,0,216.61,347.52Zm1.79,2.83c12.4,25.11-.86-10.79,2.23,10.48C219.15,350.59,209.63,367.47,218.41,350.35ZM251,370.9h.84l-.14,12.72a198.45,198.45,0,0,1-26.23-1.93l1.7-12.22A197.46,197.46,0,0,0,251,370.9Zm.67,14.85-.27,24.13a225.34,225.34,0,0,1-29.57-2.07l3.34-24A200.58,200.58,0,0,0,251.69,385.75Zm-32,21.76a237.91,237.91,0,0,1-28.65-6L197.26,378a219,219,0,0,0,25.82,5.52ZM189,403.13l-3.87,14.73a280.67,280.67,0,0,1-30.41-10.47l5.82-14.12A255.74,255.74,0,0,0,189,403.13Zm1.54.43a240,240,0,0,0,28.9,6.06l-2.11,15.18a263.67,263.67,0,0,1-30.65-6.52Zm31,6.35A227.48,227.48,0,0,0,251.39,412l-.17,15.48a238.6,238.6,0,0,1-31.79-2.38Zm32,2.09A227.24,227.24,0,0,0,282.68,410l2.09,15.39a240.24,240.24,0,0,1-31.41,2.16Zm31.26-2.34a239.14,239.14,0,0,0,29.2-6.12l4,15.05a258.36,258.36,0,0,1-31.11,6.45ZM316,403a254.5,254.5,0,0,0,27.63-9.62l6.12,14.43A268.49,268.49,0,0,1,320.05,418Zm-.55-2.06-6.17-23.21a230.07,230.07,0,0,0,24.16-8.38l9.36,22.08A252.35,252.35,0,0,1,315.5,400.91Zm-6.72-25.28-3.25-12.23a216.63,216.63,0,0,0,22.28-7.5l4.85,11.44A227.9,227.9,0,0,1,308.77,375.63Zm26.68-7.14a241.9,241.9,0,0,0,24.12-11.77l11.61,20.88a261.1,261.1,0,0,1-26.38,13Zm19-25.34a216.64,216.64,0,0,0,19.88-12.66l7.28,9.72a245,245,0,0,1-21.24,13.6Zm7,12.52a247,247,0,0,0,21.48-13.76l14.23,19a261.42,261.42,0,0,1-24.1,15.65ZM388,319.61c4.52,2.93,5.37,5,8.42,9-2.7,2.35-7.12,6-13.08,10.36l-7.28-9.72C382,324.92,386,321.45,388,319.61Zm-36.14,25,.72-.4,5.93,10.67a239.79,239.79,0,0,1-23.92,11.67l-4.84-11.42A219.36,219.36,0,0,0,351.89,344.58Zm-63.13,22.73c5.08-1,10-2.1,14.7-3.35l3.26,12.25A210.17,210.17,0,0,1,281,381.6l-1.73-12.71Q284,368.2,288.76,367.32Zm-3.84-17,.07-.14,1.37,10.94c-3.56,1-8-1.92-8.46-5.61A9.77,9.77,0,0,0,284.92,350.27Zm96.7-155.07c0,60.74-42.13,111.8-98.7,125.54q-5-39.7-10-79.4c-1.61-12.87-7.48-31-5.45-43.48,4.43-27.1,28.3-37.53,19.16-68.27L308,122.28c-.09,6.3-7.4,42.47,8.69,41.32,18.3-1.3,11.56-55.72,8.87-64.78C360.84,89.25,381.63,169.85,381.63,195.2Zm-47-103.25c-1.26-6.41.82-10.88,6.88-12.84C343,86.07,341.12,90.91,334.67,91.95ZM356,84.77l-6.56,2.29c-1.49-7.13.8-11.82,7.78-13.27Zm15.5-6.38-7.45,3.07c-1.31-7.25,1.51-11.4,8.8-12.17Zm28.14-32.64c21.83,0,21.83,34.36,0,34.36C378.08,80.11,377.17,45.75,399.65,45.75ZM327.43,82.09c16.64-8.56,35.31-14.5,53.45-19a18.58,18.58,0,0,0,1.19,6.47L374,72.64l.84-5.74c-8.19,1.42-13.23,6.54-16.49,11.5l.79-7.1c-8.24,2.29-12.08,7.29-16.45,12.41l.79-7.41c-6.74,6.26-11.6,11.61-21,14.11C318.84,85.37,321.7,85,327.43,82.09Zm-55-36.5c-2.71-8.16,23.75,8.61,26.12,10.77,9.47,8.69,17,21.45,21.86,33.23,4.17,10.19,16.78,67.7-3.81,72.42-7.28,1.55-3.53-15.49-3-18.28,13.23,3.51,7.94-11.64,1.38-7.26a87.65,87.65,0,0,0,1.47-14.64c11.89,9.41,9.07-18.8-.67-7.59a145.55,145.55,0,0,0-4-16.11c14,10.4,4.36-23.31-1.83-6a54.33,54.33,0,0,0-7.11-13c12.15-11-4.26-10.43-4.74-5.78a89.55,89.55,0,0,0-12.5-11.25c23,7-16.78-21.67-2.75-2C275.5,55,276.14,56.7,272.42,45.59Zm38.85,48.32c0-3.78,7.3-5.7,7.3,0S311.27,97.69,311.27,93.91Zm3.06,46.89c0-10.51,7.83,0,7.3,0C321.59,140.8,314.33,148.92,314.33,140.8ZM284.45,59.51c-4.53-5,6.34-9.35,6.34-2.45Q288.47,62.79,284.45,59.51Zm-32,6.5c13.3,0,30.33.11,39.62,11.36L273.19,85c-7.2-14.28-20.17-.58-21.35,8.63,1.72-9.69-1.34-20.56-12.42-19.07-17.26,2.32-8.15,19.26-10.48,28.33l-2.68-13.64c-12.33.42-25,7-19.11,19.91-9.53-2.23-18.45,8.66-27.15,13.52-13.68,7.64-30.14,12.19-44.71,18.08A129.35,129.35,0,0,1,252.43,66ZM9.9,206.34c17.79-24,47.21-32.22,73.72-42.94l104.22-42.15c-.79,4.39,2.05,10.22,6.32,14.45L9.89,206.35Zm80.91-12c-27.73,9.18-49.94,19.17-79.57,14.38l115-44.07c15.09-5.79,46.73-25.58,63-24.15,11.19,1,7.43,11.49,19.1,14.23C169.16,168,130,181.31,90.81,194.31Zm32.44.89c0-18.6,60-30.29,77.06-36.08,3.22,14.17,11.77,28.26,13.52,40.5,1.7,11.83-.83,26-1.2,38q-1.26,39.81-2.51,79.63A129.4,129.4,0,0,1,123.24,195.2Zm86.92,171.44c4.79,1,9.76,1.87,14.9,2.55l-1.7,12.19a216.87,216.87,0,0,1-25.57-5.47l3-11.49Q205.46,365.64,210.17,366.64Zm-35.79-11.13-4.44,10.76a252.71,252.71,0,0,1-23.88-11.45l5.81-10.37A202,202,0,0,0,174.38,355.51Zm-56.51-35.83a142.23,142.23,0,0,0,11.31,9.67l-7.9,10.11c-7.09-5-12.19-9.11-15-11.49C110.73,324.51,115.39,321.32,117.87,319.67Zm-21.8,23.16c10.63-17.27,7.3-13.37,23.9-1.7L105.46,359.7C97.13,353.52,90.32,352.16,96.06,342.83ZM55,396.73c8-7,15.32-11.41,24.77-16.65l12.84,20.69a188.78,188.78,0,0,0-22,15.44Zm26.18-17.42,6.6-3.63c2.21,7.43,5.11,15.84,9.49,22.34-.94.54-2,1.18-3.28,1.92Zm8.9-19a23.5,23.5,0,0,1,1.4-9c2.79,2.42,7.06,5.95,12.66,10.11l-8.34,10.67C92.67,369.7,90.18,366.88,90.09,360.32Zm-4.73-3.45c-.24,12,5.88,15.05-5,21.08l-8-12.88C79.19,361.28,83.29,358.92,85.36,356.87ZM51,377.89a213,213,0,0,1,19.9-12l8,12.88C69.46,384,62.08,388.49,54,395.48l-9.84-12.24C46.65,381.18,49,379.35,51,377.89ZM19,406.23c6.06-5.87,15.68-15,24-22l9.86,12.26C42.76,405.3,32.23,404.11,19,406.23Zm35.3-4.15c-1.4,0-3.2.07-5.55.26,1.46-1.33,3.22-2.9,5.1-4.55l3.6,4.48A20.68,20.68,0,0,0,54.25,402.08Zm5,14.29c1.25-3.26,2.4-6.27,2.49-8.73l7.7,9.59c-5.47,4.45-10.71,9-14.07,11.92A67.26,67.26,0,0,1,59.23,416.36Zm-3,34.8c-3.61-19.63-.52-20.75,14.19-32.69l7.46,9.28A245.3,245.3,0,0,0,56.23,451.16ZM80.1,425.71l-1,1-7.39-9.2a187.33,187.33,0,0,1,21.79-15.33l6.17,9.93A96,96,0,0,0,80.1,425.71Zm21-14.38-6.22-10c6.49-3.89,5.6.61,12.59,7.12C105.73,409.11,103.56,410.06,101.06,411.33Zm8.39-27.82c-4.55-3.07-7.86-7.38-12.34-10.52l8.33-10.66a265.5,265.5,0,0,0,25.39,16.42l-7.5,13.4C114.48,387.12,109.53,383.57,109.45,383.51Zm15.27,9.42,7.5-13.4a265,265,0,0,0,26.84,13.12l-5.82,14.12A273.31,273.31,0,0,1,124.72,392.94Zm229.13,13.14-2.08.89-6.12-14.43a263.34,263.34,0,0,0,26.58-13.06l7.58,13.63A255.1,255.1,0,0,1,353.85,406.08ZM381.65,392l-7.56-13.61a263.47,263.47,0,0,0,24.34-15.81L407,374.1C398.56,380.31,390.77,386.66,381.65,392ZM406,401.42q1.25-3.38,3.85-.29l-7.47,12.16c-2.56-1.5-4.81-2.8-6.61-3.83C399.6,408.78,404,403.87,406,401.42Zm-2.24,12.68,7.47-12.16a170.23,170.23,0,0,1,21.3,15.66l-7.71,9.72C418.11,422.55,410.9,418.3,403.79,414.1Zm22.37,14.16,7.65-9.64c12.65,10.33,16.84,11.54,14.15,27.92A231.34,231.34,0,0,0,426.17,428.26Zm18.9-23.2c-4.17,5.42,4.49,17.75,4.46,24.46-3.24-2.7-9-7.49-14.72-12.16l15.61-19.69,5.91,5C448.11,402.34,446.13,403.67,445.07,405.06Zm26.24-1q-12.5,2.15-19.9-7.67l10.06-12.69a196.34,196.34,0,0,1,23.72,22.55C481.33,405.59,476.35,404.77,471.31,404.08Z"/></g></svg>