<svg xmlns="http://www.w3.org/2000/svg" viewBox="0 0 500 500"><defs><style>.cls-1{fill:#fff;}.cls-2{fill:#898a8c;}</style></defs><title>house-cameron-hbs_COLOR</title><g id="n2"><circle class="cls-1" cx="250" cy="249" r="244.5"/></g><g id="n1"><circle class="cls-2" cx="125.81" cy="428.52" r="11.64"/><circle class="cls-2" cx="180.14" cy="455.69" r="11.64"/><circle class="cls-2" cx="234.48" cy="467.33" r="11.64"/></g><g id="Base"><polygon points="250 98.64 278.96 180.08 357.03 142.97 319.92 221.04 401.36 250 319.92 278.96 357.03 357.03 278.96 319.92 250 401.36 221.04 319.92 142.97 357.03 180.08 278.96 98.64 250 180.08 221.04 142.97 142.97 221.04 180.08 250 98.64"/><path d="M288,432.4a187.07,187.07,0,0,1-38,3.88c-102.88,0-186.29-83.4-186.29-186.29S147.12,63.71,250,63.71,436.29,147.12,436.29,250a186.21,186.21,0,0,1-96.1,163h92A243.55,243.55,0,0,0,494.5,250C494.5,115,385,5.5,250,5.5S5.5,115,5.5,250,115,494.5,250,494.5c104.79,0,142.81-23.49,186-62.1Zm-162.15,7.76a11.64,11.64,0,1,1,11.64-11.64A11.64,11.64,0,0,1,125.81,440.17Zm54.33,27.17a11.64,11.64,0,1,1,11.64-11.64A11.64,11.64,0,0,1,180.14,467.33ZM234.48,479a11.64,11.64,0,1,1,11.64-11.64A11.64,11.64,0,0,1,234.48,479Z"/></g></svg>