<svg xmlns="http://www.w3.org/2000/svg" viewBox="0 0 500 500"><title>infantry</title><g id="Icons"><path d="M467.12,278.38l-120-120a37.31,37.31,0,0,0-5-11.63c-5.18-7.81-13.65-14.66-13.48-24,.17-9.84,9.75-16.51,18.26-21.45,16.38-9.51,32.77-19,49.76-27.42,4.85-2.39,9.87-4.79,13.52-8.78s5.6-10.06,3.23-14.92c-2.91-6-11.09-7.58-17.37-5.46S384.78,51.64,379.76,56a142.84,142.84,0,0,1-23.29,16.39c-7.92,4.46-17.38,8.23-25.88,5-4.5-1.69-8.09-5.13-12.19-7.67a33.92,33.92,0,0,0-30.93-2.19c-5.61-8.39-11.44-18.8-7.25-28,2.34-5.14,7.6-9,8.24-14.62.56-5-2.9-9.67-7.25-12.11s-9.44-3.1-14.39-3.71C258.57,8.09,255,5.91,240,4.5c-14.75,1.41-18.47,3.83-24.73,9.55S205.37,29.32,209,37c1.92,4,5.57,7,7.06,11.22,2.29,6.4-1.26,13.66-6.46,18s-11.81,6.64-18,9.41c-16,7.14-31.65,21.36-30.2,38.8.77,9.22,6.23,17.36,8.36,26.36,0,.19.06.38.1.58l-137,137L176.12,421.62c0,.15-.09.29-.11.44-1,5.75.56,11.61,2.14,17.23l16.56.92L250,495.5,300.48,445c8.74-.31,18-2.75,19.79-10.79a11.18,11.18,0,0,0-1.22-7.77ZM305.94,411.54c4.73-13.5,1-28.88,2.41-43.36,1.1-11.22,5.38-21.87,7.6-32.92s2.05-23.47-4.77-32.45c-2.3-3-5.28-5.55-7.11-8.87s-2.15-8,.66-10.54c4-3.62,10.88-.65,15.42-3.53,6.32-4,2.52-14.43,6.48-20.77,2.67-4.27,8.83-6.68,8.93-11.71.07-3.38-2.76-6-4.81-8.67-9.46-12.45-4.67-33.67-17.68-42.34-3.4-2.27-7.61-3.24-10.73-5.88s-4.47-8.21-1.11-10.54a9.18,9.18,0,0,1,4.42-1.21l30.78-3L439.1,278.38Zm-136.19-242a88.67,88.67,0,0,0-.31,10.91c.59,13.25,9.23,28.45,22.47,27.74a17,17,0,0,1,4.47-.05c4.83,1,6,7.6,4.58,12.32s-4.42,9.2-4,14.12c.43,5.81,5.38,10.28,7,15.86,1.09,3.67.71,7.59.31,11.4-2.1,20.08-4.26,40.45-11.62,59.26-4.43,11.32-10.7,22-13.66,33.75s-1.93,25.59,6.63,34.22c3.29,3.31,7.56,5.75,10,9.75s1.63,10.24-2.66,11.61l-132-132Zm54.48,272.18a3.69,3.69,0,0,0,2.36-1,5.37,5.37,0,0,0,1.11-3,166.06,166.06,0,0,0,1-36.46c-.6-7.35-1.69-14.75-.65-22,1.51-10.63,7.37-20.05,11.61-29.92a103.13,103.13,0,0,0,8.22-45.66c-.52-10.55-2-23,6-29.87l2.39,32.14c1,13.43,2,26.95,5.36,40,4,15.54,11.27,30.32,12.93,46.27,1.64,15.74-2.3,31.63-.92,47.39a6.06,6.06,0,0,0,1,3.23L250,467.48Z"/></g></svg>