<svg xmlns="http://www.w3.org/2000/svg" viewBox="0 0 500 500"><defs><style>.cls-1{fill:#fff;}</style></defs><title>infantry-alt_COLOR</title><g id="n1"><path class="cls-1" d="M277,225c1.64,0,12.53-.16,13.68,2.69a15.48,15.48,0,0,1-8.13,5.66C277.81,232.11,274.46,232.7,277,225Z"/><path class="cls-1" d="M294.31,208.54c14.2-15.88-11.48,1.88,5-12.27,2.39-2,4.67.31,6.08-.5,8.35-4.83,24.2-7.21,34.24-12.34C342,192.89,300.49,208.79,294.31,208.54Z"/><path class="cls-1" d="M361.84,227.59a16,16,0,0,1-1.08-5.42c.18-6.13,6.66-11.72,5.85-18.19-1.07-8.57-9.39-14.26-11.81-22.95a17.67,17.67,0,0,1-.53-5.83l30,30Z"/><path class="cls-1" d="M312.82,143.94c-14.24,1.87-27.27,18.3-35.62-1.6-4.94-11.77,3.94-30.82,0-44L322.5,143.5A62.38,62.38,0,0,0,312.82,143.94Z"/><path class="cls-1" d="M266.1,87.24c-12.41-3.49-30.75,4.8-38.42,12.31-11.18,11-5.79,19.89-3.18,32,2.53,11.77,7.95,14.25-4.35,17.89-5.59,1.66-15.13.93-17.9-5.32-3.16-7.15,6.48-10.49,7.08-17.2.42-4.69-.71-9.11-2.15-13.48l43-42.15Z"/><path class="cls-1" d="M231.35,133.48c.43-4.3,8.4-9.42,9.59-2.74C242.37,138.72,230.43,142.74,231.35,133.48Z"/><path class="cls-1" d="M232.79,191.54c5.92-3.68,6-7.68,15.35-3.27-3,1.54-5.84,4.87-8.94,6.1Q234.24,196,232.79,191.54Z"/><path class="cls-1" d="M195.82,153.94c-3.85,7.85-22.33.68-19.82-7,3-9.26,17.11-1.74,21,3.37A2.82,2.82,0,0,0,195.82,153.94Z"/><path class="cls-1" d="M140.52,178.89c2.93,3.64,7.63,7,10,10.74,4.57,7.23,5.89,15,8.81,22.78,5.88,15.71,12.94,34.6,32.17,36-.9,7.38-3.09,10.52.37,17.36,1,1.88,10-.3,10,4.54,0,2.11-6.16,5.67-9.92,9.06l-76.2-76.2Z"/><path class="cls-1" d="M250.86,338.31l-15.7-15.7c8.42-4.89,16.18-.14,23,8.44Z"/></g><g id="Base"><path d="M344.65,429.38c-4.87-15.17-6.29-31.36-10.55-46.91C331.23,372,325.85,362,321,352.28c-6.88-13.65-5.17-17.46-6.42-31.85a42.33,42.33,0,0,0-3.79-14.4q-2.06-5.89,4.36-8.21c.41-1.65,1-5.81,1.65-10.08l17.84-17.8c5.73-1,11.76-1.73,16-4,10.71-5.62,13.74-8.86,15.56-20.64a17,17,0,0,0-.41-6.49l33.75-33.67-44.39-44.28a15.44,15.44,0,0,0-3.2-6.9c-2.53-3.21-6.45-5.56-11-7.22L250.21,56.21,203.57,102c-1.81-7.9-1.48-17.27-4-24.7-4.5-13.05-3.63-7.81-12.62-14.67q-4.81.05-9.61-.18A94.83,94.83,0,0,0,174,42.3c-2.08-4.46-10.08-17.68-17-17.13,1.18-11.75-10.68-33.68-17.82-14.75-11-4.07-15,3.92-15,11.37,0,5.21.94,15,1.29,19.67a103.14,103.14,0,0,0,2.43,15.42c3.07,13.59,6.14,28,10,41.38,4,14,13.09,27.13,10.91,42.16-1.17,8.1-8.21,17-10.46,25.55l-37.88,37.16,92.06,92.06c-2.9,7.81-12.48,17.77-15.61,24.76-8.18,18.22-7.89,38.91-8.48,59-.57,19.61,1.7,37.14-13.77,50.67-5.07,4.44-31.6,20.35-27.59,27.8,3.8,7.06,40-.52,47.68-1.54,28.26-3.79,20.18-11.76,21.11-35.43.71-18,14.22-21,20.82-36.35C222.77,369.95,218,343,227.31,330l23.54,23.54,13.42-13.39c8.37,14.12,14.79,31.92,18.52,38.9,4.46,8.36,6.57,20.32,11.48,28.69,8.15,13.87,16.92,18.25,20.86,35.55,4.31,18.9,2,33.45,19.4,47.12,8.63,6.77,42.15,13.56,35.78-7.94C364.36,462.3,350.86,448.73,344.65,429.38ZM277,225c1.64,0,12.53-.16,13.68,2.69a15.48,15.48,0,0,1-8.13,5.66C277.81,232.11,274.46,232.7,277,225Zm17.3-16.51c14.2-15.88-11.48,1.88,5-12.27,2.39-2,4.67.31,6.08-.5,8.35-4.83,24.2-7.21,34.24-12.34C342,192.89,300.49,208.79,294.31,208.54Zm67.53,19.06a16,16,0,0,1-1.08-5.42c.18-6.13,6.66-11.72,5.85-18.19-1.07-8.57-9.39-14.26-11.81-22.95a17.67,17.67,0,0,1-.53-5.83l30,30Zm-49-83.65c-14.24,1.87-27.27,18.3-35.62-1.6-4.94-11.77,3.94-30.82,0-44L322.5,143.5A62.38,62.38,0,0,0,312.82,143.94ZM266.1,87.24c-12.41-3.49-30.75,4.8-38.42,12.31-11.18,11-5.79,19.89-3.18,32,2.53,11.77,7.95,14.25-4.35,17.89-5.59,1.66-15.13.93-17.9-5.32-3.16-7.15,6.48-10.49,7.08-17.2.42-4.69-.71-9.11-2.15-13.48l43-42.15Zm-34.75,46.24c.43-4.3,8.4-9.42,9.59-2.74C242.37,138.72,230.43,142.74,231.35,133.48Zm1.44,58.05c5.92-3.68,6-7.68,15.35-3.27-3,1.54-5.84,4.87-8.94,6.1Q234.24,196,232.79,191.54Zm-37-37.6c-3.85,7.85-22.33.68-19.82-7,3-9.26,17.11-1.74,21,3.37A2.82,2.82,0,0,0,195.82,153.94Zm-55.3,25c2.93,3.64,7.63,7,10,10.74,4.57,7.23,5.89,15,8.81,22.78,5.88,15.71,12.94,34.6,32.17,36-.9,7.38-3.09,10.52.37,17.36,1,1.88,10-.3,10,4.54,0,2.11-6.16,5.67-9.92,9.06l-76.2-76.2ZM250.86,338.31l-15.7-15.7c8.42-4.89,16.18-.14,23,8.44Z"/></g></svg>