<svg xmlns="http://www.w3.org/2000/svg" viewBox="0 0 500 500"><title>jihad</title><g id="Icons"><rect x="188.13" y="264.11" width="123.74" height="34.65" rx="5" ry="5"/><path d="M292.07,427.44c-18-47.48-22.27-113.84-22.27-113.84H231.44S227.18,380,209.17,427.44c-27.22,71.77-42.07,71.77-42.07,71.77h167S319.29,499.21,292.07,427.44Z"/><path d="M423.23,142.85c-7.42-12.37-9.9-17.32-17.32-14.85s-9.9,14.85-14.85,4.95,7.42-2.47,0-19.8-34.65-29.7-49.49-34.65-17.32,9.9-24.75,4.95,0-19.8-12.37-27.22c-12-7.2-40.21-14.37-53.21-14.81v0l-.62,0-.62,0v0c-13,.44-41.21,7.61-53.21,14.81-12.37,7.42-4.95,22.27-12.37,27.22s-9.9-9.9-24.75-4.95-42.07,17.32-49.49,34.65,4.95,9.9,0,19.8-7.42-2.47-14.85-4.95-9.9,2.47-17.32,14.85-9.9,27.22-7.42,42.07S83,214.62,95.33,219.57s24.75,0,24.75,0S130,227,147.3,227a62.84,62.84,0,0,0,29.7-7.42,21.32,21.32,0,0,0,19.8,12.37c14.85,0,22.27-7.42,22.27-7.42l12.37,24.75H269.8l12.37-24.75s7.42,7.42,22.27,7.42a21.32,21.32,0,0,0,19.8-12.37,62.84,62.84,0,0,0,29.7,7.42c17.32,0,27.22-7.42,27.22-7.42s12.37,4.95,24.75,0,22.27-19.8,24.75-34.65S430.66,155.22,423.23,142.85Z"/><path d="M250,1.79c-135.09,0-245,109.91-245,245,0,106,67.64,196.44,162,230.52a36.77,36.77,0,0,1,5-24.53C89,421.23,29.75,340.8,29.75,246.79c0-121.45,98.8-220.25,220.25-220.25s220.25,98.81,220.25,220.25c0,93.46-58.52,173.51-140.84,205.44a32.93,32.93,0,0,1,6.33,19.15,31.89,31.89,0,0,1-.45,5.09C428.46,441.75,495,351.9,495,246.79,495,111.69,385.09,1.79,250,1.79Z"/></g></svg>