<svg xmlns="http://www.w3.org/2000/svg" viewBox="0 0 500 500"><title>kurita</title><g id="Icons"><path d="M250,496A246,246,0,0,1,76.05,76.05a246,246,0,1,1,347.9,347.9A244.39,244.39,0,0,1,250,496Zm0-473.63C124.48,22.37,22.37,124.48,22.37,250S124.48,477.63,250,477.63,477.63,375.52,477.63,250,375.52,22.37,250,22.37Z"/><path d="M443.32,248.07c-1.64-29.22-11.45-57.26-25.64-82.55-7-12.55-14.6-24.56-23.8-35.58-6.1-7.3-24.22-16.47-8.88-22.51-10.38,4.09-27.82-14.31-16.06-14.94C356.71,94.56,339,90.67,352.4,77c-5.26,5.33-42.18,6.52-26.84-12.62,1.1-1.37-26.36,8-28.74,7.08-8.62-3.23-3.79-16.75,3.32-16.75-12.25-1.79-29.87,19-34.68,17.4-7.59-2.49-3.5-23.16,1.94-24.84C254.29,50,246.5,73,240.36,73.57c-13.11,1.23-7.66-25.95-3.95-28.86C230.53,48,207.35,86.31,208,86.33c-8-.35-.39-37.22,0-37.54-23,12.14-13,25.4-22.35,42.32-6.3,11.42,5.43,6.2-4.45,8.3-4.46.95-15.85-11-15.95-11.94-.34,3.9,6.81,37.13,8.81,34.62-1.73,2.18-15.83-6.71-15.27-3.06,1.37,9,10.57,11.58,12.17,18.29.65,2.72-9.9,2-10.11,8.13-.3,8.6,7.61,13.48,5.53,25.42-3.08,17.75-23,45.94-20.56,54.54-.24-.84,18.92,15,18.39,15,8.63.64,17-13.7,30.29-9.25C191,230,176.58,223,174.26,223.54l9.2-2.12c2.27-.52-8.36-6.77-7.8-6.51,6.22,4,10.16-5.93,2.38-12.13,8.23,10.18,11.78-21.27,12.42-23.08,2.56-7.18,32.27-47.47,38.15-41.14,2.37,2.55-18.75,17.08-15.92,24.15-.75-1.87,20.76,6.38,20.7,6.35,10.41,6,18.35,17.79,24.35,27.78a11.34,11.34,0,0,1-8.74,1.92c.06,0,10.7,5.24,12.8,5.55,1.15.17-7.17,8.3-8.68,9.17-1.75,1.51,17.68,3.27,17.24,3.48-3.27,1.46-19.75,6.51-19.74,8.07,0,20.82,79-22.27,69.88-29.28,2.05,1.57-17.76,8.54-19.55,8.74,2.71-.31,4.85-8.52,4.35-8.33-20.21,10.63-10.15-5.58-15.66-10.93-11.3-11-22.11-15.37-22.93-33.34-.6-13.13,12.64-26.15,1.91-39.26-7.38-9-31-7.56-38.45-.95,6.07-5.39,16.7-11.86,25.21-11.79,17.93.13,9.73,4.22,20,13.21,8.49,7.45,5.35,20.33,24,14.13,11.52-3.84,14.31-5.17,5.38-16,1.22,1.48,9.16,7.76,12,11.21,1.69,2-7.94,4-1.44,9.88,8,7.18,37.87,9.39,28.64-8.57,1.81,6.91,20.32,19.5-.86,18.7.83-.11,40.5,42.79,32.95,8.13,1.87,8.58,15.48,25.14-8.06,19.22,4.33,10.4,19.92,40,29.78,20.78-3.8,7.78,2.14,28.68-18.18,8.22.86,10.32,15.22,72,28.68,39.57-1.4,2-.3,19.28-7.49,20.93-8,1.84-11.6-17.84-17.9-15.76-2.28.75-19.06,63.26,7.28,48.19-6.57,2.27-23.55,20.24-19.27-5.93-4.06,5.11-34.23,36.55-18.6,38.59-11.2.95-17.46-4.43-8.47-14.43-6.61,3.1-38.5,10.09-28.17,18.94-4.68-8.49-9-12.75-18.4-14.57-18.7-3.63-14.77,4.31-18.12,10.42-1.06,1.94-17.12-12.14,4.76-14.79-3.94-2.47-43.8-22.5-35.26-5-1.85-3.78-13.78-12.41,4.33-12.36-6.13-5.64-12.93-8.25-20.77-9.1-12.68-1.38-3.43,2-6.3,6.2.35-.51-17.35-10.49,2.9-12.57A58.7,58.7,0,0,0,212,268.74c-9.61-2.84-3.78,4.31-8.41,6.39-7,3.13,1.23-11.21,1-10.63-10.63-6.91-16.76-4.21-18.37,3.87.44-2.2-15.22-1.33-1-11.6a30.13,30.13,0,0,0-24.17,3.87l3.87,4.83c-8.69-5.38-7.87-.23-4.83-9.67-14.29,1-17.49,6.12-19.33,14.5s-14-7.73-6.77-7.73c-20.28,0-26,27.22-39.56,33.08-11,4.74-1.13,12-12.31-6.24-7-11.48-8.75-28.63-9.52-41.64-3.56-60.15,26.27-108.21,63.33-152.43C54.46,173,19.94,275.16,91.09,373.79c-3.22-4.47,9.57-40.64,13-48.39,7.7-17.66,16.2-29.75,35.53-33.92-5,1.41-16.64,37.24-18.13,44.55A103.82,103.82,0,0,0,124.55,389c13,38.51,50.08,55.5,88.26,59.55,60.47,6.42,194.61-16.51,203.44-96-2.88,25.89-53.9,56.68-74.93,66.77-31.64,15.17-65.4,20.41-100,22.07-2.68.13,4.59-6.76,1.27-6.39-8,1.2-17.95,4.49-25.86,3.88-5-.38-.3-7.85-1.14-7.76-10.51,3.67-38.67,1.39-19-8.83.91-.46-48.16-6-20.15-15.2-.29.09-19.34-1.3-21.1-3.32-7.39-8.48,9.42-11.08,9.68-10.79-4.23-4.87-19.47-6.84-20.71-11.91-2.78-11.37,7.1-8.47,15.52-5.28-1.15-.43-14.53-19.79-14.74-21.35-3.14-23.54,14.77-10.46,14.34-4.81,1.07-7.87-4.69-19.27-.52-25.49,6.54-9.73,5.15,6.79,12.28,3.79,4.08-1.72,1.62-14.15,6.49-13.51,8.6,1.14,8.68,5.52,6,12.78-.28,1.65,29.45-13.55,15.85,6,.35-.48,18.52-2,17.63,3.9-.15,1-8.47,5.25-8.23,5.32,7.48,2.51,40.47.33,16,12.57-1.53.76,20.52-.69,19.32-1.46,11.3,7.19-1.64,13-1,13.5,9.1,7.2,54.63-11.89,23.43,15.61-3.38,3,34.94-4.25,29.77-8.81,5.1,4.5-5.78,16.71-1.23,17.54,11.75,2.15,13.51-11.85,20.85-14.23,9.6-3.12,1.43-5.69,10-1.25,1.76.91-1.32,19.94-.08,18.93C337,387.85,338.7,366.5,348.62,363c15.38-5.49,6,22.81,4.19,29.77.11-.41,12.25-7.26,14.15-9.34,7.08-7.78,5.15-19.08,10.1-25.39,2.85-3.63-.13-17.7,9.23-10.37,2.36,1.85,3,24.17,4.22,23.1,11-7.77,9.73-17.81,12.77-29.43,2.82-10.8,9.75-32.22,10.14-5.15,0-3,14.71-41.13,15.4-39.75.25.49,2.25,15.08,2.65,14C439,291,444.51,269.19,443.32,248.07Zm-241-103.93c-2.6,2-14.77,8.74-18,6.22-2.46-1.91,14.5-30.64,16.25-30.61C206.68,119.85,209.89,140.79,202.3,144.13Z"/><path d="M249,470.87a220.87,220.87,0,0,1-156.18-377A220.87,220.87,0,1,1,405.21,406.18,219.42,219.42,0,0,1,249,470.87ZM249,32c-120.19,0-218,97.78-218,218s97.78,218,218,218,218-97.78,218-218S369.22,32,249,32Z"/></g></svg>