<svg xmlns="http://www.w3.org/2000/svg" viewBox="0 0 500 500"><title>liao</title><g id="Icons"><polygon points="340.39 338.72 441.4 162.7 280.26 162.7 270.62 179.8 392.54 179.8 402.47 197.76 325.25 332.31 340.39 338.72"/><path d="M155.7,315.23a12.31,12.31,0,0,1-4.48-9.9,12.72,12.72,0,0,1,3.56-9.12L97.7,197.16l10-17.35H224.08l9.86-17.1H58.6l91.18,158.2Z"/><path d="M282.3,407.15l-19,33.1-26-.8-55.9-97c-3.32,4.84-7.42,10.63-10.57,15l79.53,138,45.23-78.82Z"/><polygon points="257.1 387.69 250.62 399.37 231.66 365.22 231.88 363.13 224.79 359.96 224.08 366.76 250.62 413.08 262.77 391.86 257.1 387.69"/><polygon points="165.5 257.93 171.58 251.62 165.44 250.39 142.58 212.29 190.07 212.29 198.27 222.13 200.28 222.13 204.26 214.75 201.73 214.75 193.53 204.92 129.55 204.92 160.79 256.99 165.5 257.93"/><polygon points="307.7 204.92 299.5 214.75 250.82 214.75 245.47 222.13 250.62 222.13 302.96 222.13 311.16 212.29 358.65 212.29 335.79 250.39 323.46 252.86 285.39 319.18 292.42 321.75 328.19 259.44 340.44 256.99 371.68 204.92 307.7 204.92"/><polygon points="356.15 352.87 364.35 358.61 326.64 426.64 317.63 421.73 356.15 352.87"/><polygon points="234.02 356.15 255.33 319.26 267.62 321.72 243.85 365.99 234.02 356.15"/><path d="M288.72,350.3l1.92,16,21.63-9.19c-4.74-2.14-9-4-11.86-5.07-2.06-.77-5.13-1.77-8.63-2.84Z"/><path d="M285.11,347.23c-8.1-2.37-16.53-4.68-19.58-5.51l1.71,11.81Z"/><polygon points="337.44 374.3 314.55 384.27 318.6 408.55 337.44 374.3"/><path d="M310.87,362.17l3,17.94,24.52-10.69c-3.35-1.62-12.32-5.95-21.06-10Z"/><path d="M307,363.82l-15.84,6.73,4.47,37.27c8.91,6,17.08,11.44,17.08,11.44l2.7-4.92Z"/><path d="M284.76,351.7l-16.92,6,4.87,33.66c1.19,1,2.24,1.86,3.11,2.53,3.27,2.55,9.17,6.69,15.31,10.9Z"/><path d="M262,345.76l-13.21,24.33s10.7,9.78,19.22,17.19Z"/><path d="M311.85,334.29l-.78-.27c-9.22-3.15-37.71-9.84-37.71-9.84l-3.28,7.38s22.83,4.72,32.78,7.68Z"/><path d="M309.07,341.44c5.52,2.18,13,5.5,19.75,8.57l9.2-4.78c-6.33-2.8-14.09-6.17-20.17-8.63Z"/><path d="M343.77,347.79l-9.28,4.83c6.33,2.93,11,5.17,11,5.17l4.1-7.38S347.29,349.37,343.77,347.79Z"/><path d="M229.92,236.47l-22.13-12.3s31.82-57.54,43.44-76.23c8.16-13.13,25.64-38.1,34.43-50.82C300,76.4,331.59,34.76,352.05,20.07c6.59-4.73,20-10.33,27.87-12.3,6.21-1.55,25.41-3.28,25.41-3.28s-15.16,9.3-19.67,13.12C374,27.43,352.9,50.29,343,61.88c-10,11.8-28.74,36.55-37.71,49.18-8.27,11.65-8.28,11.61-32.79,50Z"/><polygon points="188.93 223.36 242.21 252.87 237.29 261.07 184.01 231.56 188.93 223.36"/><path d="M157,326.64l18,10.66a54.68,54.68,0,0,1-11.48,16.39c-3.38,3.38-12.46,9.49-17.21,9-3-.3-6.56-4.81-8.2-7.38-1.85-2.9-4.1-13.12-4.1-13.12s5.48-.29,8.2-2.46C146.31,336.48,157,326.64,157,326.64Z"/><path d="M181.08,256.55a31.19,31.19,0,0,0,8.74,4.52,2.75,2.75,0,0,1,1.93,2.24c1-.79,2-1.58,3-2.35,3.15-2.43,6.2-5.23,10.19-6.09a29,29,0,0,1,4.62-.57c-4.86-2.75-10.7-6.08-18.16-10.45-2-1.18-7.18,1.08-9,2.46s-3.65,5.12-3.28,7.38A7.4,7.4,0,0,0,181.08,256.55Z"/><path d="M163.81,292.58q13.06,5.85,25.91,12.18a3,3,0,0,1,.88-.51c3.11-1.13,6.45-5,7.3-8.2-4.91-2.74-9-6.73-14.17-9.17-5.69-2.7-11.71-4.46-17.15-7.66a20.76,20.76,0,0,0-3.87,2.34c-1.44,1.58-2.16,5.3-1.64,7.38C161.32,289.94,162.72,291.48,163.81,292.58Z"/><path d="M168.22,273.56a3.09,3.09,0,0,1,.34.17,67,67,0,0,0,11,5.2c3.77,2.8,8.1,4.42,12.41,6.17,2.86,2,5.58,4.14,8.6,5.86a74.91,74.91,0,0,0,4.36-8.28,54.38,54.38,0,0,1-5.71,1c-1,0-2,.05-2.94,0l-.75-.31a6.72,6.72,0,0,1-.91,0,14,14,0,0,1-2.82-.32,1.89,1.89,0,0,1-.79.25,2.93,2.93,0,0,1-2-.72,1.74,1.74,0,0,1-1-.18,11.41,11.41,0,0,1-4.85-4.6l-.54-.33c-2.6-2.56-1.52-5.52,1.08-7.7,1.36-1.14,2.74-2.26,4.12-3.38a38.07,38.07,0,0,1-12.08-6.8,5.1,5.1,0,0,0-1.59-.2c-1.75.2-4.77,2.63-5.74,4.1a14.09,14.09,0,0,0-1.64,7.38A9.17,9.17,0,0,0,168.22,273.56Z"/><path d="M243,304.51c-1.43-4.5-1.28-14.29-2.46-18.85s-2.83-13.73-6.56-16.39a175.37,175.37,0,0,0-15-9.57,2.77,2.77,0,0,1-1.4.35c-6-.06-11.48-.54-16.43,3.17-4.7,3.51-9.27,7.2-13.76,11h0a2.41,2.41,0,0,1,.53,1c3.2,5.45,13,2,19.24,1.75a3.66,3.66,0,0,1,1.77-1.49c-.47.19.09-.06.17-.1l.59-.33.45-.29.1-.07.15-.14-.16-.1a4.47,4.47,0,0,0-1.3-.72l-1.17-.31c-2.07-.55-1.17-3.54.87-3.16,1.6.42,4.28.68,6,1.75a3.18,3.18,0,0,1,.83.29,2.69,2.69,0,0,1,1.15,1.29,1.43,1.43,0,0,1,.9.53c.94,1.11,1.8,2.26,2.63,3.45.27.36.53.73.77,1.11,1.12,1.8-1.69,3.42-2.83,1.65a7.49,7.49,0,0,0-2.76-2.68,13.11,13.11,0,0,1-3.39,2.64,2,2,0,0,1-.08.36,81.4,81.4,0,0,1-7.32,14.74,2.89,2.89,0,0,1-1,1l-.12.13a3.17,3.17,0,0,1,0,.87c-.67,4-1.41,8.12-.39,12.15a3,3,0,0,1,.06,1.25c.48,1.9,1.53,3.6,1.88,5.55,0,0,0,0,0,.06q1,2,1.95,4a8.69,8.69,0,0,1,1.12,2.64,1.64,1.64,0,0,1-3.16.87c-.36-.92-.75-1.81-1.15-2.69a15.28,15.28,0,0,1-1.84-3.64c-.87-1.59-1.82-3.14-2.86-4.68a2.55,2.55,0,0,1-1.54-1.83,21.78,21.78,0,0,1-.61-4,17.48,17.48,0,0,1-4.83,2.8,2.8,2.8,0,0,1-1.1.18,3.22,3.22,0,0,1-.21.5c-1.51,2.84-1.27,6.27-3.33,8.88a8.9,8.9,0,0,1-7.48,3.07,51.7,51.7,0,0,1-13.91-2.17,26.5,26.5,0,0,1-6-.88l-2.32,3.19,19.67,9.84,4.1-4.92a24.68,24.68,0,0,0,2.46,3.28c8.82,9,45.9,23,45.9,23L250.41,316S244.06,307.76,243,304.51Z"/><path d="M161.71,311.71a34.37,34.37,0,0,1,5.07,2.59,64.37,64.37,0,0,0,10.61,2.07c3.5.5,5.58.48,6.59-3.22a39,39,0,0,1,1.26-4.23q-11.48-5.62-23.14-10.87a10.67,10.67,0,0,0-2.67,2.35c-1.06,1.77-1.65,6.31-.82,8.2A10.76,10.76,0,0,0,161.71,311.71Z"/></g></svg>