<svg xmlns="http://www.w3.org/2000/svg" viewBox="0 0 500 500"><title>lyran-alliance</title><g id="Base"><polygon points="154.25 302.33 153.28 302.33 140.25 315 140.25 342.33 154.25 342.33 154.25 302.33"/><polygon points="344.91 302.56 344.91 342.33 360.91 342.33 360.91 319 344.91 302.56"/><polygon points="199.31 109 196.91 105 174.25 105 170.51 109 199.31 109"/><polygon points="244.11 109 242.25 105 215.58 105 213.71 109 244.11 109"/><polygon points="168.65 111 164.91 115 202.91 115 200.51 111 168.65 111"/><path d="M157.58,129l4.67-8.67,21.33-.67s-13.23,3-17.33,4.67C164.23,125.14,157.58,129,157.58,129Z"/><path d="M157.58,129l4.67-8.67,21.33-.67s-13.23,3-17.33,4.67C164.23,125.14,157.58,129,157.58,129Z"/><polygon points="212.78 111 210.91 115 246.91 115 245.05 111 212.78 111"/><polygon points="288.25 109 286.91 105 262.91 105 261.58 109 288.25 109"/><polygon points="260.91 111 259.58 115 290.25 115 288.91 111 260.91 111"/><polygon points="328.37 112 325.58 109 308.91 109 307.63 112 328.37 112"/><polygon points="306.77 114 304.91 118.33 334.25 118.33 330.22 114 306.77 114"/><path d="M146.91,141.67s23.73-9.72,32-12A219,219,0,0,1,216.25,123v16.67s-11.16,3.86-15.33,6c-3.78,1.94-14.67,8.67-14.67,8.67Z"/><polygon points="222.91 119.67 248.91 119.67 250.25 122.33 250.25 174.33 239.58 185 212.25 185 212.25 149.67 222.91 143 222.91 119.67"/><polygon points="191.58 159.67 204.91 153 204.91 177 191.58 159.67"/><path d="M181.22,160.48c-.46-.44-.9-.83-1.31-1.15-3.48-2.74-11.71-4.91-16-6-5.39-1.37-22-3.33-22-3.33s.49,3.34,1.2,7.87A290.22,290.22,0,0,0,181.22,160.48Z"/><polygon points="256.25 121.67 257.58 119.67 291.58 119.67 294.25 121.67 294.25 174.33 283.58 185 256.25 185 256.25 121.67"/><polygon points="301.58 125.67 303.58 123.67 339.58 123.67 340.91 125.67 328.91 173.67 317.58 185 301.58 185 301.58 125.67"/><path d="M257.58,241.67v-28l22.67-22h42.67l12.67-11.33,8.67-36.67,7.33,12v28.67a283.5,283.5,0,0,1-16,40,135.48,135.48,0,0,1-20,29.33s-21.76-7-29.33-8.67C279.21,243.49,257.58,241.67,257.58,241.67Z"/><path d="M205.58,191.67h67.33l-20,20.67v30s-25.33-.67-40,2.67c-8.55,1.94-33.33,8.67-33.33,8.67l-12-25.33s17.76-10.38,23.33-14.67C199.58,207,205.58,191.67,205.58,191.67Z"/><path d="M183.13,162.49a293.8,293.8,0,0,1-39.69-2.56c1.12,7,2.65,15.89,3.81,20.08,2.85,10.32,14.67,40.67,14.67,40.67S176.28,215,184.58,208s15.33-22,15.33-22S190.09,170.27,183.13,162.49Z"/><path d="M186.25,262.33h124v-2s-16-10.67-62-10.67c-40.67,0-62,10.67-62,10.67Z"/><polygon points="317.78 274.67 312.91 269.67 186.91 269.67 181.76 274.67 317.78 274.67"/><polygon points="168.63 287.43 214.34 287.68 226.33 312.33 266.26 312.33 279.59 287.68 330.2 287.43 319.72 276.67 179.71 276.67 168.63 287.43"/><path d="M337.2,4H162l-59.4,186,1.31,2.71,55.63,115.39V355H182.2l68,141L318,355h21.62V310l57.78-120.2ZM188.27,332.87a7.33,7.33,0,1,1,6-7.2A7.36,7.36,0,0,1,188.27,332.87Zm61.89,128.36L198.94,355H301.23Zm61.68-128.3a7.33,7.33,0,1,1,5.33-11.09,7.32,7.32,0,0,1-5.33,11.09Zm14.71-30.6H292.24L278.91,327H215.54l-12-24.67h-30L171.94,299h33.68l12,24.67h59.3L290.25,299h37.9Zm4-8.24-46.93.23L270.23,319H222.16l-12-24.68-40.58-.22L118.83,188.85,173.05,19.08H326.23l54.92,169.66Z"/></g></svg>