<svg xmlns="http://www.w3.org/2000/svg" width="500" height="500" viewBox="0 0 500 500">
  <title>magistracy-of-canopus</title>
  <g id="Base">
    <path d="M250.5,497.67A247.17,247.17,0,0,1,75.73,75.73,247.17,247.17,0,0,1,425.27,425.27,245.55,245.55,0,0,1,250.5,497.67Zm0-487.8C117.81,9.87,9.87,117.81,9.87,250.5S117.81,491.13,250.5,491.13,491.13,383.19,491.13,250.5,383.19,9.87,250.5,9.87Z"/>
    <path d="M250.5,462.28c-116.78,0-211.78-95-211.78-211.78s95-211.78,211.78-211.78,211.78,95,211.78,211.78S367.28,462.28,250.5,462.28Zm0-419.2c-114.37,0-207.42,93.05-207.42,207.42S136.13,457.92,250.5,457.92,457.92,364.87,457.92,250.5,364.87,43.08,250.5,43.08Z"/>
    <path d="M240.43,68.94a9.26,9.26,0,1,0,9.26,9.26A9.26,9.26,0,0,0,240.43,68.94Zm0,13.4a5.43,5.43,0,1,1,5.43-5.43A5.43,5.43,0,0,1,240.43,82.34Z"/>
    <path d="M419.27,286.43a9.26,9.26,0,1,0,9.26,9.26A9.26,9.26,0,0,0,419.27,286.43Zm0,13.4a5.43,5.43,0,1,1,5.43-5.43A5.43,5.43,0,0,1,419.27,299.84Z"/>
    <path d="M90.44,314.2a9.26,9.26,0,1,0,9.26,9.26A9.26,9.26,0,0,0,90.44,314.2Zm0,13.4a5.43,5.43,0,1,1,5.43-5.43A5.43,5.43,0,0,1,90.44,327.6Z"/>
    <path d="M173.52,143.54l-1.28-25.38-18.81,25a54.14,54.14,0,0,0-21.14,8.33l-22.93-2.7,10.07,14.54A54.74,54.74,0,0,0,109.71,212l-.15.27.21-.05a54.85,54.85,0,1,0,63.74-68.72Zm-14.27,38.81,17.58,11.17.14,33.94Zm14.5,45.83-24.14-27.26,5.74-19.57Zm4.72-37.49-19.35-12.3,39.21-.1Zm-19.19-15.56,13.79-10.91L196.61,175Zm-1.14-3.26,11.56-39.4,1.47,29.09Zm-3.23-.58-6.35-16.16,18.18-24.2Zm-9.36-14.9,7,17.84-32.87-20.88Zm2.39,18.78-16.34,0L118.7,156.58Zm-16.22,3.31,18.15,0L118,203.61Zm20.41,2.34L146.48,200l-26.85,6.54Zm-4.89,22.35,29.2,33A41.24,41.24,0,0,1,123,209Zm32.88-9.63,20.29-12.67a41.29,41.29,0,0,1-20.12,53.67Zm-5.68-32.28-.18-3.52A41.07,41.07,0,0,1,193.51,170Zm-23.94-14.11-4.51,6-8.4-1A50.69,50.69,0,0,1,150.47,147.12Zm-39.52,50.15a51.69,51.69,0,0,1,10.43-31.1l5.28,7.63a42.62,42.62,0,0,0-6.82,19.62L112,207.78A51.61,51.61,0,0,1,110.95,197.28Zm51.59,51.59A51.67,51.67,0,0,1,113,211.48l6.87-1.67a44.48,44.48,0,0,0,58.91,28.92l1.56,1.76v-2.4a44.57,44.57,0,0,0,22.92-59l4.29-2.67-7.66-3.52a44.34,44.34,0,0,0-25.76-18.62l-.37-7.38a51.59,51.59,0,0,1-11.15,102Z"/>
    <path d="M373.08,187.51l-1.48-28.66-14.77,13A39.4,39.4,0,1,0,353,229.42l11.3,15.32,6.43-30.65,30.57-13.36Zm16.29,11.24-28.66-1.09,10.92-7.22Zm-19.55-11-13.51,8.93,12.54-27.58Zm-25.5,27.4-18.7,5.73,23-15.21Zm4.17-33.6,3.31,14.77-22.56-18.7Zm-.76,15.64L334,196.64l-6.78-16.52Zm-14,2.74,16.72.63L320.8,220.12Zm20.69-7-2.74-12.23,13.84-12.17Zm-32.94-20.28a27,27,0,0,1,23.08,4.71Zm-.79.22L331,198.07l-15.68,24.55a27,27,0,0,1,5.35-49.73Zm24.2,45.48.76,1a26.9,26.9,0,0,1-23.2,5.84Zm2.51-2.1,6-13.11,6.83,30.45Zm9.7-11.36,10.43,8.65-4.1,19.57ZM328.15,235a36.14,36.14,0,1,1,26.22-61l-4.4,3.86a30.28,30.28,0,1,0-36.4,47.52l-2.05,3.21,5.36-1.64a30.23,30.23,0,0,0,30.71-4.89l3.48,4.72A36.07,36.07,0,0,1,328.15,235ZM369.59,211,357.23,200.8,390.16,202Z"/>
    <path d="M250.5,58.32c-106,0-192.18,86.21-192.18,192.18S144.53,442.68,250.5,442.68,442.68,356.47,442.68,250.5,356.47,58.32,250.5,58.32Zm32,374.48c-32.52,4.85-64.75,1.69-90.75-8.88-24.17-9.84-41-25.25-47.69-43.66a48.65,48.65,0,0,0,14.34,3.11c13.89,27.65,52.42,44.76,96.85,44.76a179.27,179.27,0,0,0,26.26-2C345.93,416.58,393.26,374.8,387,333S323.37,265.12,259,274.72c-24,3.58-46.34,11.68-64.63,23.45a49,49,0,0,0-6.62-5.05c20-12.51,44.24-21.16,70.27-25,71.07-10.58,134.4,17.75,141.16,63.16S353.58,422.22,282.51,432.8ZM170.93,335.31l-2.21,19.31-7.47-27.2Zm-8.16-10.87,29,.5-18.88,7.79Zm3.2,32.49L151.4,340.68l5.86-14.78.16-.1Zm-17.66-17.35-18.47,3.85,22.71-14.53Zm-21.41,1.86L138.14,324l15.59.27Zm22,1.35L170.59,367l3.57-31.24,23-9.47a36.6,36.6,0,0,1-69.95,21ZM193,321.7l-28.36-.49,12.47-8Zm-15.84-20.33a37,37,0,0,1,17.4,17.45l-16-8.54ZM159.4,320.66l0-.08,12.21-30.71.52.12,3.12,20.54Zm-1.46-5.3-3.46-12.64,13.84-13.47Zm0-20.6a39.43,39.43,0,0,0-14.24,4l-8.51-1.69a45.48,45.48,0,0,1,26.28-8.35c.87,0,1.73,0,2.58.09Zm-6.63,8.86,4.06,14.79-22.64-18.48ZM153.41,321l-15.06-.26-7.67-18.29Zm-21.74-7.76,3.76,9-10.35,16.06c-.12-1.24-.2-2.5-.2-3.79A36.69,36.69,0,0,1,131.66,313.25ZM121.6,334.47a40.55,40.55,0,0,0,.79,7.94L118.14,349a45.62,45.62,0,0,1,9.53-45.3l2.54,6A40,40,0,0,0,121.6,334.47ZM124,348a39.88,39.88,0,0,0,77.39-13.53A39,39,0,0,0,200.2,325l3.36-1.39L199,321.23a40.13,40.13,0,0,0-22.48-23.66l-1-6.6a45.72,45.72,0,1,1-57.35,58.24Zm84,22.1a1.59,1.59,0,1,1-1.59-1.59A1.59,1.59,0,0,1,208,370.1Zm-3.27,37.51a1.16,1.16,0,1,1-1.16-1.16A1.16,1.16,0,0,1,204.69,407.62Zm-8.35-32.53a1.13,1.13,0,1,1-1.13-1.13A1.13,1.13,0,0,1,196.34,375.09Zm15.3,15.1a1.43,1.43,0,1,1,1.43,1.43A1.43,1.43,0,0,1,211.64,390.18Zm5.59-33a.81.81,0,1,1,.81-.81A.81.81,0,0,1,217.22,357.15Zm1.51,13.21A1.33,1.33,0,1,1,217.4,369,1.33,1.33,0,0,1,218.73,370.36Zm-2.11-63.73a.86.86,0,1,1,.86-.86A.86.86,0,0,1,216.62,306.63Zm5.74,21.54a1.66,1.66,0,1,1-1.66,1.66A1.66,1.66,0,0,1,222.36,328.16Zm-1.06-4.88a1.06,1.06,0,1,1,1.06,1.06A1.06,1.06,0,0,1,221.3,323.28ZM225.92,358a.82.82,0,1,1,.82-.82A.82.82,0,0,1,225.92,358Zm2.7,25.13a1.89,1.89,0,1,1-1.89,1.89A1.89,1.89,0,0,1,228.62,383.11Zm-3.08-21.68a1.06,1.06,0,1,1-1.06-1.06A1.06,1.06,0,0,1,225.54,361.43Zm-3.74-7.5a1.61,1.61,0,1,1-1.61,1.61A1.61,1.61,0,0,1,221.8,353.93Zm15.07,8.75a1.24,1.24,0,1,1,1.24,1.24A1.24,1.24,0,0,1,236.87,362.67Zm16,24.56a1.51,1.51,0,1,1,1.51,1.51A1.51,1.51,0,0,1,252.9,387.24Zm18-45.26a1.13,1.13,0,1,1,1.13,1.13A1.13,1.13,0,0,1,270.91,342Zm9.26-4.63a.83.83,0,1,1,.83.83A.83.83,0,0,1,280.17,337.35ZM291,376.42a1.26,1.26,0,1,1-1.26-1.26A1.26,1.26,0,0,1,291,376.42Zm-1-74.52a1.61,1.61,0,1,1,1.61,1.61A1.61,1.61,0,0,1,290,301.9Zm4.43,40.63a1.69,1.69,0,1,1,1.69,1.69A1.69,1.69,0,0,1,294.46,342.53Zm5.23,36A1.51,1.51,0,1,1,301.2,380,1.51,1.51,0,0,1,299.69,378.48Zm6.24-1.14a.92.92,0,1,1,.92.92A.92.92,0,0,1,305.93,377.34Zm5-39.16a1.66,1.66,0,1,1,1.66,1.66A1.66,1.66,0,0,1,311,338.18Zm4.33,21.28a1.21,1.21,0,1,1,1.21,1.21A1.21,1.21,0,0,1,315.29,359.46Zm4-59a1.36,1.36,0,1,1,1.36,1.36A1.36,1.36,0,0,1,319.32,300.44Zm3.52,91.44a1.7,1.7,0,1,1,1.7,1.7A1.7,1.7,0,0,1,322.84,391.88ZM327,370.36a1.33,1.33,0,1,1,1.33,1.33A1.33,1.33,0,0,1,327,370.36ZM347.09,354a1.11,1.11,0,1,1,1.11,1.11A1.11,1.11,0,0,1,347.09,354Zm55.28-23.27c-7-47.19-72-76.76-144.88-65.91-27.1,4-52.3,13.16-73,26.42a48.46,48.46,0,0,0-9.52-3.88l-1.23-8-6.62,6.45a48.46,48.46,0,0,0-36.25,10.41l-7-1.38,2.34,5.59A48.93,48.93,0,0,0,140,378.51c6.32,20.56,24.22,37.74,50.49,48.43,18.42,7.49,39.9,11.35,62.38,11.33l2.34,0c-1.58,0-3.16.07-4.75.07-103.57,0-187.82-84.25-187.82-187.82S146.93,62.68,250.5,62.68,438.32,146.93,438.32,250.5A187,187,0,0,1,393.6,372C401.17,358.9,404.46,344.84,402.37,330.76Z"/>
  </g>
</svg>
