<svg xmlns="http://www.w3.org/2000/svg" viewBox="0 0 500 500"><title>magistracy-of-canopus</title><g id="Icons"><path d="M250,449.34C140.09,449.34,50.66,359.91,50.66,250S140.09,50.66,250,50.66,449.34,140.09,449.34,250,359.91,449.34,250,449.34Zm0-386.09C147,63.25,63.25,147,63.25,250S147,436.75,250,436.75,436.75,353,436.75,250,353,63.25,250,63.25Z"/><path d="M250,495.5C114.63,495.5,4.5,385.37,4.5,250S114.63,4.5,250,4.5,495.5,114.63,495.5,250,385.37,495.5,250,495.5Zm0-457.43C133.14,38.07,38.07,133.14,38.07,250S133.14,461.93,250,461.93,461.93,366.86,461.93,250,366.86,38.07,250,38.07Z"/><path d="M261.73,122.53l9.42-12.94-32.57.8L219.46,84l-8.88,29.79a60.42,60.42,0,0,0-13.78,5.75l-17.64,5.71,5.26,3.63a60.85,60.85,0,1,0,77.31-6.36Zm-34.81,98.09A48.2,48.2,0,0,1,195,136.22L206,143.77l0,32.58,25.88-19.79,31,10.1L252,135.93l2.36-3.24a48.23,48.23,0,0,1-27.41,87.93Z"/><path d="M383,285.59l12.87-17.67-27.09.66-15.9-21.94-7.74,26-5.73,1.85a47.91,47.91,0,0,0-7.55,2.44l-12.5,4,2.54,1.75A48.27,48.27,0,1,0,383,285.59ZM350.72,357a35.64,35.64,0,0,1-17.66-66.62l8.63,6,0,27.1L363.18,307l22.51,7.34a35.65,35.65,0,0,1-35,42.69Z"/><path d="M279.88,348.7c-13-17.92-33.66-34.17-58.23-45.75a176.24,176.24,0,0,0-32.49-11.61l-5.77,11.54a162.9,162.9,0,0,1,32.89,11.46c22.68,10.69,41.64,25.52,53.4,41.75,11,15.14,14.18,29.45,9.07,40.29S260.55,413.85,241.9,415c-20,1.28-43.5-3.92-66.18-14.61-34.24-16.13-58.92-41.82-63.84-63.46l-13.56-6.78c.49,28.08,28.54,61.14,72,81.63,22.1,10.42,45.11,16,65.58,16,2.29,0,4.55-.07,6.77-.21,23.44-1.48,40.28-10.66,47.44-25.85S293.65,367.72,279.88,348.7Z"/><path d="M112.3,320.69c1.47.52,3,.95,4.45,1.32.41.1.82.18,1.23.27q1.9.42,3.84.68c.48.06.95.13,1.43.18a48.26,48.26,0,0,0,5.05.29,49,49,0,0,0,5.89-.38l.58-.06a48.15,48.15,0,0,0,5.4-1.05l.81-.2a47.84,47.84,0,0,0,5-1.68l.85-.34a47.72,47.72,0,0,0,4.74-2.28l.75-.43a47.69,47.69,0,0,0,4.49-2.92l.51-.4a47.84,47.84,0,0,0,4.29-3.64l.12-.12a48.21,48.21,0,0,0,3.82-4.18l.33-.39a48.88,48.88,0,0,0,3.21-4.57c.09-.14.2-.27.29-.41.35,0,5.79-11.89,5.2-12a47.51,47.51,0,0,0,1.94-13.23,48.22,48.22,0,0,0-22.4-40.68l8.29-11.38-24.65.6-14.47-20-7,23.63L92.81,235l4.59,3.17A48.15,48.15,0,0,0,101,314.94C100.76,315.65,112.06,321.38,112.3,320.69Zm-4-75,4.81,3.32,0,24.66,19.59-15,23.45,7.65L149,246.21a35.64,35.64,0,1,1-40.74-.55Z"/></g></svg>