<svg xmlns="http://www.w3.org/2000/svg" width="500" height="500" viewBox="0 0 500 500">
  <title>marian-hegemony_COLOR</title>
  <g id="n4">
    <path d="M498.56,262.64c-2-7.38-25.43-2.15-30.63-2.83C450.86,257.6,440.46,243.87,427,234c4.46-4.87,32.44-27.61,28.06-34.73-5.13-8.35-34.64,7-42.64,6.24,4.7-10.41,15.28-17.17,19.69-27.79,4.27-10.29,1.67-17,4.55-27.39,5.75-20.82,54.26-53.87,3.84-45.6,9.8-1.61,13.4-32.83,2.5-37.73,13-5.95,18.79-27.23,4.57-34.9-20.69-11.17-27.43,16.79-23.63,30.65-12.31-.7-20.14-.79-27.82,8-10.51,12-.78,12.51-17.4,16.2-2.7.6-5.3,1.66-7.32,1.94-1.71.24-4.86-1.05-7-.75-.33,0-9.26,5.15-7.83,5.12-5.73-.26-12.39-3.1-20.37-2.36-15.21,1.41-30.69,2-45.82,4.1-27.12,3.72-27,2.17-34.77-24.19C247.42,98.2,248.89,98.35,219.32,97c-4.12-.2-13-.69-17.23-.86l1.6.12c-11.59-.78-23.21-1.39-34.77-2.18-3.73-.41-15.31-1.44-18.41-1.91-7.51-1.14-30.16-2-35.44-7.3-3.63-3.6.81-13.94-1.82-18.14-5.11-8.15-15.86-6.66-24-6.55C99.4,47.4,87,25.33,70.43,30.46c-15.75,4.88-9.23,24.74,1.31,32.35C50,67.33,63.28,84.63,64.83,98.71l-27.73.93c19.05,30.85,45.21,66.19,52.5,102.15-12.47,1.45-30.07-8-43-9.34a178,178,0,0,1,30,36c-11.93,6.92-21.66,19.17-34.93,23.75-12.84,4.43-27-.19-39.75,4.95C19.26,268,37.26,278,53.61,290.42c9.39,7.12,33.1,19.2,39.62,25.87,16,16.36-13.66,61.84,1,80.27-6.8,7.66-1.4,15.54,5,6.51,0-.73,10.51,20.55,8,20.75,3.41,0,5.47-21.51,7.36-23.39,5.39,5.37-1.11,18.89,3.75,24,7.64,8,5.21-13.6,6.62-18.25,1.85-6.09,6.43-8.69,8.1-15.59,1.37-5.67,1.69-16.43,1.56-22.19-.39-17-3-31.72-1.65-49.36,9.63,24.66,8.09,22.39,32.7,24.12,13.52.95,23.54,3.8,21.37,19.73-1.1,8-22.77,36.69-2,38.29,9,.69,15.48-22.88,18.12-22.58-.11,0,3.21,8.55,3.93,9.74,6.12,10.59,13.57,20.8,20,31.29l-3.84,1.08c1.84-1.24,21.17,27.39,21.17,27.39,13-16.82,27.39-41.92,38.77-56,5.09-6.3,10.79-4.22,15.61-13.44,2.93-5.6,1.61-11.09,4-16.53,8.13-18.66,17.33-17.7,35.21-17.91,23.73-.28,18,3.92,29.79-28.07-2.78,7.56-1.3,44.88-1.46,51.56-.71,29.49,1.42,59.42-3.9,88.6,2.12-1,5-.48,7.23-1.3.08,1.14.69,20.67,1.63,20.67,2.39-.15,8.32-22,9.93-24.39.88,3.53,6,1.8,8.14,4,3.05,3.24-1.14,9.49,2,12.34-.27-.24,9.14-15,9.83-16.68,5.19-12.69,5.67-27,5-41.18a471.16,471.16,0,0,1,.41-58.28c.8-11.68-3.33-27.8,6.57-33.86,10.84-6.64,29.78-21.25,41.74-28.58C460.89,285.39,500.4,269.33,498.56,262.64Z" style="fill: #1d589e"/>
  </g>
  <g id="n3">
    <path d="M112.56,85.69a242,242,0,0,1-30.12-5.4c9.52-3.7,20-6.45,28.84-11.61C111.76,74.36,112.16,80,112.56,85.69Z" style="fill: #c8b985"/>
    <path d="M80.2,78.84C75.92,80.5,60,75.92,69.29,70.25,77.44,65.3,77.45,72.39,80.2,78.84Z" style="fill: #c8b985"/>
    <path d="M91,66.14c4.25-.09,10.83-.82,14.86,1.09C100.09,72.29,92.8,76,91,66.14Z" style="fill: #c8b985"/>
    <path d="M111,65.54q.63,2.4-3.08,2.52c3.27-4.07-16.08-4.07-18-4-.3-.58-.59-1.17-.89-1.75C91.5,62.25,110.52,61.5,111,65.54Z" style="fill: #c8b985"/>
    <path d="M403.44,350.82c-4.08,18.51-2.08,38.73-.05,55.54,1.18,9.79-1,21.22-1.81,31-.82,10.28-4.14,10-8.45,18.68-2.08-4.3-3.24-8.44-8.82-5.61-2.54-10.19-10.43,8.34-10.93,9.34a82.17,82.17,0,0,1-.74-8.6c-1.89.8-4.33.31-6.22,1.12,3.56-19.08,2.87-37.32,2.84-56.7,0-25.52,1-50.93,2.62-76.41,12.82,9.24,19,10.5,33.18,2.72C405.37,331.22,405.46,341.65,403.44,350.82Z" style="fill: #c8b985"/>
    <path d="M446.87,72c-1.3,3-5.43,3.94-8.29,5,4.13-3.36,4.09-5.86-1.4-7.87C439.72,67.36,445.78,68.84,446.87,72Z" style="fill: #c8b985"/>
    <path d="M432,79c.8-.76,2.79-12.1,7.73-6.16C438.3,75.23,434.18,77.62,432,79Z" style="fill: #c8b985"/>
    <path d="M417.29,76.62c-3.52-1-12.8-2.22-15.07-5.81,3.29-3,15-1.93,19-1.9Q419.24,72.76,417.29,76.62Z" style="fill: #c8b985"/>
    <path d="M399.11,68.57c4.8-5.17,17.93-4.08,24.11-3.75-3,4.54-21.9-.9-22.92,5.33S421.38,80,424.7,80.92C419.51,82.07,394.14,73.95,399.11,68.57Z" style="fill: #c8b985"/>
    <path d="M396.76,73.84c6.35,3.67,13.18,6.08,20,8.62-7.43,1.26-14.92,2.25-22.43,3A83.83,83.83,0,0,1,396.76,73.84Z" style="fill: #c8b985"/>
    <path d="M131.41,368.11c-.63,7.18.29,19.8-1.81,26.48-.88,2.82-6.41,4-7.34,6.71-1.9,5.53-1.23,10.6-1.88,16.3-.74-4.56,1.28-17.84-4.33-19.56-6.11-1.88-7.31,8.37-7.39,13-8.54-3.5-4.88-18-14.51-8.93.42-2.85,2.09-4.9,2.38-7.74-1.68,0,3.1-66.37,1.62-75.29,12.18,6.52,20.37,2.18,31.89-4.41-.71,10.2-2.82,20.67-2.16,30.92C128.37,352.86,132,361,131.41,368.11Z" style="fill: #c8b985"/>
    <path d="M433.17,167.17c-12.34,25.41-22.87,45.22-54.83,34.58-15.9-5.29-13.37-8.58-1.4-16.53,16.68-11.09,33.34-21,49.28-33.62C427.84,153.89,434.78,163.69,433.17,167.17Z" style="fill: #c8b985"/>
    <path d="M385.76,150.3c2.9-15.39,27.5-19.87,43.21-27.3,3.27,21.43,4,24.68-18,36.06C394.61,167.55,382.49,172.9,385.76,150.3Z" style="fill: #c8b985"/>
    <path d="M71.47,142.62l7.91-17.78c11.25,5.07,37.17,9.36,45.08,15.15,8.38,6.13,4.27,23.64,7.83,33.62C111,164.14,91.07,155.18,71.47,142.62Z" style="fill: #c8b985"/>
    <path d="M84.43,182c2-8.13,4.9-16.11,7.24-24.16,7.18,3.19,53.17,33,49.94,39.53-2.69,5.44-21.91,3.22-26.72,3C99.1,199.64,93.29,196.07,84.43,182Z" style="fill: #c8b985"/>
    <path d="M271.89,100.38c16.62-.59,33.17-4.19,49.71-5.89,9.68-1,25.82,1.43,32.9,0,27.15-5,64.14-5.28,90.11-17.65-5,11.11-2.21,30.56-9.78,39.57-9.53,11.35-32.09,15.45-44.91,18.56-18.46,4.49-35.5,12.4-53,19.83-13.38,5.69-19.11,2.2-31.05,7.71-1.08-10.42-1.89-57.65-16-56.28q1.45,6.32,2.89,12.64c-9.56,2.87-10.59-4.25-11.23-11.5-3.83-.22-7.8,0-7.26,3.94-5-2.77-9.48-3.74-9.76-10.28Q268.19,100.6,271.89,100.38Z" style="fill: #c8b985"/>
    <path d="M62.33,80.32c-3.09-9,1.51-15,11.81-15.68.19.46.39.91.59,1.37-7.16,1.93-9.23,4.68-8.12,6.88-1.53,3.71,6.83,6.44,11.55,6.29,1.78.41,4.1.92,6.49,1.43,15.94,3.8,41.35,9.14,43.1,9.44C137.94,91.79,159,93.88,159,93.88s3.73.49,1.21.29c15,1.7,30.55,2.12,45.75,2.75,12.84,1,28.76,1.92,40.63,4-.79,11.3-22.38,17.61-30.21,24.59.44-6,2.77-9.63,6.68-14.06L213.41,109c-1.17,6.43-.95,20-5.53,24.62-2.73-5.54-9.36-33.67-17.79-26.94-3.12,2.49,1.77,36.77-6.89,34.41-4.4-1.21.21-35.76.35-40.43-11.11,0-22.34,29.83-30.12,38.63,10.88,2.23,5.6-7.92,12.38-10,11.44-3.53,4.58-1.1,10.52,5.86,4,4.7-4.67,11.94,7.09,11.55,10.1-.33,5-15.61,10.33-21.19,4.11-4.27,11.12,31,11,32.71-3.14-3.37-16-.67-21.12-1.8-11.58-2.55-22.91-8.65-34.75-11.47a451.73,451.73,0,0,1-84.78-29.4C70.51,105,66,90.94,62.33,80.32Z" style="fill: #c8b985"/>
    <path d="M176.66,123.41c-1.83.1-4.18-.75-6-1.08l5.56-7.8C176.37,117.5,176.51,120.46,176.66,123.41Z" style="fill: #c8b985"/>
  </g>
  <g id="n2">
    <path d="M255.57,189.11c4.44,1.55,4.95,7.81,9.79,9.26-4.76,3.66-2.05,7.63-1,12.84-11.43-14.6-4-24.59-19.09-5,2.17-9-3.47-9.25-10.42-13.24C241.11,190.5,249.33,186.94,255.57,189.11Z" style="fill: #548359"/>
    <path d="M248.11,214.22c11.23-2.45-5.68-13.28,9.3-7,1.83.77,8.32,11.2,8.53,12.48-1.76-1.44-3.08-1-3.94,1.17a3.35,3.35,0,0,0-1-1.63c-.33-.52-.87-1.26-1.17-1.74l-2.13,3.39c-4.91-7.13-17.87,7.8-14.15-7.53A11.06,11.06,0,0,0,248.11,214.22Z" style="fill: #548359"/>
    <path d="M240.49,244.39c7.23,0,18.88-.16,25.92,1-3.71,7.9-6,18.79-17.38,13.81C246.64,258.17,239.79,244.4,240.49,244.39Z" style="fill: #548359"/>
    <path d="M234.66,175.38a45.58,45.58,0,0,0-6.17-4.95c8.63,3.61,11.37,9.17,15.64,17.1-13.27,3.74-19.86-6.13-19.21-17.63,1.59,10,6.87,11.53,16,13.41A64.61,64.61,0,0,0,234.66,175.38Z" style="fill: #548359"/>
    <path d="M285.73,170.7l.61-.19c-.61,14.71-8,23.44-22.35,17.58,2.48-4.11,6.46-9.43,10.68-12.25a56.81,56.81,0,0,0-6.81,7.48C277.11,182.23,283.76,180.57,285.73,170.7Z" style="fill: #548359"/>
  </g>
  <g id="n1">
    <path d="M80.93,60.11a14,14,0,0,0,5.4-6.65C89.21,58.6,87.55,61.27,80.93,60.11Z" style="fill: #cecfe5"/>
    <path d="M89.67,55.4c-1.65-4-2.19-3.64.43-7.23A12.2,12.2,0,0,1,89.67,55.4Z" style="fill: #cecfe5"/>
    <path d="M88.85,40.25c-2.32-.66-5.51-5.21-6.14-6.72A10.34,10.34,0,0,1,88.85,40.25Z" style="fill: #cecfe5"/>
    <path d="M69.26,57.84c3.83-1.14,5.14,1.44,5.06,4.12A31.46,31.46,0,0,1,69.26,57.84Z" style="fill: #cecfe5"/>
    <path d="M436.45,66.79c-8.29,3.42-11.13-5.88-12-12.37,4.31,8.67,11.95,8.53,20.41,9A22.68,22.68,0,0,1,436.45,66.79Z" style="fill: #cecfe5"/>
    <path d="M267.15,235.78a1.8,1.8,0,0,0,.71.2q.26,3.24.28,6.5l-2.23-.63C266.24,239.81,266.73,237.8,267.15,235.78Z" style="fill: #cecfe5"/>
    <path d="M262.83,241.78a21.24,21.24,0,0,1,0-7.73,2.25,2.25,0,0,1,3.36,1.09C266.38,238.09,265.6,241.74,262.83,241.78Z" style="fill: #cecfe5"/>
    <path d="M266.17,226.43c-2.72,5.81-3.13-1.16-3.82-2.74C260.76,220,270.06,218.08,266.17,226.43Z" style="fill: #cecfe5"/>
    <path d="M255.08,229.25c-2.27.47-2.3-7.2.1-8.1C257.76,220.18,259.33,228.39,255.08,229.25Z" style="fill: #cecfe5"/>
    <path d="M257.09,242.63a7.51,7.51,0,0,1-4.27.48C253.08,231.7,256.57,230.79,257.09,242.63Z" style="fill: #cecfe5"/>
    <path d="M259.25,234c5.32.13,2.91,6.73-1.11,8.23C258,239.76,256.46,233.92,259.25,234Z" style="fill: #cecfe5"/>
    <path d="M259.86,218.6c4.58,1.24.8,8.89-1.33,9.58C258.44,227.22,258,218.85,259.86,218.6Z" style="fill: #cecfe5"/>
    <path d="M246,229.61c-1.48.44-1.5-6.69.06-7.53S248.8,228.81,246,229.61Z" style="fill: #cecfe5"/>
    <path d="M246.65,242.21c-4.89-1.57-5.53-6.59-.29-7.26C246.44,237.12,247.17,240.12,246.65,242.21Z" style="fill: #cecfe5"/>
    <path d="M252,233.89c-.08,3.05-.14,6.1-.22,9.14C244.78,242.49,246.3,235.06,252,233.89Z" style="fill: #cecfe5"/>
    <path d="M248.59,229.48c0-9.93,4.83-10.07,4.09.13Z" style="fill: #cecfe5"/>
    <path d="M243.85,222.73c.25,2-.49,4.6-.71,6.58a11.24,11.24,0,0,0-3.05-.24c.57-3,1.19-5.94,1.88-8.9Z" style="fill: #cecfe5"/>
    <path d="M241.9,235c.75,2.73.34,7-3.53,6.14q.26-3.47.82-6.91Z" style="fill: #cecfe5"/>
    <path d="M199.16,370.75l-1,3.45a8.41,8.41,0,0,0-8.59-3.56C191.39,363.45,194.3,370.81,199.16,370.75Z" style="fill: #cecfe5"/>
    <path d="M266.45,358.5c10.71,3.2,3.7,17.52,1,23.68-2.55-3.45-4-1.82-6.63.25-.46-1.31-5.88-10.91-6.4-10.26C258.14,367.43,258.39,356.1,266.45,358.5Z" style="fill: #cecfe5"/>
    <path d="M198.28,385.48c-.22.65-.42,1.29-.63,1.94-2-3.7-6.36,2.68-2.12,3.25-5.09,6.2-2.56,2.64-6.67,2.64-6.28,0-13.67,9.21-10.45-6.21-.39,4.74,5.67-.48,5.77-.51-10.66-1,2.5-21,12.39-11C186.05,384.17,199.74,377.59,198.28,385.48Z" style="fill: #cecfe5"/>
    <path d="M425.83,41.08C438,32.94,454.53,28.51,451.5,49,448.06,72.34,417,54.9,425.83,41.08Z" style="fill: #cecfe5"/>
    <path d="M67.71,56.14,64.5,51.24c1.46.53,10.25,4.47,10.67,1,.72-6.1-8.77-5.89-11.9-4.32-5.44-21,23.92-17.5,25.22-3.72C89.81,58.27,74.43,53.37,67.71,56.14Z" style="fill: #cecfe5"/>
  </g>
  <g id="Base">
    <path d="M88.65,87.92c10.76-3.29,7.11,15.36,7.44,22.14,5.26-6.7,8.65-23.37,18-18.46-5,11.15-7.46,22.28-10.4,34.06a16,16,0,0,1-5.29-1.43c.84-2.45,7.92-19.52,6.09-20.79-1.32-.92-10.1,20.26-12.37,20.26-1.47,0-.53-22.51-1.79-22.41-6,.5,0,21.48-9.41,18.82C84.72,109.34,88.68,99.41,88.65,87.92Z"/>
    <path d="M153.09,98.86c-.24,2.78-7.13,35.67-8.87,34.51s-2.7-13-2.19-14.93c1.34-5,7.76-7.19,7.44-13.74-.39-8-2.42-4.52-8.75-6.29-1.06-.3-2.12-3.89-7.26-3.23-.17,2.64-3.51,33.21-7.35,32.36-5.33-1.18,7.81-37.38-3.75-34.19-4.69,1.29-14.69,27.85-17.94,33.83,8,4,5-7,9.31-9.82,6.74-4.39,5.65,2.78,6.51,6.19s-1.57,5.62,1,8.15c.81.78,8.63,2.14,9.58,1.4S133.35,116.42,135,117c6.81,2.27-3.07,27.55,13.5,21.5,6.87-2.51,10.18-30.41,13.12-38.89ZM116.25,113.2l4.48-7.71a29.33,29.33,0,0,1,.9,7.71C120,113.2,117.8,113.59,116.25,113.2Zm21.24,1.34c-4.58,0-.18-12.4,3.56-12C147.37,103.15,143.61,114.54,137.5,114.54Z"/>
    <path d="M299.59,104.32,314.52,103c.85,4.81-2.36,5.47-6.86,4.3.52,9.51-2.18,14.34,8.6,13.5-1.15-7.28.3-15.22,7.52-18.82,4.58-2.28,11.76-2.71,9.62,5.32-16.34-10.28-15.35,28.32.27,28.91.07-4.46-3.47-16.3-1.21-18.61,5.37-5.47,5.6,12.56,5.61,14.12,0,6.62-1.81,13.45-11.23,9.91-11.05-4.15-3.49-18.52-16.63-14.84,1.28,10.8-1.25,13.92,10.08,12.84,3,8-8.51,6.89-13.71,7.87C304.8,133,302.89,118.63,299.59,104.32Z"/>
    <path d="M335.36,98.68c5.19-.44,14.52-4.22,13.11,3.9-1.93-.64-4.32.11-6.25-.54l1.08,12.77c2.19-.79,4.89-.13,7.13-.81,1.74,4.88-.21,7.62-5.71,6.52.8,7.85-1.35,14.55,8.6,12,2,7-6.87,6.32-11.83,7.39C340.45,125.87,338.11,112.44,335.36,98.68Z"/>
    <path d="M350.15,97.6C359.4,93,358.17,118,365,118c5.42,0-4.59-26.27,6.53-23.12,2.47.7,5.64,29.93,6.91,34.82-12.14,3.38-4.78-20.15-8.47-19.49-3.32.59.63,22.13-2.82,22.86-1.72.36-9.79-21-10.82-20.3-2.42,1.61,1.76,18.65,2.22,21.65C351.46,135.66,351,104.31,350.15,97.6Z"/>
    <path d="M394.65,109.7c-2.76-24.39-22.84-20-17.8,4.12C381.28,135.06,397.07,131,394.65,109.7Zm-5.51,15.19c-8.32,2.32-15.81-26.62-6.52-27.9C390.6,95.9,395.56,123.1,389.14,124.89Z"/>
    <path d="M391,90.95c6.41-1.43,15.33,16.55,16.2,15.93,2.16-1.54-1.65-15.34-2.15-18.22,2.32-.25,6.6-1.41,8.24-.37,1.43.91,2,9.21,4.26,9.06,1.58-.11,2-9.25,3.25-10.28,7-5.6.83,6.72.84,6.27-.23,5.31-1,10.42-.39,15.85.56,4.88,5.14,12.19-2,12.75-.27-2.15-2.94-32-9.41-29.91-4.1,1.31,6.83,27.91,3.56,29.91-2.16,1.33-10.42-16-14-15.66-4.33.46,7.33,18.54-1.61,19.16C397.1,113.25,395.27,102.39,391,90.95Z"/>
    <path d="M188.41,386.8q2.72-1.09,3.7,1.34C191.8,393.84,181.58,388.62,188.41,386.8Z"/>
    <path d="M184.17,390.49l1.41,2.76h-3.5Z"/>
    <path d="M154.12,313c0-9.16-13.88-4.52-9.81,4.58S154.12,320,154.12,313Zm-8.82,0c0-4.3,7.06-4.35,6.78.4C151.85,317.56,145.3,316.68,145.3,313Z"/>
    <path d="M359.13,316.54c0-9.49-14.37-4.68-10.16,4.74S359.13,323.7,359.13,316.54Zm-9.13,0c0-5.17,8.32-3.77,7,.84C355.87,321.13,350,320.56,350,316.54Z"/>
    <path d="M256.3,371.6c.28-1,6.93,1.52,5.45,3.23S255.77,373.57,256.3,371.6Z"/>
    <path d="M266.12,372.48c4.71-6.6,4.9,2.86,3.56,2.35C269.43,374.73,263.15,376.64,266.12,372.48Z"/>
    <path d="M265.34,377.18q-1.51,3-3,0Q263.83,374.16,265.34,377.18Z"/>
    <path d="M108,389c-2.77,0-2.77-6.35,0-6.35S110.75,389,108,389Zm0-5.28a2.82,2.82,0,0,0,0,4.2A2.82,2.82,0,0,0,108,383.77Z"/>
    <path d="M120,366.59c3.57-2.94-8.7,1.42-6.43,1.68-4.43-.5-1.53-.43-3.17-3.23-1.06-1.81-4.43,1.61-4.09,2.94.47,1.83,4.8,2.46,5.32,3.58.25.53,4.64,15.58,6.71,11.4,1.24-2.51-3.07-5.15-3.2-7.68C114.89,370.45,115.54,370.26,120,366.59Z"/>
    <path d="M121.33,359.15c-.24-.25-3.32-4.53-4.41-3.48C111.34,361.05,123.93,361.87,121.33,359.15Z"/>
    <path d="M110.08,344.33c-2.44.36-1.88,14.45,0,14.82-4.14-.81,8.27-8.67,6.8-6.44C120.73,346.82,119.48,342.94,110.08,344.33Zm1.45,2,3.93.22c-.66,3.93-1.69,2.09-4.21,3.91A8.74,8.74,0,0,0,111.53,346.31Z"/>
    <path d="M120,328.67c-2.42-9.81-7.72,2.73-9.2,3.27-.34-.89.51-6.45-1.07-6.44-2.51,0-.44,9.66-.68,11.63-.17,1.44-3.39,4.9-3.3,5.25.43,1.76,8.94-.19,9.39-1.49.66-1.92-5-2.5-4.07-5.79C111.49,333.72,122.34,338.08,120,328.67Zm-4,4.79c-2.37-2.24,1.76-2.37,0-5.57C118.19,328.66,119.37,332.1,116,333.46Z"/>
    <path d="M377.77,443.8c-1-3.29-8-1.92-6.87,2.33C372.12,450.9,379.27,448.89,377.77,443.8Zm-2.32,2.76c-1.9,1.13-2.62-.59-2.27-2.18C373.94,444.39,377.87,445.11,375.44,446.56Z"/>
    <path d="M389.78,438.77c-.34-4.86.3-9.61-3.84-12.21-9.21-5.78-11.1,8.71-9.17,9.1,2.16.44,7.67-5.88,8.44-7.2,4.92,2.93-6.23,14.44-6.23,14.46C379,445.6,390.22,445,389.78,438.77Zm-11.7-6.58a4.64,4.64,0,0,1,5.42-5.13A18.1,18.1,0,0,1,378.09,432.19Zm8.52,9.72-2.38.43c1.11-2.1.86-4.74,3.11-6.28A5.8,5.8,0,0,1,386.61,441.91Z"/>
    <path d="M384.62,412.72c-1.23-3.79-5.12-.4-5.09,2.32C379.59,421.35,386.8,419.42,384.62,412.72Z"/>
    <path d="M391.08,413.67c-.44-7.56-10-6.79-4.44,3.07.76,1.33-2.41,2.06-.57,3.51C391.29,424.37,391.26,416.85,391.08,413.67Z"/>
    <path d="M386.21,387.64c-1.91-10.8-5.47,11.18-.36,4.92A6,6,0,0,0,386.21,387.64Z"/>
    <path d="M391.43,393.94s.36-9.63-2.3-8.25c-.79.41-3.48,14.25-4.41,11.05C386.54,403,391.65,401.86,391.43,393.94Z"/>
    <path d="M396.39,381.72c0-1.08-6-7.52-6.89-4.45.45-1.66,1.31,6.48,1.18,5.22C390.93,384.86,396.39,384,396.39,381.72Z"/>
    <path d="M394.74,369.76c-7.76-16.74-18,11-10.68,11,4.31,0-3.81-15.47,5.86-12.06-.36,2.59-4.88,4.23-3.35,6.61C388.6,378.51,397.06,374.75,394.74,369.76Zm-4.84,4a8.92,8.92,0,0,0,2.07-3.93C394.27,371.82,392,373.71,389.9,373.78Z"/>
    <path d="M392,337.82c-1.13-1.52.82-8.22-1.75-8.59q-3.65,1.2-1.66,6.36a6.68,6.68,0,0,0-5.61.26c.45-1.23,2.32-6.48.79-7.38s-4.48,9.88-3.5,10.6S391.9,337.69,392,337.82Z"/>
    <path d="M391.59,356.75c-1.23-3.05-3.84-16-10-5.85-4.62,7.6,9.28,4.1,6.38,9-1.7,2.88-4.89-2.78-6.71-1.48-3.26,2.32,4.5,6.18,6.32,5.77C389,363.91,394.44,357.54,391.59,356.75Zm-5-7.08c4.86.28.07,2.41,1.64,3.91a6,6,0,0,0-4.26-3Z"/>
    <path d="M260.69,163.32c-.4,2.47-9.8.19-9.05-.15-1.58.72-5.19.14-1.52,2.84-.45-.33,4.94,2.4,4.44,2.4C255.86,168.42,261.18,164.33,260.69,163.32Z"/>
    <path d="M78.24,51.56c-1.34-.49-4.45,1.19-2.36,2.41C76.49,54.33,80.94,52.54,78.24,51.56Z"/>
    <path d="M84.87,42.34c-2.75-5.2-11.56,2.7-7.07,7C81.12,52.5,86.44,45.31,84.87,42.34Z"/>
    <path d="M434.29,53.94c-1-.23-3.87,1-3.06,2.44-.27-.46,4.36,1.86,3.64,2.06C436.24,58.06,436.57,52.64,434.29,53.94Z"/>
    <path d="M447.58,52.25c-1.29-.62-9.6-.45-9.34-1C432.89,61.91,454.17,55.42,447.58,52.25Z"/>
    <path d="M434,46.52c-3.88-9.86-9.58,2.42-4.5,4.71C433.9,53.22,435.53,50.39,434,46.52Z"/>
    <g>
      <path d="M311.1,292.23c-.94.56-5.48,3.63-2.94,5.15-.53-.32,6-.87,5.38-.29C314.35,296.34,311.92,292.31,311.1,292.23Z"/>
      <path d="M314.61,289.09c-4.73,3.75,2.95,5.08,3.43,5.89S319.54,285.18,314.61,289.09Z"/>
      <path d="M309.69,288.42c0-2.9-6.47-2.35-6.35,1.92C303.47,295,309.63,292,309.69,288.42Z"/>
      <path d="M316.4,275.84c-19-6.13-28.44,23.34-9.52,29.46S335.48,282,316.4,275.84Zm-1.22,27.82a14.65,14.65,0,0,1-9-1.48c-3.77-2.09.16-2.7-1.8-5-4.22-5-2.89.58-3.6-6.2-2.14-20.53,28.18-13.55,21.39,7.45C322.33,297.89,314.89,303.73,315.18,303.66Z"/>
      <path d="M189.57,297.45c-.61-.09,5.23-3.07,4.87-2.3.63-1.34.7-2.21.43-2.74,4.09,2.23,2.2-6,1.68-5.37-.33.4-8.43-.18-3.17,4.3l.54.44C191,291.24,183.35,296.49,189.57,297.45Z"/>
      <path d="M187,293.08c4.72-6.32-4-3.72-4.38-4.14C182.63,289,182.51,299,187,293.08Z"/>
      <path d="M174.78,291c1.48,19.87,32.35,17.52,30.87-2.3S173.29,271,174.78,291ZM181.72,280c13.88-11.52,27.63,13.37,15.71,21.08-3.08,2-6.88,1.36-10.1.76,2.42.45-6.54-5.52-4.54-3C179.79,295.24,175.64,285.09,181.72,280Z"/>
      <path d="M498.56,262.64c-2-7.38-25.43-2.15-30.63-2.83C450.86,257.6,440.46,243.87,427,234c4.46-4.87,32.44-27.61,28.06-34.73-5.13-8.35-34.64,7-42.64,6.24,4.7-10.41,15.28-17.17,19.69-27.79,4.27-10.29,1.67-17,4.55-27.39,5.75-20.82,54.26-53.87,3.84-45.6,9.8-1.61,13.4-32.83,2.5-37.73,13-5.95,18.79-27.23,4.57-34.9-20.69-11.17-27.43,16.79-23.63,30.65-12.31-.7-20.14-.79-27.82,8-10.51,12-.78,12.51-17.4,16.2-2.7.6-5.3,1.66-7.32,1.94-1.71.24-4.86-1.05-7-.75-.33,0-9.26,5.15-7.83,5.12-5.73-.26-12.39-3.1-20.37-2.36-15.21,1.41-30.69,2-45.82,4.1-27.12,3.72-27,2.17-34.77-24.19C247.42,98.2,248.89,98.35,219.32,97c-4.12-.2-13-.69-17.23-.86l1.6.12c-11.59-.78-23.21-1.39-34.77-2.18-3.73-.41-15.31-1.44-18.41-1.91-7.51-1.14-30.16-2-35.44-7.3-3.63-3.6.81-13.94-1.82-18.14-5.11-8.15-15.86-6.66-24-6.55C99.4,47.4,87,25.33,70.43,30.46c-15.75,4.88-9.23,24.74,1.31,32.35C50,67.33,63.28,84.63,64.83,98.71l-27.73.93c19.05,30.85,45.21,66.19,52.5,102.15-12.47,1.45-30.07-8-43-9.34a178,178,0,0,1,30,36c-11.93,6.92-21.66,19.17-34.93,23.75-12.84,4.43-27-.19-39.75,4.95C19.26,268,37.26,278,53.61,290.42c9.39,7.12,33.1,19.2,39.62,25.87,16,16.36-13.66,61.84,1,80.27-6.8,7.66-1.4,15.54,5,6.51,0-.73,10.51,20.55,8,20.75,3.41,0,5.47-21.51,7.36-23.39,5.39,5.37-1.11,18.89,3.75,24,7.64,8,5.21-13.6,6.62-18.25,1.85-6.09,6.43-8.69,8.1-15.59,1.37-5.67,1.69-16.43,1.56-22.19-.39-17-3-31.72-1.65-49.36,9.63,24.66,8.09,22.39,32.7,24.12,13.52.95,23.54,3.8,21.37,19.73-1.1,8-22.77,36.69-2,38.29,9,.69,15.48-22.88,18.12-22.58-.11,0,3.21,8.55,3.93,9.74,6.12,10.59,13.57,20.8,20,31.29l-3.84,1.08c1.84-1.24,21.17,27.39,21.17,27.39,13-16.82,27.39-41.92,38.77-56,5.09-6.3,10.79-4.22,15.61-13.44,2.93-5.6,1.61-11.09,4-16.53,8.13-18.66,17.33-17.7,35.21-17.91,23.73-.28,18,3.92,29.79-28.07-2.78,7.56-1.3,44.88-1.46,51.56-.71,29.49,1.42,59.42-3.9,88.6,2.12-1,5-.48,7.23-1.3.08,1.14.69,20.67,1.63,20.67,2.39-.15,8.32-22,9.93-24.39.88,3.53,6,1.8,8.14,4,3.05,3.24-1.14,9.49,2,12.34-.27-.24,9.14-15,9.83-16.68,5.19-12.69,5.67-27,5-41.18a471.16,471.16,0,0,1,.41-58.28c.8-11.68-3.33-27.8,6.57-33.86,10.84-6.64,29.78-21.25,41.74-28.58C460.89,285.39,500.4,269.33,498.56,262.64Zm-39.09-.77c-13.71,13.73-30.57,26.34-48,34.84-19.41,9.45-25.85,8.31-41.51-6.39,27-1.79,41.44-33.71,55.06-53.81ZM451,200.74c-8.26,12.74-19.84,22.91-29.26,34.74-10.64,13.38-19,32.79-32,43.86-11.41,9.71-25.85,8.18-40.45,8.64-16.55.51-11.94.9-22.05-11.11,18.34,2.68,41.62,4.73,57.08-7.44,18.64-14.68,23.69-43.13,36.4-60.67C423.81,204.43,446.83,201.39,451,200.74ZM298.55,346.64c-1.18,1.41-2.11,1.62-3.15,3.55-2-2.34,5.95-21.06,9.6-20.45C303.53,334.32,296.6,340.89,298.55,346.64Zm-105-11.54c4.43.17,4-9.08,4.12-11.58,4.46,6.83,11.83,7.7,15,10.51-.13-.12,5.43,5.61,6.8,6.69,6.65,5.23,18.12,9.06,23.48,13,5.12,3.76,5.5,11.83,4.93,17.14-6.39-.73-20.17-16-26.27-19C211.54,346.94,199.51,345.76,193.52,335.1Zm13.23,29.66c-5.51-2.94-5.71-16.55-8.81-21.72C204.19,343.12,208,360.71,206.75,364.76Zm-26.51-38a22.31,22.31,0,0,0,1.41,6.6c-5.82-1.9-6.25-14.29-4.27-18.76,4.44-10,1.87-5.41,12.77-5.41a3.06,3.06,0,0,0-.05,1.13C176.81,310.61,180,313.47,180.23,326.73Zm-3.68-88.67c-2.52-7.95-10.06-21.69-9.48-29.95.64-9.12,6.68-15.19,12.71-23.39,8.73,30,16.74,60.24,24.89,90.42a20.43,20.43,0,0,0-19.13-5.65C187.91,263.62,178.68,244.79,176.55,238.06Zm34.21-56.14c2.15,7,14,27.7,22.87,23.14-4.59,6.79-5.4,33.69-5.85,42.83-15.42-21.66-28.64-38.5-24.08-65.13,2.6-15.17,3.19-27.26,6.37-37.61C208.8,156.3,209.91,179.13,210.77,181.92Zm29.05-61.65c7.22,8.91,22.45,10.52,30.58,1.91-.7,12.3,5.23,27.42.09,38.21-.54-.54-1.53-1.54-2.24-2.41.07-2.31.37-4.66-1.35-6.38,0,.35-11.39-2.56-10.66-2.56-8.93-.77-16,4.71-15.45,13-4-1.64-1.86-28.2-1.86-28.19A112.93,112.93,0,0,0,239.82,120.27Zm.44-5.08c.66-9.35,10.46,2.74,14,2.57C259,117.54,267,108,270.63,113,278.1,123.25,239.12,131.4,240.26,115.2Zm34.45.08c14,8.19,20.39,16.93,24,27.82a6.06,6.06,0,0,0-1.8-1.55c-3.19-1.72-21.21,18.84-24.64,20.33C280.18,149,268.87,130.41,274.71,115.27Zm-1.9,90.78c16.15,4.61,29-29.81,28.91-50.41.92,5.29,1.65,11.06,2.53,17.42,2.14,15.54,4.81,24-2.75,38.08-6.85,12.79-14.33,25.41-24.08,36.25l-.52-.32C276.24,236.57,281.36,212.14,272.81,206.05ZM238.37,132c-.33,2.39-.65,5-.92,7.55l0-.24c-1.22,7.9-.43,13-.41,20.72-3.28-1.94-20.06-21.19-24.68-21,4-8.82,11-16.43,24.35-23.83C238.3,118.79,238.56,126.32,238.37,132Zm-24.5,99.23c2.34,3.59,9.43,20.66,14.27,20.39,5-.3,6.22-43.84,10.23-49.59-30.54,5.49-25.7-42.21-24.91-60,5.29,5.67,13.42,18.43,21.91,19.54,12.49,1.64,1.75,1.26,8-7.16-1.31-1.31,23.35-.88,23.15-.85a29.73,29.73,0,0,0,1.76,5.32c.52,1,1.67,2.66,1.65,2.69C276.32,168,288,151.86,295.53,144c2.7,21.89,2.79,59.91-28.22,59.91,9.34,8.64,3.29,37.77,9.16,43.14.1.42,1.62,2.24,2.34,2.08,10.61-2.3,25.45-38.48,30-47.52.85,4.71,0,11.63-1.13,17.19-4.22,8-9.32,21.38-12.21,28.87C287,262,276.34,275.1,267.19,282.5c1.3-15.19,3.65-30.2,2.83-45.48-.57-10.56-7.49-28.47-2.94-38.1,3.56-7.54,15-8.43,20.21-14.28,8.21-9.24,7.09-19.94,5.9-31.7-10.61,9-21.17,15.79-31.58,18.62,4.84-5.91,3-18.36-6.72-17.19s-13.57,13.79-5.31,18.59C238.19,172.38,227,166,216.3,151.4c-.24,11.87-3.39,24.89,4.7,34.64,5.27,6.35,17.8,7.78,21.79,15.07s-4,22.79-5.31,30.27c-2.8,16.38-1.43,33.19-.82,49.69a192.52,192.52,0,0,1-40.58-71.76c2.39-.89,2.15-3.69,3-7.15C203.43,212.24,207.93,222,213.87,231.23Zm85.38,29.11c-5.81,13.25-14.71,13-25.66,21.69-6.6,5.27-12.52,11.76-18,18.17-.19-16.28-.42-33.3,12.09-43.61-.21,3-5.9,27.68-1.47,28.88,7.88,2.11,25.64-29.57,28.17-33.92a35.69,35.69,0,0,0,1.94-4.32c5-8.94,10-19.7,12-28.51,1.93-3.41,4.19-7.28,6-7.82C309.17,226.85,305.92,245.1,299.24,260.34ZM325,186.1c12.47,16.6,13.09,19.91,6.23,40.48-3.09,9.27-9.68,38.87-19.1,44-1.14-.26-4.64.59-5.9,1.13a13.2,13.2,0,0,0-8.91,4.21C306.17,245.87,316.1,216.15,325,186.1Zm-31,94c-3.85-1.63-32.35,25-34.21,28.08-6.33,10.33-6.24,8.33.4,10.63-1.05-.36,27.41-2.57,16.25,6.76-14-7.47-19.21-4.17-25.57,12.91.11-5.77-3.9-74.71,6.25-74.17-1.21,5.39-8.7,36.67-2.85,38.86,2.48.93,34.94-29.35,40.94-31.37C295.14,272.08,291.81,279.22,294,280.15Zm-.84,35.2c4.76-11.09,25.08-5.31,3.35,5C297.12,316.4,293,317,293.16,315.35Zm-52.08,31c1.3-4.05,19.18-6.25,22.28-3.83C266.82,345.18,244.29,346.93,241.08,346.31Zm7.57,2.2q-.08,5.07-.23,10.15C245.12,355.47,242,348.77,248.65,348.51ZM195.1,316.08c-3.93-4.52-4.22-6.16,1.11-7.85-2.52,6.17,13.28,19.21,17.48,23C208.78,336.94,198.22,319.69,195.1,316.08Zm-.83,16.6c-1.25,3-2.36-15.46-2.26-16.91C196,320.7,196.91,326.29,194.27,332.68Zm16-45.11a19.63,19.63,0,0,0-1.62-6.5c9.82,6.91,24.06,17.85,22.49,31.82-4.24-.83-7.94,1.25-10.56,4.39-2.59-5.88-7.75-14-14.39-16A20.66,20.66,0,0,0,210.22,287.57Zm37.3-23.21c4.65.79,1.35,69.62,1.16,76-.71-2.46-11.45-20.22-19-22.53,6,.14,12,1.34,10.86,2.06,6-3.8,2.59-5.07-2.19-12.51-9.1-14.17-27.28-20.89-31.75-37.63,3.57,2.21,38.26,35,39.62,34.2C251.42,300.83,248.19,272,247.52,264.36Zm-12.86-89a45.58,45.58,0,0,0-6.17-4.95c8.63,3.61,11.37,9.17,15.64,17.1-13.27,3.74-19.86-6.13-19.21-17.63,1.59,10,6.87,11.53,16,13.41A64.61,64.61,0,0,0,234.66,175.38Zm20.91,13.74c4.44,1.55,4.95,7.81,9.79,9.26-4.76,3.66-2.05,7.63-1,12.84-11.43-14.6-4-24.59-19.09-5,2.17-9-3.47-9.25-10.42-13.24C241.11,190.5,249.33,186.94,255.57,189.11Zm-5.31-20.19c-14-15.32,20.35-13.76,11.14-2.16C257,172.27,254.77,173.86,250.26,168.92Zm35.47,1.78.61-.19c-.61,14.71-8,23.44-22.35,17.58,2.48-4.11,6.46-9.43,10.68-12.25a56.81,56.81,0,0,0-6.81,7.48C277.11,182.23,283.76,180.57,285.73,170.7Zm0-.07h0a6,6,0,0,1,.59-.17h0Zm-37.63,43.59c11.23-2.45-5.68-13.28,9.3-7,1.83.77,8.32,11.2,8.53,12.48-1.76-1.44-3.08-1-3.94,1.17a3.35,3.35,0,0,0-1-1.63c-.33-.52-.87-1.26-1.17-1.74l-2.13,3.39c-4.91-7.13-17.87,7.8-14.15-7.53A11.06,11.06,0,0,0,248.11,214.22Zm19,21.57a1.8,1.8,0,0,0,.71.2q.26,3.24.28,6.5l-2.23-.63C266.24,239.81,266.73,237.8,267.15,235.78Zm-4.32,6a21.24,21.24,0,0,1,0-7.73C267.21,231.79,267.26,241.71,262.83,241.78Zm3.35-15.35c-2.72,5.81-3.13-1.16-3.82-2.74C260.76,220,270.06,218.08,266.17,226.43Zm-11.09,2.82c-2.27.47-2.3-7.2.1-8.1C257.76,220.18,259.33,228.39,255.08,229.25Zm2,13.38a7.51,7.51,0,0,1-4.27.48C253.08,231.7,256.57,230.79,257.09,242.63Zm2.16-8.65c5.32.13,2.91,6.73-1.11,8.23C258,239.76,256.46,233.92,259.25,234Zm.6-15.38a4.32,4.32,0,0,1,1.11.67l1,1.6c.49,2.72-1.88,6.82-3.42,7.32C258.44,227.22,258,218.85,259.86,218.6Zm-13.83,11c-1.48.44-1.5-6.69.06-7.53S248.8,228.81,246,229.61Zm.62,12.6c-4.89-1.57-5.53-6.59-.29-7.26C246.44,237.12,247.17,240.12,246.65,242.21Zm5.31-8.33c-.08,3.05-.14,6.1-.22,9.14C244.78,242.49,246.3,235.06,252,233.89Zm-3.38-4.41c0-9.93,4.83-10.07,4.09.13Zm-4.73-6.74c.25,2-.49,4.6-.71,6.58a11.24,11.24,0,0,0-3.05-.24c.57-3,1.19-5.94,1.88-8.9Zm-2,12.26c.75,2.73.34,7-3.53,6.14q.26-3.47.82-6.91Zm-1.41,9.39c7.23,0,18.88-.16,25.92,1-3.71,7.9-6,18.79-17.38,13.81C246.64,258.17,239.79,244.4,240.49,244.39ZM236.81,337c-2.79-2.47-6.71-3.18-9.06-5.95,4.71-4.71,15.69,5.27,17.06,10.06C239.34,342,241,340.71,236.81,337Zm2,9.88c-7.28,1-7.36-7.66-8.4-11.39C237,338.72,238.2,341.09,238.82,346.86Zm4.6-11.31c-5.25-2.81-11-12.09-17.12-6.1C220.86,323.88,241.46,318.45,243.42,335.54Zm-20.8-9.46c-7.3-6-2.45-7.95,4-8.25C224.77,318.62,223.31,321.1,222.62,326.09Zm9-22.47c3.07,4.22,5.95,8.57,8.71,13C232.32,312,234.58,312.38,231.58,303.62Zm-18,6.08c3,4.45,5.72,7.93,5.27,13.37-6.64-5.25-8.65-13.79-15.24-19.06C206.4,301.47,211.71,307.73,213.55,309.69Zm-9.36-1.31A82.33,82.33,0,0,1,211,318.86a4.64,4.64,0,0,0-4.11,2.62c-2.69-3.1-5.79-6.34-8-9.83C200.51,310.68,202.44,308.94,204.2,308.38Zm8.42,19c-15-12.84,20.74,2.47,15.68,9.77C226.18,340.26,213.44,328.1,212.62,327.4Zm12.52,11.73c6.28,6,9.77,9.33,18.21,9.48-.07,6.24-22.77-5-22.83-11.95Zm39.5-9.7c2.86-1.71,8.1-4.49,10.72-2.34-3.75,4-17.19,15-22.89,13.32C254.33,335.26,260,332.18,264.63,329.43Zm-9.24,3.73c2.31-5.1,6.42-14,17.39-8.91C266,326,261,329,255.39,333.16Zm7,18c-2.67,1,1.5-10.69,6.43-3.57A50,50,0,0,1,262.43,351.16Zm6.93-1.34c-1.12,7.37-2.75,4.4-8.17,6.68-.05-1-.11-2.1-.15-3.14C263.78,354,267.25,351.13,269.35,349.81Zm-5.57-9.41-2.47-.27c2.35-2.61,9.4-8.5,13.31-7C283.56,336.44,263.54,340.48,263.78,340.4Zm-4.7,17.08c-1.91,1-5.41-9.09-.49-9.64C258.75,351.06,258.92,354.27,259.08,357.48Zm-5.26-9.24c-.83,2.4-2.12,4.72-3.15,7C250.78,350.58,249.07,348.54,253.82,348.24Zm.73,3.62c1,4.76,1,18.34-4.58,19C250.76,362.88,251.38,359,254.55,351.87Zm11.89,6.63c10.71,3.2,3.7,17.52,1,23.68-2.55-3.45-4-1.82-6.63.25-.46-1.31-5.88-10.91-6.4-10.26C258.14,367.43,258.39,356.1,266.45,358.5Zm3.2-1.31c4.87-8.26-1-9.06-3.42-15.13C277.54,340.47,272.7,360.36,269.65,357.19Zm2.45-15c4.65-2.89,5.84-6.07,9.55-8.77C284.5,339.59,276.44,347.52,272.1,342.22Zm8.43-10.62-3.82,1.82c-8-1.64,19.2-16.65,17.18-12.95C291.38,325.09,284.66,328.6,280.53,331.6ZM291,315c-.29,2.07-2.67,4-4.78,4.95-1.81-7.29,9-16.39,15.65-12.62C300.13,308.22,291.47,311.91,291,315Zm-7.52-1.32c-3.44,4.32,3.53,7.09-4.09,11,0-6.93-3.95-11.81-11.49-11.23,5.56-13.27,11.73-21.94,24.48-28.7a20.48,20.48,0,0,0,5.81,19.87C292.32,307.12,287.64,308.5,283.53,313.67Zm-18.1.26a12.59,12.59,0,0,0-7.39,3.14c4-7,8.1-14,14.86-18.62A115.82,115.82,0,0,0,265.43,313.93Zm-55.34-66.11c4.8,7.38,13.87,32.31,23.14,34.23,10.8,2.24,4.75-19,4.7-26.18,3,6.52,6.08,8,8,15.21,2.26,8.3.94,21.36-.18,29.83-11.07-12.18-31.86-23.39-40.15-36.83-8.91-14.46-11.29-39.54-15.67-55.72C196.66,207.93,206,241.55,210.09,247.83Zm-21.32,22.72c25.34-1.89,26,38,.62,37C166.59,306.55,166.28,272.21,188.77,270.54Zm-6.4,41.07c0,.73,7.56.84,7.7.84l-.84,12.86c-2-1.85-4.5-3.81-6.88-1.13C182.3,320,181.63,315.77,182.37,311.61Zm2.51,13.29c3.56-1.12,11.76,20.26,10,22.33C190.88,351.85,177,327.41,184.88,324.9Zm47,61.86c-5.54.28-14-8.34-17.16-12.47C220,373.09,230.43,382,231.85,386.76Zm15.5,4.27c.29,9.23-21.48-2.75-23.23-1.7C226.8,386.47,243.68,391,247.35,391Zm.2,9c-3.62,6.23-5.9-2.46-5.93-4.25C243.49,396,249.7,396.35,247.55,400Zm-7.8-1.08-3.35-.09.19-3.78Q241.06,394.32,239.75,399Zm6,4.29c-1.1,2.2-7.83,11.51-8.82,11.52L236.41,401C240.15,401.24,242,403.2,245.78,403.26Zm-3.7,6.14c1.06-3.83,8.89-.18,5.37,6.65C243.4,415.2,241.06,413.11,242.08,409.4Zm4.82-2.48c-1.48-2.3,4.94-7.28,4.54-9.36C254.57,399.69,249.45,407.82,246.9,406.92Zm-5.78-18.74c2.53-2.6,24.52-2.86,23.68-.93C263.24,390.87,243.55,388.91,241.12,388.18Zm27.5,10.6c-1.74,3.1-11.44,2.4-14,1.39C259.55,400.17,263.49,394.89,268.63,398.78Zm-4.11-6.58c-5.86-9.22,28.73-13.46,22.62-9.11C284.24,385.16,267,393.51,264.51,392.2Zm25.66-30.34a16.82,16.82,0,0,0-1.19,7c-4.74,2.3-2,4.69-5,6.95-1.87,1.38-4.38,1.72-6.35,3.08C276.86,375.72,287.1,361.32,290.18,361.86ZM287,374.75c1.28-5,3-2.05,5.93-2.42q-1.92,3.42-3.95,6.75Q284.41,377.76,287,374.75Zm-10.75-20.93a19.87,19.87,0,0,0-.6-6.71c7.38-4.39,6.62-13.07,9.57-15.54,4.85-4.07,15-5.06,21.39-8.69-1.51,4.15-12.54,21.54-15.71,25C287.39,350.68,280.3,351.32,276.22,353.81Zm26.48-14.89q1.11-2.19,2.15-4.42c1.57,1.53,1.4,2.69,4.21,2C306.8,347,295.76,349.85,302.7,338.93Zm5.79-4.51c-5.3,1.32,4.55-16.65,6.37-18.13C314.46,320,312.69,333.4,308.48,334.42Zm0-15.14c-2.5,1.45-15.36,10.71-18,7.7,4.92-4,18.62-16.27,24.82-17.36C315.08,315,311.83,315.35,308.51,319.28Zm-2.34-11.77c-19.35-6.26-14-32.16,1.59-35.88,1.1-.16,3.17-.48,3-.45C338.25,263.49,332.53,316,306.16,307.51Zm111.33-98.33c-2.14,10.15-31,55.34-38.91,60.17-10.58,6.47-53.18,12.79-57.54-.53-2.09-6.4,15.22-56.86,21-61.5C356,196.19,402.21,207.76,417.49,209.18Zm15.67-42c-12.34,25.41-22.87,45.22-54.83,34.58-15.9-5.29-13.37-8.58-1.4-16.53,16.68-11.09,33.34-21,49.28-33.62C427.84,153.89,434.78,163.69,433.17,167.17Zm-26.63-4c-7.13,6.25-14.67,12.1-23.12,16.46C388.52,165.31,391.5,169.14,406.53,163.17ZM385.76,150.3c2.9-15.39,27.5-19.87,43.21-27.3,3.27,21.43,4,24.68-18,36.06C394.61,167.55,382.49,172.9,385.76,150.3Zm62.51-43.82c3.47-.42,9.36-.88,12.63.7-8.73,16.47-19.81,32.06-29.78,47.79-6.55-10.08,37.24-44.43,9.08-41.57C440.79,105.16,440.31,107.46,448.28,106.49ZM446.87,72c-1.3,3-5.43,3.94-8.29,5,4.13-3.36,4.09-5.86-1.4-7.87C439.72,67.36,445.78,68.84,446.87,72ZM432,79c.8-.76,2.79-12.1,7.73-6.16C438.3,75.23,434.18,77.62,432,79Zm4.41-12.26c-8.29,3.42-11.13-5.88-12-12.37,4.31,8.67,11.95,8.53,20.41,9A22.68,22.68,0,0,1,436.45,66.79ZM425.83,41.08C438,32.94,454.53,28.51,451.5,49,448.06,72.34,417,54.9,425.83,41.08Zm-1.45,26.24c8.38,8.08,6.91,13.27-5,9.9Q421.88,72.27,424.38,67.32Zm-7.09,9.29c-3.52-1-12.8-2.22-15.07-5.81,3.29-3,15-1.93,19-1.9Q419.24,72.76,417.29,76.62Zm-18.18-8c4.8-5.17,17.93-4.08,24.11-3.75-3.72,5.6-21.84-2.36-22.92,5.33-1,7.11,19.92,9.56,24.39,10.77C419.51,82.07,394.14,73.95,399.11,68.57Zm-2.36,5.27c6.35,3.67,13.18,6.08,20,8.62-7.43,1.26-14.92,2.25-22.43,3A83.83,83.83,0,0,1,396.76,73.84ZM271.89,100.38c16.62-.59,33.17-4.19,49.71-5.89,9.68-1,25.82,1.43,32.9,0,27.15-5,64.14-5.28,90.11-17.65-5,11.11-2.21,30.56-9.78,39.57-9.53,11.35-32.09,15.45-44.91,18.56-18.46,4.49-35.5,12.4-53,19.83-13.38,5.69-19.11,2.2-31.05,7.71-1.08-10.42-1.89-57.65-16-56.28q1.45,6.32,2.89,12.64c-9.56,2.87-10.59-4.25-11.23-11.5-3.83-.22-7.8,0-7.26,3.94-5-2.77-9.48-3.74-9.76-10.28Q268.19,100.6,271.89,100.38ZM255.54,82.13q4,13.68,8.11,27.38l-16.17-.18Q251.51,95.73,255.54,82.13ZM111.28,68.69c.48,5.67.88,11.34,1.28,17-4.38-.54-12.68-2.12-19.69-3.5-2.58-.75-5.86-1.83-8.42-2.65C93.42,76.21,103,73.48,111.28,68.69ZM76.85,65.49c5,2.18,14.23,2,15.65,8.36C81,78.78,81.17,75.64,76.85,65.49Zm3.33,13.28-1.41-.06c-5.6-1.85-9.95-3.8-11.7-5.76a6.67,6.67,0,0,1,2.22-2.71C77.41,65.32,77.45,72.34,80.17,78.77Zm.76-18.67a14,14,0,0,0,5.4-6.65C89.21,58.6,87.55,61.27,80.93,60.11Zm10.08,6c4.25-.09,10.83-.82,14.86,1.09C100.09,72.29,92.8,76,91,66.14Zm20-.6q.63,2.4-3.08,2.52c3.27-4.07-16.08-4.07-18-4-.3-.58-.59-1.17-.89-1.75C91.5,62.25,110.52,61.5,111,65.54ZM89.67,55.4c-1.65-4-2.19-3.64.43-7.23A12.2,12.2,0,0,1,89.67,55.4Zm-.82-15.14c-2.32-.66-5.51-5.21-6.14-6.72A10.34,10.34,0,0,1,88.85,40.25ZM67.71,56.14,64.5,51.24c1.46.53,10.25,4.47,10.67,1,.72-6.1-8.77-5.89-11.9-4.32-5.44-21,23.92-17.5,25.22-3.72C89.81,58.27,74.43,53.37,67.71,56.14Zm1.56,1.7c3.83-1.14,5.14,1.44,5.06,4.12A31.46,31.46,0,0,1,69.26,57.84ZM62.33,80.32c-3.09-9,1.51-15,11.81-15.68.19.46.39.91.59,1.37-7.16,1.93-9.23,4.68-8.12,6.88-1.53,3.71,6.83,6.44,11.55,6.29,1.78.41,4.1.92,6.49,1.43,15.94,3.8,41.35,9.14,43.1,9.44C137.94,91.79,159,93.88,159,93.88s3.73.49,1.21.29c15,1.7,30.55,2.12,45.75,2.75,12.84,1,28.76,1.92,40.63,4-.79,11.3-22.38,17.61-30.21,24.59.44-6,2.77-9.63,6.68-14.06L213.41,109c-1.17,6.43-.95,20-5.53,24.62-2.73-5.54-9.36-33.67-17.79-26.94-3.12,2.49,1.77,36.77-6.89,34.41-4.4-1.21.21-35.76.35-40.43-11.11,0-22.34,29.83-30.12,38.63,10.88,2.23,5.6-7.92,12.38-10,11.44-3.53,4.58-1.1,10.52,5.86,4,4.7-4.67,11.94,7.09,11.55,10.1-.33,5-15.61,10.33-21.19,4.11-4.27,11.12,31,11,32.71-3.14-3.37-16-.67-21.12-1.8-11.58-2.55-22.91-8.65-34.75-11.47a451.73,451.73,0,0,1-84.78-29.4C70.51,105,66,90.94,62.33,80.32Zm114.33,43.1c-1.83.1-4.18-.75-6-1.08l5.56-7.8C176.37,117.5,176.51,120.46,176.66,123.41ZM71.47,142.62l7.91-17.78c11.25,5.07,37.17,9.36,45.08,15.15,8.38,6.13,4.27,23.64,7.83,33.62C111,164.14,91.07,155.18,71.47,142.62Zm58.27,32.22a12.75,12.75,0,0,1-1,4.15c-8-3.88-15.9-6.84-21.26-14.07ZM65.46,143.54c-7.31-14.43-16.13-28.1-24.58-41.88L65,100.85c.62,12.32-11.69,1.1-13.85,6.86-3.06,8.14,5.7,16.38,10.2,22.87,5.68,8.2,29.13,33.28,23,44A256.28,256.28,0,0,1,65.46,143.54Zm19,38.5c2-8.13,4.9-16.11,7.24-24.16,7.18,3.19,53.17,33,49.94,39.53-2.69,5.44-21.91,3.22-26.72,3C99.1,199.64,93.29,196.07,84.43,182Zm13.43,18.83c-5.94.62-7.88.62-7.55-6.61Zm25.45,1.24c21.9-.94,36.2-4.81,44,17.4,2.85,8.13,17.55,38.69,15.27,46.54-3.68,12.69-35.25,8.27-45.83,5.06-24.42-7.39-37.55-45.13-50.08-65.73C98.83,203.91,111.06,202.63,123.31,202.11Zm-54,9.48c-3.76-5.42-8.81-10.15-13.51-14.76,30.93,4.65,38.85,29,54.44,53.27,18,28,34.27,24.08,64.68,25.78A20.7,20.7,0,0,0,170.08,288c-20-2.85-43,2.14-59.86-11.66C91.83,261.27,82.8,230.88,69.35,211.59ZM59.82,242.5c5.85-4.14,12.18-7.69,18.37-11.29,13.22,23.23,23.81,52.63,53.28,56.58-32.75,23.54-62.83-11.07-88.32-32.73C48.67,250.82,54.15,246.53,59.82,242.5Zm71.59,125.61c-.63,7.18.29,19.8-1.81,26.48-.88,2.82-6.41,4-7.34,6.71-1.9,5.53-1.23,10.6-1.88,16.3-.74-4.56,1.28-17.84-4.33-19.56-6.11-1.88-7.31,8.37-7.39,13-8.54-3.5-4.88-18-14.51-8.93.42-2.85,2.09-4.9,2.38-7.74-1.68,0,3.1-66.37,1.62-75.29,12.18,6.52,20.37,2.18,31.89-4.41-.71,10.2-2.82,20.67-2.16,30.92C128.37,352.86,132,361,131.41,368.11Zm-22.33-48c-12.35,1.43-36-20.36-45.09-26.51Q36.92,275.3,9.28,258c32.36-9.21,50,16.48,74.69,32.79,10,6.57,18.51,13.26,30.71,10.48,18.08-4.13,21-12.8,42-10.92C143.65,301.29,127,318.08,109.08,320.07Zm35.35,19.47L140.32,329c10.27,5.69,11.29-5,20.68-6.65-1.18.88-11.36,8.36-7,11.76,1,.8,5.88-2.74,7.33-1.39,2,1.9,5.37,5.9,7.62,7.64C160.76,340,152.6,339.76,144.44,339.54Zm38.08,1.72c-10.87-2.51-9.67-5.3-17.14-10.3l2.64-3.23c-1.42-1.77-11.22,4-12.34,4.74.27-2.4,9.92-9.9,8.84-12-3.05-6.07-16.53,7.34-18.9,9.33a10.33,10.33,0,0,1,.54-2.91c-12.41,4.1-9.52-12.59-6.75-18.23,4.27-8.71,29.22-15.16,30.65-19.66a20.47,20.47,0,0,0,8.13,16.25c-15.46,7.1,5.2,32.43,8.3,38.72A5.65,5.65,0,0,0,182.51,341.26Zm3.22,7.7,2-2.37c2.2,4.85,12.51,17.37,11.86,22C193.87,368.69,185.71,354.13,185.73,349Zm13.43,21.79-1,3.45a8.41,8.41,0,0,0-8.59-3.56C191.39,363.45,194.3,370.81,199.16,370.75Zm-8.8-7.13c.79,1.33-4.26,10.55-4.33,6.4C186,366.93,187.75,364.95,190.36,363.62Zm7.92,21.86c-.22.65-.42,1.29-.63,1.94-2-3.7-6.36,2.68-2.12,3.25-5.09,6.2-2.56,2.64-6.67,2.64-6.28,0-13.67,9.21-10.45-6.21-.39,4.74,5.67-.48,5.77-.51-10.66-1,2.5-21,12.39-11C186.05,384.17,199.74,377.59,198.28,385.48Zm3.16-8.59a7.71,7.71,0,0,0-2.71,3.68c-3-.34,5-11,1.95-15.6C203.74,367.45,204.08,374,201.44,376.89ZM213,382c-7.55-.49-7-10.95-8.42-15.06C207.41,367.64,216.82,377.57,213,382Zm-7.51-3.67c6.53,7.37,12.36,13.2,22.51,15.35-3.85,5.39-14.61-3.13-17.82-5.32C205.94,384,207.33,383.87,205.53,378.34Zm8,14.68c9.35,5.63,13.27,16.13,18.81,25.54C226.29,420,216.81,398.73,213.5,393ZM228,425.09a31.26,31.26,0,0,1-2.74-3.43c5.12-1.8,16.93-7.81,20.87-3.85C241.84,422.88,235.23,427.75,228,425.09Zm39.5-13.46c-6.88,11.33-15,21.85-22.91,32.62l-10-16.69c4.57-1,7.41,7.73,9.71,11.48,10.9-14.1,20.9-42.47,36.09-51.51C280.72,395.18,271.49,405.27,267.54,411.64Zm29.64-35.35c-.6,1.07-12.52,17.69-15,13.41-1.09-1.88,4.08-3.35,4.27-3.71,3.67-6.87,9.59-13.71,13.55-20.7C301.8,368.83,298.81,373.34,297.18,376.28Zm2.71-15.64a17.75,17.75,0,0,1-7,8.27c-2.72.44,3.8-18.09,10.32-19.82Q301.53,354.87,299.89,360.64Zm12-15.38c-1.71,4.12-5.26,10.67-9.06,12.91,2.56-9,5.71-18.46,10.24-26.59C316.48,333.69,312.64,342.33,311.88,345.26ZM354.34,343c-6.83-.48-13.68-.9-20.53-1.15,1.95-1.79,3.9-2.8,2.81-5.79,11.28,4.95,15.35-4,4-10,7.37.62,9.95,8.64,17.55,5.92C356.72,335.63,355.48,339.34,354.34,343Zm5.57-14.68c-1.9,3.61-24.15-5.56-22.57-2.59,2,3.81,7.8,4.65,8,9.8-5,.68-8.92-2.59-11.83-.94.45-.15-2.95,6-4.26,6.94-3.56,2.49-10.53-.25-14.55,1.3,4.16-16.89,2.8-35.41,16.3-47C341.84,286.61,369.56,309.93,359.91,328.36Zm43.53,22.47c-8,36.43,6.88,70.62-10.31,105.22-2.08-4.3-3.24-8.44-8.82-5.61-2.54-10.19-10.43,8.34-10.93,9.34a82.17,82.17,0,0,1-.74-8.6c-1.89.8-4.33.31-6.22,1.12,8-43,2.74-89.49,5.46-133.11,12.82,9.24,19,10.5,33.18,2.72C405.37,331.22,405.46,341.65,403.44,350.82ZM483,269.56c-27.52,14.51-51.22,39.12-80.44,50.1-26.1,9.81-41.87-12.62-60-28.3,17.05-.37,21,1.91,34.77,9.31,16.36,8.8,25.78,4.49,41.76-4.72,13.75-7.93,24.81-20.09,38.27-28,12.25-7.18,22.22-5.64,36.25-4.16C490.18,265.88,486.56,267.7,483,269.56Z"/>
    </g>
  </g>
  <g id="p1">
    <path d="M224.64,168a56.93,56.93,0,0,1,10,7.39,80,80,0,0,1,6.25,7.93s-11.5-2.35-13.44-5S224.64,168,224.64,168Z" style="fill: #863e17"/>
    <path d="M285.75,170.61s-1.61,8.47-5.65,10.15-12.23,2.55-12.23,2.55,5.71-6.86,8.2-8.54S285.75,170.61,285.75,170.61Z" style="fill: #863e17"/>
  </g>
  <g id="p2">
    <path d="M88.65,87.92c10.76-3.29,7.11,15.36,7.44,22.14,5.26-6.7,8.65-23.37,18-18.46-5,11.15-7.46,22.28-10.4,34.06a16,16,0,0,1-5.29-1.43c.84-2.45,7.92-19.52,6.09-20.79-1.32-.92-10.1,20.26-12.37,20.26-1.47,0-.53-22.51-1.79-22.41-6,.5,0,21.48-9.41,18.82C84.72,109.34,88.68,99.41,88.65,87.92Z" style="fill: #433b17"/>
    <path d="M153.09,98.86c-.24,2.78-7.13,35.67-8.87,34.51s-2.7-13-2.19-14.93c1.34-5,7.76-7.19,7.44-13.74-.39-8-2.42-4.52-8.75-6.29-1.06-.3-2.12-3.89-7.26-3.23-.17,2.64-3.51,33.21-7.35,32.36-5.33-1.18,7.81-37.38-3.75-34.19-4.69,1.29-14.69,27.85-17.94,33.83,8,4,5-7,9.31-9.82,6.74-4.39,5.65,2.78,6.51,6.19s-1.57,5.62,1,8.15c.81.78,8.63,2.14,9.58,1.4S133.35,116.42,135,117c6.81,2.27-3.07,27.55,13.5,21.5,6.87-2.51,10.18-30.41,13.12-38.89ZM116.25,113.2l4.48-7.71a29.33,29.33,0,0,1,.9,7.71C120,113.2,117.8,113.59,116.25,113.2Zm21.24,1.34c-4.58,0-.18-12.4,3.56-12C147.37,103.15,143.61,114.54,137.5,114.54Z" style="fill: #433b17"/>
    <path d="M299.59,104.32,314.52,103c.85,4.81-2.36,5.47-6.86,4.3.52,9.51-2.18,14.34,8.6,13.5-1.15-7.28.3-15.22,7.52-18.82,4.58-2.28,11.76-2.71,9.62,5.32-16.34-10.28-15.35,28.32.27,28.91.07-4.46-3.47-16.3-1.21-18.61,5.37-5.47,5.6,12.56,5.61,14.12,0,6.62-1.81,13.45-11.23,9.91-11.05-4.15-3.49-18.52-16.63-14.84,1.28,10.8-1.25,13.92,10.08,12.84,3,8-8.51,6.89-13.71,7.87C304.8,133,302.89,118.63,299.59,104.32Z" style="fill: #433b17"/>
    <path d="M335.36,98.68c5.19-.44,14.52-4.22,13.11,3.9-1.93-.64-4.32.11-6.25-.54l1.08,12.77c2.19-.79,4.89-.13,7.13-.81,1.74,4.88-.21,7.62-5.71,6.52.8,7.85-1.35,14.55,8.6,12,2,7-6.87,6.32-11.83,7.39C340.45,125.87,338.11,112.44,335.36,98.68Z" style="fill: #433b17"/>
    <path d="M350.15,97.6C359.4,93,358.17,118,365,118c5.42,0-4.59-26.27,6.53-23.12,2.47.7,5.64,29.93,6.91,34.82-12.14,3.38-4.78-20.15-8.47-19.49-3.32.59.63,22.13-2.82,22.86-1.72.36-9.79-21-10.82-20.3-2.42,1.61,1.76,18.65,2.22,21.65C351.46,135.66,351,104.31,350.15,97.6Z" style="fill: #433b17"/>
    <path d="M394.65,109.7c-2.76-24.39-22.84-20-17.8,4.12C381.28,135.06,397.07,131,394.65,109.7Zm-5.51,15.19c-8.32,2.32-15.81-26.62-6.52-27.9C390.6,95.9,395.56,123.1,389.14,124.89Z" style="fill: #433b17"/>
    <path d="M391,90.95c6.41-1.43,15.33,16.55,16.2,15.93,2.16-1.54-1.65-15.34-2.15-18.22,2.32-.25,6.6-1.41,8.24-.37,1.43.91,2,9.21,4.26,9.06,1.58-.11,2-9.25,3.25-10.28,7-5.6.83,6.72.84,6.27-.23,5.31-1,10.42-.39,15.85.56,4.88,5.14,12.19-2,12.75-.27-2.15-2.94-32-9.41-29.91-4.1,1.31,6.83,27.91,3.56,29.91-2.16,1.33-10.42-16-14-15.66-4.33.46,7.33,18.54-1.61,19.16C397.1,113.25,395.27,102.39,391,90.95Z" style="fill: #433b17"/>
    <path d="M285.64,118.7c2.63,2.4,4.84,5.45,7.19,8,3.17,3.5,6,6.6,8,10.9.7,1.49,3.44,8.39,4,9.91-1.18-6.35-1-13.15-2.33-19.41-1.79-8.17-4.84-22.71-12.62-21.94q1.45,6.32,2.89,12.64C289.49,119.82,287.23,119.64,285.64,118.7Z" style="fill: #433b17"/>
    <path d="M273.91,111.34c3.19,2.4,7.32,3.88,10.39,6.24-2-2.26-2.44-6.23-2.79-10.23-3.83-.22-7.8,0-7.26,3.94l-.47-.25Z" style="fill: #433b17"/>
    <path d="M213.41,109c-1.17,6.43-.95,20-5.53,24.62-2.42-4.9-8.2-29.5-17-27.49-4.2,1,1.22,36.72-7.72,35-4.21-.83.22-36,.35-40.43-4.94,0-10.32,6.23-15.37,14.49-5.53,9-7.79,16.28-14.75,24.15,10.11,2.41,9.53-13,18.61-11.34,3.12.56,2.54,14.81,5.09,17.15,3.3,3,8.83,1.84,10.63-.12,3-3.29,2.28-11.13,4-15.7,2-5.51,2.93-5.69,5.83.55,2.63,5.68,4.24,15.74,6,21.73.3-2.13,1.39-9,2.4-11.16a55.06,55.06,0,0,1,5.07-8.32c1.71-2.47,3.45-5,5.42-7.39.58-5.55,2.86-9,6.59-13.28Zm-42.75,13.36,5.56-7.8c.15,3,.29,5.92.44,8.87C174.83,123.51,172.48,122.66,170.66,122.34Z" style="fill: #433b17"/>
  </g>
</svg>
