<svg xmlns="http://www.w3.org/2000/svg" viewBox="0 0 500 500"><title>marik</title><g id="Icons"><polygon points="194.5 141.74 251.14 85.1 308.01 141.97 321.12 139.48 251.14 69.5 181.46 139.18 194.5 141.74"/><polygon points="401.66 235.63 416.04 250 390.93 275.11 338.22 275.5 322.25 259.53 317.45 264.33 335.43 282.31 384.09 281.94 376.96 289.08 332.29 289.08 312.07 268.87 307.27 273.67 329.48 295.87 370.17 295.87 251.14 414.9 132.1 295.87 169.82 295.87 192.03 273.67 187.23 268.87 167.01 289.08 125.31 289.08 118.2 281.97 163.88 282.31 181.85 264.33 177.05 259.53 161.09 275.5 111.36 275.13 86.23 250 99.01 237.23 90.55 230.08 70.64 250 251.14 430.5 431.64 250 409.24 227.6 401.66 235.63"/><path d="M308.4,151.22l-16.12,21.21-14-8.06-2.11-8.21c2.36,0,4.44.29,5.5,1s.13,3.35.85,4.24a13.35,13.35,0,0,0,2.55,1.7l11-22.91s-14.12.37-23.92.38l-2.38-9.28H231.2l-8.48,33.09-14,8.06L192.6,151.22,2.56,108v11.88l21.21,24.6,101,17.82-83.14-8.48v16.12l12.73,11,87.38,4.24-67,2.55v13.57l13.57,10.18,71.26-6.79-59.39,11.88-.85,9.33,15.27,13.57L188.36,225l-61.93,17-1.7,7.64,12.73,11.88,46.66-10.18L207,274.23l-39,37.33,9.33,9.33h10.18L222.29,287l-34.78,42.42,15.27,17h11l17.82-54.3-15.27,66.17,23.75,24.6h6.79l3.61-81.44,3.61,81.44h6.79l23.75-24.6-15.27-66.17,17.82,54.3h11l15.27-17L278.71,287l34.78,33.94h10.18l9.33-9.33-39-37.33,22.91-22.91,46.66,10.18,12.73-11.88-1.7-7.64-61.93-17,73.81,14.42,15.27-13.57-.85-9.33-59.39-11.88,71.26,6.79,13.57-10.18V187.7l-67-2.55,87.38-4.24,12.73-11V153.76l-83.14,8.48,101-17.82,21.21-24.6V108Z"/></g></svg>