<svg xmlns="http://www.w3.org/2000/svg" viewBox="0 0 500 500"><title>marian-hegemony-hbs</title><g id="Base"><polygon points="248.35 32.67 274.71 78.8 248.35 95.28 225.28 78.8 248.35 32.67"/><path d="M312.81,136.56l1.44,51L272.1,262.32a4,4,0,0,1-7.27-2.2V184.25l29.66-29.66L299,136.51C299.52,134.45,312.35,134.48,312.81,136.56Z"/><path d="M190.48,136.56l-1.44,51,42.16,74.77a4,4,0,0,0,7.27-2.2V184.25l-29.66-29.66-4.52-18.09C203.77,134.45,190.94,134.48,190.48,136.56Z"/><path d="M248.35,108.46c11.72,1.37,31.35-19.14,42.84-16.48,6.47,1.5,11.31,10,9.89,16.48-3,13.85-29,30-42.84,33-4.84,1-15,1.22-19.77,0-13.59-3.47-37.58-22.36-39.54-36.25-.83-5.88,4.14-11.66,9.89-13.18C219.49,89.15,237.37,107.18,248.35,108.46Z"/><path d="M337.33,161.18c6,0,5.65-.95,9.89,3.3,9.89,9.89-12.27,54.8-6.59,72.5,2,6.32,13.2,12.19,19.77,13.18,7.51,1.14,23.59-2,29.66-6.59,18.2-13.71,33-39.54,59.32-62.61,4.84-4.24,16.26,4.24,13.18,9.89-19.77,36.25-36.25,56-62.61,85.68-3.5,3.94-14.85-4.68-19.77-6.59-11.54-4.49-40.67-8.76-49.43,0-13.18,13.18-34.35,18.25-33,9.89,3.3-19.77,17.15-50.8,19.77-69.2C319.36,198,324.14,161.18,337.33,161.18Z"/><polygon points="373.57 171.07 436.19 174.37 390.05 227.09 353.8 227.09 373.57 171.07"/><path d="M384.14,301.38a3.66,3.66,0,0,1,1.43-6.61c17-3.1,54.16-10.5,67.09-18.25,9.51-5.71,28.07-26,37.32-36.51a3.16,3.16,0,0,1,5.52,2.11v27.8l-85.68,49.43Z"/><path d="M436.18,273.22A6.59,6.59,0,0,1,431.52,262l36.25-36.25a6.59,6.59,0,0,1,9.32,9.32l-36.25,36.25A6.57,6.57,0,0,1,436.18,273.22Z"/><path d="M286.25,288v32.14L269.13,343c-2.28,3-7.59,1.6-7.59-2V312.85l17.87-26.5C281.32,283.5,286.25,284.72,286.25,288Z"/><polygon points="338.69 278.17 338.66 278.15 338.65 278.17 338.69 278.17"/><polygon points="335.51 288.05 251.5 428.42 165.9 288.05 148.17 288.05 147.93 288.2 251.79 467.33 354.36 288.07 354.33 288.05 335.51 288.05"/><polygon points="161.35 278.17 161.26 278.02 161.02 278.17 161.35 278.17"/><path d="M162.67,161.18c-6,0-5.65-.95-9.89,3.3-9.89,9.89,12.27,54.8,6.59,72.5-2,6.32-13.2,12.19-19.77,13.18-7.51,1.14-23.59-2-29.66-6.59C91.75,229.86,77,204,50.63,181c-4.84-4.24-16.26,4.24-13.18,9.89,19.77,36.25,36.25,56,62.61,85.68,3.5,3.94,14.85-4.68,19.77-6.59,11.54-4.49,40.67-8.76,49.43,0,13.18,13.18,34.35,18.25,33,9.89-3.3-19.77-17.15-50.8-19.77-69.2C180.64,198,175.86,161.18,162.67,161.18Z"/><polygon points="126.43 171.07 63.81 174.37 109.95 227.09 146.2 227.09 126.43 171.07"/><path d="M115.86,301.38a3.66,3.66,0,0,0-1.43-6.61c-17-3.1-54.16-10.5-67.09-18.25-9.51-5.71-28.07-26-37.32-36.51a3.16,3.16,0,0,0-5.52,2.11v27.8l85.68,49.43Z"/><path d="M63.82,273.22A6.59,6.59,0,0,0,68.48,262L32.23,225.73A6.59,6.59,0,0,0,22.91,235l36.25,36.25A6.57,6.57,0,0,0,63.82,273.22Z"/><path d="M213.75,288v32.14L230.87,343c2.28,3,7.59,1.6,7.59-2V312.85l-17.87-26.5C218.68,283.5,213.75,284.72,213.75,288Z"/><polygon points="93.05 161.19 43.77 75.51 217.05 75.51 217.05 59.03 14.66 59.03 73.83 161.19 93.05 161.19"/><polygon points="407.79 161.19 427 161.19 485.34 59.03 282.95 59.03 282.95 75.51 456.24 75.51 407.79 161.19"/></g></svg>