<svg xmlns="http://www.w3.org/2000/svg" viewBox="0 0 500 500"><title>mechwarrior-dark-age</title><g id="Icons"><path d="M399.68,105.89v74.25L370,157.8l-35.68,23.66V105.89h-127l-74.25,48.47L63.32,105.89H3.5v227h97.08V258.07l28.86,21H140.2l26.5-19.68v73.46H178.6A3.16,3.16,0,0,0,182,335.4H327.55c4.13,0,3.52-4.57,3.52-4.57v-6.25c0-3-2.4-2.4-2.4-2.4H313.42l.15-.1h7.76l5.73-3.94v-4.77l-.19-.19,42.39-28.36,67.17,47.23H496.5V105.89ZM322.11,117V300.31l-10.47,6.82h-4.4a8.24,8.24,0,0,0-1.84-1.75,4.74,4.74,0,0,0-3.24-.44,4.83,4.83,0,0,0-.52-1.22,1.47,1.47,0,0,0-1.21-.61h2.26a9.33,9.33,0,0,0,1.4-1c.79-.7.61-.61,1.84-3.15s.87-2,1.57-6,.35-16.79.35-19.42a8.91,8.91,0,0,0-2-5h-3.59v-5.6l1.31-2.1v-8.4l-4.2-4.2h-8.13V236.11h-4.55v-7.61l-5.42-3.5H276l-3.32,3h-3a2,2,0,0,0-.35-1.49,7.4,7.4,0,0,0-1-1.14v-1.75a12.27,12.27,0,0,0,5.42-.52,16.12,16.12,0,0,0,5.6-2.71v3.15h11.89v-2.1l6.56-3.5,2.27,5.77,1,.79v2h10.23v-1.75l1-1.14s2.27-6,3.06-8.31a11.77,11.77,0,0,0,.7-4h2.36l3.15-3.76v-4l-6.3-10.19H299.76l-2.84,2.84v6.73l-5.6-3h-8.48v-5.42h-1.92v-11h26.37l2.41-2.41.09-1.14h1.92c1.49,0,3.5-1.66,3.5-6.12s-3-5.86-3-5.86h-2.1V148l-2.71-2.71h-27l-2.54,2.54v10.58s-4.77-.57-6.82,1.49a6.68,6.68,0,0,0-1.75,5H253.87V117Zm-60.21,86.06a25.27,25.27,0,0,0,.61-2.49,4.27,4.27,0,0,0-.61-2.14l3.67-3.1a24.91,24.91,0,0,1,1.75,3.89,8.49,8.49,0,0,1,0,3.85Zm5.42,5.86a2.23,2.23,0,1,1-2.23-2.23A2.23,2.23,0,0,1,267.32,208.91Zm-7.08-12.33s-2.93-2.19-5.47-2.19-5.47,2.19-5.47,2.19l-3.41-3.45s3.89-3.72,8.88-3.72,8.88,3.72,8.88,3.72Zm1,17a2.1,2.1,0,1,1-2.1-2.1A2.1,2.1,0,0,1,261.24,213.55ZM238.59,188.8a51.88,51.88,0,0,0-3.15,4.68h-2.67a1.36,1.36,0,0,1-.44-1.22c.09-.83,1.84-3.8,3.67-5.73a50.41,50.41,0,0,1,4.24-3.85h2.62l1.84,1.31S240.07,186.92,238.59,188.8Zm.7,21.78a3,3,0,1,1-3-3A3,3,0,0,1,239.29,210.58ZM254.77,185a15.38,15.38,0,0,1,11.85,5.16,2.84,2.84,0,0,1,.31,2.89,2.52,2.52,0,0,1-1.14,1,13.84,13.84,0,0,0-22,0,2.52,2.52,0,0,1-1.14-1,2.84,2.84,0,0,1,.31-2.89A15.38,15.38,0,0,1,254.77,185Zm-12.55,14.26a24.91,24.91,0,0,1,1.75-3.89l3.67,3.1a4.27,4.27,0,0,0-.61,2.14,25.27,25.27,0,0,0,.61,2.49h-5.42A8.49,8.49,0,0,1,242.22,199.21Zm2.23,7.48a2.23,2.23,0,1,1-2.23,2.23A2.23,2.23,0,0,1,244.45,206.68Zm3.85,6.87a2.1,2.1,0,1,1,2.1,2.1A2.1,2.1,0,0,1,248.29,213.55ZM264.82,184l1.84-1.31h2.62a50.41,50.41,0,0,1,4.24,3.85c1.84,1.92,3.59,4.9,3.67,5.73a1.36,1.36,0,0,1-.44,1.22h-2.67a51.88,51.88,0,0,0-3.15-4.68C269.46,186.92,264.82,184,264.82,184Zm11.37,26.59a3,3,0,1,1-3-3A3,3,0,0,1,276.19,210.58Zm30.17,1.66a2.89,2.89,0,1,1-2.89,2.89A2.89,2.89,0,0,1,306.37,212.24Zm-1.92-5.77a1.92,1.92,0,1,1,1.92,1.92A1.92,1.92,0,0,1,304.44,206.47Zm-20.08-52.1a1.31,1.31,0,1,1-1.31,1.31A1.31,1.31,0,0,1,284.37,154.36Zm-1.31-2.71a1.31,1.31,0,1,1,1.31,1.31A1.31,1.31,0,0,1,283.05,151.66Zm1.31,6.72a1.31,1.31,0,1,1-1.31,1.31A1.31,1.31,0,0,1,284.37,158.38Zm3.73-5.57a1.31,1.31,0,1,1-1.31,1.31A1.31,1.31,0,0,1,288.1,152.81Zm-1.31-2.89a1.31,1.31,0,1,1,1.31,1.31A1.31,1.31,0,0,1,286.79,149.92Zm1.31,6.56a1.31,1.31,0,1,1-1.31,1.31A1.31,1.31,0,0,1,288.1,156.48Zm0,4.19a1.31,1.31,0,1,1-1.31,1.31A1.31,1.31,0,0,1,288.1,160.67Zm3.88-6.31a1.31,1.31,0,1,1-1.31,1.31A1.31,1.31,0,0,1,292,154.36Zm-1.31-2.71A1.31,1.31,0,1,1,292,153,1.31,1.31,0,0,1,290.67,151.66Zm1.31,6.72a1.31,1.31,0,1,1-1.31,1.31A1.31,1.31,0,0,1,292,158.38Zm3.67-5.57a1.31,1.31,0,1,1-1.31,1.31A1.31,1.31,0,0,1,295.65,152.81Zm-1.31-2.89a1.31,1.31,0,1,1,1.31,1.31A1.31,1.31,0,0,1,294.34,149.92Zm1.31,6.56a1.31,1.31,0,1,1-1.31,1.31A1.31,1.31,0,0,1,295.65,156.48Zm0,4.19a1.31,1.31,0,1,1-1.31,1.31A1.31,1.31,0,0,1,295.65,160.67Zm4-6.31a1.31,1.31,0,1,1-1.31,1.31A1.31,1.31,0,0,1,299.64,154.36Zm-1.31-2.71a1.31,1.31,0,1,1,1.31,1.31A1.31,1.31,0,0,1,298.33,151.66Zm1.31,6.72a1.31,1.31,0,1,1-1.31,1.31A1.31,1.31,0,0,1,299.64,158.38Zm3.84-5.57a1.31,1.31,0,1,1-1.31,1.31A1.31,1.31,0,0,1,303.48,152.81Zm-1.31-2.89a1.31,1.31,0,1,1,1.31,1.31A1.31,1.31,0,0,1,302.17,149.92Zm1.31,6.56a1.31,1.31,0,1,1-1.31,1.31A1.31,1.31,0,0,1,303.48,156.48Zm0,4.19a1.31,1.31,0,1,1-1.31,1.31A1.31,1.31,0,0,1,303.48,160.67ZM88.95,316.05H13V197.46H21.6l67.34,46.35Zm82.74-76.61-31.83,22.74H129.35l-106-72.24H13V117H60.09l72.24,48.1L171.68,141Zm5.77,80.81V138l29.91-21h39.31v47.93h-6.43a6.68,6.68,0,0,0-1.75-5c-2.06-2.06-6.82-1.49-6.82-1.49V147.87l-2.54-2.54h-27L199.41,148V168h-2.1s-3,1.4-3,5.86,2,6.12,3.5,6.12h1.92l.09,1.14,2.41,2.41h26.37v11h-1.92v5.42h-8.48l-5.6,3v-6.73l-2.84-2.84H194.33L188,203.49v4l3.15,3.76h2.36a11.77,11.77,0,0,0,.7,4c.79,2.27,3.06,8.31,3.06,8.31l1,1.14v1.75H208.5v-2l1-.79,2.27-5.77,6.56,3.5v2.1h11.89v-3.15a16.12,16.12,0,0,0,5.6,2.71,12.27,12.27,0,0,0,5.42.52v1.75a7.4,7.4,0,0,0-1,1.14,2,2,0,0,0-.35,1.49h-3l-3.32-3h-5.25l-5.42,3.5v7.61H218.3v12.07h-8.13l-4.2,4.2v8.4l1.31,2.1v5.6h-3.59a8.91,8.91,0,0,0-2,5c0,2.62-.35,15.39.35,19.42s.35,3.5,1.57,6,1,2.45,1.84,3.15a9.33,9.33,0,0,0,1.4,1h2.26a1.47,1.47,0,0,0-1.21.61,4.83,4.83,0,0,0-.52,1.22,4.74,4.74,0,0,0-3.24.44,8.24,8.24,0,0,0-1.84,1.75h-4.64L195,309.75l-6.38,1.75h-4.29l-1.88,1.88v4.77l3.06,2.1ZM225.17,157a1.31,1.31,0,1,1,1.31-1.31A1.31,1.31,0,0,1,225.17,157Zm1.31,2.71a1.31,1.31,0,1,1-1.31-1.31A1.31,1.31,0,0,1,226.48,159.69ZM225.17,153a1.31,1.31,0,1,1,1.31-1.31A1.31,1.31,0,0,1,225.17,153Zm-3.73,6.14a1.31,1.31,0,1,1,1.31-1.31A1.31,1.31,0,0,1,221.43,159.11Zm1.31,2.87a1.31,1.31,0,1,1-1.31-1.31A1.31,1.31,0,0,1,222.75,162Zm-1.31-6.55a1.31,1.31,0,1,1,1.31-1.31A1.31,1.31,0,0,1,221.43,155.43Zm0-4.2a1.31,1.31,0,1,1,1.31-1.31A1.31,1.31,0,0,1,221.43,151.24ZM217.55,157a1.31,1.31,0,1,1,1.31-1.31A1.31,1.31,0,0,1,217.55,157Zm1.31,2.71a1.31,1.31,0,1,1-1.31-1.31A1.31,1.31,0,0,1,218.87,159.69ZM217.55,153a1.31,1.31,0,1,1,1.31-1.31A1.31,1.31,0,0,1,217.55,153Zm-3.67,6.14a1.31,1.31,0,1,1,1.31-1.31A1.31,1.31,0,0,1,213.88,159.11Zm1.31,2.87a1.31,1.31,0,1,1-1.31-1.31A1.31,1.31,0,0,1,215.19,162Zm-1.31-6.55a1.31,1.31,0,1,1,1.31-1.31A1.31,1.31,0,0,1,213.88,155.43Zm0-4.2a1.31,1.31,0,1,1,1.31-1.31A1.31,1.31,0,0,1,213.88,151.24Zm-4,5.75a1.31,1.31,0,1,1,1.31-1.31A1.31,1.31,0,0,1,209.9,157Zm1.31,2.71a1.31,1.31,0,1,1-1.31-1.31A1.31,1.31,0,0,1,211.21,159.69ZM209.9,153a1.31,1.31,0,1,1,1.31-1.31A1.31,1.31,0,0,1,209.9,153Zm-3.84,6.14a1.31,1.31,0,1,1,1.31-1.31A1.31,1.31,0,0,1,206.05,159.11Zm1.31,2.87a1.31,1.31,0,1,1-1.31-1.31A1.31,1.31,0,0,1,207.36,162Zm-1.31-6.55a1.31,1.31,0,1,1,1.31-1.31A1.31,1.31,0,0,1,206.05,155.43Zm0-4.2a1.31,1.31,0,1,1,1.31-1.31A1.31,1.31,0,0,1,206.05,151.24Zm-2.89,61a2.89,2.89,0,1,1-2.89,2.89A2.89,2.89,0,0,1,203.17,212.24Zm-1.92-5.77a1.92,1.92,0,1,1,1.92,1.92A1.92,1.92,0,0,1,201.24,206.47Zm33.52,113.78a1.93,1.93,0,0,0-2-1.44h-4.36l2.82-.83v-4.29l-1.79-1.79h-3.19l-4.9-6.87-1.31.26a1.26,1.26,0,0,0-.35-1.57,3.39,3.39,0,0,0-2.12-.78L221,303s2.54-.7,3.76-4.9,1.57-5.42,1.57-7.78v-16.7a7.45,7.45,0,0,0-.79-3.06c-.7-1-1.4-2-1.4-2l-3.5-.09v-3.32h8.92V263.4h1.14l3-1.84v-9.62l-1.75-1.75,6.78-6.78h2.49l.52,1.79s.18.79,2.27,2.27c1.75,1.24,1.56,1.38,2.67,1.4v71.37Zm40,0h-20.9V248.88H262c2.1,0,1.4.09,3.5-1.4s2.27-2.27,2.27-2.27l.52-1.79h2.49l6.78,6.78-1.75,1.75v9.62l3,1.84H280v1.75h8.92v3.32l-3.5.09s-.7,1-1.4,2a7.45,7.45,0,0,0-.79,3.06v16.7c0,2.36.35,3.59,1.57,7.78s3.76,4.9,3.76,4.9l3.43-.08a3.39,3.39,0,0,0-2.12.78,1.26,1.26,0,0,0-.35,1.57l-1.31-.26-4.9,6.87h-3.19l-1.79,1.79V318l2.82.83h-4.36A1.93,1.93,0,0,0,274.77,320.25Zm209.4-5.38H441.8l-72-49.2-39.72,29.52V196l38.54-26.37L484.17,248Zm0-76L409.57,188V117h74.6Z"/><path d="M62.5,359.42c0-1.59-.08-17.53-.38-19.65a165.85,165.85,0,0,1,19.27.76c24.64,3.1,27.66,14.06,27.66,19.35,0,23.43-29.78,33.17-47,33.17.3-3.48.45-22.22.45-24.26Zm6.8,27c20.63-1.81,32.34-14,32.34-24.56,0-11.49-12.77-16.63-32.34-16.4Z"/><path d="M109.65,390.71c3.63-6.42,23.28-42.77,24.79-45.27h.15c5.82,9.14,22.14,38.09,26.6,44.81l-6.12,3.7c-1.21-2.42-8.31-15.11-9-16.25l-23.35.91c-.91,2-6.2,13.22-7.25,15.42Zm34.08-17.61c-.76-1.44-8.69-15.95-9.37-17-1,1.51-8.46,16.7-9.07,17.76Z"/><path d="M178.79,373c0,2.42.23,18.67.38,19.65h-7.1c.23-1.51.15-21.92.15-23.28v-5.21c0-2-.15-15.26-.38-16.47a124.44,124.44,0,0,1,15,.53c9.07,1.06,14.36,4.76,14.36,10.35,0,5.29-4.08,9.82-9.75,13.15,1.74,2.34,13.91,15.64,15.87,17.53l-5.21,4.61c-.76-.91-16.32-20-18.36-22.67,3.4-1.74,10.28-5.21,10.28-11.64,0-3-2.34-6.88-15.19-7Z"/><path d="M218.39,393.35c.15-1.89.38-12.77.38-20.1v-6.8c0-5.59-.38-17.91-.38-19.42h7.26c-.08,1.06-.38,13.22-.38,18.82v6.88c0,5,.23,19.35.38,20.63Zm31.59-.08c-.83-.91-21.23-21.08-24.18-24.26,1.13-1.06,20.78-19.42,22.37-21.08l4,4.91c-2.72,2.12-14.81,12.32-18.51,15.72,2.12,2.49,18.29,17.15,21,19.57Z"/><path d="M282.69,390.18c4.16-7.25,25.92-50.18,27.73-53.05h.15c6.65,10.73,24.56,44.81,29.7,52.67L333.85,394c-1.51-2.87-9.52-18.36-10.35-19.57l-26.22,1.06c-.91,1.44-7.1,16-8.39,18.59Zm38.54-20.56c-.83-1.66-10.13-19.27-10.88-20.48-1.13,1.66-9.82,20.18-10.5,21.39Z"/><path d="M385.76,391.69c-3.1,1.13-9.45,2-15.19,2-15.57,0-24.79-8.16-24.79-18.82,0-7.56,8-21.84,33.25-28.41l1.36,5.89c-14.89,2.8-27.58,12.39-27.58,22.6,0,6.73,5.59,13.83,19.19,13.83a23.46,23.46,0,0,0,7.1-.91V377.49a40.83,40.83,0,0,0-.23-4.46h6.73v9.6C385.61,385.12,385.76,390.86,385.76,391.69Z"/><path d="M425.43,393.35c-2.27,0-23-.68-24.33-.68.23-3.4.23-17.15.23-18.67v-8.54c0-1.06-.15-16.55-.23-17.76,1.66,0,19.57-1,23-1.21l.3,5.44c-2.95,0-15.34.3-16.47.3V368c1.28,0,10.05-.3,14.21-.68l.23,5.52c-2.27,0-12.92-.23-14.43-.23v15.27c1.66,0,10.88.15,17.31-.23Z"/></g></svg>