<svg xmlns="http://www.w3.org/2000/svg" viewBox="0 0 500 500"><title>mechwarrior-title-w-mech</title><g id="Base"><path d="M494.37,255.73l3.92-3.92v-24L484.67,213.2h-247V200.61h-24v4.48H200.76v-4.48H176.46V213.2H74.07V200.61H1.67v98.77H498.33V259.7ZM89.58,247.67h7.76v11.89H89.58Zm-64,43.44H9.42V208.54h16.2Zm15.86,0H35.11l-8.1-46V208.54h3.28l12.93,69.12Zm6.72-45.85-3.62,28.1-5.34-29.13,6.21-35.68h2.76Zm18.27,45.85H49.93V208.54H66.48Zm20.69,0H74.07V220.78h13.1Zm12.07,0H89.58V278.18h9.65Zm0-58.26H89.58V220.78h9.65Zm19.31,0h-1.9v45.34h1.9v13.1h-4.83l-9.65-10.17V229.75l9.39-8.88,5.09-.09Zm18.1,46.89-10.08,11.64h-5.77V278.18h2.41V260.95h13.45Zm0-32.06h-13.1V232.85h-2.76V220.78h7.07l8.79,8.79Zm18.44,43.61H142v-70.5h13.1Zm19.65-62.92-3.53,3v13.53h3.53v46.37H161.29V261.64H157V249.83h4.48l-.17-29h13.45Zm61.28,63H207.88V289l6.59-3.53h5.43V283.7l-4.31-.69V267.76l4.31-1.21V264h-2.24v-19H195.85l-.09,18.7h-1.55v2.84l4,1.55v14.74l-4.83.69.09,1.72,5.69.26,6.9,3.53.26,2.24H177.84l.17-2.07,5.95-4h4.83v-1.55l-4.31-1V268.19l4.65-1.72v-2.59s-1.55-.43-2.67-.78-.43-6.9-.34-8.1,3.1-1.55,3.1-1.55v-1.9l3-.26v-3.66a29.76,29.76,0,0,1-4.65-1.25c-.95-.52-.09-8.71-.09-8.71l8.19-1.72.17,2.24h2s-.09-1.81-.17-2.93-1.55-1.21-2.33-1.55-.09-2.15-.09-2.15a11.61,11.61,0,0,1-4.14.09c-1.47-.43.26-1.64-.78-2.59s-4.14,2.5-4.14,2.5l.09,3.1-4,4.48h-7.41v-3.45l4.57-3.45,3.53-.17a31.4,31.4,0,0,1,.26-4c.26-1.64,3-5.52,5-5.52a3.76,3.76,0,0,0,3-1.81h-9.74V203.89h14.31v6.21h22.5v-6.21h14.48v16H221.54l-.09,2.07a18.72,18.72,0,0,1,4.83.78c2.59.78,3.36,5.74,3.36,5.74v3.83l4.91.26,4,3.71v2.84h-6.21l-5.17-4.91L227,231.9s-3.62-3.79-4.83-3.36.17,1.81.17,2.76-.95-.09-3.36,0,0,2-1.47,2.5c-2.59.95-2.76,4.22-2.76,4.22l3.71.09.09-2,7.84,1.21s.34,8.71-.34,9.64-2.76.53-2.76.53l-1.9-.17V252l3-.09v2.24l2.93.09s.17,8.27-.26,9-2.76.78-2.76.78v2.5l4.83,1.77v14.44l-4.83,1.21v1.81h4.83l6.9,3.79Zm15.6-.09H240.24l-5.69-46.71,7.76.17L242,231.47l-7.41-5.69,2.93-.69.17-4.31h6.9l7.07,62.4Zm7.58,0-4-31.55-2.27,19L250.75,257l.86-36.2h6.55L264,291.37Zm7.24,0-3.79-36.54,3.79-34h12.24l-8.79,70.5Zm23.79-14.65v14.74H277l8.45-70.59h7.93l1,19.13L292,264.74h4.83l.52,12.07Zm10.34,14.74-5.34-70.59h9.31l9.31,70.5Zm30,0H318.67V220.78h11.89Zm20-.09h-12.8V261.64H333V250.26h5V232.5h-5V220.78h9l8.36,8.88v18.88l-6.77,6.77,7.07,6.55Zm19.26.09H358V220.78h11.89Zm20-.09h-12.8V261.64h-4.83V250.26h5V232.5h-5V220.78h9l8.36,8.88v18.88l-6.77,6.77,7.07,6.55Zm21.33.09H397.79V220.78h13.45Zm22.24-58.52h-2.41v45.34h2.41v13.1h-5.34l-9.65-10.17V229.75l9.39-8.88,5.6-.09Zm17.58,48.27-9.65,10.17h-5.34v-13.1h2.41V232.85h-2.41V220.78l5.6.09,9.39,8.88Zm20.17,10.26H459.33V220.78h11.89Zm20-.09h-12.8V261.64h-4.83V250.26h5V232.5h-5V220.78h9l8.36,8.88v18.88l-6.77,6.77,7.07,6.55Z"/><rect x="183.79" y="206.65" width="2.13" height="2.13"/><rect x="187.88" y="206.65" width="2.13" height="2.13"/><rect x="191.67" y="206.65" width="2.13" height="2.13"/><rect x="182.75" y="209.75" width="2.13" height="2.13"/><rect x="186.84" y="209.75" width="2.13" height="2.13"/><rect x="190.64" y="209.75" width="2.13" height="2.13"/><rect x="183.79" y="212.85" width="2.13" height="2.13"/><rect x="187.88" y="212.85" width="2.13" height="2.13"/><rect x="191.67" y="212.85" width="2.13" height="2.13"/><rect x="182.75" y="215.96" width="2.13" height="2.13"/><rect x="186.84" y="215.96" width="2.13" height="2.13"/><rect x="190.64" y="215.96" width="2.13" height="2.13"/><rect x="221.49" y="215.96" width="2.13" height="2.13"/><rect x="225.59" y="215.96" width="2.13" height="2.13"/><rect x="229.38" y="215.96" width="2.13" height="2.13"/><rect x="220.46" y="212.85" width="2.13" height="2.13"/><rect x="224.55" y="212.85" width="2.13" height="2.13"/><rect x="228.35" y="212.85" width="2.13" height="2.13"/><rect x="221.49" y="209.75" width="2.13" height="2.13"/><rect x="225.59" y="209.75" width="2.13" height="2.13"/><rect x="229.38" y="209.75" width="2.13" height="2.13"/><rect x="220.46" y="206.65" width="2.13" height="2.13"/><rect x="224.55" y="206.65" width="2.13" height="2.13"/><rect x="228.35" y="206.65" width="2.13" height="2.13"/><rect x="179.43" y="233.71" width="2.35" height="2.35"/><rect x="177.92" y="236.99" width="1.36" height="1.36"/><rect x="231.71" y="233.71" width="2.35" height="2.35" transform="translate(465.76 469.77) rotate(180)"/><rect x="234.21" y="236.99" width="1.36" height="1.36" transform="translate(469.77 475.33) rotate(180)"/><polygon points="203.52 213.92 209.77 213.92 209.77 216.26 208.48 217.64 204.94 217.64 203.52 216.43 203.52 213.92"/><polygon points="203.35 228.37 210.12 228.37 210.12 229.31 207.79 231.43 205.55 231.43 203.35 229.4 203.35 228.37"/><rect x="200.12" y="223.93" width="1.51" height="1.51"/><rect x="211.62" y="223.93" width="1.51" height="1.51"/><polygon points="202.79 225.44 202.79 220.61 204.86 218.89 208.56 218.89 210.55 220.78 210.55 225.44 202.79 225.44"/><polygon points="197.23 224.44 197.23 221.73 199.38 217.64 202.27 217.21 202.27 219.1 200.07 220.87 198.22 224.44 197.23 224.44"/><polygon points="198.74 229.49 202.06 229.49 200.12 231.43 198.74 229.49"/><polygon points="214.99 229.49 211.67 229.49 213.61 231.43 214.99 229.49"/><polygon points="216.24 224.44 216.24 221.73 214.08 217.64 211.19 217.21 211.19 219.1 213.39 220.87 215.24 224.44 216.24 224.44"/></g></svg>