<svg xmlns="http://www.w3.org/2000/svg" viewBox="0 0 500 500"><defs><style>.cls-1{fill:#b52d16;}</style></defs><title>mechwarrior-dark-age-alt_COLOR</title><g id="n1"><path class="cls-1" d="M322.11,146.35V329.66l-10.47,6.82h-4.4a8.24,8.24,0,0,0-1.84-1.75,4.74,4.74,0,0,0-3.24-.44,4.83,4.83,0,0,0-.52-1.22,1.47,1.47,0,0,0-1.21-.61h2.26a9.33,9.33,0,0,0,1.4-1c.79-.7.61-.61,1.84-3.15s.87-2,1.57-6,.35-16.79.35-19.42a8.91,8.91,0,0,0-2-5h-3.59v-5.6l1.31-2.1v-8.4l-4.2-4.2h-8.13V265.47h-4.55v-7.61l-5.42-3.5H276l-3.32,3h-3a2,2,0,0,0-.35-1.49,7.4,7.4,0,0,0-1-1.14V253a12.27,12.27,0,0,0,5.42-.52,16.12,16.12,0,0,0,5.6-2.71v3.15h11.89v-2.1l6.56-3.5,2.27,5.77,1,.79v2h10.23V254.1l1-1.14s2.27-6,3.06-8.31a11.77,11.77,0,0,0,.7-4h2.36l3.15-3.76v-4l-6.3-10.19H299.76l-2.84,2.84v6.73l-5.6-3h-8.48v-5.42h-1.92v-11h26.37l2.41-2.41.09-1.14h1.92c1.49,0,3.5-1.66,3.5-6.12s-3-5.86-3-5.86h-2.1V177.4l-2.71-2.71h-27l-2.54,2.54v10.58s-4.77-.57-6.82,1.49a6.68,6.68,0,0,0-1.75,5H253.87V146.35Z"/><path class="cls-1" d="M261.89,232.41a25.27,25.27,0,0,0,.61-2.49,4.27,4.27,0,0,0-.61-2.14l3.67-3.1a24.91,24.91,0,0,1,1.75,3.89,8.49,8.49,0,0,1,0,3.85Z"/><circle class="cls-1" cx="265.09" cy="238.27" r="2.23"/><circle class="cls-1" cx="259.14" cy="242.91" r="2.1"/><path class="cls-1" d="M238.59,218.16a51.88,51.88,0,0,0-3.15,4.68h-2.67a1.36,1.36,0,0,1-.44-1.22c.09-.83,1.84-3.8,3.67-5.73a50.41,50.41,0,0,1,4.24-3.85h2.62l1.84,1.31S240.07,216.28,238.59,218.16Z"/><circle class="cls-1" cx="236.31" cy="239.93" r="2.97"/><path class="cls-1" d="M242.22,228.56a24.91,24.91,0,0,1,1.75-3.89l3.67,3.1a4.27,4.27,0,0,0-.61,2.14,25.27,25.27,0,0,0,.61,2.49h-5.42A8.49,8.49,0,0,1,242.22,228.56Z"/><circle class="cls-1" cx="244.45" cy="238.27" r="2.23"/><circle class="cls-1" cx="250.39" cy="242.91" r="2.1"/><path class="cls-1" d="M264.82,213.35l1.84-1.31h2.62a50.41,50.41,0,0,1,4.24,3.85c1.84,1.92,3.59,4.9,3.67,5.73a1.36,1.36,0,0,1-.44,1.22h-2.67a51.88,51.88,0,0,0-3.15-4.68C269.46,216.28,264.82,213.35,264.82,213.35Z"/><circle class="cls-1" cx="273.22" cy="239.93" r="2.97"/><circle class="cls-1" cx="306.37" cy="244.48" r="2.89"/><circle class="cls-1" cx="306.37" cy="235.82" r="1.92"/><circle class="cls-1" cx="284.37" cy="185.03" r="1.31"/><circle class="cls-1" cx="284.37" cy="181.01" r="1.31"/><circle class="cls-1" cx="284.37" cy="189.05" r="1.31"/><circle class="cls-1" cx="288.1" cy="183.48" r="1.31"/><circle class="cls-1" cx="288.1" cy="179.28" r="1.31"/><circle class="cls-1" cx="288.1" cy="187.15" r="1.31"/><circle class="cls-1" cx="288.1" cy="191.34" r="1.31"/><circle class="cls-1" cx="291.98" cy="185.03" r="1.31"/><circle class="cls-1" cx="291.98" cy="181.01" r="1.31"/><circle class="cls-1" cx="291.98" cy="189.05" r="1.31"/><circle class="cls-1" cx="295.65" cy="183.48" r="1.31"/><circle class="cls-1" cx="295.65" cy="179.28" r="1.31"/><circle class="cls-1" cx="295.65" cy="187.15" r="1.31"/><circle class="cls-1" cx="295.65" cy="191.34" r="1.31"/><circle class="cls-1" cx="299.64" cy="185.03" r="1.31"/><circle class="cls-1" cx="299.64" cy="181.01" r="1.31"/><circle class="cls-1" cx="299.64" cy="189.05" r="1.31"/><circle class="cls-1" cx="303.48" cy="183.48" r="1.31"/><circle class="cls-1" cx="303.48" cy="179.28" r="1.31"/><circle class="cls-1" cx="303.48" cy="187.15" r="1.31"/><circle class="cls-1" cx="303.48" cy="191.34" r="1.31"/><polygon class="cls-1" points="88.95 345.41 13.03 345.41 13.03 226.81 21.6 226.81 88.95 273.17 88.95 345.41"/><polygon class="cls-1" points="171.68 268.79 139.85 291.53 129.35 291.53 23.35 219.29 13.03 219.29 13.03 146.35 60.09 146.35 132.32 194.46 171.68 170.4 171.68 268.79"/><path class="cls-1" d="M177.45,349.6V167.34l29.91-21h39.31v47.93h-6.43a6.68,6.68,0,0,0-1.75-5c-2.06-2.06-6.82-1.49-6.82-1.49V177.23l-2.54-2.54h-27l-2.71,2.71v19.94h-2.1s-3,1.4-3,5.86,2,6.12,3.5,6.12h1.92l.09,1.14,2.41,2.41h26.37v11h-1.92v5.42h-8.48l-5.6,3V225.5l-2.84-2.84H194.33L188,232.85v4l3.15,3.76h2.36a11.77,11.77,0,0,0,.7,4c.79,2.27,3.06,8.31,3.06,8.31l1,1.14v1.75H208.5v-2l1-.79,2.27-5.77,6.56,3.5v2.1h11.89v-3.15a16.12,16.12,0,0,0,5.6,2.71,12.27,12.27,0,0,0,5.42.52v1.75a7.4,7.4,0,0,0-1,1.14,2,2,0,0,0-.35,1.49h-3l-3.32-3h-5.25l-5.42,3.5v7.61H218.3v12.07h-8.13l-4.2,4.2v8.4l1.31,2.1v5.6h-3.59a8.91,8.91,0,0,0-2,5c0,2.62-.35,15.39.35,19.42s.35,3.5,1.57,6,1,2.45,1.84,3.15a9.33,9.33,0,0,0,1.4,1h2.26a1.47,1.47,0,0,0-1.21.61,4.83,4.83,0,0,0-.52,1.22,4.74,4.74,0,0,0-3.24.44,8.24,8.24,0,0,0-1.84,1.75h-4.64L195,339.11l-6.38,1.75h-4.29l-1.88,1.88v4.77l3.06,2.1Z"/><circle class="cls-1" cx="225.17" cy="185.03" r="1.31"/><circle class="cls-1" cx="225.17" cy="189.05" r="1.31"/><circle class="cls-1" cx="225.17" cy="181.01" r="1.31"/><circle class="cls-1" cx="221.43" cy="187.15" r="1.31"/><circle class="cls-1" cx="221.43" cy="191.34" r="1.31"/><circle class="cls-1" cx="221.43" cy="183.48" r="1.31"/><circle class="cls-1" cx="221.43" cy="179.28" r="1.31"/><circle class="cls-1" cx="217.55" cy="185.03" r="1.31"/><circle class="cls-1" cx="217.55" cy="189.05" r="1.31"/><circle class="cls-1" cx="217.55" cy="181.01" r="1.31"/><circle class="cls-1" cx="213.88" cy="187.15" r="1.31"/><circle class="cls-1" cx="213.88" cy="191.34" r="1.31"/><circle class="cls-1" cx="213.88" cy="183.48" r="1.31"/><circle class="cls-1" cx="213.88" cy="179.28" r="1.31"/><circle class="cls-1" cx="209.9" cy="185.03" r="1.31"/><circle class="cls-1" cx="209.9" cy="189.05" r="1.31"/><circle class="cls-1" cx="209.9" cy="181.01" r="1.31"/><circle class="cls-1" cx="206.05" cy="187.15" r="1.31"/><circle class="cls-1" cx="206.05" cy="191.34" r="1.31"/><circle class="cls-1" cx="206.05" cy="183.48" r="1.31"/><circle class="cls-1" cx="206.05" cy="179.28" r="1.31"/><circle class="cls-1" cx="203.17" cy="244.48" r="2.89"/><circle class="cls-1" cx="203.17" cy="235.82" r="1.92"/><path class="cls-1" d="M234.76,349.6a1.93,1.93,0,0,0-2-1.44h-4.36l2.82-.83V343l-1.79-1.79h-3.19l-4.9-6.87-1.31.26a1.26,1.26,0,0,0-.35-1.57,3.39,3.39,0,0,0-2.12-.78l3.43.08s2.54-.7,3.76-4.9,1.57-5.42,1.57-7.78V303a7.45,7.45,0,0,0-.79-3.06c-.7-1-1.4-2-1.4-2l-3.5-.09v-3.32h8.92v-1.75h1.14l3-1.84V281.3l-1.75-1.75,6.78-6.78h2.49l.52,1.79s.18.79,2.27,2.27c1.75,1.24,1.56,1.38,2.67,1.4V349.6Z"/><path class="cls-1" d="M274.77,349.6h-20.9V278.24H262c2.1,0,1.4.09,3.5-1.4s2.27-2.27,2.27-2.27l.52-1.79h2.49l6.78,6.78-1.75,1.75v9.62l3,1.84H280v1.75h8.92v3.32l-3.5.09s-.7,1-1.4,2a7.45,7.45,0,0,0-.79,3.06v16.7c0,2.36.35,3.59,1.57,7.78s3.76,4.9,3.76,4.9l3.43-.08a3.39,3.39,0,0,0-2.12.78,1.26,1.26,0,0,0-.35,1.57l-1.31-.26-4.9,6.87h-3.19L278.29,343v4.29l2.82.83h-4.36A1.93,1.93,0,0,0,274.77,349.6Z"/><polygon class="cls-1" points="484.17 344.23 441.8 344.23 369.77 295.03 330.05 324.55 330.05 225.37 368.59 199 484.17 277.32 484.17 344.23"/><polygon class="cls-1" points="484.17 268.27 409.57 217.37 409.57 146.35 484.17 146.35 484.17 268.27"/><path class="cls-1" d="M260.23,225.94s-2.93-2.19-5.47-2.19-5.47,2.19-5.47,2.19l-3.41-3.45s3.89-3.72,8.88-3.72,8.88,3.72,8.88,3.72Z"/><path class="cls-1" d="M254.77,214.31a15.38,15.38,0,0,1,11.85,5.16,2.84,2.84,0,0,1,.31,2.89,2.52,2.52,0,0,1-1.14,1,13.84,13.84,0,0,0-22,0,2.52,2.52,0,0,1-1.14-1,2.84,2.84,0,0,1,.31-2.89A15.38,15.38,0,0,1,254.77,214.31Z"/></g><g id="Base"><path d="M399.68,135.25V209.5L370,187.15l-35.68,23.66V135.25h-127l-74.25,48.47L63.32,135.25H3.5v227h97.08V287.42l28.86,21H140.2l26.5-19.68V362.2H178.6a3.16,3.16,0,0,0,3.38,2.56H327.55c4.13,0,3.52-4.57,3.52-4.57v-6.25c0-3-2.4-2.4-2.4-2.4H313.42l.15-.1h7.76l5.73-3.94v-4.77l-.19-.19,42.39-28.36,67.17,47.23H496.5V135.25Zm-77.58,11.11V329.66l-10.47,6.82h-4.4a8.24,8.24,0,0,0-1.84-1.75,4.74,4.74,0,0,0-3.24-.44,4.83,4.83,0,0,0-.52-1.22,1.47,1.47,0,0,0-1.21-.61h2.26a9.33,9.33,0,0,0,1.4-1c.79-.7.61-.61,1.84-3.15s.87-2,1.57-6,.35-16.79.35-19.42a8.91,8.91,0,0,0-2-5h-3.59v-5.6l1.31-2.1v-8.4l-4.2-4.2h-8.13V265.47h-4.55v-7.61l-5.42-3.5H276l-3.32,3h-3a2,2,0,0,0-.35-1.49,7.4,7.4,0,0,0-1-1.14V253a12.27,12.27,0,0,0,5.42-.52,16.12,16.12,0,0,0,5.6-2.71v3.15h11.89v-2.1l6.56-3.5,2.27,5.77,1,.79v2h10.23V254.1l1-1.14s2.27-6,3.06-8.31a11.77,11.77,0,0,0,.7-4h2.36l3.15-3.76v-4l-6.3-10.19H299.76l-2.84,2.84v6.73l-5.6-3h-8.48v-5.42h-1.92v-11h26.37l2.41-2.41.09-1.14h1.92c1.49,0,3.5-1.66,3.5-6.12s-3-5.86-3-5.86h-2.1V177.4l-2.71-2.71h-27l-2.54,2.54v10.58s-4.77-.57-6.82,1.49a6.68,6.68,0,0,0-1.75,5H253.87V146.35Zm-60.21,86.06a25.27,25.27,0,0,0,.61-2.49,4.27,4.27,0,0,0-.61-2.14l3.67-3.1a24.91,24.91,0,0,1,1.75,3.89,8.49,8.49,0,0,1,0,3.85Zm5.42,5.86a2.23,2.23,0,1,1-2.23-2.23A2.23,2.23,0,0,1,267.32,238.27Zm-7.08-12.33s-2.93-2.19-5.47-2.19-5.47,2.19-5.47,2.19l-3.41-3.45s3.89-3.72,8.88-3.72,8.88,3.72,8.88,3.72Zm1,17a2.1,2.1,0,1,1-2.1-2.1A2.1,2.1,0,0,1,261.24,242.91Zm-22.65-24.75a51.88,51.88,0,0,0-3.15,4.68h-2.67a1.36,1.36,0,0,1-.44-1.22c.09-.83,1.84-3.8,3.67-5.73a50.41,50.41,0,0,1,4.24-3.85h2.62l1.84,1.31S240.07,216.28,238.59,218.16Zm.7,21.78a3,3,0,1,1-3-3A3,3,0,0,1,239.29,239.93Zm15.48-25.63a15.38,15.38,0,0,1,11.85,5.16,2.84,2.84,0,0,1,.31,2.89,2.52,2.52,0,0,1-1.14,1,13.84,13.84,0,0,0-22,0,2.52,2.52,0,0,1-1.14-1,2.84,2.84,0,0,1,.31-2.89A15.38,15.38,0,0,1,254.77,214.31Zm-12.55,14.26a24.91,24.91,0,0,1,1.75-3.89l3.67,3.1a4.27,4.27,0,0,0-.61,2.14,25.27,25.27,0,0,0,.61,2.49h-5.42A8.49,8.49,0,0,1,242.22,228.56Zm2.23,7.48a2.23,2.23,0,1,1-2.23,2.23A2.23,2.23,0,0,1,244.45,236Zm3.85,6.87a2.1,2.1,0,1,1,2.1,2.1A2.1,2.1,0,0,1,248.29,242.91Zm16.53-29.56,1.84-1.31h2.62a50.41,50.41,0,0,1,4.24,3.85c1.84,1.92,3.59,4.9,3.67,5.73a1.36,1.36,0,0,1-.44,1.22h-2.67a51.88,51.88,0,0,0-3.15-4.68C269.46,216.28,264.82,213.35,264.82,213.35Zm11.37,26.59a3,3,0,1,1-3-3A3,3,0,0,1,276.19,239.93Zm30.17,1.66a2.89,2.89,0,1,1-2.89,2.89A2.89,2.89,0,0,1,306.37,241.59Zm-1.92-5.77a1.92,1.92,0,1,1,1.92,1.92A1.92,1.92,0,0,1,304.44,235.82Zm-20.08-52.1a1.31,1.31,0,1,1-1.31,1.31A1.31,1.31,0,0,1,284.37,183.72ZM283.05,181a1.31,1.31,0,1,1,1.31,1.31A1.31,1.31,0,0,1,283.05,181Zm1.31,6.72a1.31,1.31,0,1,1-1.31,1.31A1.31,1.31,0,0,1,284.37,187.74Zm3.73-5.57a1.31,1.31,0,1,1-1.31,1.31A1.31,1.31,0,0,1,288.1,182.17Zm-1.31-2.89a1.31,1.31,0,1,1,1.31,1.31A1.31,1.31,0,0,1,286.79,179.28Zm1.31,6.56a1.31,1.31,0,1,1-1.31,1.31A1.31,1.31,0,0,1,288.1,185.84Zm0,4.19a1.31,1.31,0,1,1-1.31,1.31A1.31,1.31,0,0,1,288.1,190Zm3.88-6.31a1.31,1.31,0,1,1-1.31,1.31A1.31,1.31,0,0,1,292,183.72ZM290.67,181a1.31,1.31,0,1,1,1.31,1.31A1.31,1.31,0,0,1,290.67,181Zm1.31,6.72a1.31,1.31,0,1,1-1.31,1.31A1.31,1.31,0,0,1,292,187.74Zm3.67-5.57a1.31,1.31,0,1,1-1.31,1.31A1.31,1.31,0,0,1,295.65,182.17Zm-1.31-2.89a1.31,1.31,0,1,1,1.31,1.31A1.31,1.31,0,0,1,294.34,179.28Zm1.31,6.56a1.31,1.31,0,1,1-1.31,1.31A1.31,1.31,0,0,1,295.65,185.84Zm0,4.19a1.31,1.31,0,1,1-1.31,1.31A1.31,1.31,0,0,1,295.65,190Zm4-6.31a1.31,1.31,0,1,1-1.31,1.31A1.31,1.31,0,0,1,299.64,183.72ZM298.33,181a1.31,1.31,0,1,1,1.31,1.31A1.31,1.31,0,0,1,298.33,181Zm1.31,6.72a1.31,1.31,0,1,1-1.31,1.31A1.31,1.31,0,0,1,299.64,187.74Zm3.84-5.57a1.31,1.31,0,1,1-1.31,1.31A1.31,1.31,0,0,1,303.48,182.17Zm-1.31-2.89a1.31,1.31,0,1,1,1.31,1.31A1.31,1.31,0,0,1,302.17,179.28Zm1.31,6.56a1.31,1.31,0,1,1-1.31,1.31A1.31,1.31,0,0,1,303.48,185.84Zm0,4.19a1.31,1.31,0,1,1-1.31,1.31A1.31,1.31,0,0,1,303.48,190ZM88.95,345.41H13V226.81H21.6l67.34,46.35Zm82.74-76.61-31.83,22.74H129.35l-106-72.24H13V146.35H60.09l72.24,48.1,39.36-24.05Zm5.77,80.81V167.34l29.91-21h39.31v47.93h-6.43a6.68,6.68,0,0,0-1.75-5c-2.06-2.06-6.82-1.49-6.82-1.49V177.23l-2.54-2.54h-27l-2.71,2.71v19.94h-2.1s-3,1.4-3,5.86,2,6.12,3.5,6.12h1.92l.09,1.14,2.41,2.41h26.37v11h-1.92v5.42h-8.48l-5.6,3V225.5l-2.84-2.84H194.33L188,232.85v4l3.15,3.76h2.36a11.77,11.77,0,0,0,.7,4c.79,2.27,3.06,8.31,3.06,8.31l1,1.14v1.75H208.5v-2l1-.79,2.27-5.77,6.56,3.5v2.1h11.89v-3.15a16.12,16.12,0,0,0,5.6,2.71,12.27,12.27,0,0,0,5.42.52v1.75a7.4,7.4,0,0,0-1,1.14,2,2,0,0,0-.35,1.49h-3l-3.32-3h-5.25l-5.42,3.5v7.61H218.3v12.07h-8.13l-4.2,4.2v8.4l1.31,2.1v5.6h-3.59a8.91,8.91,0,0,0-2,5c0,2.62-.35,15.39.35,19.42s.35,3.5,1.57,6,1,2.45,1.84,3.15a9.33,9.33,0,0,0,1.4,1h2.26a1.47,1.47,0,0,0-1.21.61,4.83,4.83,0,0,0-.52,1.22,4.74,4.74,0,0,0-3.24.44,8.24,8.24,0,0,0-1.84,1.75h-4.64L195,339.11l-6.38,1.75h-4.29l-1.88,1.88v4.77l3.06,2.1Zm47.71-163.26a1.31,1.31,0,1,1,1.31-1.31A1.31,1.31,0,0,1,225.17,186.34Zm1.31,2.71a1.31,1.31,0,1,1-1.31-1.31A1.31,1.31,0,0,1,226.48,189.05Zm-1.31-6.72a1.31,1.31,0,1,1,1.31-1.31A1.31,1.31,0,0,1,225.17,182.33Zm-3.73,6.14a1.31,1.31,0,1,1,1.31-1.31A1.31,1.31,0,0,1,221.43,188.46Zm1.31,2.87a1.31,1.31,0,1,1-1.31-1.31A1.31,1.31,0,0,1,222.75,191.34Zm-1.31-6.55a1.31,1.31,0,1,1,1.31-1.31A1.31,1.31,0,0,1,221.43,184.79Zm0-4.2a1.31,1.31,0,1,1,1.31-1.31A1.31,1.31,0,0,1,221.43,180.59Zm-3.88,5.75a1.31,1.31,0,1,1,1.31-1.31A1.31,1.31,0,0,1,217.55,186.34Zm1.31,2.71a1.31,1.31,0,1,1-1.31-1.31A1.31,1.31,0,0,1,218.87,189.05Zm-1.31-6.72a1.31,1.31,0,1,1,1.31-1.31A1.31,1.31,0,0,1,217.55,182.33Zm-3.67,6.14a1.31,1.31,0,1,1,1.31-1.31A1.31,1.31,0,0,1,213.88,188.46Zm1.31,2.87a1.31,1.31,0,1,1-1.31-1.31A1.31,1.31,0,0,1,215.19,191.34Zm-1.31-6.55a1.31,1.31,0,1,1,1.31-1.31A1.31,1.31,0,0,1,213.88,184.79Zm0-4.2a1.31,1.31,0,1,1,1.31-1.31A1.31,1.31,0,0,1,213.88,180.59Zm-4,5.75a1.31,1.31,0,1,1,1.31-1.31A1.31,1.31,0,0,1,209.9,186.34Zm1.31,2.71a1.31,1.31,0,1,1-1.31-1.31A1.31,1.31,0,0,1,211.21,189.05Zm-1.31-6.72a1.31,1.31,0,1,1,1.31-1.31A1.31,1.31,0,0,1,209.9,182.33Zm-3.84,6.14a1.31,1.31,0,1,1,1.31-1.31A1.31,1.31,0,0,1,206.05,188.46Zm1.31,2.87a1.31,1.31,0,1,1-1.31-1.31A1.31,1.31,0,0,1,207.36,191.34Zm-1.31-6.55a1.31,1.31,0,1,1,1.31-1.31A1.31,1.31,0,0,1,206.05,184.79Zm0-4.2a1.31,1.31,0,1,1,1.31-1.31A1.31,1.31,0,0,1,206.05,180.59Zm-2.89,61a2.89,2.89,0,1,1-2.89,2.89A2.89,2.89,0,0,1,203.17,241.59Zm-1.92-5.77a1.92,1.92,0,1,1,1.92,1.92A1.92,1.92,0,0,1,201.24,235.82ZM234.76,349.6a1.93,1.93,0,0,0-2-1.44h-4.36l2.82-.83V343l-1.79-1.79h-3.19l-4.9-6.87-1.31.26a1.26,1.26,0,0,0-.35-1.57,3.39,3.39,0,0,0-2.12-.78l3.43.08s2.54-.7,3.76-4.9,1.57-5.42,1.57-7.78V303a7.45,7.45,0,0,0-.79-3.06c-.7-1-1.4-2-1.4-2l-3.5-.09v-3.32h8.92v-1.75h1.14l3-1.84V281.3l-1.75-1.75,6.78-6.78h2.49l.52,1.79s.18.79,2.27,2.27c1.75,1.24,1.56,1.38,2.67,1.4V349.6Zm40,0h-20.9V278.24H262c2.1,0,1.4.09,3.5-1.4s2.27-2.27,2.27-2.27l.52-1.79h2.49l6.78,6.78-1.75,1.75v9.62l3,1.84H280v1.75h8.92v3.32l-3.5.09s-.7,1-1.4,2a7.45,7.45,0,0,0-.79,3.06v16.7c0,2.36.35,3.59,1.57,7.78s3.76,4.9,3.76,4.9l3.43-.08a3.39,3.39,0,0,0-2.12.78,1.26,1.26,0,0,0-.35,1.57l-1.31-.26-4.9,6.87h-3.19L278.29,343v4.29l2.82.83h-4.36A1.93,1.93,0,0,0,274.77,349.6Zm209.4-5.38H441.8l-72-49.2-39.72,29.52V225.37L368.59,199l115.58,78.32Zm0-76-74.6-50.9v-71h74.6Z"/></g></svg>