<svg xmlns="http://www.w3.org/2000/svg" viewBox="0 0 500 500"><title>mech</title><g id="Icons"><path d="M390.48,452.34a121.19,121.19,0,0,0-22.19-21.1c-1.89-1.39-4-2.94-4.4-5.24-.5-2.63,1.33-5,2.58-7.41,3.87-7.32,2.43-16.42-1-24s-8.7-14.08-12.71-21.33c-7.42-13.39-10.44-28.82-17.49-42.4-2.95-5.68-6.59-11.09-10-16.57A151.37,151.37,0,0,0,356.33,289c.22,1.31.44,2.62.61,3.95,1.45,11.45,1.07,23.32,5,34.18,3.31,9.19,13.27,18.17,21.9,13.58,5.78-3.07,7.42-10.61,7.19-17.15-.67-19.43-11.77-36.66-18.25-55,18.67-27.64,29.75-62,29.75-99.13C402.5,78.19,335.85,4,253.92,4S105.33,78.19,105.33,169.35a179,179,0,0,0,18.39,79.58c-6.94,7.07-14.25,13.81-21.64,20.41-1.85,1.65-3.79,3.44-4.39,5.83s.2,4.66,1,6.87a117.34,117.34,0,0,0,10,20.53A290,290,0,0,0,146,282.85a151.57,151.57,0,0,0,42.3,34.79c-12.12,24.79-33.54,46.84-40.31,74-.81,3.26-1.4,6.71-.49,9.94,1.28,4.56,5.35,8,6.3,12.65,1.88,9.11-8.27,15.44-15.56,21.22-7.1,5.63-12.68,13.48-14.42,22.37s.75,18.79,7.37,25c2.34,2.18,5.31,3.93,8.51,3.95,11.88.08,16.16-21.37,27.86-19.35-2.82,6.8-2.65,15.07,1.52,21.14s12.61,9.23,19.39,6.34c3.52-1.5,6.25-4.34,8.89-7.11,9.88-10.37,20-21.19,24.7-34.74,3.48-10.13,3.62-21.07,3.71-31.78.07-7.91.14-15.87-1.15-23.68-.8-4.84-2.12-9.62-2.32-14.52-.25-6.17,1.28-12.26,2.8-18.25l7.66-30.18c.13-.53.28-1.06.45-1.59A132.26,132.26,0,0,0,282,331.68a8.63,8.63,0,0,1,1.27.85c3.19,2.83,3.66,7.55,3.91,11.81l4.5,75.16c1.05,17.62,2.33,36,11.36,51.17s28.39,25.76,44.67,18.94a4,4,0,0,0,2.51-2.13c.37-1.18-.34-2.41-1-3.47-3.2-5.37-4.45-13.67,1-16.77,4-2.29,9.17,0,12.46,3.2s5.66,7.4,9.38,10.12a16,16,0,0,0,25.2-15.73C396.39,460.13,393.51,456.05,390.48,452.34Zm-74.33-157a39.74,39.74,0,0,1-1.05-4.71c-1.43-9.56.68-20.27-4.85-28.19-5.82-8.34-14.72-11.47-16.57-21.47-1-5.53,6.24-11,9.64-15.44,6.69-8.81,6.76-16.28,16.31-21.85,1.89-1.11,4.19-2.16,6.19-1.26,1.75.78,2.57,2.76,3.24,4.56l14.7,39.79c2.14,5.79,4.28,11.61,6.23,17.49A133.06,133.06,0,0,1,316.15,295.36Zm-189.89-126C126.26,89.73,183.53,25,253.92,25s127.66,64.78,127.66,144.4a158.52,158.52,0,0,1-15.68,69.27l-.2-1.2-16.16-98.28c-1.42-8.65-2.49-18.61,3.33-25.16,1.84-2.08,4.34-3.74,5.28-6.35,1.81-5-3.79-10.25-9.15-10.21s-10.05,3.43-14.33,6.67l-38.81,29.41c-5.27,4-13,12.13-17.82,7.64-5.62-5.2-.11-18.71-1.28-26.28-1.11-7.25-8.72-12-16-12.5s1.59,0-22.24,5.86c-5.47,10.91,1.89,23.48-6.75,29.05-6.5,4.19-15.18,1.81-22-1.78a73.76,73.76,0,0,1-32.56-34.41c-2.43-5.32-7.22-12.18-12.33-9.34-3,14.83,8.17,21.83,6.57,33.09-.79,5.59-3,10.9-4,16.46-1.39,7.65-.53,15.51-.75,23.29-.59,21.11-9.19,41.4-21.27,58.72-2.06,3-4.25,5.81-6.5,8.62A159.3,159.3,0,0,1,126.26,169.35Zm37.22,101.8c1-.76,2.12-1.45,3.15-2.22,10.7-8,21.62-18.15,22.86-31.46.61-6.55-1.25-13.06-1.61-19.63s1.31-14,6.87-17.49c7.06,2.75,11.71,9.82,13.53,17.17s1.25,15.06.68,22.61c-.22,2.9-.46,5.88-1.67,8.52-1.38,3-3.88,5.34-5.72,8.09-6,9-4.08,20.88-4.79,31.7a65.09,65.09,0,0,1-1.35,9.2A130.5,130.5,0,0,1,163.47,271.15Z"/></g></svg>