<svg xmlns="http://www.w3.org/2000/svg" viewBox="0 0 500 500"><defs><style>.cls-1{fill:#fff;}</style></defs><title>mech-alt_COLOR</title><g id="n1"><path class="cls-1" d="M134.35,178.74c-13.92,4-8.36-27.61-7.39-35.46C142,156.52,138.38,159,134.35,178.74Z"/><path class="cls-1" d="M313.55,78.66c12.1-6.13,5.15-33.54,4.85-44.77a138.35,138.35,0,0,1,63.07,55.17c-13.53,3.83-11.69-14.72-25.41-16.31C341.44,71.06,339,82.93,341,94.61c-8.6-4.77-17.36-9.47-27.46-9.15Z"/><path class="cls-1" d="M367,128.85c-1,.74-11.72,10.13-11.81,9.45-.63-5.07-2.26-22.43,5.86-24.64C368.07,111.75,372.23,125,367,128.85Z"/><path class="cls-1" d="M144.63,91A138.8,138.8,0,0,1,251.1,23.14c9.16-.83,29.08-3.58,37,1.65,7.35,4.83,2.74.51,5,9.61,2.43,10,.46,23,.66,33.34h-7.68c-1.93-15.2-17.37-17.64-14.47-33.66h-21v12.1h-5.9C240.06,52,236,58.37,235.32,66h-8.56V84.86l-34-.3c0,29.88-12.36,10.09-20.37-5.31C163.89,86.53,156.67,95,144.63,91Z"/><path class="cls-1" d="M202,215.94c-7.24,11.76,5.36,15.95,4.43,21.55-.66,4-7.78-.34-8,4.39-.17,4.19,1.35,9.26,1.62,11.85.48,4.54,3.17.76,2.8,7.94-.23,4.54-4.21,10.76-5.9,15.09l-13.29-8-1.32,2.5a138.07,138.07,0,0,1-18.47-16.24c5.08-1.93,6.31-17.68,3.55-23.32-3.37-6.9-13.64-8.1-16.85-15.84-5.83-14.08,7.86-28.35,11.87-39.94,6.09-17.61,12-32.11,23.87-47.1,4.68,7.22,11.42,3.39,15.35,7-1-.93,8.58,17.11,8.12,14.78.88,4.45-5.8,36,12.84,25.2A99.09,99.09,0,0,0,230,213.88S204.32,212.1,202,215.94Z"/><path class="cls-1" d="M244.51,296.59a134.72,134.72,0,0,1-15.67-3.12c1.46-3.8,3.51-15.84,6.77-17.6C247.17,269.64,244.69,293.57,244.51,296.59Z"/><path class="cls-1" d="M242.7,154.83c-11.46,0,0-10.12,0-10C242.7,144.71,254.16,154.83,242.7,154.83Z"/><path class="cls-1" d="M275.49,297.4c.66-6.54,2.51-37.65,16.85-23.68,1.06,1,1.38,14,.92,15.27C290.27,297.7,287.25,296.41,275.49,297.4Z"/><path class="cls-1" d="M279.6,156c-3.25-4.72,0-11.22,0-11.22,3.29,4.37,7.66,5.94,12.69,3.84C292.29,148.63,282.85,160.74,279.6,156Z"/><path class="cls-1" d="M288.34,253.14c.31-.73-4.4,12.5-7,11.22-3.26-1.63-1-21.13,1-24.48C292.7,222.19,293,242.08,288.34,253.14Z"/><path class="cls-1" d="M296.13,111.14c-6,13.93-28.61,8.55-43.44,8.51q-23.89,0-47.79-.25l1.48-30.11c14.29-.5,13.24,13,13.29,23.62,4.11-3.68,9.6-9.91,15-11.29,2.88-.73,2.35,5.2,4.13,5,.42,0,8.14-4.28,5.9-4.53.64.07,8.62,1.72,6.31,2.38-1.54.44,9-3.05,8.57-3.06,3.6.1,24.46-.94,8.75,7.93,2.38-.3,24.53-9.76,21.85-12.1C290.12,97.17,296.12,111.18,296.13,111.14Z"/><path class="cls-1" d="M383.32,228.25a138.68,138.68,0,0,1-47.9,49.42c-1.92-8.25-9.84-6.26-10.36-17.74-.35-7.75,5-14.08,4.58-23-1-22-13.92-25.68-33.2-23.69,2.87-11.61,1.16-28.49,6.16-38.59,2.67-5.4,8.67-7.33,10.93-13,1.7-4.26-9.44-7.14-6.46-10.75,2.76-3.35,11.33,2.58,11.59,1.75,1.78-5.82-1.8-10.12,2.34-14.92,4-4.65,17.15-2,18.84-12.17-.59,3.52,15.13,20.64,17.93,25.31,6.16,10.29,17.9,21.81,22.52,31.83,2.36,5.13,1.31,10,2.62,15.07,0,0,4,14.65,4.17,12.21C386.66,217.56,378.23,221.4,383.32,228.25Z"/><path class="cls-1" d="M401,169.24c-9.34-16-15.78-17.81-1.33-30.24A135.13,135.13,0,0,1,401,169.24Z"/></g><g id="Base"><path d="M431.64,261.11c16.35-18.68-2.76-56.11-13.4-75.93C433,92.91,361,6,267.52,3.71,174.35,1.41,97.84,84.29,107.93,177.07c-19-.72-24.79,14.55-32.07,30.13-2.58,5.52-5.71,11.23-6.07,17.46-.42,7.31,3.62,10.37,3.86,16.66.45,11.76-6.84,12-8.83,25.36-1.39,9.3-5.95,33.75.7,41.66,14.26,17,28.79-12,32.33-22.26,2-5.76,5.58-15.64,5-21.69-.35-3.52-8.14-12-2.79-13.47,7.85-2.1,17.06,26.18,26.32,30.74,7.44,3.67,24.42-.37,28.87-8.51C162,279.63,189.62,292.66,193,300c1.64,3.56-2.24,13.17-2.93,17.24-10.67-2.74-16,19.76-17.44,28.16-2.91,16.92-7.41,27.89-13.53,44.42-5.26,14.19-9.46,22.63,4.2,31.93,8.28,5.64,7.12-1.77,10.65,6,1.85,4.06,0,13.51,0,18.23,15.93-2.38-7.78,16.51-10.32,20.64-3,4.89-6.36,8.17-5.36,14.79,2,13.1,2.67,3.7,11.64,8.4,13.85,7.24,14.4,12.15,28.92-5.48,10.73-13,18.39-27.2,20.55-44,15.37,7.6,22.16-9.54,24.57-21.43,4-19.54-1.35-31.27-9-47.37-8.28-17.53-5.83-38.52-6.36-58.64a157.21,157.21,0,0,0,67.42.57c-4.63,16.57,4.13,21.42,7.48,36.1,1.64,7.17,0,16.35,0,23.76-13.61,2.27-18.1,38.33-18.85,50.61-1.28,20.92,3.51,27.68,25.34,28.21-2,15.38,12.95,26.76,23.54,36,14.6,12.73,27,6.67,45.25,7.1,0-13.76,1.21-15.43-6.77-24.63-3.61-4.17-13.48-8.81-14.92-14.44-1.85-7.26,3.19-6.24,4-13.51.41-3.84-.86-7.77-.6-11.62.5-7.35,3.32-10.7,4.85-14.4.5-1.21,3.71.8,4.35-.89,1-2.7-.34-6.62,0-9.49,1.21-10.5-4.65-18.44-7.73-27.58-5.32-15.78,4.14-43.11-10.6-60-3.08-3.52-8-.64-11-5-1.12-1.65-2.39-13.37-1.61-15.36,2.15-5.46,21.77-15,27.33-19.81a158.13,158.13,0,0,0,27.56-31.17c.27,4.87,3.64,8.67,4,12.45.71,8.3-2.3,9.52-3.73,16.72-3.64,18.24-2,16.08,13.72,22.36,10.49,4.2,22.12,10.2,29.36-5.41C440.16,286.62,429.81,263.2,431.64,261.11ZM134.35,178.74c-13.92,4-8.36-27.61-7.39-35.46C142,156.52,138.38,159,134.35,178.74ZM313.55,78.66c12.1-6.13,5.15-33.54,4.85-44.77a138.35,138.35,0,0,1,63.07,55.17c-13.53,3.83-11.69-14.72-25.41-16.31C341.44,71.06,339,82.93,341,94.61c-8.6-4.77-17.36-9.47-27.46-9.15ZM367,128.85c-1,.74-11.72,10.13-11.81,9.45-.63-5.07-2.26-22.43,5.86-24.64C368.07,111.75,372.23,125,367,128.85ZM144.63,91A138.8,138.8,0,0,1,251.1,23.14c9.16-.83,29.08-3.58,37,1.65,7.35,4.83,2.74.51,5,9.61,2.43,10,.46,23,.66,33.34h-7.68c-1.93-15.2-17.37-17.64-14.47-33.66h-21v12.1h-5.9C240.06,52,236,58.37,235.32,66h-8.56V84.86l-34-.3c0,29.88-12.36,10.09-20.37-5.31C163.89,86.53,156.67,95,144.63,91Zm57.32,125c-7.24,11.76,5.36,15.95,4.43,21.55-.66,4-7.78-.34-8,4.39-.17,4.19,1.35,9.26,1.62,11.85.48,4.54,3.17.76,2.8,7.94-.23,4.54-4.21,10.76-5.9,15.09l-13.29-8-1.32,2.5a138.07,138.07,0,0,1-18.47-16.24c5.08-1.93,6.31-17.68,3.55-23.32-3.37-6.9-13.64-8.1-16.85-15.84-5.83-14.08,7.86-28.35,11.87-39.94,6.09-17.61,12-32.11,23.87-47.1,4.68,7.22,11.42,3.39,15.35,7-1-.93,8.58,17.11,8.12,14.78.88,4.45-5.8,36,12.84,25.2A99.09,99.09,0,0,0,230,213.88S204.32,212.1,202,215.94Zm42.56,80.64a134.72,134.72,0,0,1-15.67-3.12c1.46-3.8,3.51-15.84,6.77-17.6C247.17,269.64,244.69,293.57,244.51,296.59ZM242.7,154.83c-11.46,0,0-10.12,0-10C242.7,144.71,254.16,154.83,242.7,154.83ZM275.49,297.4c.66-6.54,2.51-37.65,16.85-23.68,1.06,1,1.38,14,.92,15.27C290.27,297.7,287.25,296.41,275.49,297.4ZM279.6,156c-3.25-4.72,0-11.22,0-11.22,3.29,4.37,7.66,5.94,12.69,3.84C292.29,148.63,282.85,160.74,279.6,156Zm8.74,97.13c.31-.73-4.4,12.5-7,11.22-3.26-1.63-1-21.13,1-24.48C292.7,222.19,293,242.08,288.34,253.14Zm7.79-142c-6,13.93-28.61,8.55-43.44,8.51q-23.89,0-47.79-.25l1.48-30.11c14.29-.5,13.24,13,13.29,23.62,4.11-3.68,9.6-9.91,15-11.29,2.88-.73,2.35,5.2,4.13,5,.42,0,8.14-4.28,5.9-4.53.64.07,8.62,1.72,6.31,2.38-1.54.44,9-3.05,8.57-3.06,3.6.1,24.46-.94,8.75,7.93,2.38-.3,24.53-9.76,21.85-12.1C290.12,97.17,296.12,111.18,296.13,111.14Zm87.19,117.11a138.68,138.68,0,0,1-47.9,49.42c-1.92-8.25-9.84-6.26-10.36-17.74-.35-7.75,5-14.08,4.58-23-1-22-13.92-25.68-33.2-23.69,2.87-11.61,1.16-28.49,6.16-38.59,2.67-5.4,8.67-7.33,10.93-13,1.7-4.26-9.44-7.14-6.46-10.75,2.76-3.35,11.33,2.58,11.59,1.75,1.78-5.82-1.8-10.12,2.34-14.92,4-4.65,17.15-2,18.84-12.17-.59,3.52,15.13,20.64,17.93,25.31,6.16,10.29,17.9,21.81,22.52,31.83,2.36,5.13,1.31,10,2.62,15.07,0,0,4,14.65,4.17,12.21C386.66,217.56,378.23,221.4,383.32,228.25Zm17.7-59c-9.34-16-15.78-17.81-1.33-30.24A135.13,135.13,0,0,1,401,169.24Z"/></g></svg>