<svg xmlns="http://www.w3.org/2000/svg" viewBox="0 0 500 500"><title>mechwarrior-dark-age-title</title><g id="Base"><path d="M53.49,207.39,34.13,219.89,14.86,207.39H1.67v68.36H24.45V244l8,6H35l8.14-5.82v31.52h22.7V207.39ZM21.28,270.78H3V229.66H4.49l16.79,11.91ZM42.7,241.14l-7.62,5.48h-3L4.92,227.77H3V208.93H14.43v1.54L33.75,223v-.43l9-5.57ZM63,270.78H45.53v-56l8.14-5.48H63Z"/><path d="M101.38,233.34V218.27H75.51l-6.94,6.64v44.2l6.51,6.64h26.3V260.15H85.27v-6.42H99.66v-14H85.53v-6.34ZM82.62,272.58H76.45l-6-5.31V225.38l6.08-5.65h6.08ZM98,261.78v10.79H84.33V261.78ZM96.24,241v10.79H84.33V241ZM85,231V219.72H98V231Z"/><path d="M140.61,237.63V224.69l-6.68-6.42H110.46l-6.94,6.42-.11,44.65,6.87,6.87h22.57l7.75-7.75V256.3H123.13v4.8h-2.91v-28h3v4.54Zm-22.44,34.95h-7.88l-5.23-5V225.89l6.55-6.17h6.55Zm6.34-9.68v-5.05h12.34v9.77l-4.2,5H119.45V262.9ZM120,231V219.72h13.11v2.23l4.54,3.94v9H124.93V231Z"/><path d="M179.07,224.09v-5.82h-17.3v21h-2v-21h-17v58h16.28V255h2.57v21.2h11.14V270l1.88-2.48h4.37V236.34l-3.68-2.4.09-5.18ZM157,272.58H144.29V219.72H157Zm19.53-34.95v26.81h-2.91l-3.51,3.68v4.45h-6.42v-20h-4.71V240.88h4.8l-.09-21.16H176.5v3.68L172.82,228v7.37Z"/><path d="M498.33,224.78l-6.42-6.51H460.73v58h15.93V253.64h3.25v22.57h17.73V252.27l-5.14-5.65,5.82-5.4Zm-23.39,47.8H462.1V219.72h12.85Zm1.54-32.89v-6.94h3.77v6.94Zm18.5,0-6.17,6.85,5.48,6.34v19.7H481.37v-20.3h-4.11V241.74h4.8V230.94h-4.8V219.72h12.08l5.65,5.74Z"/><path d="M230.08,276l2.75-1.89v-2.57l-1.18-1.18h-1.87l-2-.54a10.8,10.8,0,0,0-3.26-3.11l.05-.11a4.33,4.33,0,0,0,.54-1.69c0-.21.07-.48.14-.85a55.43,55.43,0,0,0,.16-6.75c0-.39,0-.7,0-.89a4.14,4.14,0,0,0-1-2.43l-.23-.27h-1v-1.17l.51-.81V248l-2.07-2.07H219v-4.67h-1.76v-2.59l-1.14-.74H219v-1.12l1.36-.73.64,1.61.24.2v1.18h5.5v-1.16l.19-.22.13-.23s.88-2.35,1.19-3.23a5.85,5.85,0,0,0,.26-1h.56l1.63-1.94v-2.05l-2.78-4.49h-6.72l-1.55,1.55v1.64l-1.2-.64h-2.7v-2.1H215v-2.7h9.74l1.36-1.36h0c1,0,2.12-1,2.12-3.14a3.19,3.19,0,0,0-1.59-3l-.16-.07h-.17l0-7.26-1.5-1.5H213.7l-1.43,1.43v3.61a3.62,3.62,0,0,0-2.41.83,3.14,3.14,0,0,0-.85,1.7h-9.78a3.13,3.13,0,0,0-.85-1.7,3.62,3.62,0,0,0-2.41-.83v-3.61l-1.43-1.43H183.44l-1.5,1.5v7.26h-.21l-.16.07a3.19,3.19,0,0,0-1.59,3c0,2.16,1.1,3.14,2.12,3.14l1.39,1.37h9.74v2.7h-.74v2.1h-2.7l-1.2.64v-1.64L187,224.68h-6.72l-2.78,4.49v2.05l1.63,1.94h.56a5.87,5.87,0,0,0,.26,1c.31.88,1.19,3.23,1.19,3.23l.32.45v1.16H187v-1.18l.24-.2.64-1.61,1.36.73v1.12h2.9l-1.14.74v2.59h-1.76v4.67h-2.69L184.47,248v3.79l.51.81v1.17h-1l-.23.27a4.14,4.14,0,0,0-1,2.43c0,.18,0,.49,0,.88a55.66,55.66,0,0,0,.16,6.75c.07.37.11.64.14.85a4.32,4.32,0,0,0,.54,1.68l.24.51a2.27,2.27,0,0,0,.54.84,1.71,1.71,0,0,0-.33.18,4.38,4.38,0,0,0-.62.53h-1.76l-1.1,1.1-2.17.6h-1.87l-1.18,1.18v2.57l2.75,1.89h4.92l1.25-1.25h9.55l1.92-.53v-2.55l-1.15-1.14h-1.16l-1.6-2.24a3.77,3.77,0,0,0,1.36-2.1,10,10,0,0,0,.64-3.23v-6.49a3.48,3.48,0,0,0-.43-1.58c-.28-.42-.56-.8-.56-.8l-.07-.09h2.31v-.75l1.59-1V247.8l-.36-.36,1.85-1.85h.07l0,.09c.06.27.32.72,1.19,1.34l.37.28a1.64,1.64,0,0,0,1.3.4H207a1.62,1.62,0,0,0,1.3-.4l.38-.28c.87-.62,1.13-1.07,1.17-1.29l0-.14,1.92,1.85-.36.36v4.47l1.59,1V254h2.31l-.07.09s-.28.38-.56.8a3.52,3.52,0,0,0-.43,1.61V263c0,.15,0,.29,0,.42l-1-.14a94.85,94.85,0,0,0-11-.43c.17,1.21.22,10.32.22,11.23v5.35c0,1.17-.09,11.88-.26,13.86,9.42,0,25.37-5.1,26.75-17.25Zm-.61-4.12,1.54,0,.28.28v1.12l-1.68,1.16h-.45c0-.06,0-.11,0-.17a8,8,0,0,0-.44-2.62Zm-11.09-3.26.15,0,0-1a13,13,0,0,1,3.32,1.74l0,.13.12,0a7.29,7.29,0,0,1,2.67,3.8l-.08-.08H214.47l-.49-.14v-.76l.24-.24h1.31l1.83-2.57,1.81.36Zm-2.5-5.66v-6.42a2.13,2.13,0,0,1,.18-.79l.3-.44,1.72,0v-2.81h-3.45v-.68h-1l-.6-.37v-3l1-1-3.39-3.39h-1.86l-.34,1.18a2.66,2.66,0,0,1-.61.53l-.42.31c-.06,0-.12.09-.06.08h-6.16c-.14,0-.22,0-.21,0l-.15-.11-.42-.31a4.91,4.91,0,0,1-.59-.48l-.36-1.23h-1.86l-3.39,3.39,1,1v3l-.6.37h-1v.68h-3.45v2.81l1.72,0,.3.44a2.08,2.08,0,0,1,.17.76V263a8.68,8.68,0,0,1-.58,2.79,2.16,2.16,0,0,1-.86,1.34l-1.17,0-.06,1.54.15,0-.8,1.23,1.81-.36,1.83,2.57H194l.24.24v.76l-.49.14H183.67l-1.25,1.25h-3.8l-1.68-1.16v-1.12l.28-.28h1.34l2.87-.76.93-.93h1.87l.23-.32a2.55,2.55,0,0,1,.53-.5,1.12,1.12,0,0,1,.64,0l.72.13.19-.7a1.55,1.55,0,0,1,.13-.28.55.55,0,0,1-.14.15l-.07-1.54h-.64l-.26-.21c-.12-.1-.12-.1-.28-.45l-.25-.53a3,3,0,0,1-.4-1.25c0-.22-.08-.5-.14-.88a57.17,57.17,0,0,1-.13-6.47c0-.4,0-.72,0-.91a2.36,2.36,0,0,1,.4-1.16h1.76v-3.16l-.51-.81v-2.71l1.17-1.17h3.6v-4.67h1.76v-3.29l1.55-1h1.51l1.28,1.15h1.44l1,.05-.21-.94a2.14,2.14,0,0,1,.28-.31h0l.28-.23v-2l-.92.18a4.26,4.26,0,0,1-1.73-.19,5.62,5.62,0,0,1-1.88-.9l-1.26-1.05v2.09h-3.06v-.5l-3.71-2L186,236.73l-.5.41v.37H183v-.19l-.47-.55c-.18-.49-.87-2.32-1.13-3.07a3.88,3.88,0,0,1-.23-1.26l0-.81h-1.36l-.81-1v-1.06l2.09-3.39h5.22l.65.65v3.57l3.13-1.66H194v-2.1h.74v-5.79H184.13l-.5-.5-.07-.87H182.1c-.15,0-.58-.39-.58-1.6a1.8,1.8,0,0,1,.6-1.49h1.36v-8.16l.6-.6h9.81l.53.53v4.64l.86-.1a3,3,0,0,1,2,.35,1.82,1.82,0,0,1,.45,1.3l-.09.85h12.94l-.09-.85a1.82,1.82,0,0,1,.45-1.3,3,3,0,0,1,2-.35l.86.1v-4.64l.53-.53h9.81l.6.6v8.16h1.36a1.8,1.8,0,0,1,.6,1.49c0,1.2-.43,1.6-.58,1.6h-1.46l-.07.87-.5.5H213.45v5.79h.74v2.1h3.86l3.13,1.66v-3.57l.65-.65H227l2.09,3.39v1.06l-.81,1H227l0,.8a3.91,3.91,0,0,1-.23,1.27c-.26.75-.94,2.58-1.13,3.07l-.47.55v.19h-2.41v-.37l-.5-.41-1.12-2.85-3.71,2v.46l-3.06,0v-2.07l-1.26,1a5.56,5.56,0,0,1-1.88.9,4.32,4.32,0,0,1-1.72.19l-.94-.21v2l.27.23.29.26-.21.94h2.41l1.28-1.15h1.51l1.55,1v3.29h1.76v4.67H221l1.17,1.17v2.71l-.51.81v3.16h1.76a2.36,2.36,0,0,1,.4,1.16c0,.19,0,.5,0,.91a56.89,56.89,0,0,1-.13,6.47c-.07.39-.11.67-.14.88a2.93,2.93,0,0,1-.4,1.25h0a26.55,26.55,0,0,0-7.28-2.31A5,5,0,0,1,215.87,263Zm-9.43,26.49v-23.4a42.67,42.67,0,0,1,8.74.7,3.57,3.57,0,0,0,1.15,1.54l-1.6,2.24h-1.16l-1.14,1.14v2.55l1.7.5,9.77,0,1,1C224.67,281.72,218,288.44,206.44,289.46Z"/><path d="M319.47,276.22l-8.82-58H285.29L275.66,268a19.83,19.83,0,0,0-2-.35L283,218.27H264.91l-3.6,19.1-3.51-19.1h-9.25l-5.14,19.87-2.83-19.87H230.13l-1.46,4.45,3.94,6,.69,3.08-2.91,3.08-2.74,6.68,4.28,28,4.28,3.77v2.87h1.87c-3.46,6.35-7.43,13.66-8.59,15.7l3.32,1.9c.61-1.25,3.63-7.64,4.15-8.81l13.34-.52c.39.65,4.45,7.9,5.14,9.28l3.5-2.12c-1.68-2.54-6.32-10.62-10.24-17.32l3.61-16.16,3,18h9.93c0,.24,0,.43,0,.55v3c0,.78,0,12.44-.09,13.3h4.06c-.09-.56-.22-9.85-.22-11.23v-5.6h3l1.08-5.72a11,11,0,0,1,2,.53l-1,5.19h3.14c-1.1,2.37-3.87,3.78-5.4,4.56,1.17,1.55,10.06,12.44,10.49,13l3-2.63c-1.12-1.08-8.07-8.68-9.07-10a12,12,0,0,0,4.93-4.87h10.68c0,.69,0,1.32,0,1.84v3.89c0,4.19-.13,10.41-.22,11.49h4.14c-.09-.73-.22-8.94-.22-11.79v-3.93c0-3.2.17-10.15.22-10.75h-2.5l.16-1.15h6.42l1.72,8.36-5.72,5.36c1.68,1.81,13.34,13.34,13.82,13.86l2.68-2.94c-1.55-1.38-10.79-9.76-12-11.18.73-.67,2-1.81,3.49-3.05Zm-82.83-6.55-3.6-3.26-3.51-24.5L232.1,236l3.17-3.43-1.2-4.71-3.85-5.57,1-2.57h7.11l3.68,23.9ZM249,281.86l-10.54.43c.2-.35,1.71-3.4,3.06-6.07h4.39C247.24,278.67,248.73,281.41,249,281.86ZM252.23,250l-5.76,20.49c-1.09-1.83-2-3.4-2.72-4.48h-.09c-.29.47-1.73,3.1-3.59,6.52h-1.8v-2.91l11.56-49.94h5.48L260,243l-3.77,20.82Zm18.65,17.38c-2.34-.12-4.5-.08-5.85-.08.07.38.13,2.88.17,5.23h-8.26l9.42-52.85h13.79Zm18.1,5.15h-7.31c-.42-1.92-2.07-3.37-4.73-4.22l9.38-48.63H300.2Zm8-28.7,2,8.39H295Zm4.71,19.53h-7.8l1.63-9.34H301l-3.08-13.88,3.77-20.47h6.08l7.8,52.85h-7.4c1.25-1,2.29-1.9,2.79-2.29l-2.29-2.81c-.38.4-2.59,2.49-5.07,4.82Z"/><path d="M399.57,267.19l-2.66.13v-15l-5.14-5.65,5.82-5.4V224.78l-6.42-6.51H360v58h7.11a11.63,11.63,0,0,0-2.69,6.68c0,6.09,5.27,10.75,14.16,10.75a30.05,30.05,0,0,0,8.68-1.17c0-.48-.09-3.76-.09-5.18v-5.48h-3.84a23.37,23.37,0,0,1,.13,2.55v6a13.42,13.42,0,0,1-4.06.52c-7.77,0-11-4.06-11-7.9a9.78,9.78,0,0,1,3.23-6.72h4.26V273a25.5,25.5,0,0,1,3.25-1.55v4.74h17c0,.68,0,1.16,0,1.28v4.88c0,.86,0,8.72-.13,10.67.78,0,12.61.39,13.9.39l-.13-3.28c-3.67.22-8.94.13-9.89.13v-8.72c.86,0,7,.13,8.25.13l-.13-3.15c-2.38.22-7.38.39-8.12.39v-3.18h19.45V218.27H399.57Zm-25.36,3.07a26.89,26.89,0,0,0-3.47,2.31h-9.37V219.72h12.85Zm1.54-30.58v-6.94h3.77v6.94ZM379.18,268c-1.16.43-2.25.89-3.25,1.38V253.64h3.25Zm14.39,4.58H380.63v-1.63a27.87,27.87,0,0,1,3.55-.92l-.78-3.37c-1,.25-1.89.53-2.78.82V252.27h-4.11V241.74h4.8V230.94h-4.8V219.72H388.6l5.65,5.74v14.22l-6.17,6.85,5.48,6.34Zm7.45-2.65c2.22,0,7-.15,8.29-.15l-.17-3.11c-1.1.07-4.89.29-8.12.46V219.72h15.59v52.85H401Z"/><path d="M357.85,276.22V252.27l-5.14-5.65,5.82-5.4V224.78l-6.42-6.51H320.93v58h15.5c-3.42,6.64-6.92,13.4-8.07,15.4l3.54,2.25c.73-1.47,4.27-9.8,4.79-10.62l15-.6c.47.69,5.05,9.54,5.92,11.18l3.67-2.42c-1.53-2.34-5-8.73-8.57-15.19Zm-22.7-3.64H322.3V219.72h12.85Zm1.54-32.89v-6.94h3.77v6.94Zm.17,14h3.25v15.43l-3.25,6.31Zm1.3,26.75c.15-.27,1-2.05,2-4.17h8.28c1,1.82,1.74,3.32,1.91,3.66Zm3.77-7.82c1-2.16,2-4,2.23-4.4.18.29,1.21,2.2,2.38,4.4Zm8.75,0c-2.56-4.65-4.95-8.93-6.4-11.27h-.09c-.26.42-1.26,2.3-2.64,5v-14h-4.11V241.74h4.8V230.94h-4.8V219.72h12.08l5.65,5.74v14.22L349,246.53l5.48,6.34v19.7Z"/><path d="M451.9,218.27H428.52l-6.94,6.34-.69,44.8,6.42,6.81h24.41l6.17-6.47V224.6Zm-12.58,54.31H427.58l-5.14-5.23.41-41.83,6.36-5.8H439.4v10.45l-1.8,2.14v28.76l1.72,1.72Zm.08-39.83h1.71v28.33H439.4Zm16.7,35.21-4.37,4.63H441.11v-9.77l2.31-1.73v-29L441.11,230V219.72h9.17l5.83,6.42Z"/><circle cx="224.06" cy="230.54" r="0.74"/><circle cx="224.06" cy="233.89" r="1.12"/><circle cx="184.16" cy="230.54" r="0.74"/><circle cx="184.16" cy="233.89" r="1.12"/><circle cx="211.24" cy="232.13" r="1.15"/><path d="M204.11,222.22a5.94,5.94,0,0,1,4.58,2,1.1,1.1,0,0,1,.12,1.12,1,1,0,0,1-.44.39,5.35,5.35,0,0,0-8.52,0,1,1,0,0,1-.44-.39,1.1,1.1,0,0,1,.12-1.12A5.94,5.94,0,0,1,204.11,222.22Z"/><circle cx="196.98" cy="232.13" r="1.15"/><path d="M197.85,223.71a20.07,20.07,0,0,0-1.22,1.81h-1a.53.53,0,0,1-.17-.47,6.55,6.55,0,0,1,1.42-2.21,19.46,19.46,0,0,1,1.64-1.49h1l.71.51A13.29,13.29,0,0,0,197.85,223.71Z"/><circle cx="200.12" cy="231.49" r="0.86"/><path d="M201.12,228.26a9.78,9.78,0,0,0,.24,1h-2.1a3.28,3.28,0,0,1,0-1.49,9.63,9.63,0,0,1,.68-1.5l1.42,1.2A1.65,1.65,0,0,0,201.12,228.26Z"/><circle cx="202.42" cy="233.28" r="0.81"/><path d="M202,226.72l-1.32-1.34a4.82,4.82,0,0,1,6.86,0l-1.32,1.34a3.06,3.06,0,0,0-4.23,0Z"/><circle cx="205.8" cy="233.28" r="0.81"/><circle cx="208.1" cy="231.49" r="0.86"/><path d="M209,229.22h-2.1a9.78,9.78,0,0,0,.24-1,1.65,1.65,0,0,0-.24-.83l1.42-1.2a9.63,9.63,0,0,1,.68,1.5A3.28,3.28,0,0,1,209,229.22Z"/><path d="M208,221.85l.71-.51h1a19.48,19.48,0,0,1,1.64,1.49,6.55,6.55,0,0,1,1.42,2.21.53.53,0,0,1-.17.47h-1a20.07,20.07,0,0,0-1.22-1.81A13.29,13.29,0,0,0,208,221.85Z"/><circle cx="222.94" cy="208.68" r="0.51"/><circle cx="222.94" cy="210.31" r="0.51"/><circle cx="222.94" cy="211.73" r="0.51"/><circle cx="222.94" cy="213.34" r="0.51"/><circle cx="221.46" cy="209.35" r="0.51"/><circle cx="221.46" cy="210.91" r="0.51"/><circle cx="221.46" cy="212.46" r="0.51"/><circle cx="219.91" cy="208.68" r="0.51"/><circle cx="219.91" cy="210.31" r="0.51"/><circle cx="219.91" cy="211.73" r="0.51"/><circle cx="219.91" cy="213.34" r="0.51"/><circle cx="218.5" cy="209.35" r="0.51"/><circle cx="218.5" cy="210.91" r="0.51"/><circle cx="218.5" cy="212.46" r="0.51"/><circle cx="217" cy="208.68" r="0.51"/><circle cx="217" cy="210.31" r="0.51"/><circle cx="217" cy="211.73" r="0.51"/><circle cx="217" cy="213.34" r="0.51"/><circle cx="215.55" cy="209.35" r="0.51"/><circle cx="215.55" cy="210.91" r="0.51"/><circle cx="215.55" cy="212.46" r="0.51"/><circle cx="185.28" cy="213.34" r="0.51"/><circle cx="185.28" cy="211.73" r="0.51"/><circle cx="185.28" cy="210.31" r="0.51"/><circle cx="185.28" cy="208.68" r="0.51"/><circle cx="186.76" cy="212.46" r="0.51"/><circle cx="186.76" cy="210.91" r="0.51"/><circle cx="186.76" cy="209.35" r="0.51"/><circle cx="188.3" cy="213.34" r="0.51"/><circle cx="188.3" cy="211.73" r="0.51"/><circle cx="188.3" cy="210.31" r="0.51"/><circle cx="188.3" cy="208.68" r="0.51"/><circle cx="189.72" cy="212.46" r="0.51"/><circle cx="189.72" cy="210.91" r="0.51"/><circle cx="189.72" cy="209.35" r="0.51"/><circle cx="191.22" cy="213.34" r="0.51"/><circle cx="191.22" cy="211.73" r="0.51"/><circle cx="191.22" cy="210.31" r="0.51"/><circle cx="191.22" cy="208.68" r="0.51"/><circle cx="192.67" cy="212.46" r="0.51"/><circle cx="192.67" cy="210.91" r="0.51"/><circle cx="192.67" cy="209.35" r="0.51"/></g></svg>