<svg xmlns="http://www.w3.org/2000/svg" viewBox="0 0 500 500"><defs><style>.cls-1{fill:red;}.cls-2{fill:#fff;}</style></defs><title>mechwarrior-title-w-mech_COLOR</title><g id="n2"><path class="cls-1" d="M236,291.37H207.88V289l6.59-3.53h5.43V283.7l-4.31-.69V267.76l4.31-1.21V264h-2.24v-19H195.85l-.09,18.7h-1.55v2.84l4,1.55v14.74l-4.83.69.09,1.72,5.69.26,6.9,3.53.26,2.24H177.84l.17-2.07,5.95-4h4.83v-1.55l-4.31-1V268.19l4.65-1.72v-2.59s-1.55-.43-2.67-.78-.43-6.9-.34-8.1,3.1-1.55,3.1-1.55v-1.9l3-.26v-3.66a29.76,29.76,0,0,1-4.65-1.25c-.95-.52-.09-8.71-.09-8.71l8.19-1.72.17,2.24h2s-.09-1.81-.17-2.93-1.55-1.21-2.33-1.55-.09-2.15-.09-2.15a11.61,11.61,0,0,1-4.14.09c-1.47-.43.26-1.64-.78-2.59s-4.14,2.5-4.14,2.5l.09,3.1-4,4.48h-7.41v-3.45l4.57-3.45,3.53-.17a31.4,31.4,0,0,1,.26-4c.26-1.64,3-5.52,5-5.52a3.76,3.76,0,0,0,3-1.81h-9.74V203.89h14.31v6.21h22.5v-6.21h14.48v16H221.54l-.09,2.07a18.72,18.72,0,0,1,4.83.78c2.59.78,3.36,5.74,3.36,5.74v3.83l4.91.26,4,3.71v2.84h-6.21l-5.17-4.91L227,231.9s-3.62-3.79-4.83-3.36.17,1.81.17,2.76-.95-.09-3.36,0,0,2-1.47,2.5c-2.59.95-2.76,4.22-2.76,4.22l3.71.09.09-2,7.84,1.21s.34,8.71-.34,9.64-2.76.53-2.76.53l-1.9-.17V252l3-.09v2.24l2.93.09s.17,8.27-.26,9-2.76.78-2.76.78v2.5l4.83,1.77v14.44l-4.83,1.21v1.81h4.83l6.9,3.79Z"/></g><g id="n1"><rect class="cls-2" x="89.58" y="247.67" width="7.76" height="11.89"/><rect class="cls-2" x="9.42" y="208.54" width="16.2" height="82.57"/><polygon class="cls-2" points="41.49 291.11 35.11 291.11 27.01 245.09 27.01 208.54 30.28 208.54 43.21 277.67 41.49 291.11"/><polygon class="cls-2" points="48.21 245.26 44.59 273.36 39.24 244.22 45.45 208.54 48.21 208.54 48.21 245.26"/><rect class="cls-2" x="49.93" y="208.54" width="16.55" height="82.57"/><rect class="cls-2" x="74.07" y="220.78" width="13.1" height="70.33"/><rect class="cls-2" x="89.58" y="278.18" width="9.65" height="12.93"/><rect class="cls-2" x="89.58" y="220.78" width="9.65" height="12.07"/><polygon class="cls-2" points="118.54 232.85 116.64 232.85 116.64 278.18 118.54 278.18 118.54 291.29 113.71 291.29 104.06 281.11 104.06 229.75 113.45 220.87 118.54 220.78 118.54 232.85"/><polygon class="cls-2" points="136.64 279.74 126.56 291.37 120.78 291.37 120.78 278.18 123.19 278.18 123.19 260.95 136.64 260.95 136.64 279.74"/><polygon class="cls-2" points="136.64 247.67 123.54 247.67 123.54 232.85 120.78 232.85 120.78 220.78 127.85 220.78 136.64 229.57 136.64 247.67"/><rect class="cls-2" x="141.98" y="220.78" width="13.1" height="70.5"/><polygon class="cls-2" points="174.74 228.37 171.2 231.38 171.2 244.91 174.74 244.91 174.74 291.29 161.29 291.29 161.29 261.64 156.98 261.64 156.98 249.83 161.46 249.83 161.29 220.78 174.74 220.78 174.74 228.37"/><polygon class="cls-2" points="251.62 291.29 240.24 291.29 234.55 244.57 242.31 244.74 241.96 231.47 234.55 225.78 237.48 225.09 237.65 220.78 244.55 220.78 251.62 283.18 251.62 291.29"/><polygon class="cls-2" points="259.2 291.29 255.24 259.74 252.97 278.7 250.75 256.98 251.62 220.78 258.17 220.78 264.03 291.37 259.2 291.29"/><polygon class="cls-2" points="266.44 291.29 262.65 254.74 266.44 220.78 278.68 220.78 269.89 291.29 266.44 291.29"/><polygon class="cls-2" points="290.23 276.63 290.23 291.37 276.96 291.37 285.4 220.78 293.33 220.78 294.37 239.92 291.95 264.74 296.78 264.74 297.3 276.81 290.23 276.63"/><polygon class="cls-2" points="300.57 291.37 295.23 220.78 304.54 220.78 313.85 291.29 300.57 291.37"/><rect class="cls-2" x="318.67" y="220.78" width="11.89" height="70.59"/><polygon class="cls-2" points="350.61 291.29 337.81 291.29 337.81 261.64 332.98 261.64 332.98 250.26 337.98 250.26 337.98 232.5 332.98 232.5 332.98 220.78 341.94 220.78 350.3 229.66 350.3 248.53 343.54 255.3 350.61 261.85 350.61 291.29"/><rect class="cls-2" x="357.97" y="220.78" width="11.89" height="70.59"/><polygon class="cls-2" points="389.91 291.29 377.11 291.29 377.11 261.64 372.28 261.64 372.28 250.26 377.28 250.26 377.28 232.5 372.28 232.5 372.28 220.78 381.25 220.78 389.61 229.66 389.61 248.53 382.84 255.3 389.91 261.85 389.91 291.29"/><polygon class="cls-2" points="433.48 232.85 431.06 232.85 431.06 278.18 433.48 278.18 433.48 291.29 428.13 291.29 418.48 281.11 418.48 229.75 427.87 220.87 433.48 220.78 433.48 232.85"/><polygon class="cls-2" points="451.06 281.11 441.41 291.29 436.06 291.29 436.06 278.18 438.48 278.18 438.48 232.85 436.06 232.85 436.06 220.78 441.66 220.87 451.06 229.75 451.06 281.11"/><rect class="cls-2" x="459.33" y="220.78" width="11.89" height="70.59"/><polygon class="cls-2" points="491.27 291.29 478.47 291.29 478.47 261.64 473.64 261.64 473.64 250.26 478.64 250.26 478.64 232.5 473.64 232.5 473.64 220.78 482.6 220.78 490.96 229.66 490.96 248.53 484.2 255.3 491.27 261.85 491.27 291.29"/><rect class="cls-2" x="397.79" y="220.78" width="13.45" height="70.59"/></g><g id="Base"><path d="M494.37,255.73l3.92-3.92v-24L484.67,213.2h-247V200.61h-24v4.48H200.76v-4.48H176.46V213.2H74.07V200.61H1.67v98.77H498.33V259.7ZM89.58,247.67h7.76v11.89H89.58Zm-64,43.44H9.42V208.54h16.2Zm15.86,0H35.11l-8.1-46V208.54h3.28l12.93,69.12Zm6.72-45.85-3.62,28.1-5.34-29.13,6.21-35.68h2.76Zm18.27,45.85H49.93V208.54H66.48Zm20.69,0H74.07V220.78h13.1Zm12.07,0H89.58V278.18h9.65Zm0-58.26H89.58V220.78h9.65Zm19.31,0h-1.9v45.34h1.9v13.1h-4.83l-9.65-10.17V229.75l9.39-8.88,5.09-.09Zm18.1,46.89-10.08,11.64h-5.77V278.18h2.41V260.95h13.45Zm0-32.06h-13.1V232.85h-2.76V220.78h7.07l8.79,8.79Zm18.44,43.61H142v-70.5h13.1Zm19.65-62.92-3.53,3v13.53h3.53v46.37H161.29V261.64H157V249.83h4.48l-.17-29h13.45Zm61.28,63H207.88V289l6.59-3.53h5.43V283.7l-4.31-.69V267.76l4.31-1.21V264h-2.24v-19H195.85l-.09,18.7h-1.55v2.84l4,1.55v14.74l-4.83.69.09,1.72,5.69.26,6.9,3.53.26,2.24H177.84l.17-2.07,5.95-4h4.83v-1.55l-4.31-1V268.19l4.65-1.72v-2.59s-1.55-.43-2.67-.78-.43-6.9-.34-8.1,3.1-1.55,3.1-1.55v-1.9l3-.26v-3.66a29.76,29.76,0,0,1-4.65-1.25c-.95-.52-.09-8.71-.09-8.71l8.19-1.72.17,2.24h2s-.09-1.81-.17-2.93-1.55-1.21-2.33-1.55-.09-2.15-.09-2.15a11.61,11.61,0,0,1-4.14.09c-1.47-.43.26-1.64-.78-2.59s-4.14,2.5-4.14,2.5l.09,3.1-4,4.48h-7.41v-3.45l4.57-3.45,3.53-.17a31.4,31.4,0,0,1,.26-4c.26-1.64,3-5.52,5-5.52a3.76,3.76,0,0,0,3-1.81h-9.74V203.89h14.31v6.21h22.5v-6.21h14.48v16H221.54l-.09,2.07a18.72,18.72,0,0,1,4.83.78c2.59.78,3.36,5.74,3.36,5.74v3.83l4.91.26,4,3.71v2.84h-6.21l-5.17-4.91L227,231.9s-3.62-3.79-4.83-3.36.17,1.81.17,2.76-.95-.09-3.36,0,0,2-1.47,2.5c-2.59.95-2.76,4.22-2.76,4.22l3.71.09.09-2,7.84,1.21s.34,8.71-.34,9.64-2.76.53-2.76.53l-1.9-.17V252l3-.09v2.24l2.93.09s.17,8.27-.26,9-2.76.78-2.76.78v2.5l4.83,1.77v14.44l-4.83,1.21v1.81h4.83l6.9,3.79Zm15.6-.09H240.24l-5.69-46.71,7.76.17L242,231.47l-7.41-5.69,2.93-.69.17-4.31h6.9l7.07,62.4Zm7.58,0-4-31.55-2.27,19L250.75,257l.86-36.2h6.55L264,291.37Zm7.24,0-3.79-36.54,3.79-34h12.24l-8.79,70.5Zm23.79-14.65v14.74H277l8.45-70.59h7.93l1,19.13L292,264.74h4.83l.52,12.07Zm10.34,14.74-5.34-70.59h9.31l9.31,70.5Zm30,0H318.67V220.78h11.89Zm20-.09h-12.8V261.64H333V250.26h5V232.5h-5V220.78h9l8.36,8.88v18.88l-6.77,6.77,7.07,6.55Zm19.26.09H358V220.78h11.89Zm20-.09h-12.8V261.64h-4.83V250.26h5V232.5h-5V220.78h9l8.36,8.88v18.88l-6.77,6.77,7.07,6.55Zm21.33.09H397.79V220.78h13.45Zm22.24-58.52h-2.41v45.34h2.41v13.1h-5.34l-9.65-10.17V229.75l9.39-8.88,5.6-.09Zm17.58,48.27-9.65,10.17h-5.34v-13.1h2.41V232.85h-2.41V220.78l5.6.09,9.39,8.88Zm20.17,10.26H459.33V220.78h11.89Zm20-.09h-12.8V261.64h-4.83V250.26h5V232.5h-5V220.78h9l8.36,8.88v18.88l-6.77,6.77,7.07,6.55Z"/><rect x="183.79" y="206.65" width="2.13" height="2.13"/><rect x="187.88" y="206.65" width="2.13" height="2.13"/><rect x="191.67" y="206.65" width="2.13" height="2.13"/><rect x="182.75" y="209.75" width="2.13" height="2.13"/><rect x="186.84" y="209.75" width="2.13" height="2.13"/><rect x="190.64" y="209.75" width="2.13" height="2.13"/><rect x="183.79" y="212.85" width="2.13" height="2.13"/><rect x="187.88" y="212.85" width="2.13" height="2.13"/><rect x="191.67" y="212.85" width="2.13" height="2.13"/><rect x="182.75" y="215.96" width="2.13" height="2.13"/><rect x="186.84" y="215.96" width="2.13" height="2.13"/><rect x="190.64" y="215.96" width="2.13" height="2.13"/><rect x="221.49" y="215.96" width="2.13" height="2.13"/><rect x="225.59" y="215.96" width="2.13" height="2.13"/><rect x="229.38" y="215.96" width="2.13" height="2.13"/><rect x="220.46" y="212.85" width="2.13" height="2.13"/><rect x="224.55" y="212.85" width="2.13" height="2.13"/><rect x="228.35" y="212.85" width="2.13" height="2.13"/><rect x="221.49" y="209.75" width="2.13" height="2.13"/><rect x="225.59" y="209.75" width="2.13" height="2.13"/><rect x="229.38" y="209.75" width="2.13" height="2.13"/><rect x="220.46" y="206.65" width="2.13" height="2.13"/><rect x="224.55" y="206.65" width="2.13" height="2.13"/><rect x="228.35" y="206.65" width="2.13" height="2.13"/><rect x="179.43" y="233.71" width="2.35" height="2.35"/><rect x="177.92" y="236.99" width="1.36" height="1.36"/><rect x="231.71" y="233.71" width="2.35" height="2.35" transform="translate(465.76 469.77) rotate(180)"/><rect x="234.21" y="236.99" width="1.36" height="1.36" transform="translate(469.77 475.33) rotate(180)"/><polygon points="203.52 213.92 209.77 213.92 209.77 216.26 208.48 217.64 204.94 217.64 203.52 216.43 203.52 213.92"/><polygon points="203.35 228.37 210.12 228.37 210.12 229.31 207.79 231.43 205.55 231.43 203.35 229.4 203.35 228.37"/><rect x="200.12" y="223.93" width="1.51" height="1.51"/><rect x="211.62" y="223.93" width="1.51" height="1.51"/><polygon points="202.79 225.44 202.79 220.61 204.86 218.89 208.56 218.89 210.55 220.78 210.55 225.44 202.79 225.44"/><polygon points="197.23 224.44 197.23 221.73 199.38 217.64 202.27 217.21 202.27 219.1 200.07 220.87 198.22 224.44 197.23 224.44"/><polygon points="198.74 229.49 202.06 229.49 200.12 231.43 198.74 229.49"/><polygon points="214.99 229.49 211.67 229.49 213.61 231.43 214.99 229.49"/><polygon points="216.24 224.44 216.24 221.73 214.08 217.64 211.19 217.21 211.19 219.1 213.39 220.87 215.24 224.44 216.24 224.44"/></g></svg>