<svg xmlns="http://www.w3.org/2000/svg" viewBox="0 0 500 500"><defs><style>.cls-1{fill:none;}</style></defs><title>mercenary-review-and-bonding-commission</title><g id="Icons"><path d="M229.75,146.9c-5.49-3.17-6.41.92-8,2.1C215.4,153.57,239.44,152.49,229.75,146.9Z"/><path d="M250.19,165.05a1,1,0,0,0,0,2.08A1,1,0,0,0,250.19,165.05Z"/><path d="M253.18,165a1,1,0,0,0,0,2.08A1,1,0,0,0,253.18,165Z"/><path d="M249.54,168.83a1,1,0,0,0,0,2.08A1,1,0,0,0,249.54,168.83Z"/><path d="M252,168.83a1,1,0,0,0,0,2.08A1,1,0,0,0,252,168.83Z"/><path d="M247.85,173.38a1,1,0,0,0,0,2.08A1,1,0,0,0,247.85,173.38Z"/><path d="M251,173a1,1,0,0,0,0,2.08A1,1,0,0,0,251,173Z"/><path d="M273.46,150.57c-7.47.08,2,8.66,1.42,6.43S280.85,150.5,273.46,150.57Zm2.13,2.53q-.29,3-2.67,2.55C271.23,154.16,276.4,150.57,275.59,153.1Z"/><path d="M226.06,237.23c0,5.64-3.35,17.64,5.81,14.65C241.46,248.75,235.57,235.21,226.06,237.23Z"/><path d="M286.8,236.77c11.89-3.28,12.61,9-.07,5.85C286.75,240.84,286.4,238.51,286.8,236.77Z"/><path d="M286.81,256.54c14.27-.49,14,7.6-.08,6.24C286.75,260.93,286.33,258.32,286.81,256.54Z"/><path d="M376.36,267.29c-5.47-6-7.51-12.61-16.09-13.12-4.63-.28-14,9-14.86-3.11-.85-11.59,7.91-5,12.27-5.49,6.23-.64,14.44-5.47,16.2-13,3.43-14.75-13.76-17-24.42-14.47-18.43,4.4-30.95,17.38-28.34,37.41a13.39,13.39,0,0,0-6-7.14,14.62,14.62,0,0,0,4.52-8.15c-.31-8.06-3.8-10.92-5.48-17.51-3.32-13-3.15-28.94-5.36-42.55-2-12.08-.62-30.92-14-37-10.77-4.91-24.79,1.82-32.7,9.13-6-9.28-.85-10,6-15.21.39-.3,13.76-11.17,12.56-11.67-5.49-2.26-18.93,12.42-23.29,15.64-1.45-4.82-3.14-5.82-3.55-9.75q-1.17.57-1.34-.08c-5,3.1-10.67-1.94-17.4-1-7,1-12.76,6-18,10.39.41-8.24-9-8.29-11.2-2-1.38,4,3,13.21,8.71,8.63-2.62,12.37-6.92,7.39-14.76,16.16-10.13,11.33,4.06,25.71,2.48,38.19-.53-.1-9.84-.65-9.23,1.94,1.24,5.21,3.24,3.16,7.74,5.48-9.82,13.25-26.49,9.36-38,22-7.77-9.24-28.39-20.65-35.74-5.61-6.19,12.67,9.34,14.95,6.08,28.11-1.81,7.3-13.24,18.73-1.24,26.31,3.12,2,17.91,2.63,20.88,1.09,7.94-4.12,4.9-12.54,4.9-20.36,2.28,4.64,6.95,5.06,9.45.33,0,15.67,2.33,21.36,19,20.29,3.87-.25,9.39-3.21,12.26-3.29s10,2.45,14.55,2.45a133.79,133.79,0,0,1-4.3,19.46c-1.49,5.33-1.91,5.14-4,10.26,0,0-.51,5.82.91,3.7-.59.88-3.77,3.71-4,4.19a64.36,64.36,0,0,1-4.62,8.32c-4.43,6.12-14.74,14.66-5.14,19,3.34,1.51,16.29-.79,20.19-.68a220.1,220.1,0,0,0,28.58-1.15c16.45-1.7,16.18-5.55,6.44-18.05-6.53-8.38-6.25-7.95-3.94-17.94,1.31-5.65,2.09-14.45,4.76-19.56s9.6-11.08,14.49-15.82c.5,7.36-.81,14.9-.63,22.29.22,8.84,3.31,13.64,5.35,21,3.5,12.66-12.08,23.74,9.33,30.55A40.08,40.08,0,0,0,291,347.8c3.26-.19,21.48,1,23-.35,4.3-3.95-4.24-14.64-6.59-20-2-4.56-1.23-5.39-3.91-9.5q-7.34,1.23-7.08-6.88a12.25,12.25,0,0,0,5.36-2.68c-.4,1.28-7.21-5.88-7.8-7-3.5-6.45,1.26-15.82-3.6-21.56,14.83,0,33.18.29,31.74-19.8,4.17,14.89,19.9,23.6,34.63,21.36C360.91,280.81,382.62,274.16,376.36,267.29ZM301,205.42c.85,3.38,1,13.63-3.57,7.22-1.76-2.48-1.94-9.09-3-12.23-.92-2.79-5,1-4.07-4.29.61-3.6,8.75-9.16,9.07-4.4C282.66,184.67,301.32,206.87,301,205.42ZM298,217.33q-.58-2.4,3.57-1.08C301,217.16,298.68,224.59,298,217.33ZM285.52,197.7c-1.94,9.86,3.69,22-7.35,22,6.09-7.43,3.91-25.43,5.1-34.36a39.65,39.65,0,0,0,4.56,4.56C288.39,192.28,282.32,195.43,285.52,197.7Zm-9.6-37c9.6.4,7.18,4,.25,5.15Zm9.69-8.4c6.38,1.89,2.27,8.26-3.82,7.48C282.32,158.41,286.18,153.79,285.61,152.32ZM293.69,182q-2.13,1.78-2.24-3.14,5.34-2.35,5.66,2.91Zm3.88,1.3.85,3.24q-5,2.25-4.94-3Zm-5.5,28.06c1.14,1.7-8.46-3.89-.55-6A25,25,0,0,0,292.07,211.35Zm-5.43-25.77q-2.36-3.55-4.39-7.3c8.28-1,8.59,1.24,10.67,8.58A7.75,7.75,0,0,1,286.64,185.58Zm3.52-9.17-4-6.27q8-3.49,8.85,6.27Zm-1.52-11.29c-3.24-.07-4.38.53-5.08-3C279.85,161.09,292.51,163.5,288.65,165.12Zm-8.42-5.57-3.48-.86c2.63-4,2.84-7.92,7.75-6.67A16.77,16.77,0,0,0,280.23,159.55Zm-4.94-1.48c-.19.3-12.71-11.8,4.42-7.26A52.06,52.06,0,0,1,275.29,158.07Zm7.08,8.09c4.55-.55-7.26,3.05-6.13,2.88l-.05-2.12Zm2.26,4.2a11.74,11.74,0,0,0,3.7,6q-8.26,3.66-10.52-4.95Zm2,24.74a2.42,2.42,0,0,1,2.22-2C288.81,196.19,285.95,197.18,286.62,195.09Zm.57,4.65q-.73-2.53,2.14-2.19C289.32,197.81,287.23,202,287.19,199.74Zm.82,5.93q4.24-.59.72,6Q284.92,211.55,288,205.67Zm1.19,8.69c-.46,5,3.25,1.66,3.76,5.3C286.28,219.67,287.26,214.14,289.2,214.35Zm8.66-64.2a10.81,10.81,0,0,1,2.09,6.93,88,88,0,0,0-20.54-8C285.45,148.49,292,148.1,297.86,150.16Zm-8.58-6.89a7.68,7.68,0,0,1,5.18,2.76c-5.75-1-11.8-.38-17.55.24A20.75,20.75,0,0,1,289.27,143.27ZM272,146c2.9.07-.48,3.74-1.64,5.58-3,4.81-.66-.62-6.41,1.09A26.09,26.09,0,0,1,272,146Zm-11.81,10.32q1.12-4,5.32-2.15c-6.31,5.67,1,2.73-6.86,5.65Zm6.71,134.56c-2-.79.41-9.47.49-11.14C269,280.23,268.59,291.53,266.93,290.87Zm.32,1.77-.24,3C266.37,294.58,264,291.77,267.25,292.64ZM259.4,235.1m.46,4c2.18,5.14,5.66,8.85,5.39,15A25.37,25.37,0,0,1,259.86,239.14Zm5.39,6.17-1.53-3.58C266.29,242.21,264.88,242.81,265.25,245.31Zm-2.92-83.53c-2.27.73-4.11,5.8-5.45,7.64C260.27,159.36,260.78,164.67,262.33,161.79Zm-3.95-6.87c2.87-.14-8.41,6.94-9,7.11C252.76,158.26,251.72,153,258.38,154.92Zm-5.5,20.14a16.06,16.06,0,0,1-7.44,1.79c1-4.65,1.11-12.54,6.72-12.84C259.11,163.64,252.21,170.56,252.89,175.06Zm-19.65,33.67a20.62,20.62,0,0,1-7.34.85c2.86-6.59,0-8.15,8.05-8.49A43.29,43.29,0,0,0,233.24,208.73Zm-27.3,6a2.3,2.3,0,0,1-1.84,2.21C202.05,214.45,204.42,211.6,205.94,214.71Zm-2.71-8.87c.41-3,4.71.8,3.91.79Zm0-38.51,3.63-1.13q0,5.61-3.94,4.75Zm11.57-8.44q3.71-.61,2,4.07Q214,161.42,214.8,158.89Zm.28,6.45c1.38-2.94,2.66,5.91-2.07,5.85Zm7.56-9.31c.91,3.23,8.68,2.06,12,1.55-.4.61-13,6.28-15.38,6.47C217.2,154.7,222.66,156,222.63,156Zm4.91-16.47,4.22.84c7.13,1.11-4.49,4.12-5.18,4.08Q229.11,142.35,231.77,140.4Zm1.6,6c-.12-1.41,2.27,7.25,3.13,9.43C233.32,152.83,233.71,150.58,233.36,146.45Zm1.78-3.62.37-1.5c.59-1.61,2.8-3.63,4.7-3.28C239.81,139.73,237.06,141.86,235.51,141.33ZM226,199.71c-.58,6.85-9.85-13-9.83-13a22.91,22.91,0,0,1,10.16.3C224.46,190.53,226.35,195.92,226,199.71Zm-15.47-5.89c-2-1.64,2.06-5.83,3.69-6.37,1.2,3.49,7.21,12.33,4.22,14.84Q214.72,197.85,210.55,193.82Zm6.73,9.5L215,205.74c-1.81-3.33-4.9-6.42-5-10.36Q213.68,199.3,217.29,203.32Zm-5.45-29.56c1.4-3.06,2.86.7,4.22,1.67Q210.57,178.79,211.84,173.76Zm.46,4.95,5.75.3C214.7,184.16,208.14,185.32,212.3,178.71Zm11.22,5.19q-3.5,0-7,.13,2.18-8.92,10.44-6Q227.09,183.93,223.51,183.9Zm-4.61-15.09q-.15-3.76,4.79-2.08Q224.38,170.13,218.91,168.81Zm2.36,8.1a7.82,7.82,0,0,1,7.7-1.82Q227,179.76,221.26,176.91Zm-1.53-.51c-.93,1.46-3.44.73-5.16.74Zm-2.42-22.21-5,14q-.17,5.42-6,2.85c1.19-3.74,3.25-5.43,7.13-5.93Zm-6.44,4.4,4.8.11C209.16,175.89,203.38,181.82,205.82,172.6Zm2.51,11c-.1.7-6-3.9.61-4.6A6.11,6.11,0,0,0,208.32,183.58Zm-2.06,19.17q1.08,2.26-2.67.85Q203.54,201.59,206.26,202.75ZM204,200.69q-.32-1.83,2-1Q206.76,202.05,204,200.69Zm3.83,17.09q8.05-3.65,6.63,1.6C212.42,219.82,206.33,220.63,207.81,217.77Zm1.1-1.6a6.42,6.42,0,0,1,5.9-2.77Q215.91,218.85,208.91,216.18Zm4.43-4.6c3.25-3.1,3-7,8-9.29C219.95,206,217.31,211.27,213.34,211.57Zm3,1.61,2.77-.67c-3,15,1.5,4.75-3.14,6.86Zm2.42-2.77c2.84-4.14,2.71-9,8-9.17C225.21,208.27,225.7,208.86,218.78,210.41Zm3.83,1.54,7.4-.54c-3.49,4.17-2.34,7.53-7.71,8Zm11.16-12.41-5.67.17a90.1,90.1,0,0,0,.23-11.69C236,191.16,231.57,193.29,233.77,199.54Zm-2.44-17.11c-1,.34-4.58,1.61-5.78,1.5,3.08-6.88,8.47-9.18,16.27-9.37C239,181.7,238.36,180,231.34,182.43Zm9.48,16.89q-8.19,2.79-4.63-5.59A22.07,22.07,0,0,1,240.81,199.32Zm-5.56,5.17c1.12-6.78,15.85,2.1-.47,4Zm6.64-32.39s-8.25,1.4-8.3,1.42c1.22-8.38,3.2-6.33,11.57-8.09A60.67,60.67,0,0,0,241.89,172.1Zm-4.38-8.88c5.06-8,5-2.43,11.81-5.92C245.49,163.75,244.79,161.35,237.51,163.21ZM245,153.7c-1.46,2.27,1.73,4.05-4.66,2.6Q246.87,149.37,245,153.7Zm4.09.23c1.8-2,.87-5.79,5.94-3.76C251.73,154.44,250.63,156,249.09,153.93Zm-22.37-19.39c6.72-3.86,15.3-3.46,22,.29-5.74.24-9.87,4.25-14.17,4.93-3.13.5-7.59-2.62-12.24-1.38Zm-6.26,5.8c.78-.8,5.45-1.51,5.51.92Q219,146.38,220.45,140.34Zm5.15,2.58c-.32.62-4,2.66-4.94,1.82A12.53,12.53,0,0,1,225.6,142.91Zm-6.65-1.13q1.4-1.3-1.77,2.91Zm-2,4.7c0-.62,2-.75,2.34-.54C218.73,147.87,216.7,149.9,217,146.49Zm-1.18,3.84c6.49-2.18,8.07-3.93,16.06-4.2-.49,3.79-1.79,5.42,1.23,9.9C230.94,156,215.37,151,215.78,150.33Zm-1.22-8c-.87,1.13-1.72,4.93-3.85,4.78,3.61-1.39.41-4.3-1.64-.54-5.15-3.95,3.45-1.18,2.76-3.69a4.36,4.36,0,0,0-3.8-.2c.31-4.45,2.62,1.28,5.87-1.4a4.09,4.09,0,0,0-4.87-2.63q1.73-3.55,3.84.46c1.93-1.93-5.18-3.77.67-4.6.31,3.79,2.53,4.08,1.64,1.34A8.64,8.64,0,0,1,214.56,142.35Zm.11,9.86-.35,3.16q3.85-.91,2.72,2.13Q213,158.68,214.33,155.37Zm-.6,6q3.52,3.64-3,2.56Q210.7,161.28,213.73,161.38Zm-4.64-2,4.14-.6c.31,4.09-6,1.91-7.46,2Zm-10,7.47c2.17,1.06,8.25-3.38,10.48-4C208.39,164.62,196.88,170.1,199.07,166.83Zm1.29,17.24c-3.83-7.66-4-11.36,1.74-16.24-.67,1.93-2,5.25-.59,7.17,0,0,1.74-2.47,2.66-2.45a35.77,35.77,0,0,0-.23,9.32c-2-.42-2.9-7.67-4.08-7.34-3.21.89,14.33,24,4.23,23.7A31.65,31.65,0,0,0,200.36,184.07ZM198.26,205l-2.54-.18c0-2.91,5.71-1.94,5.93.5Zm3.88,6.52c1.51.48.89,6.61-1.9,7.63A26.25,26.25,0,0,0,202.13,211.47Zm.77,39.5c.18.56-4.37,2.55-4.4,2.54C198.86,252.79,202.06,248.29,202.91,251Zm1.36-5.78a2,2,0,0,1,.56,2.34C203.46,247.19,204,246.27,204.27,245.18Zm0-3.88.06,12.13c1.79,2.71-3.86,1.06-3.63,1.17Q203,250.35,204.32,253.44Zm-5.74-14.28q2.52.95,1.52,2.13C199.83,241.13,197.53,239,198.58,239.16Zm-.11,0,.87,5.89a5.26,5.26,0,0,1,2.93,3.24,17.2,17.2,0,0,0-4.23,1.8Q195.28,246.43,199.34,245Zm3.08-.9-4.13-28.58,2.28-3.81Q200.8,220,199,217A5.05,5.05,0,0,1,198.28,215.55Zm-.82,2.29q2.34.88.69,3Q195.6,219.82,197.46,217.84Zm-.62,23.29q2.74,2.49-.74,3.64Q193.42,241,196.85,241.13Zm-3.68,10.32a25.75,25.75,0,0,1,.09-8.72c.36,2.73,1.44,7.79,3,10.07Q192.87,253.48,193.16,251.45Zm.88-33.7q3.57-1.86,1.13,1.53C193.71,219.5,190.37,219.85,194,217.75Zm1.42,59.36c-4.91,0-22.43,2.57-25.14-.36s0-21.09,0-25.56l-7.54,10.49L154.63,252c0,4.16,2.63,22.7,0,25.23-2.46,2.37-23.37.28-24.45-1.14-1.29-1.7-.69-12.26,0-14.29.29-.86,5.1.55,6.16-1.89,2.44-5.67,3.33-24.53-6.16-21.69.11-10.06-2.24-12.51,4.94-15.84,13-6,20.74,5.18,27.66,13.41,7.37-8.1,14.59-19.54,27.94-13.65,7.31,3.23,4.75,6.36,4.75,16.23-2-.52-4.32.43-6.26-.13.09,6.47-4.09,26,6.26,23Zm3.09-16.37c-.74-5.59-6.54.08-6-7.35,3.94,1.61,9.9,3.73,12.29,5.17A5.75,5.75,0,0,0,198.55,260.74Zm14,31.22c1.27-6.65-.24-7.64,6.44-8.61-1.08,6.41-1.09,20.86-8.17,21.33Q211.79,298.35,212.52,292Zm8-8.68c.34,0,1.29,21-4,20.82C218.26,297.24,219.38,290.24,220.55,283.28ZM199.47,321.1c1.2-2.29,15.83-1.24,19.32-1.31a34.06,34.06,0,0,0,.23,4.68c-5.44-.4-16-3.59-20.73,0Zm17.31-4.43q-4.57.09-9.14,0C208.45,313.94,216,315.1,216.78,316.67Zm-16.06,17.77c-4.78,7.64-4.08,5.22-12.3,7.05,3.6-10.61,8.18-8.17,15.79-10.95Zm10.07,6.21c-.91,1.74-7.64,1-9.41,1,2.59-10.37,8.08-11.42,17.89-11.4A91.45,91.45,0,0,0,210.79,340.66Zm10.42-13.52c-7.68-.42-15.42.14-23.08.6C199.56,325.62,221.27,326.9,221.21,327.14Zm3.68-8.35c-.36,3.12-4.05-3-4.13-3.63Q227.11,312.84,224.88,318.79Zm.26-12c-4.71,6.89-10,4.65-18.91,4.65C209.51,308.72,225.21,306.73,225.14,306.83Zm1.76-3.71q-.47,4-6.41.83c.88-6.3-.38-20.65,6.68-21C226.94,288.29,223.92,298.37,226.91,303.12Zm.74-21.74-13.26.64C214.74,279.57,227.66,279.94,227.65,281.38Zm19.66.93-21.24-20.2c0,7.33,1.75,12.3-3.1,15.09-3.06,1.76-20,.71-21.44-1.15-.92-1.21-.65-11.73,0-13.22,1-2.24,5.81.16,6.42-1.15,1.75-3.75,1.09-17.64,0-21.61-.94-3.4-4,.11-4.75-1.89-1.26-3.3-4.45-11,1-15.69s27.15-1.21,34,.15c16.47,3.28,21.17,13,15.24,28.35-2.05,5.31-5.63,2.55-4.48,8.22.71,3.51,9.51,7.5,12.17,9.75Zm6.6-26.37a62.85,62.85,0,0,1,5.6,7.57C257.18,261.51,251.3,258.47,253.91,255.94Zm5.58,4.75c-6.62-9.66-2.39-4.94-.27-14.81,3.05,6.57,9.25,13.36,3.85,20.67A10.68,10.68,0,0,1,259.49,260.69Zm4.53,7.2c2.75-3.7,1.6,4.88.07,5.8A30,30,0,0,0,264,267.89Zm.45,40.2c-1.33-2.49-2.7-16.67,0-18.35C264.82,293.89,263.5,306.26,264.47,308.09ZM264.26,288c-2.65,1.33-.74-5.91-.57-6.2a3,3,0,0,1,1.31.68Zm1-7.41c-2.4-.95-1.88-4.22,0-5.72A6.44,6.44,0,0,1,265.29,280.55Zm1.14,30.68c-1.32-2.38-.64-11.68-.7-14.67,1.2,1.27,3.56,15.6,3.44,17.52A6.44,6.44,0,0,1,266.43,311.23Zm2.5-17.53c2.23-1.45,1-11.19,1-13.82C285.1,275.89,269.2,299.8,268.93,293.7Zm7.51,9.75a14.43,14.43,0,0,1,1.53,4.33c-3.09-1.07-5.54.41-7.94,2.73-2.69-7.44-2-9.53,5.76-12.41Zm3.47,8c-.06-1.16-1.64,2.61-1.08-1.83Q280.81,308.82,279.92,311.42Zm-7.15,11.68q-3.07-1.11-2.27-3.88,4.13,1.44,4.52,5.27Zm.35,1.9q-3.75,1.92-2.64-1.64Zm-1-8.9c-.85-1-3.07-3.74-.24-4.54Zm.42,3.27a3,3,0,0,1-1.56-2.18c3.61,2.44,5.27-1.85,5.31-4.59,1.55.46.45,7.27-1.28,8Zm.91-7.9c2.27.48,1.83,2.18.24,4.84Zm2.83-.51-7.66-11.25c-.16-3.62,4.1-4.28,6.9-6.07Q277.13,299.76,268.64,299.72Zm-.28,29.58q.42-1.59,2.69-1.46c-2,16.6,1.86,4-5.65,7.38ZM265.7,339c0,.09,8,3.32,7.8,3.17A10.79,10.79,0,0,1,265.7,339Zm9.13.88c-.78.54-4.58-12.42.93-12.17C274.14,331.42,277.45,338.09,274.83,339.89Zm1.23-17.58c3-1.28,2.45-6.87,2.45-9.25C283.8,313.61,277.57,327.11,276.06,322.31Zm7,0q1.07,4.26-3.91,2.29-.46-6.4,3.58-6.42C282.63,318.38,281.29,323.28,283,322.31Zm-5.76,5.75q-.87-3.09,5.66-.48C282.91,327.29,277.45,333.65,277.25,328.06Zm.12,4.28a22.34,22.34,0,0,0,4.77-2.59C281.7,331.17,277.44,335.23,277.37,332.35Zm2.72,9c-8.5-.06.06-7.65,3.2-9.2q.92,5.09,1.69,10.2A4.9,4.9,0,0,1,280.1,341.35Zm6.41,4.94-5.83-2.64Q287.86,341.24,286.5,346.29Zm21.58-69.53c-8.1,0-31.43,4.37-37.78,0s.14-27-1.93-35.47c-1.61-6.61-4.08,0-5.88-8.38-2.83-13.3,12.7-11.51,21.24-11.13s25.46-1.84,31.1,6.36c8.25,12-5.54,12.3-5.54,20.45,0,2.2,9.13,7.47,9.41,13.23C319,268.52,315.32,275.74,308.08,276.76ZM353,279c-24.67,0-38-29.65-22.3-48.59C337,222.81,348,220.26,357.54,221c7.94.58.07-2.59,6.68,0,3.15,1.22,6.7,5.87,9.31,8.16-2.53,2.77-5.78,8.05-9,9.89-1.45.82-2.25,3.66-3.8,4.16-2,.63-6.85-4-10.87-2.74-18.48,5.82,2.37,32.75,12,15.57,2.42,2.67,11.81,10.1,11.89,13.07C373.87,275.25,357.08,279,353,279Z"/><path d="M249.73,38.78c3.22,8.72,7.15,32.38,14.18,37.71,6.47,4.91,33.87,0,42.52,0l-28-27.44c-3.67-3.6-22.55-27.53-28.06-27.34-6.26.21-24.24,23.36-28.38,27.34L193.55,76.49c8.44,0,35.09,4.83,41.94,0S246.69,46.84,249.73,38.78Z"/><path d="M460.54,249.84c-8.72,3.22-32.38,7.15-37.71,14.18-4.91,6.47,0,33.87,0,42.52l27.44-28c3.6-3.67,27.53-22.55,27.34-28.06-.21-6.26-23.36-24.24-27.34-28.38l-27.44-28.48c0,8.44-4.83,35.09,0,41.94S452.48,246.8,460.54,249.84Z"/><path d="M249.47,462.73c-3.22-8.72-7.15-32.38-14.18-37.71-6.47-4.91-33.87,0-42.52,0l28,27.44c3.67,3.6,22.55,27.53,28.06,27.34,6.26-.21,24.24-23.36,28.38-27.34L305.65,425c-8.44,0-35.09-4.83-41.94,0S252.52,454.67,249.47,462.73Z"/><path d="M39.45,252.44c8.72-3.22,32.38-7.15,37.71-14.18,4.91-6.47,0-33.87,0-42.52l-27.44,28c-3.6,3.67-27.53,22.55-27.34,28.06C22.59,258,45.74,276,49.72,280.14l27.44,28.48c0-8.44,4.83-35.09,0-41.94S47.51,255.49,39.45,252.44Z"/><path d="M405.77,339.48c-5.65-7.91-31.63-33.46-22.43-42l27.89,38.3C409.65,336.81,407.57,338.88,405.77,339.48Zm-23.94-36.24c4.45,6.23,21.48,36.52,27.19,32.11l-25.52-35Z"/><path d="M99,339.47c-1.81-.56-4-2.67-5.55-3.74l27.84-38.46C130.49,306.5,104.8,331.32,99,339.47Zm-3.34-4.13c4.6,3.57,29.13-28.46,25.39-35.06Z"/><path class="cls-1" d="M194.59,374.43h99.35c13.38,0,14.83,1.42,21.76-10l-128.78-.12Z"/><path class="cls-1" d="M209.42,380.28h45.77c3.54,0,42.29,1.34,37.46-4.29-3.88-4.53-39.69,0-45.77,0C240.5,376,207.89,371.81,209.42,380.28Z"/><path d="M377.45,340.14c3.43-9.22,13-25.33-5.39-28.86,50.41-90.08-17.07-204.44-120-204.44s-170.41,114.4-120,204.48c-18,3.78-8.21,19.58-5.14,28.82-10.22-2.27-7.17,37.55-7.58,46.38,5.66,4.81,4,5.81,16.08,5.81,3.4,0,9.48,1.25,12.56,0,3.79-1.54-3.84-6.56,4.31-5.81l-1.92-33.13c-.24-4.17,0-8.66-.74-12.79-.92-5.45-9.49,4.57-2.12-7.19,11.2,13.1,25.92,20.85,37.9,31.53,3.05,2.72,4.77,9.27,8.37,11s9.28-1.37,13,0c2.13.79-.08,5.38,1.3,5.85,2.4.82,5.67-.42,8.19,0,12.21,2,26.53,0,38.89,0,9.09,0,25.44,3.22,34,0,7-2.61,3.17-3.86,11.17-5.85,5.14-1.28,7.57.23,11.53-2.32,2.15-1.38,4.79-6.84,7-8.86,12.21-11.23,26.71-18.48,37.85-31.57,6.12,10.07-.92,2.9-2,6.9-.93,3.48-.46,7.92-.67,11.47l-2,34.92c7.74-.94.36,4.14,3.95,5.81,2.68,1.25,10.11,0,12.92,0,3.09,0,9.9,1.37,12.56,0,2.44-1.26-.69-4,3.52-5.81C384.63,378,387.45,337.62,377.45,340.14ZM146.82,390.77c-3,0-27.79,1.87-22.71-4.25C126.5,383.64,148.11,384.17,146.82,390.77Zm1.34-49.07L150.68,385H121c.45-9.59-3-32.58,1.87-40.34C126.4,339,139.95,341.7,148.17,341.7Zm-19.64-1.56,15.36-4.77c-5.34,0-12.54-.57-16.92.52-6.53-5.21-6.73-21.17,3.8-22.36C135.34,313,147.75,331.88,143.89,335.37Zm148.76,44.91H246.88c-3.54,0-42.29,1.34-37.46-4.29,3.88-4.53,39.69,0,45.77,0C261.57,376,294.18,371.81,292.65,380.28Zm17-5.85H208.89c-13.11,0-14,.36-22-10.1l128.78.12Zm13-14.09H219.95c-11.29,0-27.33,3-38.32,0-12.38-3.38-26.55-20-34.45-29.59a135.48,135.48,0,0,1-26.48-51.59c-16.87-63.69,16-132.07,76-159,58.16-26.06,128.43-6.83,165.64,44.76C408,228.33,389.32,319.72,322.68,360.34Zm35.26-28.17c-.19-.34,12.12-19.1,13.54-19.41,12-2.64,12.26,18.11,6,23.14C372.22,334.46,361.5,338.35,357.94,332.17Zm17.94,4.76,4.42,53.84c-3,0-27.79,1.87-22.71-4.25C360,383.64,381.59,384.17,380.31,390.77Zm1.56-5.81H353.74c.64-11,.41-22.36,1.93-33.23,1.74-12.45,2.55-10.86,16.6-10,12.12.72,9.25,2.8,9.85,15.64C382.4,363.66,385.8,381.76,381.87,385Z"/><path d="M250.17,6.26l64.11,64.11c15.39,15.39,46.16,7.48,66.77,7.48,7.1,0,35.52-4.54,41,0,3.63,3,.9,22.73.9,28v56.89c0,7.48-.9,12.87,2.38,18.74,6.8,12.2,23.83,23.83,33.64,33.64,6.84,6.84,31.6,24.09,33.64,33.64,1.28,6-8.47,12.31-13.94,17.78l-39.4,39.4c-4.85,4.85-14.1,11.15-16.32,17.53-3.8,10.91,0,30,0,41.38,0,15.48,4.07,37.34,0,52.28-2.58,9.5-3.21,6.37-15.72,6.37H344.84c-8.11,0-18.1-1.83-24.94,1.86-14,7.55-27.37,27.37-38.6,38.6l-31.13,31.13L186.06,431c-15.39-15.39-46.16-7.48-66.77-7.48-7.1,0-35.52,4.54-41,0-3.63-3-.9-22.73-.9-28V338.62c0-7.48.9-12.87-2.38-18.74-6.8-12.2-23.83-23.83-33.64-33.64-6.84-6.84-31.6-24.09-33.64-33.64-1.28-6,8.47-12.31,13.94-17.78L61,195.41c4.85-4.85,14.1-11.15,16.32-17.53,3.8-10.91,0-30,0-41.38,0-15.48-4.07-37.34,0-52.28,2.58-9.5,3.21-6.37,15.72-6.37H155.5c8.11,0,18.1,1.83,24.94-1.86,14-7.55,27.37-27.37,38.6-38.6L250.17,6.26m0-2.21L186.61,67.62c-16.44,16.44-45.71,8.67-68,8.67-6.87,0-36.89-4.61-42,0-3.47,3.15-.86,22-.86,27.12v56.68c0,7.84,1.1,14.41-2.35,20.7-7.88,14.37-28,28-39.59,39.59L3.56,250.67l63.56,63.56c16.44,16.44,8.67,45.71,8.67,68,0,6.87-4.61,36.89,0,42,3.15,3.47,22,.86,27.12.86h56.68c7.84,0,14.41-1.1,20.7,2.35,14.37,7.88,28,28,39.59,39.59l30.29,30.29,63.56-63.56c16.71-16.71,47.45-8.67,70-8.67,6.39,0,35.16,4.31,39.92,0,3.53-3.2.86-21.78.86-27.12V341.25c0-8.72-1.15-14.58,3-21.33,7.75-12.67,24.15-24.15,34.6-34.6,7-7,30.31-23,32.8-32.8,2.71-10.6-43.35-47.05-52.52-56.21-5.37-5.37-15.39-12.23-17.86-19.25-4-11.39,0-31.56,0-43.49,0-15.12,4-36.55,0-51.13-2.51-9.16-3.1-6.14-15.19-6.14H347.67c-9.33,0-19.86,1.91-27.61-2.35-14.41-7.91-28-28-39.59-39.59Z"/></g></svg>