<svg xmlns="http://www.w3.org/2000/svg" width="500" height="500" viewBox="0 0 500 500">
  <title>no-guts-no-galaxy</title>
  <g id="Base">
    <path d="M179.7,196.44l5.95,13.14s-1,41.32.81,43.82,6.27,5.65,6.63,8-.9,4.57-9.77,4.57-11.74-.54-11.92-3.67,7-6.54,7.17-9.05c.16-2.29.55-48.56.62-56.68A.27.27,0,0,1,179.7,196.44Z"/>
    <path d="M225.77,224l-4.21-10.59s.74-25.7-.85-27.93-5.57-6.09-5.89-8.16.8-3,8.68-3,10.58.47,10.59,3.26c0,4.82-6.21,5.81-6.37,8-.15,2-1.43,31.06-1.49,38.27A.24.24,0,0,1,225.77,224Z"/>
    <path d="M200.8,172.38l25.09,60.67.81,30.2-13.35.54s-35-83.35-36.39-84.42-5.65-1.7-5.56-5.74,8.43-2.78,14.88-2.42S200.8,172.38,200.8,172.38Z"/>
    <path d="M265.86,175.7c4.48.27,22.49,7.44,22.32,42.39s-11.64,45.1-22.32,45.26c-1.34,0-1.2-5.67,0-6.9,3.5-3.58,4,7.73,3.58-36.12s.36-35.4-3.41-37.46C264.47,182,265.86,175.7,265.86,175.7Z"/>
    <path d="M261.92,175.7c-4.86.27-24.39,7.44-24.19,42.39s12.62,45.1,24.19,45.26c1.46,0,1.31-5.67,0-6.9-3.79-3.58-4.35,7.73-3.89-36.12s-.39-35.4,3.69-37.46C263.43,182,261.92,175.7,261.92,175.7Z"/>
    <path d="M179.92,314.52l5.95,13.14s-1,41.32.81,43.82,6.27,3.5,6.63,5.83-.9,6.72-9.77,6.72-11.74.54-11.92-2.6,7.22-6,7.17-10.13c0-2.29.55-48.56.62-56.68A.27.27,0,0,1,179.92,314.52Z"/>
    <path d="M226.54,336l-4.43-10.5s.2-25.71-1.44-27.91-5.7-6-6.06-8,.73-3,8.61-3.17,10.59.25,10.65,3c.1,4.82-6.08,5.94-6.2,8.17-.1,2-.78,31.08-.68,38.3A.24.24,0,0,1,226.54,336Z"/>
    <path d="M201.86,289l24,53.38.81,33.2-13.44.81S180.21,300,178.69,299s-5.78-2.3-6-6.33,8.17-3.47,14.63-3.65S201.86,289,201.86,289Z"/>
    <path d="M266.8,280.74c4.48.27,21.24,7.44,21.24,42.39,0,27.42-13.13,44.18-21.24,44.18-1.34,0-1.2-5.67,0-6.9,3.5-3.58,2.93,8.81,2.51-35s1.43-35.4-2.33-37.46C265.4,287,266.8,280.74,266.8,280.74Z"/>
    <path d="M262.52,281.77c-4.86.27-24.39,7.44-24.19,42.39s11.55,44,23.12,44.18c1.46,0,2.38-4.59,1.08-5.83-3.79-3.58-4.35,7.73-3.89-36.12s-.39-35.4,3.69-37.46C264,288.08,262.52,281.77,262.52,281.77Z"/>
    <path d="M332.36,181.61v6.45s-1.75,0-2,4.44,0,56.73,0,56.73a6.76,6.76,0,0,0,.95,3.09,10.9,10.9,0,0,0,1.74,1.61v5.65H328.6s-17-10.48-14.92-41.27c2.29-33.2,15.86-36.7,15.86-36.7Z"/>
    <path d="M335.45,181.61s3.9.13,5.92,1.75,2.29,2.82,3.63,2.82,1.34-3.76,3.63-3.5a1.91,1.91,0,0,1,1.88,2.29l0,23.79s.64,2.55-1.91,2.69-2.69-3.09-2.69-3.09-1-9.68-2.91-13.44-7.58-6.86-7.58-6.86Z"/>
    <path d="M350.61,220.6s1.92.45,2,3.41-2,3.41-2,3.41v22.14s-1.31,3.23-6.06,6.54-6.81,3.85-6.81,3.85H335l.49-6.63s2.73-.18,2.73-2.51.18-23.3.18-23.3-4.57-.81-4.57-4.21,3.32-2.69,3.32-2.69Z"/>
    <path d="M335.43,275.71a16,16,0,0,1,5.92.67c2.4,1,2.29,1.75,3.63,1.75s1.34-3.76,3.63-3.5a1.91,1.91,0,0,1,1.88,2.29l0,23.79s.64,2.55-1.91,2.69-2.69-3.09-2.69-3.09-1-9.68-2.91-13.44-7.58-5.78-7.58-5.78Z"/>
    <path d="M425.87,284.39l1,11.94-4.21,29.13s3.23,1.7,3.32,3.85-2.42,3.14-2.42,3.14l-16,3.32v-5.11a6.09,6.09,0,0,0,3.41-4.21c.9-3.32,2.42-14.89,3.85-15s2.37,1.53,2.37,1.53l-.58,16.13s2.33-1,3.23-6.18c.76-4.38,4.32-30.5,5.41-38.58A.27.27,0,0,1,425.87,284.39Z"/>
    <path d="M427.63,269.53l9.59-1.08s4.57,54,6.09,54.31,7.89-16.4,9.32-16.85,1.52,4.48,1.52,4.48-2.87,8.42-2.15,9.59,2.06,1.17,2.15,3.41-1.17,2.78-1.17,2.78l-20.7,4.48A2.33,2.33,0,0,1,430,328.5c-.36-2.24,1.88-3.67,1.88-3.67l-.36-10-5.29,1.15,1.08-5.45,3.76-1.25Z"/>
    <path d="M446.54,267.92l10.84-.81a1.46,1.46,0,0,1,1.79,1.34c.27,1.7-1.52,3.14-1.34,4S468.23,318,468.23,318l3.14,3.32-13.53,3.58a2.62,2.62,0,0,1-1.7-1.88c-.27-1.43,2.78-2.24,2.51-3.58s-11.47-46.24-11.47-46.24a3,3,0,0,1-2-2.6A2.32,2.32,0,0,1,446.54,267.92Z"/>
    <path d="M461.77,266.22h5.65a2,2,0,0,1,1.52,1.88c.09,1.61-1.17,1.25-2.06,3.22s-4,12.82-4,12.82l-1.43-5.29s1.88-5.11,1.17-6.18a5.69,5.69,0,0,1-1.17-3.58A6.73,6.73,0,0,1,461.77,266.22Z"/>
    <path d="M471.36,265.5h9.14a1.47,1.47,0,0,1,1.79,1.58c0,1.91-1.88,2.54-1.7,3.8s3.94,22,3.94,22v21.51s2,.09,2.06,1.43a3.8,3.8,0,0,1-.81,2.42l-9.05,2.6a1.81,1.81,0,0,1-2.06-1.52c-.36-1.79,1.79-3.14,1.79-3.14V296.42l-4.57-26.08s-1.25-.09-1.34-1.88S470.2,265.5,471.36,265.5Z"/>
    <path d="M485.61,264.51h4.3s1.7-.09,1.79,2.06-2,4.12-2,4.12l-3.32,15.84a.27.27,0,0,1-.53,0l-1.09-5.35s2.34-9.14,1.8-10.4-2.16-1.94-2.25-3.71S484.36,264.51,485.61,264.51Z"/>
    <path d="M358.26,185.11l14.34,1.08s2.42.27,2.24,3.32a5.57,5.57,0,0,1-3,4.39l.18,52.7a6.22,6.22,0,0,0,1.34,3.14c1.25,1.61,1.52,2,1.52,2v5.51a55.36,55.36,0,0,1-5.83,0c-1.85-.24-4.66-.49-6.54-2.82s-4.21-5.92-4.21-7.35V192.37s-2.87-2-3-4.21S356.29,185,358.26,185.11Z"/>
    <path d="M381.29,187.44h7.89a4.39,4.39,0,0,1,2.06,3.32c0,2.06-3.23,5.2-3.23,5.2l-.81,44.29a28.69,28.69,0,0,1-1.88,9.49,25.31,25.31,0,0,1-5.92,7.53h-1.88v-6s2.06-.72,4.21-4.39a12.86,12.86,0,0,0,1.7-7.35l-.09-43.82s-1.34-2.51-1.88-3.23-2.06-.9-2.06-2.87S380.13,187.44,381.29,187.44Z"/>
    <path d="M394.11,188.15l6.81.72v5s-1,.18-2.06,3.14-1.52,15.06-3.23,15-2.15-3.41-2.15-3.41Z"/>
    <path d="M403,189.32l10.66.54v58.52s2.42.9,2.42,2.69-.27,3.23-1.88,3.32-12.19.45-12.19.45a2.63,2.63,0,0,1-2.24-2.51c0-2.15,2.24-2.51,2.33-3.76S403,189.32,403,189.32Z"/>
    <path d="M416.07,189.95l6.09.63s0,22.14-1.52,22.32-2.24-3.14-2.24-3.14.45-6.81-.36-9.68a14,14,0,0,0-2-4.39Z"/>
    <path d="M434.35,190.57v4.57a9.18,9.18,0,0,0-2.69,7.17c.18,4.75,3,7.08,5.92,9.68a25.87,25.87,0,0,1,8.78,20.43c-.18,11.56-4.91,22.41-11.47,22.41-1.2,0,0-5.47,0-5.47a10.51,10.51,0,0,0,4.12-8.25c-.09-5.29-3.87-5.56-7.35-9.14a27,27,0,0,1-7.52-20c.27-9.86-.74-11.34,2.33-16C428.53,192.79,429.24,190.43,434.35,190.57Z"/>
    <path d="M424.94,230.9c1.88,0,2.33,2.33,2.33,2.33V241s1,4.3,2.42,5.65a38.15,38.15,0,0,1,3,3.23v4.83a.27.27,0,0,1-.43.22c-1.11-.84-4-3-5-3-1.25,0-.63,2.33-2.24,2.51s-1.52-2.69-1.52-2.69V233S422.88,230.9,424.94,230.9Z"/>
    <path d="M436.41,190.57s2.06-.08,3,.9,1.34,2.51,2.24,2.51,1-2.42,2.15-2.42,1.43,1.79,1.43,1.79v16.4s.18,2.78-1.43,2.78-2-.63-2.15-3.14-.18-6.45-1.43-9.32a11.23,11.23,0,0,0-3.76-4.48Z"/>
    <g>
      <path d="M461.62,170.46,448.38,157,159.58,70.46,138.72,69.3,73.27,101.21l-12.16,8.52-17.43,10.2-.06,0L41,121.52c-.36.24-8.86,6-7.83,16.16.6,5.9,2.22,9.51,3.46,11.48L12,158.73l-.12.05c-.37.18-9,4.5-8.84,17.87.15,13.63,8.86,18.32,12.14,20.09,2.16,1.16,6.64,1.56,10.59,1.91l1.2.11.35.19c-1.81.79-4.17,1.74-6.68,2.7l0,0c-1.84.71-3.76,1.42-5.59,2.07l-.32.16c-.41.26-10,6.51-10.42,18.51-.41,11.44,5.81,16.27,9.15,18.87l.6.47a18.43,18.43,0,0,0,6.28,2.89c-3.6,2.86-8.91,8.46-8.91,16.55,0,11.86,9.61,20.59,17.67,25.82,6.57,4.27,17.86,7.12,21.67,8v37.07c-5.43,1.19-11.77,1.2-14.34-2-1.77-2.2-2.94-5.61-4-8.62-1.34-3.9-2.39-7-4.71-7.69-3.14-1-5.26.32-6,1.23l-.25.3-.09.38c-.1.44-2.24,10.78,11,19.53,7,4.64,12.42,6,16.86,6,.52,0,1,0,1.51-.06v4.93L89.85,376l77.32,39.69L275,388.26c-.33,3.56-.17,10,4.56,13.82,6.22,5,11.88,4.77,18.44,4.5l.56,0c4.25-.17,8.5-2.13,11.9-3.71a19,19,0,0,1,4.35-1.67c.53.06,1.16.17,1.87.3,2.77.49,6.56,1.16,10.34,0,4.47-1.37,47.7-22.76,49.53-23.67l.32-.21c.65-.54,6.36-5.39,7.44-9.91a35.74,35.74,0,0,0,.92-6.62l1.53-.24c.31,2.26,1.22,6.14,3.87,8.93s22.33,18.11,33.75,27c.26.43.43.71.48.78l.29-.19,7.25,5.6.12.09a22.77,22.77,0,0,0,11.55,2.94c6.7-.1,21.69-5.76,22.56-22,.83-15.52-9.63-21.34-10.6-21.84L434,349.2l53.34-13.12,8.2-7L497,228.51V228ZM34.09,332.53c-9.83-6.51-9.89-13.66-9.7-15.62a3,3,0,0,1,2.33,0c.76.28,1.91,3.64,2.6,5.65,1.11,3.26,2.38,6.95,4.5,9.59.17.21.34.4.52.59ZM134.37,80.45l21.08.87,299,86.46,4.47,4.53,32.91,53.56-36.55-53.09L155.42,91.42l-21.65-1.55ZM141,140.67l301.83,35,3.44,3.35L141,146.55Zm-.74-3.33c1.95-2.07,4-4.06,5.21-6.67a1.06,1.06,0,0,0,.05-.21,31.82,31.82,0,0,1,4.83-.54c9.85-.19,10.28.27,14.38,4.66a23.88,23.88,0,0,1,4.3,6.09l-5.33-.62s0-.06,0-.08a3.08,3.08,0,0,0-1-.68,1.27,1.27,0,0,0-.69-.7c-1.37-.54-3.1-1.61-4.6-1.58a5,5,0,0,0-3.15,1.41,1,1,0,0,0-.28.49ZM134.59,133l3-.75c1.68-.42,3.45-.87,5.21-1.25-1.5,2.37-3.66,4.24-5.49,6.37a1.1,1.1,0,0,0-.18.33l-7.76,1.69A58.82,58.82,0,0,0,134.59,133ZM62.66,112.55c.64-.23,3.6-1.29,7.12-2.25-3.68,3.92-8.37,10-8.22,15.42v.19c.2,7.11.29,10.31,7.08,18.65a18,18,0,0,1-1.58-1.15l-.59-.48L61,144c-4.88-4.21-5.6-6.26-6.7-13-.87-5.29,3.15-13,5.28-16.66Zm7.43,50.27a20.78,20.78,0,0,0,8.19,14.91,22.82,22.82,0,0,0,12.12,4.35c-2.88,1.35-6.38,2.93-9.66,4.4-9.15,4.11-12.53,5.69-13.82,6.63l-3.48.34c-13.46-5.51-21.1-13.57-22.68-24-1.36-9,7.5-18.27,9.3-20l15.57-3c1.2.92,3.44,2.44,5.2,2.51a12.61,12.61,0,0,0,1.67-.12,1.51,1.51,0,0,0,1.5-.19l2.47-.35.49-.07C73.15,151.07,69.41,155.78,70.09,162.81ZM34.71,242.36c-9.86-7.53-11.21-16.35-11.2-22.63l5.11.74c0,2,.24,9.39,5.06,14.09,1.06,1,1.86,1.87,2.54,2.57a21.54,21.54,0,0,0,7.11,5.32Zm7.2,3.31a82.49,82.49,0,0,0-9.32,8.85c-3.94,4.17-4.69,11.05-4.82,13H25.59A31.87,31.87,0,0,1,28.09,256c1.86-4.19,7.05-8.36,9.87-10.42Zm-18.31-27c.14-1.73.86-7.74,4.17-12.27a27,27,0,0,1,8.64-7.06l2.52-.25a24.27,24.27,0,0,0-4.62,5.44c-.67,1-1.35,2-2.15,3-2.72,3.31-3.36,9.88-3.49,11.9ZM37,236.38c-.68-.71-1.49-1.55-2.56-2.59-4.81-4.69-4.76-12.59-4.73-13.64V220c0-.08.34-8.28,3.28-11.86.83-1,1.53-2,2.21-3A20.7,20.7,0,0,1,41,198.88l6-.58c-5.09,4.49-12.5,12.85-10.94,22.52,1.53,9.46,6.54,17.19,13.8,21.71l-4.06,0C40.2,239.72,39.35,238.84,37,236.38Zm2.2-16.08c-1.81-11.16,11.47-21,13.68-22.58l13.87-1.36a5.12,5.12,0,0,0,.39.45c1.54,1.53,5.23,3.6,8.28,3.21l1.06-.14c.73-.1,1.59-.22,2.5-.33-4.86,2.27-9.18,6.63-8.95,15.18.33,12,6.24,18.19,18.93,19.57-1.83.53-5,1.32-8.5,2.21-13.78,3.45-18.68,4.88-20.38,6.14l-2.63,0a1.6,1.6,0,0,0-.51-.29C47.55,239.25,40.92,231,39.19,220.3ZM57.76,115.42c-2.25,4.11-5.28,10.78-4.47,15.73,1.09,6.67,1.86,9,6.42,13.08l-4.26.83c-4.18-3.34-4.84-4.49-5.8-13-.69-6.12,3-11.94,5.57-15.17Zm-12.18,7.14,7.24-4.24c-2.38,3.49-4.84,8.52-4.24,13.89,1,8.44,1.71,10,5.49,13.14l-8.79,1.71c-2.52-4.4-2.73-5.95-3.37-10.8l-.21-1.54C41,129.46,44.73,123.77,45.57,122.56Zm-9.24,14.8a13.68,13.68,0,0,1,3.21-10.1,17,17,0,0,0-1,7.88l.2,1.53c.63,4.75.89,6.74,3.23,11l-2.17.42C38.88,146.93,37,143.71,36.33,137.36Zm3.28,14.09,5.14-1c-3.54,4.3-8.36,11.77-7.19,19.5,1.54,10.17,8.1,18.27,19.49,24.13l-8.29.81c-16.83-10.71-19-16.38-19.69-25.67-.47-6.69,2.34-12.48,3.94-15.2Zm-8.19,3.19A27.54,27.54,0,0,0,28,169.28C28.7,179.05,31.59,185,47,195l-5.07.5c-10.88-4.45-17.39-12.05-18.4-21.65a32.06,32.06,0,0,1,3.09-17.41ZM16.67,193.9c-3.09-1.66-10.32-5.56-10.44-17.28-.12-10.9,6.33-14.57,7-14.91l.54-.21a25.28,25.28,0,0,0-1.23,19.56c2.74,7.91,4.9,11.34,8,13.79A13.44,13.44,0,0,1,16.67,193.9ZM15.57,180a22.47,22.47,0,0,1,3-20.39l6.57-2.55A32.9,32.9,0,0,0,22.5,174c1,9.47,7.07,17.07,17.25,21.75l-7.3.71a14.6,14.6,0,0,0-4.56-.86C21.36,192.1,19.35,190.94,15.57,180Zm.4,59.22-.62-.49c-3.29-2.55-8.26-6.41-7.91-16.2.34-9.56,7.72-15.06,8.8-15.81l1-.35c-2.34,4.11-5.31,10.57-4.71,16,.7,6.26,1.37,12.24,7.36,18.78A13.12,13.12,0,0,1,16,239.23ZM15.72,222c-.73-6.52,5.07-15.48,6.43-17.48,6.55-2.49,9.36-3.9,10.55-4.86l1.14-.11a25.49,25.49,0,0,0-6.94,6.18c-4.08,5.59-4.39,13.83-4.39,13.83,0,6.28,1.22,15.08,10.57,22.75l-7.37-.08C17.2,235.14,16.53,229.32,15.72,222ZM16,268.36a19,19,0,0,1-1.43-7.17c0-8.88,8.09-14.46,10-15.67a1.55,1.55,0,0,0,1.43.28c-3,2.73-7,6.9-8.24,10.86A38.14,38.14,0,0,0,16,268.36Zm14.77,15.95a46.24,46.24,0,0,1-11.1-9.76,37.6,37.6,0,0,1,1.18-16.89c1.62-5,9-11,10.47-12.11l4.86.05c-3,2.29-7.33,6.08-9.07,10a32.27,32.27,0,0,0-2.6,12.46v.53H28.8l0-.52c0-.08.31-8.32,4.56-12.82,3.55-3.76,7.2-7.43,10.36-9.56l10,.11a35.31,35.31,0,0,0-13.53,7.63,19.42,19.42,0,0,0-6.46,14.95c.31,9.22,2.4,15.79,6.63,20.34A46.8,46.8,0,0,1,30.77,284.31Zm6.25-16a16.07,16.07,0,0,1,5.46-12.5c6.07-5.78,15.74-8.48,20.34-8.22,1.28.56,2.91,1.17,5,1.93a95.5,95.5,0,0,1,13,5.6c1.62.91,3,1.76,4.31,2.54a19,19,0,0,0-4.25-.36c-9.93.36-18.38,9.44-18.09,19.45.23,7.87,3.6,13.33,10.46,16.82a85.63,85.63,0,0,1-20.49-1.37C44.86,289.89,37.58,285.41,37,268.27ZM58,336.2l-.17.06c-4.79,1.6-10.11,3.37-18.77-.87,5.54,1.62,13,.13,17.81-1.81,9.72-3.91,15.05-10.89,15.44-20.16A26.49,26.49,0,0,0,67,296.84c.54,0,1.07,0,1.61,0l1,0C71,298,76.19,303,76,314.5,75.89,326.93,64.61,334,58,336.2Zm41.34-57c-1.06,4.09-2.43,7.77-6.66,10.31-.49.05-1,.11-1.45.2a.91.91,0,0,0-1-.23c-1.21.39-2.43.71-3.66,1l-.87-.06a.84.84,0,0,0-.28.05,1,1,0,0,0-1.08-.43c-1.24.24-2.59.56-3.95.78a45.26,45.26,0,0,1-7.9-1.41c-4.34-2.9-6.38-7-6.55-12.82-.24-8.15,6.9-15.84,15-16.13.32,0,.63,0,.94,0,2.44,1.54,3,4.55,5.55,5.83,3.18,1.58,6.77,2.36,10,3.9C98.9,272.68,100.24,275.62,99.31,279.21ZM102.86,226l-1.05.63c-1.93.77-5,.47-6.81,1.08-2.16.73-3.76,2.32-5.81,3.25l-.06,0c-10.87-1.2-15.61-6.24-15.9-16.42-.24-8.74,4.84-13.18,16.38-14.35a.94.94,0,0,0,.51.85,15.65,15.65,0,0,0,3.06,1.11l.4.14A13.59,13.59,0,0,1,92.34,205a1,1,0,0,0-.15.52c-2.51,1.59-4.51,3.62-4.86,7.28a13.81,13.81,0,0,0,1.2,6.71c1.2,2.73,3.22,3.07,5.1,5.17a.91.91,0,0,0,1.24.16,6.34,6.34,0,0,0,5.1-.6,1.08,1.08,0,0,0-1.09-1.86,3.4,3.4,0,0,1-1,.34A8.34,8.34,0,0,1,96.6,221,6.41,6.41,0,0,0,99,218.89a1,1,0,0,0,0-.1,4.75,4.75,0,0,0,.52-5.44,1.09,1.09,0,0,0,.1-.64,2.49,2.49,0,0,0-.8-1.52c-.55-.52-1.62-.71-2-1.34-.84-1.48,2.34-4.33,3.35-5.26a1,1,0,0,0,.31-.54c3.59,2.22,6.49,5.62,6.49,11A16.15,16.15,0,0,1,102.86,226Zm-12-12.29,0,0s0,0,0,0Zm13.65-41.39a38.92,38.92,0,0,1-4.7,1.69c-1.75.41-3.56-.53-5.18-.12-2.49.63-.56,4.11-3,4.94a19.86,19.86,0,0,1-11.39-3.74,17.59,17.59,0,0,1-6.9-12.64c-1-10.18,9.54-14.41,11.59-15.13,1.88.29,6.39,1.38,9.55,2.17-4,1.25-6.82,6.25-6.59,10.28.14,2.49.37,5.8,1.7,8,1.47,2.4,3.68,2.42,5.95,3.09a7.39,7.39,0,0,0,2,.78c1.15.28,1.94-1.38.83-2l-.26-.11-1.84-1.93.91-.13c.37-.3,1-.36,1.36-.62a8.41,8.41,0,0,0,2.35-2.93,1,1,0,0,0-.14-1.22,4.81,4.81,0,0,0-1.35-4.37,4.6,4.6,0,0,1,1.63-3,7,7,0,0,0,2-2.64s0-.08,0-.13a10.17,10.17,0,0,1,4.84,9.16A17.64,17.64,0,0,1,104.5,172.37Zm-7.59-25.87a1.9,1.9,0,0,0-.53.21c-2.78-.71-9.29-2.33-11.45-2.59-1.43-.17-4.46.25-8.93.9l-2.42.35c-8.48-9.72-8.57-12.13-8.78-19.56v-.19c-.16-5.73,7.59-13.71,11-16.67a26.7,26.7,0,0,1,3.1-.34,65.67,65.67,0,0,1,13.52,1.24,1.91,1.91,0,0,0,.76.07l.66-.07c-3.78,3.09-7,8-6,14.72C89.33,135,96,141.4,108,144.07Zm26.41-15.3a20.61,20.61,0,0,1-7.79,3.26c-1.5.21-3,0-4.55.3-3.53.63-6.57,2.6-10,3.46h0A17.82,17.82,0,0,1,91,124.11c-1.47-10,8.41-14.11,10.08-14.73a54.9,54.9,0,0,1,8.67.42c-1.53.73-3.12,3-4.23,4.3a10.38,10.38,0,0,0-1.74,10.75,6.73,6.73,0,0,0,2.52,4.65,1.13,1.13,0,0,0,.42.2,4.54,4.54,0,0,0,2.15,2.58c2.38,1.34,5.72,1,8.25.3a1.08,1.08,0,0,0-.57-2.07,13.69,13.69,0,0,1-4.41.46c-1.4-.09-3.69-.89-3.49-2.5,3.1.81,7.62.19,8.32-3.36a1.07,1.07,0,0,0-.58-1.19c0-.16,0-.31,0-.47a4.85,4.85,0,0,0-2.43-4.2,11.67,11.67,0,0,1,3.62-1.45c1.17-.23.86-1.71,0-2.07s-4.53-1.3-4.9-2c-.91-1.82,3-1.13,4.13-1.06a.91.91,0,0,0,.54-.14,5.46,5.46,0,0,1,.71.7c5.66,6.89,7.36,9,5.43,15.74A5.25,5.25,0,0,0,123.32,131.2Zm2.45,246.06-2.12-227.64h14.19l5.83,227.64Zm175.88,25.56a15.6,15.6,0,0,1-3.23.52l-.56,0c-6.39.26-11,.45-16.29-3.79-4.64-3.72-3.35-11.59-3.1-12.9.71-1.29,1.89-3.24,3.31-5.33h0c1.2.31,3.79.48,4.29,1.81.44,1.19-.16,3-.44,4.29a4.83,4.83,0,0,0,.43,7.41,10.43,10.43,0,0,0-2.11,3.4,1.08,1.08,0,0,0,.28,1c1.61,1.65,5.24,2,7.2.86,2.22-1.3,3-4.92,2.73-7.27a1.06,1.06,0,0,0-.44-.78,4.72,4.72,0,0,0-.63-3.74,1,1,0,0,0,0-.25,17.27,17.27,0,0,0-1.33-2.38c-1.27-2.47-.34-3.9,1.07-6a10.32,10.32,0,0,0,2.1-6c4.55.29,9.47,1.42,11.25,4.51C307.61,380.8,314.25,393.93,301.65,402.82Zm24.41-4.43c-3,.93-6.39.34-8.83-.09-.79-.14-1.47-.26-2.08-.33-1.48-.16-3.4.72-6,1.95,5.23-7.58,3.58-16.76-.17-23.29-2.62-4.55-9.11-5.87-14.36-6.14.77-.22,1.49-.41,2.16-.58,2.4-.61,4.47-1.14,6.68-3.1a17,17,0,0,0,3.12-4c1.25-2,2.34-3.77,4.91-4.6,3.91-1.25,36.15-10.51,49.71-14.4,1.88.79,9.06,4.19,11.74,11.12,2.95,7.61,2.15,12.36-8.31,25.21C349.66,387.42,328.8,397.55,326.06,398.39ZM382,359.73a31.65,31.65,0,0,1-.85,7.21c-.68,2.86-4.59,6.67-6.22,8.06l-3.79,1.87c6.89-9.53,7.84-15.19,4.75-23.14-2.22-5.72-6.82-9.3-10.18-11.26l1-.29c3,.72,9.83,2.93,11.66,6l.1.16c2.36,3.94,3.64,6.11,3.58,10H382Zm4.38-2.11-1.09.17a16.08,16.08,0,0,0-.26-2.72,1,1,0,0,0,.16-.37c1.54-7.3,3.58-14.2,10.84-17.64a1,1,0,0,0,.37-.3,4,4,0,0,1,2.16,1.88C391.7,343.06,389,350.19,386.39,357.62Zm63.16,4.45,4.86,2.86.1.05c.1,0,9.62,5,8.88,18.81S449.76,402.63,444,402.71a20,20,0,0,1-9.73-2.41l-7.42-5.73c-2-3.59-7.33-14.83-.84-22.94C434,361.71,437.18,361,449.55,362.07Zm-7.08-4.17,1,.57c-8.54-.11-12.77,2.17-19.94,11.13-5.41,6.77-4.16,15-2.12,20.71L419.7,389c-2.74-11-.58-14.58,4.55-22.93C428.53,359.13,440.07,358.06,442.47,357.91Zm43.38-24.79L430,346.85l-2.94-1.75,62.28-15Zm6.52-7.05L423,342.75c-2.22-1-11-5.12-13.14-6.23a5.09,5.09,0,0,0-4.51-.15l-.18-58.69s3-1.34,2.78-3.94-1.79-2.42-1.79-2.42l-13.62.81a2.7,2.7,0,0,0-1.7,2.87c.09,2.33,2.78,3.58,2.78,3.58v53.5a3.59,3.59,0,0,0-.9.45,11.81,11.81,0,0,0-6.14,1.27l-7.93-60.06-11.65.88,4.3,44.74-5.92,1.34-.54,5.91,7.71-.54.45,10.49s-2.06,1.55-2.29,3.42c-1.86-.62-3.33-1-3.72-1.05l-.4-.09-.4.11-2.43.69-2.51-2.28c-1.08-1,0-2.78,0-2.78l4.3-35.31-.53-9.25a.27.27,0,0,0-.53,0c-1.3,8.13-7.16,44.8-7.72,47.43a7.89,7.89,0,0,1-2.73,4.14.26.26,0,0,0,0,.41,1.05,1.05,0,0,0-.57.59l-7.45,2.14a19.16,19.16,0,0,0,4.49-4.32V318.28s2.39-.09,2-2.33a9,9,0,0,0-2-4.48l-13.5,1.08a3.73,3.73,0,0,0-3.32,3.76c0,3.41,4.57,3.14,4.57,3.14s-.18,21-.18,23.3-2.73,2.51-2.73,2.51l.3,2.47-2.72.79v-2.62a10.9,10.9,0,0,1-1.74-1.61,6.76,6.76,0,0,1-.95-3.09s-.27-50.14,0-54.58,2-4.44,2-4.44v-6.45h-2.82s-13.73,4.57-15.86,34.55c-1.81,25.46,6.77,37.58,9.79,41-6.51,1.89-11.57,3.37-13,3.83-3.7,1.19-5.27,3.73-6.66,6a14.3,14.3,0,0,1-2.52,3.32c-1.62,1.44-3,1.8-5.33,2.39a42.76,42.76,0,0,0-6.22,2c-2.91,1.2-5.93,4.41-8.44,7.7L175.12,400.6l-28.2-22.53L141.07,149.8l308.87,32.9,43.75,51.57Z"/>
      <path d="M444.51,393.48A11.53,11.53,0,1,0,433,381.95,11.54,11.54,0,0,0,444.51,393.48Zm0-19.83a8.3,8.3,0,1,1-8.3,8.3A8.31,8.31,0,0,1,444.51,373.64Z"/>
      <path d="M93.05,282.88a6.69,6.69,0,0,1-.63.73c-.38,0-.85-.51-1.41-1.58l.16-.58A4.73,4.73,0,0,0,92.32,277a1,1,0,0,0-.06-.47c-.71-2-2.31-3.28-4-4.59s-2.51-1.55-4.58-.83c-3.88,1.35-5.5,4.8-5.32,8.77.32,7.08,7.81,9.52,13.16,6.85,1.47-.11,2.65-1.56,3.36-2.81S93.86,281.79,93.05,282.88Z"/>
    </g>
  </g>
</svg>
