<svg xmlns="http://www.w3.org/2000/svg" viewBox="0 0 500 500"><defs><style>.cls-1{fill:#dd2419;}.cls-2{fill:#822826;}.cls-3{fill:#204383;}.cls-4{fill:#dbe6e2;}.cls-5{fill:#fff105;}.cls-6{fill:#fff;}</style></defs><title>northwind-highlanders_COLOR</title><g id="n5"><rect class="cls-1" x="53" y="30" width="89.5" height="44.5"/><rect class="cls-1" x="205.25" y="30" width="89.5" height="44.5"/><rect class="cls-1" x="358.25" y="30" width="89.5" height="44.5"/><rect class="cls-1" x="65" y="141.5" width="77.5" height="85"/><rect class="cls-1" x="85.5" y="291.5" width="57" height="87"/><rect class="cls-1" x="208" y="141.5" width="85" height="85"/><rect class="cls-1" x="358.25" y="141.5" width="76.25" height="85"/><rect class="cls-1" x="208" y="291.5" width="87" height="87"/><rect class="cls-1" x="358.25" y="291.5" width="57" height="87"/><rect class="cls-1" x="208" y="441" width="87" height="24.25"/></g><g id="n4"><rect class="cls-2" x="56.5" y="74.5" width="86" height="67"/><rect class="cls-2" x="207" y="74.5" width="86" height="67"/><rect class="cls-2" x="358.25" y="74.5" width="81.25" height="67"/><rect class="cls-2" x="75.5" y="225.68" width="67" height="67"/><rect class="cls-2" x="207" y="225.68" width="86" height="67"/><rect class="cls-2" x="358.25" y="225.68" width="67" height="67"/><rect class="cls-2" x="94.5" y="377.54" width="48" height="53.41"/><rect class="cls-2" x="207" y="377.54" width="86" height="67"/><rect class="cls-2" x="358.25" y="377.54" width="49.25" height="53.41"/><rect class="cls-2" x="142.5" y="141.5" width="64.5" height="84.18"/><rect class="cls-2" x="295.29" y="141.5" width="64.5" height="84.18"/><rect class="cls-2" x="142.5" y="293.5" width="64.5" height="84.18"/><rect class="cls-2" x="295.29" y="293.5" width="64.5" height="84.18"/><rect class="cls-2" x="185" y="444.41" width="23" height="8.72"/><rect class="cls-2" x="293" y="444.41" width="24.29" height="8.72"/><rect class="cls-2" x="142.5" y="33.59" width="64.5" height="42.09"/><rect class="cls-2" x="295.29" y="33.59" width="64.5" height="42.09"/></g><g id="n3"><rect class="cls-3" x="142.5" y="74.5" width="65.09" height="65.09"/><rect class="cls-3" x="295" y="74.5" width="65.09" height="65.09"/><rect class="cls-3" x="142.5" y="228.41" width="65.09" height="65.09"/><rect class="cls-3" x="295" y="228.41" width="65.09" height="65.09"/><rect class="cls-3" x="142.5" y="378.5" width="65.09" height="65.09"/><rect class="cls-3" x="295" y="378.5" width="65.09" height="65.09"/></g><g id="n2"><polygon class="cls-4" points="249.79 495.03 242.77 482.9 238.5 206.74 261.08 206.74 256.81 482.9 249.79 495.03"/></g><g id="n1"><path class="cls-5" d="M206.27,125.8c1.56,0,3.18.07,4.72,0,4.61-.33,27.08-12.12,32.28-14.88l1.2,10.38-6,1v-.11l-1,.27c-.88.23-21.53,5.75-25.84,7.9a4.47,4.47,0,0,0-2.81,4.6,3.22,3.22,0,0,1-1.24,3c-2.85,2.22-7.06,3-9.61.1s-1.44-8.58.55-10.89C199.77,125.64,202.93,125.71,206.27,125.8Z"/><polygon class="cls-5" points="246.23 122.6 246.24 122.6 244.83 110.42 254.76 110.42 249.8 158.25 246.23 122.6"/><polygon class="cls-5" points="254.84 108.82 244.74 108.82 244.74 100.79 254.85 100.79 254.84 108.82"/><path class="cls-5" d="M301.6,138c-2.54,2.86-6.76,2.11-9.61-.1a3.22,3.22,0,0,1-1.24-3,4.47,4.47,0,0,0-2.81-4.6c-4.3-2.15-25-7.67-25.83-7.9l-1-.27v.12l-5.85-.83,1.09-10.52c5.24,2.78,27.66,14.54,32.26,14.87,1.55.11,3.16.07,4.72,0,3.34-.08,6.5-.16,7.74,1.29C303,129.4,304.07,135.21,301.6,138Z"/><path class="cls-5" d="M249.79,4.12c5.5,0,6.66,4,6.66,7.4,0,2.85-3.49,6.54-3.52,6.58l-.22.23V28.56h-5.83V18.33l-.22-.23s-3.53-3.73-3.53-6.58C243.13,8.15,244.29,4.13,249.79,4.12Z"/></g><g id="Base"><path d="M413.33,432.95,465.5,16.34H256.31a9.61,9.61,0,0,0,1.75-4.82c0-5.7-3-9-8.24-9h-.06c-5.23,0-8.24,3.3-8.24,9a9.61,9.61,0,0,0,1.75,4.82H34.5L86.4,432.15l155.68,52.77,6.78,11.71-.49.86h2.84l-.49-.86L257.47,485ZM290.22,451.47,258.74,462l.23-14.71h31.25Zm0-12.76H259.1l0-2.41h31.08Zm0-5.08h-31l0-2.68h31Zm0-5.35h-31l.52-33.71h30.44Zm0-36.39h-30.4l0-2.68h30.36Zm0-5.35H259.9l0-2.94h30.27Zm0-11.5H260.08l.48-30.77h29.66Zm0-33.44H260.6l.21-13.38h29.41Zm0-16.05H260.84l.46-29.7h28.91Zm-84-199.74c1.56,0,3.18.07,4.72,0,4.61-.33,27.08-12.12,32.28-14.88l1.2,10.38-6,1v-.11l-1,.27c-.88.23-21.53,5.75-25.84,7.9a4.47,4.47,0,0,0-2.81,4.6,3.22,3.22,0,0,1-1.24,3c-2.85,2.22-7.06,3-9.61.1s-1.44-8.58.55-10.89C199.77,125.64,202.93,125.71,206.27,125.8Zm53.57-56.57h30.38v2.94H259.72c.07-1.12.12-2.09.12-2.85Zm0-24.24a15.44,15.44,0,0,0-.52-2.51h30.9V66.55H259.85c0-1.57,0-3.31.06-5.11C260,55,260.08,47.72,259.84,45Zm-48,130.73V151.63h25.06v24.08Zm25.06,2.68v13.38H211.83V178.38Zm9.35-55.78h0l-1.41-12.17h9.93l-5,47.82Zm16.46,6.55H279.9c2.57.8,4.83,1.55,6.29,2.14H262.69Zm0-2.68v-2.25c1.53.41,4.62,1.26,8.13,2.25Zm-7.85-17.66H244.73v-8h10.12Zm-18,17.66h-8.13c3.51-1,6.61-1.84,8.13-2.25Zm-17.21,2.68h17.21v2.14H213.39C214.85,130.71,217.11,130,219.68,129.16Zm17.21,7.22H211.83V134h25.06Zm0,8.56v4H211.83v-4Zm25.81-11h26.39a8.75,8.75,0,0,1,.06,1,9.1,9.1,0,0,0,.12,1.43H262.69Zm38.91,4c-2.54,2.86-6.76,2.11-9.61-.1a3.22,3.22,0,0,1-1.24-3,4.47,4.47,0,0,0-2.81-4.6c-4.3-2.15-25-7.67-25.83-7.9l-1-.27v.12l-5.85-.83,1.09-10.52c5.24,2.78,27.66,14.54,32.26,14.87,1.55.11,3.16.07,4.72,0,3.34-.08,6.5-.16,7.74,1.29C303,129.4,304.07,135.21,301.6,138ZM290.22,80.73v4H258.45c.16-1.34.32-2.69.47-4Zm0,6.69v2.68H257.79c.11-.87.22-1.76.34-2.68Zm0,5.35v31.45c-.51,0-1,0-1.51-.06-3.88-.27-24.11-10.68-32.2-15l0-.35h-.09V100c.08-.53.48-3.42,1-7.28Zm-52.8,147.69H211.83v-2.68h25.55Zm-.08-5.35H211.83v-3.48h25.46Zm.81,52.17H211.83v-2.94H238.1Zm-.09-5.62H211.83V279H238ZM239.5,375H211.83V344.26H239Zm.82,53.24H211.83V394.56h28Zm-28.49,8h28.62l0,2.41H211.83Zm0-2.68V431h28.53l0,2.68Zm0-41.74v-2.68h27.89l0,2.68Zm0-5.35v-2.94h27.8l0,2.94Zm0-44.95V328.21h26.95l.21,13.38Zm0-16.05v-29.7h26.45l.46,29.7Zm0-49.23V243.13h25.63l.51,33.18Zm25.32-53.24H211.83V194.44h25.06V206Zm24.23,68.18a20,20,0,0,1,0,2.88Zm28.84-4H261.44l0-2.94h28.74Zm0-5.62h-28.7l0-2.68h28.65Zm0-5.35H261.61l.51-33.18h28.1Zm0-35.85H262.16l0-2.68h28Zm0-5.35h-28l.05-3.48h27.92Zm0-12H262.43l.26-17.13v-11.5h27.53Zm0-31.3H262.69V178.38h27.53Zm0-16.05H262.69V151.63h27.53Zm0-26.75H262.69v-4h27.53Zm12.57,298.32-4,1.34v-1.34h4Zm0-8.57h-4V436.3h4Zm0-5.08h-4V431h4Zm0-5.35h-4V394.56h4Zm0-36.39h-4v-2.68h4Zm0-5.35h-4v-2.94h4Zm0-11.5h-4V344.26h4Zm0-33.44h-4V328.21h4Zm0-16.05h-4v-29.7h4Zm0-38.26h-4v-2.94h4Zm0-5.62h-4V279h4Zm0-5.35h-4V243.13h4Zm0-35.85h-4v-2.68h4Zm0-5.35h-4v-3.48h4Zm0-12h-4V194.44h4Zm0-31.3h-4V178.38h4Zm0-16.05h-4V151.63h4Zm0-26.75h-4v-4h4ZM412,37.74h29.3L441,39.79H412Zm0,4.73h28.7l-3,24.08H412Zm0,26.75h25.35l-.37,2.94H412Zm0,11.5h23.91l-.5,4H412Zm0,6.69H435l-.34,2.68H412Zm0,5.35h22.41l-4.22,33.71H412Zm0,36.39H429.8l-.27,2.14H412Zm0,4.82H429.2l-.3,2.41H412Zm0,11h15.87l-.5,4H412Zm0,6.69h15l-3,24.08H412Zm0,26.75h11.68L422,191.76H412Zm0,16.05h9.67L418,223.07H412Zm0,37.19h5l-.44,3.48H412Zm0,6.15h4.25l-.34,2.68H412Zm0,5.35h3.58L412,271.68ZM395.36,37.74h13.91v2.05H395.36Zm0,4.73h13.91V66.55H395.36Zm0,26.75h13.91v2.94H395.36Zm0,11.5h13.91v4H395.36Zm0,6.69h13.91v2.68H395.36Zm0,5.35h13.91v33.71H395.36Zm0,36.39h13.91v2.14H395.36Zm0,4.82h13.91v2.41H395.36Zm0,11h13.91v4H395.36Zm0,6.69h13.91v24.08H395.36Zm0,26.75h13.91v13.38H395.36Zm0,16.05h13.91v28.63H395.36Zm0,37.19h13.91v3.48H395.36Zm0,6.15h13.91v2.68H395.36Zm0,5.35h13.91v33.18H395.36Zm0,35.85h13.91v2.68H395.36Zm0,5.35h13.91v2.94H395.36Zm0,11.5h13.56l-3.72,29.7h-9.84Zm0,32.37h9.51l-1.68,13.38h-7.83Zm0,16.05h7.5L399,375h-3.64Zm0,39.33h2.57l-.37,2.94h-2.2Zm0,5.62h1.87l-.34,2.68h-1.53Zm0,5.35h1.2l-1.2,9.57ZM363,37.74h29.7v2.05H363Zm0,4.73h29.7V66.55H363Zm0,26.75h29.7v2.94H363Zm0,11.5h29.7v4H363Zm0,6.69h29.7v2.68H363Zm0,5.35h29.7v33.71H363Zm0,36.39h29.7v2.14H363Zm0,4.82h29.7v2.41H363Zm0,11h29.7v4H363Zm0,6.69h29.7v24.08H363Zm0,26.75h29.7v13.38H363Zm0,16.05h29.7v28.63H363Zm0,37.19h29.7v3.48H363Zm0,6.15h29.7v2.68H363Zm0,5.35h29.7v33.18H363ZM363,279h29.7v2.68H363Zm0,5.35h29.7v2.94H363Zm0,11.5h29.7v29.7H363Zm0,32.37h29.7v13.38H363Zm0,16.05h29.7V375H363Zm0,39.33h29.7v2.94H363Zm0,5.62h29.7v2.68H363Zm0,5.35h29.7v22.71L363,427.18ZM351,37.74h3.48v2.05H351Zm0,4.73h3.48V66.55H351Zm0,26.75h3.48v2.94H351Zm0,11.5h3.48v4H351Zm0,6.69h3.48v2.68H351Zm0,5.35h3.48v33.71H351Zm0,36.39h3.48v2.14H351Zm0,4.82h3.48v2.41H351Zm0,11h3.48v4H351Zm0,6.69h3.48v24.08H351Zm0,26.75h3.48v13.38H351Zm0,16.05h3.48v28.63H351Zm0,37.19h3.48v3.48H351Zm0,6.15h3.48v2.68H351Zm0,5.35h3.48v33.18H351ZM351,279h3.48v2.68H351Zm0,5.35h3.48v2.94H351Zm0,11.5h3.48v29.7H351Zm0,32.37h3.48v13.38H351Zm0,16.05h3.48V375H351Zm0,39.33h3.48v2.94H351Zm0,5.62h3.48v2.68H351Zm0,5.35h3.48v33.71H351ZM351,431h.75l-.75.25ZM345.6,37.74h2.68v2.05H345.6Zm0,4.73h2.68V66.55H345.6Zm0,26.75h2.68v2.94H345.6Zm0,11.5h2.68v4H345.6Zm0,6.69h2.68v2.68H345.6Zm0,5.35h2.68v33.71H345.6Zm0,36.39h2.68v2.14H345.6Zm0,4.82h2.68v2.41H345.6Zm0,11h2.68v4H345.6Zm0,6.69h2.68v24.08H345.6Zm0,26.75h2.68v13.38H345.6Zm0,16.05h2.68v28.63H345.6Zm0,37.19h2.68v3.48H345.6Zm0,6.15h2.68v2.68H345.6Zm0,5.35h2.68v33.18H345.6Zm0,35.85h2.68v2.68H345.6Zm0,5.35h2.68v2.94H345.6Zm0,11.5h2.68v29.7H345.6Zm0,32.37h2.68v13.38H345.6Zm0,16.05h2.68V375H345.6Zm0,39.33h2.68v2.94H345.6Zm0,5.62h2.68v2.68H345.6Zm0,5.35h2.68v33.71H345.6Zm0,36.39h2.68v1.14l-2.68.89ZM310.82,37.74h32.11v2.05H310.82Zm0,4.73h32.11V66.55H310.82Zm0,26.75h32.11v2.94H310.82Zm0,11.5h32.11v4H310.82Zm0,6.69h32.11v2.68H310.82Zm0,5.35h32.11v33.71H310.82Zm0,36.39h32.11v2.14H310.82Zm0,4.82h32.11v2.41H310.82Zm0,11h32.11v4H310.82Zm0,6.69h32.11v24.08H310.82Zm0,26.75h32.11v13.38H310.82Zm0,16.05h32.11v28.63H310.82Zm0,37.19h32.11v3.48H310.82Zm0,6.15h32.11v2.68H310.82Zm0,5.35h32.11v33.18H310.82Zm0,35.85h32.11v2.68H310.82Zm0,5.35h32.11v2.94H310.82Zm0,11.5h32.11v29.7H310.82Zm0,32.37h32.11v13.38H310.82Zm0,16.05h32.11V375H310.82Zm0,39.33h32.11v2.94H310.82Zm0,5.62h32.11v2.68H310.82Zm0,5.35h32.11v33.71H310.82Zm0,36.39h32.11v2.68H310.82Zm0,5.35h24.85l-7.21,2.41H310.82ZM305.47,37.74h2.68v2.05h-2.68Zm0,4.73h2.68V66.55h-2.68Zm0,26.75h2.68v2.94h-2.68Zm0,11.5h2.68v4h-2.68Zm0,6.69h2.68v2.68h-2.68Zm0,5.35h2.68v33.71h-2.68Zm0,36.39h2.68v2.14h-2.68Zm0,4.82h2.68v2.41h-2.68Zm0,11h2.68v4h-2.68Zm0,6.69h2.68v24.08h-2.68Zm0,26.75h2.68v13.38h-2.68Zm0,16.05h2.68v28.63h-2.68Zm0,37.19h2.68v3.48h-2.68Zm0,6.15h2.68v2.68h-2.68Zm0,5.35h2.68v33.18h-2.68Zm0,35.85h2.68v2.68h-2.68Zm0,5.35h2.68v2.94h-2.68Zm0,11.5h2.68v29.7h-2.68Zm0,32.37h2.68v13.38h-2.68Zm0,16.05h2.68V375h-2.68Zm0,39.33h2.68v2.94h-2.68Zm0,5.62h2.68v2.68h-2.68Zm0,5.35h2.68v33.71h-2.68Zm0,36.39h2.68v2.68h-2.68Zm0,5.35h2.68v2.41h-2.68ZM298.78,37.74h4v2.05h-4Zm0,4.73h4V66.55h-4Zm0,26.75h4v2.94h-4Zm0,11.5h4v4h-4Zm0,6.69h4v2.68h-4Zm4,5.35v33.71h-.19c-.11-.15-.22-.3-.33-.44a5.59,5.59,0,0,0-3.49-1.68V92.77Zm-12.57-53H258.48c-.23-.67-.47-1.36-.73-2.05h32.46ZM249.79,4.12c5.5,0,6.66,4,6.66,7.4,0,2.85-3.49,6.54-3.52,6.58l-.22.23V28.56h-5.83V18.33l-.22-.23s-3.53-3.73-3.53-6.58C243.13,8.15,244.29,4.13,249.79,4.12Zm-38,33.62h30c-.25.69-.5,1.38-.73,2.05H211.83Zm0,4.73h28.44a15.44,15.44,0,0,0-.52,2.51c-.25,2.73-.16,10-.07,16.45,0,1.8,0,3.55.06,5.11h-27.9Zm0,26.75h27.92v.09c0,.76,0,1.73.12,2.85h-28Zm0,11.5h28.84c.15,1.32.3,2.67.46,4h-29.3Zm0,6.69h29.63c.11.91.23,1.81.34,2.68h-30Zm30.31,5.35c.51,3.86.91,6.75,1,7.28v8.77H243l0,.35c-7.57,4-25.76,13.4-31.25,14.81V92.77Zm-42.89-55h4v2.05h-4Zm0,4.73h4V66.55h-4Zm0,26.75h4v2.94h-4Zm0,11.5h4v4h-4Zm0,6.69h4v2.68h-4Zm4,5.35v31.4a12.7,12.7,0,0,0-4,.59v-32Zm-9.36-55h2.68v2.05H193.9Zm0,4.73h2.68V66.55H193.9Zm0,26.75h2.68v2.94H193.9Zm0,11.5h2.68v4H193.9Zm0,6.69h2.68v2.68H193.9Zm0,5.35h2.68v33.71H193.9Zm0,36.39h1.74a13.5,13.5,0,0,0-.54,2.14h-1.2Zm0,4.82h1a9.94,9.94,0,0,0,.4,2.41H193.9ZM90.09,287.28h-.2l-.37-2.94h.57Zm0-5.62h-.91L88.85,279h1.24Zm0-5.35H88.52l-4.14-33.18h5.71Zm0-35.85H84l-.33-2.68h6.38Zm0-5.35H83.38l-.43-3.48h7.15Zm0-12H81.87L78.3,194.44H90.09Zm0-31.3H78L76.3,178.38h13.8Zm0-16.05H76l-3-24.08H90.09Zm0-26.75H72.62l-.5-4h18Zm0-12.57h-19l-.3-2.41H90.09Zm0-5.08H70.42l-.27-2.14H90.09Zm0-4.82H69.82L65.61,92.77H90.09Zm0-36.39H65.27l-.33-2.68H90.09Zm0-5.35H64.61l-.5-4h26Zm0-12.57H63l-.37-2.94H90.09Zm0-5.62H62.34l-3-24.08H90.09Zm0-26.75H59l-.26-2.05H90.09Zm16.59,376.63-.7-.24-2.7-21.62h3.4Zm0-24.53h-3.73l-.33-2.68h4.07Zm0-5.35h-4.4l-.37-2.94h4.77Zm0-11.5h-5.84L97,344.26h9.68Zm0-33.44h-10L95,328.21h11.68Zm0-16.05h-12l-1.9-15.19v-14.5h13.91Zm0-38.26H92.77v-2.94h13.91Zm0-5.62H92.77V279h13.91Zm0-5.35H92.77V243.13h13.91Zm0-35.85H92.77v-2.68h13.91Zm0-5.35H92.77v-3.48h13.91Zm0-12H92.77V194.44h13.91Zm0-31.3H92.77V178.38h13.91Zm0-16.05H92.77V151.63h13.91Zm0-26.75H92.77v-4h13.91Zm0-12.57H92.77V134h13.91Zm0-5.08H92.77v-2.14h13.91Zm0-4.82H92.77V92.77h13.91Zm0-36.39H92.77V87.42h13.91Zm0-5.35H92.77v-4h13.91Zm0-12.57H92.77V69.22h13.91Zm0-5.62H92.77V42.47h13.91Zm0-26.75H92.77V37.74h13.91Zm32.37,387.6-29.7-10.07V394.56h29.7Zm0-35.51h-29.7v-2.68h29.7Zm0-5.35h-29.7v-2.94h29.7Zm0-11.5h-29.7V344.26h29.7Zm0-33.44h-29.7V328.21h29.7Zm0-16.05h-29.7v-29.7h29.7Zm0-38.26h-29.7v-2.94h29.7Zm0-5.62h-29.7V279h29.7Zm0-5.35h-29.7V243.13h29.7Zm0-35.85h-29.7v-2.68h29.7Zm0-5.35h-29.7v-3.48h29.7Zm0-12h-29.7V194.44h29.7Zm0-31.3h-29.7V178.38h29.7Zm0-16.05h-29.7V151.63h29.7Zm0-26.75h-29.7v-4h29.7Zm0-12.57h-29.7V134h29.7Zm0-5.08h-29.7v-2.14h29.7Zm0-4.82h-29.7V92.77h29.7Zm0-36.39h-29.7V87.42h29.7Zm0-5.35h-29.7v-4h29.7Zm0-12.57h-29.7V69.22h29.7Zm0-5.62h-29.7V42.47h29.7Zm0-26.75h-29.7V37.74h29.7Zm12,391.68-1.55-.53h1.55Zm0-3.2h-3.48V394.56h3.48Zm0-36.39h-3.48v-2.68h3.48Zm0-5.35h-3.48v-2.94h3.48Zm0-11.5h-3.48V344.26h3.48Zm0-33.44h-3.48V328.21h3.48Zm0-16.05h-3.48v-29.7h3.48Zm0-38.26h-3.48v-2.94h3.48Zm0-5.62h-3.48V279h3.48Zm0-5.35h-3.48V243.13h3.48Zm0-35.85h-3.48v-2.68h3.48Zm0-5.35h-3.48v-3.48h3.48Zm0-12h-3.48V194.44h3.48Zm0-31.3h-3.48V178.38h3.48Zm0-16.05h-3.48V151.63h3.48Zm0-26.75h-3.48v-4h3.48Zm0-12.57h-3.48V134h3.48Zm0-5.08h-3.48v-2.14h3.48Zm0-4.82h-3.48V92.77h3.48Zm0-36.39h-3.48V87.42h3.48Zm0-5.35h-3.48v-4h3.48Zm0-12.57h-3.48V69.22h3.48Zm0-5.62h-3.48V42.47h3.48Zm0-26.75h-3.48V37.74h3.48Zm5.35,393.5-2.68-.91V431h2.68Zm0-5h-2.68V394.56h2.68Zm0-36.39h-2.68v-2.68h2.68Zm0-5.35h-2.68v-2.94h2.68Zm0-11.5h-2.68V344.26h2.68Zm0-33.44h-2.68V328.21h2.68Zm0-16.05h-2.68v-29.7h2.68Zm0-38.26h-2.68v-2.94h2.68Zm0-5.62h-2.68V279h2.68Zm0-5.35h-2.68V243.13h2.68Zm0-35.85h-2.68v-2.68h2.68Zm0-5.35h-2.68v-3.48h2.68Zm0-12h-2.68V194.44h2.68Zm0-31.3h-2.68V178.38h2.68Zm0-16.05h-2.68V151.63h2.68Zm0-26.75h-2.68v-4h2.68Zm0-12.57h-2.68V134h2.68Zm0-5.08h-2.68v-2.14h2.68Zm0-4.82h-2.68V92.77h2.68Zm0-36.39h-2.68V87.42h2.68Zm0-5.35h-2.68v-4h2.68Zm0-12.57h-2.68V69.22h2.68Zm0-5.62h-2.68V42.47h2.68Zm0-26.75h-2.68V37.74h2.68Zm34.78,398.92h-18.8l-7.1-2.41h25.9Zm0-5.08H159.12V431h32.11Zm0-5.35H159.12V394.56h32.11Zm0-36.39H159.12v-2.68h32.11Zm0-5.35H159.12v-2.94h32.11Zm0-11.5H159.12V344.26h32.11Zm0-33.44H159.12V328.21h32.11Zm0-16.05H159.12v-29.7h32.11Zm0-38.26H159.12v-2.94h32.11Zm0-5.62H159.12V279h32.11Zm0-5.35H159.12V243.13h32.11Zm0-35.85H159.12v-2.68h32.11Zm0-5.35H159.12v-3.48h32.11Zm0-12H159.12V194.44h32.11Zm0-31.3H159.12V178.38h32.11Zm0-16.05H159.12V151.63h32.11Zm0-26.75H159.12v-4h32.11Zm0-12.57H159.12V134h32.11Zm0-5.08H159.12v-2.14h32.11Zm0-4.82H159.12V92.77h32.11Zm0-36.39H159.12V87.42h32.11Zm0-5.35H159.12v-4h32.11Zm0-12.57H159.12V69.22h32.11Zm0-5.62H159.12V42.47h32.11Zm0-26.75H159.12V37.74h32.11Zm5.35,398.92H193.9V436.3h2.68Zm0-5.08H193.9V431h2.68Zm0-5.35H193.9V394.56h2.68Zm0-36.39H193.9v-2.68h2.68Zm0-5.35H193.9v-2.94h2.68Zm0-11.5H193.9V344.26h2.68Zm0-33.44H193.9V328.21h2.68Zm0-16.05H193.9v-29.7h2.68Zm0-38.26H193.9v-2.94h2.68Zm0-5.62H193.9V279h2.68Zm0-5.35H193.9V243.13h2.68Zm0-35.85H193.9v-2.68h2.68Zm0-5.35H193.9v-3.48h2.68Zm0-12H193.9V194.44h2.68Zm0-31.3H193.9V178.38h2.68Zm0-16.05H193.9V151.63h2.68Zm0-26.75H193.9v-4h2.68Zm6.69,300.21-4-1.36v-.53h4Zm0-10.45h-4V436.3h4Zm0-5.08h-4V431h4Zm0-5.35h-4V394.56h4Zm0-36.39h-4v-2.68h4Zm0-5.35h-4v-2.94h4Zm0-11.5h-4V344.26h4Zm0-33.44h-4V328.21h4Zm0-16.05h-4v-29.7h4Zm0-38.26h-4v-2.94h4Zm0-5.62h-4V279h4Zm0-5.35h-4V243.13h4Zm0-35.85h-4v-2.68h4Zm0-5.35h-4v-3.48h4Zm0-12h-4V194.44h4Zm0-31.3h-4V178.38h4Zm0-16.05h-4V151.63h4Zm0-26.75h-4v-4h4Zm8.56,298.32h28.79l.23,14.63-29-9.83Zm38,47.76-7-12.13L238.5,206.74h22.58L256.81,482.9Z"/></g><g id="p1"><path class="cls-6" d="M408.49,299.32l.34-2.68h-45.3V224.4h54.35l.34-2.68H363.53V147.88h63.93l.34-2.68H363.53V72.43h72.24v9.1l2.68-21.36V37.74h-2.68v32H363.53v-32h-2.68v32H288.61v-32h-2.68v32h-26.1c0,.06,0,.12,0,.18a4,4,0,0,1-.17,1.57,4.12,4.12,0,0,0,0,.52,2.46,2.46,0,0,1,0,.4h26.21v51.12h0c.47.09.94.21,1.4.32l.61.13.16,0,.32,0,.18,0V72.43h72.24v72.77H288.61v-12.1A15.06,15.06,0,0,1,287.1,132c-.15-.13-.3-.28-.46-.41l-.06,0-.09-.06c-.18-.13-.37-.24-.57-.35v14H262.68a9.74,9.74,0,0,1,.08,2.68h23.18v73.84H262.41c0,.89,0,1.78,0,2.68h23.51v72.24H261.22c0,.07,0,.15,0,.22,0,.82.08,1.63.08,2.45h24.61v73.31H260.19a2.26,2.26,0,0,1-.24.86c0,.19,0,.38,0,.57,0,.41.1.83.14,1.24h25.82v72.24h-27c0,.91,0,1.79,0,2.68h27v2.69l2.68-.89v-1.79H294l8-2.68H288.61V375.3h72.24v52.6l2.68-.89V375.3H399l.34-2.68H363.53V299.32Zm-47.64,73.31H288.61V299.32h72.24Zm0-76H288.61V224.4h72.24Zm0-74.91H288.61V147.88h72.24Z"/><path class="cls-6" d="M211.56,37.74v32H139.32v-32h-2.68v32H64.41v-32H61.73v24l2.68,21.43V72.43h72.24v72.77H72.15l.33,2.68h64.16v73.84H81.71L82,224.4h54.61v72.24H91.06l.33,2.68h45.25v73.31h-36.1l.33,2.68h35.77v51.28l2.68.91V375.3h72.24v72.24H198.48l7.89,2.68h5.19V452l2.68.91v-2.67h26.48a3.21,3.21,0,0,1,0-.6h0a.45.45,0,0,1,0-.14l0-.13a5.4,5.4,0,0,1,0-1.8H214.23V375.3h25.16c0-.36.06-.72.1-1.08s0-.49,0-.74c0-.09,0-.17,0-.26a2.41,2.41,0,0,1,0-.6H214.23V299.32h24.12a19.46,19.46,0,0,1-.06-2.59s0-.06,0-.09H214.23V224.4h22.88a1.77,1.77,0,0,1,0-.22c0-.82,0-1.64.07-2.45H214.23V147.88h22.62l0-.05c0-.08,0-.15,0-.23s0-.43,0-.64,0-.53.05-.79c0-.08,0-.69,0-.29a3.39,3.39,0,0,1,0-.67h-22.7V131c-.22.1-.44.19-.68.28a3.79,3.79,0,0,1-.74.17l-.23.19a3.09,3.09,0,0,1-1,.46v13.07H139.32V72.43h72.24v51.62a1.31,1.31,0,0,1,.4-.14,4.77,4.77,0,0,1,.62-.18l.12-.05a5.9,5.9,0,0,1,1.54-.47V72.43h25.62c0-.76-.09-1.52-.17-2.27a1.62,1.62,0,0,1,0-.4H214.23v-32Zm0,334.88H139.32V299.32h72.24Zm0-76H139.32V224.4h72.24Zm0-148.76v73.84H139.32V147.88Z"/></g></svg>