<svg xmlns="http://www.w3.org/2000/svg" viewBox="0 0 500 500"><title>outworlds-alliance-hbs</title><g id="Base"><path d="M284.42,76.71h38.37l72.55,72.55,3.6-2.45c6-4.05,12-8.18,17.91-12.27L333.4,51.09H291.94C289.37,59.52,286.77,68.32,284.42,76.71Z"/><path d="M450,322.59V210.43c-8.3.89-17.09,1.89-25.62,3v98.67l4,1.65C435.55,316.71,442.87,319.74,450,322.59Z"/><path d="M215.51,423.54H179.13l-61.79-61.79c-5.36,3.72-10.84,7.44-16.29,11.14l-5.24,3.56,72.7,72.7H208C210.56,440.74,213.16,431.94,215.51,423.54Z"/><path d="M114.36,141.48l64.77-64.77h37.31q-.83-4.26-1.65-8.52c-1.1-5.67-2.21-11.43-3.35-17.09H168.52L97.85,121.77C103.16,128.24,108.82,135,114.36,141.48Z"/><path d="M381.16,365.17l-58.37,58.37H283.6q.81,4.14,1.6,8.27c1.11,5.75,2.24,11.6,3.4,17.34h44.8l64.38-64.38C392.31,378.17,386.62,371.44,381.16,365.17Z"/><path d="M51.93,190V309.07c8.36-.9,17.15-1.92,25.62-3V200.55l-5.91-2.45C65.1,195.38,58.45,192.63,51.93,190Z"/><path d="M219.7,407.77c1.73-6.93,3.06-13,3.77-17.74H193l-48.49-48.49c-4.3,3.57-9,7.22-14.13,10.95l55.27,55.27Z"/><path d="M93.31,207v96.87c6.73-1,12.8-2.1,17.74-3.19V213.71C105.34,211.69,99.39,209.4,93.31,207Z"/><path d="M358.76,341.51l-.71-.6L308.92,390H276.4c1.4,5.63,2.74,11.6,4,17.74h35.84l54.36-54.36C366.11,348.53,362,344.39,358.76,341.51Z"/><path d="M136.94,166.27,193,110.21h30.65c-1.41-5.63-2.74-11.6-4-17.74h-34l-60.89,60.89C129.21,158.31,133.36,162.74,136.94,166.27Z"/><path d="M367.49,168.79c4.65-3.45,9.56-6.94,14.62-10.46L316.26,92.47h-36c-1.73,6.94-3.05,13.06-3.75,17.74h32.43Z"/><path d="M408.61,215.57c-6.62,1-12.68,2-17.74,3.07v80.17c5.73,2.07,11.67,4.37,17.74,6.81Z"/><path d="M61.9,99.24a7.53,7.53,0,0,1,12.24-.57c14.27,18,48.55,60.52,64.5,74.6,14,12.39,62.45,41.3,62.45,41.3a3.24,3.24,0,0,1-1.89,5.9c-17.21-.23-51.07-1-64.5-3.85C110,211.47,71.63,193,40.1,181.15c-5.83-2.19-8.62-17.46-7.88-23.65C33.84,143.93,52.26,114.09,61.9,99.24Z"/><path d="M103.16,98.39c7.88,7.88-5.29,15.77-11.82,15.77s-11.82-7.06-11.82-15.77S75.58,86.56,91.34,82.62C97.68,81,97,92.23,103.16,98.39Z"/><path d="M486.93,192.9a7.53,7.53,0,0,1-6.24,10.55c-22.86,2.07-77.24,7.39-97.76,13C364.89,221.39,314.15,246,314.15,246a3.24,3.24,0,0,1-3.9-4.82c9.64-14.26,28.89-42.13,38.6-51.82,17.88-17.84,54.37-39.75,81.55-59.63,5-3.68,19.33,2.37,24.1,6.38C465,144.93,479.81,176.7,486.93,192.9Z"/><path d="M465,227.88c-10.91,2.27-10.28-13.07-6.69-18.53s12.39-6,19.67-1.24,12,3.19,6.69,18.53C482.53,232.81,473.54,226.11,465,227.88Z"/><path d="M291.85,5.5a7.53,7.53,0,0,1,7.23,9.89c-7.12,21.83-23.66,73.89-26.6,95-2.58,18.54,0,74.87,0,74.87a3.24,3.24,0,0,1-6,1.68c-9.3-14.48-27.32-43.17-32.39-55.91-9.35-23.46-15.09-65.64-22.63-98.45-1.4-6.07,9.8-16.82,15.37-19.63C239.1,6.77,274.15,5.66,291.85,5.5Z"/><path d="M315.34,39.44c-2.22,10.92-16.07,4.29-19.67-1.16s-.64-13.76,6.62-18.56S310,9.91,322,20.88C326.78,25.29,317.08,30.91,315.34,39.44Z"/><path d="M438.1,412.58a7.53,7.53,0,0,1-12.24.57c-14.27-18-48.55-60.52-64.5-74.6-14-12.39-62.45-41.3-62.45-41.3a3.24,3.24,0,0,1,1.89-5.9c17.21.23,51.07,1,64.5,3.85,24.72,5.16,63.06,23.65,94.59,35.47,5.83,2.19,8.62,17.46,7.88,23.65C466.16,367.89,447.74,397.74,438.1,412.58Z"/><path d="M396.84,413.44c-7.88-7.88,5.29-15.77,11.82-15.77s11.82,7.06,11.82,15.77,3.94,11.82-11.82,15.77C402.32,430.79,403,419.59,396.84,413.44Z"/><path d="M13.07,326.8a7.53,7.53,0,0,1,6.24-10.55c22.86-2.07,77.24-7.39,97.76-13,18.05-4.94,68.79-29.55,68.79-29.55a3.24,3.24,0,0,1,3.9,4.82c-9.64,14.26-28.89,42.13-38.6,51.82C133.27,348.17,96.78,370.08,69.59,390c-5,3.68-19.33-2.37-24.1-6.38C35,374.78,20.19,343,13.07,326.8Z"/><path d="M35,291.83c10.91-2.27,10.28,13.07,6.69,18.53s-12.39,6-19.67,1.24-12-3.19-6.69-18.53C17.47,286.9,26.46,293.6,35,291.83Z"/><path d="M208.15,494.5a7.53,7.53,0,0,1-7.23-9.89c7.12-21.83,23.66-73.89,26.6-95,2.58-18.54,0-74.87,0-74.87a3.24,3.24,0,0,1,6-1.68c9.3,14.48,27.32,43.17,32.39,55.91,9.35,23.46,15.09,65.64,22.63,98.45,1.4,6.07-9.8,16.82-15.37,19.63C260.9,493.23,225.85,494.34,208.15,494.5Z"/><path d="M184.66,460.56c2.22-10.92,16.07-4.29,19.67,1.16s.64,13.76-6.62,18.56S190,490.09,178,479.12C173.22,474.71,182.92,469.09,184.66,460.56Z"/></g></svg>