<svg xmlns="http://www.w3.org/2000/svg" width="500" height="500" viewBox="0 0 500 500">
  <title>outworlds-alliance_COLOR</title>
  <g id="n2">
    <path d="M494.26,248.18c-.72,3.11-4.09,4.68-6.95,4.46-4.28-.35-8.3-3.27-11.94-5.34-4.31-2.47-12.44-6.82-13.84,1.14-.6,3.32,1.09,5.45,4,6.78,1.91.87,4,1.16,6,1.85,4.48,1.59,4.67,5.39,4.61,9.49a.55.55,0,0,0,0,.14c-.14,2.48-.81,9.49-3.77,10.29-2.1.56-5.3-2.43-7.5-2.8-3.39-.55-6,2.67-5.63,6,.48,3.84,4.81,5.91,7.72,7.65,1.38.83,5.55,2.89,3.7,5a16.44,16.44,0,0,1-2.27.5,6.41,6.41,0,0,0-2.32,1.73c-2.2,2.44-4.69,8.37-2.56,11.56s6.54,2,9.07,4.29c10.06,9.25-15.58,18.17-20.63,21.69-12-14.11-29.7-32.46-45.72-45.65-9.18-7.58-23.66-17.6-37.76-26.14-23.87-14.46-25.73-12.62-26.94-11.39a3.11,3.11,0,0,0-.93,2.31c0,2.52,2.62,5.05,9,11a207.27,207.27,0,0,1,15.15,15.35c7,8,8.09,10,10.83,14.71,2.17,3.75,5.43,9.42,13.41,21.13,10.92,16.06,18.88,39.4,24.33,60.13-1.24,2.68-5.59,6.29-7,8.06-2,2.53-4.27,5.68-4,9.06.26,3.06,3.31,6.1,3.19,9.1-.13,3.3-7.47-.69-9.87-.78-3.66-.13-7.77,2.45-10.92,4a62,62,0,0,0-6,3.31,4,4,0,0,1-.38-.2l-.41.74A29.84,29.84,0,0,0,373,411.5c-2.75,2.92-5.12,6.62-5.2,10.77-.05,2.45.43,6.62,2.66,8.09.72.48,1.15-.14,1.79,0,1.36.41,2.52,1.07,3.91,1.4,2,.46,10.62,1,10,3.1-.56,1.83-6.92,5.17-8.41,6.21-2.39,1.68-5.65,4.65-8.66,5.07-2.75.38-6-1.16-8.56-2.06-3.74-1.32-7.4-2.86-11.21-4-5.19-1.53-12.14-3-16.27,1.62-2.27,2.53-3.12,6.4-2.95,9.69.18,3.69,3.79,9.79,1,12.72-6.65,6.92-13.4-12.75-20-12.88a1.65,1.65,0,0,0-1.41,2.45c1.41,2.49,1.54,3.48-1.41,3.42a22.74,22.74,0,0,1-5.8-1.26c-1.91-.59-7.93-2.42-8.74-3.42a1.7,1.7,0,0,0-2.26-.73c-4.21,1.92-4.9,6-4.76,10.26.09,2.5.83,5.36.38,7.83-.78,4.24-5.81,8.08-10.21,7.09-4.89-1.08-4-8.07-5.87-11.87-1.71-3.53-6-6.69-7.4-10.44,1.05-2.27,2.09-4.51,3.1-6.67,9.46-20.2,12.4-32.23,19.49-64.05,4-17.78,3.51-40.48,2.89-52.44,0-.29-1.54-28.94-4.55-31.5a2.31,2.31,0,0,0-2.35-.4c-1.78.72-2.42,2.53-6.85,19.44-2.39,9.09-5.36,20.4-8.67,30.69-5.81,18-12.24,28.75-23.92,48.22-2.3,3.84-4.79,8-7.51,12.6-7.46,12.62-20.27,26.88-33,39.26-4-4.71-12.52-7.64-17.06-9.75a1.67,1.67,0,0,0-2,.25c-1,1.05-1.69,3.07-2.66,3.89-2.73,2.35-4.69.69-6-1.49s-1.44-4.88-3-6.77c-2.17-2.57-5.45-2.31-8.43-3.07-4.22-1.08-4.64-3.79-5.65-6.7.09-.49-.64-1.62-.64-1.62a10,10,0,0,0-1.1-1.82c-2.92-3.83-9.49-6.91-13.9-3.92-5.05,3.42-5.83,10.3-11.35,13.58-2.86,1.7-15.15,4.13-13.83-1.77.15-.68,1.4-1.8,1.76-2.41a14,14,0,0,0,1.69-4.66c.92-4.93,1.08-11.89-3.71-15-4.43-2.86-9.84-1.51-13,2.4s-4.64,12.85-11.18,12.36c-6.31-.48.49-17,1-20.85.37-2.59.64-6-1.73-7.74s-6-1.06-7.9.85c-3.1,3.14-3.2,9.12-4.09,13.16-.65,2.95-1.36,6.13-3.07,8.67-2.56,3.81-9.81,6.45-10.64,0-1-8,3.69-14.18,6.71-21,2-4.49,2.65-10.14-2.75-12.44-2.65-1.12-5.1-.41-7.63.59-5.69,2.23-10.45,1.9-14-3.83-2.23-3.56-3.25-10.64,2.31-11.61,2.39-.41,5.39.47,7.81.53,4.22.11,10.61-.13,11.82-5.21a4.8,4.8,0,0,0-1.57-5.2,7.57,7.57,0,0,0-3.53-1c-2.66-.29-4.86,1.05-4.13-2.73a1.71,1.71,0,0,0-1.4-2c7.78-3.79,17.13-8.8,26.93-14.45,17.08-9.84,35.57-23,56.53-40.18,11.07-9.07,36.38-36.54,36.51-41.48a2.42,2.42,0,0,0-.78-1.91c-1.85-1.7-4.1-.69-17.26,6.34-7.08,3.78-15.1,8.08-21.74,10.72-14.3,5.72-42.22,13.68-72.87,20.77-4.59,1.06-9,2-13.25,2.73,0-6-1.82-11.86-2.29-17.9-.55-7.23,2-14.29,1.43-21.52-.36-4.6-1.88-10.61-5-14.18-2.21-2.53-4.76-2.76-5.06-6.57-.13-1.67.42-3.3.44-5a1.35,1.35,0,0,0,.09-.6,16.66,16.66,0,0,0-2-6.28,1.66,1.66,0,0,0-.4-.46A3.9,3.9,0,0,0,38,222.26c-.64-.12-2.91.35-3.3-.1-.82-1,.8-2.74,1.31-3.53,2.44-3.75,6.3-7.63,7.12-12.16.78-4.28-.05-9.38-.46-13.68s-1.37-7.19-4.8-10c-5.43-4.47-13.77-5.82-15.33-13.58-1.11-5.45-2.84-6.46-7.35-9.66-4-2.83-.37-4.85,2.63-6.32a35.74,35.74,0,0,1,13.62-4,47,47,0,0,1,12.63.83c3.09.63,5.94,2.26,9.06,2.69,5.29.73,7.44-2,10-5.84q3.12-4.63,6.13-9.36c5.39,4.81,11.48,10.25,17.92,16.38,13.9,13.24,40.57,30.19,51.4,36.86C146.53,195.6,172,211,177.48,211A2.06,2.06,0,0,0,178,211a2.46,2.46,0,0,0,1.76-1.59c.76-2.27-1.05-4.1-10.77-13.41-13.17-12.63-37.7-36.15-52.27-63.11-6.09-11.26-11.07-20.57-15.09-28.38a29.88,29.88,0,0,0,4.48-3.85c3.24-3,6.15-6.94,9.76-9.52s8.1-1.5,11.56-3.88c4.08-2.82,5.14-7.91,4.65-12.49-.38-3.52-.61-9.15,3.7-10.65,1.86-.64,4.31.41,6.24.5,4.76.21,9-2,12.27-5.37,8.17-8.29,11.84-21.64,14.89-32.53a33.44,33.44,0,0,1,8.64-14.91c1.12-1.19,3.78-3.23,5-5.25,4.42.67,9.35,6.08,6.92,10.19-.8,1.37-2,2.15-2.68,3.68-1.28,3-.5,6.53,0,9.66.44,2.92.73,8.5,3.22,10.61,2.24,1.9,7.12,1.17,9.75,1.05,2.84-.13,5.62.12,7-2.73,2.1-4.23-.74-9.64,1.66-13.69,4.1-6.92,7.21.94,9.1,4.23a9.66,9.66,0,0,0,4.34,4.37c-1.37,6.24-2.73,13.76-4.26,22.64-4.15,24.06-4.51,38.51-4.92,55.25-.13,5.23-.27,10.61-.53,16.58-.62,14.29,3.21,33.13,5.55,43.1.6,2.55,5.93,24.91,9.28,27.08a2.51,2.51,0,0,0,1.36.41,2.33,2.33,0,0,0,1-.25c2.33-1.16,2.72-5,3.73-18.28.46-5.85,1-12.48,1.79-19.17,2.13-17,5.28-29.81,19.38-65.61,8.68-22,25.25-45.61,38.59-60.48,6.45,4.54,14.43,5.76,22.27,5.68,3.08,0,6.37.09,9.12-1.44,5.19-2.89,7.19.48,9.64,4.8,2.82,5,8.47,2.34,12.93,1.05,3.4-1,9.36-3.29,12.4-.43,3.57,3.33-2.26,4.9-4.56,6.39-12.22,7.9,5.5,18.73,12.73,21.63,4.13,1.65,8.88,2.76,11.72-1.6,1.4-2.14,1.62-4.84,1.89-7.3.17-1.55,0-3.78.74-5.2,1.36-2.67,3.83-2.1,5.42,0,4.45,5.88,2.29,15.12,5.16,21.68,1.51,3.46,4.26,3.51,6.92,5.64,2.83,2.26,2.19,6.47,3.73,9.55-15.18,9.35-35.26,25.49-45.86,34l-3.2,2.57c-9,7.21-43.94,45.17-44.27,51.1a2.53,2.53,0,0,0,.73,2,2.69,2.69,0,0,0,2,.88c2.49,0,6.61-2.86,15.41-9.2,6.48-4.67,13.84-10,19.76-12.95,2.36-1.18,4.63-2.42,7-3.72,10.52-5.75,23.61-12.9,55.36-20a163.88,163.88,0,0,1,23.67-3.64c-1,4.89,3.85,12.63,7.44,14.68.89.51,1.92.35,2.74.74s.88-.15,1.75.49c1.44,1.05,1.51,5.48,1.3,6.75-.73,4.48-4.82,8.28-4.2,13a9.18,9.18,0,0,0,4.72,7c1.64.78,3.51.93,5.2,1.59,3.73,1.46,7,4,10.57,5.72,5.54,2.61,10.48,1.75,16.38,1.94,2.74.1,13.12,3.22,9.54,7.19-1.59,1.76-5.38,2.54-7.46,3.45-3,1.31-6,2.78-8.38,5.1-5.74,5.68-3.31,12.61.5,18.69a81.47,81.47,0,0,0,8.62,11.21c2.57,2.86,5.76,4.82,8.53,7.46C492.75,243.37,494.87,245.6,494.26,248.18Z" style="fill: #ffea8e"/>
  </g>
  <g id="n1">
    <path d="M464,143.36a1.87,1.87,0,0,1,.09.29v.47h0c0,4.49-8.37,20-16.22,31.38a5.28,5.28,0,0,1-1.73-5.3,21.25,21.25,0,0,1,2.13-5.92,2.2,2.2,0,0,0,1.25.39,2.15,2.15,0,0,0,1.75-.89c.85-1.15,1.75-2.34,2.66-3.55,3.66-4.87,7.45-9.9,8.64-13.78a7.6,7.6,0,0,0-.21-5.06A5.32,5.32,0,0,1,464,143.36Z" style="fill: #326136"/>
    <path d="M413.84,94.64a132.27,132.27,0,0,0,11.87-6.18,18.7,18.7,0,0,1,2-1.1,11.27,11.27,0,0,1,1.13.53l.4.2c3.79,2.3,30.12,41.65,32.67,46.76,0,0,.27.54.62,1.44-7.74-4.27-23.92-6.74-53.35-.2-32.35,7.19-45.75,14.5-56.51,20.38-2.36,1.28-4.59,2.49-6.87,3.64-6.24,3.12-13.75,8.53-20.37,13.31-2.92,2.09-6.24,4.49-8.83,6.18,7.63-10.51,30.63-36.4,40.19-44,.93-.74,2-1.6,3.2-2.57C372.74,122.77,399.2,101.47,413.84,94.64Z" style="fill: #326136"/>
    <path d="M311.24,20c6.31-.69,9.88,12,10.64,16.57l.54-.1a7.27,7.27,0,0,1-2.89.92c-.44.05-.9.09-1.34.12-.49-5-1.72-12.86-4.89-15a14.91,14.91,0,0,0-3.85-2A6.08,6.08,0,0,1,311.24,20Z" style="fill: #326136"/>
    <path d="M236.79,12.37c3.59-1,9.09-1.54,15.77-1.54A195.46,195.46,0,0,1,276,12.43l7.44.93c12.45,1.54,20,2.46,22.51,3.32.4.13.77.27,1.11.4-13.57,7.5-43.66,44-56.65,77-14.28,36.23-17.49,49.32-19.65,66.65-.86,6.8-1.37,13.48-1.81,19.37-.3,3.86-.62,8-1,11-4.1-11.26-12.19-42.78-11.32-62.57.26-6,.39-11.43.52-16.66.42-16.57.78-30.88,4.87-54.62C227.28,27.09,230.47,14.18,236.79,12.37Z" style="fill: #326136"/>
    <path d="M87.95,67.16c4.26-2.83,26.18,4.2,41.07,10.33v.22a11.13,11.13,0,0,1-.61,2.73l-.79-.42c-3.34-1.77-8.92-4.72-13.21-6.43-5.49-2.19-14.38-4.76-21.33-4.76a11.06,11.06,0,0,0-5.32,1c-.07-.73-.1-1.42-.1-2.09C87.67,67.39,87.75,67.29,87.95,67.16Z" style="fill: #326136"/>
    <path d="M51.78,111.8c1.41-4.22,7.25-12.07,12.9-19.65C67.2,88.77,69.8,85.28,72.1,82l3.71-5.33c4.21-6.1,5.33-7.67,7.33-9.07l.2,0v.2c0,11.5,7.65,26.69,29.53,67.16,14.9,27.56,39.73,51.38,53.08,64.18,1.91,1.83,3.85,3.69,5.48,5.3-16.66-8.1-62.19-35.57-81.17-53.66C83.66,144.46,77.44,138.92,72,134,61,124.29,50.69,115.07,51.78,111.8Z" style="fill: #326136"/>
    <path d="M7.13,297.33c.56-3.49,3.5-11.1,11.6-23.49,7.51-11.47,20.89-24.94,25.73-29.65a9.23,9.23,0,0,1,1.94,2.37c.08.15.14.3.23.46-.81.75-1.9,1.7-3.14,2.81a182.61,182.61,0,0,0-17.37,16.9c-7.48,8.68-15,21.56-16.89,26-1.3,3-.92,5.28.15,7a17.11,17.11,0,0,1-2.15-.3,1.11,1.11,0,0,1-.2-.64c0-.48.09-1,.12-1.47Z" style="fill: #326136"/>
    <path d="M35.9,357.32c-2-1.36-5.76-9.66-8.77-16.34a153.89,153.89,0,0,0-7-14.28c-2.08-3.49-4.43-7-6.51-10.06C10.57,312.1,7.69,307.8,7,305.48a6.91,6.91,0,0,1-.29-1.72c6.54,1.27,30.9.75,61-6.22,30.84-7.14,59-15.18,73.5-21,6.85-2.74,15-7.09,22.16-10.93,3.21-1.71,6.67-3.57,9.3-4.86-6,8.11-21.87,26-32.56,34.73-20.77,17-39.07,30-56,39.78C53,353.27,38.16,358.3,35.9,357.32Z" style="fill: #326136"/>
    <path d="M158.7,481.44c-3.87-1.19-7.55-5.77-11.23-14-4.12-9.18-1.56-34.41,1.47-45.87a10.7,10.7,0,0,1,4.25,3.61c-4.48,25.07-4.47,40.74,0,49.23a13,13,0,0,0,9.59,7.08A7.51,7.51,0,0,1,158.7,481.44Z" style="fill: #326136"/>
    <path d="M259.28,453.62c-6.48,14-17.34,37.38-21,38.59-4.81.52-26.78.37-43.39-1.8a258.91,258.91,0,0,1-29-5.33,20.07,20.07,0,0,0,3-1.51c5.65-3.48,19.47-14.57,33.86-28.31a1.6,1.6,0,0,0,1.5-1.43C217.55,441,231.15,425.95,239,412.71c2.71-4.59,5.19-8.74,7.49-12.57C257.91,381,264.83,369.5,270.78,351c3.36-10.41,6.34-21.79,8.74-30.93,1.08-4.11,2.18-8.29,3.1-11.5,2.17,14.09,4.79,49.93-.66,74.36-7,31.48-9.91,43.38-19.18,63.15C261.64,448.53,260.47,451.07,259.28,453.62Z" style="fill: #326136"/>
    <path d="M418.68,423.67c-.89.7-1.91,1.5-3.1,2.52-6.09,5.21-22.24-2-35.2-7.75-2.27-1-4.42-2-6.54-2.87a23.07,23.07,0,0,1,4.21-4.27c7.19,3.1,30.73,11.7,36.32,12.41a10,10,0,0,0,1.26.08,8.32,8.32,0,0,0,4.63-1.38C419.82,422.76,419.32,423.17,418.68,423.67Z" style="fill: #326136"/>
    <path d="M455.65,344.17c2.1,2.76,4.12,5.29,5.9,7.51,6.19,7.77,10.66,13.4,8.93,16-1.3,1.94-3.82,4.23-7,7.12A135.74,135.74,0,0,0,448.64,390c-9.37,11.51-21.54,26.12-21.67,26.27s-.34.4-.49.57c-.23-2.92-1-6.95-2.14-13l-.09-.44c-4.41-23.37-14.42-66.39-31.78-91.88-7.88-11.59-11.1-17.17-13.24-20.87-2.8-4.86-4.08-7.08-11.31-15.38a214.25,214.25,0,0,0-15.45-15.68c-2.1-2-4.38-4.11-5.9-5.75,10.1,4.25,39.78,22.4,56.82,36.44C422.84,306.34,444.83,330,455.65,344.17Z" style="fill: #326136"/>
  </g>
  <g id="Base">
    <path d="M486.38,233.69c-5.08-5-16.5-17-12.41-24.77,3.14-6,11.21-6.67,16.4-9.94,4.35-2.74,3.56-6.4,0-9.54s-7.63-4.09-12.28-4c-3.2.05-6.41.52-9.58-.21-4.11-.94-7.67-3.65-11.3-5.66a40.27,40.27,0,0,0-5.4-2.08c4.22-6.26,16.3-24.86,16.6-33.37h.07a27.8,27.8,0,0,0-2.63-11.2c-1.27-2.54-29.21-46-34.59-48.68l-.4-.21c-3.06-1.54-3.84-1.32-7.3.69-2,1.15-5.31,3.09-11.54,6-1.88.88-3.94,2-6.13,3.25-1.52-2.52-.89-6.34-2.56-8.81-2.27-3.36-6.59-2.95-8.21-7.18-2.33-6.08-1.26-13.09-4-19.11-1.66-3.64-5.92-7.16-10-4.43-4.58,3.06-1.89,10.38-4.28,14.54-3.58,6.24-16.21-3.14-19.55-6.27-2.85-2.65-5-5.59-1.14-8.45,2.09-1.54,5-2.2,6.78-4.21,2.88-3.33,0-7.51-3.48-9-2.63-1.13-5.68-.72-8.4-.17-3.52.69-8.26,3.43-11.84,3-3.1-.35-3.76-5.44-6.18-7.39a8.64,8.64,0,0,0-7-1.68c-.76-3.71-3.79-15.87-11.1-18.62l0-.09c-1.16-.51-2-1-2.87-1.44a26.33,26.33,0,0,0-4.67-2.11c-3-1-10.2-1.88-23.34-3.5l-7.43-.92c-17.75-2.22-33.07-2.2-41,.07-6,1.72-9.53,8.65-12.81,22.54-4.73-2.56-4-13.19-11.95-11-3.58,1-5.59,3.73-6.16,7.25-.4,2.56,0,5.14-.16,7.71-.22,3.61-.83,3.6-4,3.78-2,.11-4.69.59-6.59,0-2.52-.77-2.52-2.65-3.07-5.23-.92-4.3-2.44-9.59.37-13.39,2.2-3,3.36-4.41,1.78-8.29-1.92-4.69-6-8.42-11.2-8.33a1.64,1.64,0,0,0-1.56,2c-.25-1.76-.33-.29-1.33.55A33.73,33.73,0,0,0,176.2,8.7c-1.46,1.56-3,3-4.39,4.68-3.84,4.55-5.21,10.41-6.78,16a92.2,92.2,0,0,1-8.79,21.69c-2.09,3.57-4.79,7.25-8.64,9.09-3.5,1.67-6.07.79-9.64.6-4.59-.26-7.89,2.84-9.2,7.22a10.52,10.52,0,0,0-.15,4.64c-8.62-3.46-28.08-10.74-38.28-10.3l0-.3a60.92,60.92,0,0,0-8.58,1.44l-.37.09-.31.22c-3,2-4.33,3.94-8.81,10.42-1,1.5-2.23,3.25-3.69,5.31-2.26,3.22-4.84,6.69-7.34,10.05-6.13,8.22-11.92,16-13.54,20.87-1.89,5.68,5.53,12.66,19.21,24.88q-2.76,4.33-5.61,8.61c-.93,1.39-1.94,3.64-3.26,4.71-3.45,2.8-9.37-1-13-1.76-7.25-1.47-15.27-1.64-22.36.66-3.77,1.21-10.56,3.39-12.16,7.48-1.85,4.76,1.65,6.29,5.08,8.66,1.83,1.27,2.57,1.69,3.32,3.82.57,1.66.44,3.46,1,5.1a13.45,13.45,0,0,0,4.84,5.82c4.58,3.47,12.68,5.42,14.4,11.52A43.62,43.62,0,0,1,40,205.48c-.87,5.68-6.8,9.33-8.59,14.65-.5,1.52-.54,2.92.68,4.15s5.7.6,6.23,1.63a1.57,1.57,0,0,0,.33.44,15.13,15.13,0,0,1,1.16,3.76,1.52,1.52,0,0,0,0,.54c.6,3.68-1.83,7,.9,10.19.15.17.3.33.47.49-5.15,5-18.36,18.36-26.06,30.14C10.57,278.4,3.75,289.83,2.85,297h0c-.07,1-.15,1.81-.24,2.62-.27,2.55-.5,4.76.24,7.11.9,2.93,3.68,7.06,7.2,12.29,2,3,4.36,6.48,6.4,9.87s4.43,8.72,6.74,13.83c4.52,10,7.47,16.24,10.29,18.16a5.14,5.14,0,0,0,3,.79c2.86,0,7.9-1.31,17.66-5.75l3.6-1.68a2.45,2.45,0,0,0-.11.34,40.53,40.53,0,0,0-.64,4.56,1.58,1.58,0,0,0,.8,1.4c1.86,1.08,4,.52,6,.82s4.29,1.29,2.31,3.52c-1.07,1.2-3.57,1.3-5,1.4-3.91.26-8.73-1.44-12.5-.3-5,1.49-6.39,7.71-5.19,12.09,1.44,5.27,6.28,10.67,11.94,11.35,2.67.31,5-.69,7.35-1.68,2.68-1.11,6-2.34,7.65,1.17,1.06,2.32-.16,4.75-1.18,6.92-2.94,6.22-5.81,10.86-6.51,17.91-.43,4.46.14,10,5.49,10.77s9.81-2.72,12-7.21c2.42-4.86,2.68-10.35,4.09-15.53.55-2,1.1-4.65,3.65-4.74,2-.08,2.16.79,2.31,2.54.67,7.57-5.72,15.17-3.75,22.8.73,2.83,2.85,4.16,5.71,4.14,4.58,0,7.54-2.56,9.66-6.35,1.38-2.47,2.36-5.25,4.22-7.42,4.41-5.18,10.89-1.43,11.19,4.71a16.24,16.24,0,0,1-2.57,10.32c-.88,1.27-2.19,2.42-2,4.1.54,6.26,11.56,6.46,15.59,5.08,7.56-2.6,9.2-8.1,13.71-13.77a5.86,5.86,0,0,1,2.61-2c-2.75,11.19-5.93,37.07-1,48,2.35,5.25,6,12.2,11.43,15.28a48.84,48.84,0,0,0,8.33,4.34,241.82,241.82,0,0,0,31.09,5.87,305.42,305.42,0,0,0,35.75,2.07c4.07,0,7.17-.1,8.67-.26,4.93-.53,11.22-12.68,23.14-38.26,2.07,3.06,5.23,5.75,6.53,9.06,1.69,4.3.85,10.44,5.9,12.35,5.57,2.1,12.87-1.33,15.27-6.72,2.19-4.94-2.23-14.19,2.41-17.74a23.7,23.7,0,0,0,4.15,1.83,44.66,44.66,0,0,0,10.23,3.12c4.59.7,7.49-.87,7.38-4.09a48.72,48.72,0,0,1,3.79,5.11,27.13,27.13,0,0,0,5.24,5.62c3.19,2.3,8.42,2.78,11.23-.52s.69-8.2-.12-11.82c-1.3-5.85,0-12.57,7.2-12.58,5.28,0,10.69,2.46,15.56,4.27,3.75,1.39,8.26,3.62,12.4,3.27,3.78-.33,7.31-3.42,10.31-5.52a90.51,90.51,0,0,0,9.58-7.14,1.63,1.63,0,0,0,.41-1.58c-1-4.09-4.25-5.37-8.1-6a68.44,68.44,0,0,1-7.1-1.68c-.31-.09-1.45-.11-2.18-.17.23-.46-.57-2.39-.63-2.69a9.61,9.61,0,0,1,.36-5.31c2.21.94,4.48,2,6.86,3,11,4.92,22.34,10,30.9,10a13.19,13.19,0,0,0,8.89-2.86c1.13-1,2.1-1.72,3-2.41A20.38,20.38,0,0,0,425,423.7c.72-.57,1.28-1,1.75-1.33a16.69,16.69,0,0,0,3.56-3.32c.12-.14,12.31-14.78,21.69-26.31A131.72,131.72,0,0,1,466.39,378c3.4-3.09,6.1-5.54,7.69-7.93,3.49-5.23-1.27-11.2-9.14-21.1-1.77-2.21-3.76-4.73-5.84-7.44-1.51-2-3.23-4.13-5.13-6.42,6.71-4.58,21.23-8.36,23.61-17.13a9.93,9.93,0,0,0-4.37-10.54c-1.46-.87-3.14-1-4.68-1.56-1.31-.51-2.11-.28-2.59-1.92s1.55-6.08,2.76-7.07c1.49-1.23,3.63-.43,4.82-2.06,1-1.3.61-3.95.07-5.28-1.63-3.92-6.61-4.62-9.45-7.38-1.27-1.24-3.62-4.5.68-4.61.79,0,2.84,1.31,3.66,1.64,1.73.7,3.66,1.43,5.52.69,3.72-1.49,4.84-7.44,5.2-11.54a1.67,1.67,0,0,0,.12-.6c.08-4.07.56-9-2.93-11.87-2.91-2.4-7-1.86-10-3.86-2.37-1.58-2.24-4.91.76-5.06,1.3-.05,3,1.12,4.07,1.68,3.63,1.89,7,4.25,10.79,5.8,5.68,2.32,13.53,1.8,15.43-5.42S490.48,237.71,486.38,233.69ZM464,143.36a1.87,1.87,0,0,1,.09.29v.47h0c0,4.49-8.37,20-16.22,31.38a5.28,5.28,0,0,1-1.73-5.3,21.25,21.25,0,0,1,2.13-5.92,2.2,2.2,0,0,0,1.25.39,2.15,2.15,0,0,0,1.75-.89c.85-1.15,1.75-2.34,2.66-3.55,3.66-4.87,7.45-9.9,8.64-13.78a7.6,7.6,0,0,0-.21-5.06A5.32,5.32,0,0,1,464,143.36ZM413.84,94.64a132.27,132.27,0,0,0,11.87-6.18,18.7,18.7,0,0,1,2-1.1,11.27,11.27,0,0,1,1.13.53l.4.2c3.79,2.3,30.12,41.65,32.67,46.76,0,0,.27.54.62,1.44-7.74-4.27-23.92-6.74-53.35-.2-32.35,7.19-45.75,14.5-56.51,20.38-2.36,1.28-4.59,2.49-6.87,3.64-6.24,3.12-13.75,8.53-20.37,13.31-2.92,2.09-6.24,4.49-8.83,6.18,7.63-10.51,30.63-36.4,40.19-44,.93-.74,2-1.6,3.2-2.57C372.74,122.77,399.2,101.47,413.84,94.64ZM311.24,20c6.31-.69,9.88,12,10.64,16.57l.54-.1a7.27,7.27,0,0,1-2.89.92c-.44.05-.9.09-1.34.12-.49-5-1.72-12.86-4.89-15a14.91,14.91,0,0,0-3.85-2A6.08,6.08,0,0,1,311.24,20Zm-74.45-7.67c3.59-1,9.09-1.54,15.77-1.54A195.46,195.46,0,0,1,276,12.43l7.44.93c12.45,1.54,20,2.46,22.51,3.32.4.13.77.27,1.11.4-13.57,7.5-43.66,44-56.65,77-14.28,36.23-17.49,49.32-19.65,66.65-.86,6.8-1.37,13.48-1.81,19.37-.3,3.86-.62,8-1,11-4.1-11.26-12.19-42.78-11.32-62.57.26-6,.39-11.43.52-16.66.42-16.57.78-30.88,4.87-54.62C227.28,27.09,230.47,14.18,236.79,12.37ZM87.95,67.16c4.26-2.83,26.18,4.2,41.07,10.33v.22a11.13,11.13,0,0,1-.61,2.73l-.79-.42c-3.34-1.77-8.92-4.72-13.21-6.43-5.49-2.19-14.38-4.76-21.33-4.76a11.06,11.06,0,0,0-5.32,1c-.07-.73-.1-1.42-.1-2.09C87.67,67.39,87.75,67.29,87.95,67.16ZM51.78,111.8c1.41-4.22,7.25-12.07,12.9-19.65C67.2,88.77,69.8,85.28,72.1,82l3.71-5.33c4.21-6.1,5.33-7.67,7.33-9.07l.2,0v.2c0,11.5,7.65,26.69,29.53,67.16,14.9,27.56,39.73,51.38,53.08,64.18,1.91,1.83,3.85,3.69,5.48,5.3-16.66-8.1-62.19-35.57-81.17-53.66C83.66,144.46,77.44,138.92,72,134,61,124.29,50.69,115.07,51.78,111.8ZM7.13,297.33c.56-3.49,3.5-11.1,11.6-23.49,7.51-11.47,20.89-24.94,25.73-29.65a9.23,9.23,0,0,1,1.94,2.37c.08.15.14.3.23.46-.81.75-1.9,1.7-3.14,2.81a182.61,182.61,0,0,0-17.37,16.9c-7.48,8.68-15,21.56-16.89,26-1.3,3-.92,5.28.15,7a17.11,17.11,0,0,1-2.15-.3,1.11,1.11,0,0,1-.2-.64c0-.48.09-1,.12-1.47Zm28.76,60c-2-1.36-5.76-9.66-8.77-16.34a153.89,153.89,0,0,0-7-14.28c-2.08-3.49-4.43-7-6.51-10.06C10.57,312.1,7.69,307.8,7,305.48a6.91,6.91,0,0,1-.29-1.72c6.54,1.27,30.9.75,61-6.22,30.84-7.14,59-15.18,73.5-21,6.85-2.74,15-7.09,22.16-10.93,3.21-1.71,6.67-3.57,9.3-4.86-6,8.11-21.87,26-32.56,34.73-20.77,17-39.07,30-56,39.78C53,353.27,38.16,358.3,35.9,357.32ZM158.7,481.44c-3.87-1.19-7.55-5.77-11.23-14-4.12-9.18-1.56-34.41,1.47-45.87a10.7,10.7,0,0,1,4.25,3.61c-4.48,25.07-4.47,40.74,0,49.23a13,13,0,0,0,9.59,7.08A7.51,7.51,0,0,1,158.7,481.44Zm100.58-27.82c-6.48,14-17.34,37.38-21,38.59-4.81.52-26.78.37-43.39-1.8a258.91,258.91,0,0,1-29-5.33,20.07,20.07,0,0,0,3-1.51c5.65-3.48,19.47-14.57,33.86-28.31a1.6,1.6,0,0,0,1.5-1.43C217.55,441,231.15,425.95,239,412.71c2.71-4.59,5.19-8.74,7.49-12.57C257.91,381,264.83,369.5,270.78,351c3.36-10.41,6.34-21.79,8.74-30.93,1.08-4.11,2.18-8.29,3.1-11.5,2.17,14.09,4.79,49.93-.66,74.36-7,31.48-9.91,43.38-19.18,63.15C261.64,448.53,260.47,451.07,259.28,453.62Zm159.39-30c-.89.7-1.91,1.5-3.1,2.52-6.09,5.21-22.24-2-35.2-7.75-2.27-1-4.42-2-6.54-2.87a23.07,23.07,0,0,1,4.21-4.27c7.19,3.1,30.73,11.7,36.32,12.41a10,10,0,0,0,1.26.08,8.32,8.32,0,0,0,4.63-1.38C419.82,422.76,419.32,423.17,418.68,423.67Zm37-79.5c2.1,2.76,4.12,5.29,5.9,7.51,6.19,7.77,10.66,13.4,8.93,16-1.3,1.94-3.82,4.23-7,7.12A135.74,135.74,0,0,0,448.64,390c-9.37,11.51-21.54,26.12-21.67,26.27s-.34.4-.49.57c-.23-2.92-1-6.95-2.14-13l-.09-.44c-4.41-23.37-14.42-66.39-31.78-91.88-7.88-11.59-11.1-17.17-13.24-20.87-2.8-4.86-4.08-7.08-11.31-15.38a214.25,214.25,0,0,0-15.45-15.68c-2.1-2-4.38-4.11-5.9-5.75,10.1,4.25,39.78,22.4,56.82,36.44C422.84,306.34,444.83,330,455.65,344.17Zm38.62-96c-.72,3.11-4.09,4.68-6.95,4.46-4.28-.35-8.3-3.27-11.94-5.34-4.31-2.47-12.44-6.82-13.84,1.14-.6,3.32,1.09,5.45,4,6.78,1.91.87,4,1.16,6,1.85,4.48,1.59,4.67,5.39,4.61,9.49a.55.55,0,0,0,0,.14c-.14,2.48-.81,9.49-3.77,10.29-2.1.56-5.3-2.43-7.5-2.8-3.39-.55-6,2.67-5.63,6,.48,3.84,4.81,5.91,7.72,7.65,1.38.83,5.55,2.89,3.7,5a16.44,16.44,0,0,1-2.27.5,6.41,6.41,0,0,0-2.32,1.73c-2.2,2.44-4.69,8.37-2.56,11.56s6.54,2,9.07,4.29c10.06,9.25-15.58,18.17-20.63,21.69-12-14.11-29.7-32.46-45.72-45.65-9.18-7.58-23.66-17.6-37.76-26.14-23.87-14.46-25.73-12.62-26.94-11.39a3.11,3.11,0,0,0-.93,2.31c0,2.52,2.62,5.05,9,11a207.27,207.27,0,0,1,15.15,15.35c7,8,8.09,10,10.83,14.71,2.17,3.75,5.43,9.42,13.41,21.13,10.92,16.06,18.88,39.4,24.33,60.13-1.24,2.68-5.59,6.29-7,8.06-2,2.53-4.27,5.68-4,9.06.26,3.06,3.31,6.1,3.19,9.1-.13,3.3-7.47-.69-9.87-.78-3.66-.13-7.77,2.45-10.92,4a62,62,0,0,0-6,3.31,4,4,0,0,1-.38-.2l-.41.74A29.84,29.84,0,0,0,373,411.5c-2.75,2.92-5.12,6.62-5.2,10.77-.05,2.45.43,6.62,2.66,8.09.72.48,1.15-.14,1.79,0,1.36.41,2.52,1.07,3.91,1.4,2,.46,10.62,1,10,3.1-.56,1.83-6.92,5.17-8.41,6.21-2.39,1.68-5.65,4.65-8.66,5.07-2.75.38-6-1.16-8.56-2.06-3.74-1.32-7.4-2.86-11.21-4-5.19-1.53-12.14-3-16.27,1.62-2.27,2.53-3.12,6.4-2.95,9.69.18,3.69,3.79,9.79,1,12.72-6.65,6.92-13.4-12.75-20-12.88a1.65,1.65,0,0,0-1.41,2.45c1.41,2.49,1.54,3.48-1.41,3.42a22.74,22.74,0,0,1-5.8-1.26c-1.91-.59-7.93-2.42-8.74-3.42a1.7,1.7,0,0,0-2.26-.73c-4.21,1.92-4.9,6-4.76,10.26.09,2.5.83,5.36.38,7.83-.78,4.24-5.81,8.08-10.21,7.09-4.89-1.08-4-8.07-5.87-11.87-1.71-3.53-6-6.69-7.4-10.44,1.05-2.27,2.09-4.51,3.1-6.67,9.46-20.2,12.4-32.23,19.49-64.05,4-17.78,3.51-40.48,2.89-52.44,0-.29-1.54-28.94-4.55-31.5a2.31,2.31,0,0,0-2.35-.4c-1.78.72-2.42,2.53-6.85,19.44-2.39,9.09-5.36,20.4-8.67,30.69-5.81,18-12.24,28.75-23.92,48.22-2.3,3.84-4.79,8-7.51,12.6-7.46,12.62-20.27,26.88-33,39.26-4-4.71-12.52-7.64-17.06-9.75a1.67,1.67,0,0,0-2,.25c-1,1.05-1.69,3.07-2.66,3.89-2.73,2.35-4.69.69-6-1.49s-1.44-4.88-3-6.77c-2.17-2.57-5.45-2.31-8.43-3.07-4.22-1.08-4.64-3.79-5.65-6.7.09-.49-.64-1.62-.64-1.62a10,10,0,0,0-1.1-1.82c-2.92-3.83-9.49-6.91-13.9-3.92-5.05,3.42-5.83,10.3-11.35,13.58-2.86,1.7-15.15,4.13-13.83-1.77.15-.68,1.4-1.8,1.76-2.41a14,14,0,0,0,1.69-4.66c.92-4.93,1.08-11.89-3.71-15-4.43-2.86-9.84-1.51-13,2.4s-4.64,12.85-11.18,12.36c-6.31-.48.49-17,1-20.85.37-2.59.64-6-1.73-7.74s-6-1.06-7.9.85c-3.1,3.14-3.2,9.12-4.09,13.16-.65,2.95-1.36,6.13-3.07,8.67-2.56,3.81-9.81,6.45-10.64,0-1-8,3.69-14.18,6.71-21,2-4.49,2.65-10.14-2.75-12.44-2.65-1.12-5.1-.41-7.63.59-5.69,2.23-10.45,1.9-14-3.83-2.23-3.56-3.25-10.64,2.31-11.61,2.39-.41,5.39.47,7.81.53,4.22.11,10.61-.13,11.82-5.21a4.8,4.8,0,0,0-1.57-5.2,7.57,7.57,0,0,0-3.53-1c-2.66-.29-4.86,1.05-4.13-2.73a1.71,1.71,0,0,0-1.4-2c7.78-3.79,17.13-8.8,26.93-14.45,17.08-9.84,35.57-23,56.53-40.18,11.07-9.07,36.38-36.54,36.51-41.48a2.42,2.42,0,0,0-.78-1.91c-1.85-1.7-4.1-.69-17.26,6.34-7.08,3.78-15.1,8.08-21.74,10.72-14.3,5.72-42.22,13.68-72.87,20.77-4.59,1.06-9,2-13.25,2.73,0-6-1.82-11.86-2.29-17.9-.55-7.23,2-14.29,1.43-21.52-.36-4.6-1.88-10.61-5-14.18-2.21-2.53-4.76-2.76-5.06-6.57-.13-1.67.42-3.3.44-5a1.35,1.35,0,0,0,.09-.6,16.66,16.66,0,0,0-2-6.28,1.66,1.66,0,0,0-.4-.46A3.9,3.9,0,0,0,38,222.26c-.64-.12-2.91.35-3.3-.1-.82-1,.8-2.74,1.31-3.53,2.44-3.75,6.3-7.63,7.12-12.16.78-4.28-.05-9.38-.46-13.68s-1.37-7.19-4.8-10c-5.43-4.47-13.77-5.82-15.33-13.58-1.11-5.45-2.84-6.46-7.35-9.66-4-2.83-.37-4.85,2.63-6.32a35.74,35.74,0,0,1,13.62-4,47,47,0,0,1,12.63.83c3.09.63,5.94,2.26,9.06,2.69,5.29.73,7.44-2,10-5.84q3.12-4.63,6.13-9.36c5.39,4.81,11.48,10.25,17.92,16.38,13.9,13.24,40.57,30.19,51.4,36.86C146.53,195.6,172,211,177.48,211A2.06,2.06,0,0,0,178,211a2.46,2.46,0,0,0,1.76-1.59c.76-2.27-1.05-4.1-10.77-13.41-13.17-12.63-37.7-36.15-52.27-63.11-6.09-11.26-11.07-20.57-15.09-28.38a29.88,29.88,0,0,0,4.48-3.85c3.24-3,6.15-6.94,9.76-9.52s8.1-1.5,11.56-3.88c4.08-2.82,5.14-7.91,4.65-12.49-.38-3.52-.61-9.15,3.7-10.65,1.86-.64,4.31.41,6.24.5,4.76.21,9-2,12.27-5.37,8.17-8.29,11.84-21.64,14.89-32.53a33.44,33.44,0,0,1,8.64-14.91c1.12-1.19,3.78-3.23,5-5.25,4.42.67,9.35,6.08,6.92,10.19-.8,1.37-2,2.15-2.68,3.68-1.28,3-.5,6.53,0,9.66.44,2.92.73,8.5,3.22,10.61,2.24,1.9,7.12,1.17,9.75,1.05,2.84-.13,5.62.12,7-2.73,2.1-4.23-.74-9.64,1.66-13.69,4.1-6.92,7.21.94,9.1,4.23a9.66,9.66,0,0,0,4.34,4.37c-1.37,6.24-2.73,13.76-4.26,22.64-4.15,24.06-4.51,38.51-4.92,55.25-.13,5.23-.27,10.61-.53,16.58-.62,14.29,3.21,33.13,5.55,43.1.6,2.55,5.93,24.91,9.28,27.08a2.51,2.51,0,0,0,1.36.41,2.33,2.33,0,0,0,1-.25c2.33-1.16,2.72-5,3.73-18.28.46-5.85,1-12.48,1.79-19.17,2.13-17,5.28-29.81,19.38-65.61,8.68-22,25.25-45.61,38.59-60.48,6.45,4.54,14.43,5.76,22.27,5.68,3.08,0,6.37.09,9.12-1.44,5.19-2.89,7.19.48,9.64,4.8,2.82,5,8.47,2.34,12.93,1.05,3.4-1,9.36-3.29,12.4-.43,3.57,3.33-2.26,4.9-4.56,6.39-12.22,7.9,5.5,18.73,12.73,21.63,4.13,1.65,8.88,2.76,11.72-1.6,1.4-2.14,1.62-4.84,1.89-7.3.17-1.55,0-3.78.74-5.2,1.36-2.67,3.83-2.1,5.42,0,4.45,5.88,2.29,15.12,5.16,21.68,1.51,3.46,4.26,3.51,6.92,5.64,2.83,2.26,2.19,6.47,3.73,9.55-15.18,9.35-35.26,25.49-45.86,34l-3.2,2.57c-9,7.21-43.94,45.17-44.27,51.1a2.53,2.53,0,0,0,.73,2,2.69,2.69,0,0,0,2,.88c2.49,0,6.61-2.86,15.41-9.2,6.48-4.67,13.84-10,19.76-12.95,2.36-1.18,4.63-2.42,7-3.72,10.52-5.75,23.61-12.9,55.36-20a163.88,163.88,0,0,1,23.67-3.64c-1,4.89,3.85,12.63,7.44,14.68.89.51,1.92.35,2.74.74s.88-.15,1.75.49c1.44,1.05,1.51,5.48,1.3,6.75-.73,4.48-4.82,8.28-4.2,13a9.18,9.18,0,0,0,4.72,7c1.64.78,3.51.93,5.2,1.59,3.73,1.46,7,4,10.57,5.72,5.54,2.61,10.48,1.75,16.38,1.94,2.74.1,13.12,3.22,9.54,7.19-1.59,1.76-5.38,2.54-7.46,3.45-3,1.31-6,2.78-8.38,5.1-5.74,5.68-3.31,12.61.5,18.69a81.47,81.47,0,0,0,8.62,11.21c2.57,2.86,5.76,4.82,8.53,7.46C492.75,243.37,494.87,245.6,494.26,248.18Z"/>
    <path d="M255.71,162.25c10-1,18.54-15.7,26.79-12.18-.92-.39,9,14.83,9.18,15.24a17.29,17.29,0,0,1-4.05,17.62c-6.93,6.65-25.42,9.6-32.11,5.65-2.72-1.61-16.89-26-18.29-25.42,4.59-2,16.44,2.13,19-1.28"/>
    <path d="M253.55,232.18c.08-4.21,16.76-11.21,20.21-11,7,.51,14.61,10.19,17.75,16.66,1,2.15,13,2.12,3.71,8.2-6.11,4-7.29.51-12.83-.91-3.34-.86-29.1-14.49-29.2-12.81"/>
    <path d="M305.95,94.85c-.1-3.24-7.46-1.05-7.77-5.42-.42-6,22.24,5.79,8.67,5.79"/>
    <path d="M293.77,103.79c.49-1.69,12.83-3.47,12.53-4.28.36,1-3.58,9.31-3.62,12.58-.1,7.37-2,.79.47,7.36.06.16,4,2.52,4.46,3.24,1.68,2.59,3.39,7.68,4.62,10.15-.33-.67,8.16,16.71,6.58,15.49,4.59,3.57,6-16.88,6-16.79-1,1.17,16.55,15.94,1.65,24.16-7.82,4.32-5.85-.84-11.13-1.17-3.87-.24-14.29-.38-18.26-1.45-18.49-5-10.73-17.86-7.16-29.66.88-2.9-4.87-3.2-3.41-7.69.63-1.93,7.48-.18,7.89-1.69,1.1-4.07-1-6.58-.25-10.61"/>
    <path d="M219,244.1c-.74,2.58-10.84-.06-11-1.12s9.77-14,11-14.58c6.67-3.47,12-.65,17.59,2.1,2.45,1.2,3.67,6.53,6.74,8.28,4.55,2.59,11.28,1,16,3,5,2.1,10.74,6.88,14.48,10.58s15.5,7.4,3.32,14c-5.61,3-16.34-1.48-22.8-4.14-8.5-3.49-29.13-10.05-35.51-17.21"/>
    <path d="M281.91,265.79c13.76-7.84,17.19,8.48,14.49,9.25,2.55-.73,9-9.53,12.62-6.56,3.8,3.15-6.42,11.26-8.37,12.21-19.09,9.37-9.61-10.85-18.56-15.44"/>
    <path d="M257.52,204.89c6.42-.63,10.54-11.72,17.79-12.78,5.33-.78,11.14,4.88,12.77,4.48,6.23-1.53,7.28-6.75,12.63-8.05-3.18.77,16.66,3,15.37,2.35,13.67,7.23,2.34,6-5.34,9.35-7.2,3.14-14.5,12.91-20.6,14.51-7.62,2-7.07-.84-14.08-1.73-2.63-.33-22-7.15-18.54-7.94"/>
    <path d="M297.45,165.86c3.67-4.5,11.84-6.1,15.77-2.29,3.34,3.24-7.91,6.05-7.93,6.49,1.26,2.36,5.87,8.73-1.27,5.82-8.15-3.33-2.28-6.35-6.76-10.38"/>
    <path d="M322.93,185.2c5.41.92,15.82-12.13,23.13-12.15,19.26,0,8.39,6.3,4.72,13.25-7.72,14.65-2.86,3.74,3.71,8.66,3.83,2.87,8.66,4.93,10.32,9.83,3.95,11.65-6.5,19.13-16.47,14.22-2.45-1.21-26.64-30.77-25.23-33.45"/>
    <path d="M363.41,184.11c4.84-.41,22.07,1.65,9.67,12.2-8.32,7.08-17.63-3.86-8.77-12.56"/>
    <path d="M349.86,170.38c2.1-10.89,28.45-21.21,32.73-9.28,6.17,17.2-24.75,18.45-32.55,8.92"/>
    <path d="M383.65,179.78c6.41-.29,11.07-8.08,18.83-1.4,5.08,4.37,5.27,12.2-1.52,16.91-11.83,8.22-26.11-3.52-16.41-15.52"/>
    <path d="M373.35,202.36c7.64,1,32,5.62,23.09,19.37-8.38,13-36.88-3-23.27-19.55"/>
    <path d="M291.67,230c2.17-2.25,1.88-9.92,5.84-14.15,6.66-7.13,11.58-6.52,20.35-6.77,18.78-.54,12.29,4.8,18.47,15.82s18.16,3.18,25.09,11.09c9.69,11.06-5.21,8.24-8.47,8.75-5.34.84-7-1.67-14.16,1.19.61-.25-3.55-17.67-13-14.56-10.43,3.44-3.34,11.09-.63,14.84,1.57,2.18,6.67,1.85,8.71,4.17,2.84,3.24,1.75,8.65,4,11.2,1.26,1.45,1.1,5.16,2.55,6.88s5-2,5.41-1.3c.87,1.3,5.49,2.22,6.06,4.79,1.91,8.64-5.54,6.19-11.67,5.76-.6,0-12.13-4.82-11.87-4.53-1.78-2,1.37-7.68,2-7.3-1.6-1-3.17-6.71-7.24-6.62-3.42.08-3,10.35-4.67,10.33-8.48-.12-7-18.06-14.28-12.28-3.89,3.08,5.43-21.17,5.48-20.85-2.27-17.09-12.62.82-18.31-5.72"/>
    <path d="M361.78,225c-.38-2.52,15.14,7.34,15.28,7.68,1.92,4.67-27.67,6.67-15.1-8.22"/>
    <path d="M363.77,250.07c5.83-5.72,9.9,7.37,16.49,6.88,1.47-.11-5-12.23-5-12.67,8.71-8.57,13.89,1.89,16.21,4.81-.61-.77,4,17.8,6.28,13.82-8.24,14.26-28.09-6.21-34.32-12.48"/>
    <path d="M335,133.16c1.18-5.23,17.67-13.74,19.25-8.11,1.53,5.43-18.59,21.92-19.25,7"/>
    <path d="M213.61,182.85c1.94-1.09,7.36,17.91,12,20.12,15.1,7.18,3.56-15.55,12.73-20.62-1-.25,12.62,12.59,11.89,11.23,4.09,7.54,1.81,7.12-.42,10.27-2.64,3.74-6.55-9.23-7.71,5.67-.3,3.88,10,12.93,2.17,16.9-2.92,1.49-14.7-8.34-17.68-9.52-7.8-3.1-6.11,3.53-14.1-6.23-10.39-12.71-9-17.36,1.09-27.63"/>
    <path d="M242.43,141.09c16.72-4.66-1.1-5.4,8.75-16.87-.07.08,7.46,5.32,9.91,1.79,7-10.1-8.24-4.5-8.46-6.72,0,.14,6.71-12.7,7-13.16,3.31-6.11-5.64-6.51,8.16-7.72,3.82-.33,18.57-.06,18.74,5.39-.09-3-19.11,9.89-16.16,9.25,14.32-3.11,4.57,5.94,5.05,12.12.38,4.93,6.47,1.48,3.65,10.85-1,3.41-3.66,5.31-5.76,7.61-8,8.72-11.63,5.66-20.34,6.39-2.94.24-4.9,7.45-9.27,3.89-3.39-2.76-3.59-10.56-.87-13.36"/>
    <path d="M270.35,72.63c-.5,0,18.12,9.8,18.48,11.6.21,1-9.05,6-10.33,6.47-22.06,8.73-16.13-4.89-8.51-17.54"/>
    <path d="M328.53,118.16a39.83,39.83,0,0,1-1.21,5.62c5.37,6.85,20.23-9.73,18-16.59-1.45-4.52-13.92-13.93-18.7-15.56-17.15-5.83-4.15-.72-.57,5.76,3.27,5.93,6.09,14,2.46,21"/>
    <path d="M357.63,121.05c-4.18-.44-8.56-14.85-5.6-17.22-.95.76,22.21,1.45,25,1.7s-18.94,15.75-19.2,16.06"/>
    <path d="M281.37,74.07c-8.15.22-10.32-7.8-2.65-9.75,3-.76,12.7,8.8,14.19,3.62,2.78-9.69-4-11.74,10-6,1.53.62-.4,4.94,1.43,6.11,3.25,2.07,8.71-.75,11.54,1.5,2,1.55,7.32,1.17,8.33,4.13.22.65-23.93,1.62-24.45,1.66-3.91.33-12.06-.7-19-.7"/>
    <path d="M385.81,77.87c13,9.27,3.46,27.65-11.6,20.67-2.74-1.27-8.57-20.12-12.15-9.48-.92,2.75,7.42,13.65,6.42,14.1-1.73.76-17-1.14-18.11-3C348,96.26,358,91,355.28,85.86c-.73-1.41-13.2,6-15.73,5.66-1.77-.25-15.87-8.47-14.63-9.91,2.26-2.64,21,2.74,21,.49.11-8.12-18.84-4.32-15.73-15.89,2.2-8.2,13.45-1.8,18.51.63,6.27,3,11.92,10.77,18.7,12.21,6.47,1.38,14.44-3.75,18.25-1"/>
    <path d="M283,53.29c3.92-1.62,4.44-8.88,8.85-10.66,2.67-1.07,20.53,2.47,24.13,2.93,2.06.26,29.67,4.77,29.7,4.88-.22-.86-19.18,9-18.87,9-12.58,1.53-8.13-5-16.6-8.29-2.9-1.12-25.55,8.16-28.84,5.9a9.41,9.41,0,0,1,2-5"/>
    <path d="M174.22,20.77C184.51,19.26,178,10,182.36,23c1,2.88,2.31,16,.13,18.41-14.65,16.45-5.84-21.79-5.93-22.24"/>
    <path d="M186.51,45.16c2.07,0,24.29-1.32,24.55-.37,2.91,10.76-21.14,4-25.27.73"/>
    <path d="M213.25,56.54c.6,4-1.71,21.35-8.46,13-8.15-10.1,7.62-11.75,8.1-12.64"/>
    <path d="M110.34,103c-.26,12,15.11-2,21-1.61,26.39,1.79-9.06,14.6-6.79,22.77,2.41,8.65,11.07-13.85,12.86,1.39,1.13,9.61-4.23,12.51-12,10-10.62-3.41-15.21-23.1-15.9-33.09"/>
    <path d="M124,95.75c6.82-6.63,14.18-9.62,20.69-12.69,5.41-2.56,5.61.6,11.3-5.28,9-9.27,10.9-42.56,18.78-18.54,4.7,14.35-1.11,24.25-12.14,33.35-14,11.52-22.39,3.72-39.17,3.72"/>
    <path d="M180.54,63.59c4.21-1.14,13.71-13.89,18.37-1.25,6.3,17.09-20.79,13.83-18.55.71"/>
    <path d="M192.65,84c12.75-.38,15.76-13.47,17,8.12.59,10.4-2.15,24.8-15.11,18.29-1-.49-5.7-8.14-5.93-8.75-3.77-9.94-4.26-5.1,4.17-7.89,5.37-1.77,7.84,9.62,11,2.34s-7.28-8.84-10.34-11.93"/>
    <path d="M207.29,115.09c0,1.21,1.11,31.54-.49,31.42-10.64-.84-10-18.81-24.25-10.77-11.23,6.32-1.58,17.59-22,14.76-13.12-1.82-17.92-4.42-19.07-16.62-.12-1.33,1.83-22,3.46-23.44,10.46-9.29,11.93,5.81,18.24,9.2,18,9.7-.33-8.14,4.15-16.18,10.11-18.17,17.4,5.23,19.12,9.64,2.9,7.39-7.39,7.61,4,10,4.11.86,14.4-5.71,16.75-8.38"/>
    <path d="M132.84,151c1,0,21.05-.66,11.78,7.07-7.2,6-6.8-2.88-11.6-6.89"/>
    <path d="M146.75,166.41c4.29-4.28,5-10.2,12.44-9.45,11.27,1.14,2.11,3.94,7.62,7.44,1.85,1.17-2.17,7.16,1.48,8.17,3.46,1,12.59-12.11,10.62-12.64,17.61,4.69-3.49,28.81-13.85,26.93-4-.73-18.5-16.89-18.5-21.54"/>
    <path d="M183.25,149.24c0-16.49,26.9,3.52,29.65,12,10.17,31.42-29.65,1-29.65-12.38"/>
    <path d="M172.05,195c-1-4.24,13.55-15.5,17.05-15.46,18.23.2-1.51,14.48-1.52,14.41.43,5.49,10.34,6.15,14.27,11.15-.21-.26,4.91,16.83,5.76,14.9-4.1,9.33-6.88,1.12-12,5.28-5.64,4.61-8.18,17.88-15.06,22.72-13.48,9.48-4.29-2.49-16.09-.74-13.52,2-.51,8.25-8.17,11.74,2.46-1.12-9.7-5.1-11.71-4.81-3.24.47-13.6,10.13-17.34,12-4.17,2.1-8.18,16.06-10.68,1.59.11.61,10.6-24.07,6.71-24,4.63-.08,12.64,6.66,9.88-8.39-1-5.51-12.65-7.39-13.15-12.41-.43-4.35,12.26-16.36,14.43-17.47,6.8-3.47,5.88-4.09,13.1-2.17,9.07,2.41,23.22,23.3,35.87,14.6,15.19-10.45-6.85-16.85-10.85-22.59"/>
    <path d="M28.76,169.66c-.38-1.65-5.11-10-4.32-10.67,5.16-4.33,42-3.57,26.08,10.34-4.31,3.78-19.79,1.06-22.67.88"/>
    <path d="M70.86,145.26c.3,11.71,29.95,14.37,24.85,29.7-7,21.12-18.51-21.45-25.92-7.44-3.81,7.2,8.66,16.16-4.79,21.09-9.67,3.54-7.4-2-7.51-8-.18-10.08,7.74-28.54,13.55-35.33"/>
    <path d="M102.12,171.65c-.06,2,16.1,15.77,17.89,17.93,7.43,9,11,6.14,3.79,17.79-2.16,3.47-7.59,4.32-9.92,8.46-1.71,3,.7,11.44-1.27,13.42-10.14,10.22-10.17-7.27-12.78-12.89-7.81-16.84-8.54-7-13.78,1.5-5,8.19-7.6,12.82-19.42,8.3-2.14-.82-4.08-8-6.61-10C54.81,212,48.6,222,48.12,209.62c-.78-20.14,11.41-.85,12.85-.73,2.62.22,2.87-13.1,3.93-14,6-5.42,8.26,3.31,10.69,2.33,5.79-2.32.6-10.65,11.1-10,5.14.33,5.78,12,12.33,11.42,7.81-.73-.81-4.74-.15-10.19.68-5.63,3.45-11.45,3.44-17.14"/>
    <path d="M95.26,246.63c1.66-.52,4.35-8.32,6.35-7.36.53.26,6.37,8.68,7.19,4.34.3-1.57-2.36-5.17-4-5.64,6.93,2,17.26-8.4,12.3,7.77-4.11,13.4-19.71,12.45-21.68-.91"/>
    <path d="M98.51,263.26c-1.1-8.29,10.57-3.3,12.58.23,2.81,4.94-.76,11.46-8.05,7-2.52-1.54-2.6-5.53-4.53-7.41"/>
    <path d="M97.06,274.82c.81,0,9,2.41,9,.93.21,8.28-29,9.58-32.7,9.95-16.93,1.72-16.58,1.45-17.13-15.51-.68-21.26-12.77-52.24,17.54-33.32,9.41,5.87,26.58,33.83,10.15,30.4-8.67-1.81-20.93-15.36-11.22.51,7.45,12.18,13.08,7.39,24.37,7.39"/>
    <path d="M184.88,251.15c5.22.2,6.05-9.22,13.67-8.64,4,.3,17.27,9.81,21.51,12.25,8.24,4.74,23.17,11.57,17.44,17.38-2,2-19,5.29-23.89,7-7.95,2.76-18.08,5.48-25.83-.18-2.91-2.12-8.73-11.72-5.61-15.91,3.56-4.78,12.25,2.37,17.52-1.7,11.16-8.6-13.32-6.48-14.63-10.19"/>
    <path d="M386.73,150c16.61-6.93,28.21-9.29,13.71,6.12-4,4.3-5.22,16.54-13.27,3.27C385.37,156.39,382.14,151.88,386.73,150Z"/>
    <path d="M395.93,236.7c0-.47,17.32-15.74,17.36-15.71,7.54,4.09,7.19,23.24,1.43,28.28-6.93,6.06-18.79-4.08-18.61-13.29"/>
    <path d="M412.56,154.12c5.49-1.51,3.06-21.63,15.44-10.76,3.39,3-1.44,18.6-2.24,25.14-.47,3.87,2.59,17.64-5.23,19.21-1.11.22-19.7-14.63-19.86-15,2-3.71,7.8-18.66,11.89-18.62"/>
    <path d="M430.45,155.38c9.58-8.26,9,19.74,9.58,21.87,2.34,9.36,12.48,22.25,9.32,31.25.2-.56-17.18,4.22-8.84,7.56,9.94,4,5.75-4.8,12.44-5.3,17-1.26,7.91,10.52,9.53,22.22.73,5.26,8.77-7.43,4.83,4.86.41-1.28-9.92,9.19-9.16,8.44-2.94,2.89-1.11,7.57-6,9.15-11.63,3.79-6.52-7.23-4.52-11.08,2.29-4.42,9.58-1,9.15-9-.22-4.18-6.21-.85-7.09-2.06-19-26.3,2.13,17.65-19.06,7.44-13.46-6.49.58-32.08-12.36-33.94-3.32-.48-10.35,21.47-16.61,8.2-4.62-9.79,9.56-14.36,15.1-16.76,13.14-5.7,15.63-2.71,16-19.7.16-6.74-2-15.14-2-22.77"/>
    <path d="M411.47,274.46c-2.61.26-4.19-15.26-4.62-15.2,4.07-.58,5.21,2.88,8.88.07,2.38-1.83,2.69-8.07,6.07-8.91,10.88-2.69,7.25,1.75,12.12,6.33.57.53-2.45,5.1-.76,7.28,1.88,2.42,6.52-.23,8.29,1.58,5.42,5.53,15.37,8.2,10.21,17.8-1.44,2.68-8.19,1.17-9.75,3.53-7.35,11.13-6.25,1.51-1.76,9.68.07.13,6.43-4.11,6.82-3.82,4,3,.3,6.37,3.34,9.57,15.77,16.6,5.33,21.68-12.62,8.73-6.32-4.56-15.83-11.73-19.2-18.88-1.82-3.86,6.6-18-8.3-17.94"/>
    <path d="M309.38,290.18c-5.52-.55-2.76-5.87-1.11-7.53,2.67-2.67,10.86.8,14.07.87,10.28.22,21,.23,30.67,1.47,6.27.81,24.37,2.17,14.6,16.76-10.28,15.35-18.93-6.7-27.26-5.6-13.61,1.8,8.83,14.85,11,17.3.61.68,7.15,13.23,6.81,12,1.89,7.14,5.76.94-3,10.31-1.27,1.36-7,1.18-9.28,2.76s-1.15,6-3.41,7.13c-4.06,2.09-11.78,6.35-16.09,1.79-2.15-2.28-.09-27.46-.43-33.72-.45-8.32,6-13.08-1.44-21.13-6-6.46-5.76,5.69-4.13,5.54-1.72.15-3.21,2.88-6.86.18-.94-.69,2.75-9.41-5.09-9.54"/>
    <path d="M373,296.15c-.1,15.1-20.62,14.07-8.68,22.56,3.53,2.51,9.61-16.9,10.54.39.32,5.89-8.31,9-5.44,15.94,2.17,5.25,18.29,8.68,22.27,4.46,4.21-4.47-2-15.64-4.18-19.84-.32-.6-14.82-22.67-13.78-22.79"/>
    <path d="M393.95,344.75c11.36-1.61,18,29.63,4.16,35.06-5.85,2.3-19.45-3.12-21.88-8.15-7.43-15.41,11.33-20.84,17.9-27.46"/>
    <path d="M349,347.28c10.1-4.82,8.86-15.14,18.59-5.05,6,6.21,6.14,22.53,2.9,29.8-5.62,12.63-26.93,10.37-28.52,18.8-1.63,8.61,7.71,1.51,10,3.84,6.65,6.91,3.48,5.86,5.27,13.78,2.75,12.11,4.9,16.18-8,6.58,4.2,3.14-11.35-14.39-7.75-8.13-2.52-4.38-2.59-4.46-3.65-11.62-.84-5.66-5.32-4.22-3.23-11.43.84-2.91,16.53-6.21,10.23-13.13-5-5.46-13,10.79-16.45,11.26-8.25,1.11-22-15.49-14.39-22.28,2.09-1.86,13.94-1.19,16.29-1.4,9.86-.88,11.59-9.74,9.13,4.2.52-3,9.4-9,10.29-16.12"/>
    <path d="M365,393.36c-3.46-17,33.54-14.24,30.76-1.36-1.85,8.59-31.17,19.15-30.94.63"/>
    <path d="M292.21,434.56c4-.07,5.68-16,10.63-17.35,9.79-2.62,9.29,25.31,4.63,29.8-3.34,3.22-11.82,6.59-16.26,2.22-5.32-5.23,2.45-9.8,1.54-15.4"/>
    <path d="M268.36,454.43c9.61-.14,7.73-3,12.11-13.38,1.92-4.55,1.21-8.66,4-13.22,2-3.34,8.49-3.31,9.89-7.65,2.25-7-4.39-4.94-3.46-14.88-.1,1.12,9.91-21.47,6.05-19.95,3.23-1.27,3.3,6.06,4.25,6.82.09.07,1.43,8,1.92,8.77,1.57,2.34,8.78-1.39,11.13,1.62.59.76-3.84,6.76-2.54,9.59a57.93,57.93,0,0,0,8.45,13.56c2,2.35,6.15,10,9.36,10.11,6,.22,12.78-9.67,11-15.19-4.12-12.94-11.49,5.94-17.82-2.37-3.26-4.27.94-19.87-3.54-27.4-2-3.43-3.17-6.27-6.59-8.76-2.55-1.86-13.06-2.44-13.18-2.61-1.56-2.17,8.63-19.23-5.1-6.37-6.07,5.68-6.83,16.59-8.42,24.29-3.43,16.66-6.35,43.55-17.55,57"/>
    <path d="M292.94,355.41c.17-1,2.32-8.87,4.07-8.06,1.32.6.6,7.54,2.52,7.52-3.18,0,21.66-44.08,7.67-6.86-1.61,4.28-4.17,16.17-9.76,16.93-5.85.8-8.19-7.45-4-11.7"/>
    <path d="M301.61,326.68c-15.61-12.91,13-33,18-15,3.17,11.4-11.87,14.74-18.57,14.6"/>
    <path d="M292.21,333.19c-2.5,2.5,7.66,12.18,4.52-8.16-1.24-8-3.71-14.38-4-22.63-.18-5.33,5.55-3.77,2.91-10.41-1.23-3.09-13.34-10.58-16.7-12.71-5.65-3.59-16.7-11.28-23.38-9.47-20.7,5.62,10.5,25.91,19.56,28.86,9.57,3.11,11-5.49,15.27,9,2.07,7.06,1.35,18.55,1.44,25.66"/>
    <path d="M174.58,279.52c6.74,1.09,20.64,11.43,4.48,12.65-5.41.41-11.94-8.5-5.2-12.11"/>
    <path d="M160.49,287.83c3.91-4.88,7.8-14.79,13.74-17.66,1,.43-10,17.63-7.4,22.58,5.49,10.65,13.87,3.33,21.71,1.55,9.82-2.23,4-10.6,11.53,1.13.8,1.26,2.46,26.22,8.67,21.14,6.88-5.62-5.47-18.39-3.85-23.81,2.4-8,18.49-13.61,26.05-13.79,22.89-.52,13.74,17.35,5.1,30.14-3.08,4.56-6.29,12.45-7.29,13.75-5.37,7-3.18,8.91-14.09,6.33-7.48-1.77-11.46-6.43-18.68-6.32-1.07,0-1,5.42-2.82,5.81-4.89,1-11.26-.55-15.79.14,2.79-.43-9.51-10.56-10.37-11-4.57,1.34,17.69,19.62,15,21.27-7.65,4.71-9.79-3.58-13.63-5.07-1.21-.47-1.85-5.29-4.41-6.38-3.48-1.48-2.11,7.74-3.69,7.32-20.46-5.35,14.64-15.54-9-18-2-2.3,11.72-15.92,7.86-17.61-5.16-2.26-9.77,10.06-15.45,9.54-6.83-.62,3.8,15.13,3.95,14.53-1.56,6.29-2.13,2.67-6.75,5.08-18.73,9.77-11.14-16.93-10.08-16.58,1.65.54,4.73,7.31,5.46,8.47-10.21-2.23,22.3-30,24.39-32.41"/>
    <path d="M274.69,307.53c3.66,12.87-21.87,73.56-36.76,63.38-7.42-5.08-8.24-48.11,3.08-50.15,13.87-2.51,10.76,19.06,16.5,22.31,3.66,2.08,5.29-15.68,3.89-18.77-2.52-5.54-11.56-6.78-13-11.65-6.29-22,26.12-12.7,26.06-3.85"/>
    <path d="M81,346.2c4.55,5.2-5.46,14.59,4.7,14.09,5.7-.28,5.17-13,8.49-15.73,1.55-1.29,4.32,14.74,12.83,1.32,4.24-1,28.84,22.21,26.56-3.16-1.26-14-6.49-2.5-10.16-6.05-4.21-4.08-3.06-3.41-5.72-11.48,0,0-32.64,18.48-36.52,21.56"/>
    <path d="M168.08,351.44c0-15.07,31.47-2.87,30.73-1.89,5.22-6.92-1.84-11.19-5.8-14.89-.05-7.32,26.2,1.73,27.47,3.05,5.25,5.46,4.56,15.25,5.71,22,1.37,8,5.37,4.63,2.8,13.33-.81,2.73-11.35,11.84-13,12.29-2.2.62-6.17-5.71-8.31-5.84-1.19-.07-4.64,5.5-5.08,5.26-4.54-2.41-1.46-6.1-5.76-9.61-5.18-4.22-9.71-4.57-15.09-9.65-5-4.75-8.44-10.72-13.88-15.65"/>
    <path d="M225.72,383.24c.72-.79,19.87-8.46,20.25-8.3,3.39,1.42-21.28,46.24-24.77,49-8.34,6.59-10.76,5.5-8.07-3.09,1.42-4.53,19.66-15.64,4-16.65-2.55-.17,8.48-19.76,9.33-20.6"/>
    <path d="M73.75,366.44c5.29,9.87,28.6-8.08,35.38-7.82,4.91.18,14.39,4.47,17.3,8.37,6.65,8.95,4.39,4.73-2.19,7.76-2.75,1.27-12.55-.57-15.94,0,0,0-2.82,4.41-5.71,4.74-3.59.41-8.26-.37-11.73-.54-4.84-.24-22.94-.66-17.1-12.66"/>
    <path d="M112.78,384.32c-1.32,6.82,10.95,15.76,14.82,11.31,9.51-11-10-13.09-15.72-11.31"/>
    <path d="M122.54,401.85c15.31,8.83,6.26-2.69,14.59-8.44,10.7-7.39,2.34,8.33-.29,13.31-2.91,5.51-2.07,12.54-8.63,10.8-5.21-1.38-6.61-10.26-6.57-15.13"/>
    <path d="M146.75,403.48c3.28,0,16.73,2.42,19.21,5s-3.14,5-1.77,7.36c1.59,2.71,9.23,12,8.89,14.1-6.28-1.88-10.32-7.74-15.27-11.11-9.3-6.33-10.82-6.32-10.88-15"/>
    <path d="M132.3,365.89c-10.46-10.9,9.06-20.24,17.57-19.44-3.19-.3,12.47,9.7,10.34,7.54,1.8,1.83,11.66,1.89,8.5,8.55-2.4,5.07-9-3.53-11.59.06-4.31,6,5.68,3.23,1.58,9.21-2.18,3.17-9.88,2.75-11.38,6.55-1.62,4.11,6.9,9.3,5.64,11.63.49-.91-17.64-7.51-18.21-8.35-1.62-2.39,6.23-13.12-2.28-16.28"/>
    <path d="M166.63,371c3.15.69,22.5,2.75,21.18,10.87-1.4,8.62-9.43,5.3-14.42,10.4-3.42,3.5-.12,10.34-4.93,12.06.71-.25-16.07-6.73-15.94-6.39-1.56-4.23,6.35-3.84,7-7.79,1-6.52-4.3-5.62-1-11.53,1.79-3.22,6.2-5.21,8.89-7.63"/>
    <path d="M187.59,395.17c2.5-16.84,18.93,3.9,15,5.42,2.67-1,5.45-11.7,7.21-11.53,5.31.49.66,43.19-16.1,41.79-1-.08-19.33-9.42-20-10.44-7.4-10.87,6.74-18.92,13.77-25.23"/>
  </g>
  <g id="p1">
    <path d="M255.71,162.25c10-1,18.54-15.7,26.79-12.18-.92-.39,9,14.83,9.18,15.24a17.29,17.29,0,0,1-4.05,17.62c-6.93,6.65-25.42,9.6-32.11,5.65-2.72-1.61-16.89-26-18.29-25.42,4.59-2,16.44,2.13,19-1.28" style="fill: #fb5b4e"/>
    <path d="M253.55,232.18c.08-4.21,16.76-11.21,20.21-11,7,.51,14.61,10.19,17.75,16.66,1,2.15,13,2.12,3.71,8.2-6.11,4-7.29.51-12.83-.91-3.34-.86-29.1-14.49-29.2-12.81" style="fill: #fb5b4e"/>
    <path d="M305.95,94.85c-.1-3.24-7.46-1.05-7.77-5.42-.42-6,22.24,5.79,8.67,5.79" style="fill: #fb5b4e"/>
    <path d="M293.77,103.79c.49-1.69,12.83-3.47,12.53-4.28.36,1-3.58,9.31-3.62,12.58-.1,7.37-2,.79.47,7.36.06.16,4,2.52,4.46,3.24,1.68,2.59,3.39,7.68,4.62,10.15-.33-.67,8.16,16.71,6.58,15.49,4.59,3.57,6-16.88,6-16.79-1,1.17,16.55,15.94,1.65,24.16-7.82,4.32-5.85-.84-11.13-1.17-3.87-.24-14.29-.38-18.26-1.45-18.49-5-10.73-17.86-7.16-29.66.88-2.9-4.87-3.2-3.41-7.69.63-1.93,7.48-.18,7.89-1.69,1.1-4.07-1-6.58-.25-10.61" style="fill: #fb5b4e"/>
    <path d="M219,244.1c-.74,2.58-10.84-.06-11-1.12s9.77-14,11-14.58c6.67-3.47,12-.65,17.59,2.1,2.45,1.2,3.67,6.53,6.74,8.28,4.55,2.59,11.28,1,16,3,5,2.1,10.74,6.88,14.48,10.58s15.5,7.4,3.32,14c-5.61,3-16.34-1.48-22.8-4.14-8.5-3.49-29.13-10.05-35.51-17.21" style="fill: #fb5b4e"/>
    <path d="M281.91,265.79c13.76-7.84,17.19,8.48,14.49,9.25,2.55-.73,9-9.53,12.62-6.56,3.8,3.15-6.42,11.26-8.37,12.21-19.09,9.37-9.61-10.85-18.56-15.44" style="fill: #fb5b4e"/>
    <path d="M257.52,204.89c6.42-.63,10.54-11.72,17.79-12.78,5.33-.78,11.14,4.88,12.77,4.48,6.23-1.53,7.28-6.75,12.63-8.05-3.18.77,16.66,3,15.37,2.35,13.67,7.23,2.34,6-5.34,9.35-7.2,3.14-14.5,12.91-20.6,14.51-7.62,2-7.07-.84-14.08-1.73-2.63-.33-22-7.15-18.54-7.94" style="fill: #fb5b4e"/>
    <path d="M297.45,165.86c3.67-4.5,11.84-6.1,15.77-2.29,3.34,3.24-7.91,6.05-7.93,6.49,1.26,2.36,5.87,8.73-1.27,5.82-8.15-3.33-2.28-6.35-6.76-10.38" style="fill: #fb5b4e"/>
    <path d="M322.93,185.2c5.41.92,15.82-12.13,23.13-12.15,19.26,0,8.39,6.3,4.72,13.25-7.72,14.65-2.86,3.74,3.71,8.66,3.83,2.87,8.66,4.93,10.32,9.83,3.95,11.65-6.5,19.13-16.47,14.22-2.45-1.21-26.64-30.77-25.23-33.45" style="fill: #fb5b4e"/>
    <path d="M363.41,184.11c4.84-.41,22.07,1.65,9.67,12.2-8.32,7.08-17.63-3.86-8.77-12.56" style="fill: #fb5b4e"/>
    <path d="M349.86,170.38c2.1-10.89,28.45-21.21,32.73-9.28,6.17,17.2-24.75,18.45-32.55,8.92" style="fill: #fb5b4e"/>
    <path d="M383.65,179.78c6.41-.29,11.07-8.08,18.83-1.4,5.08,4.37,5.27,12.2-1.52,16.91-11.83,8.22-26.11-3.52-16.41-15.52" style="fill: #fb5b4e"/>
    <path d="M373.35,202.36c7.64,1,32,5.62,23.09,19.37-8.38,13-36.88-3-23.27-19.55" style="fill: #fb5b4e"/>
    <path d="M291.67,230c2.17-2.25,1.88-9.92,5.84-14.15,6.66-7.13,11.58-6.52,20.35-6.77,18.78-.54,12.29,4.8,18.47,15.82s18.16,3.18,25.09,11.09c9.69,11.06-5.21,8.24-8.47,8.75-5.34.84-7-1.67-14.16,1.19.61-.25-3.55-17.67-13-14.56-10.43,3.44-3.34,11.09-.63,14.84,1.57,2.18,6.67,1.85,8.71,4.17,2.84,3.24,1.75,8.65,4,11.2,1.26,1.45,1.1,5.16,2.55,6.88s5-2,5.41-1.3c.87,1.3,5.49,2.22,6.06,4.79,1.91,8.64-5.54,6.19-11.67,5.76-.6,0-12.13-4.82-11.87-4.53-1.78-2,1.37-7.68,2-7.3-1.6-1-3.17-6.71-7.24-6.62-3.42.08-3,10.35-4.67,10.33-8.48-.12-7-18.06-14.28-12.28-3.89,3.08,5.43-21.17,5.48-20.85-2.27-17.09-12.62.82-18.31-5.72" style="fill: #fb5b4e"/>
    <path d="M361.78,225c-.38-2.52,15.14,7.34,15.28,7.68,1.92,4.67-27.67,6.67-15.1-8.22" style="fill: #fb5b4e"/>
    <path d="M363.77,250.07c5.83-5.72,9.9,7.37,16.49,6.88,1.47-.11-5-12.23-5-12.67,8.71-8.57,13.89,1.89,16.21,4.81-.61-.77,4,17.8,6.28,13.82-8.24,14.26-28.09-6.21-34.32-12.48" style="fill: #fb5b4e"/>
    <path d="M335,133.16c1.18-5.23,17.67-13.74,19.25-8.11,1.53,5.43-18.59,21.92-19.25,7" style="fill: #fb5b4e"/>
    <path d="M213.61,182.85c1.94-1.09,7.36,17.91,12,20.12,15.1,7.18,3.56-15.55,12.73-20.62-1-.25,12.62,12.59,11.89,11.23,4.09,7.54,1.81,7.12-.42,10.27-2.64,3.74-6.55-9.23-7.71,5.67-.3,3.88,10,12.93,2.17,16.9-2.92,1.49-14.7-8.34-17.68-9.52-7.8-3.1-6.11,3.53-14.1-6.23-10.39-12.71-9-17.36,1.09-27.63" style="fill: #fb5b4e"/>
    <path d="M242.43,141.09c16.72-4.66-1.1-5.4,8.75-16.87-.07.08,7.46,5.32,9.91,1.79,7-10.1-8.24-4.5-8.46-6.72,0,.14,6.71-12.7,7-13.16,3.31-6.11-5.64-6.51,8.16-7.72,3.82-.33,18.57-.06,18.74,5.39-.09-3-19.11,9.89-16.16,9.25,14.32-3.11,4.57,5.94,5.05,12.12.38,4.93,6.47,1.48,3.65,10.85-1,3.41-3.66,5.31-5.76,7.61-8,8.72-11.63,5.66-20.34,6.39-2.94.24-4.9,7.45-9.27,3.89-3.39-2.76-3.59-10.56-.87-13.36" style="fill: #fb5b4e"/>
    <path d="M270.35,72.63c-.5,0,18.12,9.8,18.48,11.6.21,1-9.05,6-10.33,6.47-22.06,8.73-16.13-4.89-8.51-17.54" style="fill: #fb5b4e"/>
    <path d="M328.53,118.16a39.83,39.83,0,0,1-1.21,5.62c5.37,6.85,20.23-9.73,18-16.59-1.45-4.52-13.92-13.93-18.7-15.56-17.15-5.83-4.15-.72-.57,5.76,3.27,5.93,6.09,14,2.46,21" style="fill: #fb5b4e"/>
    <path d="M357.63,121.05c-4.18-.44-8.56-14.85-5.6-17.22-.95.76,22.21,1.45,25,1.7s-18.94,15.75-19.2,16.06" style="fill: #fb5b4e"/>
    <path d="M281.37,74.07c-8.15.22-10.32-7.8-2.65-9.75,3-.76,12.7,8.8,14.19,3.62,2.78-9.69-4-11.74,10-6,1.53.62-.4,4.94,1.43,6.11,3.25,2.07,8.71-.75,11.54,1.5,2,1.55,7.32,1.17,8.33,4.13.22.65-23.93,1.62-24.45,1.66-3.91.33-12.06-.7-19-.7" style="fill: #fb5b4e"/>
    <path d="M385.81,77.87c13,9.27,3.46,27.65-11.6,20.67-2.74-1.27-8.57-20.12-12.15-9.48-.92,2.75,7.42,13.65,6.42,14.1-1.73.76-17-1.14-18.11-3C348,96.26,358,91,355.28,85.86c-.73-1.41-13.2,6-15.73,5.66-1.77-.25-15.87-8.47-14.63-9.91,2.26-2.64,21,2.74,21,.49.11-8.12-18.84-4.32-15.73-15.89,2.2-8.2,13.45-1.8,18.51.63,6.27,3,11.92,10.77,18.7,12.21,6.47,1.38,14.44-3.75,18.25-1" style="fill: #fb5b4e"/>
    <path d="M283,53.29c3.92-1.62,4.44-8.88,8.85-10.66,2.67-1.07,20.53,2.47,24.13,2.93,2.06.26,29.67,4.77,29.7,4.88-.22-.86-19.18,9-18.87,9-12.58,1.53-8.13-5-16.6-8.29-2.9-1.12-25.55,8.16-28.84,5.9a9.41,9.41,0,0,1,2-5" style="fill: #fb5b4e"/>
    <path d="M174.22,20.77C184.51,19.26,178,10,182.36,23c1,2.88,2.31,16,.13,18.41-14.65,16.45-5.84-21.79-5.93-22.24" style="fill: #fb5b4e"/>
    <path d="M186.51,45.16c2.07,0,24.29-1.32,24.55-.37,2.91,10.76-21.14,4-25.27.73" style="fill: #fb5b4e"/>
    <path d="M213.25,56.54c.6,4-1.71,21.35-8.46,13-8.15-10.1,7.62-11.75,8.1-12.64" style="fill: #fb5b4e"/>
    <path d="M110.34,103c-.26,12,15.11-2,21-1.61,26.39,1.79-9.06,14.6-6.79,22.77,2.41,8.65,11.07-13.85,12.86,1.39,1.13,9.61-4.23,12.51-12,10-10.62-3.41-15.21-23.1-15.9-33.09" style="fill: #fb5b4e"/>
    <path d="M124,95.75c6.82-6.63,14.18-9.62,20.69-12.69,5.41-2.56,5.61.6,11.3-5.28,9-9.27,10.9-42.56,18.78-18.54,4.7,14.35-1.11,24.25-12.14,33.35-14,11.52-22.39,3.72-39.17,3.72" style="fill: #fb5b4e"/>
    <path d="M180.54,63.59c4.21-1.14,13.71-13.89,18.37-1.25,6.3,17.09-20.79,13.83-18.55.71" style="fill: #fb5b4e"/>
    <path d="M192.65,84c12.75-.38,15.76-13.47,17,8.12.59,10.4-2.15,24.8-15.11,18.29-1-.49-5.7-8.14-5.93-8.75-3.77-9.94-4.26-5.1,4.17-7.89,5.37-1.77,7.84,9.62,11,2.34s-7.28-8.84-10.34-11.93" style="fill: #fb5b4e"/>
    <path d="M207.29,115.09c0,1.21,1.11,31.54-.49,31.42-10.64-.84-10-18.81-24.25-10.77-11.23,6.32-1.58,17.59-22,14.76-13.12-1.82-17.92-4.42-19.07-16.62-.12-1.33,1.83-22,3.46-23.44,10.46-9.29,11.93,5.81,18.24,9.2,18,9.7-.33-8.14,4.15-16.18,10.11-18.17,17.4,5.23,19.12,9.64,2.9,7.39-7.39,7.61,4,10,4.11.86,14.4-5.71,16.75-8.38" style="fill: #fb5b4e"/>
    <path d="M132.84,151c1,0,21.05-.66,11.78,7.07-7.2,6-6.8-2.88-11.6-6.89" style="fill: #fb5b4e"/>
    <path d="M146.75,166.41c4.29-4.28,5-10.2,12.44-9.45,11.27,1.14,2.11,3.94,7.62,7.44,1.85,1.17-2.17,7.16,1.48,8.17,3.46,1,12.59-12.11,10.62-12.64,17.61,4.69-3.49,28.81-13.85,26.93-4-.73-18.5-16.89-18.5-21.54" style="fill: #fb5b4e"/>
    <path d="M183.25,149.24c0-16.49,26.9,3.52,29.65,12,10.17,31.42-29.65,1-29.65-12.38" style="fill: #fb5b4e"/>
    <path d="M172.05,195c-1-4.24,13.55-15.5,17.05-15.46,18.23.2-1.51,14.48-1.52,14.41.43,5.49,10.34,6.15,14.27,11.15-.21-.26,4.91,16.83,5.76,14.9-4.1,9.33-6.88,1.12-12,5.28-5.64,4.61-8.18,17.88-15.06,22.72-13.48,9.48-4.29-2.49-16.09-.74-13.52,2-.51,8.25-8.17,11.74,2.46-1.12-9.7-5.1-11.71-4.81-3.24.47-13.6,10.13-17.34,12-4.17,2.1-8.18,16.06-10.68,1.59.11.61,10.6-24.07,6.71-24,4.63-.08,12.64,6.66,9.88-8.39-1-5.51-12.65-7.39-13.15-12.41-.43-4.35,12.26-16.36,14.43-17.47,6.8-3.47,5.88-4.09,13.1-2.17,9.07,2.41,23.22,23.3,35.87,14.6,15.19-10.45-6.85-16.85-10.85-22.59" style="fill: #fb5b4e"/>
    <path d="M28.76,169.66c-.38-1.65-5.11-10-4.32-10.67,5.16-4.33,42-3.57,26.08,10.34-4.31,3.78-19.79,1.06-22.67.88" style="fill: #fb5b4e"/>
    <path d="M70.86,145.26c.3,11.71,29.95,14.37,24.85,29.7-7,21.12-18.51-21.45-25.92-7.44-3.81,7.2,8.66,16.16-4.79,21.09-9.67,3.54-7.4-2-7.51-8-.18-10.08,7.74-28.54,13.55-35.33" style="fill: #fb5b4e"/>
    <path d="M102.12,171.65c-.06,2,16.1,15.77,17.89,17.93,7.43,9,11,6.14,3.79,17.79-2.16,3.47-7.59,4.32-9.92,8.46-1.71,3,.7,11.44-1.27,13.42-10.14,10.22-10.17-7.27-12.78-12.89-7.81-16.84-8.54-7-13.78,1.5-5,8.19-7.6,12.82-19.42,8.3-2.14-.82-4.08-8-6.61-10C54.81,212,48.6,222,48.12,209.62c-.78-20.14,11.41-.85,12.85-.73,2.62.22,2.87-13.1,3.93-14,6-5.42,8.26,3.31,10.69,2.33,5.79-2.32.6-10.65,11.1-10,5.14.33,5.78,12,12.33,11.42,7.81-.73-.81-4.74-.15-10.19.68-5.63,3.45-11.45,3.44-17.14" style="fill: #fb5b4e"/>
    <path d="M95.26,246.63c1.66-.52,4.35-8.32,6.35-7.36.53.26,6.37,8.68,7.19,4.34.3-1.57-2.36-5.17-4-5.64,6.93,2,17.26-8.4,12.3,7.77-4.11,13.4-19.71,12.45-21.68-.91" style="fill: #fb5b4e"/>
    <path d="M98.51,263.26c-1.1-8.29,10.57-3.3,12.58.23,2.81,4.94-.76,11.46-8.05,7-2.52-1.54-2.6-5.53-4.53-7.41" style="fill: #fb5b4e"/>
    <path d="M97.06,274.82c.81,0,9,2.41,9,.93.21,8.28-29,9.58-32.7,9.95-16.93,1.72-16.58,1.45-17.13-15.51-.68-21.26-12.77-52.24,17.54-33.32,9.41,5.87,26.58,33.83,10.15,30.4-8.67-1.81-20.93-15.36-11.22.51,7.45,12.18,13.08,7.39,24.37,7.39" style="fill: #fb5b4e"/>
    <path d="M184.88,251.15c5.22.2,6.05-9.22,13.67-8.64,4,.3,17.27,9.81,21.51,12.25,8.24,4.74,23.17,11.57,17.44,17.38-2,2-19,5.29-23.89,7-7.95,2.76-18.08,5.48-25.83-.18-2.91-2.12-8.73-11.72-5.61-15.91,3.56-4.78,12.25,2.37,17.52-1.7,11.16-8.6-13.32-6.48-14.63-10.19" style="fill: #fb5b4e"/>
    <path d="M386.73,150c16.61-6.93,28.21-9.29,13.71,6.12-4,4.3-5.22,16.54-13.27,3.27C385.37,156.39,382.14,151.88,386.73,150Z" style="fill: #fb5b4e"/>
    <path d="M395.93,236.7c0-.47,17.32-15.74,17.36-15.71,7.54,4.09,7.19,23.24,1.43,28.28-6.93,6.06-18.79-4.08-18.61-13.29" style="fill: #fb5b4e"/>
    <path d="M412.56,154.12c5.49-1.51,3.06-21.63,15.44-10.76,3.39,3-1.44,18.6-2.24,25.14-.47,3.87,2.59,17.64-5.23,19.21-1.11.22-19.7-14.63-19.86-15,2-3.71,7.8-18.66,11.89-18.62" style="fill: #fb5b4e"/>
    <path d="M430.45,155.38c9.58-8.26,9,19.74,9.58,21.87,2.34,9.36,12.48,22.25,9.32,31.25.2-.56-17.18,4.22-8.84,7.56,9.94,4,5.75-4.8,12.44-5.3,17-1.26,7.91,10.52,9.53,22.22.73,5.26,8.77-7.43,4.83,4.86.41-1.28-9.92,9.19-9.16,8.44-2.94,2.89-1.11,7.57-6,9.15-11.63,3.79-6.52-7.23-4.52-11.08,2.29-4.42,9.58-1,9.15-9-.22-4.18-6.21-.85-7.09-2.06-19-26.3,2.13,17.65-19.06,7.44-13.46-6.49.58-32.08-12.36-33.94-3.32-.48-10.35,21.47-16.61,8.2-4.62-9.79,9.56-14.36,15.1-16.76,13.14-5.7,15.63-2.71,16-19.7.16-6.74-2-15.14-2-22.77" style="fill: #fb5b4e"/>
    <path d="M411.47,274.46c-2.61.26-4.19-15.26-4.62-15.2,4.07-.58,5.21,2.88,8.88.07,2.38-1.83,2.69-8.07,6.07-8.91,10.88-2.69,7.25,1.75,12.12,6.33.57.53-2.45,5.1-.76,7.28,1.88,2.42,6.52-.23,8.29,1.58,5.42,5.53,15.37,8.2,10.21,17.8-1.44,2.68-8.19,1.17-9.75,3.53-7.35,11.13-6.25,1.51-1.76,9.68.07.13,6.43-4.11,6.82-3.82,4,3,.3,6.37,3.34,9.57,15.77,16.6,5.33,21.68-12.62,8.73-6.32-4.56-15.83-11.73-19.2-18.88-1.82-3.86,6.6-18-8.3-17.94" style="fill: #fb5b4e"/>
    <path d="M309.38,290.18c-5.52-.55-2.76-5.87-1.11-7.53,2.67-2.67,10.86.8,14.07.87,10.28.22,21,.23,30.67,1.47,6.27.81,24.37,2.17,14.6,16.76-10.28,15.35-18.93-6.7-27.26-5.6-13.61,1.8,8.83,14.85,11,17.3.61.68,7.15,13.23,6.81,12,1.89,7.14,5.76.94-3,10.31-1.27,1.36-7,1.18-9.28,2.76s-1.15,6-3.41,7.13c-4.06,2.09-11.78,6.35-16.09,1.79-2.15-2.28-.09-27.46-.43-33.72-.45-8.32,6-13.08-1.44-21.13-6-6.46-5.76,5.69-4.13,5.54-1.72.15-3.21,2.88-6.86.18-.94-.69,2.75-9.41-5.09-9.54" style="fill: #fb5b4e"/>
    <path d="M373,296.15c-.1,15.1-20.62,14.07-8.68,22.56,3.53,2.51,9.61-16.9,10.54.39.32,5.89-8.31,9-5.44,15.94,2.17,5.25,18.29,8.68,22.27,4.46,4.21-4.47-2-15.64-4.18-19.84-.32-.6-14.82-22.67-13.78-22.79" style="fill: #fb5b4e"/>
    <path d="M393.95,344.75c11.36-1.61,18,29.63,4.16,35.06-5.85,2.3-19.45-3.12-21.88-8.15-7.43-15.41,11.33-20.84,17.9-27.46" style="fill: #fb5b4e"/>
    <path d="M349,347.28c10.1-4.82,8.86-15.14,18.59-5.05,6,6.21,6.14,22.53,2.9,29.8-5.62,12.63-26.93,10.37-28.52,18.8-1.63,8.61,7.71,1.51,10,3.84,6.65,6.91,3.48,5.86,5.27,13.78,2.75,12.11,4.9,16.18-8,6.58,4.2,3.14-11.35-14.39-7.75-8.13-2.52-4.38-2.59-4.46-3.65-11.62-.84-5.66-5.32-4.22-3.23-11.43.84-2.91,16.53-6.21,10.23-13.13-5-5.46-13,10.79-16.45,11.26-8.25,1.11-22-15.49-14.39-22.28,2.09-1.86,13.94-1.19,16.29-1.4,9.86-.88,11.59-9.74,9.13,4.2.52-3,9.4-9,10.29-16.12" style="fill: #fb5b4e"/>
    <path d="M365,393.36c-3.46-17,33.54-14.24,30.76-1.36-1.85,8.59-31.17,19.15-30.94.63" style="fill: #fb5b4e"/>
    <path d="M292.21,434.56c4-.07,5.68-16,10.63-17.35,9.79-2.62,9.29,25.31,4.63,29.8-3.34,3.22-11.82,6.59-16.26,2.22-5.32-5.23,2.45-9.8,1.54-15.4" style="fill: #fb5b4e"/>
    <path d="M268.36,454.43c9.61-.14,7.73-3,12.11-13.38,1.92-4.55,1.21-8.66,4-13.22,2-3.34,8.49-3.31,9.89-7.65,2.25-7-4.39-4.94-3.46-14.88-.1,1.12,9.91-21.47,6.05-19.95,3.23-1.27,3.3,6.06,4.25,6.82.09.07,1.43,8,1.92,8.77,1.57,2.34,8.78-1.39,11.13,1.62.59.76-3.84,6.76-2.54,9.59a57.93,57.93,0,0,0,8.45,13.56c2,2.35,6.15,10,9.36,10.11,6,.22,12.78-9.67,11-15.19-4.12-12.94-11.49,5.94-17.82-2.37-3.26-4.27.94-19.87-3.54-27.4-2-3.43-3.17-6.27-6.59-8.76-2.55-1.86-13.06-2.44-13.18-2.61-1.56-2.17,8.63-19.23-5.1-6.37-6.07,5.68-6.83,16.59-8.42,24.29-3.43,16.66-6.35,43.55-17.55,57" style="fill: #fb5b4e"/>
    <path d="M292.94,355.41c.17-1,2.32-8.87,4.07-8.06,1.32.6.6,7.54,2.52,7.52-3.18,0,21.66-44.08,7.67-6.86-1.61,4.28-4.17,16.17-9.76,16.93-5.85.8-8.19-7.45-4-11.7" style="fill: #fb5b4e"/>
    <path d="M301.61,326.68c-15.61-12.91,13-33,18-15,3.17,11.4-11.87,14.74-18.57,14.6" style="fill: #fb5b4e"/>
    <path d="M292.21,333.19c-2.5,2.5,7.66,12.18,4.52-8.16-1.24-8-3.71-14.38-4-22.63-.18-5.33,5.55-3.77,2.91-10.41-1.23-3.09-13.34-10.58-16.7-12.71-5.65-3.59-16.7-11.28-23.38-9.47-20.7,5.62,10.5,25.91,19.56,28.86,9.57,3.11,11-5.49,15.27,9,2.07,7.06,1.35,18.55,1.44,25.66" style="fill: #fb5b4e"/>
    <path d="M174.58,279.52c6.74,1.09,20.64,11.43,4.48,12.65-5.41.41-11.94-8.5-5.2-12.11" style="fill: #fb5b4e"/>
    <path d="M160.49,287.83c3.91-4.88,7.8-14.79,13.74-17.66,1,.43-10,17.63-7.4,22.58,5.49,10.65,13.87,3.33,21.71,1.55,9.82-2.23,4-10.6,11.53,1.13.8,1.26,2.46,26.22,8.67,21.14,6.88-5.62-5.47-18.39-3.85-23.81,2.4-8,18.49-13.61,26.05-13.79,22.89-.52,13.74,17.35,5.1,30.14-3.08,4.56-6.29,12.45-7.29,13.75-5.37,7-3.18,8.91-14.09,6.33-7.48-1.77-11.46-6.43-18.68-6.32-1.07,0-1,5.42-2.82,5.81-4.89,1-11.26-.55-15.79.14,2.79-.43-9.51-10.56-10.37-11-4.57,1.34,17.69,19.62,15,21.27-7.65,4.71-9.79-3.58-13.63-5.07-1.21-.47-1.85-5.29-4.41-6.38-3.48-1.48-2.11,7.74-3.69,7.32-20.46-5.35,14.64-15.54-9-18-2-2.3,11.72-15.92,7.86-17.61-5.16-2.26-9.77,10.06-15.45,9.54-6.83-.62,3.8,15.13,3.95,14.53-1.56,6.29-2.13,2.67-6.75,5.08-18.73,9.77-11.14-16.93-10.08-16.58,1.65.54,4.73,7.31,5.46,8.47-10.21-2.23,22.3-30,24.39-32.41" style="fill: #fb5b4e"/>
    <path d="M274.69,307.53c3.66,12.87-21.87,73.56-36.76,63.38-7.42-5.08-8.24-48.11,3.08-50.15,13.87-2.51,10.76,19.06,16.5,22.31,3.66,2.08,5.29-15.68,3.89-18.77-2.52-5.54-11.56-6.78-13-11.65-6.29-22,26.12-12.7,26.06-3.85" style="fill: #fb5b4e"/>
    <path d="M81,346.2c4.55,5.2-5.46,14.59,4.7,14.09,5.7-.28,5.17-13,8.49-15.73,1.55-1.29,4.32,14.74,12.83,1.32,4.24-1,28.84,22.21,26.56-3.16-1.26-14-6.49-2.5-10.16-6.05-4.21-4.08-3.06-3.41-5.72-11.48,0,0-32.64,18.48-36.52,21.56" style="fill: #fb5b4e"/>
    <path d="M168.08,351.44c0-15.07,31.47-2.87,30.73-1.89,5.22-6.92-1.84-11.19-5.8-14.89-.05-7.32,26.2,1.73,27.47,3.05,5.25,5.46,4.56,15.25,5.71,22,1.37,8,5.37,4.63,2.8,13.33-.81,2.73-11.35,11.84-13,12.29-2.2.62-6.17-5.71-8.31-5.84-1.19-.07-4.64,5.5-5.08,5.26-4.54-2.41-1.46-6.1-5.76-9.61-5.18-4.22-9.71-4.57-15.09-9.65-5-4.75-8.44-10.72-13.88-15.65" style="fill: #fb5b4e"/>
    <path d="M225.72,383.24c.72-.79,19.87-8.46,20.25-8.3,3.39,1.42-21.28,46.24-24.77,49-8.34,6.59-10.76,5.5-8.07-3.09,1.42-4.53,19.66-15.64,4-16.65-2.55-.17,8.48-19.76,9.33-20.6" style="fill: #fb5b4e"/>
    <path d="M73.75,366.44c5.29,9.87,28.6-8.08,35.38-7.82,4.91.18,14.39,4.47,17.3,8.37,6.65,8.95,4.39,4.73-2.19,7.76-2.75,1.27-12.55-.57-15.94,0,0,0-2.82,4.41-5.71,4.74-3.59.41-8.26-.37-11.73-.54-4.84-.24-22.94-.66-17.1-12.66" style="fill: #fb5b4e"/>
    <path d="M112.78,384.32c-1.32,6.82,10.95,15.76,14.82,11.31,9.51-11-10-13.09-15.72-11.31" style="fill: #fb5b4e"/>
    <path d="M122.54,401.85c15.31,8.83,6.26-2.69,14.59-8.44,10.7-7.39,2.34,8.33-.29,13.31-2.91,5.51-2.07,12.54-8.63,10.8-5.21-1.38-6.61-10.26-6.57-15.13" style="fill: #fb5b4e"/>
    <path d="M146.75,403.48c3.28,0,16.73,2.42,19.21,5s-3.14,5-1.77,7.36c1.59,2.71,9.23,12,8.89,14.1-6.28-1.88-10.32-7.74-15.27-11.11-9.3-6.33-10.82-6.32-10.88-15" style="fill: #fb5b4e"/>
    <path d="M132.3,365.89c-10.46-10.9,9.06-20.24,17.57-19.44-3.19-.3,12.47,9.7,10.34,7.54,1.8,1.83,11.66,1.89,8.5,8.55-2.4,5.07-9-3.53-11.59.06-4.31,6,5.68,3.23,1.58,9.21-2.18,3.17-9.88,2.75-11.38,6.55-1.62,4.11,6.9,9.3,5.64,11.63.49-.91-17.64-7.51-18.21-8.35-1.62-2.39,6.23-13.12-2.28-16.28" style="fill: #fb5b4e"/>
    <path d="M166.63,371c3.15.69,22.5,2.75,21.18,10.87-1.4,8.62-9.43,5.3-14.42,10.4-3.42,3.5-.12,10.34-4.93,12.06.71-.25-16.07-6.73-15.94-6.39-1.56-4.23,6.35-3.84,7-7.79,1-6.52-4.3-5.62-1-11.53,1.79-3.22,6.2-5.21,8.89-7.63" style="fill: #fb5b4e"/>
    <path d="M187.59,395.17c2.5-16.84,18.93,3.9,15,5.42,2.67-1,5.45-11.7,7.21-11.53,5.31.49.66,43.19-16.1,41.79-1-.08-19.33-9.42-20-10.44-7.4-10.87,6.74-18.92,13.77-25.23" style="fill: #fb5b4e"/>
  </g>
</svg>
