<svg xmlns="http://www.w3.org/2000/svg" viewBox="0 0 500 500"><defs><style>.cls-1{fill:#b3b3b3;}.cls-2{fill:#c1272d;}.cls-3{fill:#fff;}</style></defs><title>periphery-states_COLOR</title><g id="n3"><path class="cls-1" d="M250,14.47C120.13,14.47,14.47,120.13,14.47,250S120.13,485.53,250,485.53,485.53,379.87,485.53,250,379.87,14.47,250,14.47Z"/></g><g id="n2"><path class="cls-2" d="M410.19,169.41c-2.46,1.36-6.1,1.53-7,4.21a6.2,6.2,0,0,0,.08,3.12l2.33,11.75c.48,2.43.62,5.61-1.62,6.67-2,.95-4.2-.62-5.84-2.08l-5.08-4.53c-1.63-1.45-3.79-3-5.79-2.13-2.19,1-2.32,4-1.75,6.33s1.47,4.91.23,7c-1.47,2.43-5.2,2.41-7.56.83s-3.75-4.19-5.35-6.53-3.76-4.64-6.58-5c-4,3.28-1.73,9.62-.07,14.54a39.29,39.29,0,0,1,2.08,12.34c0,2.5-.73,5.64-3.2,6.11a5.39,5.39,0,0,1-3.21-.69A33.4,33.4,0,0,1,347,207.47c-1.67-3-2.89-6.26-5-8.94s-5.55-4.72-8.9-4c-4,.88-6.17,5.14-7.29,9.05s-1.92,8.26-5,11c-2.27,2-5.42,2.76-8.46,3-3.93.25-8.06-.33-11.3-2.56s-5.35-6.38-4.36-10.19c-5.88,4.37-14.24.58-20-3.93,1.85,17.58-9.33,35.71-25.87,41.95-5.59,2.11-12.57,2.7-17-1.36-2.44-2.26-3.61-5.54-5.33-8.39-4-6.64-11.36-11.57-12.69-19.21-.51-2.93-1-7-3.93-7.17a15.53,15.53,0,0,0-3,.64c-2.37.36-4.39-1.33-6-3.23l-6,6.24-.59.62a66.15,66.15,0,0,1-5.89,6.22l-1,1.08A41.61,41.61,0,0,1,179,220.06a3.59,3.59,0,0,1-1.93-.28,3.76,3.76,0,0,1-1.34-1.69l-6-11.62c-4,.37-5.25,6.75-9.25,7.14-2.56.25-4.52-2.13-6-4.25l-9-13.17a90.12,90.12,0,0,0-11.11,22.93c-1.09,3.42-2.23,7.24-5.33,9a216.52,216.52,0,0,1-4.8-22.9l-7.6,9.34c-1.8,2.21-4.32,4.67-7.06,3.87-3-.87-3.59-4.77-3.62-7.88l-.24-19.36-4.22,2.09c-2.8,1.39-6.75,2.53-8.56,0-1.59-2.23-.17-5.91-2.22-7.74-1.4-1.26-3.59-.83-5.4-1.34-2.43-.69-4-3.13-4.5-5.62a20.58,20.58,0,0,1,.48-7.52l1.33-7a7.35,7.35,0,0,1,1.61-4c2-2,5.28-1.12,7.84,0s5.66,2.27,7.94.67a27.8,27.8,0,0,1,2.18-1.82c2.52-1.4,5.43,1.18,6.74,3.75s2.44,5.73,5.19,6.57c3.35,1,6.4-2.13,8.5-4.94l4.42,9.29a2.15,2.15,0,0,0,.81,1.05,1.83,1.83,0,0,0,1.54-.09c4-1.67,5-7.2,8.77-9.31a12.7,12.7,0,0,1,5.1-1.2c4.25-.39,9.18-.54,12,2.64,2,2.22,2.33,5.41,2.57,8.38,4.26,1.71,9.31-.88,13.62.7,2.92,1.07,4.84,3.8,6.57,6.38a15.5,15.5,0,0,1,24.22,2.4c.33.52.69,1.1,1.28,1.28.78.24,1.54-.33,2.22-.78a9.42,9.42,0,0,1,12,1.85l.48.58,12.43-13.12L229.07,177l.46-.48c10-9.39,27.8-8.48,36.79,1.88,1.58,1.82,3.62,4.12,5.91,3.35,1.2-.4,2-1.55,2.82-2.46,4.21-4.44,12.83-3,15.34,2.6,1.6-4.09,3.31-8.36,6.67-11.2s8.88-3.62,12-.5c1.65,1.67,2.64,4.35,4.95,4.79,4.21.81,5.93-6.54,10.21-6.86,2.45-.19,4.58,2.13,7,1.92,4.56-.39,4.37-7.84,8.26-10.26,4-2.52,10.09,1.83,13.86-1.09,1.51-1.17,2.18-3.24,3.81-4.22,5-3,10.14,7.17,15.69,5.31,3.3-1.1,3.83-5.53,6.08-8.18a7.43,7.43,0,0,1,10.21-.72,10,10,0,0,0,2.33,1.95c4.18,1.86,7.43-6.47,11.84-5.24a6.11,6.11,0,0,1,2.07,1.23c3.29,2.61,6.56,5.58,8,9.52S413.87,167.38,410.19,169.41Z"/></g><g id="n1"><path class="cls-3" d="M187.83,438.52a7,7,0,0,1-3.38.39,5.72,5.72,0,0,1-1.55-.22,3.86,3.86,0,0,1-2.2-2.28,11.44,11.44,0,0,1-.63-3.19l-.31-3.09c-.13-1.33-.22-2.82.62-3.85l-.3-1.12,2.63-2.15a2.37,2.37,0,0,1,.92-.54,2,2,0,0,1,1.12.14,8.16,8.16,0,0,1,4.38,4.07,13.67,13.67,0,0,1,1.31,5.93C190.48,434.89,189.89,437.54,187.83,438.52Z"/><path class="cls-3" d="M201.88,440.52a2.44,2.44,0,0,1-.67.94,2.38,2.38,0,0,1-1.18.36,4.26,4.26,0,0,1-3.67-.91c-.43-.47-.67-1.1-1.19-1.47a2.71,2.71,0,0,1-.74-.55,1.46,1.46,0,0,1-.18-.82l-.1-4.61a16.48,16.48,0,0,1,.31-4.48,5.56,5.56,0,0,1,2.54-3.57l-.58,0c.8-.56,1.82-1.15,2.69-.69a2.66,2.66,0,0,1,.73.66,18.36,18.36,0,0,1,2.79,3.89C204.31,432.76,203.58,437,201.88,440.52Z"/><path class="cls-3" d="M219.2,443.8a11.32,11.32,0,0,1-2.07,4.83c-1.16,1.34-3.18,2.09-4.75,1.27-1.31-.69-1.91-2.23-2.34-3.65a45.69,45.69,0,0,1-1.34-20l-.57,1.24,1.72-3.92c.33-.74.75-1.57,1.54-1.75a2.28,2.28,0,0,1,1.07.08c4.12,1.05,7,5.1,7.77,9.27S220.22,439.67,219.2,443.8Z"/><path class="cls-3" d="M221.93,303.08c-1.42,1.51-2.85,3-4.41,4.4-9.28,8.13-22.4,10.21-34.74,10.18a85,85,0,0,1-25.12-3.43,26.72,26.72,0,0,1-7.55-3.46c-5.11-3.61-7.86-9.95-8.12-16.2s1.76-12.41,4.67-18c1.55-3,3.43-5.85,6.19-7.72A23.81,23.81,0,0,1,160,266a33.58,33.58,0,0,1,9.22-1.59,35.59,35.59,0,0,1,7.49,1.16l13,3-2.92-.33a49.67,49.67,0,0,1,7.87,1.57l33.51,8.57c3.21.82,6.94,2.13,7.81,5.32s-1.52,6.06-3.72,8.4Z"/><path class="cls-3" d="M242.15,439.6c-.09,4-1.39,8.36-4.68,10.72a4.83,4.83,0,0,1-3.87,1,6.53,6.53,0,0,1-2.64-1.7l-2.26-2a11.35,11.35,0,0,1-1.84-1.95,10,10,0,0,1-1.36-5.21,39.89,39.89,0,0,1,.64-9.35l-.23-.17a17.56,17.56,0,0,1,4.13-6,2.53,2.53,0,0,1,2.24-.93c.78.22,1.18,1.05,1.58,1.75,2,3.42,6,5.39,7.53,9A11.78,11.78,0,0,1,242.15,439.6Z"/><path class="cls-3" d="M257.34,451.79a2,2,0,0,1-1.11.64,15,15,0,0,1-7.07.29,3.56,3.56,0,0,1-1.3-.47,3.6,3.6,0,0,1-1.09-1.4c-2.83-5.48-2.26-12.06-1.15-18.12l-.5,1c.62-4.16,1.39-8.63,4.37-11.6a34.13,34.13,0,0,1,7.38,16.74c.32,2.23.42,4.49.51,6.74l.21,4.9A2.11,2.11,0,0,1,257.34,451.79Z"/><path class="cls-3" d="M249.18,384.72l-11,1.62a13.82,13.82,0,0,1-5.82,0c-3.44-1-5.52-4.4-7.26-7.54-1.1-2-2.24-4.09-2.15-6.36a11.72,11.72,0,0,1,1.21-4.19A92.21,92.21,0,0,1,231.27,355l-.08-.32c1.69-5,5.88-8.76,8.81-13.19a58.39,58.39,0,0,0,4.6-9.09l10.86,12.25c4.43,5,9,10.18,11.17,16.49s1.49,14.12-3.48,18.59C259.43,383.12,254.15,384,249.18,384.72Z"/><path class="cls-3" d="M273.67,450.22c-2.33,2-5.8,1.57-8.77.85a5.3,5.3,0,0,1-2.19-.91,4.79,4.79,0,0,1-1.37-2.55,18.18,18.18,0,0,1,.1-9.61l.43-7.32a11.36,11.36,0,0,1,.7-3.91,3.86,3.86,0,0,1,2.94-2.42,46.12,46.12,0,0,1,9.18,15.29,15.61,15.61,0,0,1,1.14,5.52A6.8,6.8,0,0,1,273.67,450.22Z"/><path class="cls-3" d="M294.83,443.79a12,12,0,0,1-1.05,4.22,7,7,0,0,1-2,2.29,8.45,8.45,0,0,1-9.1.5,3.71,3.71,0,0,1-1.13-.93,4.8,4.8,0,0,1-.72-2.1L279,437.49l.12.55a10.71,10.71,0,0,1,1.8-6.71,28.69,28.69,0,0,0,2-2.82c.41-.8.64-1.69,1.09-2.48a2.74,2.74,0,0,1,2.09-1.54c1.51-.08,2.42,1.58,3.32,2.79,1.1,1.48,2.66,2.56,3.77,4C295.76,434.76,295.36,439.52,294.83,443.79Z"/><path class="cls-3" d="M313.31,441a4.25,4.25,0,0,1-1.37,1.49,19.4,19.4,0,0,1-6.65,2.67,4.1,4.1,0,0,1-1.1.19,2.79,2.79,0,0,1-2.35-1.83,8.21,8.21,0,0,1-.44-3.1l-.13-9.9-.1.2a9.24,9.24,0,0,1,4-6.74,1.19,1.19,0,0,1,.63-.25,1.28,1.28,0,0,1,.8.43l3.46,3.18a8.47,8.47,0,0,1,3.51,8l.06,3.18A5.44,5.44,0,0,1,313.31,441Z"/><path class="cls-3" d="M329.09,433.41a12.12,12.12,0,0,1-4.23,4,5.31,5.31,0,0,1-3.57,1.29c-1.47-.22-2.46-1.61-3.1-3a17.65,17.65,0,0,1-1.54-9.6l-.1-.42a12.25,12.25,0,0,1-.11-3.88,4.14,4.14,0,0,1,2.14-3.08,6.17,6.17,0,0,1,3.75,0l3.11.62a6,6,0,0,1,3.24,1.36,5.76,5.76,0,0,1,1.2,3.76q.11,1.79.13,3.59A11.13,11.13,0,0,1,329.09,433.41Z"/><path class="cls-3" d="M345.33,303.46c-.81,2.73-1.82,5.52-3.79,7.58s-5,3.32-7.88,4.38a73.71,73.71,0,0,1-11.91,3.69c-9.58,1.82-19.46-.23-28.79-3-5.81-1.75-11.6-3.83-16.63-7.22-6.3-4.24-11.1-10.3-15.65-16.38a12.34,12.34,0,0,1-2.41-4.37c-.67-2.83.75-5.84,2.89-7.82a24.7,24.7,0,0,1,7.57-4.27q20-8.31,40.16-16.1l-1.88.18a82.83,82.83,0,0,1,15.91-.54,29,29,0,0,1,14.85,5.24c5.58,4.22,8.85,11,9.81,17.95S347.32,296.75,345.33,303.46Z"/></g><g id="Base"><path d="M250,478A228,228,0,0,1,88.81,88.81,228,228,0,1,1,411.19,411.19,226.46,226.46,0,0,1,250,478Zm0-450.33C127.38,27.63,27.63,127.38,27.63,250S127.38,472.37,250,472.37,472.37,372.62,472.37,250,372.62,27.63,250,27.63Z"/><path d="M250,497.5A247.5,247.5,0,0,1,75,75,247.5,247.5,0,0,1,425,425,245.88,245.88,0,0,1,250,497.5Zm0-483C120.13,14.47,14.47,120.13,14.47,250S120.13,485.53,250,485.53,485.53,379.87,485.53,250,379.87,14.47,250,14.47Z"/><path d="M435.67,254.19c-.8-18.35-10.37-23.13-10.37-23.13s-16.75-51.85-12.76-52.65,14.36-10.37,7.18-24.73-14.36-13.56-24.73-16-26.33-61.43-46.27-76.58S300.06,50,280.91,50.76s-37.49,8.78-37.49,8.78-12.08,4-22.34.8-41.48-3.19-41.48-3.19c-15.16,1.6-32.71,5.58-51.06,22.34s-35.1,63.82-35.9,70.2-16.75-.8-19.15,16c-3.32,23.24,12,26.33,8,34.3s-5.58,18.35-5.58,18.35S73.5,247.81,70.31,259s-6.38,9.57-4.79,28.72,2.39,6.38,15.16,24.73S99,350.72,110.2,369.06c7.92,13,45.47,30.31,52.65,35.9s4,23.11,6.38,27.92c3.23,6.66,1.36,11,5.58,12,6.7,1.5,4-2.39,11.17.8s1.6,2.39,6.38,7.18,4,0,8,0,1.6,4.79,6.38,8,8.78-4.79,16-3.19,3.19,4.79,8.78,6.38,5.58-6.38,10.37-6.38,6.38,3.19,16.75,3.19,7.18.8,16.75-2.39c4.25-1.42,5.32,3.55,12,4,12,.8,4.79-.8,11.17-6.38s1.8,2.39,9.57,0c10.37-3.19,4-1.6,8.78-6.38s4.79-2.39,12.76-4,9.27-8.59,8.78-12.76c-.58-4.9-3.64-11.77,4.79-19.15,6.38-5.58,6.07-7.4,5.58-9.57-1-4.44,4-7.18,16.75-12,17.2-6.45,11.82-6.64,20.74-19.15,5.28-7.4,12.76-37.49,19.94-54.25S436.47,272.54,435.67,254.19ZM187.83,438.52a7,7,0,0,1-3.38.39,5.72,5.72,0,0,1-1.55-.22,3.86,3.86,0,0,1-2.2-2.28,11.44,11.44,0,0,1-.63-3.19l-.31-3.09c-.13-1.33-.22-2.82.62-3.85l-.3-1.12,2.63-2.15a2.37,2.37,0,0,1,.92-.54,2,2,0,0,1,1.12.14,8.16,8.16,0,0,1,4.38,4.07,13.67,13.67,0,0,1,1.31,5.93C190.48,434.89,189.89,437.54,187.83,438.52Zm14.05,2a2.44,2.44,0,0,1-.67.94,2.38,2.38,0,0,1-1.18.36,4.26,4.26,0,0,1-3.67-.91c-.43-.47-.67-1.1-1.19-1.47a2.71,2.71,0,0,1-.74-.55,1.46,1.46,0,0,1-.18-.82l-.1-4.61a16.48,16.48,0,0,1,.31-4.48,5.56,5.56,0,0,1,2.54-3.57l-.58,0c.8-.56,1.82-1.15,2.69-.69a2.66,2.66,0,0,1,.73.66,18.36,18.36,0,0,1,2.79,3.89C204.31,432.76,203.58,437,201.88,440.52Zm17.32,3.29a11.32,11.32,0,0,1-2.07,4.83c-1.16,1.34-3.18,2.09-4.75,1.27-1.31-.69-1.91-2.23-2.34-3.65a45.69,45.69,0,0,1-1.34-20l-.57,1.24,1.72-3.92c.33-.74.75-1.57,1.54-1.75a2.28,2.28,0,0,1,1.07.08c4.12,1.05,7,5.1,7.77,9.27S220.22,439.67,219.2,443.8Zm2.73-140.73c-1.42,1.51-2.85,3-4.41,4.4-9.28,8.13-22.4,10.21-34.74,10.18a85,85,0,0,1-25.12-3.43,26.72,26.72,0,0,1-7.55-3.46c-5.11-3.61-7.86-9.95-8.12-16.2s1.76-12.41,4.67-18c1.55-3,3.43-5.85,6.19-7.72A23.81,23.81,0,0,1,160,266a33.58,33.58,0,0,1,9.22-1.59,35.59,35.59,0,0,1,7.49,1.16l13,3-2.92-.33a49.67,49.67,0,0,1,7.87,1.57l33.51,8.57c3.21.82,6.94,2.13,7.81,5.32s-1.52,6.06-3.72,8.4ZM242.15,439.6c-.09,4-1.39,8.36-4.68,10.72a4.83,4.83,0,0,1-3.87,1,6.53,6.53,0,0,1-2.64-1.7l-2.26-2a11.35,11.35,0,0,1-1.84-1.95,10,10,0,0,1-1.36-5.21,39.89,39.89,0,0,1,.64-9.35l-.23-.17a17.56,17.56,0,0,1,4.13-6,2.53,2.53,0,0,1,2.24-.93c.78.22,1.18,1.05,1.58,1.75,2,3.42,6,5.39,7.53,9A11.78,11.78,0,0,1,242.15,439.6Zm15.19,12.19a2,2,0,0,1-1.11.64,15,15,0,0,1-7.07.29,3.56,3.56,0,0,1-1.3-.47,3.6,3.6,0,0,1-1.09-1.4c-2.83-5.48-2.26-12.06-1.15-18.12l-.5,1c.62-4.16,1.39-8.63,4.37-11.6a34.13,34.13,0,0,1,7.38,16.74c.32,2.23.42,4.49.51,6.74l.21,4.9A2.11,2.11,0,0,1,257.34,451.79Zm-8.16-67.07-11,1.62a13.82,13.82,0,0,1-5.82,0c-3.44-1-5.52-4.4-7.26-7.54-1.1-2-2.24-4.09-2.15-6.36a11.72,11.72,0,0,1,1.21-4.19A92.21,92.21,0,0,1,231.27,355l-.08-.32c1.69-5,5.88-8.76,8.81-13.19a58.39,58.39,0,0,0,4.6-9.09l10.86,12.25c4.43,5,9,10.18,11.17,16.49s1.49,14.12-3.48,18.59C259.43,383.12,254.15,384,249.18,384.72Zm24.49,65.5c-2.33,2-5.8,1.57-8.77.85a5.3,5.3,0,0,1-2.19-.91,4.79,4.79,0,0,1-1.37-2.55,18.18,18.18,0,0,1,.1-9.61l.43-7.32a11.36,11.36,0,0,1,.7-3.91,3.86,3.86,0,0,1,2.94-2.42,46.12,46.12,0,0,1,9.18,15.29,15.61,15.61,0,0,1,1.14,5.52A6.8,6.8,0,0,1,273.67,450.22Zm21.16-6.43a12,12,0,0,1-1.05,4.22,7,7,0,0,1-2,2.29,8.45,8.45,0,0,1-9.1.5,3.71,3.71,0,0,1-1.13-.93,4.8,4.8,0,0,1-.72-2.1L279,437.49l.12.55a10.71,10.71,0,0,1,1.8-6.71,28.69,28.69,0,0,0,2-2.82c.41-.8.64-1.69,1.09-2.48a2.74,2.74,0,0,1,2.09-1.54c1.51-.08,2.42,1.58,3.32,2.79,1.1,1.48,2.66,2.56,3.77,4C295.76,434.76,295.36,439.52,294.83,443.79ZM313.31,441a4.25,4.25,0,0,1-1.37,1.49,19.4,19.4,0,0,1-6.65,2.67,4.1,4.1,0,0,1-1.1.19,2.79,2.79,0,0,1-2.35-1.83,8.21,8.21,0,0,1-.44-3.1l-.13-9.9-.1.2a9.24,9.24,0,0,1,4-6.74,1.19,1.19,0,0,1,.63-.25,1.28,1.28,0,0,1,.8.43l3.46,3.18a8.47,8.47,0,0,1,3.51,8l.06,3.18A5.44,5.44,0,0,1,313.31,441Zm15.78-7.56a12.12,12.12,0,0,1-4.23,4,5.31,5.31,0,0,1-3.57,1.29c-1.47-.22-2.46-1.61-3.1-3a17.65,17.65,0,0,1-1.54-9.6l-.1-.42a12.25,12.25,0,0,1-.11-3.88,4.14,4.14,0,0,1,2.14-3.08,6.17,6.17,0,0,1,3.75,0l3.11.62a6,6,0,0,1,3.24,1.36,5.76,5.76,0,0,1,1.2,3.76q.11,1.79.13,3.59A11.13,11.13,0,0,1,329.09,433.41Zm16.23-130c-.81,2.73-1.82,5.52-3.79,7.58s-5,3.32-7.88,4.38a73.71,73.71,0,0,1-11.91,3.69c-9.58,1.82-19.46-.23-28.79-3-5.81-1.75-11.6-3.83-16.63-7.22-6.3-4.24-11.1-10.3-15.65-16.38a12.34,12.34,0,0,1-2.41-4.37c-.67-2.83.75-5.84,2.89-7.82a24.7,24.7,0,0,1,7.57-4.27q20-8.31,40.16-16.1l-1.88.18a82.83,82.83,0,0,1,15.91-.54,29,29,0,0,1,14.85,5.24c5.58,4.22,8.85,11,9.81,17.95S347.32,296.75,345.33,303.46Zm64.86-134c-2.46,1.36-6.1,1.53-7,4.21a6.2,6.2,0,0,0,.08,3.12l2.33,11.75c.48,2.43.62,5.61-1.62,6.67-2,.95-4.2-.62-5.84-2.08l-5.08-4.53c-1.63-1.45-3.79-3-5.79-2.13-2.19,1-2.32,4-1.75,6.33s1.47,4.91.23,7c-1.47,2.43-5.2,2.41-7.56.83s-3.75-4.19-5.35-6.53-3.76-4.64-6.58-5c-4,3.28-1.73,9.62-.07,14.54a39.29,39.29,0,0,1,2.08,12.34c0,2.5-.73,5.64-3.2,6.11a5.39,5.39,0,0,1-3.21-.69A33.4,33.4,0,0,1,347,207.47c-1.67-3-2.89-6.26-5-8.94s-5.55-4.72-8.9-4c-4,.88-6.17,5.14-7.29,9.05s-1.92,8.26-5,11c-2.27,2-5.42,2.76-8.46,3-3.93.25-8.06-.33-11.3-2.56s-5.35-6.38-4.36-10.19c-5.88,4.37-14.24.58-20-3.93,1.85,17.58-9.33,35.71-25.87,41.95-5.59,2.11-12.57,2.7-17-1.36-2.44-2.26-3.61-5.54-5.33-8.39-4-6.64-11.36-11.57-12.69-19.21-.51-2.93-1-7-3.93-7.17a15.53,15.53,0,0,0-3,.64c-2.37.36-4.39-1.33-6-3.23l-6,6.24-.59.62a66.15,66.15,0,0,1-5.89,6.22l-1,1.08A41.61,41.61,0,0,1,179,220.06a3.59,3.59,0,0,1-1.93-.28,3.76,3.76,0,0,1-1.34-1.69l-6-11.62c-4,.37-5.25,6.75-9.25,7.14-2.56.25-4.52-2.13-6-4.25l-9-13.17a90.12,90.12,0,0,0-11.11,22.93c-1.09,3.42-2.23,7.24-5.33,9a216.52,216.52,0,0,1-4.8-22.9l-7.6,9.34c-1.8,2.21-4.32,4.67-7.06,3.87-3-.87-3.59-4.77-3.62-7.88l-.24-19.36-4.22,2.09c-2.8,1.39-6.75,2.53-8.56,0-1.59-2.23-.17-5.91-2.22-7.74-1.4-1.26-3.59-.83-5.4-1.34-2.43-.69-4-3.13-4.5-5.62a20.58,20.58,0,0,1,.48-7.52l1.33-7a7.35,7.35,0,0,1,1.61-4c2-2,5.28-1.12,7.84,0s5.66,2.27,7.94.67a27.8,27.8,0,0,1,2.18-1.82c2.52-1.4,5.43,1.18,6.74,3.75s2.44,5.73,5.19,6.57c3.35,1,6.4-2.13,8.5-4.94l4.42,9.29a2.15,2.15,0,0,0,.81,1.05,1.83,1.83,0,0,0,1.54-.09c4-1.67,5-7.2,8.77-9.31a12.7,12.7,0,0,1,5.1-1.2c4.25-.39,9.18-.54,12,2.64,2,2.22,2.33,5.41,2.57,8.38,4.26,1.71,9.31-.88,13.62.7,2.92,1.07,4.84,3.8,6.57,6.38a15.5,15.5,0,0,1,24.22,2.4c.33.52.69,1.1,1.28,1.28.78.24,1.54-.33,2.22-.78a9.42,9.42,0,0,1,12,1.85l.48.58,12.43-13.12L229.07,177l.46-.48c10-9.39,27.8-8.48,36.79,1.88,1.58,1.82,3.62,4.12,5.91,3.35,1.2-.4,2-1.55,2.82-2.46,4.21-4.44,12.83-3,15.34,2.6,1.6-4.09,3.31-8.36,6.67-11.2s8.88-3.62,12-.5c1.65,1.67,2.64,4.35,4.95,4.79,4.21.81,5.93-6.54,10.21-6.86,2.45-.19,4.58,2.13,7,1.92,4.56-.39,4.37-7.84,8.26-10.26,4-2.52,10.09,1.83,13.86-1.09,1.51-1.17,2.18-3.24,3.81-4.22,5-3,10.14,7.17,15.69,5.31,3.3-1.1,3.83-5.53,6.08-8.18a7.43,7.43,0,0,1,10.21-.72,10,10,0,0,0,2.33,1.95c4.18,1.86,7.43-6.47,11.84-5.24a6.11,6.11,0,0,1,2.07,1.23c3.29,2.61,6.56,5.58,8,9.52S413.87,167.38,410.19,169.41Z"/></g></svg>