<svg xmlns="http://www.w3.org/2000/svg" width="500" height="500" viewBox="0 0 500 500">
  <title>rasalhague-dominion_COLOR</title>
  <g id="n3">
    <path d="M401.9,65.66l6.3-.87c.61,4.41.17,17.26-2,23.26l-6-2.19C401.92,81.18,402.4,69.29,401.9,65.66Z" style="fill: #7175af"/>
    <path d="M355.86,138.07l-3.4,5.37c-22.43-14.2-22.94-28.05-21.25-35,3-12.53,17.12-22.36,34.26-23.91l.57,6.33c-14.24,1.29-26.29,9.31-28.65,19.07C335.16,119.11,341.72,129.11,355.86,138.07Z" style="fill: #7175af"/>
    <path d="M343.37,103,348,98.26c17.28,2.72,36.83,15,37.65,15.56l-3.41,5.37C382.08,119.07,359.33,105.53,343.37,103Z" style="fill: #7175af"/>
    <path d="M367,78l6.24-1.25c1,5.1,2.51,18.54,1.35,26.52l-6.29-.92C369.29,95.5,368,83.06,367,78Z" style="fill: #7175af"/>
    <path d="M396.57,97l6.09,1.85c-.29.95-12.32,35.34-34.93,43.64L369,135C389.78,118.59,396.5,97.24,396.57,97Z" style="fill: #7175af"/>
    <path d="M376.6,90.83l0-6.36A96.28,96.28,0,0,1,419.4,96.68l-3.14,5.53A91,91,0,0,0,376.6,90.83Z" style="fill: #7175af"/>
    <polygon points="398.44 65.32 399.01 71.66 336.65 77.31 330.61 71.47 398.44 65.32" style="fill: #7175af"/>
    <path d="M244.93,342.2c1.11,1.24,2.09,2.32,2.86,3.24l-4.86,4.11c-.74-.87-1.67-1.91-2.74-3.09-8.37-9.31-23.22-30.84-19.31-49l5.49,5.53C223.15,318,237.32,333.73,244.93,342.2Z" style="fill: #7175af"/>
    <path d="M234.31,322.61c8.25-4.47,22-15.84,32.88-27.11l.88,7.47c-11.29,11.74-21.91,20.47-30.73,25.24Z" style="fill: #7175af"/>
    <path d="M261.93,330.58l5.56,3.09c-6.8,12.24-17,23.07-31.06,33.11l-3.69-5.18C246,352.12,255.59,342,261.93,330.58Z" style="fill: #7175af"/>
    <path d="M252,322.05l4.59-4c4.6,3.82,11.71,6.36,17.42,8.4,1.49.53,2.88,1,4.13,1.51l-2.29,5.93c-1.2-.46-2.54-.94-4-1.45C265.68,330.2,257.45,326.6,252,322.05Z" style="fill: #7175af"/>
    <path d="M273.42,323.55l-5.94-2.29c6.77-18,5.35-24,1.23-28.5l4.71-4.28C279.87,295.58,282,301.35,273.42,323.55Z" style="fill: #7175af"/>
    <path d="M184,269.88l4-.7c1.93-.34,19.95-2.06,58.47,40.58L241.76,314c-25.12-27.8-40.75-35.59-48-37.75l21.1,47.85-5.82,2.57Z" style="fill: #7175af"/>
    <path d="M209.53,329.35c.44-.25,3.78-2.26,14.22-2.72l2.12,6c-8.83.39-13.2,2.23-13.23,2.25Z" style="fill: #7175af"/>
    <polygon points="249.04 419.32 213.91 337.87 220.15 336.83 249.03 403.32 263.36 370.15 269.2 372.68 249.04 419.32" style="fill: #7175af"/>
    <path d="M270.28,371.33a114.94,114.94,0,0,1-18.68-13.11l4.13-4.84a110.83,110.83,0,0,0,17.54,12.33Z" style="fill: #7175af"/>
    <path d="M274,361.38l-5.85-2.5,35-82c-4.64,1.26-12.43,4.8-22,14.61l-4.54-4.45c18.3-18.67,31.53-17.23,32.09-17.15l4.18.53Z" style="fill: #7175af"/>
    <path d="M357.85,188.63,356,183.08c-.18-.54-4.32-13.41-2.78-24.74s11.22-39.37,13.32-44.61l5.91,2.36c-2.29,5.73-11.51,32.7-12.92,43.11-.74,5.49.11,11.61,1,16L394,134.48l4,4.83Z" style="fill: #7175af"/>
    <path d="M398.87,137.09c-1.36-2.26-5.45-8.6-8-10.7l4-4.93c3.9,3.18,8.91,11.43,9.46,12.36Z" style="fill: #7175af"/>
    <polygon points="401.74 124.72 447.72 67.43 411.19 71.09 410.55 64.76 462.17 59.59 406.7 128.7 401.74 124.72" style="fill: #7175af"/>
    <path d="M102.07,97c.07.21,6.79,21.57,27.57,38l1.28,7.52c-22.62-8.3-34.65-42.7-34.93-43.64Z" style="fill: #7175af"/>
    <path d="M82.38,102.21l-3.14-5.53A96.28,96.28,0,0,1,122,84.47l0,6.36A91,91,0,0,0,82.38,102.21Z" style="fill: #7175af"/>
    <path d="M116.37,119.19,113,113.82c.82-.52,20.37-12.84,37.65-15.56l4.66,4.76C139.31,105.53,116.56,119.07,116.37,119.19Z" style="fill: #7175af"/>
    <path d="M130.35,102.39l-6.29.92c-1.16-8,.33-21.43,1.35-26.52L131.65,78C130.65,83.06,129.35,95.5,130.35,102.39Z" style="fill: #7175af"/>
    <path d="M161.25,109.89c-2.36-9.76-14.41-17.78-28.65-19.07l.57-6.33c17.15,1.55,31.23,11.38,34.26,23.91,1.69,7,1.17,20.84-21.25,35l-3.4-5.37C156.92,129.11,163.48,119.11,161.25,109.89Z" style="fill: #7175af"/>
    <polygon points="100.2 65.32 168.03 71.47 162 77.31 99.63 71.66 100.2 65.32" style="fill: #7175af"/>
    <path d="M90.45,64.79l6.3.87c-.5,3.63,0,15.52,1.69,20.2l-6,2.19C90.27,82.05,89.84,69.2,90.45,64.79Z" style="fill: #7175af"/>
    <polygon points="36.47 59.59 88.09 64.76 87.46 71.09 50.92 67.43 96.9 124.72 91.94 128.7 36.47 59.59" style="fill: #7175af"/>
    <path d="M94.32,133.82c.56-.93,5.57-9.18,9.46-12.36l4,4.93c-2.58,2.1-6.67,8.44-8,10.7Z" style="fill: #7175af"/>
    <path d="M104.68,134.48l33.38,40.71c.91-4.38,1.76-10.5,1-16-1.41-10.41-10.63-37.38-12.92-43.11l5.91-2.36c2.1,5.25,11.76,33.19,13.32,44.61s-2.6,24.19-2.78,24.74l-1.81,5.54-40.12-49.31Z" style="fill: #7175af"/>
  </g>
  <g id="n2">
    <path d="M194.88,65.19c8-.35,17,10.6,22.09,14.13s20,1.24,25,1.77,8,5.57,8,5.57,3-5,8-5.57,19.88,1.77,25-1.77,14.13-14.49,22.09-14.13,29.68,12.37,29.33,21.47-19.61,23.94-17.84,27.12,14.31,21.2,20.32,39.75S353.18,203,350,207.42,331.27,234.1,312.72,250s-53.36,36.4-61.31,36.4h-2.83c-8,0-42.76-20.49-61.31-36.4s-34.1-38.16-37.28-42.58,7.07-35.34,13.07-53.89,18.55-36.57,20.32-39.75-17.49-18-17.84-27.12S186.92,65.55,194.88,65.19Z" style="fill: #f5ffff"/>
  </g>
  <g id="n1">
    <circle cx="115.91" cy="188.34" r="6.43" style="fill: #a94846"/>
    <circle cx="130.64" cy="214.92" r="6.43" style="fill: #a94846"/>
    <circle cx="144.49" cy="240.3" r="6.43" style="fill: #a94846"/>
    <circle cx="161" cy="264.81" r="6.43" style="fill: #a94846"/>
    <circle cx="175.88" cy="293.51" r="6.43" style="fill: #a94846"/>
    <circle cx="322.08" cy="291.75" r="6.43" style="fill: #a94846"/>
    <circle cx="336.47" cy="264.81" r="6.43" style="fill: #a94846"/>
    <circle cx="352.49" cy="241.22" r="6.43" style="fill: #a94846"/>
    <circle cx="366.7" cy="211.81" r="6.43" style="fill: #a94846"/>
    <circle cx="385.05" cy="186.37" r="6.43" style="fill: #a94846"/>
  </g>
  <g id="Base">
    <g>
      <path d="M266.52,113.56c-.42-2.05,1.33-3.71,14.44-6.1s14.58-3,16.43-1.19-4.77,16.83-8.22,16.7-2.65-4.24-8.61-5.57S267.45,118.06,266.52,113.56Z"/>
      <path d="M295.14,80.39c-1.24-2.48,11.31-7.07,17.58-1.33s8.39,5.83,8,10.34-4.51,13.16-6.36,12.19-.53-11.93-5.39-15.72S296.38,82.86,295.14,80.39Z"/>
      <polygon points="273.41 250 278.8 263.16 261.31 274.12 261.75 258.92 273.41 250"/>
      <path d="M279.42,244.88l14-17,15.11,14.66s-6.1,6.1-11,10.16-14,8.13-14,8.13Z"/>
      <path d="M297.53,221.82l15.64-26.5,29.33,8.83s-8,13.34-15,21a119.31,119.31,0,0,1-14.75,13.52Z"/>
      <path d="M233.48,113.56c.42-2.05-1.33-3.71-14.44-6.1s-14.58-3-16.43-1.19,4.77,16.83,8.22,16.7,2.65-4.24,8.61-5.57S232.55,118.06,233.48,113.56Z"/>
      <path d="M204.86,80.39c1.24-2.48-11.31-7.07-17.58-1.33s-8.39,5.83-8,10.34,4.51,13.16,6.36,12.19.53-11.93,5.39-15.72S203.62,82.86,204.86,80.39Z"/>
      <polygon points="226.59 250 221.2 263.16 238.69 274.12 238.25 258.92 226.59 250"/>
      <path d="M220.58,244.88l-14-17-15.11,14.66s6.1,6.1,11,10.16,14,8.13,14,8.13Z"/>
      <path d="M202.47,221.82l-15.64-26.5-29.33,8.83s8,13.34,15,21a119.31,119.31,0,0,0,14.75,13.52Z"/>
      <path d="M273.41,162.32c-4.24,0-4,1.72-6.95,3.84s-13.59.93-13.59.93l3.31-17h9.41s-1.59,8.61,2.78,8.61,8-5.17,8-9.41S271,137.81,263.21,137s-8.88,6.49-13.21,6.49-5.39-7.29-13.21-6.49-13.12,8.08-13.12,12.32,3.58,9.41,8,9.41,2.78-8.61,2.78-8.61h9.41l3.31,17s-10.62,1.19-13.59-.93-2.71-3.84-6.95-3.84-6.18,0-6,10.73.18,19.48,4,35,5.43,29.24,9,30.65,11.44,1.61,16.39,1.61,12.81-.2,16.39-1.61,5.17-15.15,9-30.65,3.84-24.25,4-35S277.65,162.32,273.41,162.32ZM250,234.79c-11.31,0-14.13-4.94-14-8.29s-.18-4.95,2.65-5.16,2.12,2.51,4.06,5.51,7.24,1.77,7.24,1.77,5.3,1.24,7.24-1.77,1.24-5.72,4.06-5.51,2.47,1.8,2.65,5.16S261.31,234.79,250,234.79Zm21-40c-2.65,5.59-3.18-16.68-3.18-16.68s-5.39,3.84-17.84,3.84-17.84-3.84-17.84-3.84-.53,22.26-3.18,16.68-2.12-22.51-2.12-22.51a10.22,10.22,0,0,1,6.23,0,64.65,64.65,0,0,0,33.83,0,10.22,10.22,0,0,1,6.23,0S273.68,189.18,271,194.77Z"/>
      <path d="M3,35.86,250,464.14,497,35.86ZM401.9,65.66l6.3-.87c.61,4.41.17,17.26-2,23.26l-6-2.19C401.92,81.18,402.4,69.29,401.9,65.66Zm-46,72.41-3.4,5.37c-22.43-14.2-22.94-28.05-21.25-35,3-12.53,17.12-22.36,34.26-23.91l.57,6.33c-14.24,1.29-26.29,9.31-28.65,19.07C335.16,119.11,341.72,129.11,355.86,138.07ZM343.37,103,348,98.26c17.28,2.72,36.83,15,37.65,15.56l-3.41,5.37C382.08,119.07,359.33,105.53,343.37,103ZM367,78l6.24-1.25c1,5.1,2.51,18.54,1.35,26.52l-6.29-.92C369.29,95.5,368,83.06,367,78Zm29.58,19,6.09,1.85c-.29.95-12.32,35.34-34.93,43.64L369,135C389.78,118.59,396.5,97.24,396.57,97Zm-20-6.19,0-6.36A96.28,96.28,0,0,1,419.4,96.68l-3.14,5.53A91,91,0,0,0,376.6,90.83Zm21.84-25.51.57,6.33-62.37,5.65-6-5.84Zm-203.56-.13c8-.35,17,10.6,22.09,14.13s20,1.24,25,1.77,8,5.57,8,5.57,3-5,8-5.57,19.88,1.77,25-1.77,14.13-14.49,22.09-14.13,29.68,12.37,29.33,21.47-19.61,23.94-17.84,27.12,14.31,21.2,20.32,39.75S353.18,203,350,207.42,331.27,234.1,312.72,250s-53.36,36.4-61.31,36.4h-2.83c-8,0-42.76-20.49-61.31-36.4s-34.1-38.16-37.28-42.58,7.07-35.34,13.07-53.89,18.55-36.57,20.32-39.75-17.49-18-17.84-27.12S186.92,65.55,194.88,65.19Zm50.05,277c1.11,1.24,2.09,2.32,2.86,3.24l-4.86,4.11c-.74-.87-1.67-1.91-2.74-3.09-8.37-9.31-23.22-30.84-19.31-49l5.49,5.53C223.15,318,237.32,333.73,244.93,342.2Zm-10.62-19.59c8.25-4.47,22-15.84,32.88-27.11l.88,7.47c-11.29,11.74-21.91,20.47-30.73,25.24Zm27.62,8,5.56,3.09c-6.8,12.24-17,23.07-31.06,33.11l-3.69-5.18C246,352.12,255.59,342,261.93,330.58ZM252,322.05l4.59-4c4.6,3.82,11.71,6.36,17.42,8.4,1.49.53,2.88,1,4.13,1.51l-2.29,5.93c-1.2-.46-2.54-.94-4-1.45C265.68,330.2,257.45,326.6,252,322.05Zm21.43,1.5-5.94-2.29c6.77-18,5.35-24,1.23-28.5l4.71-4.28C279.87,295.58,282,301.35,273.42,323.55ZM102.07,97c.07.21,6.79,21.57,27.57,38l1.28,7.52c-22.62-8.3-34.65-42.7-34.93-43.64Zm-19.69,5.19-3.14-5.53A96.28,96.28,0,0,1,122,84.47l0,6.36A91,91,0,0,0,82.38,102.21Zm34,17L113,113.82c.82-.52,20.37-12.84,37.65-15.56l4.66,4.76C139.31,105.53,116.56,119.07,116.37,119.19Zm14-16.8-6.29.92c-1.16-8,.33-21.43,1.35-26.52L131.65,78C130.65,83.06,129.35,95.5,130.35,102.39Zm30.9,7.5c-2.36-9.76-14.41-17.78-28.65-19.07l.57-6.33c17.15,1.55,31.23,11.38,34.26,23.91,1.69,7,1.17,20.84-21.25,35l-3.4-5.37C156.92,129.11,163.48,119.11,161.25,109.89ZM100.2,65.32,168,71.47l-6,5.84L99.63,71.66Zm-9.76-.54,6.3.87c-.5,3.63,0,15.52,1.69,20.2l-6,2.19C90.27,82.05,89.84,69.2,90.45,64.79Zm-54-5.2,51.62,5.18-.63,6.33L50.92,67.43l46,57.29-5,4Zm57.84,74.23c.56-.93,5.57-9.18,9.46-12.36l4,4.93c-2.58,2.1-6.67,8.44-8,10.7Zm10.37.66,33.38,40.71c.91-4.38,1.76-10.5,1-16-1.41-10.41-10.63-37.38-12.92-43.11l5.91-2.36c2.1,5.25,11.76,33.19,13.32,44.61s-2.6,24.19-2.78,24.74l-1.81,5.54-40.12-49.31Zm11.22,60.29a6.43,6.43,0,1,1,6.43-6.43A6.43,6.43,0,0,1,115.91,194.77Zm14.73,26.58a6.43,6.43,0,1,1,6.43-6.43A6.43,6.43,0,0,1,130.64,221.34Zm13.86,25.39a6.43,6.43,0,1,1,6.43-6.43A6.43,6.43,0,0,1,144.49,246.73ZM161,271.23a6.43,6.43,0,1,1,6.43-6.43A6.43,6.43,0,0,1,161,271.23Zm14.88,28.71a6.43,6.43,0,1,1,6.43-6.43A6.43,6.43,0,0,1,175.88,299.94ZM184,269.88l4-.7c1.93-.34,19.95-2.06,58.47,40.58L241.76,314c-25.12-27.8-40.75-35.59-48-37.75l21.1,47.85-5.82,2.57Zm25.52,59.47c.44-.25,3.78-2.26,14.22-2.72l2.12,6c-8.83.39-13.2,2.23-13.23,2.25Zm39.51,90-35.13-81.46,6.24-1L249,403.32l14.33-33.17,5.84,2.52Zm21.24-48a114.94,114.94,0,0,1-18.68-13.11l4.13-4.84a110.83,110.83,0,0,0,17.54,12.33Zm3.71-10-5.85-2.5,35-82c-4.64,1.26-12.43,4.8-22,14.61l-4.54-4.45c18.3-18.67,31.53-17.23,32.09-17.15l4.18.53Zm48.09-63.2a6.43,6.43,0,1,1,6.43-6.43A6.43,6.43,0,0,1,322.08,298.18Zm14.39-26.94a6.43,6.43,0,1,1,6.43-6.43A6.43,6.43,0,0,1,336.47,271.23Zm16-23.58a6.43,6.43,0,1,1,6.43-6.43A6.43,6.43,0,0,1,352.49,247.65Zm14.21-29.41a6.43,6.43,0,1,1,6.43-6.43A6.43,6.43,0,0,1,366.7,218.24Zm18.35-25.44a6.43,6.43,0,1,1,6.43-6.43A6.43,6.43,0,0,1,385.05,192.8Zm-27.2-4.17L356,183.08c-.18-.54-4.32-13.41-2.78-24.74s11.22-39.37,13.32-44.61l5.91,2.36c-2.29,5.73-11.51,32.7-12.92,43.11-.74,5.49.11,11.61,1,16L394,134.48l4,4.83Zm41-51.54c-1.36-2.26-5.45-8.6-8-10.7l4-4.93c3.9,3.18,8.91,11.43,9.46,12.36Zm2.87-12.37,46-57.29-36.53,3.66-.63-6.33,51.62-5.18L406.7,128.7Z"/>
    </g>
  </g>
</svg>
