<svg xmlns="http://www.w3.org/2000/svg" viewBox="0 0 500 500"><title>raven-alliance</title><g id="Icons"><path d="M459.65,61.82c9.89-.7,34.68-15.8,14.36-20.56-25.27-5.94-49.45-18.35-74.43-25.85C385.05,11,370.24,6.86,355,6.1c-11.89-.59-32.57-3.25-40.15,8.15a18.27,18.27,0,0,0-2.46,5.39h0c-1.89-.34-5.53-1.38-7.15,0-.55.48-.38,1.18-.77,1.65-.6.72-1.81.49-2.59,1.07-3.82,2.86-3.49,7.52-2.07,11.43q-8.63-2.39-17.57-4a17,17,0,0,1-.26-9.4c.55-2,1.91-4.15,1.62-6.35-.71-5.34-7.13-1.52-10-1.3-2.71.21-5.41-.45-8.11-.58-1.54-.07-3,.22-4.51.26A9.47,9.47,0,0,1,256,11.07a17.58,17.58,0,0,0-5.34-2.31c-2.44-.39-4.66.56-6.75,1.73-2.27,1.27-4.53,2.94-7.27,2.87-2.9-.07-3.52-3.27-6.29-3.61a7.63,7.63,0,0,0-4.78,1.46c-3.14,1.86-9.93,3.94-11.35-1.2-.7-2.51-1.27-7.84-5.32-6.46a4.65,4.65,0,0,0-2.78,3.82,67.92,67.92,0,0,0-.61,8.75c-.09,1.44.25,4.7-.43,6a3.74,3.74,0,0,1-3.68,1.54c-.84-.17-1.65-.51-2.48-.74-2.25-.61-4.39-.79-6.37.63a17.66,17.66,0,0,0-5.44,7.25c.2-.75.39-1.51.57-2.27,11.68-47.8-109-7.35-126.64-1C49.77,31.65,38.5,36.85,27.36,41.33c-11.91,4.79-12.49,11.75.06,17.11C40.91,64.2,58.29,59.32,72.1,57a183.85,183.85,0,0,1,19.33-2.56c1.6-.09,11.52.29,10.92.89-2.51,2.48-10.19,3-13.64,4a158.4,158.4,0,0,0-23.34,8.33C57.91,71,50.83,75.09,43.25,78.22c-4.85,2-14.57,3.5-9.67,10.13,7.2,9.74,30.08-2.1,37.83-5.19C74.54,81.91,110,70.56,110,70.37c-.49,6.1-25.13,12.42-29.7,14.21-10.53,4.13-20.08,10.14-30.7,14.05-5.78,2.13-17.87,6-7.15,12.09,8.12,4.64,26-7.67,33.12-10.78,5.44-2.38,18.11-8.89,8.85.47C77,108,62.29,110.86,53.12,116.13c-6,3.44-13.76,9.2-2,9.3,5.5,0,12.57-5.17,17.42-7.35,6.94-3.13,14-5.93,21.18-8.51-5.16,4.3-39.77,19-39.09,27.51-1.71.33-5.81,1.07-7,.86a14,14,0,0,1-6.18-2.29c-4.91-3.2-5.79-9-13.34-6.93-8.33,2.29-2.45,2.9.2,7.39.69,1.17,2.45,5.3,3.32,6.25,4.86,5.27,2.92,3.85,9.81,6.15,10.5,3.51,6.54,4.61,11.42,14.81,3.2,6.69,4.49,11.87,3.39,19-.55,3.56-2,3.64-1.59,7.39.42,3.5,5.11,4.57,3.41,9-1.19,3.1-5.29,2.71-6.62,4.91-.91,1.5-2.54,10.63-.49,12.76-1.05,1.66-1.85,3-2.21,3.54-4.89,7.71-8.77,16.15-9.93,25.29-2.3,18.2,5.41,22.72,21.15,24.63-.65,2.35.33,7.87.59,8.7,1.41,4.45,5.76,7.51,7.5,11.91,1.52,3.82,3,11.57,3.36,15.65.45,4.45-2.1,9.72-1.34,13.62,1.28,6.56,12,8.66,2.33,11.78-5.06,1.64-17.44-7.08-17,3.5.24,5.36,9.65,11.62,14.15,12.25,6.55.92,7.3-6,12-4.92.89.21,6.56,7.33,8.24,8.16,4.1,2,7.46,2,11.77.56,3.8-1.28,10.62-5,13.85-5.38-.15,1.72-.21,3.8-.27,6.09,0,.06,0,.13,0,.19-4.36,2.09-16.08,10.54-8.66,14.61,2.13,1.17,7.07-.87,8.39-2.4a4,4,0,0,0,.53-.78,57.44,57.44,0,0,0,2.79,14.26c2.78,7.92,8.12,14.64,15.89,18.33,8.06,3.83,9.75,1.89,16.15-4a116,116,0,0,1,9.62-7.79c2.14,2.45,9.6,5.32,10.57,6.19,4.11,3.68,3.63,12.53,8.08,14.9,7.26,3.86,5.85-4.76,9.17-7.15,2.81-2,4.56-.74,7.79-.61-7.42-.29.23,2,4.22,2.28a27.41,27.41,0,0,0,1.07,4.37c5,14.73,7.74,1.9,10.32-5.14q3,.69,6,1.29c-3.7,8.81-6.84,20.21-4,29.8.82,2.81,9.59,19,10.34,18.84,2.72-.59,2.22-7.86,2.9-10.29,1.65-5.84,4.26-11.36,9.38-14.95,5.27,5.22-7.68,29.25-6.41,36.6,1.21,6.94,7.18,10.58,10.65,16.25,2.86,4.68,4.58,10.34,8.18,15,5.11,6.63,6.43,6.87,12.38-.18,4.78-5.66,8.55-13,12.77-19.09,11.15-16.08-1.51-30.49-1.16-48,11.54,1.11,5.82,24.52,12.29,25.53,2.14.33,9.63-15.82,10.5-18.85,2.09-7.28.19-16.27-1.63-23.45-1-3.78-1.39-5.22-2.56-7.4l1.73-.36c3,7.76,6.54,13.5,12.64,9.55a6.3,6.3,0,0,0,2.09-2.42c2.44,3.11,10.67,9.48,12.3,9.39,12.42-.64-3.29-14.86,3-18.64a27.14,27.14,0,0,0,4.37-2.22,23.36,23.36,0,0,0,3.21,2.61c6.34,4.49,17.24,5.55,24.72,5.14,22.19-1.23,28.7-12.59,20.09-33.11l-.2-.49c1.64-2.13,4.08-5.69,5.28-6.27,5.43-2.63,12.84,2.3,17.06-3.43,6.58-9-3.41-16.33,10.16-22.59,5.87-2.71,8.27-2.05,10.29-8.31.93-2.86-1.54-8.41.69-11,0,0,5-.41,5.78-.85,6.83-3.74,9.93-5.72,13.12-12.78,1.45-3.2,5.49-10.54,5.43-14.77,12-2.53,20.27-10.72,23.92-23.65,3.61-12.75,1.69-20.77-5.78-26.91.49-3.67.56-8.53.16-9.74-1.52-4.65-7.56-5.83-7.38-11.44.22-6.92,8.23-6.1,10.32-10.27s-.35-7.81-2.43-11.27c-2.3-3.81-4.39-5.9-6.32-10.4-3-7.09-4-7.54-1.32-13.26.92-2,4.8-7.65,7.15-8.27.44-.11,14.29,8,11.07-1-2.29-6.38-8.11-7.62-13.71-8.2-1.48-.15-11.69,0-16,.18a9.14,9.14,0,0,0,.61-3.52c-.32-4.65-27.17-30.69-25-32.39,6.55-5.11,21.37,25.39,30.88,20.21,9.84-5.37-24.54-22.88-27.35-29.79,4.61.68,33.33,24.13,37.08,12.86,3.1-9.32-36.53-18.84-40.78-25.85,11,3.39,20.62,10.69,31.87,13.38,4.22,1,14.18,2.9,14.11-4.8-.05-5.46-7.68-6.42-11.43-7.89-20.14-7.91-43.51-14.06-61-27.11,15.44-8.78,69.49,37.33,79.71,17.09,8.62-17.08-67.25-24.74-69.15-34.73C418.56,49.69,438.38,63.32,459.65,61.82Zm-94.89,150c4.89,1,9.74,2.24,14.58,3.62,6,1.7,12,3.55,18.13,5,9.61,2.36,18.86,3.56,23.53,13.17s3,24.72,3.67,35l-2.22-2.47c-20.27-19.3-44.66-34.48-70.22-46.42-10.36-4.85-20.9-9.16-31.44-13C335.32,208.3,350.42,209.07,364.76,211.87Zm56.62,76.25a186.17,186.17,0,0,1-40,59.38,188.51,188.51,0,0,1-14,12.67c-.63-2.2-1.21-4.42-1.75-6.64a179.82,179.82,0,0,0,56.14-81.93,14.66,14.66,0,0,1,2.89,8.38Q423.07,284.08,421.37,288.12ZM301.07,26.25a5.33,5.33,0,0,1,1.69-2.08c.94-.65,1-.42,1.92-.73.65-.22.81-.58,1.21-1.1l.15-.59a1.65,1.65,0,0,1,2.07-1,11.59,11.59,0,0,1,3.79.45H312c-1,5.75.71,11.7,2.82,17.47-4.29-1.6-8.65-3.05-13.09-4.34C300.57,31.71,299.63,29,301.07,26.25ZM188.93,31.06c1.3-2.52,3.19-6,6.09-6.75,3.23-.83,8.34,3.3,11-.26,1.06-1.44.89-3.61,1-5.28.18-3,.36-6,.55-9a11.94,11.94,0,0,1,.21-2.07c.42-1.71.72-2.69,2.51-2s1.77,1.88,2.07,3.54.78,3.42,2.34,4.47c3.67,2.46,8.29,1,11.7-1,1.15-.68,2.8-1.64,4.21-1.16.79.27,1.71,1.75,2.48,2.38a6.25,6.25,0,0,0,5,1c4.55-.7,8.31-5.69,13.11-4.34,2,.56,3.68,1.9,5.56,2.72,2.51,1.09,4.63.59,7.27.52,2.89-.08,5.72.66,8.61.64A13.15,13.15,0,0,0,276,14c.58-.16,1.13-.38,1.69-.58s.84-.31,1.26-.44l2.84,2.35c.18,1-.93,2.77-1.25,3.73a17.76,17.76,0,0,0-.69,3,18.61,18.61,0,0,0,.46,7.49,189.26,189.26,0,0,0-93.75,8.11A26.89,26.89,0,0,1,188.93,31.06Zm-4.49,9.13a187.32,187.32,0,0,1,131.18.57c1,2.56,2,5.08,2.75,7.52l.09.31a179.9,179.9,0,0,0-136.8.94C182.57,46.42,183.51,43.31,184.44,40.19Zm-65.52,172c19.15,2.72,36,5.51,52.87,15.64a66.45,66.45,0,0,1,12.92,10c-34.83,6.79-71.92,3.58-105.78-4.27a31.27,31.27,0,0,1-3.65-1.06c-.56-5.76-.85-11.56-.85-17.4A177.92,177.92,0,0,1,77.53,182c.75,1.07,1.51,2.14,2.25,3.22C89.41,199.26,101.72,209.75,118.92,212.19Zm-1.54,53.67c-11.22,1.6-17.18,1-26.35-6.56-7.54-6.22-13.15-14.59-18-23,34.41,9.9,78.58,13.77,113.63,5.39A185.37,185.37,0,0,1,117.38,265.87Zm72.48-22.14a58.31,58.31,0,0,1,11.06,25.37c2.09,11.58.71,21.59-1.8,31.66l-.09.1c-11.17,12.66-25.56,21.08-38.86,31.15A209.53,209.53,0,0,1,134.68,348q-4.35-3.83-8.47-7.95a176.15,176.15,0,0,1-37.88-56.19q-2.54-6-4.62-12.15a216.19,216.19,0,0,0,22-.71,200.92,200.92,0,0,0,56.6-13,175.5,175.5,0,0,0,23.33-11.23C186,246.62,187.78,245.35,189.86,243.72ZM72.37,231.15c-3.94-2.39-5.38-6.11-6.5-12.59-.58-3.35-.33-11.53-3-15.52a185.66,185.66,0,0,1,5.36-33.87q3.62,4.82,7.09,9.7a180.39,180.39,0,0,0-3.67,36.25C71.65,220.52,71.9,225.86,72.37,231.15Zm-22.32-27c2.41-3.92,9.92-5.88,4.42-12.25-3.21-3.72-1.74-6.54-.89-11,1.63-8.52-1.34-12.31-4.29-20.18-1.46-3.91-.94-9.85-4-12.52-5.11-4.51-11,.87-15.61-4.52-1.37-1.59-1.54-5.73-2.69-7.64-1-1.61-4.79-1.24-5.22-3.21-1.21-5.58,1.1-1.79,4.51-1.55,7.95.56,5,3.21,11,7.35,2.6,1.79,10.89.64,13.51-.62,4.38,10.9,29.77-14.13,35.08-15.84C86.71,127.9,68,139,64.34,143.4c-7.24,8.74-6.55,12.23.11,20.8q1.27,1.63,2.51,3.27a188,188,0,0,0-5.65,34,4.24,4.24,0,0,0-1.3-.56c-2.43-.59-8.59,8.4-12.39,14.33A53.59,53.59,0,0,1,50.05,204.16Zm40.74,146.3c-8.16-.67-9.75-11-16.95-9.27-3.22.79-2.79,4.58-7.58,4.4-2.61-.1-6.88-2.82-8.81-4.66-5.34-5.07-5.86-7.92.78-9.47,5.68-1.33,16.74,7,16-3.43-.19-2.89-4-3.43-4.8-5.47-1.26-3.25-.48-4.1-.68-7.16-.54-8.52.2-18.77-3.7-27-1.71-3.62-5.42-6-6.8-9.78-.57-1.53-.38-6.36-.53-8.52q5.7.62,11.41,1A188.25,188.25,0,0,0,111.52,344q-.1.64-.18,1.37C103,343.15,98.72,351.12,90.79,350.46Zm20.07,11.07c-1.16,3.17-7.22,4.67-8.65,1.78s5.5-6.74,8.79-9.4c0,2.36,0,4.78.14,7.21A.71.71,0,0,0,110.87,361.53Zm20.95-11.92c-8.72,4.7-7.72,2.37-12.94-4.16-4.05-5.06-5.93-5.53-6.85-3.34a185.87,185.87,0,0,1-34.88-54q-3.52-8.32-6.19-16.89,4.9.32,9.81.47a179.74,179.74,0,0,0,51.33,77.76Zm50.64,47.15c-2.87,2.21-.71,9.58-7,7.54-4.21-1.37-2.66-10-4.94-13.1-.66-.89-9.59-5.85-13.34-8l2.66-1.9A187.34,187.34,0,0,0,195.19,396c0,.53.05,1.07.1,1.6C191.27,395.18,186.25,393.82,182.45,396.76Zm12.7-2.51a185.34,185.34,0,0,1-18.6-6.72c-5.19-2.2-10.25-4.64-15.19-7.27,2.59-1.81,5.19-3.6,7.77-5.43A178.22,178.22,0,0,0,195.91,386,49.51,49.51,0,0,0,195.15,394.25Zm4.52-22.1a91.14,91.14,0,0,0-3.22,11.08c-4.74-1.54-9.43-3.27-14.05-5.23q-5.48-2.31-10.75-5A106.77,106.77,0,0,0,184,362.73c-.36,6.65.58,12,4,13.77,6,3.14,8.59-10.87,10.81-15,.65-1.2,9.73-15.52,11.17-14.14C212.35,349.59,201.06,368.22,199.67,372.14Zm14.13,26.69q-3.13-.6-6.23-1.3a70.59,70.59,0,0,1,4.33-7.2q2.87.63,5.77,1.19C216.09,394.51,214.64,397.25,213.8,398.83Zm5.21-9.88q-2.72-.5-5.42-1.09c3.91-5.53,8.63-11,10.86-10C224.68,378,221.89,383.44,219,388.95ZM217.6,308.4c-6.12,14.7-18.11,37.79-31.74,46.71-.35.23-.71.45-1.07.65-13.68,7.65-36.17-2.94-50.67-2.85a486.22,486.22,0,0,0,51-33.88A113.33,113.33,0,0,0,197,308.62c11.81-11.75,21.84-25.68,32.84-37.83A220,220,0,0,1,217.6,308.4Zm57.81-178.32c-3.81,5.86-18-10-19.2-13.18l.43-1.25C261.45,110.23,278,126.08,275.41,130.08Zm2,246.47c3,1.3,5.09,6.35,7.1,12.19-1,.2-2.06.38-3.1.56C279.4,383.64,277,376.37,277.42,376.55Zm8.3,22.09c-.49-.83-1.07-1.79-1.8-3a33.81,33.81,0,0,1-1.53-3.71l3-.56c.76,2.29,1.52,4.63,2.32,6.85ZM275.4,106.28C266.06,100.44,254,97.86,244,92.95c-10.94-5.38-25.61-13.15-38.28-9.44-13.94,4.07,2.76,8.24,8.9,12.54,8.62,6,18.71,14.94,20,26s-5.64,21-13,28.62c-3.39,3.5-8.55,9.63-13.06,11.27-5.15,1.88-.9,3-5.66.18-7.31-4.33-14.05-22.44-16.86-29.83-4.71-12.42-6.55-25.2-7.51-38.37-.76-10.38-2.34-21.21-.17-31.5.67-3.17,1.48-6.33,2.35-9.48l1.7-.74a177.34,177.34,0,0,1,137-.24c2.9,11.36,2.52,23.22,2.08,35-.92,24.53-6.55,63.27-30.3,77.27-5.88-9.94,1.59-21.16,1.44-31.5C292.5,122,284.23,111.8,275.4,106.28Zm46.21,287.6c-2.68,1-6.91,4.31-7.18,5.5-1.15,5.06,6,7.39,4,12-3,7-11.84-2.75-15-5.32,1.12-2.76,1.44-6.59,1.33-10.47A187.31,187.31,0,0,0,325.1,388C322.88,390.81,321,392.09,321.62,393.88Zm6-9.77c-.22.44-.45.84-.68,1.23-1.64.75-3.28,1.49-4.95,2.2q-8.49,3.59-17.23,6.29c-.14-2.48-.42-4.92-.75-7.06a178.88,178.88,0,0,0,26.16-10.37A28.54,28.54,0,0,1,327.59,384.1Zm3-11q-5.2,2.62-10.6,4.91-8.13,3.43-16.5,6c-.23-1.23-.47-2.28-.67-3-2.66-10.2-15.67-24.47-12.34-34.95,6,4.9,8,13.15,10.26,20.14,2.19,6.71,1.32,14.62,8.5,10.29,11.37-6.85,2.23-42.25-.88-51.66-5.06-15.32-14.26-28.74-14.32-45.41a54.24,54.24,0,0,1,3.92-20.5c4.55,12.32,12.77,29.36,14.35,33.17,6.83,16.46,12.66,33.26,15.24,51C328.88,351.94,331.57,363,330.61,373.08Zm23.87-26.2c-4.28,11.6-13.35,23.53-21.13,33,4.64-18.3-2.25-44.79-7.62-62.39-6.64-21.76-16.84-42.18-25.32-63.23a284.43,284.43,0,0,1,47,59.56C353.6,324.57,359.06,334.5,354.48,346.89Zm4.9-16.65C353.63,314,343.42,300,333,286.42c-3.47-4.52-19.48-28-30-37.16a61,61,0,0,1,12.27-13.66c9.39-7.77,19.84-11.93,31-14.51a214.64,214.64,0,0,1,25.57,13.22,418.2,418.2,0,0,1,42.44,30.22,56.84,56.84,0,0,1,5.26,4.6q-2.4,7.49-5.48,14.79A176.15,176.15,0,0,1,376.2,340.1q-5.49,5.49-11.38,10.42A196.75,196.75,0,0,0,359.38,330.23Zm66.11-18c-2.89,2.24-7.77,2.66-10.16,4.25-3.47,2.32-2.07,3.54-3.7,10.48s-3.37,5.67-9.4,8.86c-8.76,4.62-8.51,6.56-9.65,15.83-1.2,9.72-2.36,8.42-10.94,9.59-3,.4-5.77-.27-8.49,1.56a51.73,51.73,0,0,0-3.49,4.63c-.68-1.81-1.29-3.65-1.85-5.49a189,189,0,0,0,56.08-75.54c-.85,3.83-1.32,4.12,6.28,4.08a40.88,40.88,0,0,0,7.79-.77C436.58,294.56,428.9,309.56,425.49,312.2Zm12-155.35c4.3,1.47,17.73-.54,19.71-.08,2.16.5,13.17,8.15,6.8,9.65-2.91.69-5.34-4.52-8.05-4-5.39,1.09-2.18,3.72-4.78,6.59-5.47,6-6.61,4.44-3.57,13.44.89,2.65,1.6,6.37,3,8.81s6.1,5.44,7,7.89c2.6,7-.32,5.65-3.74,9.66-5,5.83-7.86,8-3.65,15.82,1.93,3.58,3.89,2.41,5.26,6.83.34,1.11-.27,3.68-.77,6.15a53.18,53.18,0,0,0-9.54-5.16q-4-1.71-7.91-3.3.49-6.83.5-13.78,0-4-.17-8c4.72-1.92,17.76-.11,12.45-8.27-2.4-3.68-9.65-7.68-13.4-4.29a187.47,187.47,0,0,0-5.22-28A59.27,59.27,0,0,0,437.46,156.85Zm-.61,40.43c1.67-3,5.92-2.07,8.39-.53,1.77,1.1,6.12,4.83,3,7.1-.86.63-3.12.46-4.21.6l-3,.38a16.4,16.4,0,0,0-3.58.7Q437.24,201.38,436.85,197.28Zm-6.73-28.72a185.08,185.08,0,0,1,5,28.49.82.82,0,0,0,0,.29q.43,4.51.65,9.07l0,0a.93.93,0,0,0,.09,1.52c.1,2.48.16,5,.16,7.47,0,4.4-.16,8.78-.46,13.13q-2.59-1-5.19-2,.36-5.65.36-11.41A179.89,179.89,0,0,0,426,174C427.13,172.51,428.59,170.62,430.12,168.55ZM407.9,197.71a223.23,223.23,0,0,0,16-20.66A177,177,0,0,1,428,215.11q0,5.21-.31,10.38A349.86,349.86,0,0,0,387,213.19C394.31,210.38,400.72,205.87,407.9,197.71Z"/></g></svg>