<svg xmlns="http://www.w3.org/2000/svg" viewBox="0 0 500 500"><defs><style>.cls-1{fill:gray;}.cls-2{fill:#546591;}.cls-3{fill:#fff;}.cls-4{fill:#635918;}.cls-5{fill:#c9bf4d;}</style></defs><title>republic-of-the-sphere_COLOR</title><g id="n5"><path class="cls-1" d="M287.66,0H219.34C106.85,16.53,20.5,113.42,20.5,230.5c0,128.68,104.32,233,233,233s233-104.32,233-233C486.5,113.42,400.15,16.53,287.66,0Z"/></g><g id="n4"><path class="cls-2" d="M340.8,183.54c13.11-.84,14.77,47.86,14.45,56.64-3.56-11-6.36-23.52-11.34-34.73-13.42,18.81-35.68-2.9-42.08,27.8-4.38,21,.44,40.2,22.79,41.85,12.66.93,17-3.59,17.61,11.84.38,9-6.36,16.7-11.52,23.62-6.43,8.63-60.22,49.34-53.21,21.48-29.69,17.09-79.25,9.88-100.58-16.73-35.9-18.83,16.36-48,17.29-66.16,1-18.71-16.49-23.45-30.68-22.68-5.9.32-8.56,4.79-14.85,2.67-9.33-3.14,12.25-15.09-3.76-11.81q5-9.22.15-8.71c5-5.51,14.5-12.27,22.38-10.42,2.41.57,11.54,9.87,11.43,9.93,3.3-2.22.59-15.4,1.55-19.16,2.8-11,11.06-20.56,18.49-28.72-11.77-5.56-3-8.85,6.83-3.51,1.18-5.83-13.16-25.83-2.78-30.14,8.83-3.67,2.37,8.73,5.77,11.92,7.74,7.25,10.1,3.85,18.79,7.3A218.93,218.93,0,0,1,223,122.45c17.41-5.05,48.4-10,64.87-.44,11.08,6.46,4.28,13.2,8.9,20.21,3.61,5.47,16.18,9.94,21.8,14.82A108.9,108.9,0,0,1,340.8,183.54Z"/></g><g id="n3"><path class="cls-3" d="M351.79,196.17c-9.66-27.86-52.35-63.72-83.06-62.17,44.52,15.05,73.82,64.22,86.73,106.57C357.64,227.47,356,208.23,351.79,196.17Z"/></g><g id="n2"><path class="cls-4" d="M262.86,112.44c-11.79-7.17-17.18-.78-27.29.59l-.07-8c6.71,2.73,13.55.19,20.51,1.68,1.72.37,9.76-1.05,10.48.08C268.72,110.35,266.28,112.76,262.86,112.44Z"/><path class="cls-4" d="M244.37,89.1c2.29-3,4.73-5.87,7.11-8.78C256,95.31,244.88,88.43,244.37,89.1Z"/><path class="cls-4" d="M241.12,66.45c-1.44,2.47-3.69,4.76-5.44,7a65.5,65.5,0,0,1,0-13.7C237.43,61.92,239.67,64.09,241.12,66.45Z"/><path class="cls-4" d="M247.09,46.78c2.18,1.21,5.09.88,7.11,3.86L252.36,53Z"/><path class="cls-4" d="M266.58,73.91c-.88-4-2.79-5.28-.7-8.43C266.74,68.37,266.08,71.07,266.58,73.91Z"/><path class="cls-4" d="M247.62,27.73A15.43,15.43,0,0,0,235.94,33a9.83,9.83,0,0,1-1-6.5c7.11,0,27.14-3.74,32.7,0,1.51,1,1.24,8.15-1.17,9.45C265.63,36.42,250.58,27.77,247.62,27.73Z"/><path class="cls-4" d="M285.45,8.68V116.83c-2.82-.84-6.08-61.77-6.25-69.38-.18-8,11.17-28.31,4-36.84-3.31-3.92-34.91,0-40.24,0-17.82,0-20.21-4.76-22.79,11-1.71,10.42.55,22.81.44,32.14-.08,7.62,3.75,61.1-3.08,63.18,0-30.58-6.78-68.9,0-98.53,3.13-13.69,1.47-9.77,19.42-9.77Z"/><path class="cls-4" d="M262.47,388.94l5.07-5.93c2.46,18.36.59,38.08.59,56.69-11.39-14.17-21.87-15.49-33.12-.53V423.64c4.14,2.66,28.06,5.93,31.67,2.3C271.42,421.2,266.73,394.23,262.47,388.94Z"/><path class="cls-4" d="M243.84,410.08c1.69-2.69,4.59-5.14,6.72-7.51C253.68,409.23,251.1,411.55,243.84,410.08Z"/><path class="cls-4" d="M239.23,387.89l-3.69,4.61a36.75,36.75,0,0,1,0-8.82Z"/><path class="cls-4" d="M245,368.66c3.73-1.22,5.89-3.1,9.81-.2l-5.07,5.4Z"/><path class="cls-4" d="M260.37,350.95l6.39-.66a9.22,9.22,0,0,1-.79,4.94Z"/><path class="cls-4" d="M284.93,488.39l-33.45-38-34,37.75V346c9.86,2.87,2.5,122.1,2.5,135.11l31.39-35L282.91,480c0-14.34-8.39-131.79,2.33-135.15C285.24,392.37,288.51,441,284.93,488.39Z"/></g><g id="n1"><path class="cls-5" d="M278.74,115c-13.67-3.22-7.27-24.8-7.64-37.75-.23-8.3-3-17.76,3.64-23.4C285.49,67.93,278.74,98.41,278.74,115Z"/><path class="cls-5" d="M244.11,95.73c13,3.58,15.42-7.23,11.9-17.75-3.23-9.64-24.48-19.22-12-27.78,11.31,13.52,22.17,22.41,17.87,41.7-1.45,6.51,1.84,6.95-3.53,10.4-4.33,2.78-17.29.44-21.53-2.41C239.18,94.77,240.85,95.15,244.11,95.73Z"/><path class="cls-5" d="M261.14,63.55c-16.77-12,28.9-30.91,5.71-41.44-3.13-1.42-34.71-2.11-36.57,0-5.59,6.34,6.51,13.78-3.12,20.81-2.81-5.47-5.28-17.95-2.48-23C229.44,11.21,245,15,257.49,15c17,0,23.52-4.5,21.25,15C277.06,44.42,270.15,51.37,261.14,63.55Z"/><path class="cls-5" d="M224.67,56.49c4.49-17.37,24.49-31.66,38.4-15.93-6.3,12.24-18-5.41-28.69,12.57-6.27,10.58.55,24.39-9.85,32.74C224.46,76.14,224.23,65.85,224.67,56.49Z"/><path class="cls-5" d="M227.42,90.59c5.64-6.73,11.35-13.41,17-20.1,10.68,8.07-5.8,15.08-9.8,22.86-4.82,9.35.43,19.2-10.56,21.84C224.09,107,221.76,97.35,227.42,90.59Z"/><path class="cls-5" d="M278.21,362.14c-5.09,8.33-12.63,15.91-18.83,23.44-11.66-7.38,12.69-37.14,19.67-38.94C279.24,350.18,280.06,359.12,278.21,362.14Z"/><path class="cls-5" d="M251.48,439.18l-27,30.29c.37-14.15-1.09-28.65.13-42.74,1.3-15,8.09-22.11,17.25-35,12.89,9.4-4.14,14.68-8.58,24.07-5,10.66-2.87,24.43-2.87,36.24,3.82-4.47,13.47-20.81,20.28-21.07,6.61-.26,18.51,16.18,22.56,20.16-.12-15.56-9.31-69.87,3.38-78.23,11,25.6,3,68.19,2.24,95.48C269.21,459.39,260.53,449,251.48,439.18Z"/><path class="cls-5" d="M261.88,403.36c-.06,5.71,1.59,15.12-1.93,17.78-4,3-19.21-.2-23.49-2.11,6.64-11,24.34,3.72,19.23-16.33-2.85-11.18-25.93-20.37-13.7-30.29C249.2,380.9,262.69,391.18,261.88,403.36Z"/><path class="cls-5" d="M248.32,361.88c-21.91.55-12.58,35.1-23.7,44.25-.17-12-1.92-24.21,3.4-35.14,6.53-13.41,21.63-24.48,34.79-12.14C257.84,367.43,256.29,361.68,248.32,361.88Z"/><path class="cls-5" d="M224.61,357.66c-.69-2.86,0-6.89,0-9.84,10.07,2.23,7.47,12.87-.26,18.27C224.43,363.38,224.17,360.34,224.61,357.66Z"/></g><g id="Base"><path d="M131.9,164.34c-1.45-2.79-4.66-5.52-6.69-7.94-1.26,3.1-4.06,5.9-5,9.11.49-3.3-.9-7-.75-10.35-2.84,1.77-6.75,2.38-9.39,4.44,2.34-2.38,3.4-6.2,5.48-8.82-3.34-.24-6.86-2-10.2-1.93,3.29-.55,6.39-3,9.62-3.91-2.56-2.15-4.35-5.68-7.12-7.55,3,1.49,6.94,1.31,10.08,2.49-.81-3.25-.18-7.16-1.32-10.3,1.54,3,4.85,5.14,6.69,7.94,1.26-3.1,4.06-5.9,5-9.11-.49,3.3.9,7,.75,10.35,2.84-1.77,6.75-2.38,9.39-4.44-2.34,2.38-3.4,6.2-5.48,8.82,3.34.24,6.86,2,10.2,1.93-3.29.55-6.39,3-9.62,3.91,2.56,2.15,4.35,5.68,7.12,7.55-3-1.49-6.94-1.31-10.08-2.49C131,157.18,130.83,161.38,131.9,164.34Z"/><path d="M109.85,252.71c-1.3-2.87-4.34-5.77-6.24-8.3-1.43,3-4.38,5.66-5.49,8.81.68-3.27-.5-7-.17-10.38-2.93,1.61-6.87,2-9.62,3.91,2.47-2.25,3.74-6,6-8.5-3.32-.42-6.74-2.42-10.08-2.49,3.32-.37,6.55-2.66,9.82-3.37-2.44-2.29-4-5.92-6.69-7.94,2.9,1.65,6.86,1.7,9.92,3-.63-3.29.22-7.16-.74-10.35,1.38,3,4.55,5.41,6.24,8.3,1.43-3,4.38-5.66,5.49-8.81-.68,3.27.5,7,.17,10.38,2.93-1.61,6.87-2,9.62-3.91-2.47,2.25-3.74,6-6,8.5,3.32.42,6.74,2.42,10.08,2.49-3.32.37-6.55,2.66-9.82,3.37,2.44,2.29,4,5.92,6.69,7.94-2.9-1.65-6.86-1.7-9.92-3C109.33,245.51,108.94,249.69,109.85,252.71Z"/><path d="M130.82,334.57c-.9-3-3.52-6.31-5.06-9.07-1.82,2.81-5.11,5-6.63,8,1.11-3.15.45-7.05,1.24-10.31-3.13,1.2-7.08,1.06-10.06,2.57,2.75-1.89,4.51-5.44,7.06-7.61-3.23-.87-6.35-3.31-9.65-3.83,3.34.08,6.85-1.75,10.19-2-2.11-2.6-3.19-6.41-5.55-8.77,2.65,2,6.57,2.61,9.42,4.36-.17-3.34,1.18-7.06.66-10.36,1,3.2,3.78,6,5.06,9.07,1.82-2.81,5.11-5,6.63-8-1.11,3.15-.45,7.05-1.24,10.31,3.13-1.2,7.08-1.06,10.06-2.57-2.75,1.89-4.51,5.44-7.06,7.61,3.23.87,6.35,3.31,9.65,3.83-3.34-.08-6.85,1.75-10.19,2,2.11,2.6,3.19,6.41,5.55,8.77-2.65-2-6.57-2.61-9.42-4.36C131.29,327.36,130.33,331.46,130.82,334.57Z"/><path d="M193.59,385.71c-.87-3-3.46-6.34-5-9.12-1.85,2.79-5.16,5-6.71,7.92,1.14-3.14.53-7,1.34-10.29-3.14,1.17-7.09,1-10.08,2.47,2.77-1.87,4.57-5.39,7.13-7.54-3.22-.9-6.32-3.37-9.61-3.93,3.34.12,6.86-1.68,10.2-1.91-2.08-2.62-3.13-6.44-5.46-8.83,2.63,2.06,6.54,2.68,9.38,4.46-.14-3.34,1.25-7,.77-10.35.92,3.21,3.72,6,5,9.12,1.85-2.79,5.16-5,6.71-7.92-1.14,3.14-.53,7-1.34,10.29,3.14-1.17,7.09-1,10.08-2.47-2.77,1.87-4.57,5.39-7.13,7.54,3.22.9,6.32,3.37,9.61,3.93-3.34-.12-6.86,1.68-10.2,1.91,2.08,2.62,3.13,6.44,5.46,8.83-2.63-2.06-6.54-2.68-9.38-4.46C194.12,378.5,193.13,382.59,193.59,385.71Z"/><path d="M321.54,385.58c-1.45-2.79-4.66-5.52-6.69-7.94-1.26,3.1-4.06,5.9-5,9.11.49-3.3-.9-7-.75-10.35-2.84,1.77-6.75,2.38-9.39,4.44,2.34-2.38,3.4-6.2,5.48-8.82-3.34-.24-6.86-2-10.2-1.93,3.29-.55,6.39-3,9.62-3.91-2.56-2.15-4.35-5.68-7.12-7.55,3,1.49,6.94,1.31,10.08,2.49-.81-3.25-.18-7.16-1.32-10.3,1.54,3,4.85,5.14,6.69,7.94,1.26-3.1,4.06-5.9,5-9.11-.49,3.3.9,7,.75,10.35,2.84-1.77,6.75-2.38,9.39-4.44-2.34,2.38-3.4,6.2-5.48,8.82,3.34.24,6.86,2,10.2,1.93-3.29.55-6.39,3-9.62,3.91,2.56,2.15,4.35,5.68,7.12,7.55-3-1.49-6.94-1.31-10.08-2.49C320.62,378.42,320.47,382.62,321.54,385.58Z"/><path d="M384.24,334.17c-1.37-2.83-4.49-5.66-6.46-8.13-1.35,3.07-4.23,5.78-5.25,9,.59-3.29-.69-7-.45-10.37-2.89,1.69-6.82,2.19-9.51,4.16,2.41-2.31,3.57-6.1,5.73-8.65-3.33-.33-6.8-2.24-10.14-2.22,3.31-.46,6.48-2.83,9.73-3.63-2.5-2.23-4.19-5.81-6.9-7.76,2.95,1.58,6.9,1.52,10,2.78-.71-3.27,0-7.16-1-10.33,1.46,3,4.69,5.28,6.46,8.13,1.35-3.07,4.23-5.78,5.25-9-.59,3.29.69,7,.45,10.37,2.89-1.69,6.82-2.19,9.51-4.16-2.41,2.31-3.57,6.1-5.73,8.65,3.33.33,6.8,2.24,10.14,2.22-3.31.46-6.48,2.83-9.73,3.63,2.5,2.23,4.19,5.81,6.9,7.76-2.95-1.58-6.9-1.52-10-2.78C383.53,327,383.25,331.18,384.24,334.17Z"/><path d="M405.79,253.12c-.94-3-3.61-6.26-5.18-9-1.79,2.83-5,5.09-6.52,8.08,1.07-3.16.36-7.06,1.09-10.32-3.11,1.24-7.07,1.15-10,2.71,2.73-1.93,4.44-5.5,7-7.71-3.25-.82-6.39-3.22-9.7-3.7,3.34,0,6.82-1.84,10.16-2.15-2.14-2.57-3.28-6.36-5.67-8.7,2.68,2,6.6,2.52,9.48,4.23-.22-3.34,1.09-7.08.52-10.37,1,3.19,3.86,5.92,5.18,9,1.79-2.83,5-5.09,6.52-8.08-1.07,3.16-.36,7.06-1.09,10.32,3.11-1.24,7.07-1.15,10-2.71-2.73,1.93-4.44,5.5-7,7.71,3.25.82,6.39,3.22,9.7,3.7-3.34,0-6.82,1.84-10.16,2.15,2.14,2.57,3.28,6.36,5.67,8.7-2.68-2-6.6-2.52-9.48-4.23C406.15,245.91,405.25,250,405.79,253.12Z"/><path d="M194.13,116.65c-1.63-2.69-5-5.2-7.2-7.48-1,3.18-3.66,6.15-4.37,9.41.27-3.33-1.36-6.94-1.43-10.28-2.72,2-6.58,2.82-9.07,5,2.18-2.53,3-6.41,4.89-9.16-3.35,0-7-1.58-10.31-1.25,3.25-.77,6.18-3.43,9.34-4.54-2.7-2-4.72-5.38-7.6-7.07,3.08,1.29,7,.85,10.22,1.82-1-3.19-.65-7.13-2-10.19,1.73,2.85,5.17,4.81,7.2,7.48,1-3.18,3.66-6.15,4.37-9.41-.27,3.33,1.36,6.94,1.43,10.28,2.72-2,6.58-2.82,9.07-5-2.18,2.53-3,6.41-4.89,9.16,3.35,0,7,1.58,10.31,1.25-3.25.77-6.18,3.43-9.34,4.54,2.7,2,4.72,5.38,7.6,7.07-3.08-1.29-7-.85-10.22-1.82C192.75,109.57,192.87,113.77,194.13,116.65Z"/><path d="M322.89,119.53c-.78-3.05-3.27-6.44-4.7-9.26-1.93,2.73-5.3,4.81-6.93,7.73,1.23-3.1.73-7,1.64-10.25-3.17,1.08-7.12.78-10.15,2.17,2.82-1.78,4.72-5.26,7.35-7.33-3.2-1-6.22-3.55-9.49-4.21,3.33.22,6.91-1.48,10.26-1.61-2-2.68-2.94-6.53-5.21-9,2.57,2.13,6.46,2.87,9.24,4.73,0-3.35,1.46-7,1.07-10.33.83,3.24,3.54,6.12,4.7,9.26,1.93-2.73,5.3-4.81,6.93-7.73-1.23,3.1-.73,7-1.64,10.25,3.17-1.08,7.12-.78,10.15-2.17-2.82,1.78-4.72,5.26-7.35,7.33,3.2,1,6.22,3.55,9.49,4.21-3.33-.22-6.91,1.48-10.26,1.61,2,2.68,2.94,6.53,5.21,9-2.57-2.13-6.46-2.87-9.24-4.73C323.64,112.35,322.53,116.41,322.89,119.53Z"/><path d="M383.73,165.89c-.78-3.05-3.27-6.44-4.7-9.26-1.93,2.73-5.3,4.81-6.93,7.73,1.23-3.1.73-7,1.64-10.25-3.17,1.08-7.12.78-10.15,2.17,2.82-1.78,4.72-5.26,7.35-7.33-3.2-1-6.22-3.55-9.49-4.21,3.33.22,6.91-1.48,10.26-1.61-2-2.68-2.94-6.53-5.21-9,2.57,2.13,6.46,2.87,9.24,4.73,0-3.35,1.46-7,1.07-10.33.83,3.24,3.54,6.12,4.7,9.26,1.93-2.73,5.3-4.81,6.93-7.73-1.23,3.1-.73,7-1.64,10.25,3.17-1.08,7.12-.78,10.15-2.17-2.82,1.78-4.72,5.26-7.35,7.33,3.2,1,6.22,3.55,9.49,4.21-3.33-.22-6.91,1.48-10.26,1.61,2,2.68,2.94,6.53,5.21,9-2.57-2.13-6.46-2.87-9.24-4.73C384.48,158.71,383.37,162.76,383.73,165.89Z"/><path d="M252.13,150.66q4.21-2.06,6.24,2.11-7,4.14-5.48-2.39"/><path d="M275.11,167.19c-.16-.55.74,12.9-2.22,7a7.6,7.6,0,0,1,1.77-6.81"/><path d="M278.4,160.84c8.5-8,12.87,10.42,4,17.65a30.93,30.93,0,0,0-3.75-17.55"/><path d="M309.31,158.89c-5.45,8.93-18.5,14.62-21,25.25-1.7,7.21,3.08,25,11.7,25.39,11.55.48,6.15-11,11.85-16.69,9.42-9.36,21.72,2.44,16.49,6.44C346.72,201.87,316.33,165.17,309.31,158.89Z"/><path d="M438.48,231.5A186.26,186.26,0,0,0,353.56,75.15C336.09,63.75,314.22,61,297.32,50.59c-14.91-9.16-4,3.12-8.18-9.93-1.7-5.33,0-14.56,0-20,0-14.95,2.73-12.32-6.85-16.22-7.58-3.09-62.2-5.05-68.44,0-3.11,2.52-.3,24-.3,28.23,0,22-7.2,16.68-27.75,24.49a187.42,187.42,0,0,0-92.05,75.73c-45.65,73.33-34,171.2,27.68,231.71a187.38,187.38,0,0,0,53,36.5c13.75,6.29,34.86,6.54,39.08,19.17,7,20.91,0,55.12,0,77.49,13.9-10.47,26.08-27.84,38-41.09,12.11,13.49,24.06,29.5,37.58,41.09V441.39c0-4.79-2.59-21.6,0-25.79,2.94-4.75,32.36-10.85,39.4-14C394.77,371.74,438.48,304.14,438.48,231.5Zm-97.68-48c13.11-.84,14.77,47.86,14.45,56.64-3.56-11-6.36-23.52-11.34-34.73-13.42,18.81-35.68-2.9-42.08,27.8-4.38,21,.44,40.2,22.79,41.85,12.66.93,17-3.59,17.61,11.84.38,9-6.36,16.7-11.52,23.62-6.43,8.63-60.22,49.34-53.21,21.48-29.69,17.09-79.25,9.88-100.58-16.73-35.9-18.83,16.36-48,17.29-66.16,1-18.71-16.49-23.45-30.68-22.68-5.9.32-8.56,4.79-14.85,2.67-9.33-3.14,12.25-15.09-3.76-11.81q5-9.22.15-8.71c5-5.51,14.5-12.27,22.38-10.42,2.41.57,11.54,9.87,11.43,9.93,3.3-2.22.59-15.4,1.55-19.16,2.8-11,11.06-20.56,18.49-28.72-11.77-5.56-3-8.85,6.83-3.51,1.18-5.83-13.16-25.83-2.78-30.14,8.83-3.67,2.37,8.73,5.77,11.92,7.74,7.25,10.1,3.85,18.79,7.3A218.93,218.93,0,0,1,223,122.45c17.41-5.05,48.4-10,64.87-.44,11.08,6.46,4.28,13.2,8.9,20.21,3.61,5.47,16.18,9.94,21.8,14.82A108.9,108.9,0,0,1,340.8,183.54Zm-62.59,178.6c-5.09,8.33-12.63,15.91-18.83,23.44-11.66-7.38,12.69-37.14,19.67-38.94C279.24,350.18,280.06,359.12,278.21,362.14Zm-26.73,77-27,30.29c.37-14.15-1.09-28.65.13-42.74,1.3-15,8.09-22.11,17.25-35,12.89,9.4-4.14,14.68-8.58,24.07-5,10.66-2.87,24.43-2.87,36.24,3.82-4.47,13.47-20.81,20.28-21.07,6.61-.26,18.51,16.18,22.56,20.16-.12-15.56-9.31-69.87,3.38-78.23,11,25.6,3,68.19,2.24,95.48C269.21,459.39,260.53,449,251.48,439.18Zm11-50.24,5.07-5.93c2.46,18.36.59,38.08.59,56.69-11.39-14.17-21.87-15.49-33.12-.53V423.64c4.14,2.66,28.06,5.93,31.67,2.3C271.42,421.2,266.73,394.23,262.47,388.94Zm-.59,14.42c-.06,5.71,1.59,15.12-1.93,17.78-4,3-19.21-.2-23.49-2.11,6.64-11,24.34,3.72,19.23-16.33-2.85-11.18-25.93-20.37-13.7-30.29C249.2,380.9,262.69,391.18,261.88,403.36Zm-18,6.72c1.69-2.69,4.59-5.14,6.72-7.51C253.68,409.23,251.1,411.55,243.84,410.08Zm-4.61-22.19-3.69,4.61a36.75,36.75,0,0,1,0-8.82ZM245,368.66c3.73-1.22,5.89-3.1,9.81-.2l-5.07,5.4Zm3.29-6.78c-21.91.55-12.58,35.1-23.7,44.25-.17-12-1.92-24.21,3.4-35.14,6.53-13.41,21.63-24.48,34.79-12.14C257.84,367.43,256.29,361.68,248.32,361.88Zm12-10.93,6.39-.66a9.22,9.22,0,0,1-.79,4.94Zm-35.75,6.72c-.69-2.86,0-6.89,0-9.84,10.07,2.23,7.47,12.87-.26,18.27C224.43,363.38,224.17,360.34,224.61,357.66ZM278.74,115c-13.67-3.22-7.27-24.8-7.64-37.75-.23-8.3-3-17.76,3.64-23.4C285.49,67.93,278.74,98.41,278.74,115Zm-15.87-2.61c-11.79-7.17-17.18-.78-27.29.59l-.07-8c6.71,2.73,13.55.19,20.51,1.68,1.72.37,9.76-1.05,10.48.08C268.72,110.35,266.28,112.76,262.86,112.44ZM244.11,95.73c13,3.58,15.42-7.23,11.9-17.75-3.23-9.64-24.48-19.22-12-27.78,11.31,13.52,22.17,22.41,17.87,41.7-1.45,6.51,1.84,6.95-3.53,10.4-4.33,2.78-17.29.44-21.53-2.41C239.18,94.77,240.85,95.15,244.11,95.73Zm.26-6.63c2.29-3,4.73-5.87,7.11-8.78C256,95.31,244.88,88.43,244.37,89.1Zm-3.25-22.65c-1.44,2.47-3.69,4.76-5.44,7a65.5,65.5,0,0,1,0-13.7C237.43,61.92,239.67,64.09,241.12,66.45Zm6-19.67c2.18,1.21,5.09.88,7.11,3.86L252.36,53Zm19.49,27.13c-.88-4-2.79-5.28-.7-8.43C266.74,68.37,266.08,71.07,266.58,73.91Zm-5.44-10.36c-16.77-12,28.9-30.91,5.71-41.44-3.13-1.42-34.71-2.11-36.57,0-5.59,6.34,6.51,13.78-3.12,20.81-2.81-5.47-5.28-17.95-2.48-23C229.44,11.21,245,15,257.49,15c17,0,23.52-4.5,21.25,15C277.06,44.42,270.15,51.37,261.14,63.55ZM247.62,27.73A15.43,15.43,0,0,0,235.94,33a9.83,9.83,0,0,1-1-6.5c7.11,0,27.14-3.74,32.7,0,1.51,1,1.24,8.15-1.17,9.45C265.63,36.42,250.58,27.77,247.62,27.73ZM224.67,56.49c4.49-17.37,24.49-31.66,38.4-15.93-6.3,12.24-18-5.41-28.69,12.57-6.27,10.58.55,24.39-9.85,32.74C224.46,76.14,224.23,65.85,224.67,56.49Zm2.75,34.11c5.64-6.73,11.35-13.41,17-20.1,10.68,8.07-5.8,15.08-9.8,22.86-4.82,9.35.43,19.2-10.56,21.84C224.09,107,221.76,97.35,227.42,90.59Zm58-81.91V116.83c-2.82-.84-6.08-61.77-6.25-69.38-.18-8,11.17-28.31,4-36.84-3.31-3.92-34.91,0-40.24,0-17.82,0-20.21-4.76-22.79,11-1.71,10.42.55,22.81.44,32.14-.08,7.62,3.75,61.1-3.08,63.18,0-30.58-6.78-68.9,0-98.53,3.13-13.69,1.47-9.77,19.42-9.77Zm-105,392.22C18.9,332.57,41.65,88.28,213.55,51.69V87.91c0,6.31,2.31,18.89,0,24.86-2.95,7.62-.61,3.09-10.13,9.61-37.81,25.9-65.9,53.82-69.49,102.78A117.51,117.51,0,0,0,197.48,338c20.19,10.35,16.07,11.26,16.07,34.2v39.09A183.53,183.53,0,0,1,180.45,400.9Zm104.48,87.49-33.45-38-34,37.75V346c9.86,2.87,2.5,122.1,2.5,135.11l31.39-35L282.91,480c0-14.34-8.39-131.79,2.33-135.15C285.24,392.37,288.51,441,284.93,488.39Zm38.64-87.49a182.57,182.57,0,0,1-34.42,10.69c0-18-7.06-57.59,3.69-69.44C299,335.33,316,330.9,323.9,324.9a125.32,125.32,0,0,0,22.64-22.1,115.69,115.69,0,0,0,25-67.6,118.6,118.6,0,0,0-20.06-69.63c-14.84-22.1-35.17-29-54.42-44.61-9.16-7.42-4.89-1-7.91-10.36-2-6.28,0-16.47,0-23V51.42C461.88,86.82,485.8,332.28,323.56,400.9Z"/><path d="M304.69,154.9q-3,4.3,3.81,3.27Z"/><path d="M299.23,157.49q6.09-7.44-4.52-10.47C293.57,149.76,293.19,159.43,299.23,157.49Z"/><path d="M323.49,23.36c7.45,2.57,8.06,13.48-.9,12.61,2.29,2.92,2.56,11.14,3.61,13.6-8.83-3.14-2.21-10.24-9.44-15-.4,2.59-.61,11.82-.52,11.61a55.5,55.5,0,0,1-9.38-3.23c7.05-2.29,11.41-17,7.92-22.54A87.13,87.13,0,0,1,323.49,23.36ZM323,24.74c-3.93-1.35-5.45,4.57-5.68,8.23C321.82,33.4,332.84,28.14,323,24.74Z"/><path d="M354.36,42.72c-2.62-.25-8.05-15.39-11.16.47,2.52-.19,4.86,1.48,7.59.91l-3.17,6.34c-1.08-2.9-3.19-3-5.16-5.78-11.11,12.5,4.56,7.74,7.13,9.45-4,8.82-10.91,1.4-18.18-2.24,10.8-1.93,8.32-17.17,10.84-21.29C348.71,33.81,358.86,34.79,354.36,42.72Z"/><path d="M374.65,48.8c16.07,10.76-9.89,10.34-9.24,9.94-4.35,2.71-4.15,6.8-3.55,10.26a55.38,55.38,0,0,1-8.28-5.54c10.92-.63,10.39-16,13.41-19.78A87.13,87.13,0,0,1,374.65,48.8Zm.28,8.08c2.44-3.65-.23-6.72-3.5-8.16a30.71,30.71,0,0,0-5.6,8.36C368.48,59.2,372.66,60.28,374.94,56.88Z"/><path d="M392.89,83.92c-11.16,12.68-12.69-6.86-11.3-12.59,1.55-6.38,7.76-6.52,6.86-12.83A48.82,48.82,0,0,1,396,65.12c-4.77-.39-20.32,11.56-13.23,18,9.5,8.68,16-14.55,16.62-15.06a36.17,36.17,0,0,1,6.8,6C400.89,73.79,396.49,78.14,392.89,83.92Z"/><path d="M416.29,120.59c1,.55,8.86,6.16,8.73,5.8-8,5-9.37-3-14.14-10.16,10.29,3.49,15.8-11.23,20-13.11a49.33,49.33,0,0,1,5.5,8.25C429.54,109.32,423.2,116,416.29,120.59Z"/><path d="M423.1,135.43c9.91,4.71,16.75-9.12,21.2-11a55.48,55.48,0,0,1,4.64,8.77c-5.52,2.35-19.22,1.54-21.18,11C426.22,141.33,424.41,138.44,423.1,135.43Z"/><path d="M434.23,159.51c-4.41-11,13.52-18.66,20-11.79,10.05,10.65-2,8.62-2.54,8.85,3.93-1.68,5.72-6.42-.5-8.49-13.38-4.46-16.48,11.66-10.68,17.08A10.53,10.53,0,0,1,434.23,159.51Z"/><path d="M454.84,183.68c16.62-3.09,17.75,16.57,3.54,19.27C442.7,205.93,440,186.43,454.84,183.68Zm-8.29,8.24c-3.5,8.64,9.61,9.32,14.3,6.76C477.06,189.85,451.26,180.31,446.55,191.92Z"/><path d="M466.7,227.74c-.5-1.12,3.61-5.88,3-10-2.34-.24-7-.2-9.23.49,1.41,2.09,1.18,4.95,3,7.05l-7.08.38c1.52-2,1.26-5.25,2.44-7.34-6.35,1.5-7.81-.33-10.91,3.92a55.79,55.79,0,0,1-.53-10c7,8.44,19-1.24,23.87-1.09C471.66,218.42,475.82,227.73,466.7,227.74Z"/><path d="M465.07,252.89c1.35-.78,2.94-2.17,6.32-.74q-1.53,9.07-2.46,18.21l-6.11-.83A8.7,8.7,0,0,1,463,268q6.17,1,5.17-5.37c-6.32-.86-20.39.77-22.53.31A48.44,48.44,0,0,1,447,253c3.92,6.09,13.25,5.3,21.61,6.43Q471.3,253.64,465.07,252.89Z"/><path d="M450.5,292.28c9-14.53-6-8.19-9.18-9.33a52.63,52.63,0,0,1,2.64-9.45c4.2,9.76,18.28,4.86,23,6.6a46.14,46.14,0,0,1-2.64,9.45c-2.33-5.59-3.62-3.41-9.37-6.26-9,14.39,5.6,8.05,8.56,9.16a41.79,41.79,0,0,1-2.63,9.42c-5.71-2.67-15.14-11.6-23-6.57a45.64,45.64,0,0,1,2.64-9.45C442.15,291.54,445,289.67,450.5,292.28Z"/><path d="M446,323.62c.11-2.63,14.93-8.87-1.07-11.12.32,2.51-1.21,4.93-.5,7.63l-6.51-2.82c2.84-1.23,2.82-3.35,5.5-5.46-13.09-10.42-7.48,5-9.05,7.63-9-3.55-2-10.81,1.26-18.28,2.51,10.68,17.59,7.39,21.84,9.68C454.6,317.49,454.16,327.68,446,323.62Z"/><path d="M430.33,356.08c19.62-3.77-17.25-7.46-11.25-3.77-9.38-5.76-4.45-19.63,5.56-12.55.77-2-14.09,2.2-9.69,5.74,3.83,3.08,7.71,0,9.53,1.16,4.1,2.65,7.16-5.86,11.39,3.32,2.94,6.39-5.62,10.35-10.22,6.68C426.58,354.1,427.51,356.62,430.33,356.08Z"/><path d="M418,375.93c-12.67,14.61-9-11.09-8.71-10.4-2.14-4.66-6.23-5-9.74-4.79a55.37,55.37,0,0,1,6.52-7.52c-.73,10.91,14.59,12.3,18,15.76A87.12,87.12,0,0,1,418,375.93Zm-8.05-.72c3.32,2.87,6.7.61,8.54-2.46a30.71,30.71,0,0,0-7.6-6.59C408.45,368.52,406.85,372.53,409.94,375.21Z"/><path d="M385.35,390.54c2.57-1.25,5.24-4.61,7.4-6.51-2.13-1.71-10.12-6.48-10-6.32a53.91,53.91,0,0,1,7.37-6.48c-1.8,10.47,12.67,14,15.65,18.06a42.11,42.11,0,0,1-7.37,6.48c1.41-8.07-5.65-13.63-11.83-3.85a89.68,89.68,0,0,0,9.58,5.84,45.8,45.8,0,0,1-7.34,6.46c-3.32-5.35-6.37-18-15.67-18a45.64,45.64,0,0,1,7.37-6.48C378.75,385.36,382.18,385.37,385.35,390.54Z"/><path d="M364.52,414.38c1.52-2.15,17.36.68,5.15-9.92-1.09,2.28-3.7,3.48-4.57,6.13l-3.92-5.91c3.05.51,4.19-1.28,7.58-1.6-5.31-15.86-9,.1-11.75,1.48-5.64-7.88,4.22-10.15,11-14.65-3.7,10.32,10.74,15.76,13.07,20C375.07,413.91,369.16,422.22,364.52,414.38Z"/><path d="M349,429c-11.11,5.45-9.62-7-11.65-11.32-1.53-3.27-7.22-4.58-8.83-5.24,8.46-4,8.82,5.65,17.32,3.92-1.56-2.11-7.95-8.76-7.86-8.55a55.5,55.5,0,0,1,8.91-4.37c-3.35,6.62,4,20.07,10.39,21.52A87.13,87.13,0,0,1,349,429Zm-.61-1.33c3.73-1.83.61-7.09-1.83-9.83C343.09,420.76,339,432.27,348.41,427.68Z"/><path d="M313.54,437.25c2-1.68,16.59,5.14,7.54-8.25-1.65,1.92-4.47,2.4-6,4.74L312.82,427c2.82,1.25,4.38-.15,7.74.42a29.5,29.5,0,0,0-3-8.83c-1.26,1.24-8.62,7.19-8.76,7.22-3.41-9.07,6.7-8.72,14.41-11.31-6.25,9,6.29,18,7.45,22.7C323.85,439.53,316,446,313.54,437.25Z"/><path d="M202.11,421.53c-3.56,1.92-14.63,20.34-17.3,19.54s-1.57-22.85-2.86-26a33.55,33.55,0,0,1,8.53,2.74c-11.73,5.6,9.25,14,3.72,1.19C196.71,419.79,199.75,420.34,202.11,421.53Zm-15.4,14.92c2.2-2,3.92-5.59,5.62-8l-5.76-1.85C186.61,429.57,186,433.55,186.71,436.45Z"/><path d="M159.22,431.07c-18.72-9-.35-28.88,17.41-18.15-7.22,1.48-13.22,15.57-10.46,21.48Zm.32-1.83c4.3-1.69,7.6-11.86,10.29-17.47C160.06,403.88,148.55,424,159.54,429.24Z"/><path d="M120.48,404.75c3,19.75,8.13-16.94,4.21-11.09,6.13-9.14,19.79-3.67,12.32,6,1.94.85-1.64-14.17-5.36-9.91-3.23,3.7-.28,7.7-1.53,9.47-2.81,4,5.57,7.38-3.77,11.25-6.5,2.69-10.12-6-6.28-10.48C122.6,401.08,120,401.9,120.48,404.75Z"/><path d="M100.24,383.36c2.44,1,3.35,17,10.84,2.73-2.47-.54-4.24-2.8-7-3l4.84-5.18c.21,3.09,2.21,3.78,3.3,7,14.21-8.83-2.17-8.71-4.15-11.09,6.37-7.31,10.85,1.76,16.8,7.32-10.9-1.22-12.86,14.08-16.45,17.33C103.12,393.51,93.67,389.69,100.24,383.36Z"/><path d="M101.05,356.34c7.59,9.07-7.08,21.93-15.38,17.4-12.86-7-.76-8.82-.32-9.2-13,11.35,31.89-.46,8-11.63A10.53,10.53,0,0,1,101.05,356.34Z"/><path d="M75.57,334c14.24-9.09,10.29,10.1,7.37,15.23-3.26,5.7-9.26,4.12-10.14,10.43a48.82,48.82,0,0,1-5.4-8.45c4.48,1.7,22.72-5.48,17.71-13.67-6.72-11-19.41,9.55-20.14,9.87a36.17,36.17,0,0,1-4.88-7.64C65.09,341.55,70.52,338.59,75.57,334Z"/><path d="M52.45,324.27C47.24,313,59.62,314.81,64,312.86c3.3-1.46,4.74-7.12,5.43-8.72,3.86,8.54-5.84,8.7-4.29,17.23,2.13-1.5,8.95-7.76,8.72-7.68a55.49,55.49,0,0,1,4.17,9c-6.54-3.49-20.16,3.57-21.74,9.92A87.13,87.13,0,0,1,52.45,324.27Zm1.35-.58c1.75,3.77,7.07.76,9.87-1.62C60.83,318.51,49.41,314.22,53.8,323.68Z"/><path d="M67.86,299.35c-9-6.22-18,6.34-22.68,7.51a55.48,55.48,0,0,1-3.19-9.4C47.8,296,61.21,299,64.66,289.92,65.71,293,67,296.17,67.86,299.35Z"/><path d="M44.95,286.32c-1,1.2-2,3.06-5.66,2.9q-1.74-9-4.06-17.92l6-1.36a8.71,8.71,0,0,1,.35,1.54q-6.13,1.23-3,6.84c6.21-1.41,18.85-7.85,21-8.17a48.43,48.43,0,0,1,2.2,9.71c-5.8-4.34-14.27-.33-22.5,1.53Q38.85,287.79,44.95,286.32Z"/><path d="M58.11,263.14c-3.2-2.47-24.52-5.15-24.87-7.91s20.26-10.69,22.63-13.14a33.55,33.55,0,0,1,.95,8.9c-9.87-8.47-9.1,14.14.41,3.88C57.51,257.5,58.25,260.51,58.11,263.14Zm-19.88-8c2.69,1.21,6.7,1.32,9.6,1.9l-.64-6C44.48,252.22,40.6,253.28,38.24,255.1Z"/><path d="M34.58,225.71c-14.3,14,18.5-3.28,11.46-3.05,11-.36,14.53,13.93,2.28,13.53.44,2.07,10.55-9.6,4.92-10.13-4.89-.46-6.42,4.27-8.59,4.29-4.89,0-2.74,8.83-11.33,3.5-6-3.71-1-11.74,4.84-11.21C38.8,225.3,36.65,223.69,34.58,225.71Z"/><path d="M36,189.29c3.64-19,13.38,5.08,12.75,4.64,4.19,3,7.88,1.17,10.83-.73A55.37,55.37,0,0,1,57.74,203c-4.84-9.81-18.78-3.34-23.44-4.64A87.14,87.14,0,0,1,36,189.29Zm7.33-3.41c-4.31-.83-6.1,2.83-6.15,6.41a30.71,30.71,0,0,0,9.89,1.9C48,190.92,47.39,186.65,43.37,185.88Z"/><path d="M50.12,158.29c.14,2.63-14,10.26,2.13,11-.56-2.47.74-5-.23-7.64l6.75,2.19c-2.68,1.52-2.49,3.61-4.95,6a29.5,29.5,0,0,0,8.86,2.87c-.25-1.75-.64-11.2-.58-11.33,9.32,2.66,3,10.57.5,18.31-3.52-10.39-18.22-5.67-22.67-7.54C42.15,165.21,41.6,155,50.12,158.29Z"/><path d="M52.92,137.7c3.38-7.12,14.29-6.52,12.43,2.29,3.16-2,11.35-1.31,13.91-2.09-4.1,8.43-10.42,1.07-16,7.72,2.55.69,11.66,1.9,11.48,1.79a55.51,55.51,0,0,1-4.25,9C69,149.12,54.88,143.17,49,146A87.12,87.12,0,0,1,52.92,137.7Zm1.31.66c-1.78,3.76,3.94,5.92,7.56,6.55C62.71,140.47,58.7,128.94,54.24,138.37Z"/><path d="M93.35,103.19c13.55,10.09-5.8,13.21-11.63,12.29-6.49-1-7.13-7.2-13.35-5.78a48.82,48.82,0,0,1,6-8c0,4.79,13.18,19.3,19.06,11.71C101.29,103.18,77.6,98.6,77.05,98a36.18,36.18,0,0,1,5.41-7.27C82.61,96.06,87.3,100.08,93.35,103.19Z"/><path d="M118.09,88c-6.74.69-15.35-1.72-22.77-3.19,5.14,5.07,9.51,11.92,15.47,10.58a43.44,43.44,0,0,1-6.39,6.48C105.92,91,90.69,88.61,87.53,84.94c6.6-6.48,15.15-1.86,24.06-.11-3.31-3.26-14.3-9.48-14.43-9.65a41.06,41.06,0,0,1,6.36-6.45C106.78,73.21,111.58,81.55,118.09,88Z"/><path d="M124.59,82.32c2.7-10.63-12.19-14.67-14.91-18.67a55.49,55.49,0,0,1,7.71-6.25c3.37,5,5.24,18.56,14.94,18.65C129.77,78.11,127.29,80.44,124.59,82.32Z"/><path d="M128.86,56.31c-1.47-.51-3.56-.81-4.69-4.3q7.86-4.77,15.39-10l3.37,5.16a8.74,8.74,0,0,1-1.32.86q-3.28-5.32-7.45-.4c3.49,5.35,13.91,14.93,15,16.84a48.44,48.44,0,0,1-8.34,5.44c2-6.95-4.65-13.49-9.26-20.56Q125.36,51.1,128.86,56.31Z"/><path d="M155.17,60.58c1.21-3.86-3.72-24.77-1.25-26.07S171,49.78,174.12,51.14a33.55,33.55,0,0,1-8,4c4.5-12.2-16.43-3.6-3.5,1.74C160.24,58.05,157.69,59.79,155.17,60.58Zm.61-21.43c-.2,2.94,1.09,6.74,1.57,9.66l5.42-2.7C160.65,44,158.31,40.73,155.78,39.15Z"/><path d="M182.06,25.5c-18.06-8.55,9.5,16.2,6.84,9.69,4.16,10.19-8,18.46-11.9,6.83-1.79,1.13,12.67,6.56,11.21,1.1-1.27-4.75-6.23-4.54-7-6.56C179.48,32,172,37,174,27.14c1.4-6.89,10.66-5,12.19.65C183.91,29.3,184.68,26.74,182.06,25.5Z"/><path d="M418.3,87.44a87.57,87.57,0,0,0-6.07-7c.35,9.79-13.39,12-18.15,15.54,4,5.92,25.58,17.49,18.38,1.85C421.85,104,421.06,90.62,418.3,87.44ZM399.48,98.56c2.11-3.21,5.76-6.75,8.44-3.66C414.69,102.72,403.68,102.26,399.48,98.56Zm9.11-6.41c2.11-3.21,5.76-6.75,8.44-3.66C423.81,96.31,412.8,95.85,408.59,92.15Z"/></g><g id="p1"><path class="cls-5" d="M131.9,164.34c-1.45-2.79-4.66-5.52-6.69-7.94-1.26,3.1-4.06,5.9-5,9.11.49-3.3-.9-7-.75-10.35-2.84,1.77-6.75,2.38-9.39,4.44,2.34-2.38,3.4-6.2,5.48-8.82-3.34-.24-6.86-2-10.2-1.93,3.29-.55,6.39-3,9.62-3.91-2.56-2.15-4.35-5.68-7.12-7.55,3,1.49,6.94,1.31,10.08,2.49-.81-3.25-.18-7.16-1.32-10.3,1.54,3,4.85,5.14,6.69,7.94,1.26-3.1,4.06-5.9,5-9.11-.49,3.3.9,7,.75,10.35,2.84-1.77,6.75-2.38,9.39-4.44-2.34,2.38-3.4,6.2-5.48,8.82,3.34.24,6.86,2,10.2,1.93-3.29.55-6.39,3-9.62,3.91,2.56,2.15,4.35,5.68,7.12,7.55-3-1.49-6.94-1.31-10.08-2.49C131,157.18,130.83,161.38,131.9,164.34Z"/><path class="cls-5" d="M109.85,252.71c-1.3-2.87-4.34-5.77-6.24-8.3-1.43,3-4.38,5.66-5.49,8.81.68-3.27-.5-7-.17-10.38-2.93,1.61-6.87,2-9.62,3.91,2.47-2.25,3.74-6,6-8.5-3.32-.42-6.74-2.42-10.08-2.49,3.32-.37,6.55-2.66,9.82-3.37-2.44-2.29-4-5.92-6.69-7.94,2.9,1.65,6.86,1.7,9.92,3-.63-3.29.22-7.16-.74-10.35,1.38,3,4.55,5.41,6.24,8.3,1.43-3,4.38-5.66,5.49-8.81-.68,3.27.5,7,.17,10.38,2.93-1.61,6.87-2,9.62-3.91-2.47,2.25-3.74,6-6,8.5,3.32.42,6.74,2.42,10.08,2.49-3.32.37-6.55,2.66-9.82,3.37,2.44,2.29,4,5.92,6.69,7.94-2.9-1.65-6.86-1.7-9.92-3C109.33,245.51,108.94,249.69,109.85,252.71Z"/><path class="cls-5" d="M130.82,334.57c-.9-3-3.52-6.31-5.06-9.07-1.82,2.81-5.11,5-6.63,8,1.11-3.15.45-7.05,1.24-10.31-3.13,1.2-7.08,1.06-10.06,2.57,2.75-1.89,4.51-5.44,7.06-7.61-3.23-.87-6.35-3.31-9.65-3.83,3.34.08,6.85-1.75,10.19-2-2.11-2.6-3.19-6.41-5.55-8.77,2.65,2,6.57,2.61,9.42,4.36-.17-3.34,1.18-7.06.66-10.36,1,3.2,3.78,6,5.06,9.07,1.82-2.81,5.11-5,6.63-8-1.11,3.15-.45,7.05-1.24,10.31,3.13-1.2,7.08-1.06,10.06-2.57-2.75,1.89-4.51,5.44-7.06,7.61,3.23.87,6.35,3.31,9.65,3.83-3.34-.08-6.85,1.75-10.19,2,2.11,2.6,3.19,6.41,5.55,8.77-2.65-2-6.57-2.61-9.42-4.36C131.29,327.36,130.33,331.46,130.82,334.57Z"/><path class="cls-5" d="M193.59,385.71c-.87-3-3.46-6.34-5-9.12-1.85,2.79-5.16,5-6.71,7.92,1.14-3.14.53-7,1.34-10.29-3.14,1.17-7.09,1-10.08,2.47,2.77-1.87,4.57-5.39,7.13-7.54-3.22-.9-6.32-3.37-9.61-3.93,3.34.12,6.86-1.68,10.2-1.91-2.08-2.62-3.13-6.44-5.46-8.83,2.63,2.06,6.54,2.68,9.38,4.46-.14-3.34,1.25-7,.77-10.35.92,3.21,3.72,6,5,9.12,1.85-2.79,5.16-5,6.71-7.92-1.14,3.14-.53,7-1.34,10.29,3.14-1.17,7.09-1,10.08-2.47-2.77,1.87-4.57,5.39-7.13,7.54,3.22.9,6.32,3.37,9.61,3.93-3.34-.12-6.86,1.68-10.2,1.91,2.08,2.62,3.13,6.44,5.46,8.83-2.63-2.06-6.54-2.68-9.38-4.46C194.12,378.5,193.13,382.59,193.59,385.71Z"/><path class="cls-5" d="M321.54,385.58c-1.45-2.79-4.66-5.52-6.69-7.94-1.26,3.1-4.06,5.9-5,9.11.49-3.3-.9-7-.75-10.35-2.84,1.77-6.75,2.38-9.39,4.44,2.34-2.38,3.4-6.2,5.48-8.82-3.34-.24-6.86-2-10.2-1.93,3.29-.55,6.39-3,9.62-3.91-2.56-2.15-4.35-5.68-7.12-7.55,3,1.49,6.94,1.31,10.08,2.49-.81-3.25-.18-7.16-1.32-10.3,1.54,3,4.85,5.14,6.69,7.94,1.26-3.1,4.06-5.9,5-9.11-.49,3.3.9,7,.75,10.35,2.84-1.77,6.75-2.38,9.39-4.44-2.34,2.38-3.4,6.2-5.48,8.82,3.34.24,6.86,2,10.2,1.93-3.29.55-6.39,3-9.62,3.91,2.56,2.15,4.35,5.68,7.12,7.55-3-1.49-6.94-1.31-10.08-2.49C320.62,378.42,320.47,382.62,321.54,385.58Z"/><path class="cls-5" d="M384.24,334.17c-1.37-2.83-4.49-5.66-6.46-8.13-1.35,3.07-4.23,5.78-5.25,9,.59-3.29-.69-7-.45-10.37-2.89,1.69-6.82,2.19-9.51,4.16,2.41-2.31,3.57-6.1,5.73-8.65-3.33-.33-6.8-2.24-10.14-2.22,3.31-.46,6.48-2.83,9.73-3.63-2.5-2.23-4.19-5.81-6.9-7.76,2.95,1.58,6.9,1.52,10,2.78-.71-3.27,0-7.16-1-10.33,1.46,3,4.69,5.28,6.46,8.13,1.35-3.07,4.23-5.78,5.25-9-.59,3.29.69,7,.45,10.37,2.89-1.69,6.82-2.19,9.51-4.16-2.41,2.31-3.57,6.1-5.73,8.65,3.33.33,6.8,2.24,10.14,2.22-3.31.46-6.48,2.83-9.73,3.63,2.5,2.23,4.19,5.81,6.9,7.76-2.95-1.58-6.9-1.52-10-2.78C383.53,327,383.25,331.18,384.24,334.17Z"/><path class="cls-5" d="M405.79,253.12c-.94-3-3.61-6.26-5.18-9-1.79,2.83-5,5.09-6.52,8.08,1.07-3.16.36-7.06,1.09-10.32-3.11,1.24-7.07,1.15-10,2.71,2.73-1.93,4.44-5.5,7-7.71-3.25-.82-6.39-3.22-9.7-3.7,3.34,0,6.82-1.84,10.16-2.15-2.14-2.57-3.28-6.36-5.67-8.7,2.68,2,6.6,2.52,9.48,4.23-.22-3.34,1.09-7.08.52-10.37,1,3.19,3.86,5.92,5.18,9,1.79-2.83,5-5.09,6.52-8.08-1.07,3.16-.36,7.06-1.09,10.32,3.11-1.24,7.07-1.15,10-2.71-2.73,1.93-4.44,5.5-7,7.71,3.25.82,6.39,3.22,9.7,3.7-3.34,0-6.82,1.84-10.16,2.15,2.14,2.57,3.28,6.36,5.67,8.7-2.68-2-6.6-2.52-9.48-4.23C406.15,245.91,405.25,250,405.79,253.12Z"/><path class="cls-5" d="M194.13,116.65c-1.63-2.69-5-5.2-7.2-7.48-1,3.18-3.66,6.15-4.37,9.41.27-3.33-1.36-6.94-1.43-10.28-2.72,2-6.58,2.82-9.07,5,2.18-2.53,3-6.41,4.89-9.16-3.35,0-7-1.58-10.31-1.25,3.25-.77,6.18-3.43,9.34-4.54-2.7-2-4.72-5.38-7.6-7.07,3.08,1.29,7,.85,10.22,1.82-1-3.19-.65-7.13-2-10.19,1.73,2.85,5.17,4.81,7.2,7.48,1-3.18,3.66-6.15,4.37-9.41-.27,3.33,1.36,6.94,1.43,10.28,2.72-2,6.58-2.82,9.07-5-2.18,2.53-3,6.41-4.89,9.16,3.35,0,7,1.58,10.31,1.25-3.25.77-6.18,3.43-9.34,4.54,2.7,2,4.72,5.38,7.6,7.07-3.08-1.29-7-.85-10.22-1.82C192.75,109.57,192.87,113.77,194.13,116.65Z"/><path class="cls-5" d="M322.89,119.53c-.78-3.05-3.27-6.44-4.7-9.26-1.93,2.73-5.3,4.81-6.93,7.73,1.23-3.1.73-7,1.64-10.25-3.17,1.08-7.12.78-10.15,2.17,2.82-1.78,4.72-5.26,7.35-7.33-3.2-1-6.22-3.55-9.49-4.21,3.33.22,6.91-1.48,10.26-1.61-2-2.68-2.94-6.53-5.21-9,2.57,2.13,6.46,2.87,9.24,4.73,0-3.35,1.46-7,1.07-10.33.83,3.24,3.54,6.12,4.7,9.26,1.93-2.73,5.3-4.81,6.93-7.73-1.23,3.1-.73,7-1.64,10.25,3.17-1.08,7.12-.78,10.15-2.17-2.82,1.78-4.72,5.26-7.35,7.33,3.2,1,6.22,3.55,9.49,4.21-3.33-.22-6.91,1.48-10.26,1.61,2,2.68,2.94,6.53,5.21,9-2.57-2.13-6.46-2.87-9.24-4.73C323.64,112.35,322.53,116.41,322.89,119.53Z"/><path class="cls-5" d="M383.73,165.89c-.78-3.05-3.27-6.44-4.7-9.26-1.93,2.73-5.3,4.81-6.93,7.73,1.23-3.1.73-7,1.64-10.25-3.17,1.08-7.12.78-10.15,2.17,2.82-1.78,4.72-5.26,7.35-7.33-3.2-1-6.22-3.55-9.49-4.21,3.33.22,6.91-1.48,10.26-1.61-2-2.68-2.94-6.53-5.21-9,2.57,2.13,6.46,2.87,9.24,4.73,0-3.35,1.46-7,1.07-10.33.83,3.24,3.54,6.12,4.7,9.26,1.93-2.73,5.3-4.81,6.93-7.73-1.23,3.1-.73,7-1.64,10.25,3.17-1.08,7.12-.78,10.15-2.17-2.82,1.78-4.72,5.26-7.35,7.33,3.2,1,6.22,3.55,9.49,4.21-3.33-.22-6.91,1.48-10.26,1.61,2,2.68,2.94,6.53,5.21,9-2.57-2.13-6.46-2.87-9.24-4.73C384.48,158.71,383.37,162.76,383.73,165.89Z"/></g><g id="p2"><path class="cls-3" d="M354.36,42.72c-2.62-.25-8.05-15.39-11.16.47,2.52-.19,4.86,1.48,7.59.91l-3.17,6.34c-1.08-2.9-3.19-3-5.16-5.78-11.11,12.5,4.56,7.74,7.13,9.45-4,8.82-10.91,1.4-18.18-2.24,10.8-1.93,8.32-17.17,10.84-21.29C348.71,33.81,358.86,34.79,354.36,42.72Z"/><path class="cls-3" d="M374.65,48.8c16.07,10.76-9.89,10.34-9.24,9.94-4.35,2.71-4.15,6.8-3.55,10.26a55.38,55.38,0,0,1-8.28-5.54c10.92-.63,10.39-16,13.41-19.78A87.13,87.13,0,0,1,374.65,48.8Zm.28,8.08c2.44-3.65-.23-6.72-3.5-8.16a30.71,30.71,0,0,0-5.6,8.36C368.48,59.2,372.66,60.28,374.94,56.88Z"/><path class="cls-3" d="M392.89,83.92c-11.16,12.68-12.69-6.86-11.3-12.59,1.55-6.38,7.76-6.52,6.86-12.83A48.82,48.82,0,0,1,396,65.12c-4.77-.39-20.32,11.56-13.23,18,9.5,8.68,16-14.55,16.62-15.06a36.17,36.17,0,0,1,6.8,6C400.89,73.79,396.49,78.14,392.89,83.92Z"/><path class="cls-3" d="M416.29,120.59c1,.55,8.86,6.16,8.73,5.8-8,5-9.37-3-14.14-10.16,10.29,3.49,15.8-11.23,20-13.11a49.33,49.33,0,0,1,5.5,8.25C429.54,109.32,423.2,116,416.29,120.59Z"/><path class="cls-3" d="M423.1,135.43c9.91,4.71,16.75-9.12,21.2-11a55.48,55.48,0,0,1,4.64,8.77c-5.52,2.35-19.22,1.54-21.18,11C426.22,141.33,424.41,138.44,423.1,135.43Z"/><path class="cls-3" d="M434.23,159.51c-4.41-11,13.52-18.66,20-11.79,10.05,10.65-2,8.62-2.54,8.85,3.93-1.68,5.72-6.42-.5-8.49-13.38-4.46-16.48,11.66-10.68,17.08A10.53,10.53,0,0,1,434.23,159.51Z"/><path class="cls-3" d="M454.84,183.68c16.62-3.09,17.75,16.57,3.54,19.27C442.7,205.93,440,186.43,454.84,183.68Zm-8.29,8.24c-3.5,8.64,9.61,9.32,14.3,6.76C477.06,189.85,451.26,180.31,446.55,191.92Z"/><path class="cls-3" d="M466.7,227.74c-.5-1.12,3.61-5.88,3-10-2.34-.24-7-.2-9.23.49,1.41,2.09,1.18,4.95,3,7.05l-7.08.38c1.52-2,1.26-5.25,2.44-7.34-6.35,1.5-7.81-.33-10.91,3.92a55.79,55.79,0,0,1-.53-10c7,8.44,19-1.24,23.87-1.09C471.66,218.42,475.82,227.73,466.7,227.74Z"/><path class="cls-3" d="M465.07,252.89c1.35-.78,2.94-2.17,6.32-.74q-1.53,9.07-2.46,18.21l-6.11-.83A8.7,8.7,0,0,1,463,268q6.17,1,5.17-5.37c-6.32-.86-20.39.77-22.53.31A48.44,48.44,0,0,1,447,253c3.92,6.09,13.25,5.3,21.61,6.43Q471.3,253.64,465.07,252.89Z"/><path class="cls-3" d="M450.5,292.28c9-14.53-6-8.19-9.18-9.33a52.63,52.63,0,0,1,2.64-9.45c4.2,9.76,18.28,4.86,23,6.6a46.14,46.14,0,0,1-2.64,9.45c-2.33-5.59-3.62-3.41-9.37-6.26-9,14.39,5.6,8.05,8.56,9.16a41.79,41.79,0,0,1-2.63,9.42c-5.71-2.67-15.14-11.6-23-6.57a45.64,45.64,0,0,1,2.64-9.45C442.15,291.54,445,289.67,450.5,292.28Z"/><path class="cls-3" d="M446,323.62c.11-2.63,14.93-8.87-1.07-11.12.32,2.51-1.21,4.93-.5,7.63l-6.51-2.82c2.84-1.23,2.82-3.35,5.5-5.46-13.09-10.42-7.48,5-9.05,7.63-9-3.55-2-10.81,1.26-18.28,2.51,10.68,17.59,7.39,21.84,9.68C454.6,317.49,454.16,327.68,446,323.62Z"/><path class="cls-3" d="M430.33,356.08c19.62-3.77-17.25-7.46-11.25-3.77-9.38-5.76-4.45-19.63,5.56-12.55.77-2-14.09,2.2-9.69,5.74,3.83,3.08,7.71,0,9.53,1.16,4.1,2.65,7.16-5.86,11.39,3.32,2.94,6.39-5.62,10.35-10.22,6.68C426.58,354.1,427.51,356.62,430.33,356.08Z"/><path class="cls-3" d="M418,375.93c-12.67,14.61-9-11.09-8.71-10.4-2.14-4.66-6.23-5-9.74-4.79a55.37,55.37,0,0,1,6.52-7.52c-.73,10.91,14.59,12.3,18,15.76A87.12,87.12,0,0,1,418,375.93Zm-8.05-.72c3.32,2.87,6.7.61,8.54-2.46a30.71,30.71,0,0,0-7.6-6.59C408.45,368.52,406.85,372.53,409.94,375.21Z"/><path class="cls-3" d="M385.35,390.54c2.57-1.25,5.24-4.61,7.4-6.51-2.13-1.71-10.12-6.48-10-6.32a53.91,53.91,0,0,1,7.37-6.48c-1.8,10.47,12.67,14,15.65,18.06a42.11,42.11,0,0,1-7.37,6.48c1.41-8.07-5.65-13.63-11.83-3.85a89.68,89.68,0,0,0,9.58,5.84,45.8,45.8,0,0,1-7.34,6.46c-3.32-5.35-6.37-18-15.67-18a45.64,45.64,0,0,1,7.37-6.48C378.75,385.36,382.18,385.37,385.35,390.54Z"/><path class="cls-3" d="M364.52,414.38c1.52-2.15,17.36.68,5.15-9.92-1.09,2.28-3.7,3.48-4.57,6.13l-3.92-5.91c3.05.51,4.19-1.28,7.58-1.6-5.31-15.86-9,.1-11.75,1.48-5.64-7.88,4.22-10.15,11-14.65-3.7,10.32,10.74,15.76,13.07,20C375.07,413.91,369.16,422.22,364.52,414.38Z"/><path class="cls-3" d="M349,429c-11.11,5.45-9.62-7-11.65-11.32-1.53-3.27-7.22-4.58-8.83-5.24,8.46-4,8.82,5.65,17.32,3.92-1.56-2.11-7.95-8.76-7.86-8.55a55.5,55.5,0,0,1,8.91-4.37c-3.35,6.62,4,20.07,10.39,21.52A87.13,87.13,0,0,1,349,429Zm-.61-1.33c3.73-1.83.61-7.09-1.83-9.83C343.09,420.76,339,432.27,348.41,427.68Z"/><path class="cls-3" d="M313.54,437.25c2-1.68,16.59,5.14,7.54-8.25-1.65,1.92-4.47,2.4-6,4.74L312.82,427c2.82,1.25,4.38-.15,7.74.42a29.5,29.5,0,0,0-3-8.83c-1.26,1.24-8.62,7.19-8.76,7.22-3.41-9.07,6.7-8.72,14.41-11.31-6.25,9,6.29,18,7.45,22.7C323.85,439.53,316,446,313.54,437.25Z"/><path class="cls-3" d="M202.11,421.53c-3.56,1.92-14.63,20.34-17.3,19.54s-1.57-22.85-2.86-26a33.55,33.55,0,0,1,8.53,2.74c-11.73,5.6,9.25,14,3.72,1.19C196.71,419.79,199.75,420.34,202.11,421.53Zm-15.4,14.92c2.2-2,3.92-5.59,5.62-8l-5.76-1.85C186.61,429.57,186,433.55,186.71,436.45Z"/><path class="cls-3" d="M159.22,431.07c-18.72-9-.35-28.88,17.41-18.15-7.22,1.48-13.22,15.57-10.46,21.48Zm.32-1.83c4.3-1.69,7.6-11.86,10.29-17.47C160.06,403.88,148.55,424,159.54,429.24Z"/><path class="cls-3" d="M120.48,404.75c3,19.75,8.13-16.94,4.21-11.09,6.13-9.14,19.79-3.67,12.32,6,1.94.85-1.64-14.17-5.36-9.91-3.23,3.7-.28,7.7-1.53,9.47-2.81,4,5.57,7.38-3.77,11.25-6.5,2.69-10.12-6-6.28-10.48C122.6,401.08,120,401.9,120.48,404.75Z"/><path class="cls-3" d="M100.24,383.36c2.44,1,3.35,17,10.84,2.73-2.47-.54-4.24-2.8-7-3l4.84-5.18c.21,3.09,2.21,3.78,3.3,7,14.21-8.83-2.17-8.71-4.15-11.09,6.37-7.31,10.85,1.76,16.8,7.32-10.9-1.22-12.86,14.08-16.45,17.33C103.12,393.51,93.67,389.69,100.24,383.36Z"/><path class="cls-3" d="M101.05,356.34c7.59,9.07-7.08,21.93-15.38,17.4-12.86-7-.76-8.82-.32-9.2-13,11.35,31.89-.46,8-11.63A10.53,10.53,0,0,1,101.05,356.34Z"/><path class="cls-3" d="M75.57,334c14.24-9.09,10.29,10.1,7.37,15.23-3.26,5.7-9.26,4.12-10.14,10.43a48.82,48.82,0,0,1-5.4-8.45c4.48,1.7,22.72-5.48,17.71-13.67-6.72-11-19.41,9.55-20.14,9.87a36.17,36.17,0,0,1-4.88-7.64C65.09,341.55,70.52,338.59,75.57,334Z"/><path class="cls-3" d="M52.45,324.27C47.24,313,59.62,314.81,64,312.86c3.3-1.46,4.74-7.12,5.43-8.72,3.86,8.54-5.84,8.7-4.29,17.23,2.13-1.5,8.95-7.76,8.72-7.68a55.49,55.49,0,0,1,4.17,9c-6.54-3.49-20.16,3.57-21.74,9.92A87.13,87.13,0,0,1,52.45,324.27Zm1.35-.58c1.75,3.77,7.07.76,9.87-1.62C60.83,318.51,49.41,314.22,53.8,323.68Z"/><path class="cls-3" d="M67.86,299.35c-9-6.22-18,6.34-22.68,7.51a55.48,55.48,0,0,1-3.19-9.4C47.8,296,61.21,299,64.66,289.92,65.71,293,67,296.17,67.86,299.35Z"/><path class="cls-3" d="M44.95,286.32c-1,1.2-2,3.06-5.66,2.9q-1.74-9-4.06-17.92l6-1.36a8.71,8.71,0,0,1,.35,1.54q-6.13,1.23-3,6.84c6.21-1.41,18.85-7.85,21-8.17a48.43,48.43,0,0,1,2.2,9.71c-5.8-4.34-14.27-.33-22.5,1.53Q38.85,287.79,44.95,286.32Z"/><path class="cls-3" d="M58.11,263.14c-3.2-2.47-24.52-5.15-24.87-7.91s20.26-10.69,22.63-13.14a33.55,33.55,0,0,1,.95,8.9c-9.87-8.47-9.1,14.14.41,3.88C57.51,257.5,58.25,260.51,58.11,263.14Zm-19.88-8c2.69,1.21,6.7,1.32,9.6,1.9l-.64-6C44.48,252.22,40.6,253.28,38.24,255.1Z"/><path class="cls-3" d="M34.58,225.71c-14.3,14,18.5-3.28,11.46-3.05,11-.36,14.53,13.93,2.28,13.53.44,2.07,10.55-9.6,4.92-10.13-4.89-.46-6.42,4.27-8.59,4.29-4.89,0-2.74,8.83-11.33,3.5-6-3.71-1-11.74,4.84-11.21C38.8,225.3,36.65,223.69,34.58,225.71Z"/><path class="cls-3" d="M50.12,158.29c.14,2.63-14,10.26,2.13,11-.56-2.47.74-5-.23-7.64l6.75,2.19c-2.68,1.52-2.49,3.61-4.95,6a29.5,29.5,0,0,0,8.86,2.87c-.25-1.75-.64-11.2-.58-11.33,9.32,2.66,3,10.57.5,18.31-3.52-10.39-18.22-5.67-22.67-7.54C42.15,165.21,41.6,155,50.12,158.29Z"/><path class="cls-3" d="M93.35,103.19c13.55,10.09-5.8,13.21-11.63,12.29-6.49-1-7.13-7.2-13.35-5.78a48.82,48.82,0,0,1,6-8c0,4.79,13.18,19.3,19.06,11.71C101.29,103.18,77.6,98.6,77.05,98a36.18,36.18,0,0,1,5.41-7.27C82.61,96.06,87.3,100.08,93.35,103.19Z"/><path class="cls-3" d="M118.09,88c-6.74.69-15.35-1.72-22.77-3.19,5.14,5.07,9.51,11.92,15.47,10.58a43.44,43.44,0,0,1-6.39,6.48C105.92,91,90.69,88.61,87.53,84.94c6.6-6.48,15.15-1.86,24.06-.11-3.31-3.26-14.3-9.48-14.43-9.65a41.06,41.06,0,0,1,6.36-6.45C106.78,73.21,111.58,81.55,118.09,88Z"/><path class="cls-3" d="M124.59,82.32c2.7-10.63-12.19-14.67-14.91-18.67a55.49,55.49,0,0,1,7.71-6.25c3.37,5,5.24,18.56,14.94,18.65C129.77,78.11,127.29,80.44,124.59,82.32Z"/><path class="cls-3" d="M128.86,56.31c-1.47-.51-3.56-.81-4.69-4.3q7.86-4.77,15.39-10l3.37,5.16a8.74,8.74,0,0,1-1.32.86q-3.28-5.32-7.45-.4c3.49,5.35,13.91,14.93,15,16.84a48.44,48.44,0,0,1-8.34,5.44c2-6.95-4.65-13.49-9.26-20.56Q125.36,51.1,128.86,56.31Z"/><path class="cls-3" d="M155.17,60.58c1.21-3.86-3.72-24.77-1.25-26.07S171,49.78,174.12,51.14a33.55,33.55,0,0,1-8,4c4.5-12.2-16.43-3.6-3.5,1.74C160.24,58.05,157.69,59.79,155.17,60.58Zm.61-21.43c-.2,2.94,1.09,6.74,1.57,9.66l5.42-2.7C160.65,44,158.31,40.73,155.78,39.15Z"/><path class="cls-3" d="M182.06,25.5c-18.06-8.55,9.5,16.2,6.84,9.69,4.16,10.19-8,18.46-11.9,6.83-1.79,1.13,12.67,6.56,11.21,1.1-1.27-4.75-6.23-4.54-7-6.56C179.48,32,172,37,174,27.14c1.4-6.89,10.66-5,12.19.65C183.91,29.3,184.68,26.74,182.06,25.5Z"/><path class="cls-3" d="M418.3,87.44a87.57,87.57,0,0,0-6.07-7c.35,9.79-13.39,12-18.15,15.54,4,5.92,25.58,17.49,18.38,1.85C421.85,104,421.06,90.62,418.3,87.44ZM399.48,98.56c2.11-3.21,5.76-6.75,8.44-3.66C414.69,102.72,403.68,102.26,399.48,98.56Zm9.11-6.41c2.11-3.21,5.76-6.75,8.44-3.66C423.81,96.31,412.8,95.85,408.59,92.15Z"/><path class="cls-3" d="M48.79,193.92a13.71,13.71,0,0,0-1.42-3.63,9.42,9.42,0,0,1-.28,3.89,30.71,30.71,0,0,1-9.89-1.9c.05-3.58,1.85-7.23,6.15-6.41a4.9,4.9,0,0,1,2.15,1c-3-4.93-7.32-8.81-9.48,2.45a87.14,87.14,0,0,0-1.74,9c4.65,1.3,18.6-5.17,23.44,4.64a55.37,55.37,0,0,0,1.88-9.78C56.67,195.1,53,196.88,48.79,193.92Z"/><path class="cls-3" d="M79.27,137.9c-2.56.78-10.75.14-13.91,2.09,1.86-8.81-9.06-9.41-12.43-2.29A87.12,87.12,0,0,0,49,146c5.89-2.85,20,3.1,21.53,10.36a55.51,55.51,0,0,0,4.25-9c.18.1-8.93-1.1-11.48-1.79C68.85,139,75.17,146.33,79.27,137.9Zm-17.48,7c-3.62-.63-9.34-2.8-7.56-6.55C58.7,128.94,62.71,140.47,61.79,144.92Z"/><path class="cls-3" d="M323.49,23.36a87.14,87.14,0,0,0-8.7-3c3.48,5.54-.87,20.25-7.92,22.54a55.5,55.5,0,0,0,9.38,3.23c-.09.21.12-9,.52-11.61,7.23,4.8.61,11.9,9.44,15-1.05-2.45-1.32-10.67-3.61-13.6C331.54,36.85,330.94,25.93,323.49,23.36ZM317.29,33c.23-3.67,1.75-9.59,5.68-8.23C332.84,28.14,321.82,33.4,317.29,33Z"/></g></svg>