<svg xmlns="http://www.w3.org/2000/svg" width="500" height="500" viewBox="0 0 500 500">
  <title>rim-worlds-republic</title>
  <g id="Base">
    <g>
      <path d="M496,120.6H407.17v.48L405,119c-18.73-17.57-40.65-29.18-67-35.48-21.2-5.07-44.24-9.35-69.06-6.37-3.62.43-7.27,1-10.81,1.49-2.64.39-5.27.77-7.92,1.12-.59.08-1.43.25-2.5.47-2,.4-7.83,1.59-9.31,1-.06-.46.06-4,13.81-16l.2-.17c.4-.35,1.22-1,2.25-1.8,12.76-10,20.73-17.82,18.18-23.26-1.83-3.91-8.6-2.76-13.55-1.91-.78.13-1.43.25-1.88.3-20.93,2.3-37.81,5-53.11,8.55l-1.73.57c-10.17,3.44-21.7,7.35-29.73,14.86a112.58,112.58,0,0,0-11.73,13.48C155.4,83.29,150,90.24,141.3,95c-13,7.1-23.82,15.93-34.2,25.61H4V379.43H127.61l-4.32,3c-3.5,2.41-7,4.81-10.54,7.19-1.91,1.29-3.9,2.55-5.82,3.78a136.43,136.43,0,0,0-12.69,8.8c-.41.33-.94.74-1.56,1.21C87.59,407.24,83,411,82.6,414.87a4.68,4.68,0,0,0,1.72,4.46c3.48,2.63,10.7.07,19.77-3.55,2-.81,4-1.58,4.93-1.83,11.87-3.11,24.2-4.94,36.11-6.72,15.32-2.28,31.17-4.64,46.41-9.74,1.49-.5,3.06-1,4.67-1.49,8.22-2.57,17.54-5.48,23.55-11.51a22.24,22.24,0,0,0,2.49-3.08,10.42,10.42,0,0,1,1.11-1.43s.5,0,2,1c.89.59,2,2.61,2.84,4.24a22.62,22.62,0,0,0,3.06,4.78c10.39,11,27.39,25.76,43.9,34a81,81,0,0,0,14.42,5c5.26,1.48,10.23,2.87,14.54,5.26,4.76,2.63,8.71,7.57,12.53,12.35a81.87,81.87,0,0,0,7.68,8.74c.37.35,7.89,7.3,13.21,7.3a4.47,4.47,0,0,0,2.53-.71c3.38-2.26,1.35-7.71.58-9.76a257.76,257.76,0,0,0-19.5-39.72c-7.51-12.76-17.33-23.35-28.3-33H496ZM8.46,375V125.06h93.93c-3.86,3.73-7.69,7.55-11.58,11.43l-1.36,1.36C74.82,152.47,58.23,169,43.37,186.47c-.28.33-.63.7-1,1.11-2.08,2.2-4.92,5.21-4.22,8.56,1,4.81,13.2,12.13,16.9,12.84a11.77,11.77,0,0,0,4.14-.16,6.85,6.85,0,0,1,2.43-.15,6.48,6.48,0,0,1,2,1.5,9.52,9.52,0,0,0,3.51,2.35c6.2,2,8.36-.67,10.36-5,3.23,1.85,9,4.49,12.53,2.15a5.45,5.45,0,0,0,2.35-4.41l.51.19c6.51,2.42,15.42,5.73,19.61-1a11,11,0,0,0,1.31-4.31,7.48,7.48,0,0,1,.48-2.07c1-.83,5.64-1.17,13.64-1,.91,0,1.66,0,2.19,0h1c8.92-.15,11.29,1,11.7,2.06.23.68-.3,2.69-4.14,8.39-.32.47-.59.88-.8,1.2-1.11,1.73-1.81,2.8-2.33,3.06s-1.93.2-3.86.11c-1.12-.05-2-.14-2.8-.21-5.11-.48-6.07.59-8.67,6.25-.31.67-.58,1.28-.82,1.84a10.42,10.42,0,0,1-1.57,2.94c-.21.11-1,.17-3.86-.69-.75-.22-1.4-.43-2-.62-5.34-1.72-6.56-1.14-10.06,4.74-.67,1.12-1.17,2.19-1.62,3.14-1.42,3-1.79,3.62-4,3.36a7.23,7.23,0,0,1-3.54-1.86c-1.29-1-2.76-2.18-4.67-1.68s-3,2.51-3.81,4.4a9,9,0,0,0-.18,5.13,6.2,6.2,0,0,1,.1,2.78,6.58,6.58,0,0,1-.72.45,6,6,0,0,0-3.22,3.57c-1,3.43.11,5.65,1.21,6.9,3,3.39,9.11,3.5,12.27,3a93.3,93.3,0,0,0,15.67-4.24c3.18-1.06,6.46-2.16,9.65-3,6.71-1.7,13.52-3.16,20.11-4.58,16.36-3.51,33.27-7.14,49.34-14.7,5-2.36,9.84-5.22,14.5-8l.84-.5c.8-.47,1.72-1.15,2.69-1.87,1.64-1.21,3.89-2.88,5.11-3.06,4.79-.74,15.31,5.54,21.26,10.24a62.22,62.22,0,0,1,5.19,4.78c4.39,4.36,8.93,8.87,16.55,8.89s15.47-1.06,23-2.1c2.31-.32,4.61-.64,6.89-.92.94-.12,2.23-.17,3.6-.22,4.77-.18,10.7-.4,13.32-3.72a6.28,6.28,0,0,0,1.09-5.33c-.6-3-3.15-5.72-5.85-8.62-5.11-5.48-8-9.12-4.33-13.31,3.13-3.62,19.2-3.65,25.77-2.14,11.33,2.61,17.75,17.48,18.69,27.2,1.73,17.89-14.39,33.48-27.35,46-1.27,1.23-2.51,2.43-3.7,3.59-18.84,18.52-40.85,35.31-62,47.27-9,5.1-19.56,10.91-30.46,15.25-4.5,1.79-8.91,1.86-13.58,1.93a57.39,57.39,0,0,0-10.84.88c-11.58,2.36-22.79,9.47-32.67,15.73-2.49,1.58-4.85,3.07-7.19,4.48-5,3-10,6.25-14.81,9.51Zm308.81,39.77c8.35,14.2,14.8,27.32,19.17,39,1,2.78,1.05,4,1,4.46h0c-1.48,0-6.11-2.41-10.08-6.12a77.83,77.83,0,0,1-7.24-8.26c-4.09-5.12-8.32-10.42-13.86-13.47-4.77-2.64-10.22-4.17-15.49-5.65A77.56,77.56,0,0,1,277.12,420c-16-8-32.52-22.34-42.65-33.1a20,20,0,0,1-2.38-3.82c-1.22-2.29-2.48-4.65-4.31-5.86a8.34,8.34,0,0,0-4.46-1.69c-2.13,0-3.48,1.55-4.73,3.33a18,18,0,0,1-2,2.5c-5.23,5.25-14,8-21.71,10.4-1.65.51-3.25,1-4.76,1.52-14.87,5-30.51,7.3-45.65,9.56-12,1.79-24.48,3.64-36.59,6.81a56.79,56.79,0,0,0-5.45,2c-3.38,1.35-13.67,5.45-15.38,4.2a1.22,1.22,0,0,1,0-.51c.23-2.22,6.13-6.71,8.35-8.4.66-.5,1.23-.94,1.67-1.29a133.15,133.15,0,0,1,12.28-8.5c1.94-1.24,3.95-2.52,5.91-3.84,3.55-2.38,7.06-4.8,10.58-7.22,8.24-5.67,16.77-11.52,25.49-16.79,2.38-1.44,4.76-2.94,7.27-4.54,10-6.36,20.4-12.93,31.18-15.13a53.11,53.11,0,0,1,10-.8c4.87-.08,9.9-.16,15.16-2.25,11.17-4.44,21.86-10.33,31-15.51,21.47-12.15,43.82-29.18,62.93-48,1.17-1.15,2.4-2.34,3.67-3.57,13.65-13.2,30.63-29.62,28.69-49.65-1.25-12.9-9.43-28.19-22.13-31.12-5.44-1.26-24.85-2.57-30.15,3.57-6.5,7.52-.17,14.31,4.45,19.27,2.15,2.31,4.38,4.7,4.73,6.46.23,1.12-.1,1.53-.22,1.68-1.34,1.7-6.54,1.89-10,2-1.47.05-2.85.11-4,.25-2.3.29-4.62.61-6.95.93A171.86,171.86,0,0,1,254.64,235c-5.79,0-9.33-3.52-13.42-7.59a65.38,65.38,0,0,0-5.57-5.12c-.65-.51-16-12.5-24.71-11.15-2.31.36-4.84,2.23-7.08,3.89-.88.65-1.7,1.26-2.31,1.62l-.84.5c-4.57,2.71-9.3,5.51-14.12,7.78-15.61,7.34-31.53,10.76-48.38,14.37-6.63,1.42-13.48,2.89-20.27,4.62-3.35.85-6.71,2-10,3.06A89.91,89.91,0,0,1,93.06,251c-2.94.43-6.93,0-8.26-1.55-.34-.39-.75-1.11-.28-2.73.08-.29.36-.48,1.15-.94a5.43,5.43,0,0,0,2.56-2.45,9.21,9.21,0,0,0,.24-5.39,5.77,5.77,0,0,1-.1-2.68,9.68,9.68,0,0,1,.78-1.56c.25.18.57.42.82.63a11.2,11.2,0,0,0,5.81,2.79c5.48.62,7.11-2.84,8.56-5.89.43-.9.87-1.83,1.42-2.77a18,18,0,0,1,2.35-3.43,11.49,11.49,0,0,1,2.51.65c.6.19,1.29.41,2.07.65,7.07,2.11,8.5.47,10.8-4.73.24-.54.5-1.13.79-1.77.52-1.14,1.61-3.5,2-3.75a9.37,9.37,0,0,1,2.15.08c.82.08,1.81.17,3,.23,6.07.29,6.92-.15,10.16-5.23.19-.3.44-.67.73-1.1,3.05-4.53,5.92-9.23,4.59-12.55-2-5.09-11.07-4.94-15.92-4.86h-.94l-2.08,0c-8.79-.17-14.33.12-16.63,2.09-1.45,1.25-1.74,3.13-2,4.78a7.77,7.77,0,0,1-.68,2.61c-2.09,3.34-7.7,1.59-14.28-.86-1.4-.52-2.72-1-3.92-1.38l-3.61-1.1.78,3.7c.49,2.34.15,3.28-.13,3.46-1.12.74-5.65-.63-9.79-3.52l-2.27-1.51-1.08,2.52c-2.45,5.73-2.61,5.86-5.93,4.81a6.33,6.33,0,0,1-1.83-1.38,9.85,9.85,0,0,0-3.77-2.49,9.74,9.74,0,0,0-4.45,0,8.35,8.35,0,0,1-2.59.18c-3-.57-12.76-7.11-13.37-9.37-.22-1.06,2-3.43,3.09-4.57.44-.47.85-.9,1.17-1.28C61.51,172.07,78,155.56,92.61,141L94,139.65c15.55-15.54,30.23-30.21,49.48-40.75,9.49-5.19,15.44-12.84,21.2-20.23a109.09,109.09,0,0,1,11.26-13c7.32-6.85,18.37-10.59,28.11-13.89l1.41-.48c15.1-3.48,31.78-6.16,52.49-8.44.51-.06,1.26-.18,2.14-.33,5-.85,7.93-1,8.8-.48.36,1.16-.83,5.08-16.94,17.74-1.13.89-1.95,1.53-2.43,2l-.2.17C238.64,71.26,233.9,77.22,234,81.29a4.41,4.41,0,0,0,1.61,3.44c2.29,1.91,7.06,1.13,13-.08.94-.19,1.76-.36,2.2-.41,2.66-.35,5.32-.74,8-1.13,3.5-.51,7.13-1,10.69-1.47,24.12-2.9,46.69,1.31,67.49,6.28,25.59,6.12,46.85,17.37,65,34.39,17.53,16.44,35,34.2,39,54.52,4.67,23.83,3.1,42.84-4.82,58.11C424,258.19,410.23,277,395,290.72c-31.15,28.22-74,51.73-127.35,69.86l-4,1.36,3.36,2.54C287.37,379.8,305.16,394.16,317.27,414.73ZM491.54,375H287.62c-4.71-3.93-9.57-7.75-14.53-11.52C325.19,345.3,367.21,322,398,294c15.59-14.12,29.73-33.31,42-57,8.4-16.2,10.11-36.16,5.24-61-3.74-19.09-18.2-35.63-34-50.9h80.2Z"/>
      <path d="M119.16,159.73l3-3.41c.16-.18,17.78-18.49,23.77-18.71a2.74,2.74,0,0,1,2.11.77,3.87,3.87,0,0,1,1,3.28c-.43,4.42-5.91,12-8.21,13.51-3.57,2.4-8.95,3-13.69,3.49-1.24.13-2.41.26-3.45.41ZM145.68,141c-2.88.58-12.42,8.93-17.84,14.22,3.91-.43,8.42-1,11-2.81C141.1,150.9,145.95,143.07,145.68,141Z"/>
    </g>
  </g>
</svg>
