<svg xmlns="http://www.w3.org/2000/svg" viewBox="0 0 500 500"><title>rim-worlds-republic</title><g id="Icons"><polygon points="101.09 380.45 4.5 380.45 4.5 114.82 72.92 114.82 72.92 130.92 20.6 130.92 20.6 364.35 101.09 364.35 101.09 380.45"/><polygon points="495.5 380.45 314.39 380.45 314.39 364.35 479.4 364.35 479.4 130.92 435.13 130.92 435.13 114.82 495.5 114.82 495.5 380.45"/><path d="M439.16,163.12c-5.72-11.55-22.46-31.81-32.2-40.25-15-13-49.12-31.58-68.42-36.22-17.31-4.16-64.54-4.45-88.31-4.26A6.65,6.65,0,0,1,245.5,71l19.93-15.9A6.53,6.53,0,0,0,260.22,44s-56,2.45-70.59,10.44c-14,7.64-22.07,27-32.2,36.22-10.37,9.43-52.32,28.17-52.32,28.17S51.95,155,44.75,175.19c-1,2.8-2,8.57-2.72,13.78a9.22,9.22,0,0,0,9.06,10.55c13.9.09,37.77-.36,46-4.21a143.5,143.5,0,0,1,20.12-8c7-2.16,19.74-1.82,24.15,4,4.24,5.62,5.86,16.22,0,20.12-12.07,8-46.87,19.41-46.87,19.41-4.36,2.18-2.81,12.79,2.07,12.79,0,0,50.45-4,60.9-8,12.75-4.93,29-27.68,31.76-31.57-.25-6-.36-13.82.54-17.65,1.65-7,7.4-15.39,8.51-17.24l6.91,4.13c-2.84,4.74-6.43,10.07-7.59,15-.62,2.62-.58,9.13-.34,15.17h12.06c-.23-5.9-.3-13.32.57-17,1.65-7,7.4-15.39,8.51-17.24l6.91,4.13c-2.84,4.74-6.43,10.07-7.59,15-.62,2.62-.58,9.13-.34,15.17h12.06c-.23-5.9-.3-13.32.57-17,1.65-7,7.4-15.39,8.51-17.24l6.91,4.13c-2.84,4.74-6.43,10.07-7.59,15-.62,2.62-.58,9.13-.34,15.17h.45s9.85,23.74,16.1,28.17c9.13,6.46,43.6,5.57,56.76,4.66a3.12,3.12,0,0,0,1.77-5.52s-14.84-10.39-18.29-15.24c-5-7-12.55-16.82-8-24.15,4.77-7.76,23.45-6.56,32.2-4,6.19,1.79,17.54,10.2,20.12,16.1,5.66,12.94-1.44,38.14-8,48.3C311.37,281,250.16,324.88,217.8,336.18c-14.28,5-40,7.16-52.32,12.07-18.23,7.29-64.36,43.59-84.11,58.72a4.62,4.62,0,0,0,3.25,8.27s61.56-7.64,80.86-14.67c15.24-5.55,43.83-26.12,60.37-24.15,17,2,36.48,30.86,48.3,40.25,10.37,8.24,43,31.33,58.36,39.19,3.2,1.64,6.63-9.82,5-13,0,0-21.06-42.38-31.19-54.32-9.25-10.91-44.27-36.22-44.27-36.22l44.27-20.12s40.28-19.48,52.32-28.17c20.2-14.58,58.43-47.82,72.44-68.42,6.09-9,11.34-29.43,12.07-40.25C443.74,187,442.84,170.55,439.16,163.12Zm-306.53-9.85c-10.5,4.86-21.09,4.31-23.65-1.23s3.87-14,14.36-18.83,21.09-4.31,23.65,1.23S143.12,148.41,132.63,153.27Z"/></g></svg>