<svg xmlns="http://www.w3.org/2000/svg" viewBox="0 0 500 500"><defs><style>.cls-1{fill:#1478c7;}</style></defs><title>spirit-cats_COLOR</title><g id="n1"><path class="cls-1" d="M250,385c-9,0-21-13-36-19s6,29-9,39-38-69-44-89-69-7-80-18,26-70,34-100-44-51-62-66S25,86,45,96s205,8,205,8h0s185,2,205-8,10,21-8,36-70,36-62,66,44,80,33,91-73,7-79,27-29,99-44,89,6-45-9-39-27,19-36,19Z"/></g><g id="Base"><path d="M441.52,149.19a265.69,265.69,0,0,0,25.16-29.82L496.5,77.19,340.72,96,335,98.63c-23.48-3.62-77.5-5.16-84-5.21S190.48,95,167,98.63L161.24,96,5.5,77.19l29.78,42.19a265.07,265.07,0,0,0,25.16,29.82c12.15,12.37,23.64,21.19,34.6,26.66.21.23.08.07,9.41,13.73l-7,43.77L84.87,242.1s2.33,4.16,4.83,8.65l-34.19,34.1,44,45.86,17.11-20.15L153.12,323c3.5,28.23,12.33,59.5,32,85.54l31.28,3.75,8.16-24c-.67-2.25-1.34-4.46-1.92-6.62.34,0,8.62,1.82,10.63,2.5C237.32,393,251,422.81,251,422.81s13.7-29.81,17.8-38.68c1.91-.68,10.23-2.47,10.56-2.5-.58,2.16-1.26,4.37-1.92,6.62l8.16,24,31.28-3.75c19.69-26,28.47-57.31,32-85.54l36.47-12.44,17.11,20.15,44-45.86-34.18-34.1c2.49-4.49,4.83-8.65,4.83-8.65l-12.57-8.75-7-43.77c9.33-13.66,9.24-13.5,9.42-13.73C417.88,170.38,429.37,161.56,441.52,149.19ZM98.15,297.81l-11.32-12.2c2.06-2.19,4.21-4.3,6.4-6.36,2.72,4.12,6.71,10.13,9.08,13.64C99.69,295.88,98.15,297.81,98.15,297.81Zm6.93-7.94-8.6-13.6c2.59-2.28,5.13-4.39,7.55-6.32l8.47,12.63C109.69,285.13,107.19,287.63,105.08,289.87Zm24.7-20.14a89,89,0,0,0-14.26,10.18l-8-12.68c7.06-5.4,12.33-8.69,12.33-8.69l-4-7.11h0a103.29,103.29,0,0,1,15-6.45A147.89,147.89,0,0,0,144,253a116.05,116.05,0,0,0-14,5.79Zm25.53,1.54c-5.57,5.13-8.47,26-8.47,26L135,293.2c.66-14.52,8.25-23.07,8.25-23.07l-3.64-5.44h0c3-2.94,7.5-5.4,12.24-7.33,2.63,1.45,5.4,2.9,8.12,4.39a40.11,40.11,0,0,0-7.68,5.75Zm19.13-1.71c-4.65-2.5-9.61-5.13-14.52-7.81a67,67,0,0,1,8.16-4.08,62.13,62.13,0,0,1-4.47-4.34,96.63,96.63,0,0,0-11.8,4c-2.76-1.49-5.4-2.94-7.85-4.34a119.46,119.46,0,0,1,16.58-4.52,37.17,37.17,0,0,1-1.71-9.3,117.8,117.8,0,0,0-28,5.79,20.58,20.58,0,0,1-2.59-2c-4.43-4-5.66-11.14-5.48-19.17,17.63-7.11,49.35-19.52,59-21.14,8.47-1.67,30.27-.31,36.94.13a106.72,106.72,0,0,1,1.1,15.13l2.54,4.65,25.53,20.27c0,30.44-12.41,39.66-33.21,26.54-11.89,19.56-30.8,63.65-11.45,125.9C172.6,354.79,172.38,297.24,174.44,269.56ZM126.49,182l-.26-.39a214.36,214.36,0,0,1,24.61-2.81h0c4.47,5.09,12,13.25,19,18.64C166.15,200,151.58,209,124.08,210,126,197.22,128.86,185.24,126.49,182ZM235.11,223.5l16.1-2.06,16.1,2.06-16.1,14.87Zm39.52,136.43c-21,3.77-23.43,9.21-23.43,9.21s-2.5-5.44-23.47-9.21c-29.13-5.26-16.58-14.52-17.06-21.71-.09-.88-.48-2-.53-2.76l0,0s-1.75-8,11-25.31c-2.37,16.27,2.37,26.76,6.1,32.24a192.69,192.69,0,0,0,24,7.68,195.28,195.28,0,0,0,24-7.68c3.73-5.48,8.47-16,6.05-32.24,12.77,17.28,11,25.31,11,25.31v0c-.09.75-.48,1.89-.57,2.76h0C291.21,345.41,303.8,354.66,274.63,359.93Zm98-90.19-.13-10.92h0A115.08,115.08,0,0,0,358.42,253c5.44-3,10-5.83,13.16-8a117.69,117.69,0,0,0-28-5.79,37.16,37.16,0,0,1-1.67,9.3A120.46,120.46,0,0,1,358.42,253c-2.46,1.4-5.09,2.85-7.81,4.34,4.74,1.93,9.21,4.39,12.24,7.33l-3.64,5.44s7.55,8.55,8.25,23.07l-11.89,4.08s-2.94-20.88-8.51-26l3.07-3.77h0a38.29,38.29,0,0,0-7.68-5.75l8.16-4.39a99.25,99.25,0,0,0-11.8-4,55.49,55.49,0,0,1-4.52,4.34,61.15,61.15,0,0,1,8.16,4.08c-4.91,2.68-9.87,5.31-14.48,7.81,2,27.68,1.8,85.23-28.82,125.72,19.39-62.25.48-106.33-11.45-125.9-20.79,13.12-33.21,3.9-33.21-26.54l25.57-20.27,2.54-4.65a99.56,99.56,0,0,1,1.1-15.13h0c6.62-.44,28.47-1.8,36.89-.13,9.69,1.62,41.37,14,59,21.14.18,8-1.05,15.18-5.48,19.17a20.57,20.57,0,0,1-2.59,2,105.41,105.41,0,0,1,15,6.45l-4,7.11s5.22,3.29,12.33,8.69l-8,12.68A88.56,88.56,0,0,0,372.63,269.73ZM378.29,210c-27.5-1-42.07-10-45.71-12.59h0c6.93-5.4,14.48-13.56,19-18.64a214.32,214.32,0,0,1,24.61,2.81l-.26.39C373.51,185.24,376.45,197.22,378.29,210Zm20,60h0c2.41,1.93,5,4,7.55,6.32l-8.6,13.6c-2.06-2.24-4.56-4.74-7.37-7.28C392.42,278.86,395.93,273.55,398.34,270ZM380.75,160.24l-1,.09-.88,0c-8.6,7.76-73.13,18.34-98.66,18.42-3.25,0-4.43,4.08-4.43,4.08s-3.9,22.28,1.1,34.7l-25.71-1.89-25.75,1.89c5-12.41,1.1-34.7,1.1-34.7s-1.18-4.08-4.39-4.08c-25.53-.09-90.06-10.66-98.66-18.42l-.88,0-1-.09c-29.74.35-68-53.87-68-53.87s63.61,8.55,102.12,11.71c10,4.43,30.75,23.86,41.06,33.43l4.3-6.49s16.41,11.19,20.57,20.62l3.07-1.8s-4.43-16.23-19.61-31.45l-7.33,3.42s-6-8.51-12.94-17.33c3.16-.53,7.55-1,12.55-1.27,8.51-.66,22.85-1,34.61-1.1.13,5.61.31,16.76.31,19.21l7.63,1.18s9.65,8.86-4.34,35.53l7.28,7.33c2.63-5.57,8.29-11.14,8.29-11.14s5.66,5.57,8.25,11.14l7.33-7.33c-14-26.67-4.34-35.53-4.34-35.53l7.63-1.18c0-2.46.13-13.6.26-19.21,11.76.13,26.15.44,34.66,1.1,5,.31,9.39.75,12.5,1.27-6.93,8.82-12.9,17.33-12.9,17.33l-7.33-3.42c-15.18,15.22-19.65,31.45-19.65,31.45l3.11,1.8c4.12-9.43,20.53-20.62,20.53-20.62l4.3,6.49c10.35-9.56,31-29,41.1-33.43h0c38.52-3.16,102.08-11.71,102.08-11.71S410.49,160.59,380.75,160.24Z"/><path d="M328.77,239.07l0,7.85a93.59,93.59,0,0,1,9.34.92,47.43,47.43,0,0,0,.79-8.91A77.12,77.12,0,0,0,328.77,239.07Z"/><path d="M167.81,252.27c1.45,1.18,3.29,2.59,4.83,3.64h0c1.27-.48,2.68-.92,4.12-1.36l-3.42-3.47S171.15,251.44,167.81,252.27Z"/><path d="M173.61,239.07a77.12,77.12,0,0,0-10.09-.13,47.74,47.74,0,0,0,.83,8.91c3.07-.44,6.19-.79,9.3-.92Z"/><path d="M329.07,251.09l-3.42,3.47c1.45.44,2.81.88,4.12,1.36,1.49-1.05,3.38-2.46,4.78-3.64-3.33-.83-5.48-1.18-5.48-1.18Z"/><polygon points="332.58 197.4 332.58 197.4 332.58 197.4 332.58 197.4"/><polygon points="139.56 264.69 139.56 264.69 139.56 264.69 139.56 264.69"/><polygon points="115.88 251.44 115.88 251.44 115.88 251.44 115.88 251.44"/></g></svg>