<svg xmlns="http://www.w3.org/2000/svg" viewBox="0 0 500 500"><title>star-league</title><g id="Base"><path d="M53,183.32l57.59,27.28-3,21.22s-24.25,12.12-27.28,9.09S53,183.32,53,183.32Z"/><polygon points="207.57 210.6 259.09 183.32 240.91 234.85 213.63 231.81 207.57 210.6"/><polygon points="86.33 325.77 107.55 337.89 113.61 359.11 59.06 377.3 86.33 325.77"/><polygon points="204.54 356.08 213.63 331.83 240.91 328.8 268.19 386.39 204.54 356.08"/><path d="M204.54,240.91,156,46.93l-39.4,194L4.5,283.34l109.11,42.43L153,453.07l51.52-130.33,291-33.34ZM198.72,323l-26.77-8.57-12.87,25-12.87-25L119.43,323,128,296.21l-25-12.87,25-12.87-8.57-26.77,26.77,8.57,12.87-25,12.87,25,26.77-8.57-8.57,26.77,25,12.87-25,12.87Z"/><circle cx="159.07" cy="283.34" r="15.15"/></g></svg>