<svg xmlns="http://www.w3.org/2000/svg" viewBox="0 0 500 500"><defs><style>.cls-1{fill:#a0a1a2;}.cls-2{fill:#eceef0;}.cls-3{fill:#9a191e;}.cls-4{fill:#c62128;}</style></defs><title>steel-wolves_COLOR</title><g id="n4"><polyline class="cls-1" points="287.66 75.88 324.8 112.86 328.48 166.79 259.56 166.79 259.56 145.79 277.8 127.56 278.55 126.81 278.55 125.75 278.55 85.39 287.66 75.88"/><polyline class="cls-1" points="297.67 277.45 328.68 308.46 318.93 321.21 317.56 323 319.15 324.59 326.85 332.28 328.31 333.75 330.05 332.63 338.4 327.25 349.74 338.59 344.31 346.85 343.16 348.59 344.63 350.07 352.07 357.51 353.5 358.94 355.23 357.88 363.68 352.7 377.23 366.25 374.02 370.83 364.24 370.83 363.17 370.83 362.42 371.58 348.84 385.16 302.19 338.51 305.16 335.54 300.14 334.77 259.39 328.61 259.39 290.67 272.76 277.45 297.67 277.45"/><path class="cls-1" d="M183.59,139.6l-3.4,3.4-.75.75v33.3H167.38v58.46L151.2,251.69l-1.81,1.81,1.81,1.81,64.37,64.37-10.41,10.41-1.81,1.81,1.81,1.81,25.48,25.48.75.75H275.3v15.69l.75.75,48.81,48.81H236L104.27,293.5c0-6.57.2-42.28.35-77.6.09-22.85.16-41.06.19-54.14,0-7.77,0-13.78,0-17.89,0-1.73,0-3.17,0-4.27h78.77"/><polyline class="cls-1" points="250.84 130.19 250.84 172.1 250.84 174.66 253.41 174.66 331.19 174.66 397.07 240.54 397.07 258.77 352.62 214.32 350 211.7 348.47 215.08 340.69 232.27 339.74 234.38 341.74 235.54 378.22 256.75 457.27 335.8 455.8 339.6 442.95 337.68 441.67 337.49 440.75 338.4 435.18 343.98 418.28 343.98 417.45 343.98 416.78 344.47 408.12 350.71 403.64 346.23 408.35 340.06 409.71 338.28 408.12 336.69 400.51 329.08 399.01 327.58 397.25 328.78 390.37 333.48 378.1 321.21 383.09 315.58 384.69 313.77 382.98 312.07 374.77 303.86 373.31 302.4 371.57 303.51 364.76 307.87 352.64 295.75 358.95 287.18 362.94 281.76 356.35 283.15 322.14 290.39 300.37 268.62 299.62 267.87 298.56 267.87 270.85 267.87 269.79 267.87 269.04 268.62 251.51 286.15 250.76 286.91 250.76 287.97 250.76 333.38 250.76 335.53 252.88 335.9 286.93 341.89 277.74 351.08 233.95 351.08 214.66 331.8 225.12 321.34 226.93 319.52 225.12 317.71 161 253.59 174.84 239.76 175.59 239 175.59 237.94 175.59 185.61 184.82 185.61 187.39 185.61 187.39 183.04 187.39 147.69 205.36 130.19 250.84 130.19"/></g><g id="n3"><polygon class="cls-2" points="272.76 277.45 259.39 290.67 259.39 308.25 328.47 308.25 297.67 277.45 272.76 277.45"/><path class="cls-2" d="M149.38,253.51l1.81-1.81,16.18-16.18V191.75H104.72q0,11-.09,24.15c-.14,35.32-.32,71-.35,77.6L119,308.25h85.1L151.2,255.32Z"/><polygon class="cls-2" points="341.74 235.54 339.74 234.38 340.69 232.27 348.47 215.08 350 211.7 352.62 214.32 397.07 258.77 397.07 240.54 348.28 191.75 175.59 191.75 175.59 237.94 175.59 239 174.84 239.76 161 253.59 215.66 308.25 250.76 308.25 250.76 287.97 250.76 286.91 251.51 286.15 269.04 268.62 269.79 267.87 270.85 267.87 298.56 267.87 299.62 267.87 300.37 268.62 322.14 290.39 356.35 283.15 362.94 281.76 358.95 287.18 352.64 295.75 364.76 307.87 371.57 303.51 373.31 302.4 374.77 303.86 379.17 308.25 429.72 308.25 378.22 256.75 341.74 235.54"/></g><g id="n2"><polygon class="cls-3" points="5.16 314.48 105.86 314.48 88.11 296.8 88.11 190.82 5.16 190.82 5.16 314.48"/><polygon class="cls-3" points="456.08 314.48 495.84 314.48 495.84 190.82 366.01 190.82 412.25 237.24 412.25 271.1 456.08 314.48"/></g><g id="n1"><rect class="cls-4" x="5.16" y="218.63" width="82.95" height="62.75"/><polygon class="cls-4" points="393.71 218.63 412.25 237.24 412.25 271.1 422.63 281.37 495.84 281.37 495.84 218.63 393.71 218.63"/></g><g id="Base"><path d="M90.67,295.73V188.26H2.59V317H112.07ZM5.16,190.82h83v106l17.75,17.68H5.16Z"/><path d="M359.84,188.26l49.85,50v33.87l45,44.5.37.37h43.39V188.26Zm136,126.22H456.08L412.25,271.1V237.24L366,190.82H495.84Z"/><path d="M327.29,111.72,287.61,72.21,276,84.36v41.39l-19,19v24.63h74.23Zm-67.73,34.07,18.23-18.23.75-.75V85.39l9.11-9.51,37.14,37,3.68,53.93H259.56Z"/><path d="M364.06,349.45l-10.18,6.24-7.44-7.44,6.58-10L338.75,324l-10.09,6.5-7.7-7.7,11.12-14.54-33.35-33.35h-27l-14.88,14.71v41.22l42.93,6.5-1.2,1.2,50.28,50.28,15.39-15.39h11.12l5.22-7.44Zm10,21.38H363.17l-.75.75-13.58,13.58-46.65-46.65,3-3-5-.76-40.75-6.17V290.67l13.37-13.21h24.91l31,31-9.75,12.75L317.56,323l1.59,1.59,7.7,7.7,1.46,1.46,1.74-1.12,8.35-5.38,11.34,11.34-5.44,8.26-1.15,1.75,1.48,1.48,7.44,7.44,1.43,1.43,1.72-1.06,8.45-5.18,13.55,13.55Z"/><path d="M277.86,374.6V357.41H232.46L207,331.92l12.23-12.23L153,253.51l16.93-16.93v-57H182v-34.8l7.78-7.78H102.22c.26.26-.51,157.52-.51,157.52L234.94,427.79h96.12ZM104.27,293.5c0-6.57.2-42.28.35-77.6.09-22.85.16-41.06.19-54.14,0-7.77,0-13.78,0-17.89,0-1.73,0-3.17,0-4.27h78.77l-3.4,3.4-.75.75v33.3H167.38v58.46L151.2,251.69l-1.81,1.81,1.81,1.81,64.37,64.37-10.41,10.41-1.81,1.81,1.81,1.81,25.48,25.48.75.75H275.3v15.69l.75.75,48.81,48.81H236Z"/><path d="M379.8,254.7,343,233.32l7.78-17.19L399.64,265V239.48L332.25,172.1H253.41V127.63H204.32l-19.5,19V183H173v54.9l-15.65,15.65,65.93,65.93L211,331.8l21.85,21.85h45.92l13.43-13.43-38.91-6.84V288l17.53-17.53h27.71l22.75,22.75,35.57-7.52L349.27,296l15.14,15.14,8.55-5.47,8.21,8.21-6.58,7.44,15.48,15.48,8.64-5.9,7.61,7.61-6.07,8,7.61,7.61,10.43-7.53h18l6.33-6.33,14.88,2.22,2.82-7.27Zm76,84.9-12.85-1.92-1.28-.19-.91.91L435.18,344H417.45l-.67.48-8.66,6.25-4.48-4.48,4.71-6.17,1.36-1.78-1.59-1.59-7.61-7.61-1.5-1.5-1.76,1.2-6.88,4.7L378.1,321.21l5-5.63,1.6-1.81L383,312.07l-8.21-8.21-1.46-1.46-1.74,1.11-6.81,4.36-12.12-12.12,6.3-8.57,4-5.42-6.59,1.39-34.21,7.24-21.76-21.76-.75-.75H269.79l-.75.75-17.53,17.53-.75.75v48.63l2.12.37,34.05,6-9.19,9.19h-43.8L214.66,331.8l10.46-10.46,1.81-1.81-1.81-1.81L161,253.59l13.84-13.84.75-.75v-53.4h11.8V147.69l18-17.5h45.48v44.47h80.35l65.88,65.88v18.23l-44.45-44.45L350,211.7l-1.53,3.38-7.78,17.19-1,2.11,2,1.17,36.48,21.21,79.05,79.05Z"/><path d="M195.88,198.66a8.34,8.34,0,1,0,6.82,8.26A8.4,8.4,0,0,0,195.88,198.66Zm2.4,10.05a6,6,0,0,1-6.27.95,5.05,5.05,0,0,1-3.15-5,5.37,5.37,0,0,1,5-4.6,5.75,5.75,0,0,1,5.61,2.89A4.77,4.77,0,0,1,198.28,208.71Z"/><path d="M125.76,215.77a8.34,8.34,0,1,0,6.82,8.26A8.4,8.4,0,0,0,125.76,215.77Zm2.4,10.05a6,6,0,0,1-6.27.94,5.05,5.05,0,0,1-3.15-5,5.37,5.37,0,0,1,5-4.6,5.75,5.75,0,0,1,5.61,2.89A4.77,4.77,0,0,1,128.16,225.82Z"/><path d="M187.84,246a8.34,8.34,0,1,0,6.82,8.26A8.4,8.4,0,0,0,187.84,246Zm2.4,10.05A6,6,0,0,1,184,257a5.05,5.05,0,0,1-3.15-5,5.37,5.37,0,0,1,5-4.6,5.75,5.75,0,0,1,5.61,2.89A4.77,4.77,0,0,1,190.24,256.09Z"/><path d="M186.3,336.86a8.34,8.34,0,1,0,6.82,8.26A8.4,8.4,0,0,0,186.3,336.86Zm2.4,10.05a6,6,0,0,1-6.27.95,5.05,5.05,0,0,1-3.15-5,5.37,5.37,0,0,1,5-4.6,5.75,5.75,0,0,1,5.61,2.89A4.77,4.77,0,0,1,188.7,346.91Z"/><path d="M245.05,395.86a8.34,8.34,0,1,0,6.82,8.26A8.4,8.4,0,0,0,245.05,395.86Zm2.4,10.05a6,6,0,0,1-6.27.94,5.05,5.05,0,0,1-3.15-5,5.37,5.37,0,0,1,5-4.6,5.75,5.75,0,0,1,5.61,2.89A4.77,4.77,0,0,1,247.45,405.91Z"/><path d="M231.45,289.48a8.34,8.34,0,1,0,6.82,8.26A8.4,8.4,0,0,0,231.45,289.48Zm2.4,10.05a6,6,0,0,1-6.27.95,5.05,5.05,0,0,1-3.15-5,5.37,5.37,0,0,1,5-4.6A5.75,5.75,0,0,1,235,293.8,4.77,4.77,0,0,1,233.86,299.53Z"/><path d="M280.88,288.28a8.34,8.34,0,1,0,6.82,8.26A8.4,8.4,0,0,0,280.88,288.28Zm2.4,10.05a6,6,0,0,1-6.27.95,5.05,5.05,0,0,1-3.15-5,5.37,5.37,0,0,1,5-4.6,5.75,5.75,0,0,1,5.61,2.89A4.77,4.77,0,0,1,283.28,298.33Z"/><path d="M126.1,276.31a8.34,8.34,0,1,0,6.82,8.26A8.4,8.4,0,0,0,126.1,276.31Zm2.4,10.05a6,6,0,0,1-6.27.95,5.05,5.05,0,0,1-3.15-5,5.37,5.37,0,0,1,5-4.6,5.75,5.75,0,0,1,5.61,2.89A4.77,4.77,0,0,1,128.5,286.36Z"/><path d="M279.34,142.22a8.34,8.34,0,1,0,6.82,8.26A8.4,8.4,0,0,0,279.34,142.22Zm2.4,10.05a6,6,0,0,1-6.27.95,5.05,5.05,0,0,1-3.15-5,5.37,5.37,0,0,1,5-4.6,5.75,5.75,0,0,1,5.61,2.89A4.77,4.77,0,0,1,281.74,152.27Z"/><path d="M215.38,136.92a8.34,8.34,0,1,0,6.82,8.26A8.4,8.4,0,0,0,215.38,136.92Zm2.4,10.05a6,6,0,0,1-6.27.94,5.05,5.05,0,0,1-3.15-5,5.37,5.37,0,0,1,5-4.6,5.75,5.75,0,0,1,5.61,2.89A4.77,4.77,0,0,1,217.78,147Z"/><path d="M125.59,152a8.34,8.34,0,1,0,6.82,8.26A8.4,8.4,0,0,0,125.59,152ZM128,162a6,6,0,0,1-6.27.95,5.05,5.05,0,0,1-3.15-5,5.37,5.37,0,0,1,5-4.6,5.75,5.75,0,0,1,5.61,2.89A4.77,4.77,0,0,1,128,162Z"/></g></svg>