<svg xmlns="http://www.w3.org/2000/svg" viewBox="0 0 500 500"><defs><style>.cls-1{fill:none;stroke:#000;stroke-miterlimit:10;}</style></defs><title>steel-wolves</title><g id="Icons"><path d="M112.07,317H2.59V188.26H90.67V295.73ZM5.16,314.48h100.7L88.11,296.8v-106h-83Z"/><path d="M498.41,317H455l-.37-.37-45-44.5V238.3l-49.85-50H498.41Zm-42.33-2.57h39.77V190.82H366l46.24,46.42V271.1Z"/><path d="M287.66,75.88l37.14,37,3.68,53.93H259.56v-21l18.23-18.23.75-.75V85.39l9.11-9.51m0-3.66L276,84.36v41.39l-19,19v24.63h74.23l-3.93-57.64L287.61,72.21Z"/><path d="M297.67,277.45l31,31-9.75,12.75L317.56,323l1.59,1.59,7.7,7.7,1.46,1.46,1.74-1.12,8.35-5.38,11.34,11.34-5.44,8.26-1.15,1.75,1.48,1.48,7.44,7.44,1.43,1.43,1.72-1.06,8.45-5.18,13.55,13.55L374,370.83H363.17l-.75.75-13.58,13.58-46.65-46.65,3-3-5-.76-40.75-6.17V290.66l13.37-13.21h24.91m1.06-2.57h-27l-14.88,14.71v41.22l42.93,6.5-1.2,1.2,50.28,50.28,15.39-15.39h11.12l5.22-7.44-16.5-16.5-10.18,6.24-7.44-7.44,6.58-10L338.75,324l-10.09,6.5-7.7-7.7,11.12-14.54-33.35-33.35Z"/><path d="M183.59,139.6l-3.4,3.4-.75.75v33.3H167.38v58.46L151.2,251.69l-1.81,1.81,1.81,1.81,64.37,64.37-10.41,10.41-1.81,1.81,1.81,1.81,25.48,25.48.75.75H275.3v15.69l.75.75,48.81,48.81H236L104.27,293.5c0-6.57.2-42.28.35-77.6.09-22.85.16-41.06.19-54.14,0-7.77,0-13.78,0-17.89,0-1.73,0-3.17,0-4.27h78.77m6.19-2.57H102.22c.26.26-.51,157.52-.51,157.52L234.94,427.79h96.12L277.86,374.6V357.41H232.46L207,331.92l12.23-12.23L153,253.51l16.93-16.93v-57H182v-34.8l7.78-7.78Z"/><path d="M250.84,130.19v44.47h80.35l65.88,65.88v18.23l-44.45-44.45L350,211.7l-1.53,3.38-7.78,17.19-1,2.11,2,1.16,36.48,21.21,79.05,79.05-1.47,3.8-12.85-1.92-1.28-.19-.91.91L435.18,344H417.45l-.67.48-8.66,6.25-4.48-4.48,4.71-6.17,1.36-1.78-1.59-1.59-7.61-7.61-1.5-1.5-1.76,1.2-6.88,4.7L378.1,321.21l5-5.63,1.6-1.81L383,312.07l-8.21-8.21-1.46-1.46-1.74,1.11-6.81,4.36-12.12-12.12,6.3-8.57,4-5.42-6.59,1.39-34.21,7.24-21.76-21.76-.75-.75H269.79l-.75.75-17.53,17.53-.75.75v48.63l2.12.37,34.05,6-9.19,9.19h-43.8L214.66,331.8l10.46-10.46,1.81-1.81-1.81-1.81L161,253.59l13.84-13.84.75-.75v-53.4h11.8V147.69l18-17.5h45.48m2.57-2.57H204.32l-19.5,19V183H173v54.9l-15.65,15.65,65.93,65.93L211,331.8l21.85,21.85h45.92l13.43-13.43-38.91-6.84V288l17.53-17.53h27.71l22.75,22.75,35.57-7.53L349.27,296l15.14,15.14,8.55-5.47,8.21,8.21-6.58,7.44,15.48,15.48,8.64-5.9,7.61,7.61-6.07,8,7.61,7.61,10.43-7.53h18l6.33-6.33,14.88,2.22,2.82-7.27L379.8,254.7,343,233.32l7.78-17.19L399.64,265V239.48L332.25,172.1H253.41V127.63Z"/><path d="M195.88,198.66a8.34,8.34,0,1,0,6.82,8.26A8.4,8.4,0,0,0,195.88,198.66Zm-2.05,1.42a5.75,5.75,0,0,1,5.61,2.89,4.77,4.77,0,0,1-1.16,5.73,6,6,0,0,1-6.27.95,5.05,5.05,0,0,1-3.15-5A5.37,5.37,0,0,1,193.83,200.09Z"/><path d="M125.76,215.77a8.34,8.34,0,1,0,6.82,8.26A8.4,8.4,0,0,0,125.76,215.77Zm-2.05,1.42a5.75,5.75,0,0,1,5.61,2.89,4.77,4.77,0,0,1-1.16,5.73,6,6,0,0,1-6.27.95,5.05,5.05,0,0,1-3.15-5A5.37,5.37,0,0,1,123.71,217.19Z"/><path d="M187.84,246a8.34,8.34,0,1,0,6.82,8.26A8.4,8.4,0,0,0,187.84,246Zm-2.05,1.42a5.75,5.75,0,0,1,5.61,2.89,4.77,4.77,0,0,1-1.16,5.73A6,6,0,0,1,184,257a5.05,5.05,0,0,1-3.15-5A5.37,5.37,0,0,1,185.79,247.46Z"/><path d="M186.3,336.86a8.34,8.34,0,1,0,6.82,8.26A8.4,8.4,0,0,0,186.3,336.86Zm-2.05,1.42a5.75,5.75,0,0,1,5.61,2.89,4.77,4.77,0,0,1-1.16,5.73,6,6,0,0,1-6.27.95,5.05,5.05,0,0,1-3.15-5A5.37,5.37,0,0,1,184.25,338.28Z"/><path d="M245.05,395.86a8.34,8.34,0,1,0,6.82,8.26A8.4,8.4,0,0,0,245.05,395.86ZM243,397.28a5.75,5.75,0,0,1,5.61,2.89,4.77,4.77,0,0,1-1.16,5.73,6,6,0,0,1-6.27.95,5.05,5.05,0,0,1-3.15-5A5.37,5.37,0,0,1,243,397.28Z"/><path d="M231.45,289.48a8.34,8.34,0,1,0,6.82,8.26A8.4,8.4,0,0,0,231.45,289.48Zm-2.05,1.42A5.75,5.75,0,0,1,235,293.8a4.77,4.77,0,0,1-1.16,5.73,6,6,0,0,1-6.27.95,5.05,5.05,0,0,1-3.15-5A5.37,5.37,0,0,1,229.4,290.9Z"/><path d="M280.88,288.28a8.34,8.34,0,1,0,6.82,8.26A8.4,8.4,0,0,0,280.88,288.28Zm-2.05,1.42a5.75,5.75,0,0,1,5.61,2.89,4.77,4.77,0,0,1-1.16,5.73,6,6,0,0,1-6.27.95,5.05,5.05,0,0,1-3.15-5A5.37,5.37,0,0,1,278.83,289.71Z"/><path d="M126.1,276.31a8.34,8.34,0,1,0,6.82,8.26A8.4,8.4,0,0,0,126.1,276.31ZM124,277.73a5.75,5.75,0,0,1,5.61,2.89,4.77,4.77,0,0,1-1.16,5.73,6,6,0,0,1-6.27.95,5.05,5.05,0,0,1-3.15-5A5.37,5.37,0,0,1,124,277.73Z"/><path d="M279.34,142.22a8.34,8.34,0,1,0,6.82,8.26A8.4,8.4,0,0,0,279.34,142.22Zm-2.05,1.42a5.75,5.75,0,0,1,5.61,2.89,4.77,4.77,0,0,1-1.16,5.73,6,6,0,0,1-6.27.95,5.05,5.05,0,0,1-3.15-5A5.37,5.37,0,0,1,277.29,143.65Z"/><path d="M215.38,136.92a8.34,8.34,0,1,0,6.82,8.26A8.4,8.4,0,0,0,215.38,136.92Zm-2.05,1.42a5.75,5.75,0,0,1,5.61,2.89,4.77,4.77,0,0,1-1.16,5.73,6,6,0,0,1-6.27.95,5.05,5.05,0,0,1-3.15-5A5.37,5.37,0,0,1,213.33,138.34Z"/><path d="M125.59,152a8.34,8.34,0,1,0,6.82,8.26A8.4,8.4,0,0,0,125.59,152Zm-2.05,1.42a5.75,5.75,0,0,1,5.61,2.89A4.77,4.77,0,0,1,128,162a6,6,0,0,1-6.27.95,5.05,5.05,0,0,1-3.15-5A5.37,5.37,0,0,1,123.54,153.39Z"/><rect class="cls-1" width="500" height="500"/></g></svg>