<svg xmlns="http://www.w3.org/2000/svg" viewBox="0 0 500 500"><defs><style>.cls-1{fill:#0046c7;}</style></defs><title>steiner_COLOR</title><g id="n1"><polygon class="cls-1" points="32 72 95 13 407 13 472 72 472 390 402 493 98 493 32 383 32 72"/></g><g id="Base"><path d="M173.83,216.78H289.52l-34.36,35.51v51.54s-43.52-1.15-68.72,4.58c-14.7,3.34-57.27,14.89-57.27,14.89l-20.62-43.52s30.51-17.83,40.09-25.2C163.53,243.13,173.83,216.78,173.83,216.78Z"/><path d="M263.17,302.69V254.58l38.94-37.8h73.3l21.76-19.47,14.89-63,12.6,20.62v49.25a487.06,487.06,0,0,1-27.49,68.72,232.76,232.76,0,0,1-34.36,50.4s-37.38-12.11-50.4-14.89C300.33,305.83,263.17,302.69,263.17,302.69Z"/><polygon points="149.78 161.81 172.69 150.35 172.69 191.59 149.78 161.81"/><polygon points="68.46 411.5 39.83 380.57 39.83 74.76 98.24 19.78 405.2 19.78 460.17 75.91 460.17 386.3 433.83 416.08 446.43 428.68 478.5 389.73 478.5 67.89 413.21 2.6 89.08 2.6 21.5 69.03 21.5 387.44 54.72 424.1 68.46 411.5"/><polygon points="110.35 381.31 188.88 381.74 209.49 424.1 278.08 424.1 300.98 381.73 387.93 381.31 369.94 362.82 129.38 362.82 110.35 381.31"/><polygon points="307.83 393.15 284.91 435.55 202.32 435.55 181.69 393.15 98.63 392.7 94.8 396.41 94.8 401.19 173.91 401.19 194.52 443.57 296.4 443.57 319.31 401.19 404.05 401.19 404.05 397.88 399.02 392.71 307.83 393.15"/><path d="M404.05,406.91H322.72l-22.91,42.38H190.94l-20.62-42.38H94.8V497.4H404.05ZM141.76,459.6a12.6,12.6,0,1,1,12.6-12.6A12.6,12.6,0,0,1,141.76,459.6Zm213,0A12.6,12.6,0,1,1,367.4,447,12.6,12.6,0,0,1,354.8,459.6Z"/><polygon points="366.6 359.38 358.24 350.79 141.76 350.79 132.92 359.38 366.6 359.38"/><polygon points="85.64 406.92 83.99 406.92 61.59 428.68 61.59 475.64 85.64 475.64 85.64 406.92"/><polygon points="413.21 407.3 413.21 475.64 440.7 475.64 440.7 435.55 413.21 407.3"/><path d="M140.62,338.19h213v-3.44s-27.49-18.33-106.52-18.33c-69.87,0-106.52,18.33-106.52,18.33Z"/><polygon points="203.61 93.08 248.28 93.08 250.57 97.67 250.57 187 232.25 205.33 185.29 205.33 185.29 144.63 203.61 133.17 203.61 93.08"/><polygon points="260.88 96.52 263.17 93.08 321.58 93.08 326.17 96.52 326.17 187 307.84 205.33 260.88 205.33 260.88 96.52"/><polygon points="338.77 103.39 342.2 99.96 404.05 99.96 406.34 103.39 385.73 185.86 366.25 205.33 338.77 205.33 338.77 103.39"/><polygon points="163.07 74.76 158.94 67.89 120 67.89 113.59 74.76 163.07 74.76"/><polygon points="110.38 78.19 103.97 85.07 169.25 85.07 165.13 78.19 110.38 78.19"/><polygon points="384.79 79.91 380 74.76 351.37 74.76 349.16 79.91 384.79 79.91"/><polygon points="347.68 83.35 344.49 90.79 394.89 90.79 387.98 83.35 347.68 83.35"/><polygon points="186.2 78.19 183 85.07 244.85 85.07 241.64 78.19 186.2 78.19"/><polygon points="240.03 74.76 236.83 67.89 191.01 67.89 187.81 74.76 240.03 74.76"/><polygon points="268.9 78.19 266.61 85.07 319.29 85.07 317 78.19 268.9 78.19"/><polygon points="315.86 74.76 313.57 67.89 272.33 67.89 270.04 74.76 315.86 74.76"/><path d="M91.37,109.12l8-14.89L136,93.09s-22.73,5.22-29.78,8C102.79,102.48,91.37,109.12,91.37,109.12Z"/><path d="M73,130.88s40.77-16.7,55-20.62a376.25,376.25,0,0,1,64.14-11.45v28.63s-19.17,6.63-26.34,10.31c-6.5,3.33-25.2,14.89-25.2,14.89Z"/><path d="M132,163.21c-.79-.76-1.54-1.42-2.24-2-6-4.7-20.11-8.44-27.49-10.31-9.26-2.35-37.8-5.73-37.8-5.73s.83,5.74,2.06,13.53A498.61,498.61,0,0,0,132,163.21Z"/><path d="M135.26,166.65a504.77,504.77,0,0,1-68.19-4.4c1.93,12.05,4.56,27.29,6.54,34.49,4.89,17.74,25.2,69.87,25.2,69.87s24.68-9.78,38.94-21.76S164.1,207,164.1,207,147.22,180,135.26,166.65Z"/></g></svg>