<svg xmlns="http://www.w3.org/2000/svg" viewBox="0 0 500 500"><defs><style>.cls-1{fill:#f7e845;}.cls-2{fill:#688fca;}.cls-3{fill:#654e36;}.cls-4{fill:#dbdcdd;}.cls-5{fill:#3b5089;}.cls-6{fill:#a6a8aa;}</style></defs><title>stormhammers_COLOR</title><g id="n6"><path class="cls-1" d="M459.24,145.55C437.91,161,388.75,194.34,352.77,218.4L337.7,191.61l-16.79,7.11-11.44-11.44,50.1-31.93,13.15,26.83,2.34-1C401,169.77,439.46,153.27,459.24,145.55Z"/><path class="cls-1" d="M330.65,14.89c-7.17,18.92-24.72,59-36.73,85.62l-1.07,2.36L319.8,116l-32.47,49.13L282,159.78h-8.08l10.47-23.09-27.14-13.94C280.82,87,315.68,35.09,330.65,14.89Z"/><path class="cls-1" d="M24.61,321.39c32-23.27,94.59-65.47,107.93-74.44l13.31,27.14L169,265.9l.1,7.54,4.71,4.71-48.35,31.7-13.94-25.72-2.26,1C83.07,297,43.62,314.29,24.61,321.39Z"/><path class="cls-1" d="M156.43,446.58c8.06-20.11,23.2-55.76,33.78-80.29l1-2.3-27.3-13.91,32.84-49,10.72,10.73-6.78,17.33,27,14.39C204.25,377.89,172.36,424.31,156.43,446.58Z"/></g><g id="n5"><path class="cls-2" d="M429,152.16l-7.57,3.2c-19.7,8.35-39.49,17-46.15,19.9l-13.53-27.6-56.13,35.77L291.19,169l36.42-55.11-27.76-13.54,2.55-5.69A189.72,189.72,0,0,1,429,152.16Z"/><path class="cls-2" d="M268.61,95.93c-10.12,15.18-17.36,26.17-17.48,26.36l-1.64,2.48,27.91,14.34L268,159.74l.08,0H257.64l-.39.4c-8.45,8.61-18,18.31-27.6,28-1.85-2-5.82-6.27-7.86-8.31s-5.38-2.51-9.25-1.57c-4.74,1.16-10,4.56-15.32,9.84-12,12-9.8,22.66-9.7,23.11l.08.37,9.33,9.6c-14.34,14.41-25.19,25.18-27.2,26.83h-.94l.16,12.17-20.4,7.2-13.91-28.36-2.54,1.7c-.31.21-11.93,8-28.09,19C115.2,174.45,183.16,106.75,268.61,95.93Z"/><path class="cls-2" d="M102.61,294l6.61-3,14.34,26.45L177.69,282l15.2,15.21L156.12,352.1l28.2,14.37C181.5,373,173.12,392.55,165,412q-2.17,5.15-4.1,9.78A189.74,189.74,0,0,1,102.61,294Z"/><path class="cls-2" d="M173,432.42c5.6-8,12.2-17.52,19.74-28.45,20.38-29.55,40.83-59.62,41-59.92l1.67-2.46-28-15,5.07-13h20.08l27.39-27.39,28.52,29.29c-2,3.86-10.07,19.22-11.4,24.52-1.24,5,0,8,.68,9.14l-4.1,21.37-21,.74L247.52,367l-3,3.51-20.5,1.2L208.7,387.25l9.22,9.35-2.4,2.53,73.69,75.73A189.3,189.3,0,0,1,173,432.42Z"/><path class="cls-2" d="M338.66,469.25l.1-3,3.31-4.66-3.83-4.42L338,433.32c3.95-.73,17.48-3.38,27.56-7.34s19.39-10.89,22.35-13.19l21.55,21.9A189.69,189.69,0,0,1,338.66,469.25Z"/><path class="cls-2" d="M443.24,400.74,416,374l1.6-9-12.25-11.67h-7.22l2.3-9.09L385.78,330,377,331.62l3.5-9.56-14.74-14.74-8.48,2,2.94-8.25L344,285.92l-11.58,4.26-38.08-38.34,28.8-28.8V203.57l12.22-5.18L350.94,226l2.4-1.6c.3-.2,30.71-20.52,60.56-40.87q15.2-10.37,26.7-18.34a189.85,189.85,0,0,1,2.64,235.52Z"/></g><g id="n4"><path class="cls-3" d="M418,424.49a1.4,1.4,0,0,0-.25-.43c-9.18-10.52-20.26-18.85-29.31-29.6,7.48-.64,15.2-8.33,20.65-13,.59-.51,3.87-2.93,5.44-5.21l26.14,25.68Z"/><path class="cls-3" d="M325.86,288.92a2.2,2.2,0,0,0-.26,1.26l-8.73-5.63L300.4,300.67A2.21,2.21,0,0,0,299,302l-1.3,1.27-27.34-27.47,22.13-22.13,34.19,34.42A2,2,0,0,0,325.86,288.92Z"/><path class="cls-3" d="M197.52,192.51a2.81,2.81,0,0,0-.27-.45c.58-.66,1.19-1.32,1.86-2,11.86-11.86,19.17-9.9,20.79-8.27,2,2,6.07,6.38,7.87,8.32-7.63,7.73-15.26,15.44-22.36,22.6a2.19,2.19,0,0,0-.42-.61c-5.3-5.42-9-7.51-8-15.67C197.07,195.59,197.92,193.35,197.52,192.51Z"/></g><g id="n3"><path class="cls-4" d="M247.68,237.31c.81,7.32,2.15,15.09,7.61,20.45a24.54,24.54,0,0,0,4,3.14l-8.86,8.86a19,19,0,0,1-3.28-2.6c-5.53-5.52-9.62-14.7-9.42-22.53.21-8.37,3.62-17.22,6.77-24.88,1.48-3.62,3.43-7.16,4.39-11a29.09,29.09,0,0,0,.28-10.51,18.27,18.27,0,0,0-.72-3.42l8.87-8.87a17.57,17.57,0,0,1,.54,4.67c-.09,8-3.69,15.8-6.35,23.23C248.74,221.51,246.79,229.15,247.68,237.31Z"/><path class="cls-4" d="M252.9,179.39a11,11,0,0,1,3.34,3.86l-9,9a11,11,0,0,0-2.31-2.79c-2.33-2-5.18-3.32-7.41-5.43l8.81-8.94C248.37,176.73,250.75,177.83,252.9,179.39Z"/><path class="cls-4" d="M240.5,198.24c.09.16.18.33.25.49l-5.37,5.37c-.1-.15-.21-.31-.33-.46a30.5,30.5,0,0,0-9.35-7.64l5.14-5.21C234,193.46,238.39,194.46,240.5,198.24Z"/><path class="cls-4" d="M230.64,272.08c-4-8.39-6.11-19.45-2.76-28.38s8.24-17.28,9.4-27c.39-3.34.53-6.91-.62-10.06l5.06-5.06c.77,3.72-.14,7.74-1.16,11.35-2.88,10.2-6.79,20.34-8.86,30.74a30.25,30.25,0,0,0,.44,13.82c1.13,4.27,2.48,9.09,4.87,12.86a26.25,26.25,0,0,0,6,6.85l-5.41,5.4C234.59,279.71,232.34,275.65,230.64,272.08Z"/><path class="cls-4" d="M245.39,278.54l.17.07a51,51,0,0,0,7.71,1.73l7.32,1.5-5.33,5.33-.19,0-7.72-.84c-2.66-.29-5.4-.51-7.69-2Z"/><path class="cls-4" d="M252.83,271.1l8.83-8.83a43.5,43.5,0,0,0,14.52,4L267.44,275a.68.68,0,0,0-.38-.18C262.33,274,257.24,273.18,252.83,271.1Z"/><polygon class="cls-4" points="260.18 162.45 279.47 162.45 274.45 175.48 265.46 175.48 260.18 162.45"/><path class="cls-4" d="M257.31,377.45q9.5-.93,19-1.53l.16,0c2.61,2.27,6.67,5.83,11.1,9.85l-21.3.93Z"/><path class="cls-4" d="M316.57,303l.84,2.4c-1.79,2.78-7.54,11.76-11.86,18.62a49.71,49.71,0,0,0-6.42,17.51l-1.56.13a53.36,53.36,0,0,1-8.27,0c1-4,4.75-11.65,9.1-20.47,4.53-9.18,12.78-19.88,15.3-23.06A19.21,19.21,0,0,1,316.57,303Z"/><path class="cls-4" d="M293.59,344.46c1.41,0,2.83-.05,4.22-.18l1.39-.11.37,4c-2.49,0-6.95-.07-11.06-.2.19-1.52.34-2.79.43-3.68C290.44,344.39,292,344.46,293.59,344.46Z"/><path class="cls-4" d="M298.45,350.84h.68c-1.19,3.2-3.83,10.51-5.53,16.85-.77,2.88-1.54,6-2.21,8.8-2.21-1.78-4.28-3.43-6.15-4.89.41-2.83,1.94-13.49,2.93-21C291.8,350.74,295.75,350.84,298.45,350.84Z"/><path class="cls-4" d="M320.9,300.93a3.06,3.06,0,0,0-2,.65c-1.35-3.36-4.74-7.25-6.39-9l4.7-4.6,4.53,2.91c.14,1.67.52,6.25.75,10.06Z"/><path class="cls-4" d="M338,301.35l14.46,11.48a29.5,29.5,0,0,1,1.19,5.62,83.91,83.91,0,0,1-7.85-5.2c-2.43-1.72-4.95-3.5-6.74-4.59-3.88-2.37-11.08-5.8-13.88-7.11-.16-2.94-.43-6.47-.63-8.85Z"/></g><g id="n2"><path class="cls-5" d="M239,376.86l-15.63,15.93,0,0a12.2,12.2,0,0,0-3.39-3.13,15,15,0,0,1-2.89-2.1c3-2.61,5.58-5.72,8.72-8.24,2.37-1.91,5.43-1.86,8.36-2.1C235.72,377,237.34,376.93,239,376.86Z"/><path class="cls-5" d="M315,465.15c-7.37-.18-15.75,1-23-.37-5.56-1-8.33-4.46-12.47-8.64-17.06-17.25-34-34.27-51.1-51.6-1.44-1.46-3.87-4.39-5.83-5.72l21.79-22.21a2.36,2.36,0,0,0,1.15-.9l21.14,21.77L260.6,415.9l29.62,29.62,19.07-5.6,24.24,24.59-.76.72C329.88,463.57,318,465.23,315,465.15Z"/><path class="cls-5" d="M335.76,475.68a3.61,3.61,0,0,0-.6-.17,41.76,41.76,0,0,0-6.8-1l7.7-7.27Z"/><path class="cls-5" d="M337.59,463.31,310.38,435.7l-19.09,5.61-26.42-26.42L271,396.5l-17-17.46a2.54,2.54,0,0,0,1.76-.84l9.62,9.87v.25h.23l7.63,7.83-6.14,18.69,24.57,24.43,19.37-5.74,24.49,24.59v.09l3.1,3.58Z"/></g><g id="n1"><path class="cls-6" d="M335.65,326.83c-1.61,2.4-4,5.69-6.82,6.79-3.41,1.32-2.62-8.12-2.27-9.44C329.65,324.28,332.88,325.56,335.65,326.83Z"/><path class="cls-6" d="M374.69,385.5c-2.78-4.87-1.06-4.37,2.9-8.34,3.25-3.26,6.11-6.69,9.21-10,.88-.95,7.11-6.8,9.73-11.12h7.75L414.72,366l-1.14,6.37c-2.77-.34-9.93,7.93-11.87,9.46-5.74,4.55-11.92,10.44-20,8.38C379.49,389.61,376,387.78,374.69,385.5Z"/><path class="cls-6" d="M395.88,351.36a6,6,0,0,0-.76,0c-2,0-12.26,11.23-14.2,12.85-7.39,6.16-13.56,16.48-24.52,12.05-12.71-5.13-6.06-12.41.13-19.45,5.57-6.33,13.28-12.32,17.79-19.35a22.93,22.93,0,0,0,1.63-2.91l9-1.61,12.56,12.19Z"/><path class="cls-6" d="M373.84,332.46a26,26,0,0,0-4.4,2.77c-6.05,4.55-13.37,13.2-20.38,16-6,2.4-17.22-2.27-16.92-10.3.21-5.7,14.22-10.72,13.32-15.86a.61.61,0,0,0,0-.09c4.61.1,10.57-.39,11.48-.46l.71-.06,4.23-7.61-5.69-4.52,8.76-2.08,12.48,12.48Z"/><path class="cls-6" d="M172.63,249.08c1.91-1.74,5.53-5.28,12.78-12.51s17.52-17.54,30.21-30.36l8.92-9a29.41,29.41,0,0,1,9.17,7.36,7.26,7.26,0,0,1,.5.73L184.89,254.6Z"/><polygon class="cls-6" points="184.19 265.62 171.76 270.87 171.51 251.51 183.88 257.07 184.19 265.62"/><path class="cls-6" d="M263,176.49,257.45,182a11.62,11.62,0,0,0-2.08-2.67c-2.34-2.24-5.42-3.42-7.89-5.44l10.25-10.42Z"/><path class="cls-6" d="M243,200.23l4-4a23.4,23.4,0,0,1,.7,4.8,27.49,27.49,0,0,1-2.66,13.28c-1.59,3.62-3.12,7.25-4.43,11-2.53,7.26-5.41,15.46-4.36,23.25A37,37,0,0,0,245.68,268a19.69,19.69,0,0,0,3.56,2.93l-5.1,5.1c-3.58-2.44-6.36-7-7.73-10.67-1.8-4.75-3.63-9.84-3.77-15-.14-5.53,1.72-10.9,3.28-16.14l4.35-14.7c1.29-4.37,2.91-8.78,3.27-13.35A17.13,17.13,0,0,0,243,200.23Z"/><path class="cls-6" d="M242.52,189.57a11.27,11.27,0,0,1,3.48,3.91l-4.07,4.07a11.08,11.08,0,0,0-1-1.51c-2.33-3-6.17-4-9-6.38l4.44-4.5A52.6,52.6,0,0,0,242.52,189.57Z"/><path class="cls-6" d="M235.39,207.87c1,3.46.57,7.47,0,10.92-1.41,8-5.13,15.3-8.3,22.73-5.48,12.82-1,28.94,7.27,39.58a27.34,27.34,0,0,0,2.2,2.53L224.25,295.9h-7.91l-29.46-30-.34-9.2Z"/><path class="cls-6" d="M260.42,259.74a22.92,22.92,0,0,1-4.83-4c-2.89-3.15-4.18-6.92-5.05-11A54.65,54.65,0,0,1,249,231.2c.34-8,3.48-15.49,6.17-22.91,2.33-6.43,4.88-13.49,4.06-20.43a16.93,16.93,0,0,0-.68-3.19l6.52-6.52h9.7l29.39,29.39V216Z"/><polygon class="cls-6" points="276.92 176.48 281.92 163.51 319.37 200.96 305.9 205.46 276.92 176.48"/><polygon class="cls-6" points="306.87 207.94 320.5 203.39 320.5 220.57 306.87 215.57 306.87 207.94"/><path class="cls-6" d="M334.27,292.35,343.4,289l13.7,12.85L354,310.62l-14.37-11.41-7-4.52a2,2,0,0,0,1.42-1A2.22,2.22,0,0,0,334.27,292.35Z"/><path class="cls-6" d="M274.76,395.33l-6.94-7.12,21.48-.93c5.16,4.72,10.62,9.9,14.75,14.28,4.77,5.06,11.43,12.26,17.37,18.73L316.19,426l-3.76-3.51-19.48,6.67L280,417.08l3.61-14.25Z"/><path class="cls-6" d="M354.59,314.52l3.82,3L356,321.94c-4.81.38-12.41.69-14.35,0-2.55-.89-14-5.39-17.46-6.77a59.84,59.84,0,0,0,1.15-10.95c0-.28,0-.58,0-.88,3.16,1.5,9.5,4.56,13,6.67,1.74,1.06,4.24,2.83,6.65,4.53,7.79,5.51,9.09,6.21,9.95,5.36C355.06,319.67,355.72,319,354.59,314.52Z"/><path class="cls-6" d="M322.64,304.31a42.27,42.27,0,0,1-.47,6.46c-.86-2.39-1.87-5.23-2.62-7.39a1.41,1.41,0,0,1,.24-.44,1.38,1.38,0,0,1,1.12-.41h1.66C322.6,303.17,322.62,303.77,322.64,304.31Z"/><path class="cls-6" d="M301.17,348.11l-.38-4.05c5.57-.36,11.52-.43,14.77-.44l-.19.19C312.45,346.29,306.23,347.8,301.17,348.11Z"/><path class="cls-6" d="M300.78,341.38a48.69,48.69,0,0,1,6.13-16.55c3.87-6.15,8.9-14,11.18-17.56,1.33,3.73,2.83,7.91,3.21,8.95-.06,1.42-.38,8.54-1.41,12.09a43,43,0,0,0-.93,4.78,40.8,40.8,0,0,1-1.79,7.87C314.7,340.94,307.5,341,300.78,341.38Z"/><path class="cls-6" d="M306.75,399c-4.33-4.59-10.09-10-15.46-14.94.28-1.24.64-2.87,1.07-4.7,6.42,5.25,13.65,11.45,19.71,17.4C320.43,405,329,415,334.91,422.11a41.91,41.91,0,0,0,3.07,3.76c1.39,1.72,2.51,3.13,3.27,4.1-2.9.59-4.77.91-4.83.92l-.22,0C330.94,425.15,315.62,408.38,306.75,399Z"/><path class="cls-6" d="M322,403.2a1.32,1.32,0,0,0-1.13.33c-2.52-2.72-5.1-5.4-7.66-7.91-6.29-6.18-13.82-12.62-20.42-18,.71-3,1.54-6.39,2.37-9.51,1.8-6.72,4.68-14.57,5.71-17.32A40.08,40.08,0,0,0,311,349l57.57,51.29.29.26,6.59,1.07,4.29,4.73c-5.88.5-20.15,1.57-28.73,1C340,406.47,322.16,403.23,322,403.2Z"/><path class="cls-6" d="M303,301.88l7.61-7.46c.55.6,1.3,1.43,2.09,2.39-2.23,2.8-11,14-15.71,23.64-4.6,9.31-8.27,16.93-9.28,21-1.6-.14-3.1-.33-4.41-.51a15.56,15.56,0,0,1,.73-2.46c2.16-5.48,5.46-10.67,8.22-15.86,3-5.56,6-11.09,9.46-16.36a2.42,2.42,0,0,0,.35-.82,11.51,11.51,0,0,0,1-2.24A1.92,1.92,0,0,0,303,301.88Z"/><path class="cls-6" d="M287.34,344.15c-.09.89-.24,2.19-.44,3.76l-4.07-.15a40.15,40.15,0,0,1,.08-4.13C284.22,343.83,285.73,344,287.34,344.15Z"/><path class="cls-6" d="M282.9,350.44l3.65.13c-.9,6.81-2.24,16.21-2.77,19.9-1.48-1.15-2.8-2.16-3.89-3a90.88,90.88,0,0,0,2.76-10.77A34.93,34.93,0,0,0,282.9,350.44Z"/><path class="cls-6" d="M291,378.23c-.4,1.73-.76,3.3-1,4.58-4.57-4.15-8.73-7.79-11.3-10,.21-1.23.49-2.44.8-3.65C282.26,371.3,286.37,374.49,291,378.23Z"/></g><g id="Base"><path d="M475.78,207.28a197.7,197.7,0,0,0-28.08-47c2.74-1.91,5.27-3.7,7.58-5.33,5.91-4.19,10.45-7.5,13.5-9.84,1.7-1.3,2.94-2.31,3.8-3.07s2.85-2.53,1.69-4.62c-1.32-2.37-4-1.46-7.77-.2-2.67.9-6.5,2.33-11.4,4.26s-10.68,4.28-17.56,7.14c-1.42-1.52-2.86-3-4.34-4.5A198,198,0,0,0,306.11,86.33C310,77.46,315.09,66,320,54.57c6.05-14,10.74-25.31,13.94-33.49,1.91-4.89,3.31-8.73,4.16-11.42,1-3.21,2.06-6.53-.55-7.83-2.42-1.21-4.23.91-7.78,5.41-2.39,3-5.72,7.55-9.91,13.43-7,9.87-16.6,23.73-28.43,41.22C285.74,70.34,280,78.83,274.8,86.67A198.59,198.59,0,0,0,94.69,266.13C67.36,284.74,32,309,14.06,322.54c-1.55,1.16-4.44,3.33-2.91,5.91a3.17,3.17,0,0,0,3,1.52,18.22,18.22,0,0,0,4.84-1c2.71-.82,6.56-2.19,11.45-4.07,8.16-3.15,19.37-7.78,33.32-13.78,10.94-4.7,21.88-9.52,30.53-13.36a198.06,198.06,0,0,0,57.79,127.49c1.72,1.72,3.48,3.4,5.26,5.05-2.36,5.72-4.38,10.67-6,14.8-1.92,4.8-3.36,8.55-4.29,11.14-1.48,4.14-2.23,6.22-.21,7.57a2.62,2.62,0,0,0,1.47.48c1.46,0,2.62-1.39,3.26-2.15s1.66-2.08,2.93-3.76c2.28-3,5.54-7.54,9.69-13.39l3.85-5.45a198,198,0,0,0,124.64,43.92c1.63,0,3.26,0,4.88-.07l10.84,11.14.86.89,5-4.19,9.41,8.33,14.48-14.18.25-7.2A199,199,0,0,0,475.78,207.28Zm-16.54-61.72C437.91,161,388.75,194.34,352.77,218.4L337.7,191.61l-16.79,7.11-11.44-11.44,50.1-31.93,13.15,26.83,2.34-1C401,169.77,439.46,153.27,459.24,145.55Zm-125,146.8L343.4,289l13.7,12.85L354,310.62l-14.37-11.41-7-4.52a2,2,0,0,0,1.42-1A2.22,2.22,0,0,0,334.27,292.35Zm-59.51,103-6.94-7.12,21.48-.93c5.16,4.72,10.62,9.9,14.75,14.28,4.77,5.06,11.43,12.26,17.37,18.73L316.19,426l-3.76-3.51-19.48,6.67L280,417.08l3.61-14.25Zm-17.44-17.88q9.5-.93,19-1.53l.16,0c2.61,2.27,6.67,5.83,11.1,9.85l-21.3.93ZM303,301.88l7.61-7.46c.55.6,1.3,1.43,2.09,2.39-2.23,2.8-11,14-15.71,23.64-4.6,9.31-8.27,16.93-9.28,21-1.6-.14-3.1-.33-4.41-.51a15.56,15.56,0,0,1,.73-2.46c2.16-5.48,5.46-10.67,8.22-15.86,3-5.56,6-11.09,9.46-16.36a2.42,2.42,0,0,0,.35-.82,11.51,11.51,0,0,0,1-2.24A1.92,1.92,0,0,0,303,301.88Zm51.61,12.64,3.82,3L356,321.94c-4.81.38-12.41.69-14.35,0-2.55-.89-14-5.39-17.46-6.77a59.84,59.84,0,0,0,1.15-10.95c0-.28,0-.58,0-.88,3.16,1.5,9.5,4.56,13,6.67,1.74,1.06,4.24,2.83,6.65,4.53,7.79,5.51,9.09,6.21,9.95,5.36C355.06,319.67,355.72,319,354.59,314.52Zm-18.94,12.31c-1.61,2.4-4,5.69-6.82,6.79-3.41,1.32-2.62-8.12-2.27-9.44C329.65,324.28,332.88,325.56,335.65,326.83Zm-13-22.52a42.27,42.27,0,0,1-.47,6.46c-.86-2.39-1.87-5.23-2.62-7.39a1.41,1.41,0,0,1,.24-.44,1.38,1.38,0,0,1,1.12-.41h1.66C322.6,303.17,322.62,303.77,322.64,304.31Zm-21.47,43.8-.38-4.05c5.57-.36,11.52-.43,14.77-.44l-.19.19C312.45,346.29,306.23,347.8,301.17,348.11ZM316.57,303l.84,2.4c-1.79,2.78-7.54,11.76-11.86,18.62a49.71,49.71,0,0,0-6.42,17.51l-1.56.13a53.36,53.36,0,0,1-8.27,0c1-4,4.75-11.65,9.1-20.47,4.53-9.18,12.78-19.88,15.3-23.06A19.21,19.21,0,0,1,316.57,303Zm-23,41.5c1.41,0,2.83-.05,4.22-.18l1.39-.11.37,4c-2.49,0-6.95-.07-11.06-.2.19-1.52.34-2.79.43-3.68C290.44,344.39,292,344.46,293.59,344.46Zm4.86,6.38h.68c-1.19,3.2-3.83,10.51-5.53,16.85-.77,2.88-1.54,6-2.21,8.8-2.21-1.78-4.28-3.43-6.15-4.89.41-2.83,1.94-13.49,2.93-21C291.8,350.74,295.75,350.84,298.45,350.84Zm2.33-9.46a48.69,48.69,0,0,1,6.13-16.55c3.87-6.15,8.9-14,11.18-17.56,1.33,3.73,2.83,7.91,3.21,8.95-.06,1.42-.38,8.54-1.41,12.09a43,43,0,0,0-.93,4.78,40.8,40.8,0,0,1-1.79,7.87C314.7,340.94,307.5,341,300.78,341.38Zm20.13-40.45a3.06,3.06,0,0,0-2,.65c-1.35-3.36-4.74-7.25-6.39-9l4.7-4.6,4.53,2.91c.14,1.67.52,6.25.75,10.06Zm-33.56,43.23c-.09.89-.24,2.19-.44,3.76l-4.07-.15a40.15,40.15,0,0,1,.08-4.13C284.22,343.83,285.73,344,287.34,344.15Zm-4.44,6.28,3.65.13c-.9,6.81-2.24,16.21-2.77,19.9-1.48-1.15-2.8-2.16-3.89-3a90.88,90.88,0,0,0,2.76-10.77A34.93,34.93,0,0,0,282.9,350.44ZM291,378.23c-.4,1.73-.76,3.3-1,4.58-4.57-4.15-8.73-7.79-11.3-10,.21-1.23.49-2.44.8-3.65C282.26,371.3,286.37,374.49,291,378.23ZM306.75,399c-4.33-4.59-10.09-10-15.46-14.94.28-1.24.64-2.87,1.07-4.7,6.42,5.25,13.65,11.45,19.71,17.4C320.43,405,329,415,334.91,422.11a41.91,41.91,0,0,0,3.07,3.76c1.39,1.72,2.51,3.13,3.27,4.1-2.9.59-4.77.91-4.83.92l-.22,0C330.94,425.15,315.62,408.38,306.75,399ZM322,403.2a1.32,1.32,0,0,0-1.13.33c-2.52-2.72-5.1-5.4-7.66-7.91-6.29-6.18-13.82-12.62-20.42-18,.71-3,1.54-6.39,2.37-9.51,1.8-6.72,4.68-14.57,5.71-17.32A40.08,40.08,0,0,0,311,349l57.57,51.29.29.26,6.59,1.07,4.29,4.73c-5.88.5-20.15,1.57-28.73,1C340,406.47,322.16,403.23,322,403.2Zm52.7-17.69c-2.78-4.87-1.06-4.37,2.9-8.34,3.25-3.26,6.11-6.69,9.21-10,.88-.95,7.11-6.8,9.73-11.12h7.75L414.72,366l-1.14,6.37c-2.77-.34-9.93,7.93-11.87,9.46-5.74,4.55-11.92,10.44-20,8.38C379.49,389.61,376,387.78,374.69,385.5Zm21.19-34.15a6,6,0,0,0-.76,0c-2,0-12.26,11.23-14.2,12.85-7.39,6.16-13.56,16.48-24.52,12.05-12.71-5.13-6.06-12.41.13-19.45,5.57-6.33,13.28-12.32,17.79-19.35a22.93,22.93,0,0,0,1.63-2.91l9-1.61,12.56,12.19Zm-22-18.89a26,26,0,0,0-4.4,2.77c-6.05,4.55-13.37,13.2-20.38,16-6,2.4-17.22-2.27-16.92-10.3.21-5.7,14.22-10.72,13.32-15.86a.61.61,0,0,0,0-.09c4.61.1,10.57-.39,11.48-.46l.71-.06,4.23-7.61-5.69-4.52,8.76-2.08,12.48,12.48ZM338,301.35l14.46,11.48a29.5,29.5,0,0,1,1.19,5.62,83.91,83.91,0,0,1-7.85-5.2c-2.43-1.72-4.95-3.5-6.74-4.59-3.88-2.37-11.08-5.8-13.88-7.11-.16-2.94-.43-6.47-.63-8.85Zm-12.15-12.43a2.2,2.2,0,0,0-.26,1.26l-8.73-5.63L300.4,300.67A2.21,2.21,0,0,0,299,302l-1.3,1.27-27.34-27.47,22.13-22.13,34.19,34.42A2,2,0,0,0,325.86,288.92ZM172.63,249.08c1.91-1.74,5.53-5.28,12.78-12.51s17.52-17.54,30.21-30.36l8.92-9a29.41,29.41,0,0,1,9.17,7.36,7.26,7.26,0,0,1,.5.73L184.89,254.6Zm11.56,16.53-12.43,5.26-.25-19.37,12.37,5.56Zm13.33-73.1a2.81,2.81,0,0,0-.27-.45c.58-.66,1.19-1.32,1.86-2,11.86-11.86,19.17-9.9,20.79-8.27,2,2,6.07,6.38,7.87,8.32-7.63,7.73-15.26,15.44-22.36,22.6a2.19,2.19,0,0,0-.42-.61c-5.3-5.42-9-7.51-8-15.67C197.07,195.59,197.92,193.35,197.52,192.51Zm65.47-16L257.45,182a11.62,11.62,0,0,0-2.08-2.67c-2.34-2.24-5.42-3.42-7.89-5.44l10.25-10.42Zm-2.81-14h19.29l-5,13h-9Zm-12.5,74.86c.81,7.32,2.15,15.09,7.61,20.45a24.54,24.54,0,0,0,4,3.14l-8.86,8.86a19,19,0,0,1-3.28-2.6c-5.53-5.52-9.62-14.7-9.42-22.53.21-8.37,3.62-17.22,6.77-24.88,1.48-3.62,3.43-7.16,4.39-11a29.09,29.09,0,0,0,.28-10.51,18.27,18.27,0,0,0-.72-3.42l8.87-8.87a17.57,17.57,0,0,1,.54,4.67c-.09,8-3.69,15.8-6.35,23.23C248.74,221.51,246.79,229.15,247.68,237.31ZM243,200.23l4-4a23.4,23.4,0,0,1,.7,4.8,27.49,27.49,0,0,1-2.66,13.28c-1.59,3.62-3.12,7.25-4.43,11-2.53,7.26-5.41,15.46-4.36,23.25A37,37,0,0,0,245.68,268a19.69,19.69,0,0,0,3.56,2.93l-5.1,5.1c-3.58-2.44-6.36-7-7.73-10.67-1.8-4.75-3.63-9.84-3.77-15-.14-5.53,1.72-10.9,3.28-16.14l4.35-14.7c1.29-4.37,2.91-8.78,3.27-13.35A17.13,17.13,0,0,0,243,200.23Zm9.88-20.85a11,11,0,0,1,3.34,3.86l-9,9a11,11,0,0,0-2.31-2.79c-2.33-2-5.18-3.32-7.41-5.43l8.81-8.94C248.37,176.73,250.75,177.83,252.9,179.39Zm-10.37,10.18a11.27,11.27,0,0,1,3.48,3.91l-4.07,4.07a11.08,11.08,0,0,0-1-1.51c-2.33-3-6.17-4-9-6.38l4.44-4.5A52.6,52.6,0,0,0,242.52,189.57Zm-2,8.68c.09.16.18.33.25.49l-5.37,5.37c-.1-.15-.21-.31-.33-.46a30.5,30.5,0,0,0-9.35-7.64l5.14-5.21C234,193.46,238.39,194.46,240.5,198.24Zm-5.12,9.63c1,3.46.57,7.47,0,10.92-1.41,8-5.13,15.3-8.3,22.73-5.48,12.82-1,28.94,7.27,39.58a27.34,27.34,0,0,0,2.2,2.53L224.25,295.9h-7.91l-29.46-30-.34-9.2Zm-4.75,64.21c-4-8.39-6.11-19.45-2.76-28.38s8.24-17.28,9.4-27c.39-3.34.53-6.91-.62-10.06l5.06-5.06c.77,3.72-.14,7.74-1.16,11.35-2.88,10.2-6.79,20.34-8.86,30.74a30.25,30.25,0,0,0,.44,13.82c1.13,4.27,2.48,9.09,4.87,12.86a26.25,26.25,0,0,0,6,6.85l-5.41,5.4C234.59,279.71,232.34,275.65,230.64,272.08Zm14.75,6.46.17.07a51,51,0,0,0,7.71,1.73l7.32,1.5-5.33,5.33-.19,0-7.72-.84c-2.66-.29-5.4-.51-7.69-2Zm7.44-7.44,8.83-8.83a43.5,43.5,0,0,0,14.52,4L267.44,275a.68.68,0,0,0-.38-.18C262.33,274,257.24,273.18,252.83,271.1Zm7.59-11.36a22.92,22.92,0,0,1-4.83-4c-2.89-3.15-4.18-6.92-5.05-11A54.65,54.65,0,0,1,249,231.2c.34-8,3.48-15.49,6.17-22.91,2.33-6.43,4.88-13.49,4.06-20.43a16.93,16.93,0,0,0-.68-3.19l6.52-6.52h9.7l29.39,29.39V216Zm16.5-83.25,5-13L319.37,201l-13.47,4.5Zm30,31.46,13.63-4.56v17.18l-13.63-5ZM429,152.16l-7.57,3.2c-19.7,8.35-39.49,17-46.15,19.9l-13.53-27.6-56.13,35.77L291.19,169l36.42-55.11-27.76-13.54,2.55-5.69A189.72,189.72,0,0,1,429,152.16ZM330.65,14.89c-7.17,18.92-24.72,59-36.73,85.62l-1.07,2.36L319.8,116l-32.47,49.13L282,159.78h-8.08l10.47-23.09-27.14-13.94C280.82,87,315.68,35.09,330.65,14.89Zm-62,81c-10.12,15.18-17.36,26.17-17.48,26.36l-1.64,2.48,27.91,14.34L268,159.74l.08,0H257.64l-.39.4c-8.45,8.61-18,18.31-27.6,28-1.85-2-5.82-6.27-7.86-8.31s-5.38-2.51-9.25-1.57c-4.74,1.16-10,4.56-15.32,9.84-12,12-9.8,22.66-9.7,23.11l.08.37,9.33,9.6c-14.34,14.41-25.19,25.18-27.2,26.83h-.94l.16,12.17-20.4,7.2-13.91-28.36-2.54,1.7c-.31.21-11.93,8-28.09,19C115.2,174.45,183.16,106.75,268.61,95.93Zm-244,225.46c32-23.27,94.59-65.47,107.93-74.44l13.31,27.14L169,265.9l.1,7.54,4.71,4.71-48.35,31.7-13.94-25.72-2.26,1C83.07,297,43.62,314.29,24.61,321.39Zm78-27.39,6.61-3,14.34,26.45L177.69,282l15.2,15.21L156.12,352.1l28.2,14.37C181.5,373,173.12,392.55,165,412q-2.17,5.15-4.1,9.78A189.74,189.74,0,0,1,102.61,294Zm53.82,152.58c8.06-20.11,23.2-55.76,33.78-80.29l1-2.3-27.3-13.91,32.84-49,10.72,10.73-6.78,17.33,27,14.39C204.25,377.89,172.36,424.31,156.43,446.58ZM173,432.42c5.6-8,12.2-17.52,19.74-28.45,20.38-29.55,40.83-59.62,41-59.92l1.67-2.46-28-15,5.07-13h20.08l27.39-27.39,28.52,29.29c-2,3.86-10.07,19.22-11.4,24.52-1.24,5,0,8,.68,9.14l-4.1,21.37-21,.74L247.52,367l-3,3.51-20.5,1.2L208.7,387.25l9.22,9.35-2.4,2.53,73.69,75.73A189.3,189.3,0,0,1,173,432.42Zm66-55.55-15.63,15.93,0,0a12.2,12.2,0,0,0-3.39-3.13,15,15,0,0,1-2.89-2.1c3-2.61,5.58-5.72,8.72-8.24,2.37-1.91,5.43-1.86,8.36-2.1C235.72,377,237.34,376.93,239,376.86ZM315,465.15c-7.37-.18-15.75,1-23-.37-5.56-1-8.33-4.46-12.47-8.64-17.06-17.25-34-34.27-51.1-51.6-1.44-1.46-3.87-4.39-5.83-5.72l21.79-22.21a2.36,2.36,0,0,0,1.15-.9l21.14,21.77L260.6,415.9l29.62,29.62,19.07-5.6,24.24,24.59-.76.72C329.88,463.57,318,465.23,315,465.15Zm20.72,10.53a3.61,3.61,0,0,0-.6-.17,41.76,41.76,0,0,0-6.8-1l7.7-7.27Zm1.83-12.37L310.38,435.7l-19.09,5.61-26.42-26.42L271,396.5l-17-17.46a2.54,2.54,0,0,0,1.76-.84l9.62,9.87v.25h.23l7.63,7.83-6.14,18.69,24.57,24.43,19.37-5.74,24.49,24.59v.09l3.1,3.58Zm1.07,5.94.1-3,3.31-4.66-3.83-4.42L338,433.32c3.95-.73,17.48-3.38,27.56-7.34s19.39-10.89,22.35-13.19l21.55,21.9A189.69,189.69,0,0,1,338.66,469.25ZM418,424.49a1.4,1.4,0,0,0-.25-.43c-9.18-10.52-20.26-18.85-29.31-29.6,7.48-.64,15.2-8.33,20.65-13,.59-.51,3.87-2.93,5.44-5.21l26.14,25.68Zm25.26-23.75L416,374l1.6-9-12.25-11.67h-7.22l2.3-9.09L385.78,330,377,331.62l3.5-9.56-14.74-14.74-8.48,2,2.94-8.25L344,285.92l-11.58,4.26-38.08-38.34,28.8-28.8V203.57l12.22-5.18L350.94,226l2.4-1.6c.3-.2,30.71-20.52,60.56-40.87q15.2-10.37,26.7-18.34a189.85,189.85,0,0,1,2.64,235.52Z"/></g></svg>