<svg xmlns="http://www.w3.org/2000/svg" viewBox="0 0 500 500"><title>succession-wars</title><g id="Icons"><path d="M428.56,394.21c-3.74-.94-5.56-5.8-8.76-6.57-6.14-1.49-13.63,11.7-15.34,6.57-2.19-6.57-10.27-14.41-6.57-24.1,1.66-4.36,6-4.41,6.57-8.76,2.19-17.53,4.43-35.39-2.19-48.2-4.47-8.64-12-25.52-19.72-19.72-8.76,6.57-15.34,11-19.72,19.72-4.07,8.15,8.94,10.74,8.76,19.72-.2,10.38-10.22,11.95-13.15,26.29-1.64,8-.95,12.19-4.38,15.34-4.19,3.84-14.08,2.74-17.53-2.19-3.73-5.32,2.07-12.22-2.19-17.53-2.73-3.4-9.64-.89-8.76-4.38,4.38-17.53,8.85-39.4,8.76-39.44s-19.72,17.53-24.1,32.86c-1.8,6.3-14.13-2.88-17.53-8.76-2.86-4.94-3.4-12.49,0-15.34,2.89-2.43,6.7.18,8.76-2.19,2.56-3,.25-11.14-4.38-13.15-3.76-1.63-7.14,1.62-8.76,0-1.9-1.9.76-8.35,4.38-13.15,5.52-7.3,8.49-6,11-11,4.38-8.76-8.76-37.25-11-37.25s-3.93,3.56-4.38,4.38c-2.4,4.36-.57,7.39-2.19,8.76-2.89,2.45-14.95-1.85-17.53-11-1.52-5.37.38-12,4.38-15.34,3-2.57,6.19-2.36,6.57-4.38.54-2.81-5.37-4.13-6.57-8.76-1.41-5.44,4.23-13.27,8.76-13.15,3.55.1,4,5,11,8.76,1.38.75,6.79,3.66,8.76,2.19,4.9-3.66-12-34-17.53-43.82C261.87,131.42,233.57,105,231.38,105c-4.38,0-14.76,22.77-17.53,21.91-5.87-1.83-2.19-94.21-4.38-116.12A13.41,13.41,0,0,0,202.89,2c-3.2-1.71-7.72-2-11,0-3,1.92-4,5.37-4.38,6.57-4.66,16.12,2.19,116.12-4.38,159.94,0,0-2.61,6.91-4.38,6.57-5.91-1.14-4.38-63.54-6.57-92-.34-4.39-12.86-2.35-13.15,2.19-2.19,35.06-2.19,87.64-2.19,122.69,0,3.8-10.46,7.81-11,4.38-2.19-15.34,2.19-48.2,0-63.54-.64-4.47-9.79-.31-13.15,2.19s-2.19,8.76-2.19,52.58c0,23.79,2.77,27.77,0,37.25-4.32,14.75-24.63,22.2-24.1,32.86,2.19,43.82,2.19,63.48,2.19,105.17,0,6.57,113.93,57,120.5,57,14.79,0,28.69-19.36,46-15.34,8.49,2,8,4.55,19.72,6.57,3.07.53,26.29-2.19,30.67-6.57,5.47-5.47,2.46-14,6.57-15.34,2.28-.72,4.14,1.31,8.76,4.38,6.59,4.38,21.37,9.1,28.48,6.57,5.64-2,.3-6.15,6.57-8.76,6-2.51,12.34,2,15.34,2.19,28.48,2.19,63.88-6.3,63.54-8.76C454.62,399.1,446.09,398.6,428.56,394.21ZM209.47,324.1l-92,17.53v-24.1l92-46Zm0-81.07-92,61.35v-24.1l92-89.83Z"/><path d="M389.75,418.79A195.49,195.49,0,0,1,250,477.47c-108.12,0-196.09-88-196.09-196.09a196.1,196.1,0,0,1,91.84-166c-.89-3-3.83-17.44-4-21.71,0-.49,0-1,0-1.46C76.21,129.87,32,200.56,32,281.38c0,120.21,97.79,218,218,218a217.4,217.4,0,0,0,159-69C405.66,429.71,392.27,422.33,389.75,418.79Z"/><path d="M250,63.38a218,218,0,0,0-28.12,1.85c.22,1.38,1.92,19.28,1.43,21.89A196.88,196.88,0,0,1,250,85.29c108.12,0,196.09,88,196.09,196.09a194.89,194.89,0,0,1-25.82,97.18c1.24.51,17.05,7,20,9.14A216.57,216.57,0,0,0,468,281.38C468,161.17,370.21,63.38,250,63.38Z"/></g></svg>