<svg xmlns="http://www.w3.org/2000/svg" viewBox="0 0 500 500"><title>swordsworn</title><g id="Icons"><path d="M466.85,159.25a235.84,235.84,0,1,0,18.48,91.5A234.29,234.29,0,0,0,466.85,159.25ZM250.25,480C123.83,480,21,377.17,21,250.75S123.83,21.48,250.25,21.48,479.52,124.33,479.52,250.75,376.67,480,250.25,480Z"/><path d="M478.1,154.5a248.09,248.09,0,1,0,19.43,96.25A246.45,246.45,0,0,0,478.1,154.5ZM250.25,492.22C117.1,492.22,8.78,383.9,8.78,250.75S117.1,9.28,250.25,9.28,491.72,117.6,491.72,250.75,383.4,492.22,250.25,492.22Z"/><path d="M458.2,207.9q-2.36-4.59-5.08-9a136,136,0,0,0-19.64-24.83,135.36,135.36,0,0,0-138.56-32.55l28.48-99.06a1.93,1.93,0,0,0-1.11-2.4,2,2,0,0,0-2.53.9L266,137.12h0V91.8L250.25,22.56l-1.16,7.15-14.5,58.4v48.48l-.2,0L181.12,40a2,2,0,0,0-3.64,1.5l29.84,106.32-1.12.76-91-74.35a1.93,1.93,0,0,0-2.65.1,2,2,0,0,0-.14,2.69L187,167.6c-.56.81-1.12,1.63-1.65,2.46L63.92,130.35a2.07,2.07,0,0,0-1.66,3.78l112.59,62.14c-.06.3-.12.61-.18.92L31.27,208.27a2.07,2.07,0,0,0-.05,4.13l142,13.5L34,302a2.08,2.08,0,0,0,1,3.9,2.17,2.17,0,0,0,.7-.12L185,254.17,72.71,384.94h0a2,2,0,0,0,.12,2.8,2,2,0,0,0,2.81.11L203.28,278.42a133.82,133.82,0,0,0,31.28,77.91v37.39H212.09v-1.34l9.45-5.56.08-.05a4,4,0,0,0,1.2-5.2c-1.55-2.66-8.54-2.28-9.89-2.18-.39,0-9.52.42-13.32,2.21-.46.22-1,.43-1.45.65-3.47,1.52-7.78,3.42-8.16,9.18-.41,6.4,2.21,8.05,5.25,10l.19.12c4.09,2.58,19.82,4.86,24.79,5.36,4.77.48,12.23.83,14.71.94v47.37l3.71,3.71-2.93,2.93v10.6L240.3,477h21.06l4.19-4.19v-11l-3.44-3.44,3.2-3.2V407.82c2.48-.11,9.94-.46,14.71-.94,5-.5,20.7-2.78,24.79-5.36l.19-.12,1-.64a135.91,135.91,0,0,0,32,3.8A135.13,135.13,0,0,0,458.2,207.9ZM320.34,46.77,292.9,142.2q-3.51,1.24-6.95,2.67-2.91-1.64-6-3Zm-2,.36-39.9,94a74.93,74.93,0,0,0-10.66-3.6ZM265.94,385.39v-1.62c.92.58,1.85,1.17,2.78,1.73q4.42,2.65,9,4.95,3.48,1.74,7.05,3.27H265.94Zm-15.11-10.56V37.07L264.2,91.91V383.64l-13.37-.09ZM236.3,358.36V88.42l12.79-51.48V383.55l-12.79.27Zm0,27.22h27.9v8.14H236.3ZM232.59,137a74.88,74.88,0,0,0-12.15,3.81L182,45.16ZM180.8,46.86l38,94.62a75.45,75.45,0,0,0-10,5.29Zm23.91,102.71a76.12,76.12,0,0,0-8.41,7.09L118.86,79.45ZM118,81l77.1,76.87a76.15,76.15,0,0,0-7,8.24Zm66.44,90.56A75.38,75.38,0,0,0,179,182.38L68.33,133.62ZM68.7,135.69,178.33,184a74.81,74.81,0,0,0-3.12,10.47Zm105.66,63.26a75.76,75.76,0,0,0-.92,11.8c0,.12,0,.24,0,.36l-136.2-1.55ZM38.21,211.31l135.26,1.54a75.51,75.51,0,0,0,1.19,11.43Zm137,15.51A75,75,0,0,0,179.75,241L39.55,301ZM42.74,301.52l137.73-59a75.51,75.51,0,0,0,5.3,9.52Zm144.51-47.28a76.2,76.2,0,0,0,8.17,9.72L78.48,380.9ZM80.18,381.66,196.66,265.18a76.25,76.25,0,0,0,6.34,5.44c0,1.88.06,3.75.15,5.62ZM189.71,210.75a59.38,59.38,0,0,1,44.87-57.5v29.49a133.7,133.7,0,0,0-30.16,67A59,59,0,0,1,189.71,210.75ZM204.94,277q-.06-1.1-.1-2.21c0-.94-.06-1.89-.08-2.84s0-1.6,0-2.41a132.84,132.84,0,0,1,29.85-83.94v47.77A130.22,130.22,0,0,0,225.23,265a132.71,132.71,0,0,0-1.63,16.85c0,1.46-.08,2.93-.08,4.4a131.08,131.08,0,0,0,11,52.9v14.28A132.65,132.65,0,0,1,204.94,277Zm58.87,185.56v9.55l-3.17,3.17H241l-3.56-3.56v-9.16l2.78-2.78h20.49l.14-.14Zm40.27-62.63-.19.12-.22.12c-3.67,2.07-17.33,4.33-23.81,5-5.72.57-15.35,1-15.44,1l-.84,0v48.33L260,458H240.25l-3.56-3.56V406.15l-.84,0c-.1,0-9.73-.39-15.45-1-6.62-.66-20.7-3-24-5.1l-.19-.12c-3-1.88-4.79-3-4.44-8.38.3-4.71,3.77-6.23,7.12-7.7.51-.22,1-.44,1.49-.67,3.48-1.65,12.55-2,12.67-2,2.9-.22,7.55,0,8.29,1.31a2.26,2.26,0,0,1-.71,2.91l-10.26,6v4.08h79.58v-4.08l-10.26-6a2.27,2.27,0,0,1-.71-2.91c.74-1.26,5.38-1.53,8.32-1.31.09,0,9.16.4,12.64,2,.48.23,1,.45,1.49.67,3.35,1.47,6.81,3,7.12,7.7C308.86,396.91,307.06,398,304.08,399.93ZM355,154.86a131.4,131.4,0,0,0-47.06,8.64,129.76,129.76,0,0,0-15.36,7.07,131.6,131.6,0,0,0-26.59,19V157.49c1.22-.79,2.45-1.56,3.69-2.31A132.91,132.91,0,0,1,287.93,146c1.44-.59,2.89-1.16,4.36-1.7l2-.71a133.18,133.18,0,0,1,151.63,47.81A130.53,130.53,0,0,0,355,154.86Z"/></g></svg>