<svg xmlns="http://www.w3.org/2000/svg" viewBox="0 0 500 500"><title>taurian-concordat</title><g id="Icons"><path d="M166.24,350.6l-21.3-3.09-9.52-19.3-9.52,19.3-21.3,3.09,15.41,15-3.64,21.21,19-10,19,10-3.64-21.21Zm-30.82,15.22a6.94,6.94,0,1,1,6.94-6.94A6.94,6.94,0,0,1,135.42,365.82Z"/><path d="M395.4,350.6l-21.3-3.09-9.52-19.3-9.52,19.3-21.3,3.09,15.41,15-3.64,21.21,19-10,19,10L380,365.62Zm-30.82,15.22a6.94,6.94,0,1,1,6.94-6.94A6.94,6.94,0,0,1,364.58,365.82Z"/><path d="M284.3,440.87,263,437.78l-9.52-19.3-9.52,19.3-21.3,3.09,15.41,15-3.64,21.21,19-10,19,10-3.64-21.21ZM253.47,456.1a6.94,6.94,0,1,1,6.94-6.94A6.94,6.94,0,0,1,253.47,456.1Z"/><path d="M81.6,312c0-65.37,31.48-122.68,78.75-154.85A114.06,114.06,0,0,1,137.15,88,115.56,115.56,0,0,1,138,74.26C77.08,115.53,36.46,189.45,36.46,273.81c0,111.76,71.29,198.24,166.66,221.69v-8C133,465.93,81.6,395.56,81.6,312ZM70,263.71c-3-12.88-10.81-47.69-9.24-61.09,1.22-10.42,12-29.17,17.36-38.19C82.55,157,99,136.66,99,136.66l20.83,38.19C100,200.19,99.53,199.83,92,213c-5.83,10.25-15.55,39.31-19.3,50.8A1.41,1.41,0,0,1,70,263.71Z"/><path d="M365.77,76.92c.35,3.66.55,7.37.55,11.13a114.09,114.09,0,0,1-25.66,72.24C385.43,193,414.93,248.71,414.93,312c0,80.77-48.05,149.23-114.58,173.16v9.46C394,469.77,463.54,384.2,463.54,273.81,463.54,191.22,424.58,118.66,365.77,76.92Zm61.3,186.92c-3.75-11.49-13.47-40.54-19.3-50.8-7.51-13.22-8-12.86-27.78-38.19l20.83-38.19s16.41,20.31,20.83,27.78c5.35,9,16.14,27.78,17.36,38.19,1.58,13.4-6.19,48.21-9.24,61.09A1.41,1.41,0,0,1,427.07,263.84Z"/><path d="M251.74,115.82A27.78,27.78,0,1,1,279.51,88,27.81,27.81,0,0,1,251.74,115.82Zm0-41.67A13.89,13.89,0,1,0,265.62,88,13.9,13.9,0,0,0,251.74,74.16Z"/><path d="M296.87,56.8s24.51-11.49,31.25-17.36,17.32-23.32,23.29-33.68A2.48,2.48,0,0,1,356,7c0,14.92-.75,43.65-7.09,53.29C341,72.34,331.6,84.57,303.82,91.52,295.36,93.64,296.87,56.8,296.87,56.8Z"/><path d="M206.64,56.8s-24.51-11.49-31.25-17.36S158.07,16.11,152.1,5.75A2.48,2.48,0,0,0,147.47,7c0,14.92.75,43.65,7.09,53.29,7.95,12.07,17.36,24.31,45.14,31.25C208.16,93.64,206.64,56.8,206.64,56.8Z"/><path d="M214,44.81a143.31,143.31,0,0,1,18-5.89c3.05-.84,6.17-1.49,9.35-2.14a66.77,66.77,0,0,1,10.41-1.24,66.77,66.77,0,0,1,10.41,1.24c3.17.66,6.29,1.3,9.35,2.14a143.31,143.31,0,0,1,18,5.89A5.26,5.26,0,0,1,287,54.91h-.07c-6.12-.61-12.23-1.55-18.22-2.48l-8.91-1.32a63.39,63.39,0,0,0-8-.81,63.39,63.39,0,0,0-8,.81l-8.91,1.32c-6,.93-12.1,1.87-18.22,2.48h-.06A5.26,5.26,0,0,1,214,44.81Z"/><path d="M289.93,199.16s33.44-20.29,45.14-17.36c13.89,3.47,48.61,48.61,48.61,59,0,7.53-6.39,20.57-12.1,30.7a4.67,4.67,0,0,1-8.73-2.25c-.16-15.77-.87-38.12-3.48-45.82-2-5.93-7.71-11.4-13.89-10.42-16.11,2.57-20.83,62.5-34.72,62.5H289.93Z"/><path d="M328.12,292.9c-9.81-11.56-48.61,1.27-48.61-13.89V195.68c0-5.49-17,.41-20.83-3.47s-7.62-17.24-3.47-20.83c1.47-1.27,8.53,3,10.42,3.47a27.64,27.64,0,0,0,13.89,0c13.38-3.08,38.22-18.57,45.14-31.25,4.58-8.38,6.75-31.44,0-38.19-4.91-4.91-17.74-2.25-24.31,0-9.36,3.21-22.07,17.13-31.25,20.83-4,1.62-17.36,1-17.36,1s-13.34.58-17.36-1c-9.18-3.7-21.89-17.62-31.25-20.83-6.57-2.25-19.39-4.91-24.31,0-6.75,6.75-4.58,29.81,0,38.19,6.92,12.68,31.76,28.17,45.14,31.25a27.64,27.64,0,0,0,13.89,0c1.89-.45,9-4.74,10.42-3.47,4.15,3.6.41,17-3.47,20.83s-20.83-2-20.83,3.47V279c0,15.16-38.8,2.33-48.61,13.89-2.25,2.65-4.65,21-3.47,24.31,2.45,6.76,11.09,18.07,18.66,27.2,2.29,2.76,10.15.27,9-3.12-4.07-11.65-11.07-25.73-6.8-31,1.64-2,8.58,5.1,10.42,6.94,10.42,10.42,27.78,41.67,38.19,41.67h20.83c10.42,0,27.78-31.25,38.19-41.67,1.84-1.84,8.78-9,10.42-6.94,4.28,5.29-2.72,19.37-6.8,31-1.18,3.39,6.67,5.89,9,3.12,7.58-9.13,16.21-20.44,18.66-27.2C332.78,313.94,330.37,295.55,328.12,292.9Z"/><path d="M213.54,199.16S180.1,178.87,168.4,181.8c-13.89,3.47-48.61,48.61-48.61,59,0,7.53,6.39,20.57,12.1,30.7a4.67,4.67,0,0,0,8.73-2.25c.16-15.77.87-38.12,3.48-45.82,2-5.93,7.71-11.4,13.89-10.42,16.11,2.57,20.83,62.5,34.72,62.5h20.83Z"/><path d="M252,404.38c-22.07,0-39.93-9.49-45.69-24.35l-.46-1.19-2.71-34.92,17.31-1.34L223,374.77c3.72,7.46,15.76,12.44,29.9,12.24,13.84-.2,25.48-5.38,29-12.74L283,342.92l17.35.66L299,377.77,298.6,379c-5.35,15.09-23.21,25-45.5,25.36Z"/></g></svg>