<svg xmlns="http://www.w3.org/2000/svg" width="500" height="500" viewBox="0 0 500 500">
  <title>taurian-concordat_COLOR</title>
  <g id="n4">
    <path d="M354,164.42c0,.12,2.66,9.35,3,16.2l-.19.22.2.16a14.44,14.44,0,0,1-.45,4.75c-1,3.08-2.32,3.65-3.39,4.11-.87.37-2.18.93-1.92,2.91.09.63.24,2.32.35,4.57-2.62-2-7.11-5.11-11.18-6.57,0-.93,0-2.42,0-4.91,1.84,1,4.7,2.17,6.71,1a11.14,11.14,0,0,0,4.74-6.4,4.13,4.13,0,0,0-.6-3.34c-.22-.3-.45-.65-.71-1-1.77-2.71-4.76-7.24-12-7.58-7.59-.35-28,3.34-35.49,7.77q-.88.51-1.76,1c-6.48,3.9-13.82,8.31-25.23,5.9-7.42-1.57-10.46-3.88-12.28-5.25a6.31,6.31,0,0,0-2-1.19l2.26-12.63-2.13-.39-2.48,13.81a4.08,4.08,0,0,0-1,2.61,13.29,13.29,0,0,0,3.07,8.68,48.47,48.47,0,0,1,4.07,5l-2.41,5.91c-6,0-13.12-.09-13.23-.09h0c-.11,0-7.27.09-13.23.09l-2.41-5.91a48.47,48.47,0,0,1,4.07-5,13.29,13.29,0,0,0,3.07-8.68,3.92,3.92,0,0,0-1.19-2.79l-2.45-13.63-2.15.39L238,176.8a6.87,6.87,0,0,0-1.88,1.15c-1.82,1.37-4.87,3.68-12.28,5.25-11.41,2.41-18.75-2-25.23-5.9q-.88-.54-1.76-1c-7.5-4.43-27.91-8.14-35.49-7.77-7.21.34-10.19,4.87-12,7.58-.26.38-.49.73-.71,1a4.13,4.13,0,0,0-.6,3.34,11.14,11.14,0,0,0,4.74,6.4c2,1.19,4.88,0,6.71-1,0,2.49,0,4,0,4.91-4.07,1.46-8.56,4.57-11.18,6.57.11-2.25.26-3.94.35-4.57.26-2-1-2.54-1.92-2.91-1.07-.46-2.4-1-3.39-4.11A14.44,14.44,0,0,1,143,181l.2-.16-.19-.22c.33-6.85,3-16.08,3-16.2a1.1,1.1,0,0,0-.35-1.13c1.36-1.13,2.41-2,3.08-2.49a1.1,1.1,0,0,0,.85.42,1.05,1.05,0,0,0,.47-.11l21.82-10.32c1.15-.35,18.05-5.29,33.9,0A113.29,113.29,0,0,1,224,158.65c3,1.58,4.92,2.59,6.75,2.59l.49,0c1.15-.12,2.5-.39,4.07-.71a66,66,0,0,1,29.38,0c1.57.32,2.92.59,4.07.71l.49,0c1.83,0,3.75-1,6.75-2.59a113.29,113.29,0,0,1,18.26-7.85c15.82-5.29,32.69-.38,33.9,0L350,161.11a1.05,1.05,0,0,0,.47.11,1.1,1.1,0,0,0,.85-.42c.68.52,1.72,1.36,3.08,2.49A1.1,1.1,0,0,0,354,164.42Z" style="fill: #634934"/>
    <path d="M278.21,288.68c-2.79-1.61-5.44-2.8-7.44-3-6.48-.54-20.59-1.06-20.73-1.06H250c-.14,0-14.25.51-20.73,1.06-2,.16-4.65,1.35-7.44,3,.28-9.69-.26-35.53-.74-46.36,2.1-1.37,9.78-6.18,14.29-6.33,5.53-.19,14.56,0,14.65,0h0c.09,0,9.1-.16,14.65,0,4.51.14,12.17,5,14.29,6.33C278.47,253.15,277.93,279,278.21,288.68Z" style="fill: #634934"/>
    <path d="M265.61,224.65c-2,1.77-10.63,2.34-15.6,2.26h0c-5,.07-13.59-.48-15.6-2.26-3-2.65-18.09-19.35-18.24-19.51l-.49-.53-.68.24c-.09,0-8.35,2.9-12.05,2.53a8.35,8.35,0,0,1-4.56-2.17c9.3-2.23,19.47-4,20.87-3.17.54.39,1.22,1,2,1.68,2.78,2.48,6.62,5.88,11.17,5.84,5.38-.05,17.47,0,17.6,0s4.94,0,9.87,0c2.86,0,5.75,0,7.73,0,4.62.07,8.4-3.35,11.17-5.83.77-.7,1.45-1.3,2-1.69,1.43-.83,11.59.94,20.88,3.17a8.35,8.35,0,0,1-4.56,2.17c-3.7.38-12-2.5-12.05-2.53l-.68-.24-.49.53C283.7,205.3,268.62,222,265.61,224.65Z" style="fill: #634934"/>
    <path d="M221,200.61c.07-1,.44-3.33,2.45-3.87.77-.2,1,0,1.82,1.58s1.76,3.4,4.38,3.53c1.36.07,4.09.09,7.13.09,5.83,0,12.75-.09,13.25-.09s7.43.09,13.25.09c3,0,5.77,0,7.13-.09,2.61-.13,3.63-2.1,4.38-3.53s1-1.77,1.82-1.58c2,.53,2.38,2.84,2.45,3.87-.52.41-1.09.91-1.72,1.47-2.49,2.23-5.9,5.28-9.64,5.28h-.05c-5.38-.05-17.42,0-17.62,0s-12.24-.05-17.61,0c-3.73,0-7.2-3-9.71-5.28C222.06,201.53,221.49,201,221,200.61Z" style="fill: #634934"/>
    <path d="M185.64,130.33c.74,1.2,2.33,1.11,2.93,1.08,1.23-.07,3.36-.23,6.13-.45,8.28-.63,22.14-1.7,33.13-1.83,14.26-.16,21.69,1.67,21.77,1.69h.81c.08,0,7.48-1.86,21.77-1.69,11,.13,24.86,1.2,33.13,1.83,2.77.22,4.9.38,6.13.45.6,0,2.19.12,2.93-1.08s.05-2.25-.38-3c-.05-.1-.13-.22-.2-.35a11.36,11.36,0,0,1,2.37-.19c5.25,0,6.39,2.12,7.31,3.84.54,1,1.23,2.31,2.79,2.41h.2c2.44,0,3.58-3,4.59-5.57a23.34,23.34,0,0,1,.95-2.23,6.11,6.11,0,0,1,1.91,1.23,136.4,136.4,0,0,1-4,16.19c-4.44-.47-23.77-2.31-33.53.12-5.43,1.35-11.4,4.05-16.67,6.42-4.9,2.2-9.49,4.31-11.55,4.2-4.54-.17-18.14-.79-18.14-.79h-.11s-13.6.62-18.14.79c-2,.07-6.65-2-11.55-4.2-5.27-2.37-11.24-5.07-16.67-6.42-9.75-2.43-29.08-.59-33.53-.12a135.86,135.86,0,0,1-4-16.19,6.19,6.19,0,0,1,1.91-1.23,22.19,22.19,0,0,1,.95,2.23c1,2.69,2.21,5.74,4.79,5.56,1.56-.1,2.24-1.38,2.79-2.41.91-1.72,2.06-3.84,7.31-3.84a11.36,11.36,0,0,1,2.37.19c-.07.13-.14.25-.2.35C185.58,128.07,184.94,129.21,185.64,130.33Z" style="fill: #634934"/>
    <path d="M329.25,144.78c-.57,1.69-1,2.92-1.33,3.67-4-1.1-19.37-4.73-34.34.28a115.28,115.28,0,0,0-18.58,8c-2.92,1.54-4.67,2.46-6,2.32-1.06-.1-2.35-.36-3.87-.66a68.08,68.08,0,0,0-30.23,0c-1.51.3-2.81.57-3.87.66-1.33.14-3.09-.78-6-2.32a116,116,0,0,0-18.59-8c-15-5-30.37-1.38-34.34-.28-.29-.75-.76-2-1.34-3.67,5.07-.51,23.32-2.12,32.31.12,5.25,1.31,11.13,4,16.31,6.29,5.44,2.45,9.78,4.41,12.35,4.41h.19c4.39-.17,17.24-.76,18.11-.79s13.72.62,18.11.79h.19c2.57,0,6.9-2,12.35-4.41,5.18-2.34,11.06-5,16.31-6.29C305.92,142.65,324.18,144.27,329.25,144.78Z" style="fill: #634934"/>
    <path d="M250,45.44c14.11,0,37.33,4.92,43.26,6.23a64.15,64.15,0,0,1-5.79,8.63,8.84,8.84,0,0,0-6.14-.86c-3.08.74-3.79,3.62-3.73,5.47a48.86,48.86,0,0,1-6,4.17c-3.14,1.88-10.53,4.36-13.41,5.29a25.64,25.64,0,0,0-16.42,0c-2.89-.94-10.28-3.41-13.41-5.29a48.86,48.86,0,0,1-6-4.17c.05-1.85-.65-4.73-3.73-5.47a8.84,8.84,0,0,0-6.14.86,64.15,64.15,0,0,1-5.79-8.63C212.67,50.36,235.89,45.44,250,45.44Z" style="fill: #634934"/>
    <path d="M180.87,62.36c.28,1.7.6,3.31,1,4.8,2.61,10.44,9.76,20.79,11.32,23-.29,1.45-.88,5.32.93,7.23a5.91,5.91,0,0,0,5.12,1.48A59.62,59.62,0,0,0,213,111a42.37,42.37,0,0,0,19.7,6.86,25.72,25.72,0,0,0,34.69,0A42.37,42.37,0,0,0,287,111,59.62,59.62,0,0,0,300.8,98.85a5.91,5.91,0,0,0,5.12-1.48c1.81-1.91,1.22-5.78.93-7.23,1.57-2.19,8.71-12.53,11.31-23,.38-1.49.7-3.1,1-4.8l13.41,5.35A131,131,0,0,1,336,110c-.36,4.66-.88,9-1.51,12.9a4.91,4.91,0,0,0-3-.88,2.88,2.88,0,0,0-2.13,1.34,18.1,18.1,0,0,0-1.35,3,18.79,18.79,0,0,1-1.45,3.17l-.21-.38c-1-1.94-3-5.56-10.18-5.56-3.11,0-4.75.53-5.49,1.8a3,3,0,0,0,0,2.78l-5.14-.39c-8.32-.63-22.25-1.71-33.35-1.84-13.06-.15-20.44,1.3-22.2,1.69-1.76-.39-9.16-1.84-22.2-1.69-11.11.13-25,1.21-33.35,1.84l-5.14.39a3,3,0,0,0,0-2.78c-.74-1.26-2.37-1.8-5.49-1.8-7.21,0-9.15,3.63-10.18,5.56l-.21.38A18.79,18.79,0,0,1,172,126.3a18.1,18.1,0,0,0-1.35-3,2.88,2.88,0,0,0-2.13-1.34,4.94,4.94,0,0,0-3,.88c-.62-3.93-1.14-8.24-1.5-12.9a131.12,131.12,0,0,1,3.48-42.25Z" style="fill: #634934"/>
    <path d="M132.77,260.5a35.63,35.63,0,0,0-5.44-5.9,15.57,15.57,0,0,0-6.17-3.73c-1.62-.56-2.7-.91-4.7-4.19-2.15-3.52-2.58-7-3-10.05a18.38,18.38,0,0,0-1.73-6.79,16.36,16.36,0,0,0-4.65-5.43c2.69-4.44,5.47-8.59,8.22-12.43a69.91,69.91,0,0,0,2.82,12.55c.44,1.49.86,3,1.22,4.36.93,3.52,4,7.75,7,11.86,2.58,3.52,5,6.84,5.79,9.29C133.25,253.38,133.06,257.76,132.77,260.5Z" style="fill: #634934"/>
    <path d="M141.66,235.67c.22,6.35,2.54,11,4.39,14.8,1.25,2.53,2.33,4.7,2.33,6.58v.46a145.33,145.33,0,0,1-.69,15.63c-1.12,9.66-3.23,10.41-3.85,10.41-4.44,0-6.08-2.59-7.27-11.57a29.83,29.83,0,0,0-2.11-8.47h.11c.07-.34,1.52-8.36-.3-14.13-.88-2.8-3.42-6.26-6.1-9.92-2.89-3.94-5.87-8-6.67-11.13-.37-1.4-.81-2.9-1.24-4.41-1.4-4.82-3-10.25-2.82-14.8a193,193,0,0,1,23.4-26.18,13,13,0,0,0,.52,3.48c1.31,4,3.38,4.91,4.62,5.44a5,5,0,0,1,.61.28.77.77,0,0,1,0,.33c-.38,2.87-1.57,19.43,1.89,26.73A21.29,21.29,0,0,0,141.66,235.67Z" style="fill: #634934"/>
    <path d="M161.62,226.37c-5.23-2.72-9.34-4.86-10.86-7.44-2.32-4-2.65-12.46-2.49-18.75,3.68-2.94,12.1-8.84,16-7.95,2.67.6,11.64,7.16,19.56,13,9.75,7.14,15.83,11.53,18,11.73s4.38-1.13,6.28-2.32c2.1-1.31,3.55-2.12,4.45-1.49,2,1.4,5.13,17.2,6.07,25,.51,4.21,1.4,42.5.95,51.93-2.69,1.71-5.36,3.65-7.55,5.32-.07-1.38-.19-3.63-.3-4.87-.16-1.57-1-2.13-2.17-2.91a23.88,23.88,0,0,1-3.27-2.5c-.95-.85-1.76-4.11-2.71-7.86-2.25-9-5.66-22.47-16.49-33.3C178.06,234.91,168.55,230,161.62,226.37Z" style="fill: #634934"/>
    <path d="M191.52,288.12c-.34-1.11-.83-3.08-1.46-5.57-1.68-6.72-4.22-16.88-7.28-24.46-.82-2-1.62-4.09-2.42-6.15-2.4-6.18-4.69-12.12-7.24-16.52a77.73,77.73,0,0,1,12.41,10.05c10.41,10.41,13.72,23.57,15.92,32.3,1.15,4.61,1.93,7.65,3.36,8.94a27.44,27.44,0,0,0,3.52,2.71c1.12.74,1.15.81,1.21,1.31.17,1.76.36,5.89.36,5.93a.79.79,0,0,0,.08.32c-1,.78-1.75,1.43-2.28,1.85l-2.37-.86a81.26,81.26,0,0,0-9-2.93C195.14,293.88,192.41,291.06,191.52,288.12Z" style="fill: #634934"/>
    <path d="M320.23,321.37c-1.06,12.59-12.38,25.56-16.06,27.23-2.79,1.26-10.09.88-13.6.54-.48-1.25-1-2.48-1.58-3.67,1.51-.05,3.85-.2,6.34-.52,4.76-.63,16.26-12.6,15.64-17.54a6.28,6.28,0,0,0-3.18-5c-3.17-1.73-8.2-1-15,2.26-4.37,2.08-23.63,27.76-24.84,29.11-3.63,4-6.3,3.81-12.75,3.28-1.51-.13-3.22-.26-5.17-.37h-.11c-1.95.11-3.66.24-5.17.37-6.45.53-9.12.75-12.75-3.28a61.85,61.85,0,0,1-5-7.26c-.37-.6-16.35-20.18-19.85-21.84-6.77-3.23-11.81-4-15-2.26a6.28,6.28,0,0,0-3.18,5c-.62,4.94,10.88,16.91,15.64,17.54l2.11.28a46.19,46.19,0,0,0-1.87,4.32c-1.64.14-6.13.38-9.08-1-3.68-1.68-15-14.65-16.06-27.23s10.85-23.88,13.47-24.42a5.79,5.79,0,0,1,2.11.1,1.85,1.85,0,0,0,.23.21l.12-.13a76.28,76.28,0,0,1,8.87,2.89c3.32,1.21,7.09,2.58,11.18,3.81,5.22,1.56,12.1,6,18.17,9.9,3.71,2.38,7.15,4.59,10.07,6.11-3.64.3,14.81,1,11.15.42a118.22,118.22,0,0,0,10.92-6.53c6.08-3.91,13-8.34,18.17-9.9,4.09-1.23,7.86-2.6,11.18-3.81a75.69,75.69,0,0,1,8.89-2.89l.11.13.23-.2a5.83,5.83,0,0,1,2.11-.11C309.39,297.49,321.31,308.67,320.23,321.37Z" style="fill: #634934"/>
    <path d="M319.64,251.93c-.79,2.06-1.6,4.13-2.42,6.15-3.06,7.58-5.61,17.75-7.3,24.47-.62,2.49-1.11,4.45-1.45,5.56-.89,2.94-3.64,5.76-4.86,6.91a80.45,80.45,0,0,0-8.94,2.93l-2.38.86c-.52-.42-1.3-1.07-2.28-1.85a1,1,0,0,0,.08-.32s.19-4.17.36-5.93c.05-.5.09-.57,1.21-1.31a27.44,27.44,0,0,0,3.52-2.71c1.44-1.28,2.21-4.33,3.36-9,2.2-8.71,5.51-21.88,15.92-32.28a78.33,78.33,0,0,1,12.41-10.05C324.34,239.81,322,245.75,319.64,251.93Z" style="fill: #634934"/>
    <path d="M349.24,218.93c-1.51,2.58-5.63,4.71-10.86,7.44-6.94,3.6-16.44,8.55-25.46,17.56-10.82,10.82-14.23,24.35-16.49,33.3-.95,3.76-1.76,7-2.71,7.86a23.88,23.88,0,0,1-3.27,2.5c-1.17.77-2,1.34-2.17,2.91-.12,1.24-.24,3.48-.32,4.87-2.18-1.68-4.85-3.62-7.53-5.32-.46-9.43.44-47.71.95-51.93.93-7.8,4-23.6,6.07-25,.9-.63,2.35.19,4.45,1.49,1.91,1.19,4,2.53,6.28,2.32s8.22-4.58,18-11.73c7.92-5.79,16.89-12.37,19.56-13,3.92-.89,12.34,5,16,7.95C351.89,206.47,351.56,214.94,349.24,218.93Z" style="fill: #634934"/>
    <path d="M365.44,263.5l.11,0a30,30,0,0,0-2.11,8.48c-1.2,9-2.83,11.57-7.27,11.57-.62,0-2.73-.75-3.85-10.41a145.51,145.51,0,0,1-.69-15.64V257c0-1.87,1.08-4.05,2.33-6.58,1.85-3.77,4.17-8.45,4.39-14.8a21.29,21.29,0,0,0-6.81-16.46c3.46-7.31,2.28-23.86,1.89-26.73a1.61,1.61,0,0,1,0-.3,3.27,3.27,0,0,1,.62-.3c1.24-.53,3.31-1.42,4.61-5.44a13,13,0,0,0,.53-3.48,192.64,192.64,0,0,1,23.4,26.17c.14,4.56-1.42,10-2.82,14.81-.44,1.51-.87,3-1.24,4.41-.81,3.13-3.79,7.19-6.67,11.13-2.68,3.66-5.22,7.12-6.1,9.92C363.92,255.13,365.38,263.16,365.44,263.5Z" style="fill: #634934"/>
    <path d="M388.24,229.83a18.38,18.38,0,0,0-1.73,6.79c-.38,3.06-.82,6.53-3,10.05-2,3.28-3.08,3.64-4.7,4.19a15.57,15.57,0,0,0-6.17,3.73,35.17,35.17,0,0,0-5.44,5.9c-.28-2.74-.48-7.12.59-10.49.78-2.45,3.21-5.77,5.79-9.29,3-4.1,6.1-8.34,7-11.86.36-1.39.78-2.86,1.22-4.36a70,70,0,0,0,2.82-12.57c2.75,3.84,5.53,8,8.22,12.43A16.56,16.56,0,0,0,388.24,229.83Z" style="fill: #634934"/>
  </g>
  <g id="n3">
    <path d="M177.41,180.82l23.23,4.36s12.52,9.8,12.88,10.34l-10.89,1.81Z" style="fill: #de1d30"/>
    <path d="M297.37,197.33l-10.89-1.81c.36-.54,12.88-10.34,12.88-10.34l23.23-4.36Z" style="fill: #de1d30"/>
    <path d="M301.31,29.66C300.44,18,295.62,9.51,293,4.93c-.21-.36-.41-.73-.61-1.09,4.94,3.06,18,13.71,21.77,23,4.77,11.88,4.55,29,1.86,39.75-2.17,8.65-7.74,17.5-10.14,21A78.06,78.06,0,0,0,298.52,74c-3.52-4.83-7.88-10.36-9.41-12.27C291.79,58.47,302.42,44.49,301.31,29.66Z" style="fill: #de1d30"/>
    <path d="M185.81,26.87c3.76-9.32,16.82-20,21.77-23-.2.36-.4.73-.61,1.09-2.59,4.57-7.4,13.09-8.28,24.73-1.11,14.84,9.52,28.82,12.2,32.08-1.52,1.92-5.89,7.44-9.41,12.27a78.06,78.06,0,0,0-7.39,13.64c-2.38-3.53-8-12.38-10.13-21C181.26,55.86,181,38.75,185.81,26.87Z" style="fill: #de1d30"/>
    <path d="M83.4,286.89c-5.51,64.2,6.53,108.4,40.28,147.8,14.26,16.66,32.1,32.08,47.7,41.24,15.29,9,29.36,14.26,38.67,17.77,3.44,1.3,6.72,2.54,8.32,3.36-4.61.3-21.22-1.85-43.17-9.54-20.87-7.32-50.53-21-73.31-44.76C49.43,388.06,38.36,330.37,36,308.11c-4-38.74,5.87-100.69,37.14-151.77C100.49,111.73,132.69,92,141.92,87l-2.62,9.21A209.19,209.19,0,0,0,107.54,124c-16,17.42-72.59,86.39-64.61,183.66s87.48,149.17,69.33,127.4S61.08,346.51,72.7,277.91c9.45-55.85,54.43-98.81,70.84-112.87A84.47,84.47,0,0,0,140.86,180a191.07,191.07,0,0,0-25.6,28.42h0C101.16,227.43,86.17,254.69,83.4,286.89Z" style="fill: #de1d30"/>
    <path d="M464,308.11c-2.33,22.27-13.4,80-65.85,134.65-22.78,23.75-52.44,37.45-73.31,44.76-22,7.69-38.56,9.85-43.17,9.54,1.6-.83,4.88-2.07,8.32-3.36,9.31-3.51,23.38-8.8,38.67-17.77,15.6-9.16,33.44-24.58,47.7-41.24,33.74-39.41,45.79-83.6,40.28-147.8-2.77-32.2-17.76-59.45-31.85-78.5h0A190.46,190.46,0,0,0,359.14,180,84.47,84.47,0,0,0,356.46,165c16.41,14.06,61.39,57,70.84,112.87,11.62,68.6-21.41,135.38-39.56,157.16s61.34-30.13,69.33-127.4S408.43,141.43,392.46,124A209.22,209.22,0,0,0,360.6,96.17L358,87c9.15,4.93,41.41,24.6,68.81,69.34C458.1,207.42,468,269.37,464,308.11Z" style="fill: #de1d30"/>
  </g>
  <g id="n2">
    <path d="M210.75,79.08A72.22,72.22,0,0,1,221.3,66.83a51.89,51.89,0,0,0,6,4.13c2.66,1.59,7.88,3.48,11.44,4.68a25.74,25.74,0,0,0-8.45,39.69,40.52,40.52,0,0,1-16.16-6.21A58.53,58.53,0,0,1,200.9,97.49,132.87,132.87,0,0,1,210.75,79.08Z" style="fill: #f1c578"/>
    <path d="M198.88,96.69a3.81,3.81,0,0,1-3.21-.83c-1-1.06-.64-4.22-.29-5.64.32-.77,3.82-9.36,7.87-14.93s9.06-11.85,9.8-12.77a6.84,6.84,0,0,1,5.13-1c1.94.47,2.08,2.45,2.06,3.3a72.56,72.56,0,0,0-11.28,13A134.3,134.3,0,0,0,198.88,96.69Z" style="fill: #f1c578"/>
    <path d="M227.49,98.79A22.51,22.51,0,1,1,250,121.29,22.53,22.53,0,0,1,227.49,98.79Z" style="fill: #f1c578"/>
    <path d="M275.77,98.79A25.82,25.82,0,0,0,261.3,75.63c3.56-1.2,8.8-3.09,11.44-4.68a53.35,53.35,0,0,0,6-4.13,72.26,72.26,0,0,1,10.55,12.25,132.87,132.87,0,0,1,9.84,18.41,58.53,58.53,0,0,1-13.19,11.63,40.52,40.52,0,0,1-16.16,6.21A25.64,25.64,0,0,0,275.77,98.79Z" style="fill: #f1c578"/>
    <path d="M291.05,77.86a72.56,72.56,0,0,0-11.28-13c0-.86.12-2.83,2.06-3.3a6.9,6.9,0,0,1,5.13,1c.74.94,5.81,7.28,9.8,12.77s7.57,14.18,7.87,14.93c.35,1.42.72,4.57-.29,5.64a3.81,3.81,0,0,1-3.21.83A134.3,134.3,0,0,0,291.05,77.86Z" style="fill: #f1c578"/>
    <path d="M346.17,66.92c3,1.42,4,4.67,4.27,6.49l-10.19-4.63C341.27,67.51,343.38,65.62,346.17,66.92Z" style="fill: #f1c578"/>
    <path d="M352.94,76.93l5.59,19.94c.5,6.18,1.71,23.49.54,31.5-2.42,16.61-6.77,27.55-8.18,30.77L330,149.22c1.48-3.75,6.61-18,8.24-39.09a136.2,136.2,0,0,0-3.13-41.29Z" style="fill: #f1c578"/>
    <path d="M153.83,66.92c2.78-1.31,4.9.59,5.92,1.86l-10.19,4.63C149.87,71.61,150.83,68.35,153.83,66.92Z" style="fill: #f1c578"/>
    <path d="M147.06,76.93l17.87-8.09a136.2,136.2,0,0,0-3.13,41.29c1.63,21.12,6.76,35.34,8.24,39.09l-20.94,9.92c-1.4-3.22-5.76-14.17-8.18-30.77-1.19-8.22.11-26.18.58-31.93Z" style="fill: #f1c578"/>
    <polygon points="258.52 441.25 276.08 443.8 250.67 452.05 258.52 441.25" style="fill: #f1c578"/>
    <polygon points="246.73 450.77 238.88 439.97 246.73 424.06 246.73 450.77" style="fill: #f1c578"/>
    <polygon points="244.97 452.05 219.57 443.8 237.12 441.25 244.97 452.05" style="fill: #f1c578"/>
    <polygon points="248.91 457.48 264.61 479.09 248.91 470.83 248.91 457.48" style="fill: #f1c578"/>
    <polygon points="232.27 460.32 244.97 456.2 229.27 477.81 232.27 460.32" style="fill: #f1c578"/>
    <polygon points="266.37 477.81 250.67 456.2 263.38 460.32 266.37 477.81" style="fill: #f1c578"/>
    <path d="M291.38,365.38a43.55,43.55,0,1,1-74.89-30.19,92.46,92.46,0,0,1,6.66,9.24,32.39,32.39,0,1,0,51.71,3.14c1.91-3,4.1-6.5,6.61-9.81A43.38,43.38,0,0,1,291.38,365.38Z" style="fill: #f1c578"/>
    <polygon points="373.67 353.87 391.23 356.42 365.82 364.67 373.67 353.87" style="fill: #f1c578"/>
    <polygon points="361.88 363.39 354.03 352.59 361.88 336.68 361.88 363.39" style="fill: #f1c578"/>
    <polygon points="360.12 364.67 334.71 356.42 352.27 353.87 360.12 364.67" style="fill: #f1c578"/>
    <polygon points="364.06 370.09 379.76 391.7 364.06 383.45 364.06 370.09" style="fill: #f1c578"/>
    <polygon points="347.42 372.94 360.12 368.81 344.42 390.42 347.42 372.94" style="fill: #f1c578"/>
    <polygon points="381.52 390.43 365.82 368.81 378.52 372.94 381.52 390.43" style="fill: #f1c578"/>
    <polygon points="147.73 348.15 165.28 350.7 139.88 358.95 147.73 348.15" style="fill: #f1c578"/>
    <polygon points="135.94 357.68 128.09 346.87 135.94 330.96 135.94 357.68" style="fill: #f1c578"/>
    <polygon points="134.18 358.95 108.78 350.7 126.33 348.15 134.18 358.95" style="fill: #f1c578"/>
    <polygon points="138.12 364.38 153.82 385.99 138.12 377.73 138.12 364.38" style="fill: #f1c578"/>
    <polygon points="121.48 367.23 134.18 363.1 118.48 384.71 121.48 367.23" style="fill: #f1c578"/>
    <polygon points="155.58 384.71 139.88 363.1 152.58 367.23 155.58 384.71" style="fill: #f1c578"/>
  </g>
  <g id="n1">
    <circle cx="250" cy="95.52" r="7.99" style="fill: #545568"/>
  </g>
  <g id="Base">
    <g>
      <path d="M283.19,442.63l-24.44-3.55-10.93-22.15-10.93,22.15-24.44,3.55,17.69,17.24L226,484.21l21.86-11.49,21.86,11.49-4.18-24.34Zm-24.67-1.38,17.55,2.55-25.4,8.25Zm-11.79,9.53L238.88,440l7.85-15.91ZM245,452.05l-25.4-8.25,17.55-2.55Zm3.94,5.42,15.7,21.61-15.7-8.25Zm-16.64,2.85L245,456.2l-15.7,21.61Zm34.1,17.48-15.7-21.61,12.7,4.13Z"/>
      <path d="M398.34,355.25,373.9,351.7,363,329.55,352,351.7l-24.44,3.55,17.69,17.24-4.17,24.34L363,385.34l21.86,11.49-4.18-24.34Zm-24.67-1.38,17.55,2.55-25.4,8.25Zm-11.79,9.53L354,352.59l7.85-15.91Zm-1.76,1.28-25.4-8.25,17.55-2.55Zm3.94,5.42,15.7,21.61-15.7-8.25Zm-16.64,2.85,12.7-4.13-15.7,21.61Zm34.1,17.48-15.7-21.61,12.7,4.13Z"/>
      <path d="M172.4,349.53,148,346,137,323.84,126.1,346l-24.44,3.55,17.69,17.24-4.17,24.34L137,379.62l21.86,11.49-4.18-24.34Zm-24.67-1.38,17.55,2.55L139.88,359Zm-11.79,9.53-7.85-10.81L135.94,331ZM134.18,359l-25.4-8.25,17.55-2.55Zm3.94,5.42L153.82,386l-15.7-8.25Zm-16.64,2.85,12.7-4.13-15.7,21.61Zm34.1,17.48-15.7-21.61,12.7,4.13Z"/>
      <path d="M344.05,153.6a6.53,6.53,0,1,1,6.53-6.53A6.54,6.54,0,0,1,344.05,153.6Zm0-10.89a4.36,4.36,0,1,0,4.36,4.36A4.36,4.36,0,0,0,344.05,142.71Z"/>
      <path d="M346.64,134.81a6.12,6.12,0,1,1,6.12-6.12A6.13,6.13,0,0,1,346.64,134.81Zm0-10.07a3.95,3.95,0,1,0,3.95,3.95A4,4,0,0,0,346.64,124.74Z"/>
      <path d="M348.27,113.72a6.67,6.67,0,1,1,6.67-6.67A6.68,6.68,0,0,1,348.27,113.72Zm0-11.16a4.49,4.49,0,1,0,4.49,4.49A4.5,4.5,0,0,0,348.27,102.56Z"/>
      <path d="M348.27,94.12a6,6,0,1,1,6-6A6,6,0,0,1,348.27,94.12Zm0-9.8a3.81,3.81,0,1,0,3.81,3.81A3.82,3.82,0,0,0,348.27,84.32Z"/>
      <path d="M320.23,137.26c0,2.72-19.15-.18-32.53,3.63s-12.48,4.9-19.92,4.54-14-2.18-12.7-3.81,11.25-4.54,17.06-4.9S320.23,134.81,320.23,137.26Z"/>
      <path d="M428.68,155.21C398.8,106.39,363,87,357.22,84.13l-2.46-8.75-2-.91c-.07-1.1-.61-7.11-5.65-9.49-4.06-1.92-7.33.71-8.91,2.9l-6.5-3,0,.13-12.28-4.9c1.38-10.66.76-24.13-3.24-34.07-4.55-11.32-22-24.91-25.27-25.25a1.27,1.27,0,0,0-1.27.56c-.62.93,0,1.94,1.48,4.64,2.5,4.42,7.16,12.66,8,23.8.53,7.16-1.95,14.25-4.81,19.86-4.85-1.08-29.48-6.41-44.33-6.41s-39.48,5.34-44.33,6.41c-2.86-5.61-5.35-12.7-4.81-19.86.84-11.14,5.5-19.38,8-23.8,1.52-2.7,2.1-3.71,1.48-4.64a1.29,1.29,0,0,0-1.27-.56c-3.24.34-20.72,13.93-25.27,25.25-4,9.94-4.63,23.41-3.24,34.07l-12.29,4.91,0-.14-6.5,3C160.22,65.67,157,63,152.89,65c-5,2.38-5.59,8.4-5.65,9.49l-2,.91-2.5,8.78c-5.95,3-41.62,22.37-71.42,71.06-31.54,51.51-41.54,114-37.45,153.12,2.34,22.5,13.52,80.76,66.44,135.93,39.72,41.42,102.2,54.93,117.14,54.93a8.75,8.75,0,0,0,2.83-.32,1.58,1.58,0,0,0,1.13-1.47c0-1.69-2.2-2.58-10.59-5.75-9.24-3.48-23.2-8.74-38.34-17.62-15.41-9-33-24.28-47.15-40.77C92,394.35,80.13,350.63,85.58,287.08c2-23.32,10.51-44,20.41-60.81a14.48,14.48,0,0,1,3.88,4.63c.91,1.62,1.17,3.65,1.46,6,.41,3.28.88,7,3.28,10.91s4,4.5,5.85,5.13a13.34,13.34,0,0,1,5.41,3.28c6,5.46,7.52,8.3,8.55,16s2.36,13.47,9.43,13.47c3.13,0,5-3.92,6-12.34a145.86,145.86,0,0,0,.71-15.89V257c0-2.38-1.19-4.77-2.55-7.55-1.77-3.57-4-8-4.17-13.9a19.38,19.38,0,0,1,5.8-14.49c2.08,2.58,5.9,4.56,11,7.2,2.42,1.25,5,2.62,7.77,4.2,3.59,3.83,6.83,12.15,10,20.22.79,2.07,1.6,4.15,2.43,6.18,3,7.44,5.52,17.51,7.19,24.17.63,2.52,1.13,4.51,1.49,5.67a17.26,17.26,0,0,0,3.66,6,2.89,2.89,0,0,0-.3,0c-4,.84-16.32,13.47-15.2,26.74s12.87,27,17.33,29a18.71,18.71,0,0,0,7.37,1.27c.69,0,1.32,0,1.85-.05a45.73,45.73,0,1,0,87.22-.4c1.46.12,3.6.25,5.81.25,3,0,6.07-.24,7.89-1.07,4.46-2,16.21-15.8,17.33-29s-11.18-25.9-15.2-26.74a2.89,2.89,0,0,0-.3,0,17.26,17.26,0,0,0,3.66-6c.36-1.17.86-3.15,1.48-5.66,1.68-6.66,4.19-16.75,7.2-24.18.83-2,1.63-4.12,2.43-6.18,3.13-8.06,6.36-16.39,10-20.22,2.74-1.58,5.36-3,7.77-4.2,5.06-2.64,8.87-4.62,11-7.2a19.42,19.42,0,0,1,5.8,14.49c-.21,5.88-2.41,10.33-4.17,13.9-1.36,2.78-2.55,5.16-2.55,7.55v.45a146,146,0,0,0,.71,15.89c1,8.42,2.89,12.34,6,12.34,7.07,0,8.41-5.84,9.43-13.47s2.55-10.57,8.55-16a13.34,13.34,0,0,1,5.41-3.28c1.85-.63,3.44-1.19,5.85-5.13s2.86-7.63,3.28-10.91a16.68,16.68,0,0,1,1.46-6,14.5,14.5,0,0,1,3.88-4.63c9.9,16.79,18.41,37.49,20.41,60.81,5.46,63.55-6.44,107.26-39.75,146.19C360.55,449.76,342.92,465,327.52,474c-15.14,8.87-29.09,14.13-38.34,17.62-8.4,3.17-10.59,4.06-10.59,5.75a1.58,1.58,0,0,0,1.13,1.47,8.75,8.75,0,0,0,2.83.32c14.94,0,77.43-13.52,117.14-54.93,52.92-55.17,64.1-113.44,66.44-135.93C470.22,269.23,460.23,206.72,428.68,155.21ZM346.17,66.92c3,1.42,4,4.67,4.27,6.49l-10.19-4.63C341.27,67.51,343.38,65.62,346.17,66.92Zm6.77,10,5.59,19.94c.5,6.18,1.71,23.49.54,31.5-2.42,16.61-6.77,27.55-8.18,30.77L330,149.22c1.48-3.75,6.61-18,8.24-39.09a136.2,136.2,0,0,0-3.13-41.29ZM354,164.42c0,.12,2.66,9.35,3,16.2l-.19.22.2.16a14.44,14.44,0,0,1-.45,4.75c-1,3.08-2.32,3.65-3.39,4.11-.87.37-2.18.93-1.92,2.91.09.63.24,2.32.35,4.57-2.62-2-7.11-5.11-11.18-6.57,0-.93,0-2.42,0-4.91,1.84,1,4.7,2.17,6.71,1a11.14,11.14,0,0,0,4.74-6.4,4.13,4.13,0,0,0-.6-3.34c-.22-.3-.45-.65-.71-1-1.77-2.71-4.76-7.24-12-7.58-7.59-.35-28,3.34-35.49,7.77q-.88.51-1.76,1c-6.48,3.9-13.82,8.31-25.23,5.9-7.42-1.57-10.46-3.88-12.28-5.25a6.31,6.31,0,0,0-2-1.19l2.26-12.63-2.13-.39-2.48,13.81a4.08,4.08,0,0,0-1,2.61,13.29,13.29,0,0,0,3.07,8.68,48.47,48.47,0,0,1,4.07,5l-2.41,5.91c-6,0-13.12-.09-13.23-.09h0c-.11,0-7.27.09-13.23.09l-2.41-5.91a48.47,48.47,0,0,1,4.07-5,13.29,13.29,0,0,0,3.07-8.68,3.92,3.92,0,0,0-1.19-2.79l-2.45-13.63-2.15.39L238,176.8a6.87,6.87,0,0,0-1.88,1.15c-1.82,1.37-4.87,3.68-12.28,5.25-11.41,2.41-18.75-2-25.23-5.9q-.88-.54-1.76-1c-7.5-4.43-27.91-8.14-35.49-7.77-7.21.34-10.19,4.87-12,7.58-.26.38-.49.73-.71,1a4.13,4.13,0,0,0-.6,3.34,11.14,11.14,0,0,0,4.74,6.4c2,1.19,4.88,0,6.71-1,0,2.49,0,4,0,4.91-4.07,1.46-8.56,4.57-11.18,6.57.11-2.25.26-3.94.35-4.57.26-2-1-2.54-1.92-2.91-1.07-.46-2.4-1-3.39-4.11A14.44,14.44,0,0,1,143,181l.2-.16-.19-.22c.33-6.85,3-16.08,3-16.2a1.1,1.1,0,0,0-.35-1.13c1.36-1.13,2.41-2,3.08-2.49a1.1,1.1,0,0,0,.85.42,1.05,1.05,0,0,0,.47-.11l21.82-10.32c1.15-.35,18.05-5.29,33.9,0A113.29,113.29,0,0,1,224,158.65c3,1.58,4.92,2.59,6.75,2.59l.49,0c1.15-.12,2.5-.39,4.07-.71a66,66,0,0,1,29.38,0c1.57.32,2.92.59,4.07.71l.49,0c1.83,0,3.75-1,6.75-2.59a113.29,113.29,0,0,1,18.26-7.85c15.82-5.29,32.69-.38,33.9,0L350,161.11a1.05,1.05,0,0,0,.47.11,1.1,1.1,0,0,0,.85-.42c.68.52,1.72,1.36,3.08,2.49A1.1,1.1,0,0,0,354,164.42ZM278.21,288.68c-2.79-1.61-5.44-2.8-7.44-3-6.48-.54-20.59-1.06-20.73-1.06H250c-.14,0-14.25.51-20.73,1.06-2,.16-4.65,1.35-7.44,3,.28-9.69-.26-35.53-.74-46.36,2.1-1.37,9.78-6.18,14.29-6.33,5.53-.19,14.56,0,14.65,0h0c.09,0,9.1-.16,14.65,0,4.51.14,12.17,5,14.29,6.33C278.47,253.15,277.93,279,278.21,288.68Zm-12.6-64c-2,1.77-10.63,2.34-15.6,2.26h0c-5,.07-13.59-.48-15.6-2.26-3-2.65-18.09-19.35-18.24-19.51l-.49-.53-.68.24c-.09,0-8.35,2.9-12.05,2.53a8.35,8.35,0,0,1-4.56-2.17c9.3-2.23,19.47-4,20.87-3.17.54.39,1.22,1,2,1.68,2.78,2.48,6.62,5.88,11.17,5.84,5.38-.05,17.47,0,17.6,0s4.94,0,9.87,0c2.86,0,5.75,0,7.73,0,4.62.07,8.4-3.35,11.17-5.83.77-.7,1.45-1.3,2-1.69,1.43-.83,11.59.94,20.88,3.17a8.35,8.35,0,0,1-4.56,2.17c-3.7.38-12-2.5-12.05-2.53l-.68-.24-.49.53C283.7,205.3,268.62,222,265.61,224.65Zm-88.21-43.83,23.23,4.36s12.52,9.8,12.88,10.34l-10.89,1.81ZM221,200.61c.07-1,.44-3.33,2.45-3.87.77-.2,1,0,1.82,1.58s1.76,3.4,4.38,3.53c1.36.07,4.09.09,7.13.09,5.83,0,12.75-.09,13.25-.09s7.43.09,13.25.09c3,0,5.77,0,7.13-.09,2.61-.13,3.63-2.1,4.38-3.53s1-1.77,1.82-1.58c2,.53,2.38,2.84,2.45,3.87-.52.41-1.09.91-1.72,1.47-2.49,2.23-5.9,5.28-9.64,5.28h-.05c-5.38-.05-17.42,0-17.62,0s-12.24-.05-17.61,0c-3.73,0-7.2-3-9.71-5.28C222.06,201.53,221.49,201,221,200.61Zm76.39-3.28-10.89-1.81c.36-.54,12.88-10.34,12.88-10.34l23.23-4.36Zm-111.73-67c.74,1.2,2.33,1.11,2.93,1.08,1.23-.07,3.36-.23,6.13-.45,8.28-.63,22.14-1.7,33.13-1.83,14.26-.16,21.69,1.67,21.77,1.69h.81c.08,0,7.48-1.86,21.77-1.69,11,.13,24.86,1.2,33.13,1.83,2.77.22,4.9.38,6.13.45.6,0,2.19.12,2.93-1.08s.05-2.25-.38-3c-.05-.1-.13-.22-.2-.35a11.36,11.36,0,0,1,2.37-.19c5.25,0,6.39,2.12,7.31,3.84.54,1,1.23,2.31,2.79,2.41h.2c2.44,0,3.58-3,4.59-5.57a23.34,23.34,0,0,1,.95-2.23,6.11,6.11,0,0,1,1.91,1.23,136.4,136.4,0,0,1-4,16.19c-4.44-.47-23.77-2.31-33.53.12-5.43,1.35-11.4,4.05-16.67,6.42-4.9,2.2-9.49,4.31-11.55,4.2-4.54-.17-18.14-.79-18.14-.79h-.11s-13.6.62-18.14.79c-2,.07-6.65-2-11.55-4.2-5.27-2.37-11.24-5.07-16.67-6.42-9.75-2.43-29.08-.59-33.53-.12a135.86,135.86,0,0,1-4-16.19,6.19,6.19,0,0,1,1.91-1.23,22.19,22.19,0,0,1,.95,2.23c1,2.69,2.21,5.74,4.79,5.56,1.56-.1,2.24-1.38,2.79-2.41.91-1.72,2.06-3.84,7.31-3.84a11.36,11.36,0,0,1,2.37.19c-.07.13-.14.25-.2.35C185.58,128.07,184.94,129.21,185.64,130.33Zm143.61,14.45c-.57,1.69-1,2.92-1.33,3.67-4-1.1-19.37-4.73-34.34.28a115.28,115.28,0,0,0-18.58,8c-2.92,1.54-4.67,2.46-6,2.32-1.06-.1-2.35-.36-3.87-.66a68.08,68.08,0,0,0-30.23,0c-1.51.3-2.81.57-3.87.66-1.33.14-3.09-.78-6-2.32a116,116,0,0,0-18.59-8c-15-5-30.37-1.38-34.34-.28-.29-.75-.76-2-1.34-3.67,5.07-.51,23.32-2.12,32.31.12,5.25,1.31,11.13,4,16.31,6.29,5.44,2.45,9.78,4.41,12.35,4.41h.19c4.39-.17,17.24-.76,18.11-.79s13.72.62,18.11.79h.19c2.57,0,6.9-2,12.35-4.41,5.18-2.34,11.06-5,16.31-6.29C305.92,142.65,324.18,144.27,329.25,144.78ZM301.31,29.66C300.44,18,295.62,9.51,293,4.93c-.21-.36-.41-.73-.61-1.09,4.94,3.06,18,13.71,21.77,23,4.77,11.88,4.55,29,1.86,39.75-2.17,8.65-7.74,17.5-10.14,21A78.06,78.06,0,0,0,298.52,74c-3.52-4.83-7.88-10.36-9.41-12.27C291.79,58.47,302.42,44.49,301.31,29.66ZM210.75,79.08A72.22,72.22,0,0,1,221.3,66.83a51.89,51.89,0,0,0,6,4.13c2.66,1.59,7.88,3.48,11.44,4.68a25.74,25.74,0,0,0-8.45,39.69,40.52,40.52,0,0,1-16.16-6.21A58.53,58.53,0,0,1,200.9,97.49,132.87,132.87,0,0,1,210.75,79.08ZM198.88,96.69a3.81,3.81,0,0,1-3.21-.83c-1-1.06-.64-4.22-.29-5.64.32-.77,3.82-9.36,7.87-14.93s9.06-11.85,9.8-12.77a6.84,6.84,0,0,1,5.13-1c1.94.47,2.08,2.45,2.06,3.3a72.56,72.56,0,0,0-11.28,13A134.3,134.3,0,0,0,198.88,96.69Zm28.62,2.1A22.51,22.51,0,1,1,250,121.29,22.53,22.53,0,0,1,227.49,98.79Zm48.28,0A25.82,25.82,0,0,0,261.3,75.63c3.56-1.2,8.8-3.09,11.44-4.68a53.35,53.35,0,0,0,6-4.13,72.26,72.26,0,0,1,10.55,12.25,132.87,132.87,0,0,1,9.84,18.41,58.53,58.53,0,0,1-13.19,11.63,40.52,40.52,0,0,1-16.16,6.21A25.64,25.64,0,0,0,275.77,98.79Zm15.28-20.94a72.56,72.56,0,0,0-11.28-13c0-.86.12-2.83,2.06-3.3a6.9,6.9,0,0,1,5.13,1c.74.94,5.81,7.28,9.8,12.77s7.57,14.18,7.87,14.93c.35,1.42.72,4.57-.29,5.64a3.81,3.81,0,0,1-3.21.83A134.3,134.3,0,0,0,291.05,77.86ZM250,45.44c14.11,0,37.33,4.92,43.26,6.23a64.15,64.15,0,0,1-5.79,8.63,8.84,8.84,0,0,0-6.14-.86c-3.08.74-3.79,3.62-3.73,5.47a48.86,48.86,0,0,1-6,4.17c-3.14,1.88-10.53,4.36-13.41,5.29a25.64,25.64,0,0,0-16.42,0c-2.89-.94-10.28-3.41-13.41-5.29a48.86,48.86,0,0,1-6-4.17c.05-1.85-.65-4.73-3.73-5.47a8.84,8.84,0,0,0-6.14.86,64.15,64.15,0,0,1-5.79-8.63C212.67,50.36,235.89,45.44,250,45.44ZM185.81,26.87c3.76-9.32,16.82-20,21.77-23-.2.36-.4.73-.61,1.09-2.59,4.57-7.4,13.09-8.28,24.73-1.11,14.84,9.52,28.82,12.2,32.08-1.52,1.92-5.89,7.44-9.41,12.27a78.06,78.06,0,0,0-7.39,13.64c-2.38-3.53-8-12.38-10.13-21C181.26,55.86,181,38.75,185.81,26.87Zm-4.94,35.49c.28,1.7.6,3.31,1,4.8,2.61,10.44,9.76,20.79,11.32,23-.29,1.45-.88,5.32.93,7.23a5.91,5.91,0,0,0,5.12,1.48A59.62,59.62,0,0,0,213,111a42.37,42.37,0,0,0,19.7,6.86,25.72,25.72,0,0,0,34.69,0A42.37,42.37,0,0,0,287,111,59.62,59.62,0,0,0,300.8,98.85a5.91,5.91,0,0,0,5.12-1.48c1.81-1.91,1.22-5.78.93-7.23,1.57-2.19,8.71-12.53,11.31-23,.38-1.49.7-3.1,1-4.8l13.41,5.35A131,131,0,0,1,336,110c-.36,4.66-.88,9-1.51,12.9a4.91,4.91,0,0,0-3-.88,2.88,2.88,0,0,0-2.13,1.34,18.1,18.1,0,0,0-1.35,3,18.79,18.79,0,0,1-1.45,3.17l-.21-.38c-1-1.94-3-5.56-10.18-5.56-3.11,0-4.75.53-5.49,1.8a3,3,0,0,0,0,2.78l-5.14-.39c-8.32-.63-22.25-1.71-33.35-1.84-13.06-.15-20.44,1.3-22.2,1.69-1.76-.39-9.16-1.84-22.2-1.69-11.11.13-25,1.21-33.35,1.84l-5.14.39a3,3,0,0,0,0-2.78c-.74-1.26-2.37-1.8-5.49-1.8-7.21,0-9.15,3.63-10.18,5.56l-.21.38A18.79,18.79,0,0,1,172,126.3a18.1,18.1,0,0,0-1.35-3,2.88,2.88,0,0,0-2.13-1.34,4.94,4.94,0,0,0-3,.88c-.62-3.93-1.14-8.24-1.5-12.9a131.12,131.12,0,0,1,3.48-42.25Zm-27,4.56c2.78-1.31,4.9.59,5.92,1.86l-10.19,4.63C149.87,71.61,150.83,68.35,153.83,66.92Zm-6.77,10,17.87-8.09a136.2,136.2,0,0,0-3.13,41.29c1.63,21.12,6.76,35.34,8.24,39.09l-20.94,9.92c-1.4-3.22-5.76-14.17-8.18-30.77-1.19-8.22.11-26.18.58-31.93Zm-63.66,210c-5.51,64.2,6.53,108.4,40.28,147.8,14.26,16.66,32.1,32.08,47.7,41.24,15.29,9,29.36,14.26,38.67,17.77,3.44,1.3,6.72,2.54,8.32,3.36-4.61.3-21.22-1.85-43.17-9.54-20.87-7.32-50.53-21-73.31-44.76C49.43,388.06,38.36,330.37,36,308.11c-4-38.74,5.87-100.69,37.14-151.77C100.49,111.73,132.69,92,141.92,87l-2.62,9.21A209.19,209.19,0,0,0,107.54,124c-16,17.42-72.59,86.39-64.61,183.66s87.48,149.17,69.33,127.4S61.08,346.51,72.7,277.91c9.45-55.85,54.43-98.81,70.84-112.87A84.47,84.47,0,0,0,140.86,180a191.07,191.07,0,0,0-25.6,28.42h0C101.16,227.43,86.17,254.69,83.4,286.89Zm49.37-26.38a35.63,35.63,0,0,0-5.44-5.9,15.57,15.57,0,0,0-6.17-3.73c-1.62-.56-2.7-.91-4.7-4.19-2.15-3.52-2.58-7-3-10.05a18.38,18.38,0,0,0-1.73-6.79,16.36,16.36,0,0,0-4.65-5.43c2.69-4.44,5.47-8.59,8.22-12.43a69.91,69.91,0,0,0,2.82,12.55c.44,1.49.86,3,1.22,4.36.93,3.52,4,7.75,7,11.86,2.58,3.52,5,6.84,5.79,9.29C133.25,253.38,133.06,257.76,132.77,260.5Zm8.89-24.84c.22,6.35,2.54,11,4.39,14.8,1.25,2.53,2.33,4.7,2.33,6.58v.46a145.33,145.33,0,0,1-.69,15.63c-1.12,9.66-3.23,10.41-3.85,10.41-4.44,0-6.08-2.59-7.27-11.57a29.83,29.83,0,0,0-2.11-8.47h.11c.07-.34,1.52-8.36-.3-14.13-.88-2.8-3.42-6.26-6.1-9.92-2.89-3.94-5.87-8-6.67-11.13-.37-1.4-.81-2.9-1.24-4.41-1.4-4.82-3-10.25-2.82-14.8a193,193,0,0,1,23.4-26.18,13,13,0,0,0,.52,3.48c1.31,4,3.38,4.91,4.62,5.44a5,5,0,0,1,.61.28.77.77,0,0,1,0,.33c-.38,2.87-1.57,19.43,1.89,26.73A21.29,21.29,0,0,0,141.66,235.67Zm20-9.3c-5.23-2.72-9.34-4.86-10.86-7.44-2.32-4-2.65-12.46-2.49-18.75,3.68-2.94,12.1-8.84,16-7.95,2.67.6,11.64,7.16,19.56,13,9.75,7.14,15.83,11.53,18,11.73s4.38-1.13,6.28-2.32c2.1-1.31,3.55-2.12,4.45-1.49,2,1.4,5.13,17.2,6.07,25,.51,4.21,1.4,42.5.95,51.93-2.69,1.71-5.36,3.65-7.55,5.32-.07-1.38-.19-3.63-.3-4.87-.16-1.57-1-2.13-2.17-2.91a23.88,23.88,0,0,1-3.27-2.5c-.95-.85-1.76-4.11-2.71-7.86-2.25-9-5.66-22.47-16.49-33.3C178.06,234.91,168.55,230,161.62,226.37Zm29.9,61.75c-.34-1.11-.83-3.08-1.46-5.57-1.68-6.72-4.22-16.88-7.28-24.46-.82-2-1.62-4.09-2.42-6.15-2.4-6.18-4.69-12.12-7.24-16.52a77.73,77.73,0,0,1,12.41,10.05c10.41,10.41,13.72,23.57,15.92,32.3,1.15,4.61,1.93,7.65,3.36,8.94a27.44,27.44,0,0,0,3.52,2.71c1.12.74,1.15.81,1.21,1.31.17,1.76.36,5.89.36,5.93a.79.79,0,0,0,.08.32c-1,.78-1.75,1.43-2.28,1.85l-2.37-.86a81.26,81.26,0,0,0-9-2.93C195.14,293.88,192.41,291.06,191.52,288.12Zm99.86,77.27a43.55,43.55,0,1,1-74.89-30.19,92.46,92.46,0,0,1,6.66,9.24,32.39,32.39,0,1,0,51.71,3.14c1.91-3,4.1-6.5,6.61-9.81A43.38,43.38,0,0,1,291.38,365.38Zm-67-19c.28.44.56.88.83,1.31a62,62,0,0,0,5.22,7.56,11.33,11.33,0,0,0,9.53,4.28c1.48,0,3.13-.13,5-.29,1.48-.12,3.15-.26,5-.36,1.89.1,3.56.24,5,.36,1.89.16,3.54.29,5,.29a11.33,11.33,0,0,0,9.53-4.28,44.6,44.6,0,0,0,4-5.62,30.22,30.22,0,1,1-49.21-3.24Zm95.86-25c-1.06,12.59-12.38,25.56-16.06,27.23-2.79,1.26-10.09.88-13.6.54-.48-1.25-1-2.48-1.58-3.67,1.51-.05,3.85-.2,6.34-.52,4.76-.63,16.26-12.6,15.64-17.54a6.28,6.28,0,0,0-3.18-5c-3.17-1.73-8.2-1-15,2.26-4.37,2.08-23.63,27.76-24.84,29.11-3.63,4-6.3,3.81-12.75,3.28-1.51-.13-3.22-.26-5.17-.37h-.11c-1.95.11-3.66.24-5.17.37-6.45.53-9.12.75-12.75-3.28a61.85,61.85,0,0,1-5-7.26c-.37-.6-16.35-20.18-19.85-21.84-6.77-3.23-11.81-4-15-2.26a6.28,6.28,0,0,0-3.18,5c-.62,4.94,10.88,16.91,15.64,17.54l2.11.28a46.19,46.19,0,0,0-1.87,4.32c-1.64.14-6.13.38-9.08-1-3.68-1.68-15-14.65-16.06-27.23s10.85-23.88,13.47-24.42a5.79,5.79,0,0,1,2.11.1,1.85,1.85,0,0,0,.23.21l.12-.13a76.28,76.28,0,0,1,8.87,2.89c3.32,1.21,7.09,2.58,11.18,3.81,5.22,1.56,12.1,6,18.17,9.9,3.71,2.38,7.15,4.59,10.07,6.11-3.64.3,14.81,1,11.15.42a118.22,118.22,0,0,0,10.92-6.53c6.08-3.91,13-8.34,18.17-9.9,4.09-1.23,7.86-2.6,11.18-3.81a75.69,75.69,0,0,1,8.89-2.89l.11.13.23-.2a5.83,5.83,0,0,1,2.11-.11C309.39,297.49,321.31,308.67,320.23,321.37Zm-.59-69.44c-.79,2.06-1.6,4.13-2.42,6.15-3.06,7.58-5.61,17.75-7.3,24.47-.62,2.49-1.11,4.45-1.45,5.56-.89,2.94-3.64,5.76-4.86,6.91a80.45,80.45,0,0,0-8.94,2.93l-2.38.86c-.52-.42-1.3-1.07-2.28-1.85a1,1,0,0,0,.08-.32s.19-4.17.36-5.93c.05-.5.09-.57,1.21-1.31a27.44,27.44,0,0,0,3.52-2.71c1.44-1.28,2.21-4.33,3.36-9,2.2-8.71,5.51-21.88,15.92-32.28a78.33,78.33,0,0,1,12.41-10.05C324.34,239.81,322,245.75,319.64,251.93Zm29.6-33c-1.51,2.58-5.63,4.71-10.86,7.44-6.94,3.6-16.44,8.55-25.46,17.56-10.82,10.82-14.23,24.35-16.49,33.3-.95,3.76-1.76,7-2.71,7.86a23.88,23.88,0,0,1-3.27,2.5c-1.17.77-2,1.34-2.17,2.91-.12,1.24-.24,3.48-.32,4.87-2.18-1.68-4.85-3.62-7.53-5.32-.46-9.43.44-47.71.95-51.93.93-7.8,4-23.6,6.07-25,.9-.63,2.35.19,4.45,1.49,1.91,1.19,4,2.53,6.28,2.32s8.22-4.58,18-11.73c7.92-5.79,16.89-12.37,19.56-13,3.92-.89,12.34,5,16,7.95C351.89,206.47,351.56,214.94,349.24,218.93Zm16.2,44.57.11,0a30,30,0,0,0-2.11,8.48c-1.2,9-2.83,11.57-7.27,11.57-.62,0-2.73-.75-3.85-10.41a145.51,145.51,0,0,1-.69-15.64V257c0-1.87,1.08-4.05,2.33-6.58,1.85-3.77,4.17-8.45,4.39-14.8a21.29,21.29,0,0,0-6.81-16.46c3.46-7.31,2.28-23.86,1.89-26.73a1.61,1.61,0,0,1,0-.3,3.27,3.27,0,0,1,.62-.3c1.24-.53,3.31-1.42,4.61-5.44a13,13,0,0,0,.53-3.48,192.64,192.64,0,0,1,23.4,26.17c.14,4.56-1.42,10-2.82,14.81-.44,1.51-.87,3-1.24,4.41-.81,3.13-3.79,7.19-6.67,11.13-2.68,3.66-5.22,7.12-6.1,9.92C363.92,255.13,365.38,263.16,365.44,263.5Zm22.8-33.67a18.38,18.38,0,0,0-1.73,6.79c-.38,3.06-.82,6.53-3,10.05-2,3.28-3.08,3.64-4.7,4.19a15.57,15.57,0,0,0-6.17,3.73,35.17,35.17,0,0,0-5.44,5.9c-.28-2.74-.48-7.12.59-10.49.78-2.45,3.21-5.77,5.79-9.29,3-4.1,6.1-8.34,7-11.86.36-1.39.78-2.86,1.22-4.36a70,70,0,0,0,2.82-12.57c2.75,3.84,5.53,8,8.22,12.43A16.56,16.56,0,0,0,388.24,229.83ZM464,308.11c-2.33,22.27-13.4,80-65.85,134.65-22.78,23.75-52.44,37.45-73.31,44.76-22,7.69-38.56,9.85-43.17,9.54,1.6-.83,4.88-2.07,8.32-3.36,9.31-3.51,23.38-8.8,38.67-17.77,15.6-9.16,33.44-24.58,47.7-41.24,33.74-39.41,45.79-83.6,40.28-147.8-2.77-32.2-17.76-59.45-31.85-78.5h0A190.46,190.46,0,0,0,359.14,180,84.47,84.47,0,0,0,356.46,165c16.41,14.06,61.39,57,70.84,112.87,11.62,68.6-21.41,135.38-39.56,157.16s61.34-30.13,69.33-127.4S408.43,141.43,392.46,124A209.22,209.22,0,0,0,360.6,96.17L358,87c9.15,4.93,41.41,24.6,68.81,69.34C458.1,207.42,468,269.37,464,308.11Z"/>
      <path d="M155.95,153.6a6.53,6.53,0,1,1,6.53-6.53A6.54,6.54,0,0,1,155.95,153.6Zm0-10.89a4.36,4.36,0,1,0,4.36,4.36A4.36,4.36,0,0,0,155.95,142.71Z"/>
      <path d="M153.36,134.81a6.12,6.12,0,1,1,6.12-6.12A6.13,6.13,0,0,1,153.36,134.81Zm0-10.07a3.95,3.95,0,1,0,3.95,3.95A4,4,0,0,0,153.36,124.74Z"/>
      <path d="M151.73,113.72A6.67,6.67,0,1,1,158.4,107,6.68,6.68,0,0,1,151.73,113.72Zm0-11.16a4.49,4.49,0,1,0,4.49,4.49A4.5,4.5,0,0,0,151.73,102.56Z"/>
      <path d="M151.73,94.12a6,6,0,1,1,6-6A6,6,0,0,1,151.73,94.12Zm0-9.8a3.81,3.81,0,1,0,3.81,3.81A3.82,3.82,0,0,0,151.73,84.32Z"/>
      <path d="M179.77,137.26c0,2.72,19.15-.18,32.53,3.63s12.48,4.9,19.92,4.54,14-2.18,12.7-3.81-11.25-4.54-17.06-4.9S179.77,134.81,179.77,137.26Z"/>
      <path d="M250,83.26a15.53,15.53,0,1,0,15.53,15.53A15.55,15.55,0,0,0,250,83.26Zm0,20.25a8,8,0,1,1,8-8A8,8,0,0,1,250,103.51Z"/>
    </g>
  </g>
</svg>
