<svg xmlns="http://www.w3.org/2000/svg" width="500" height="500" viewBox="0 0 500 500">
  <title>terran-hegemony_COLOR</title>
  <g id="n5">
    <path d="M250,7.55C116.31,7.55,7.55,116.31,7.55,250S116.31,492.45,250,492.45,492.45,383.69,492.45,250,383.69,7.55,250,7.55Z" style="fill: #5d5a5b"/>
  </g>
  <g id="n4">
    <path d="M250,402c-83.79,0-152-68.17-152-152A151.12,151.12,0,0,1,126,162.31,9.66,9.66,0,0,0,137.46,148,151.6,151.6,0,0,1,250,98c83.79,0,152,68.17,152,152S333.79,402,250,402Z" style="fill: #4e5b2d"/>
  </g>
  <g id="n3">
    <path d="M250,356.43a106.43,106.43,0,1,1,105.92-116.8,9.1,9.1,0,0,0,.27,17.42A106.56,106.56,0,0,1,250,356.43Z" style="fill: #7a8341"/>
  </g>
  <g id="n2">
    <circle cx="250.57" cy="111.7" r="8.54" style="fill: #96b5ea"/>
  </g>
  <g id="n1">
    <polygon points="272.6 272.46 250.14 250 327.29 250 272.6 272.46" style="fill: #f4f70e"/>
    <polygon points="326.92 246.59 250.27 246.59 272.59 225.24 326.92 246.59" style="fill: #f4f70e"/>
    <polygon points="306.56 188.88 289.96 228.39 273.49 221.93 266.67 205.62 306.56 188.88" style="fill: #f4f70e"/>
    <polygon points="247.72 169.16 270.17 222.83 247.72 244.3 247.72 169.16" style="fill: #f4f70e"/>
    <polygon points="186.74 188.96 226.87 206.01 220.79 221.94 204.32 228.41 186.74 188.96" style="fill: #f4f70e"/>
    <polygon points="221.67 225.26 242.03 246.59 167.39 246.59 221.67 225.26" style="fill: #f4f70e"/>
    <polygon points="167.02 250 242.15 250 221.66 272.44 167.02 250" style="fill: #f4f70e"/>
    <polygon points="187.71 307.71 203.72 268.76 220.76 275.76 226.43 291.4 187.71 307.71" style="fill: #f4f70e"/>
    <polygon points="247.72 331.56 247.72 252.41 270.19 274.89 247.72 331.56" style="fill: #f4f70e"/>
    <polygon points="306.51 307.67 267.41 291.17 273.51 275.78 289.89 269.05 306.51 307.67" style="fill: #f4f70e"/>
    <polygon points="244.31 169.91 244.31 244.03 224.09 222.85 244.31 169.91" style="fill: #f4f70e"/>
    <polygon points="244.31 330.76 224.07 274.86 244.31 252.69 244.31 330.76" style="fill: #f4f70e"/>
  </g>
  <g id="Base">
    <g>
      <path d="M250,497A247,247,0,0,1,75.34,75.34,247,247,0,0,1,424.66,424.66,245.39,245.39,0,0,1,250,497ZM250,7.55C116.31,7.55,7.55,116.31,7.55,250S116.31,492.45,250,492.45,492.45,383.69,492.45,250,383.69,7.55,250,7.55Z"/>
      <path d="M262.38,110a11.94,11.94,0,0,0-23.61-.09c-72.28,5.74-129.34,66.37-129.34,140.1,0,77.51,63.06,140.57,140.57,140.57S390.57,327.51,390.57,250C390.57,176.66,334.12,116.28,262.38,110Zm-11.81-6.82A8.54,8.54,0,1,1,242,111.7,8.55,8.55,0,0,1,250.57,103.17ZM250,386c-75,0-136-61-136-136,0-71.28,55.12-129.91,125-135.55a11.94,11.94,0,0,0,23.22.09C331.49,120.71,386,179.1,386,250,386,325,325,386,250,386Z"/>
      <path d="M250,77.56c-91.91,0-167.24,72.27-172.18,163a10.24,10.24,0,0,0,.07,20.1C83.4,350.78,158.48,422.44,250,422.44c95.09,0,172.44-77.36,172.44-172.44S345.09,77.56,250,77.56Zm0,340.34c-89.06,0-162.13-69.71-167.56-157.43a10.23,10.23,0,0,0-.07-19.81C87.24,152.41,160.56,82.11,250,82.11c92.58,0,167.89,75.32,167.89,167.89S342.58,417.89,250,417.89Z"/>
      <path d="M250,62.76c-103.25,0-187.24,84-187.24,187.24a186.42,186.42,0,0,0,45,121.6,9.09,9.09,0,0,0,12.25,13,186.6,186.6,0,0,0,130,52.64c103.25,0,187.24-84,187.24-187.24S353.25,62.76,250,62.76Zm0,369.93a182.06,182.06,0,0,1-126.9-51.4,9.1,9.1,0,0,0-11.87-12.6A181.89,181.89,0,0,1,67.31,250c0-100.74,82-182.69,182.69-182.69s182.69,82,182.69,182.69S350.74,432.69,250,432.69Z"/>
      <path d="M452,250C452,138.6,361.4,48,250,48S48,138.6,48,250c0,108.24,85.56,196.87,192.6,201.81a9.1,9.1,0,0,0,17.72,0C365.86,447.49,452,358.63,452,250ZM258.19,447.3a9.1,9.1,0,0,0-17.51,0C136.1,442.38,52.51,355.77,52.51,250,52.51,141.11,141.11,52.51,250,52.51S447.49,141.11,447.49,250C447.49,356.15,363.3,443,258.19,447.3Z"/>
      <path d="M468,250c0-120.19-97.78-218-218-218S32,129.81,32,250s97.78,218,218,218a217.11,217.11,0,0,0,145.84-56.12,9.1,9.1,0,0,0,12.7-12.43A217.18,217.18,0,0,0,468,250Zm-431.4,0C36.58,132.32,132.32,36.58,250,36.58S463.42,132.32,463.42,250a212.65,212.65,0,0,1-58.17,146.28,9.1,9.1,0,0,0-12.48,12.21A212.57,212.57,0,0,1,250,463.42C132.32,463.42,36.58,367.68,36.58,250Z"/>
      <path d="M367.81,248.29a9.11,9.11,0,0,0-7.34-8.93,111,111,0,1,0,.27,17.8A9.1,9.1,0,0,0,367.81,248.29ZM250,356.43a106.43,106.43,0,1,1,105.92-116.8,9.1,9.1,0,0,0,.27,17.42A106.56,106.56,0,0,1,250,356.43Z"/>
      <path d="M488.46,249.43a9.11,9.11,0,0,0-6.46-8.71C477.11,117,374.93,17.8,250,17.8,122,17.8,17.8,122,17.8,250S122,482.2,250,482.2c125.31,0,227.74-99.79,232-224.07A9.11,9.11,0,0,0,488.46,249.43ZM250,477.65C124.47,477.65,22.35,375.53,22.35,250S124.47,22.35,250,22.35c122.35,0,222.45,97,227.44,218.18a9.1,9.1,0,0,0,0,17.81C473.07,380,372.73,477.65,250,477.65Z"/>
      <path d="M343.82,166.33A9.09,9.09,0,0,0,331.19,154a126,126,0,1,0,12.63,12.3ZM250,371.22A121.22,121.22,0,1,1,328,157.3a9.09,9.09,0,0,0,12.61,12.28A121.15,121.15,0,0,1,250,371.22Z"/>
      <path d="M250,93.49a156.14,156.14,0,0,0-115.84,51.37,9.66,9.66,0,0,0-12,14.89A155.65,155.65,0,0,0,93.49,250c0,86.3,70.21,156.51,156.51,156.51S406.51,336.3,406.51,250,336.3,93.49,250,93.49ZM250,402c-83.79,0-152-68.17-152-152A151.12,151.12,0,0,1,126,162.31,9.66,9.66,0,0,0,137.46,148,151.6,151.6,0,0,1,250,98c83.79,0,152,68.17,152,152S333.79,402,250,402Z"/>
      <path d="M336.6,249.87h0l3.91-1.61-3.91-1.54h0l-43.47-17.08L313,182.5l-47.6,20L245.94,156l-17.86,46.77-48-20.4,21.05,47.24-43.43,17.06h0l-3.91,1.54,3.91,1.61h0l42.86,17.6L181.4,314.08l46.2-19.46,18.35,50.68,20.21-51L313,314.12l-20-46.37Zm-64,22.59L250.14,250h77.15Zm54.32-25.88H250.27l22.32-21.35Zm-20.36-57.71L290,228.39l-16.46-6.47-6.82-16.31Zm-58.84-19.72,22.44,53.67L247.72,244.3Zm-3.41.75V244l-20.22-21.18ZM186.74,189,226.87,206l-6.08,15.93-16.47,6.47Zm34.93,36.3L242,246.59H167.39ZM167,250h75.12l-20.49,22.44Zm20.68,57.71,16-39,17,7,5.66,15.64Zm56.6,23-20.24-55.9,20.24-22.17Zm3.41.79V252.41l22.47,22.47Zm58.79-23.88-39.1-16.5,6.1-15.39L289.89,269Z"/>
    </g>
  </g>
</svg>
