<svg xmlns="http://www.w3.org/2000/svg" viewBox="0 0 500 497"><title>terran-hegemony</title><g id="Icons"><path d="M250.5,93A155.55,155.55,0,1,0,406,248.5,155.55,155.55,0,0,0,250.5,93Zm83.95,243.29-62.62-29.76L248.6,371.8l-23.23-65.32-62.62,29.76,29.76-62.62L127.2,250.4l65.32-23.23-29.76-62.62,62.62,29.76L248.6,129l23.23,65.32,62.62-29.76-29.76,62.62L370,250.4l-65.32,23.23Z"/><path d="M250.5,445.78c-108.78,0-197.28-88.5-197.28-197.28S141.72,51.22,250.5,51.22s197.28,88.5,197.28,197.28S359.28,445.78,250.5,445.78Zm0-379.39c-100.41,0-182.11,81.69-182.11,182.11S150.09,430.61,250.5,430.61,432.61,348.91,432.61,248.5,350.91,66.39,250.5,66.39Z"/><path d="M250.5,470.44c-122.38,0-221.94-99.56-221.94-221.94S128.12,26.56,250.5,26.56,472.44,126.12,472.44,248.5,372.88,470.44,250.5,470.44Zm0-428.71c-114,0-206.77,92.76-206.77,206.77S136.49,455.27,250.5,455.27,457.27,362.51,457.27,248.5,364.51,41.73,250.5,41.73Z"/><path d="M250.5,497C113.48,497,2,385.52,2,248.5S113.48,0,250.5,0,499,111.48,499,248.5,387.52,497,250.5,497Zm0-481.82C121.84,15.18,17.18,119.84,17.18,248.5S121.84,481.82,250.5,481.82,483.82,377.16,483.82,248.5,379.16,15.18,250.5,15.18Z"/></g></svg>