<svg xmlns="http://www.w3.org/2000/svg" viewBox="0 0 500 500"><defs><style>.cls-1{fill:#b4b4b4;}.cls-2{fill:#fff;}.cls-3{fill:#717171;}</style></defs><title>terran-hegemony-hbs_COLOR</title><g id="n4"><path class="cls-1" d="M250.5,16.18C121.84,16.18,17.18,120.84,17.18,249.5S121.84,482.82,250.5,482.82,483.82,378.16,483.82,249.5,379.16,16.18,250.5,16.18Z"/></g><g id="n3"><path class="cls-1" d="M250.5,42.73c-114,0-206.77,92.76-206.77,206.77S136.49,456.27,250.5,456.27,457.27,363.51,457.27,249.5,364.51,42.73,250.5,42.73Z"/></g><g id="n2"><path class="cls-2" d="M250.5,67.39c-100.41,0-182.11,81.69-182.11,182.11S150.09,431.61,250.5,431.61,432.61,349.91,432.61,249.5,350.91,67.39,250.5,67.39Z"/></g><g id="n1"><polygon class="cls-3" points="334.45 337.24 271.83 307.48 248.6 372.8 225.37 307.48 162.76 337.24 192.52 274.63 127.2 251.4 192.52 228.17 162.76 165.55 225.37 195.31 248.6 129.99 271.83 195.31 334.45 165.55 304.69 228.17 370.01 251.4 304.69 274.63 334.45 337.24"/></g><g id="Base"><path d="M250.5,94A155.55,155.55,0,1,0,406,249.5,155.55,155.55,0,0,0,250.5,94Zm83.95,243.29-62.62-29.76L248.6,372.8l-23.23-65.32-62.62,29.76,29.76-62.62L127.2,251.4l65.32-23.23-29.76-62.62,62.62,29.76L248.6,130l23.23,65.32,62.62-29.76-29.76,62.62L370,251.4l-65.32,23.23Z"/><path d="M250.5,446.78c-108.78,0-197.28-88.5-197.28-197.28S141.72,52.22,250.5,52.22s197.28,88.5,197.28,197.28S359.28,446.78,250.5,446.78Zm0-379.39c-100.41,0-182.11,81.69-182.11,182.11S150.09,431.61,250.5,431.61,432.61,349.91,432.61,249.5,350.91,67.39,250.5,67.39Z"/><path d="M250.5,471.44c-122.38,0-221.94-99.56-221.94-221.94S128.12,27.56,250.5,27.56,472.44,127.12,472.44,249.5,372.88,471.44,250.5,471.44Zm0-428.71c-114,0-206.77,92.76-206.77,206.77S136.49,456.27,250.5,456.27,457.27,363.51,457.27,249.5,364.51,42.73,250.5,42.73Z"/><path d="M250.5,498C113.48,498,2,386.52,2,249.5S113.48,1,250.5,1,499,112.48,499,249.5,387.52,498,250.5,498Zm0-481.82C121.84,16.18,17.18,120.84,17.18,249.5S121.84,482.82,250.5,482.82,483.82,378.16,483.82,249.5,379.16,16.18,250.5,16.18Z"/></g></svg>