<svg xmlns="http://www.w3.org/2000/svg" viewBox="0 0 500 500"><title>third-league-era</title><g id="Base"><path d="M250,3.22c-99.84,0-181.07,81.23-181.07,181.07,0,88.79,64.24,162.86,148.69,178.16l-3.9-22.34c-68.65-16-120.46-76.28-123.54-149l-17.33-7.44,17.37-7.46C94.31,94.3,160.32,28.41,242.29,24.5l7.71-18,7.71,18c82,3.91,148,69.8,152.06,151.72l17.37,7.46-17.33,7.44c-3.08,72.7-54.89,133-123.54,149l-3.9,22.34c84.45-15.31,148.69-89.37,148.69-178.16C431.07,84.44,349.84,3.22,250,3.22Z"/><ellipse cx="140.86" cy="121.85" rx="17.91" ry="24.31"/><ellipse cx="355.32" cy="121.85" rx="17.91" ry="24.31"/><circle cx="250" cy="182.83" r="16.58"/><path d="M396,187.52l8.91-3.83L296.54,137.15,250,28.81,203.46,137.15,95.12,183.69l8.9,3.83c1.51,68.94,51,126.26,116.38,139.77L250,496.78l29.6-169.5C345,313.78,394.46,256.46,396,187.52Zm-94.91,57.74-5.8-7.64,1.29-7.39,19.3-8.29,6.32,4.94-19.35,8.31Zm4.53,13.23,23.7,31.2a132,132,0,0,1-30.09,17l-12.72-18.85,7.74-44.33,5.8,7.64-.95,5.42Zm-105.67-7.61,5.85-7.36,7.48,42.82-13.43,20a132,132,0,0,1-30.16-17.43l24-30.19,7.22-2.12ZM320.45,220l33.73-14.49,21.94,17.67a131.35,131.35,0,0,1-13.45,29.77Zm57-1.4-18.69-15,22.87-9.83A131.23,131.23,0,0,1,377.43,218.56ZM214.9,169.17l-9.67-30.24,30.24,9.67L250,120.39l14.54,28.22,30.24-9.67-9.67,30.24,28.22,14.54L285.1,198.25l9.67,30.24-30.24-9.67L250,247l-14.54-28.22-30.24,9.67,9.67-30.24-28.22-14.54Zm-36.81,50.16-40.14,34.56A131.38,131.38,0,0,1,124,223.57l23.89-17.2Zm-34.9-15-20.48,14.75a131.22,131.22,0,0,1-4.33-25.4Zm-2.84,53.28,42.23-36.36,20.88,9,1.31,7.5-5.85,7.36-1.73-9.9-19.45-8.36L166,266.8l20.34-6-20.15,25.32A133,133,0,0,1,140.36,257.62ZM204,308l10.33-15.38,3.43,19.66A130.79,130.79,0,0,1,204,308Zm81.38-13.86,9.6,14.23a130.79,130.79,0,0,1-12.77,3.92ZM332.76,287l-20.07-26.41L334,266.8,322.31,227l38,29.65A133,133,0,0,1,332.76,287Z"/><polygon points="321.82 140.35 333.97 98.86 292.92 110.89 301.9 131.79 321.82 140.35"/><polygon points="198.1 131.79 207.09 110.89 166.03 98.86 178.18 140.35 198.1 131.79"/></g></svg>