<svg xmlns="http://www.w3.org/2000/svg" viewBox="0 0 500 500"><title>umbra-hounds</title><g id="Icons"><g id="layer1"><path id="rect4198-3" d="M250,2.14,77.5,250,250,497.86,422.5,250,250,2.14ZM250,43,394.06,250,250,457,105.94,250,250,43Z"/><path id="rect4198-3-1" d="M250,2.14,77.5,250,250,497.86,422.5,250,250,2.14ZM250,43,394.06,250,250,457,105.94,250,250,43Z"/><path id="rect4198-3-1-4" d="M250,2.14,422.5,250,250,497.86,77.5,250,250,2.14ZM250,43,105.94,250,250,457,394.06,250,250,43Z"/><path id="rect4198-3-1-4-9" d="M250,2.14,422.5,250,250,497.86,77.5,250,250,2.14ZM250,43,105.94,250,250,457,394.06,250,250,43Z"/></g><path d="M339.91,259.65a88.85,88.85,0,0,1-3.06-19.82,35,35,0,0,0-2.51-9.76,71.06,71.06,0,0,0-4.58-9.68,93.78,93.78,0,0,1-7-14.68c-.61-1.49-.56-2.14.89-3,4.68-2.63,10.67-4.57,17.08-6-18.07-24.59-38.11-29.15-47.83-35.08-5.22-3.18-8.41-7.62-8.47-13.5-.05-5.33.29-11.71-2-16-5.11-9.52-17-14.78-31.06-19,4,7.68,7.38,16,5.71,25.29h0c-2.95,16.38-10,34-21.71,46.72-1.92,2.08-3,3.34-5.62,5.93-2,2,.13,2.06-2.49,4.34-7.71,6.71-13.93,14.66-23.15,22.34a5.76,5.76,0,0,0-2.2,5c.11,1,1.58,1.7,1.27,3.23-.25,1.28-1.88,3-3,4.58-15,21-33.05,39.52-51,58.17-1.46,1.51-3,3.1-.71,4.23,11.27,5.7,20.84,11.5,34.78,16.54,1.17.42,2.19,1.28,4.11.86,1.53-.34,4-1.73,4.75-.57s1.55,1.13,2.78.25c21-15.13,36.9-25,48.77-28.9,3.21-1.06,7-1.44,10.4.41a3.34,3.34,0,0,0,3.92-.39,6.83,6.83,0,0,1,7.52-1c10.22,4.12,29.17,13.11,35.88,26.24,6.63-12.81,12-26.06,15.17-40.12.67-3,3.1-3.1,5.11-1.13,8.26,8.08,16.25,16.58,21.05,27.7A94.46,94.46,0,0,0,339.91,259.65Zm-118.07-37a1.85,1.85,0,0,1-1.89,1c-.62,0-2.65-.16-4-.23-1-.06-1.3-.87-.84-1.31h0c6.25-5.92,12.37-11.84,18.56-17.76C229.74,210.24,225.58,215.93,221.84,222.62Z"/></g></svg>