<svg xmlns="http://www.w3.org/2000/svg" viewBox="0 0 500 500"><title>wolfs-dragoons</title><g id="Base"><path d="M250,496.5C114.08,496.5,3.5,385.92,3.5,250S114.08,3.5,250,3.5,496.5,114.08,496.5,250,385.92,496.5,250,496.5Zm0-479.79C121.36,16.71,16.71,121.36,16.71,250S121.36,483.29,250,483.29,483.29,378.64,483.29,250,378.64,16.71,250,16.71Z"/><path d="M250,32.11A217.59,217.59,0,0,0,71.21,125.52l9.51,2.38a32,32,0,0,0,34.1-12.84c8.83-12.75,20.36-28.51,27.34-34.53,10.07-8.69,35.42-19.19,48.42-22,8.93-1.93,35.19-1.19,47.81-.55a5.38,5.38,0,0,1,4.2,8.37s-19.9,23.33-25.6,31.8c-4,5.91-11.66,20.06-16.81,29.74a11.28,11.28,0,0,0,4.58,15.21s30.09,14.15,38.64,21.08c7.88,6.39,19.55,21,22,30.81s-5.74,39.62,4.4,39.62c17.61,0,28.61,3.65,39.62,8.8,16.91,7.92,37.23,35.19,52.82,44,7.72,4.37,28.94,6.27,35.21,0,13.21-13.21,23.77-7,30.81,0,4.4,4.4,4.68,37.26,0,48.42-3.32,7.93-9.58,18.92-17.61,22-4.37,1.68-14.64,1.34-22.13.8a8.11,8.11,0,0,0-8.69,8.11s-3.37,10-4.4,13.1c-3.48,10.44-13.36,25.06-22,30.81-5.12,3.4-19.46,8.25-28.18,11a3.6,3.6,0,0,1-4.45-4.72s8.81-21,10.62-28.32c1.34-5.43,2.74-18,3.59-26.56a3.84,3.84,0,0,0-6.14-3.44s-7.83,6.24-10.66,8c-5.73,3.54-20.1,10.47-28.6,14.5a2.15,2.15,0,0,1-2.73-3.1s12-20.64,13.73-29c1.61-7.61.15-24.5-4.4-30.81-8.63-12-34.84-24-48.42-26.41s-43.78.74-60.73.25a8.18,8.18,0,0,0-8.32,9.35s4.84,16.23,7.43,21.21c10.24,19.74,13.84,18.5,35.21,48.42,4.31,6,26.51,2.18,38.11-1.13a2.66,2.66,0,0,1,2.6,4.44s-16.79,16.78-18.7,23.11c-1.63,5.37-3.3,13.21,0,13.21,14.66,0,33.23-2,44-3.26a4.23,4.23,0,0,1,4.08,6.46S272.24,433,265.41,437.08c-7.82,4.61-22.83,8.08-30.81,8.8-12.06,1.09-36.51,2.16-48.42,0-9.25-1.68-24.29-6.44-30.81-13.21-5.09-5.29-16.14-22.72-19.62-32.61a3.46,3.46,0,0,1,4.52-4.35l41.87,16.11a6.21,6.21,0,0,0,8.44-5.8s-6.17-15.49-8.8-17.37c-30.81-22-66-44-101.24-61.62-3.71-1.86-1.08-10-2.52-16.26a5.4,5.4,0,0,0-9.17-2.49L47.57,330.6C79.63,411,158.15,467.89,250,467.89c120.34,0,217.89-97.55,217.89-217.89S370.34,32.11,250,32.11Z"/><path d="M156,122.1a4.58,4.58,0,0,1-5.6-5.68c1.42-5,3.37-11.12,5.05-13.52,4.53-6.45,17.18-11.66,24.68-14.1a93.6,93.6,0,0,1,12-2.31,4.34,4.34,0,0,1,4.3,6.64c-4.59,7.14-11.47,17-16.31,20.35C175.86,116.43,164,120,156,122.1Z"/><path d="M171.9,193.34a6.89,6.89,0,0,1,8.45-7.59,47.57,47.57,0,0,1,6.73,2c10,4.45,26.43,15.22,32.51,24.38a77.2,77.2,0,0,1,3.7,6.91A6.2,6.2,0,0,1,217.4,228c-8.91-.49-21.14-1.53-26.26-3.65-6-2.49-13.71-10.27-16.25-16.25C173.66,205.19,172.62,198.84,171.9,193.34Z"/><path d="M168.29,229.36c3.88-.17,3.18,5.85,4.92,9.32,2.43,4.86,7,17,4.4,21.74-1.32,2.47-3.53,5.4-6.21,6.21-3,.9-9.78,1.63-12.43,0-3-1.83-2.86-9-3.11-12.43-.35-4.9,4.29-14.93,7.51-18.64C165.2,233.46,165.49,229.49,168.29,229.36Z"/></g></svg>