<svg xmlns="http://www.w3.org/2000/svg" viewBox="0 0 500 500"><defs><style>.cls-1{fill:#456ec0;}.cls-2{fill:#d0dcea;}.cls-3{fill:#fff;}.cls-4{fill:none;}.cls-5{fill:#7998d8;}</style></defs><title>word-of-blake_COLOR</title><g id="n3"><polygon class="cls-1" points="271.15 9.56 265.01 5.46 244.83 5.46 239.24 9.56 244.83 13.65 244.83 83.5 265 83.5 265 13.65 265.01 13.65 271.15 9.56"/></g><g id="n2"><path class="cls-2" d="M278.48,99l-.63,1.31-1,2.06L272,112.54l-2,4.26-3,6.28.31.15a26.16,26.16,0,0,1,2.71,5.15c.16.4.32.8.47,1.22h0l.25.64,1.33-.52,7.37-2.89.85-.3v0l2.79-1.09,1.92-.75,4.38-1.72-4.36,2.42L283,126.4,280.2,128v0l-.5.3L272,132.53l-.7.39.17.3h0c.22,1,.39,2,.53,3.08a36.1,36.1,0,0,1,0,9.64,32.85,32.85,0,0,1-2,7.92,24.24,24.24,0,0,1-4.65,7.51,25.66,25.66,0,0,0,4.65-4,31,31,0,0,0,2-2.49c4.84-6.53,8-15.78,8.2-26.1l2.83-1.57s0,.08,0,.12c0,12.92-4.33,24.89-11,32.5q-1,1.12-2,2.12a24.09,24.09,0,0,1-7.73,5V167a26,26,0,0,0,7.73-4.31V439.11l-14.68,54.24-14.68-54.24V163.21a25.4,25.4,0,0,0,7.92,4.06v0a23.18,23.18,0,0,1-7.92-4.52q-1.05-.9-2-1.92c-7.3-7.5-12.07-19.95-12.07-33.52,0-.19,0-.38,0-.57l2.82,1.64c.2,11.19,3.75,21.15,9.25,27.8a29.14,29.14,0,0,0,2,2.23,23.15,23.15,0,0,0,6.66,4.66,22.87,22.87,0,0,1-6.66-9.73,33.67,33.67,0,0,1-2-9.26c-.08-1-.13-2-.13-3s.05-2,.13-2.94a35.59,35.59,0,0,1,.62-4.43l.17-.3-.79-.46-12-7-1.57-.91-2.57-1.5,2.59,1,1.57.62,2.78,1.09s0,.08,0,.11l2.6.91,6.65,2.62,1.44.57.12-.32h0l.12-.32h0c.11-.33.24-.65.36-1a27.08,27.08,0,0,1,2.31-4.74l.31-.14-2.62-5.73-2-4.47L233,101.69l-.8-1.74-.67-1.47L231,97.33l1.24,1.89.21.33,1,1.46,5.12,7.82,2,3.13,5.37,8.2.57-.37,0,0a14.34,14.34,0,0,1,5.4-3.17l.91-14.19.79-12.29c-6.82.44-12.94,4.83-17.33,11.63-.26.4-.51.81-.76,1.23l-1.56-2.38-.13-.2c5.17-8.06,12.63-13.12,20.93-13.12,8.45,0,16,5.25,21.2,13.56l-.15.22-1.59,2.32q-.4-.69-.82-1.35c-4.44-7-10.7-11.52-17.68-11.91l.85,12.3,1,13.87a13.45,13.45,0,0,1,5.91,2.83v0l.56.39,5.94-8.69,2-3,2-2.91.63-.88v0l1.74-2.55.94-1.38.22-.33,2.12-3.11Z"/><path class="cls-2" d="M232.58,102.42l1.47,3.2a49.17,49.17,0,0,0-4.75,19.92l-2.77-1.09A50.38,50.38,0,0,1,232.58,102.42Z"/><path class="cls-2" d="M282.94,124.66l-2.78,1.09a49.52,49.52,0,0,0-4.43-19.45l1.54-3.19A50.77,50.77,0,0,1,282.94,124.66Z"/></g><g id="n1"><path class="cls-3" d="M291.4,121.9l-7.79,2.82a51.69,51.69,0,0,0-6.18-22.83l4-8.37-4.82,7c-5.29-8.65-13.08-14.13-21.78-14.13s-16.27,5.32-21.55,13.75l-2.85-3.84,2.09,5.09a51.42,51.42,0,0,0-6.46,23.2l-5.73-2.2L226,126c0,.45,0,.9,0,1.36,0,22.61,12.91,40.94,28.83,40.94s28.83-18.33,28.83-40.94c0-.21,0-.42,0-.63Z"/></g><g id="Base"><path d="M260.15,141.51a0,0,0,0,1,0,0l8.54-2.42-8.54-1.9a0,0,0,0,1,0,0l4.56-7.71L257.18,134h0l-2.07-8.54L253,133.81h0l-7.53-4.38,4.21,7.53a0,0,0,0,1,0,0l-8.19,2.07,8.19,2.25a0,0,0,0,1,0,0l-4.21,7.36,4.78-3L251.66,189l2.55-27.84,3.86,49.88L259.6,146l5.11,2.74Z"/><path class="cls-4" d="M229.3,125.55A49.17,49.17,0,0,1,234,105.62l-1.47-3.2a50.38,50.38,0,0,0-6,22Z"/><polygon class="cls-4" points="246.03 59.54 263.78 50.34 263.78 48.03 246.03 57.23 246.03 59.54"/><polygon class="cls-4" points="246.03 68.41 263.78 59.21 263.78 56.91 246.03 66.11 246.03 68.41"/><polygon class="cls-4" points="246.03 33.6 263.78 24.4 263.78 22.09 246.03 31.3 246.03 33.6"/><polygon class="cls-4" points="246.03 77.29 263.78 68.08 263.78 65.78 246.03 74.98 246.03 77.29"/><polygon class="cls-4" points="246.03 41.79 263.78 32.59 263.78 30.28 246.03 39.49 246.03 41.79"/><polygon class="cls-4" points="246.03 51.35 263.78 42.15 263.78 39.84 246.03 49.04 246.03 51.35"/><path class="cls-4" d="M275.73,106.3a49.52,49.52,0,0,1,4.43,19.45l2.78-1.09a50.77,50.77,0,0,0-5.68-21.56Z"/><polygon class="cls-4" points="246.03 23.1 246.03 25.41 263.45 16.38 259 16.38 246.03 23.1"/><polygon class="cls-4" points="265.01 5.46 244.83 5.46 239.24 9.56 244.83 13.65 265.01 13.65 271.15 9.56 265.01 5.46"/><polygon class="cls-4" points="255.25 82.59 255.55 82.59 263.78 78.32 263.78 76.02 251.1 82.59 255.25 82.59"/><path d="M305.23,98.26c-.55-2-2.26-3.48-5.23-4.67-6.36-2.55-22.66-3.89-25.76-4.13l-4.81-6.86h-3.6v-67l9-6-9.21-6.14H244.16l-8.4,6.14,8.22,6v67h-2.92l-4.81,6.86c-3.1.24-19.4,1.58-25.76,4.13-3,1.19-4.69,2.72-5.23,4.67-.83,3,1.27,6.3,3.43,9.18,1.07,1.43,2,2.57,3.12,2s.81-2.14-.62-6.73c-.25-.79-.48-1.55-.63-2.09.65-.65,3.91-1.89,9.71-2.86,5.15-.87,8.6-.91,9.88-.67l1.62,3.53a50.44,50.44,0,0,0-6.8,23.2l-6.54-2.57-.3.61,6.76,3.94c0,.38,0,.75,0,1.13,0,14.49,5.44,27.22,13.65,34.59V439.38l15.73,58.15,1-.27,1,.27,15.7-58,0-.13V160.9c7.83-7.45,13-19.88,13-34,0-.28,0-.56,0-.84l9.14-5.08-.29-.62-8.92,3.5a50.61,50.61,0,0,0-6.58-22.9l1.85-3.85c1-.31,4.61-.31,10.1.61,5.8,1,9.06,2.22,9.71,2.86-.15.54-.38,1.3-.63,2.09-1.44,4.59-1.8,6.12-.62,6.73s2-.59,3.12-2C304,104.56,306.06,101.21,305.23,98.26ZM263.78,22.09V24.4L246,33.6V31.29ZM246,25.41V23.1l13-6.72h4.45Zm17.75,4.87v2.31L246,41.79V39.49Zm0,9.56v2.31L246,51.35V49Zm0,8.19v2.31L246,59.54V57.23Zm0,8.87v2.31L246,68.41V66.11Zm0,8.87v2.31L246,77.29V75Zm0,10.24v2.31l-8.23,4.27H251.1ZM239.24,9.56l5.6-4.1H265l6.14,4.1L265,13.65H244.83Zm-6.66,92.87,1.47,3.2a49.17,49.17,0,0,0-4.75,19.92l-2.77-1.09A50.38,50.38,0,0,1,232.58,102.42Zm50.36,22.24-2.78,1.09a49.52,49.52,0,0,0-4.43-19.45l1.54-3.19A50.77,50.77,0,0,1,282.94,124.66ZM278.48,99l-.63,1.31-1,2.06L272,112.54l-2,4.26-3,6.28.31.15a26.16,26.16,0,0,1,2.71,5.15c.16.4.32.8.47,1.22h0l.25.64,1.33-.52,7.37-2.89.85-.3v0l2.79-1.09,1.92-.75,4.38-1.72-4.36,2.42L283,126.4,280.2,128v0l-.5.3L272,132.53l-.7.39.17.3h0c.22,1,.39,2,.53,3.08a36.1,36.1,0,0,1,0,9.64,32.85,32.85,0,0,1-2,7.92,24.24,24.24,0,0,1-4.65,7.51,25.66,25.66,0,0,0,4.65-4,31,31,0,0,0,2-2.49c4.84-6.53,8-15.78,8.2-26.1l2.83-1.57s0,.08,0,.12c0,12.92-4.33,24.89-11,32.5q-1,1.12-2,2.12a24.09,24.09,0,0,1-7.73,5V167a26,26,0,0,0,7.73-4.31V439.11l-14.68,54.24-14.68-54.24V163.21a25.4,25.4,0,0,0,7.92,4.06v0a23.18,23.18,0,0,1-7.92-4.52q-1.05-.9-2-1.92c-7.3-7.5-12.07-19.95-12.07-33.52,0-.19,0-.38,0-.57l2.82,1.64c.2,11.19,3.75,21.15,9.25,27.8a29.14,29.14,0,0,0,2,2.23,23.15,23.15,0,0,0,6.66,4.66,22.87,22.87,0,0,1-6.66-9.73,33.67,33.67,0,0,1-2-9.26c-.08-1-.13-2-.13-3s.05-2,.13-2.94a35.59,35.59,0,0,1,.62-4.43l.17-.3-.79-.46-12-7-1.57-.91-2.57-1.5,2.59,1,1.57.62,2.78,1.09s0,.08,0,.11l2.6.91,6.65,2.62,1.44.57.12-.32h0l.12-.32h0c.11-.33.24-.65.36-1a27.08,27.08,0,0,1,2.31-4.74l.31-.14-2.62-5.73-2-4.47L233,101.69l-.8-1.74-.67-1.47L231,97.33l1.24,1.89.21.33,1,1.46,5.12,7.82,2,3.13,5.37,8.2.57-.37,0,0a14.34,14.34,0,0,1,5.4-3.17l.91-14.19.79-12.29c-6.82.44-12.94,4.83-17.33,11.63-.26.4-.51.81-.76,1.23l-1.56-2.38-.13-.2c5.17-8.06,12.63-13.12,20.93-13.12,8.45,0,16,5.25,21.2,13.56l-.15.22-1.59,2.32q-.4-.69-.82-1.35c-4.44-7-10.7-11.52-17.68-11.91l.85,12.3,1,13.87a13.45,13.45,0,0,1,5.91,2.83v0l.56.39,5.94-8.69,2-3,2-2.91.63-.88v0l1.74-2.55.94-1.38.22-.33,2.12-3.11Z"/></g><g id="p1"><path class="cls-5" d="M260.15,141.51a0,0,0,0,1,0,0l8.54-2.42-8.54-1.9a0,0,0,0,1,0,0l4.56-7.71L257.18,134h0l-2.07-8.54L253,133.81h0l-7.53-4.38,4.21,7.53a0,0,0,0,1,0,0l-8.19,2.07,8.19,2.25a0,0,0,0,1,0,0l-4.21,7.36,4.78-3L251.66,189l2.55-27.84,3.86,49.88L259.6,146l5.11,2.74Z"/><path class="cls-5" d="M289.27,122.91l-4.38,1.72c0,.23,0,.47,0,.71Z"/><path class="cls-5" d="M222.34,123.54l2.57,1.5c0-.16,0-.32,0-.48Z"/><path class="cls-5" d="M231,97.33l1.2,2.62.25-.4Z"/><path class="cls-5" d="M279.62,96.65l-2.12,3.11.36.57Z"/><path class="cls-5" d="M294.07,121l-.29-.62-8.92,3.5a50.61,50.61,0,0,0-6.58-22.9l3.91-8.12-.59-.34-4.5,6.57c-5.49-8.27-13.4-13.45-22.18-13.45s-16.56,5.11-22,13.26l-3.78-5.77-.6.33,3.28,7.15a50.44,50.44,0,0,0-6.8,23.2l-6.54-2.57-.3.61,6.76,3.94c0,.38,0,.75,0,1.13,0,19.77,10.12,36.29,23.62,40.33v0c-12.62-4-22-20.88-22-40,0-.19,0-.38,0-.57l2.82,1.64c.29,16.35,7.75,30.09,17.95,34.69-5.26-4.25-8.83-12.5-8.83-22a36.19,36.19,0,0,1,.75-7.37l.17-.3-12.84-7.47-1.57-.91-2.57-1.5,2.59,1,1.57.62,2.78,1.09s0,.08,0,.11l2.6.91,8.09,3.18.12-.32h0l.12-.32h0a27.69,27.69,0,0,1,2.68-5.72l.31-.14L233,101.69l-.8-1.74L231,97.33l1.45,2.22,1,1.46,12.53,19.16.57-.37,0,0a14.34,14.34,0,0,1,5.4-3.17l1.7-26.48c-7.22.47-13.66,5.35-18.09,12.85l-1.69-2.58c5.17-8.06,12.63-13.12,20.93-13.12,8.45,0,16,5.25,21.2,13.56l-1.73,2.53c-4.48-7.78-11.07-12.85-18.49-13.26l1.82,26.17a13.45,13.45,0,0,1,5.91,2.83v0l.56.39,10-14.59.63-.88v0l1.74-2.55,1.17-1.7,2.12-3.11-1.77,3.67-1,2.06-10,20.69.31.15a26.92,26.92,0,0,1,3.18,6.37h0l.25.64,8.71-3.41.85-.3v0l2.79-1.09,1.92-.75,4.38-1.72-4.36,2.42L283,126.4,280.2,128v0l-.5.3-8.43,4.68.17.3h0a36,36,0,0,1,.86,7.87c0,8.34-2.77,15.73-7,20.28,8.54-5.7,14.54-18.1,14.9-32.62l2.83-1.57s0,.08,0,.12c0,18.46-8.82,35-20.81,39.61V167c13.06-4.48,22.74-20.71,22.74-40,0-.28,0-.56,0-.84Zm-60-15.41a49.17,49.17,0,0,0-4.75,19.92l-2.77-1.09a50.38,50.38,0,0,1,6-22Zm46.11,20.13a49.52,49.52,0,0,0-4.43-19.45l1.54-3.19a50.77,50.77,0,0,1,5.68,21.56Z"/></g></svg>